<?xml version="1.0" encoding="UTF-8" standalone="no"?>
<!--
  - Copyright (c) 2021-2024 Bearsampp
  - License:  GNU General Public License version 3 or later; see LICENSE.txt
  - Author: Bear
  - Website: https://bearsampp.com
  - Github: https://github.com/Bearsampp
  -->

<!DOCTYPE svg PUBLIC "-//W3C//DTD SVG 1.1//EN"
 "http://www.w3.org/Graphics/SVG/1.1/DTD/svg11.dtd">
<!-- Generated by graphviz version 11.0.0 (20240428.1522)
 -->
<!-- Title: Nssm\isPending Pages: 1 -->
<!--zoomable 162 -->

<svg id="main" version="1.1" xmlns="http://www.w3.org/2000/svg" xmlns:xlink="http://www.w3.org/1999/xlink" xml:space="preserve" onload="init(evt)">
<style type="text/css"><![CDATA[
.node, .edge {opacity: 0.7;}
.node.selected, .edge.selected {opacity: 1;}
.edge:hover path { stroke: red; }
.edge:hover polygon { stroke: red; fill: red; }
]]></style>

<defs>
  <circle id="rim" cx="0" cy="0" r="7"/>
  <circle id="rim2" cx="0" cy="0" r="3.5"/>
  <g id="zoomPlus">
    <use xlink:href="#rim" fill="#404040"><set attributeName="fill" to="#808080" begin="zoomplus.mouseover" end="zoomplus.mouseout"/></use>
    <path d="M-4,0h8M0,-4v8" fill="none" stroke="white" stroke-width="1.5" pointer-events="none"/>
  </g>
  <g id="zoomMin">
    <use xlink:href="#rim" fill="#404040"><set attributeName="fill" to="#808080" begin="zoomminus.mouseover" end="zoomminus.mouseout"/></use>
    <path d="M-4,0h8" fill="none" stroke="white" stroke-width="1.5" pointer-events="none"/>
  </g>
  <g id="arrowUp" transform="translate(30 24)">
    <use xlink:href="#rim"/>
    <path pointer-events="none" fill="none" stroke="white" stroke-width="1.5" d="M0,-3.0v7 M-2.5,-0.5L0,-3.0L2.5,-0.5"/>
  </g>
  <g id="arrowRight" transform="rotate(90) translate(36 -43)">
    <use xlink:href="#rim"/>
    <path pointer-events="none" fill="none" stroke="white" stroke-width="1.5" d="M0,-3.0v7 M-2.5,-0.5L0,-3.0L2.5,-0.5"/>
  </g>
  <g id="arrowDown" transform="rotate(180) translate(-30 -48)">
    <use xlink:href="#rim"/>
    <path pointer-events="none" fill="none" stroke="white" stroke-width="1.5" d="M0,-3.0v7 M-2.5,-0.5L0,-3.0L2.5,-0.5"/>
  </g>
  <g id="arrowLeft" transform="rotate(270) translate(-36 17)">
    <use xlink:href="#rim"/>
    <path pointer-events="none" fill="none" stroke="white" stroke-width="1.5" d="M0,-3.0v7 M-2.5,-0.5L0,-3.0L2.5,-0.5"/>
  </g>
  <g id="resetDef">
    <use xlink:href="#rim2" fill="#404040"><set attributeName="fill" to="#808080" begin="reset.mouseover" end="reset.mouseout"/></use>
  </g>
</defs>
<script type="application/ecmascript">
var viewWidth = 689;
var viewHeight = 162;
var sectionId = 'dynsection-10';
</script>
<script type="application/ecmascript" xlink:href="../../svg.min.js"/>
<svg id="graph" class="graph">
<g id="viewport">
<title>Nssm\isPending</title>
<!-- Node1 -->
<g id="Node000001" class="node">
<title>Node1</title>
<g id="a_Node000001"><a xlink:title=" ">
<polygon fill="#999999" stroke="#666666" points="680.75,-88.5 561.25,-88.5 561.25,-64 680.75,-64 680.75,-88.5"/>
<text text-anchor="middle" x="621" y="-71.2" font-family="Helvetica,sans-Serif" font-size="14.00">Nssm\isPending</text>
</a>
</g>
</g>
<!-- Node2 -->
<g id="Node000002" class="node">
<title>Node2</title>
<g id="a_Node000002"><a xlink:href="../../d3/d93/classNssm.html#a55fad2d59588fb1dd031e00fa0334fd4" target="_top" xlink:title=" ">
<polygon fill="white" stroke="#666666" points="525.25,-88.5 431.25,-88.5 431.25,-64 525.25,-64 525.25,-88.5"/>
<text text-anchor="middle" x="478.25" y="-71.2" font-family="Helvetica,sans-Serif" font-size="14.00">Nssm\status</text>
</a>
</g>
</g>
<!-- Node1&#45;&gt;Node2 -->
<g id="edge1_Node000001_Node000002" class="edge">
<title>Node1&#45;&gt;Node2</title>
<g id="a_edge1_Node000001_Node000002"><a xlink:title=" ">
<path fill="none" stroke="#63b8ff" d="M549.88,-76.25C541.6,-76.25 533.31,-76.25 525.48,-76.25"/>
<polygon fill="#63b8ff" stroke="#63b8ff" points="549.61,-79.75 559.61,-76.25 549.61,-72.75 549.61,-79.75"/>
</a>
</g>
</g>
<!-- Node3 -->
<g id="Node000003" class="node">
<title>Node3</title>
<g id="a_Node000003"><a xlink:href="../../d3/d93/classNssm.html#ac06cfadc605e5e646d67d6997f820737" target="_top" xlink:title=" ">
<polygon fill="white" stroke="#666666" points="394.5,-153.5 274.25,-153.5 274.25,-129 394.5,-129 394.5,-153.5"/>
<text text-anchor="middle" x="334.38" y="-136.2" font-family="Helvetica,sans-Serif" font-size="14.00">Nssm\isInstalled</text>
</a>
</g>
</g>
<!-- Node2&#45;&gt;Node3 -->
<g id="edge2_Node000002_Node000003" class="edge">
<title>Node2&#45;&gt;Node3</title>
<g id="a_edge2_Node000002_Node000003"><a xlink:title=" ">
<path fill="none" stroke="#63b8ff" d="M445.23,-94.28C430.27,-102.39 412.08,-111.78 395.25,-119.25 387.96,-122.48 380.04,-125.64 372.41,-128.5"/>
<polygon fill="#63b8ff" stroke="#63b8ff" points="446.6,-97.52 453.69,-89.65 443.24,-91.39 446.6,-97.52"/>
</a>
</g>
</g>
<!-- Node6 -->
<g id="Node000006" class="node">
<title>Node6</title>
<g id="a_Node000006"><a xlink:href="../../d3/d93/classNssm.html#a38d6eb35a2fd3625a2c777120e7eba28" target="_top" xlink:title=" ">
<polygon fill="white" stroke="#666666" points="392.25,-110.5 276.5,-110.5 276.5,-86 392.25,-86 392.25,-110.5"/>
<text text-anchor="middle" x="334.38" y="-93.2" font-family="Helvetica,sans-Serif" font-size="14.00">Nssm\isPaused</text>
</a>
</g>
</g>
<!-- Node2&#45;&gt;Node6 -->
<g id="edge5_Node000002_Node000006" class="edge">
<title>Node2&#45;&gt;Node6</title>
<g id="a_edge5_Node000002_Node000006"><a xlink:title=" ">
<path fill="none" stroke="#63b8ff" d="M419.68,-85.18C410.75,-86.56 401.52,-87.99 392.59,-89.38"/>
<polygon fill="#63b8ff" stroke="#63b8ff" points="419.95,-88.68 429.3,-83.69 418.88,-81.76 419.95,-88.68"/>
</a>
</g>
</g>
<!-- Node7 -->
<g id="Node000007" class="node">
<title>Node7</title>
<g id="a_Node000007"><a xlink:href="../../d3/d93/classNssm.html#a34f3430d8cd7125210f2f76f617eddc1" target="_top" xlink:title=" ">
<polygon fill="white" stroke="#666666" points="393.75,-24.5 275,-24.5 275,0 393.75,0 393.75,-24.5"/>
<text text-anchor="middle" x="334.38" y="-7.2" font-family="Helvetica,sans-Serif" font-size="14.00">Nssm\isRunning</text>
</a>
</g>
</g>
<!-- Node2&#45;&gt;Node7 -->
<g id="edge6_Node000002_Node000007" class="edge">
<title>Node2&#45;&gt;Node7</title>
<g id="a_edge6_Node000002_Node000007"><a xlink:title=" ">
<path fill="none" stroke="#63b8ff" d="M444.55,-58.35C429.7,-50.52 411.8,-41.5 395.25,-34.25 387.84,-31.01 379.79,-27.82 372.07,-24.93"/>
<polygon fill="#63b8ff" stroke="#63b8ff" points="442.48,-61.21 452.95,-62.83 445.77,-55.03 442.48,-61.21"/>
</a>
</g>
</g>
<!-- Node11 -->
<g id="Node000011" class="node">
<title>Node11</title>
<g id="a_Node000011"><a xlink:href="../../d3/d93/classNssm.html#aef245dc2d387228cc9fdd84bd40a45e2" target="_top" xlink:title=" ">
<polygon fill="white" stroke="#666666" points="395.25,-67.5 273.5,-67.5 273.5,-43 395.25,-43 395.25,-67.5"/>
<text text-anchor="middle" x="334.38" y="-50.2" font-family="Helvetica,sans-Serif" font-size="14.00">Nssm\isStopped</text>
</a>
</g>
</g>
<!-- Node2&#45;&gt;Node11 -->
<g id="edge10_Node000002_Node000011" class="edge">
<title>Node2&#45;&gt;Node11</title>
<g id="a_edge10_Node000002_Node000011"><a xlink:title=" ">
<path fill="none" stroke="#63b8ff" d="M419.48,-67.7C411.62,-66.54 403.53,-65.34 395.63,-64.17"/>
<polygon fill="#63b8ff" stroke="#63b8ff" points="418.89,-71.15 429.3,-69.15 419.92,-64.23 418.89,-71.15"/>
</a>
</g>
</g>
<!-- Node4 -->
<g id="Node000004" class="node">
<title>Node4</title>
<g id="a_Node000004"><a xlink:href="../../d3/d93/classNssm.html#ad7fa8b9a6d3705792e43c0301cec213e" target="_top" xlink:title=" ">
<polygon fill="white" stroke="#666666" points="237.5,-153.5 141.25,-153.5 141.25,-129 237.5,-129 237.5,-153.5"/>
<text text-anchor="middle" x="189.38" y="-136.2" font-family="Helvetica,sans-Serif" font-size="14.00">Nssm\create</text>
</a>
</g>
</g>
<!-- Node3&#45;&gt;Node4 -->
<g id="edge3_Node000003_Node000004" class="edge">
<title>Node3&#45;&gt;Node4</title>
<g id="a_edge3_Node000003_Node000004"><a xlink:title=" ">
<path fill="none" stroke="#63b8ff" d="M262.51,-141.25C254.07,-141.25 245.61,-141.25 237.62,-141.25"/>
<polygon fill="#63b8ff" stroke="#63b8ff" points="262.46,-144.75 272.46,-141.25 262.46,-137.75 262.46,-144.75"/>
</a>
</g>
</g>
<!-- Node5 -->
<g id="Node000005" class="node">
<title>Node5</title>
<g id="a_Node000005"><a xlink:href="../../d3/d93/classNssm.html#a231abdaa59bfc1a18058c63faf77b874" target="_top" xlink:title=" ">
<polygon fill="white" stroke="#666666" points="100.75,-111.5 4.5,-111.5 4.5,-87 100.75,-87 100.75,-111.5"/>
<text text-anchor="middle" x="52.62" y="-94.2" font-family="Helvetica,sans-Serif" font-size="14.00">Nssm\delete</text>
</a>
</g>
</g>
<!-- Node3&#45;&gt;Node5 -->
<g id="edge4_Node000003_Node000005" class="edge">
<title>Node3&#45;&gt;Node5</title>
<g id="a_edge4_Node000003_Node000005"><a xlink:title=" ">
<path fill="none" stroke="#63b8ff" d="M268.68,-126.14C258.29,-123.98 247.62,-121.93 237.5,-120.25 191.38,-112.59 138.29,-106.85 101.05,-103.33"/>
<polygon fill="#63b8ff" stroke="#63b8ff" points="267.82,-129.54 278.33,-128.19 269.28,-122.69 267.82,-129.54"/>
</a>
</g>
</g>
<!-- Node8 -->
<g id="Node000008" class="node">
<title>Node8</title>
<g id="a_Node000008"><a xlink:href="../../d3/d93/classNssm.html#aa32df80b96119003df6133155b5a6610" target="_top" xlink:title=" ">
<polygon fill="white" stroke="#666666" points="231.12,-24.5 147.62,-24.5 147.62,0 231.12,0 231.12,-24.5"/>
<text text-anchor="middle" x="189.38" y="-7.2" font-family="Helvetica,sans-Serif" font-size="14.00">Nssm\start</text>
</a>
</g>
</g>
<!-- Node7&#45;&gt;Node8 -->
<g id="edge7_Node000007_Node000008" class="edge">
<title>Node7&#45;&gt;Node8</title>
<g id="a_edge7_Node000007_Node000008"><a xlink:title=" ">
<path fill="none" stroke="#63b8ff" d="M263.48,-12.25C252.56,-12.25 241.59,-12.25 231.59,-12.25"/>
<polygon fill="#63b8ff" stroke="#63b8ff" points="263.29,-15.75 273.29,-12.25 263.29,-8.75 263.29,-15.75"/>
</a>
</g>
</g>
<!-- Node9 -->
<g id="Node000009" class="node">
<title>Node9</title>
<g id="a_Node000009"><a xlink:href="../../d3/d93/classNssm.html#a4222f835dea3ac472ab8fd54a77dbc98" target="_top" xlink:title=" ">
<polygon fill="white" stroke="#666666" points="100.75,-67.5 4.5,-67.5 4.5,-43 100.75,-43 100.75,-67.5"/>
<text text-anchor="middle" x="52.62" y="-50.2" font-family="Helvetica,sans-Serif" font-size="14.00">Nssm\restart</text>
</a>
</g>
</g>
<!-- Node8&#45;&gt;Node9 -->
<g id="edge8_Node000008_Node000009" class="edge">
<title>Node8&#45;&gt;Node9</title>
<g id="a_edge8_Node000008_Node000009"><a xlink:title=" ">
<path fill="none" stroke="#63b8ff" d="M137.76,-28.4C123.13,-33.07 107.38,-38.1 93.51,-42.52"/>
<polygon fill="#63b8ff" stroke="#63b8ff" points="138.77,-31.75 147.23,-25.38 136.64,-25.08 138.77,-31.75"/>
</a>
</g>
</g>
<!-- Node10 -->
<g id="Node000010" class="node">
<title>Node10</title>
<g id="a_Node000010"><a xlink:href="../../d3/d93/classNssm.html#a61e340f35a716e338685f4bd9d3b4dc3" target="_top" xlink:title=" ">
<polygon fill="white" stroke="#666666" points="105.25,-24.5 0,-24.5 0,0 105.25,0 105.25,-24.5"/>
<text text-anchor="middle" x="52.62" y="-7.2" font-family="Helvetica,sans-Serif" font-size="14.00">Nssm\setStart</text>
</a>
</g>
</g>
<!-- Node8&#45;&gt;Node10 -->
<g id="edge9_Node000008_Node000010" class="edge">
<title>Node8&#45;&gt;Node10</title>
<g id="a_edge9_Node000008_Node000010"><a xlink:title=" ">
<path fill="none" stroke="#63b8ff" d="M135.79,-12.25C125.84,-12.25 115.43,-12.25 105.5,-12.25"/>
<polygon fill="#63b8ff" stroke="#63b8ff" points="135.7,-15.75 145.7,-12.25 135.7,-8.75 135.7,-15.75"/>
</a>
</g>
</g>
<!-- Node12 -->
<g id="Node000012" class="node">
<title>Node12</title>
<g id="a_Node000012"><a xlink:href="../../d3/d93/classNssm.html#a5c84c357e07c0abd8e5509e021c4360f" target="_top" xlink:title=" ">
<polygon fill="white" stroke="#666666" points="231.5,-67.5 147.25,-67.5 147.25,-43 231.5,-43 231.5,-67.5"/>
<text text-anchor="middle" x="189.38" y="-50.2" font-family="Helvetica,sans-Serif" font-size="14.00">Nssm\stop</text>
</a>
</g>
</g>
<!-- Node11&#45;&gt;Node12 -->
<g id="edge11_Node000011_Node000012" class="edge">
<title>Node11&#45;&gt;Node12</title>
<g id="a_edge11_Node000011_Node000012"><a xlink:title=" ">
<path fill="none" stroke="#63b8ff" d="M261.66,-55.25C251.46,-55.25 241.25,-55.25 231.89,-55.25"/>
<polygon fill="#63b8ff" stroke="#63b8ff" points="261.63,-58.75 271.63,-55.25 261.63,-51.75 261.63,-58.75"/>
</a>
</g>
</g>
<!-- Node12&#45;&gt;Node5 -->
<g id="edge12_Node000012_Node000005" class="edge">
<title>Node12&#45;&gt;Node5</title>
<g id="a_edge12_Node000012_Node000005"><a xlink:title=" ">
<path fill="none" stroke="#63b8ff" d="M138.6,-71.5C123.39,-76.47 106.89,-81.86 92.51,-86.55"/>
<polygon fill="#63b8ff" stroke="#63b8ff" points="139.54,-74.88 147.96,-68.45 137.37,-68.22 139.54,-74.88"/>
</a>
</g>
</g>
<!-- Node12&#45;&gt;Node9 -->
<g id="edge13_Node000012_Node000009" class="edge">
<title>Node12&#45;&gt;Node9</title>
<g id="a_edge13_Node000012_Node000009"><a xlink:title=" ">
<path fill="none" stroke="#63b8ff" d="M135.64,-55.25C124.18,-55.25 112.13,-55.25 100.9,-55.25"/>
<polygon fill="#63b8ff" stroke="#63b8ff" points="135.33,-58.75 145.33,-55.25 135.33,-51.75 135.33,-58.75"/>
</a>
</g>
</g>
</g>
</svg>

<g id="navigator" transform="translate(0 0)" fill="#404254">
  <rect fill="#f2f5e9" fill-opacity="0.5" stroke="#606060" stroke-width=".5" x="0" y="0" width="60" height="60"/>
  <use id="zoomplus" xlink:href="#zoomPlus" x="17" y="9" onmousedown="handleZoom(evt,'in')"/>
  <use id="zoomminus" xlink:href="#zoomMin" x="42" y="9" onmousedown="handleZoom(evt,'out')"/>
  <use id="reset" xlink:href="#resetDef" x="30" y="36" onmousedown="handleReset()"/>
   <use id="arrowup" xlink:href="#arrowUp" x="0" y="0" onmousedown="handlePan(0,-1)"/>
  <use id="arrowright" xlink:href="#arrowRight" x="0" y="0" onmousedown="handlePan(1,0)"/>
  <use id="arrowdown" xlink:href="#arrowDown" x="0" y="0" onmousedown="handlePan(0,1)"/>
  <use id="arrowleft" xlink:href="#arrowLeft" x="0" y="0" onmousedown="handlePan(-1,0)"/>
</g>
<svg viewBox="0 0 15 15" width="100%" height="30px" preserveAspectRatio="xMaxYMin meet">
 <g id="arrow_out" transform="scale(0.3 0.3)">
  <a xlink:href="classNssm_aa344c381cd6ebc674e4f4c24d82cb2ee_icgraph_org.svg" target="_base">
   <rect id="button" ry="5" rx="5" y="6" x="6" height="38" width="38"
        fill="#f2f5e9" fill-opacity="0.5" stroke="#606060" stroke-width="1.0"/>
   <path id="arrow"
     d="M 11.500037,31.436501 C 11.940474,20.09759 22.043105,11.32322 32.158766,21.979434 L 37.068811,17.246167 C 37.068811,17.246167 37.088388,32 37.088388,32 L 22.160133,31.978069 C 22.160133,31.978069 26.997745,27.140456 26.997745,27.140456 C 18.528582,18.264221 13.291696,25.230495 11.500037,31.436501 z"
     style="fill:#404040;"/>
  </a>
 </g>
</svg>

<style type='text/css'>
<![CDATA[
[data-mouse-over-selected='false'] { opacity: 0.7; }
[data-mouse-over-selected='true']  { opacity: 1.0; }
]]>
</style>
<script type="application/ecmascript"><![CDATA[
document.addEventListener('DOMContentLoaded', (event) => {
  highlightEdges();
  highlightAdjacentNodes();
});
]]></script>
</svg>
