<?xml version="1.0" encoding="UTF-8" standalone="no"?>
<!--
  - Copyright (c) 2021-2024 Bearsampp
  - License:  GNU General Public License version 3 or later; see LICENSE.txt
  - Author: Bear
  - Website: https://bearsampp.com
  - Github: https://github.com/Bearsampp
  -->

<!DOCTYPE svg PUBLIC "-//W3C//DTD SVG 1.1//EN"
 "http://www.w3.org/Graphics/SVG/1.1/DTD/svg11.dtd">
<!-- Generated by graphviz version 11.0.0 (20240428.1522)
 -->
<!-- Title: Nssm\writeLogInfo Pages: 1 -->
<svg width="828pt" height="266pt"
 viewBox="0.00 0.00 827.75 265.60" xmlns="http://www.w3.org/2000/svg" xmlns:xlink="http://www.w3.org/1999/xlink">
<g id="graph0" class="graph" transform="scale(1 1) rotate(0) translate(4 261.6)">
<title>Nssm\writeLogInfo</title>
<!-- Node1 -->
<g id="Node000001" class="node">
<title>Node1</title>
<g id="a_Node000001"><a xlink:title=" ">
<polygon fill="#999999" stroke="#666666" points="819.75,-139.35 684.5,-139.35 684.5,-114.85 819.75,-114.85 819.75,-139.35"/>
<text text-anchor="middle" x="752.12" y="-122.05" font-family="Helvetica,sans-Serif" font-size="14.00">Nssm\writeLogInfo</text>
</a>
</g>
</g>
<!-- Node2 -->
<g id="Node000002" class="node">
<title>Node2</title>
<g id="a_Node000002"><a xlink:href="../../d3/d93/classNssm.html#a62814441adfea926dba2a7a6840ef6b8" target="_top" xlink:title=" ">
<polygon fill="white" stroke="#666666" points="648.5,-139.35 561.25,-139.35 561.25,-114.85 648.5,-114.85 648.5,-139.35"/>
<text text-anchor="middle" x="604.88" y="-122.05" font-family="Helvetica,sans-Serif" font-size="14.00">Nssm\exec</text>
</a>
</g>
</g>
<!-- Node1&#45;&gt;Node2 -->
<g id="edge1_Node000001_Node000002" class="edge">
<title>Node1&#45;&gt;Node2</title>
<g id="a_edge1_Node000001_Node000002"><a xlink:title=" ">
<path fill="none" stroke="#63b8ff" d="M672.72,-127.1C664.44,-127.1 656.27,-127.1 648.62,-127.1"/>
<polygon fill="#63b8ff" stroke="#63b8ff" points="672.51,-130.6 682.51,-127.1 672.51,-123.6 672.51,-130.6"/>
</a>
</g>
</g>
<!-- Node3 -->
<g id="Node000003" class="node">
<title>Node3</title>
<g id="a_Node000003"><a xlink:href="../../d3/d93/classNssm.html#ad7fa8b9a6d3705792e43c0301cec213e" target="_top" xlink:title=" ">
<polygon fill="white" stroke="#666666" points="237.5,-242.35 141.25,-242.35 141.25,-217.85 237.5,-217.85 237.5,-242.35"/>
<text text-anchor="middle" x="189.38" y="-225.05" font-family="Helvetica,sans-Serif" font-size="14.00">Nssm\create</text>
</a>
</g>
</g>
<!-- Node2&#45;&gt;Node3 -->
<g id="edge2_Node000002_Node000003" class="edge">
<title>Node2&#45;&gt;Node3</title>
<g id="a_edge2_Node000002_Node000003"><a xlink:title=" ">
<path fill="none" stroke="#63b8ff" d="M569.87,-144.96C529.45,-165.27 459.4,-197.61 395.25,-213.1 342.34,-225.87 279.77,-229.46 237.82,-230.27"/>
<polygon fill="#63b8ff" stroke="#63b8ff" points="571.29,-148.16 578.62,-140.51 568.12,-141.92 571.29,-148.16"/>
</a>
</g>
</g>
<!-- Node4 -->
<g id="Node000004" class="node">
<title>Node4</title>
<g id="a_Node000004"><a xlink:href="../../d3/d93/classNssm.html#a231abdaa59bfc1a18058c63faf77b874" target="_top" xlink:title=" ">
<polygon fill="white" stroke="#666666" points="100.75,-202.35 4.5,-202.35 4.5,-177.85 100.75,-177.85 100.75,-202.35"/>
<text text-anchor="middle" x="52.62" y="-185.05" font-family="Helvetica,sans-Serif" font-size="14.00">Nssm\delete</text>
</a>
</g>
</g>
<!-- Node2&#45;&gt;Node4 -->
<g id="edge3_Node000002_Node000004" class="edge">
<title>Node2&#45;&gt;Node4</title>
<g id="a_edge3_Node000002_Node000004"><a xlink:title=" ">
<path fill="none" stroke="#63b8ff" d="M585.83,-148.01C571.04,-163.9 548.78,-185.17 525.25,-198.1 411.27,-260.71 367.35,-244.12 237.5,-251.1 194.78,-253.39 182.07,-263.9 141.25,-251.1 111.01,-241.61 82.07,-217.58 66.19,-202.67"/>
<polygon fill="#63b8ff" stroke="#63b8ff" points="588.11,-150.7 592.22,-140.94 582.92,-146.01 588.11,-150.7"/>
</a>
</g>
</g>
<!-- Node5 -->
<g id="Node000005" class="node">
<title>Node5</title>
<g id="a_Node000005"><a xlink:href="../../d3/d93/classNssm.html#aa32df80b96119003df6133155b5a6610" target="_top" xlink:title=" ">
<polygon fill="white" stroke="#666666" points="231.12,-75.35 147.62,-75.35 147.62,-50.85 231.12,-50.85 231.12,-75.35"/>
<text text-anchor="middle" x="189.38" y="-58.05" font-family="Helvetica,sans-Serif" font-size="14.00">Nssm\start</text>
</a>
</g>
</g>
<!-- Node2&#45;&gt;Node5 -->
<g id="edge4_Node000002_Node000005" class="edge">
<title>Node2&#45;&gt;Node5</title>
<g id="a_edge4_Node000002_Node000005"><a xlink:title=" ">
<path fill="none" stroke="#63b8ff" d="M591.44,-104.78C578.11,-83.21 554.81,-51.59 525.25,-36.1 425.99,15.92 382.63,3.35 273.5,-22.1 250.15,-27.54 225.82,-40.54 209.56,-50.45"/>
<polygon fill="#63b8ff" stroke="#63b8ff" points="588.29,-106.33 596.4,-113.15 594.31,-102.76 588.29,-106.33"/>
</a>
</g>
</g>
<!-- Node8 -->
<g id="Node000008" class="node">
<title>Node8</title>
<g id="a_Node000008"><a xlink:href="../../d3/d93/classNssm.html#a55fad2d59588fb1dd031e00fa0334fd4" target="_top" xlink:title=" ">
<polygon fill="white" stroke="#666666" points="525.25,-139.35 431.25,-139.35 431.25,-114.85 525.25,-114.85 525.25,-139.35"/>
<text text-anchor="middle" x="478.25" y="-122.05" font-family="Helvetica,sans-Serif" font-size="14.00">Nssm\status</text>
</a>
</g>
</g>
<!-- Node2&#45;&gt;Node8 -->
<g id="edge7_Node000002_Node000008" class="edge">
<title>Node2&#45;&gt;Node8</title>
<g id="a_edge7_Node000002_Node000008"><a xlink:title=" ">
<path fill="none" stroke="#63b8ff" d="M549.51,-127.1C541.55,-127.1 533.41,-127.1 525.63,-127.1"/>
<polygon fill="#63b8ff" stroke="#63b8ff" points="549.47,-130.6 559.47,-127.1 549.47,-123.6 549.47,-130.6"/>
</a>
</g>
</g>
<!-- Node13 -->
<g id="Node000013" class="node">
<title>Node13</title>
<g id="a_Node000013"><a xlink:href="../../d3/d93/classNssm.html#a5c84c357e07c0abd8e5509e021c4360f" target="_top" xlink:title=" ">
<polygon fill="white" stroke="#666666" points="231.5,-150.35 147.25,-150.35 147.25,-125.85 231.5,-125.85 231.5,-150.35"/>
<text text-anchor="middle" x="189.38" y="-133.05" font-family="Helvetica,sans-Serif" font-size="14.00">Nssm\stop</text>
</a>
</g>
</g>
<!-- Node2&#45;&gt;Node13 -->
<g id="edge18_Node000002_Node000013" class="edge">
<title>Node2&#45;&gt;Node13</title>
<g id="a_edge18_Node000002_Node000013"><a xlink:title=" ">
<path fill="none" stroke="#63b8ff" d="M576.77,-108.23C518.89,-70.45 379.84,6.81 273.5,-42.1 251.16,-52.37 253.58,-65.5 237.5,-84.1 225.13,-98.4 210.83,-114.76 201.26,-125.68"/>
<polygon fill="#63b8ff" stroke="#63b8ff" points="574.77,-111.1 585.03,-113.73 578.65,-105.28 574.77,-111.1"/>
</a>
</g>
</g>
<!-- Node6 -->
<g id="Node000006" class="node">
<title>Node6</title>
<g id="a_Node000006"><a xlink:href="../../d3/d93/classNssm.html#a4222f835dea3ac472ab8fd54a77dbc98" target="_top" xlink:title=" ">
<polygon fill="white" stroke="#666666" points="100.75,-139.35 4.5,-139.35 4.5,-114.85 100.75,-114.85 100.75,-139.35"/>
<text text-anchor="middle" x="52.62" y="-122.05" font-family="Helvetica,sans-Serif" font-size="14.00">Nssm\restart</text>
</a>
</g>
</g>
<!-- Node5&#45;&gt;Node6 -->
<g id="edge5_Node000005_Node000006" class="edge">
<title>Node5&#45;&gt;Node6</title>
<g id="a_edge5_Node000005_Node000006"><a xlink:title=" ">
<path fill="none" stroke="#63b8ff" d="M151.52,-80.6C128.94,-91.32 100.57,-104.8 80.19,-114.48"/>
<polygon fill="#63b8ff" stroke="#63b8ff" points="152.85,-83.84 160.39,-76.39 149.85,-77.52 152.85,-83.84"/>
</a>
</g>
</g>
<!-- Node7 -->
<g id="Node000007" class="node">
<title>Node7</title>
<g id="a_Node000007"><a xlink:href="../../d3/d93/classNssm.html#a61e340f35a716e338685f4bd9d3b4dc3" target="_top" xlink:title=" ">
<polygon fill="white" stroke="#666666" points="105.25,-75.35 0,-75.35 0,-50.85 105.25,-50.85 105.25,-75.35"/>
<text text-anchor="middle" x="52.62" y="-58.05" font-family="Helvetica,sans-Serif" font-size="14.00">Nssm\setStart</text>
</a>
</g>
</g>
<!-- Node5&#45;&gt;Node7 -->
<g id="edge6_Node000005_Node000007" class="edge">
<title>Node5&#45;&gt;Node7</title>
<g id="a_edge6_Node000005_Node000007"><a xlink:title=" ">
<path fill="none" stroke="#63b8ff" d="M135.79,-63.1C125.84,-63.1 115.43,-63.1 105.5,-63.1"/>
<polygon fill="#63b8ff" stroke="#63b8ff" points="135.7,-66.6 145.7,-63.1 135.7,-59.6 135.7,-66.6"/>
</a>
</g>
</g>
<!-- Node9 -->
<g id="Node000009" class="node">
<title>Node9</title>
<g id="a_Node000009"><a xlink:href="../../d3/d93/classNssm.html#ac06cfadc605e5e646d67d6997f820737" target="_top" xlink:title=" ">
<polygon fill="white" stroke="#666666" points="394.5,-204.35 274.25,-204.35 274.25,-179.85 394.5,-179.85 394.5,-204.35"/>
<text text-anchor="middle" x="334.38" y="-187.05" font-family="Helvetica,sans-Serif" font-size="14.00">Nssm\isInstalled</text>
</a>
</g>
</g>
<!-- Node8&#45;&gt;Node9 -->
<g id="edge8_Node000008_Node000009" class="edge">
<title>Node8&#45;&gt;Node9</title>
<g id="a_edge8_Node000008_Node000009"><a xlink:title=" ">
<path fill="none" stroke="#63b8ff" d="M445.23,-145.13C430.27,-153.23 412.08,-162.63 395.25,-170.1 387.96,-173.33 380.04,-176.48 372.41,-179.35"/>
<polygon fill="#63b8ff" stroke="#63b8ff" points="446.6,-148.37 453.69,-140.5 443.24,-142.23 446.6,-148.37"/>
</a>
</g>
</g>
<!-- Node10 -->
<g id="Node000010" class="node">
<title>Node10</title>
<g id="a_Node000010"><a xlink:href="../../d3/d93/classNssm.html#a38d6eb35a2fd3625a2c777120e7eba28" target="_top" xlink:title=" ">
<polygon fill="white" stroke="#666666" points="392.25,-118.35 276.5,-118.35 276.5,-93.85 392.25,-93.85 392.25,-118.35"/>
<text text-anchor="middle" x="334.38" y="-101.05" font-family="Helvetica,sans-Serif" font-size="14.00">Nssm\isPaused</text>
</a>
</g>
</g>
<!-- Node8&#45;&gt;Node10 -->
<g id="edge11_Node000008_Node000010" class="edge">
<title>Node8&#45;&gt;Node10</title>
<g id="a_edge11_Node000008_Node000010"><a xlink:title=" ">
<path fill="none" stroke="#63b8ff" d="M419.68,-118.58C410.75,-117.25 401.52,-115.89 392.59,-114.57"/>
<polygon fill="#63b8ff" stroke="#63b8ff" points="418.89,-122 429.3,-120 419.92,-115.07 418.89,-122"/>
</a>
</g>
</g>
<!-- Node11 -->
<g id="Node000011" class="node">
<title>Node11</title>
<g id="a_Node000011"><a xlink:href="../../d3/d93/classNssm.html#a34f3430d8cd7125210f2f76f617eddc1" target="_top" xlink:title=" ">
<polygon fill="white" stroke="#666666" points="393.75,-75.35 275,-75.35 275,-50.85 393.75,-50.85 393.75,-75.35"/>
<text text-anchor="middle" x="334.38" y="-58.05" font-family="Helvetica,sans-Serif" font-size="14.00">Nssm\isRunning</text>
</a>
</g>
</g>
<!-- Node8&#45;&gt;Node11 -->
<g id="edge12_Node000008_Node000011" class="edge">
<title>Node8&#45;&gt;Node11</title>
<g id="a_edge12_Node000008_Node000011"><a xlink:title=" ">
<path fill="none" stroke="#63b8ff" d="M444.55,-109.2C429.7,-101.37 411.8,-92.34 395.25,-85.1 387.84,-81.85 379.79,-78.67 372.07,-75.78"/>
<polygon fill="#63b8ff" stroke="#63b8ff" points="442.48,-112.06 452.95,-113.67 445.77,-105.88 442.48,-112.06"/>
</a>
</g>
</g>
<!-- Node12 -->
<g id="Node000012" class="node">
<title>Node12</title>
<g id="a_Node000012"><a xlink:href="../../d3/d93/classNssm.html#aef245dc2d387228cc9fdd84bd40a45e2" target="_top" xlink:title=" ">
<polygon fill="white" stroke="#666666" points="395.25,-161.35 273.5,-161.35 273.5,-136.85 395.25,-136.85 395.25,-161.35"/>
<text text-anchor="middle" x="334.38" y="-144.05" font-family="Helvetica,sans-Serif" font-size="14.00">Nssm\isStopped</text>
</a>
</g>
</g>
<!-- Node8&#45;&gt;Node12 -->
<g id="edge14_Node000008_Node000012" class="edge">
<title>Node8&#45;&gt;Node12</title>
<g id="a_edge14_Node000008_Node000012"><a xlink:title=" ">
<path fill="none" stroke="#63b8ff" d="M419.48,-136.05C411.62,-137.27 403.53,-138.53 395.63,-139.75"/>
<polygon fill="#63b8ff" stroke="#63b8ff" points="419.95,-139.52 429.3,-134.53 418.88,-132.61 419.95,-139.52"/>
</a>
</g>
</g>
<!-- Node9&#45;&gt;Node3 -->
<g id="edge9_Node000009_Node000003" class="edge">
<title>Node9&#45;&gt;Node3</title>
<g id="a_edge9_Node000009_Node000003"><a xlink:title=" ">
<path fill="none" stroke="#63b8ff" d="M274.67,-207.7C262.39,-210.96 249.59,-214.36 237.78,-217.5"/>
<polygon fill="#63b8ff" stroke="#63b8ff" points="275.53,-211.09 284.3,-205.14 273.73,-204.32 275.53,-211.09"/>
</a>
</g>
</g>
<!-- Node9&#45;&gt;Node4 -->
<g id="edge10_Node000009_Node000004" class="edge">
<title>Node9&#45;&gt;Node4</title>
<g id="a_edge10_Node000009_Node000004"><a xlink:title=" ">
<path fill="none" stroke="#63b8ff" d="M262.84,-191.59C212.14,-191.23 145.18,-190.75 100.82,-190.43"/>
<polygon fill="#63b8ff" stroke="#63b8ff" points="262.51,-195.09 272.53,-191.66 262.56,-188.09 262.51,-195.09"/>
</a>
</g>
</g>
<!-- Node11&#45;&gt;Node5 -->
<g id="edge13_Node000011_Node000005" class="edge">
<title>Node11&#45;&gt;Node5</title>
<g id="a_edge13_Node000011_Node000005"><a xlink:title=" ">
<path fill="none" stroke="#63b8ff" d="M263.48,-63.1C252.56,-63.1 241.59,-63.1 231.59,-63.1"/>
<polygon fill="#63b8ff" stroke="#63b8ff" points="263.29,-66.6 273.29,-63.1 263.29,-59.6 263.29,-66.6"/>
</a>
</g>
</g>
<!-- Node12&#45;&gt;Node13 -->
<g id="edge15_Node000012_Node000013" class="edge">
<title>Node12&#45;&gt;Node13</title>
<g id="a_edge15_Node000012_Node000013"><a xlink:title=" ">
<path fill="none" stroke="#63b8ff" d="M261.99,-143.61C251.68,-142.81 241.36,-142.02 231.89,-141.29"/>
<polygon fill="#63b8ff" stroke="#63b8ff" points="261.4,-147.07 271.64,-144.35 261.93,-140.09 261.4,-147.07"/>
</a>
</g>
</g>
<!-- Node13&#45;&gt;Node4 -->
<g id="edge16_Node000013_Node000004" class="edge">
<title>Node13&#45;&gt;Node4</title>
<g id="a_edge16_Node000013_Node000004"><a xlink:title=" ">
<path fill="none" stroke="#63b8ff" d="M144.88,-154.88C125.83,-162.23 103.86,-170.71 86.25,-177.51"/>
<polygon fill="#63b8ff" stroke="#63b8ff" points="145.93,-158.23 154,-151.36 143.41,-151.7 145.93,-158.23"/>
</a>
</g>
</g>
<!-- Node13&#45;&gt;Node6 -->
<g id="edge17_Node000013_Node000006" class="edge">
<title>Node13&#45;&gt;Node6</title>
<g id="a_edge17_Node000013_Node000006"><a xlink:title=" ">
<path fill="none" stroke="#63b8ff" d="M135.64,-133.79C124.18,-132.86 112.13,-131.87 100.9,-130.96"/>
<polygon fill="#63b8ff" stroke="#63b8ff" points="135.09,-137.26 145.34,-134.58 135.66,-130.28 135.09,-137.26"/>
</a>
</g>
</g>
</g>
</svg>
