<?xml version="1.0" encoding="UTF-8" standalone="no"?>
<!--
  - Copyright (c) 2021-2024 Bearsampp
  - License:  GNU General Public License version 3 or later; see LICENSE.txt
  - Author: Bear
  - Website: https://bearsampp.com
  - Github: https://github.com/Bearsampp
  -->

<!DOCTYPE svg PUBLIC "-//W3C//DTD SVG 1.1//EN"
 "http://www.w3.org/Graphics/SVG/1.1/DTD/svg11.dtd">
<!-- Generated by graphviz version 11.0.0 (20240428.1522)
 -->
<!-- Title: Nssm\isStopped Pages: 1 -->
<svg width="382pt" height="76pt"
 viewBox="0.00 0.00 382.25 75.50" xmlns="http://www.w3.org/2000/svg" xmlns:xlink="http://www.w3.org/1999/xlink">
<g id="graph0" class="graph" transform="scale(1 1) rotate(0) translate(4 71.5)">
<title>Nssm\isStopped</title>
<!-- Node1 -->
<g id="Node000001" class="node">
<title>Node1</title>
<g id="a_Node000001"><a xlink:title=" ">
<polygon fill="#999999" stroke="#666666" points="374.25,-45.5 252.5,-45.5 252.5,-21 374.25,-21 374.25,-45.5"/>
<text text-anchor="middle" x="313.38" y="-28.2" font-family="Helvetica,sans-Serif" font-size="14.00">Nssm\isStopped</text>
</a>
</g>
</g>
<!-- Node2 -->
<g id="Node000002" class="node">
<title>Node2</title>
<g id="a_Node000002"><a xlink:href="../../d3/d93/classNssm.html#a5c84c357e07c0abd8e5509e021c4360f" target="_top" xlink:title=" ">
<polygon fill="white" stroke="#666666" points="216.5,-45.5 132.25,-45.5 132.25,-21 216.5,-21 216.5,-45.5"/>
<text text-anchor="middle" x="174.38" y="-28.2" font-family="Helvetica,sans-Serif" font-size="14.00">Nssm\stop</text>
</a>
</g>
</g>
<!-- Node1&#45;&gt;Node2 -->
<g id="edge1_Node000001_Node000002" class="edge">
<title>Node1&#45;&gt;Node2</title>
<g id="a_edge1_Node000001_Node000002"><a xlink:title=" ">
<path fill="none" stroke="#63b8ff" d="M241.04,-33.25C232.79,-33.25 224.59,-33.25 216.92,-33.25"/>
<polygon fill="#63b8ff" stroke="#63b8ff" points="240.77,-36.75 250.77,-33.25 240.77,-29.75 240.77,-36.75"/>
</a>
</g>
</g>
<!-- Node3 -->
<g id="Node000003" class="node">
<title>Node3</title>
<g id="a_Node000003"><a xlink:href="../../d3/d93/classNssm.html#a231abdaa59bfc1a18058c63faf77b874" target="_top" xlink:title=" ">
<polygon fill="white" stroke="#666666" points="96.25,-67.5 0,-67.5 0,-43 96.25,-43 96.25,-67.5"/>
<text text-anchor="middle" x="48.12" y="-50.2" font-family="Helvetica,sans-Serif" font-size="14.00">Nssm\delete</text>
</a>
</g>
</g>
<!-- Node2&#45;&gt;Node3 -->
<g id="edge2_Node000002_Node000003" class="edge">
<title>Node2&#45;&gt;Node3</title>
<g id="a_edge2_Node000002_Node000003"><a xlink:title=" ">
<path fill="none" stroke="#63b8ff" d="M120.75,-42.57C112.64,-44 104.31,-45.48 96.33,-46.89"/>
<polygon fill="#63b8ff" stroke="#63b8ff" points="121.27,-46.03 130.51,-40.84 120.05,-39.14 121.27,-46.03"/>
</a>
</g>
</g>
<!-- Node4 -->
<g id="Node000004" class="node">
<title>Node4</title>
<g id="a_Node000004"><a xlink:href="../../d3/d93/classNssm.html#a4222f835dea3ac472ab8fd54a77dbc98" target="_top" xlink:title=" ">
<polygon fill="white" stroke="#666666" points="96.25,-24.5 0,-24.5 0,0 96.25,0 96.25,-24.5"/>
<text text-anchor="middle" x="48.12" y="-7.2" font-family="Helvetica,sans-Serif" font-size="14.00">Nssm\restart</text>
</a>
</g>
</g>
<!-- Node2&#45;&gt;Node4 -->
<g id="edge3_Node000002_Node000004" class="edge">
<title>Node2&#45;&gt;Node4</title>
<g id="a_edge3_Node000002_Node000004"><a xlink:title=" ">
<path fill="none" stroke="#63b8ff" d="M120.75,-24.35C112.64,-22.98 104.31,-21.58 96.33,-20.23"/>
<polygon fill="#63b8ff" stroke="#63b8ff" points="120.07,-27.79 130.51,-26.01 121.23,-20.89 120.07,-27.79"/>
</a>
</g>
</g>
</g>
</svg>
