<?xml version="1.0" encoding="UTF-8" standalone="no"?>
<!--
  - Copyright (c) 2021-2024 Bearsampp
  - License:  GNU General Public License version 3 or later; see LICENSE.txt
  - Author: Bear
  - Website: https://bearsampp.com
  - Github: https://github.com/Bearsampp
  -->

<!DOCTYPE svg PUBLIC "-//W3C//DTD SVG 1.1//EN"
 "http://www.w3.org/Graphics/SVG/1.1/DTD/svg11.dtd">
<!-- Generated by graphviz version 11.0.0 (20240428.1522)
 -->
<!-- Title: Nssm\getName Pages: 1 -->
<svg width="684pt" height="384pt"
 viewBox="0.00 0.00 683.50 383.50" xmlns="http://www.w3.org/2000/svg" xmlns:xlink="http://www.w3.org/1999/xlink">
<g id="graph0" class="graph" transform="scale(1 1) rotate(0) translate(4 379.5)">
<title>Nssm\getName</title>
<!-- Node1 -->
<g id="Node000001" class="node">
<title>Node1</title>
<g id="a_Node000001"><a xlink:title=" ">
<polygon fill="#999999" stroke="#666666" points="675.5,-200.5 561.25,-200.5 561.25,-176 675.5,-176 675.5,-200.5"/>
<text text-anchor="middle" x="618.38" y="-183.2" font-family="Helvetica,sans-Serif" font-size="14.00">Nssm\getName</text>
</a>
</g>
</g>
<!-- Node2 -->
<g id="Node000002" class="node">
<title>Node2</title>
<g id="a_Node000002"><a xlink:href="../../d3/d93/classNssm.html#ad7fa8b9a6d3705792e43c0301cec213e" target="_top" xlink:title=" ">
<polygon fill="white" stroke="#666666" points="237.5,-375.5 141.25,-375.5 141.25,-351 237.5,-351 237.5,-375.5"/>
<text text-anchor="middle" x="189.38" y="-358.2" font-family="Helvetica,sans-Serif" font-size="14.00">Nssm\create</text>
</a>
</g>
</g>
<!-- Node1&#45;&gt;Node2 -->
<g id="edge1_Node000001_Node000002" class="edge">
<title>Node1&#45;&gt;Node2</title>
<g id="a_edge1_Node000001_Node000002"><a xlink:title=" ">
<path fill="none" stroke="#63b8ff" d="M608.68,-211.23C595.63,-242.34 567.86,-297.07 525.25,-324.25 436.42,-380.91 306.95,-377.17 237.91,-369.96"/>
<polygon fill="#63b8ff" stroke="#63b8ff" points="611.77,-212.92 612.26,-202.34 605.28,-210.31 611.77,-212.92"/>
</a>
</g>
</g>
<!-- Node3 -->
<g id="Node000003" class="node">
<title>Node3</title>
<g id="a_Node000003"><a xlink:href="../../d3/d93/classNssm.html#a231abdaa59bfc1a18058c63faf77b874" target="_top" xlink:title=" ">
<polygon fill="white" stroke="#666666" points="100.75,-296.5 4.5,-296.5 4.5,-272 100.75,-272 100.75,-296.5"/>
<text text-anchor="middle" x="52.62" y="-279.2" font-family="Helvetica,sans-Serif" font-size="14.00">Nssm\delete</text>
</a>
</g>
</g>
<!-- Node1&#45;&gt;Node3 -->
<g id="edge2_Node000001_Node000003" class="edge">
<title>Node1&#45;&gt;Node3</title>
<g id="a_edge2_Node000001_Node000003"><a xlink:title=" ">
<path fill="none" stroke="#63b8ff" d="M586.59,-206.16C569.16,-215.48 546.62,-226.16 525.25,-232.25 374.53,-275.21 187.36,-283.04 101.15,-284.22"/>
<polygon fill="#63b8ff" stroke="#63b8ff" points="587.81,-209.49 594.89,-201.61 584.44,-203.35 587.81,-209.49"/>
</a>
</g>
</g>
<!-- Node4 -->
<g id="Node000004" class="node">
<title>Node4</title>
<g id="a_Node000004"><a xlink:href="../../d3/d93/classNssm.html#a185739880ce0854f69b2d53a1e25b4ec" target="_top" xlink:title=" ">
<polygon fill="white" stroke="#666666" points="521.88,-24.5 434.62,-24.5 434.62,0 521.88,0 521.88,-24.5"/>
<text text-anchor="middle" x="478.25" y="-7.2" font-family="Helvetica,sans-Serif" font-size="14.00">Nssm\infos</text>
</a>
</g>
</g>
<!-- Node1&#45;&gt;Node4 -->
<g id="edge3_Node000001_Node000004" class="edge">
<title>Node1&#45;&gt;Node4</title>
<g id="a_edge3_Node000001_Node000004"><a xlink:title=" ">
<path fill="none" stroke="#63b8ff" d="M607.65,-165.07C593.4,-133.28 564.24,-75.85 525.25,-38.25 519.97,-33.16 513.49,-28.71 507.09,-25"/>
<polygon fill="#63b8ff" stroke="#63b8ff" points="604.41,-166.38 611.61,-174.14 610.82,-163.58 604.41,-166.38"/>
</a>
</g>
</g>
<!-- Node5 -->
<g id="Node000005" class="node">
<title>Node5</title>
<g id="a_Node000005"><a xlink:href="../../d3/d93/classNssm.html#ac06cfadc605e5e646d67d6997f820737" target="_top" xlink:title=" ">
<polygon fill="white" stroke="#666666" points="394.5,-336.5 274.25,-336.5 274.25,-312 394.5,-312 394.5,-336.5"/>
<text text-anchor="middle" x="334.38" y="-319.2" font-family="Helvetica,sans-Serif" font-size="14.00">Nssm\isInstalled</text>
</a>
</g>
</g>
<!-- Node1&#45;&gt;Node5 -->
<g id="edge4_Node000001_Node000005" class="edge">
<title>Node1&#45;&gt;Node5</title>
<g id="a_edge4_Node000001_Node000005"><a xlink:title=" ">
<path fill="none" stroke="#63b8ff" d="M605.42,-210.73C590.4,-236.53 562.07,-277.9 525.25,-298.25 485.5,-320.22 434.16,-326.15 394.88,-326.9"/>
<polygon fill="#63b8ff" stroke="#63b8ff" points="608.45,-212.49 610.29,-202.05 602.34,-209.06 608.45,-212.49"/>
</a>
</g>
</g>
<!-- Node6 -->
<g id="Node000006" class="node">
<title>Node6</title>
<g id="a_Node000006"><a xlink:href="../../d3/d93/classNssm.html#a38d6eb35a2fd3625a2c777120e7eba28" target="_top" xlink:title=" ">
<polygon fill="white" stroke="#666666" points="392.25,-111.5 276.5,-111.5 276.5,-87 392.25,-87 392.25,-111.5"/>
<text text-anchor="middle" x="334.38" y="-94.2" font-family="Helvetica,sans-Serif" font-size="14.00">Nssm\isPaused</text>
</a>
</g>
</g>
<!-- Node1&#45;&gt;Node6 -->
<g id="edge7_Node000001_Node000006" class="edge">
<title>Node1&#45;&gt;Node6</title>
<g id="a_edge7_Node000001_Node000006"><a xlink:title=" ">
<path fill="none" stroke="#63b8ff" d="M589.11,-169.61C571.42,-158.71 547.78,-145.51 525.25,-137.25 482.17,-121.45 431.05,-111.69 392.71,-106.03"/>
<polygon fill="#63b8ff" stroke="#63b8ff" points="587.18,-172.53 597.51,-174.9 590.91,-166.6 587.18,-172.53"/>
</a>
</g>
</g>
<!-- Node7 -->
<g id="Node000007" class="node">
<title>Node7</title>
<g id="a_Node000007"><a xlink:href="../../d3/d93/classNssm.html#a34f3430d8cd7125210f2f76f617eddc1" target="_top" xlink:title=" ">
<polygon fill="white" stroke="#666666" points="393.75,-168.5 275,-168.5 275,-144 393.75,-144 393.75,-168.5"/>
<text text-anchor="middle" x="334.38" y="-151.2" font-family="Helvetica,sans-Serif" font-size="14.00">Nssm\isRunning</text>
</a>
</g>
</g>
<!-- Node1&#45;&gt;Node7 -->
<g id="edge8_Node000001_Node000007" class="edge">
<title>Node1&#45;&gt;Node7</title>
<g id="a_edge8_Node000001_Node000007"><a xlink:title=" ">
<path fill="none" stroke="#63b8ff" d="M585.83,-170.26C568.54,-161.43 546.38,-151.74 525.25,-147.25 481.99,-138.06 432,-140.96 394.17,-145.8"/>
<polygon fill="#63b8ff" stroke="#63b8ff" points="584.1,-173.3 594.58,-174.88 587.38,-167.11 584.1,-173.3"/>
</a>
</g>
</g>
<!-- Node8 -->
<g id="Node000008" class="node">
<title>Node8</title>
<g id="a_Node000008"><a xlink:href="../../d3/d93/classNssm.html#aa32df80b96119003df6133155b5a6610" target="_top" xlink:title=" ">
<polygon fill="white" stroke="#666666" points="231.12,-168.5 147.62,-168.5 147.62,-144 231.12,-144 231.12,-168.5"/>
<text text-anchor="middle" x="189.38" y="-151.2" font-family="Helvetica,sans-Serif" font-size="14.00">Nssm\start</text>
</a>
</g>
</g>
<!-- Node1&#45;&gt;Node8 -->
<g id="edge16_Node000001_Node000008" class="edge">
<title>Node1&#45;&gt;Node8</title>
<g id="a_edge16_Node000001_Node000008"><a xlink:title=" ">
<path fill="none" stroke="#63b8ff" d="M598.94,-167.26C581.69,-148.94 554.29,-123.03 525.25,-108.25 472.41,-81.35 454.17,-84.96 395.25,-78.25 341.49,-72.13 323.82,-58.34 273.5,-78.25 240.01,-91.5 212.12,-125.34 198.8,-143.79"/>
<polygon fill="#63b8ff" stroke="#63b8ff" points="596.19,-169.44 605.53,-174.44 601.35,-164.71 596.19,-169.44"/>
</a>
</g>
</g>
<!-- Node11 -->
<g id="Node000011" class="node">
<title>Node11</title>
<g id="a_Node000011"><a xlink:href="../../d3/d93/classNssm.html#aef245dc2d387228cc9fdd84bd40a45e2" target="_top" xlink:title=" ">
<polygon fill="white" stroke="#666666" points="395.25,-218.5 273.5,-218.5 273.5,-194 395.25,-194 395.25,-218.5"/>
<text text-anchor="middle" x="334.38" y="-201.2" font-family="Helvetica,sans-Serif" font-size="14.00">Nssm\isStopped</text>
</a>
</g>
</g>
<!-- Node1&#45;&gt;Node11 -->
<g id="edge12_Node000001_Node000011" class="edge">
<title>Node1&#45;&gt;Node11</title>
<g id="a_edge12_Node000001_Node000011"><a xlink:title=" ">
<path fill="none" stroke="#63b8ff" d="M549.7,-192.57C502.76,-195.57 440.79,-199.52 395.57,-202.41"/>
<polygon fill="#63b8ff" stroke="#63b8ff" points="549.72,-196.08 559.48,-191.95 549.27,-189.09 549.72,-196.08"/>
</a>
</g>
</g>
<!-- Node12 -->
<g id="Node000012" class="node">
<title>Node12</title>
<g id="a_Node000012"><a xlink:href="../../d3/d93/classNssm.html#a5c84c357e07c0abd8e5509e021c4360f" target="_top" xlink:title=" ">
<polygon fill="white" stroke="#666666" points="231.5,-235.5 147.25,-235.5 147.25,-211 231.5,-211 231.5,-235.5"/>
<text text-anchor="middle" x="189.38" y="-218.2" font-family="Helvetica,sans-Serif" font-size="14.00">Nssm\stop</text>
</a>
</g>
</g>
<!-- Node1&#45;&gt;Node12 -->
<g id="edge22_Node000001_Node000012" class="edge">
<title>Node1&#45;&gt;Node12</title>
<g id="a_edge22_Node000001_Node000012"><a xlink:title=" ">
<path fill="none" stroke="#63b8ff" d="M560.35,-203.64C548.79,-206.43 536.67,-209.13 525.25,-211.25 415.02,-231.71 385.58,-229.95 273.5,-227.25 259.92,-226.92 245.11,-226.3 231.8,-225.64"/>
<polygon fill="#63b8ff" stroke="#63b8ff" points="560.89,-207.11 569.75,-201.31 559.21,-200.32 560.89,-207.11"/>
</a>
</g>
</g>
<!-- Node13 -->
<g id="Node000013" class="node">
<title>Node13</title>
<g id="a_Node000013"><a xlink:href="../../d3/d93/classNssm.html#a55fad2d59588fb1dd031e00fa0334fd4" target="_top" xlink:title=" ">
<polygon fill="white" stroke="#666666" points="525.25,-180.5 431.25,-180.5 431.25,-156 525.25,-156 525.25,-180.5"/>
<text text-anchor="middle" x="478.25" y="-163.2" font-family="Helvetica,sans-Serif" font-size="14.00">Nssm\status</text>
</a>
</g>
</g>
<!-- Node1&#45;&gt;Node13 -->
<g id="edge17_Node000001_Node000013" class="edge">
<title>Node1&#45;&gt;Node13</title>
<g id="a_edge17_Node000001_Node000013"><a xlink:title=" ">
<path fill="none" stroke="#63b8ff" d="M549.66,-178.44C541.45,-177.26 533.21,-176.06 525.41,-174.93"/>
<polygon fill="#63b8ff" stroke="#63b8ff" points="548.9,-181.87 559.3,-179.84 549.9,-174.94 548.9,-181.87"/>
</a>
</g>
</g>
<!-- Node5&#45;&gt;Node2 -->
<g id="edge5_Node000005_Node000002" class="edge">
<title>Node5&#45;&gt;Node2</title>
<g id="a_edge5_Node000005_Node000002"><a xlink:title=" ">
<path fill="none" stroke="#63b8ff" d="M276.22,-339.84C263.22,-343.38 249.56,-347.11 237.06,-350.52"/>
<polygon fill="#63b8ff" stroke="#63b8ff" points="276.76,-343.32 285.49,-337.31 274.92,-336.56 276.76,-343.32"/>
</a>
</g>
</g>
<!-- Node5&#45;&gt;Node3 -->
<g id="edge6_Node000005_Node000003" class="edge">
<title>Node5&#45;&gt;Node3</title>
<g id="a_edge6_Node000005_Node000003"><a xlink:title=" ">
<path fill="none" stroke="#63b8ff" d="M263.04,-315.14C226.65,-310.33 181.54,-304.19 141.25,-298.25 128.14,-296.32 113.95,-294.1 100.89,-292.01"/>
<polygon fill="#63b8ff" stroke="#63b8ff" points="262.16,-318.56 272.54,-316.39 263.08,-311.62 262.16,-318.56"/>
</a>
</g>
</g>
<!-- Node7&#45;&gt;Node8 -->
<g id="edge9_Node000007_Node000008" class="edge">
<title>Node7&#45;&gt;Node8</title>
<g id="a_edge9_Node000007_Node000008"><a xlink:title=" ">
<path fill="none" stroke="#63b8ff" d="M263.48,-156.25C252.56,-156.25 241.59,-156.25 231.59,-156.25"/>
<polygon fill="#63b8ff" stroke="#63b8ff" points="263.29,-159.75 273.29,-156.25 263.29,-152.75 263.29,-159.75"/>
</a>
</g>
</g>
<!-- Node9 -->
<g id="Node000009" class="node">
<title>Node9</title>
<g id="a_Node000009"><a xlink:href="../../d3/d93/classNssm.html#a4222f835dea3ac472ab8fd54a77dbc98" target="_top" xlink:title=" ">
<polygon fill="white" stroke="#666666" points="100.75,-235.5 4.5,-235.5 4.5,-211 100.75,-211 100.75,-235.5"/>
<text text-anchor="middle" x="52.62" y="-218.2" font-family="Helvetica,sans-Serif" font-size="14.00">Nssm\restart</text>
</a>
</g>
</g>
<!-- Node8&#45;&gt;Node9 -->
<g id="edge10_Node000008_Node000009" class="edge">
<title>Node8&#45;&gt;Node9</title>
<g id="a_edge10_Node000008_Node000009"><a xlink:title=" ">
<path fill="none" stroke="#63b8ff" d="M152.86,-173.91C129.58,-185.48 99.72,-200.33 78.86,-210.7"/>
<polygon fill="#63b8ff" stroke="#63b8ff" points="154.28,-177.11 161.67,-169.53 151.16,-170.84 154.28,-177.11"/>
</a>
</g>
</g>
<!-- Node10 -->
<g id="Node000010" class="node">
<title>Node10</title>
<g id="a_Node000010"><a xlink:href="../../d3/d93/classNssm.html#a61e340f35a716e338685f4bd9d3b4dc3" target="_top" xlink:title=" ">
<polygon fill="white" stroke="#666666" points="105.25,-168.5 0,-168.5 0,-144 105.25,-144 105.25,-168.5"/>
<text text-anchor="middle" x="52.62" y="-151.2" font-family="Helvetica,sans-Serif" font-size="14.00">Nssm\setStart</text>
</a>
</g>
</g>
<!-- Node8&#45;&gt;Node10 -->
<g id="edge11_Node000008_Node000010" class="edge">
<title>Node8&#45;&gt;Node10</title>
<g id="a_edge11_Node000008_Node000010"><a xlink:title=" ">
<path fill="none" stroke="#63b8ff" d="M135.79,-156.25C125.84,-156.25 115.43,-156.25 105.5,-156.25"/>
<polygon fill="#63b8ff" stroke="#63b8ff" points="135.7,-159.75 145.7,-156.25 135.7,-152.75 135.7,-159.75"/>
</a>
</g>
</g>
<!-- Node11&#45;&gt;Node12 -->
<g id="edge13_Node000011_Node000012" class="edge">
<title>Node11&#45;&gt;Node12</title>
<g id="a_edge13_Node000011_Node000012"><a xlink:title=" ">
<path fill="none" stroke="#63b8ff" d="M261.99,-214.74C251.68,-215.96 241.36,-217.19 231.89,-218.31"/>
<polygon fill="#63b8ff" stroke="#63b8ff" points="262.12,-218.25 271.64,-213.59 261.3,-211.29 262.12,-218.25"/>
</a>
</g>
</g>
<!-- Node12&#45;&gt;Node3 -->
<g id="edge14_Node000012_Node000003" class="edge">
<title>Node12&#45;&gt;Node3</title>
<g id="a_edge14_Node000012_Node000003"><a xlink:title=" ">
<path fill="none" stroke="#63b8ff" d="M150.18,-240.54C128.32,-250.44 101.38,-262.63 81.51,-271.63"/>
<polygon fill="#63b8ff" stroke="#63b8ff" points="151.41,-243.83 159.08,-236.51 148.52,-237.45 151.41,-243.83"/>
</a>
</g>
</g>
<!-- Node12&#45;&gt;Node9 -->
<g id="edge15_Node000012_Node000009" class="edge">
<title>Node12&#45;&gt;Node9</title>
<g id="a_edge15_Node000012_Node000009"><a xlink:title=" ">
<path fill="none" stroke="#63b8ff" d="M135.64,-223.25C124.18,-223.25 112.13,-223.25 100.9,-223.25"/>
<polygon fill="#63b8ff" stroke="#63b8ff" points="135.33,-226.75 145.33,-223.25 135.33,-219.75 135.33,-226.75"/>
</a>
</g>
</g>
<!-- Node13&#45;&gt;Node5 -->
<g id="edge18_Node000013_Node000005" class="edge">
<title>Node13&#45;&gt;Node5</title>
<g id="a_edge18_Node000013_Node000005"><a xlink:title=" ">
<path fill="none" stroke="#63b8ff" d="M458.21,-189.19C428.28,-222.1 371.13,-284.93 346.8,-311.69"/>
<polygon fill="#63b8ff" stroke="#63b8ff" points="460.72,-191.63 464.86,-181.87 455.54,-186.92 460.72,-191.63"/>
</a>
</g>
</g>
<!-- Node13&#45;&gt;Node6 -->
<g id="edge19_Node000013_Node000006" class="edge">
<title>Node13&#45;&gt;Node6</title>
<g id="a_edge19_Node000013_Node000006"><a xlink:title=" ">
<path fill="none" stroke="#63b8ff" d="M441.06,-150.65C416.12,-138.52 383.58,-122.69 361.23,-111.83"/>
<polygon fill="#63b8ff" stroke="#63b8ff" points="439.34,-153.71 449.87,-154.93 442.4,-147.41 439.34,-153.71"/>
</a>
</g>
</g>
<!-- Node13&#45;&gt;Node7 -->
<g id="edge20_Node000013_Node000007" class="edge">
<title>Node13&#45;&gt;Node7</title>
<g id="a_edge20_Node000013_Node000007"><a xlink:title=" ">
<path fill="none" stroke="#63b8ff" d="M419.56,-163.37C411.17,-162.66 402.52,-161.93 394.11,-161.22"/>
<polygon fill="#63b8ff" stroke="#63b8ff" points="419.03,-166.84 429.29,-164.19 419.62,-159.86 419.03,-166.84"/>
</a>
</g>
</g>
<!-- Node13&#45;&gt;Node11 -->
<g id="edge21_Node000013_Node000011" class="edge">
<title>Node13&#45;&gt;Node11</title>
<g id="a_edge21_Node000013_Node000011"><a xlink:title=" ">
<path fill="none" stroke="#63b8ff" d="M419.76,-183.65C407.52,-186.93 394.72,-190.35 382.91,-193.52"/>
<polygon fill="#63b8ff" stroke="#63b8ff" points="420.58,-187.05 429.33,-181.08 418.77,-180.29 420.58,-187.05"/>
</a>
</g>
</g>
</g>
</svg>
