<?xml version="1.0" encoding="UTF-8" standalone="no"?>
<!--
  - Copyright (c) 2021-2024 Bearsampp
  - License:  GNU General Public License version 3 or later; see LICENSE.txt
  - Author: Bear
  - Website: https://bearsampp.com
  - Github: https://github.com/Bearsampp
  -->

<!DOCTYPE svg PUBLIC "-//W3C//DTD SVG 1.1//EN"
 "http://www.w3.org/Graphics/SVG/1.1/DTD/svg11.dtd">
<!-- Generated by graphviz version 11.0.0 (20240428.1522)
 -->
<!-- Title: Nssm\writeLog Pages: 1 -->
<svg width="550pt" height="297pt"
 viewBox="0.00 0.00 549.75 297.02" xmlns="http://www.w3.org/2000/svg" xmlns:xlink="http://www.w3.org/1999/xlink">
<g id="graph0" class="graph" transform="scale(1 1) rotate(0) translate(4 293.02)">
<title>Nssm\writeLog</title>
<!-- Node1 -->
<g id="Node000001" class="node">
<title>Node1</title>
<g id="a_Node000001"><a xlink:title=" ">
<polygon fill="#999999" stroke="#666666" points="541.75,-149.02 431.25,-149.02 431.25,-124.52 541.75,-124.52 541.75,-149.02"/>
<text text-anchor="middle" x="486.5" y="-131.72" font-family="Helvetica,sans-Serif" font-size="14.00">Nssm\writeLog</text>
</a>
</g>
</g>
<!-- Node2 -->
<g id="Node000002" class="node">
<title>Node2</title>
<g id="a_Node000002"><a xlink:href="../../d3/d93/classNssm.html#ad7fa8b9a6d3705792e43c0301cec213e" target="_top" xlink:title=" ">
<polygon fill="white" stroke="#666666" points="237.5,-251.02 141.25,-251.02 141.25,-226.52 237.5,-226.52 237.5,-251.02"/>
<text text-anchor="middle" x="189.38" y="-233.72" font-family="Helvetica,sans-Serif" font-size="14.00">Nssm\create</text>
</a>
</g>
</g>
<!-- Node1&#45;&gt;Node2 -->
<g id="edge1_Node000001_Node000002" class="edge">
<title>Node1&#45;&gt;Node2</title>
<g id="a_edge1_Node000001_Node000002"><a xlink:title=" ">
<path fill="none" stroke="#63b8ff" d="M467.64,-157.38C450.87,-175.23 424.11,-200.12 395.25,-212.77 344.68,-234.93 280.81,-239.84 237.95,-240.23"/>
<polygon fill="#63b8ff" stroke="#63b8ff" points="469.86,-160.13 474.01,-150.38 464.69,-155.42 469.86,-160.13"/>
</a>
</g>
</g>
<!-- Node3 -->
<g id="Node000003" class="node">
<title>Node3</title>
<g id="a_Node000003"><a xlink:href="../../d3/d93/classNssm.html#a231abdaa59bfc1a18058c63faf77b874" target="_top" xlink:title=" ">
<polygon fill="white" stroke="#666666" points="100.75,-211.02 4.5,-211.02 4.5,-186.52 100.75,-186.52 100.75,-211.02"/>
<text text-anchor="middle" x="52.62" y="-193.72" font-family="Helvetica,sans-Serif" font-size="14.00">Nssm\delete</text>
</a>
</g>
</g>
<!-- Node1&#45;&gt;Node3 -->
<g id="edge2_Node000001_Node000003" class="edge">
<title>Node1&#45;&gt;Node3</title>
<g id="a_edge2_Node000001_Node000003"><a xlink:title=" ">
<path fill="none" stroke="#63b8ff" d="M454.98,-154.98C438,-164.15 416.14,-174.43 395.25,-179.77 292.95,-205.9 168.01,-204.9 101.19,-201.85"/>
<polygon fill="#63b8ff" stroke="#63b8ff" points="456.52,-158.13 463.55,-150.2 453.11,-152.01 456.52,-158.13"/>
</a>
</g>
</g>
<!-- Node4 -->
<g id="Node000004" class="node">
<title>Node4</title>
<g id="a_Node000004"><a xlink:href="../../d3/d93/classNssm.html#ac06cfadc605e5e646d67d6997f820737" target="_top" xlink:title=" ">
<polygon fill="white" stroke="#666666" points="394.5,-289.02 274.25,-289.02 274.25,-264.52 394.5,-264.52 394.5,-289.02"/>
<text text-anchor="middle" x="334.38" y="-271.72" font-family="Helvetica,sans-Serif" font-size="14.00">Nssm\isInstalled</text>
</a>
</g>
</g>
<!-- Node1&#45;&gt;Node4 -->
<g id="edge3_Node000001_Node000004" class="edge">
<title>Node1&#45;&gt;Node4</title>
<g id="a_edge3_Node000001_Node000004"><a xlink:title=" ">
<path fill="none" stroke="#63b8ff" d="M472.51,-159.15C456.94,-184.33 428.7,-225.05 395.25,-250.77 388.42,-256.02 380.37,-260.44 372.42,-264.07"/>
<polygon fill="#63b8ff" stroke="#63b8ff" points="475.44,-161.07 477.61,-150.7 469.45,-157.45 475.44,-161.07"/>
</a>
</g>
</g>
<!-- Node5 -->
<g id="Node000005" class="node">
<title>Node5</title>
<g id="a_Node000005"><a xlink:href="../../d3/d93/classNssm.html#a38d6eb35a2fd3625a2c777120e7eba28" target="_top" xlink:title=" ">
<polygon fill="white" stroke="#666666" points="392.25,-171.02 276.5,-171.02 276.5,-146.52 392.25,-146.52 392.25,-171.02"/>
<text text-anchor="middle" x="334.38" y="-153.72" font-family="Helvetica,sans-Serif" font-size="14.00">Nssm\isPaused</text>
</a>
</g>
</g>
<!-- Node1&#45;&gt;Node5 -->
<g id="edge6_Node000001_Node000005" class="edge">
<title>Node1&#45;&gt;Node5</title>
<g id="a_edge6_Node000001_Node000005"><a xlink:title=" ">
<path fill="none" stroke="#63b8ff" d="M419.65,-146.42C410.68,-147.73 401.54,-149.07 392.74,-150.36"/>
<polygon fill="#63b8ff" stroke="#63b8ff" points="419.99,-149.9 429.38,-144.99 418.98,-142.98 419.99,-149.9"/>
</a>
</g>
</g>
<!-- Node6 -->
<g id="Node000006" class="node">
<title>Node6</title>
<g id="a_Node000006"><a xlink:href="../../d3/d93/classNssm.html#a34f3430d8cd7125210f2f76f617eddc1" target="_top" xlink:title=" ">
<polygon fill="white" stroke="#666666" points="393.75,-48.02 275,-48.02 275,-23.52 393.75,-23.52 393.75,-48.02"/>
<text text-anchor="middle" x="334.38" y="-30.72" font-family="Helvetica,sans-Serif" font-size="14.00">Nssm\isRunning</text>
</a>
</g>
</g>
<!-- Node1&#45;&gt;Node6 -->
<g id="edge7_Node000001_Node000006" class="edge">
<title>Node1&#45;&gt;Node6</title>
<g id="a_edge7_Node000001_Node000006"><a xlink:title=" ">
<path fill="none" stroke="#63b8ff" d="M464.34,-116.2C446.84,-99.96 420.81,-77.49 395.25,-61.77 387.14,-56.78 377.91,-52.26 369.16,-48.45"/>
<polygon fill="#63b8ff" stroke="#63b8ff" points="461.88,-118.69 471.56,-123.01 466.69,-113.6 461.88,-118.69"/>
</a>
</g>
</g>
<!-- Node7 -->
<g id="Node000007" class="node">
<title>Node7</title>
<g id="a_Node000007"><a xlink:href="../../d3/d93/classNssm.html#aa32df80b96119003df6133155b5a6610" target="_top" xlink:title=" ">
<polygon fill="white" stroke="#666666" points="231.12,-48.02 147.62,-48.02 147.62,-23.52 231.12,-23.52 231.12,-48.02"/>
<text text-anchor="middle" x="189.38" y="-30.72" font-family="Helvetica,sans-Serif" font-size="14.00">Nssm\start</text>
</a>
</g>
</g>
<!-- Node1&#45;&gt;Node7 -->
<g id="edge15_Node000001_Node000007" class="edge">
<title>Node1&#45;&gt;Node7</title>
<g id="a_edge15_Node000001_Node000007"><a xlink:title=" ">
<path fill="none" stroke="#63b8ff" d="M476.23,-113.54C463.14,-84.3 436.16,-35.39 395.25,-14.77 338.42,13.88 261.57,-7.46 220.02,-23.13"/>
<polygon fill="#63b8ff" stroke="#63b8ff" points="472.97,-114.82 480.12,-122.64 479.41,-112.07 472.97,-114.82"/>
</a>
</g>
</g>
<!-- Node10 -->
<g id="Node000010" class="node">
<title>Node10</title>
<g id="a_Node000010"><a xlink:href="../../d3/d93/classNssm.html#aef245dc2d387228cc9fdd84bd40a45e2" target="_top" xlink:title=" ">
<polygon fill="white" stroke="#666666" points="395.25,-128.02 273.5,-128.02 273.5,-103.52 395.25,-103.52 395.25,-128.02"/>
<text text-anchor="middle" x="334.38" y="-110.72" font-family="Helvetica,sans-Serif" font-size="14.00">Nssm\isStopped</text>
</a>
</g>
</g>
<!-- Node1&#45;&gt;Node10 -->
<g id="edge11_Node000001_Node000010" class="edge">
<title>Node1&#45;&gt;Node10</title>
<g id="a_edge11_Node000001_Node000010"><a xlink:title=" ">
<path fill="none" stroke="#63b8ff" d="M419.67,-127.56C411.64,-126.43 403.47,-125.29 395.54,-124.18"/>
<polygon fill="#63b8ff" stroke="#63b8ff" points="418.99,-131 429.38,-128.92 419.96,-124.06 418.99,-131"/>
</a>
</g>
</g>
<!-- Node11 -->
<g id="Node000011" class="node">
<title>Node11</title>
<g id="a_Node000011"><a xlink:href="../../d3/d93/classNssm.html#a5c84c357e07c0abd8e5509e021c4360f" target="_top" xlink:title=" ">
<polygon fill="white" stroke="#666666" points="231.5,-110.02 147.25,-110.02 147.25,-85.52 231.5,-85.52 231.5,-110.02"/>
<text text-anchor="middle" x="189.38" y="-92.72" font-family="Helvetica,sans-Serif" font-size="14.00">Nssm\stop</text>
</a>
</g>
</g>
<!-- Node1&#45;&gt;Node11 -->
<g id="edge16_Node000001_Node000011" class="edge">
<title>Node1&#45;&gt;Node11</title>
<g id="a_edge16_Node000001_Node000011"><a xlink:title=" ">
<path fill="none" stroke="#63b8ff" d="M455.38,-118.71C438.37,-109.56 416.35,-99.44 395.25,-94.77 339.68,-82.47 273.54,-86.72 231.75,-91.63"/>
<polygon fill="#63b8ff" stroke="#63b8ff" points="453.5,-121.67 463.94,-123.47 456.91,-115.55 453.5,-121.67"/>
</a>
</g>
</g>
<!-- Node4&#45;&gt;Node2 -->
<g id="edge4_Node000004_Node000002" class="edge">
<title>Node4&#45;&gt;Node2</title>
<g id="a_edge4_Node000004_Node000002"><a xlink:title=" ">
<path fill="none" stroke="#63b8ff" d="M274.67,-261.17C262.39,-257.9 249.59,-254.5 237.78,-251.36"/>
<polygon fill="#63b8ff" stroke="#63b8ff" points="273.73,-264.54 284.3,-263.72 275.53,-257.77 273.73,-264.54"/>
</a>
</g>
</g>
<!-- Node4&#45;&gt;Node3 -->
<g id="edge5_Node000004_Node000003" class="edge">
<title>Node4&#45;&gt;Node3</title>
<g id="a_edge5_Node000004_Node000003"><a xlink:title=" ">
<path fill="none" stroke="#63b8ff" d="M262.85,-279.14C225.68,-278.28 179.9,-273.8 141.25,-259.77 111.8,-249.08 83.05,-225.92 66.9,-211.41"/>
<polygon fill="#63b8ff" stroke="#63b8ff" points="262.53,-282.64 272.58,-279.28 262.63,-275.64 262.53,-282.64"/>
</a>
</g>
</g>
<!-- Node6&#45;&gt;Node7 -->
<g id="edge8_Node000006_Node000007" class="edge">
<title>Node6&#45;&gt;Node7</title>
<g id="a_edge8_Node000006_Node000007"><a xlink:title=" ">
<path fill="none" stroke="#63b8ff" d="M263.48,-35.77C252.56,-35.77 241.59,-35.77 231.59,-35.77"/>
<polygon fill="#63b8ff" stroke="#63b8ff" points="263.29,-39.27 273.29,-35.77 263.29,-32.27 263.29,-39.27"/>
</a>
</g>
</g>
<!-- Node8 -->
<g id="Node000008" class="node">
<title>Node8</title>
<g id="a_Node000008"><a xlink:href="../../d3/d93/classNssm.html#a4222f835dea3ac472ab8fd54a77dbc98" target="_top" xlink:title=" ">
<polygon fill="white" stroke="#666666" points="100.75,-101.02 4.5,-101.02 4.5,-76.52 100.75,-76.52 100.75,-101.02"/>
<text text-anchor="middle" x="52.62" y="-83.72" font-family="Helvetica,sans-Serif" font-size="14.00">Nssm\restart</text>
</a>
</g>
</g>
<!-- Node7&#45;&gt;Node8 -->
<g id="edge9_Node000007_Node000008" class="edge">
<title>Node7&#45;&gt;Node8</title>
<g id="a_edge9_Node000007_Node000008"><a xlink:title=" ">
<path fill="none" stroke="#63b8ff" d="M145.4,-52.67C126.01,-60.29 103.51,-69.15 85.64,-76.18"/>
<polygon fill="#63b8ff" stroke="#63b8ff" points="146.67,-55.93 154.69,-49.02 144.1,-49.42 146.67,-55.93"/>
</a>
</g>
</g>
<!-- Node9 -->
<g id="Node000009" class="node">
<title>Node9</title>
<g id="a_Node000009"><a xlink:href="../../d3/d93/classNssm.html#a61e340f35a716e338685f4bd9d3b4dc3" target="_top" xlink:title=" ">
<polygon fill="white" stroke="#666666" points="105.25,-48.02 0,-48.02 0,-23.52 105.25,-23.52 105.25,-48.02"/>
<text text-anchor="middle" x="52.62" y="-30.72" font-family="Helvetica,sans-Serif" font-size="14.00">Nssm\setStart</text>
</a>
</g>
</g>
<!-- Node7&#45;&gt;Node9 -->
<g id="edge10_Node000007_Node000009" class="edge">
<title>Node7&#45;&gt;Node9</title>
<g id="a_edge10_Node000007_Node000009"><a xlink:title=" ">
<path fill="none" stroke="#63b8ff" d="M135.79,-35.77C125.84,-35.77 115.43,-35.77 105.5,-35.77"/>
<polygon fill="#63b8ff" stroke="#63b8ff" points="135.7,-39.27 145.7,-35.77 135.7,-32.27 135.7,-39.27"/>
</a>
</g>
</g>
<!-- Node10&#45;&gt;Node11 -->
<g id="edge12_Node000010_Node000011" class="edge">
<title>Node10&#45;&gt;Node11</title>
<g id="a_edge12_Node000010_Node000011"><a xlink:title=" ">
<path fill="none" stroke="#63b8ff" d="M261.99,-106.78C251.68,-105.48 241.36,-104.18 231.89,-102.99"/>
<polygon fill="#63b8ff" stroke="#63b8ff" points="261.28,-110.22 271.64,-108 262.16,-103.27 261.28,-110.22"/>
</a>
</g>
</g>
<!-- Node11&#45;&gt;Node3 -->
<g id="edge13_Node000011_Node000003" class="edge">
<title>Node11&#45;&gt;Node3</title>
<g id="a_edge13_Node000011_Node000003"><a xlink:title=" ">
<path fill="none" stroke="#63b8ff" d="M162.69,-117.02C135.64,-137.29 93.84,-168.62 70.63,-186.02"/>
<polygon fill="#63b8ff" stroke="#63b8ff" points="164.47,-120.06 170.37,-111.26 160.27,-114.46 164.47,-120.06"/>
</a>
</g>
</g>
<!-- Node11&#45;&gt;Node8 -->
<g id="edge14_Node000011_Node000008" class="edge">
<title>Node11&#45;&gt;Node8</title>
<g id="a_edge14_Node000011_Node000008"><a xlink:title=" ">
<path fill="none" stroke="#63b8ff" d="M135.64,-94.24C124.18,-93.48 112.13,-92.67 100.9,-91.92"/>
<polygon fill="#63b8ff" stroke="#63b8ff" points="135.12,-97.72 145.34,-94.89 135.59,-90.73 135.12,-97.72"/>
</a>
</g>
</g>
</g>
</svg>
