<?xml version="1.0" encoding="UTF-8" standalone="no"?>
<!--
  - Copyright (c) 2021-2024 Bearsampp
  - License:  GNU General Public License version 3 or later; see LICENSE.txt
  - Author: Bear
  - Website: https://bearsampp.com
  - Github: https://github.com/Bearsampp
  -->

<!DOCTYPE svg PUBLIC "-//W3C//DTD SVG 1.1//EN"
 "http://www.w3.org/Graphics/SVG/1.1/DTD/svg11.dtd">
<!-- Generated by graphviz version 11.0.0 (20240428.1522)
 -->
<!-- Title: ToolYarn\reload Pages: 1 -->
<svg width="312pt" height="76pt"
 viewBox="0.00 0.00 311.50 75.50" xmlns="http://www.w3.org/2000/svg" xmlns:xlink="http://www.w3.org/1999/xlink">
<g id="graph0" class="graph" transform="scale(1 1) rotate(0) translate(4 71.5)">
<title>ToolYarn\reload</title>
<!-- Node1 -->
<g id="Node000001" class="node">
<title>Node1</title>
<g id="a_Node000001"><a xlink:title=" ">
<polygon fill="#999999" stroke="#666666" points="303.5,-45.5 187,-45.5 187,-21 303.5,-21 303.5,-45.5"/>
<text text-anchor="middle" x="245.25" y="-28.2" font-family="Helvetica,sans-Serif" font-size="14.00">ToolYarn\reload</text>
</a>
</g>
</g>
<!-- Node2 -->
<g id="Node000002" class="node">
<title>Node2</title>
<g id="a_Node000002"><a xlink:href="../../d7/d8e/classToolYarn.html#ad822c8b683bc5820e51e6aca5b9be09a" target="_top" xlink:title=" ">
<polygon fill="white" stroke="#666666" points="151,-67.5 0,-67.5 0,-43 151,-43 151,-67.5"/>
<text text-anchor="middle" x="75.5" y="-50.2" font-family="Helvetica,sans-Serif" font-size="14.00">ToolYarn\__construct</text>
</a>
</g>
</g>
<!-- Node1&#45;&gt;Node2 -->
<g id="edge1_Node000001_Node000002" class="edge">
<title>Node1&#45;&gt;Node2</title>
<g id="a_edge1_Node000001_Node000002"><a xlink:title=" ">
<path fill="none" stroke="#63b8ff" d="M175.13,-42.32C167.24,-43.35 159.18,-44.41 151.22,-45.45"/>
<polygon fill="#63b8ff" stroke="#63b8ff" points="175.56,-45.79 185.02,-41.02 174.65,-38.85 175.56,-45.79"/>
</a>
</g>
</g>
<!-- Node3 -->
<g id="Node000003" class="node">
<title>Node3</title>
<g id="a_Node000003"><a xlink:href="../../d7/d8e/classToolYarn.html#a77152b7caf43b1f72b15ca1ac250567c" target="_top" xlink:title=" ">
<polygon fill="white" stroke="#666666" points="148,-24.5 3,-24.5 3,0 148,0 148,-24.5"/>
<text text-anchor="middle" x="75.5" y="-7.2" font-family="Helvetica,sans-Serif" font-size="14.00">ToolYarn\setVersion</text>
</a>
</g>
</g>
<!-- Node1&#45;&gt;Node3 -->
<g id="edge2_Node000001_Node000003" class="edge">
<title>Node1&#45;&gt;Node3</title>
<g id="a_edge2_Node000001_Node000003"><a xlink:title=" ">
<path fill="none" stroke="#63b8ff" d="M175.36,-24.63C166.42,-23.51 157.25,-22.36 148.27,-21.23"/>
<polygon fill="#63b8ff" stroke="#63b8ff" points="174.66,-28.07 185.02,-25.83 175.53,-21.12 174.66,-28.07"/>
</a>
</g>
</g>
</g>
</svg>
