<?xml version="1.0" encoding="UTF-8" standalone="no"?>
<!--
  - Copyright (c) 2021-2024 Bearsampp
  - License:  GNU General Public License version 3 or later; see LICENSE.txt
  - Author: Bear
  - Website: https://bearsampp.com
  - Github: https://github.com/Bearsampp
  -->

<!DOCTYPE svg PUBLIC "-//W3C//DTD SVG 1.1//EN"
 "http://www.w3.org/Graphics/SVG/1.1/DTD/svg11.dtd">
<!-- Generated by graphviz version 11.0.0 (20240428.1522)
 -->
<!-- Title: TplConsoleZ\getAppearanceSection Pages: 1 -->
<svg width="613pt" height="49pt"
 viewBox="0.00 0.00 613.25 49.00" xmlns="http://www.w3.org/2000/svg" xmlns:xlink="http://www.w3.org/1999/xlink">
<g id="graph0" class="graph" transform="scale(1 1) rotate(0) translate(4 45)">
<title>TplConsoleZ\getAppearanceSection</title>
<!-- Node1 -->
<g id="Node000001" class="node">
<title>Node1</title>
<g id="a_Node000001"><a xlink:title=" ">
<polygon fill="#999999" stroke="#666666" points="605.25,-41 405.5,-41 405.5,0 605.25,0 605.25,-41"/>
<text text-anchor="start" x="413.5" y="-23.7" font-family="Helvetica,sans-Serif" font-size="14.00">TplConsoleZ\getAppearance</text>
<text text-anchor="middle" x="505.38" y="-7.2" font-family="Helvetica,sans-Serif" font-size="14.00">Section</text>
</a>
</g>
</g>
<!-- Node2 -->
<g id="Node000002" class="node">
<title>Node2</title>
<g id="a_Node000002"><a xlink:href="../../d6/d32/classTplConsoleZ.html#a20311b354e97694e8a5c0ba6f2afe210" target="_top" xlink:title=" ">
<polygon fill="white" stroke="#666666" points="369.5,-32.75 215.5,-32.75 215.5,-8.25 369.5,-8.25 369.5,-32.75"/>
<text text-anchor="middle" x="292.5" y="-15.45" font-family="Helvetica,sans-Serif" font-size="14.00">TplConsoleZ\process</text>
</a>
</g>
</g>
<!-- Node1&#45;&gt;Node2 -->
<g id="edge1_Node000001_Node000002" class="edge">
<title>Node1&#45;&gt;Node2</title>
<g id="a_edge1_Node000001_Node000002"><a xlink:title=" ">
<path fill="none" stroke="#63b8ff" d="M393.71,-20.5C385.64,-20.5 377.62,-20.5 369.83,-20.5"/>
<polygon fill="#63b8ff" stroke="#63b8ff" points="393.6,-24 403.6,-20.5 393.6,-17 393.6,-24"/>
</a>
</g>
</g>
<!-- Node3 -->
<g id="Node000003" class="node">
<title>Node3</title>
<g id="a_Node000003"><a xlink:href="../../dd/dea/classActionReload.html#a9caf3b20c05475876e5dc72cdcdf6024" target="_top" xlink:title=" ">
<polygon fill="white" stroke="#666666" points="179.5,-32.75 0,-32.75 0,-8.25 179.5,-8.25 179.5,-32.75"/>
<text text-anchor="middle" x="89.75" y="-15.45" font-family="Helvetica,sans-Serif" font-size="14.00">ActionReload\__construct</text>
</a>
</g>
</g>
<!-- Node2&#45;&gt;Node3 -->
<g id="edge2_Node000002_Node000003" class="edge">
<title>Node2&#45;&gt;Node3</title>
<g id="a_edge2_Node000002_Node000003"><a xlink:title=" ">
<path fill="none" stroke="#63b8ff" d="M203.57,-20.5C195.68,-20.5 187.68,-20.5 179.78,-20.5"/>
<polygon fill="#63b8ff" stroke="#63b8ff" points="203.52,-24 213.52,-20.5 203.52,-17 203.52,-24"/>
</a>
</g>
</g>
</g>
</svg>
