<?xml version="1.0" encoding="UTF-8" standalone="no"?>
<!--
  - Copyright (c) 2021-2024 Bearsampp
  - License:  GNU General Public License version 3 or later; see LICENSE.txt
  - Author: Bear
  - Website: https://bearsampp.com
  - Github: https://github.com/Bearsampp
  -->

<!DOCTYPE svg PUBLIC "-//W3C//DTD SVG 1.1//EN"
 "http://www.w3.org/Graphics/SVG/1.1/DTD/svg11.dtd">
<!-- Generated by graphviz version 11.0.0 (20240428.1522)
 -->
<!-- Title: TplConsoleZ\getTabsSection Pages: 1 -->
<svg width="616pt" height="33pt"
 viewBox="0.00 0.00 616.25 32.50" xmlns="http://www.w3.org/2000/svg" xmlns:xlink="http://www.w3.org/1999/xlink">
<g id="graph0" class="graph" transform="scale(1 1) rotate(0) translate(4 28.5)">
<title>TplConsoleZ\getTabsSection</title>
<!-- Node1 -->
<g id="Node000001" class="node">
<title>Node1</title>
<g id="a_Node000001"><a xlink:title=" ">
<polygon fill="#999999" stroke="#666666" points="608.25,-24.5 405.5,-24.5 405.5,0 608.25,0 608.25,-24.5"/>
<text text-anchor="middle" x="506.88" y="-7.2" font-family="Helvetica,sans-Serif" font-size="14.00">TplConsoleZ\getTabsSection</text>
</a>
</g>
</g>
<!-- Node2 -->
<g id="Node000002" class="node">
<title>Node2</title>
<g id="a_Node000002"><a xlink:href="../../d6/d32/classTplConsoleZ.html#a20311b354e97694e8a5c0ba6f2afe210" target="_top" xlink:title=" ">
<polygon fill="white" stroke="#666666" points="369.5,-24.5 215.5,-24.5 215.5,0 369.5,0 369.5,-24.5"/>
<text text-anchor="middle" x="292.5" y="-7.2" font-family="Helvetica,sans-Serif" font-size="14.00">TplConsoleZ\process</text>
</a>
</g>
</g>
<!-- Node1&#45;&gt;Node2 -->
<g id="edge1_Node000001_Node000002" class="edge">
<title>Node1&#45;&gt;Node2</title>
<g id="a_edge1_Node000001_Node000002"><a xlink:title=" ">
<path fill="none" stroke="#63b8ff" d="M393.84,-12.25C385.75,-12.25 377.71,-12.25 369.9,-12.25"/>
<polygon fill="#63b8ff" stroke="#63b8ff" points="393.77,-15.75 403.77,-12.25 393.77,-8.75 393.77,-15.75"/>
</a>
</g>
</g>
<!-- Node3 -->
<g id="Node000003" class="node">
<title>Node3</title>
<g id="a_Node000003"><a xlink:href="../../dd/dea/classActionReload.html#a9caf3b20c05475876e5dc72cdcdf6024" target="_top" xlink:title=" ">
<polygon fill="white" stroke="#666666" points="179.5,-24.5 0,-24.5 0,0 179.5,0 179.5,-24.5"/>
<text text-anchor="middle" x="89.75" y="-7.2" font-family="Helvetica,sans-Serif" font-size="14.00">ActionReload\__construct</text>
</a>
</g>
</g>
<!-- Node2&#45;&gt;Node3 -->
<g id="edge2_Node000002_Node000003" class="edge">
<title>Node2&#45;&gt;Node3</title>
<g id="a_edge2_Node000002_Node000003"><a xlink:title=" ">
<path fill="none" stroke="#63b8ff" d="M203.57,-12.25C195.68,-12.25 187.68,-12.25 179.78,-12.25"/>
<polygon fill="#63b8ff" stroke="#63b8ff" points="203.52,-15.75 213.52,-12.25 203.52,-8.75 203.52,-15.75"/>
</a>
</g>
</g>
</g>
</svg>
