<?xml version="1.0" encoding="UTF-8" standalone="no"?>
<!--
  - Copyright (c) 2021-2024 Bearsampp
  - License:  GNU General Public License version 3 or later; see LICENSE.txt
  - Author: Bear
  - Website: https://bearsampp.com
  - Github: https://github.com/Bearsampp
  -->

<!DOCTYPE svg PUBLIC "-//W3C//DTD SVG 1.1//EN"
 "http://www.w3.org/Graphics/SVG/1.1/DTD/svg11.dtd">
<!-- Generated by graphviz version 11.0.0 (20240428.1522)
 -->
<!-- Title: TplConsoleZ\getTab Pages: 1 -->
<!--zoomable 747 -->

<svg id="main" version="1.1" xmlns="http://www.w3.org/2000/svg" xmlns:xlink="http://www.w3.org/1999/xlink" xml:space="preserve" onload="init(evt)">
<style type="text/css"><![CDATA[
.node, .edge {opacity: 0.7;}
.node.selected, .edge.selected {opacity: 1;}
.edge:hover path { stroke: red; }
.edge:hover polygon { stroke: red; fill: red; }
]]></style>

<defs>
  <circle id="rim" cx="0" cy="0" r="7"/>
  <circle id="rim2" cx="0" cy="0" r="3.5"/>
  <g id="zoomPlus">
    <use xlink:href="#rim" fill="#404040"><set attributeName="fill" to="#808080" begin="zoomplus.mouseover" end="zoomplus.mouseout"/></use>
    <path d="M-4,0h8M0,-4v8" fill="none" stroke="white" stroke-width="1.5" pointer-events="none"/>
  </g>
  <g id="zoomMin">
    <use xlink:href="#rim" fill="#404040"><set attributeName="fill" to="#808080" begin="zoomminus.mouseover" end="zoomminus.mouseout"/></use>
    <path d="M-4,0h8" fill="none" stroke="white" stroke-width="1.5" pointer-events="none"/>
  </g>
  <g id="arrowUp" transform="translate(30 24)">
    <use xlink:href="#rim"/>
    <path pointer-events="none" fill="none" stroke="white" stroke-width="1.5" d="M0,-3.0v7 M-2.5,-0.5L0,-3.0L2.5,-0.5"/>
  </g>
  <g id="arrowRight" transform="rotate(90) translate(36 -43)">
    <use xlink:href="#rim"/>
    <path pointer-events="none" fill="none" stroke="white" stroke-width="1.5" d="M0,-3.0v7 M-2.5,-0.5L0,-3.0L2.5,-0.5"/>
  </g>
  <g id="arrowDown" transform="rotate(180) translate(-30 -48)">
    <use xlink:href="#rim"/>
    <path pointer-events="none" fill="none" stroke="white" stroke-width="1.5" d="M0,-3.0v7 M-2.5,-0.5L0,-3.0L2.5,-0.5"/>
  </g>
  <g id="arrowLeft" transform="rotate(270) translate(-36 17)">
    <use xlink:href="#rim"/>
    <path pointer-events="none" fill="none" stroke="white" stroke-width="1.5" d="M0,-3.0v7 M-2.5,-0.5L0,-3.0L2.5,-0.5"/>
  </g>
  <g id="resetDef">
    <use xlink:href="#rim2" fill="#404040"><set attributeName="fill" to="#808080" begin="reset.mouseover" end="reset.mouseout"/></use>
  </g>
</defs>
<script type="application/ecmascript">
var viewWidth = 1068;
var viewHeight = 747;
var sectionId = 'dynsection-6';
</script>
<script type="application/ecmascript" xlink:href="../../svg.min.js"/>
<svg id="graph" class="graph">
<g id="viewport">
<title>TplConsoleZ\getTab</title>
<!-- Node1 -->
<g id="Node000001" class="node">
<title>Node1</title>
<g id="a_Node000001"><a xlink:title=" ">
<polygon fill="#999999" stroke="#666666" points="1060.25,-381.5 913,-381.5 913,-357 1060.25,-357 1060.25,-381.5"/>
<text text-anchor="middle" x="986.62" y="-364.2" font-family="Helvetica,sans-Serif" font-size="14.00">TplConsoleZ\getTab</text>
</a>
</g>
</g>
<!-- Node2 -->
<g id="Node000002" class="node">
<title>Node2</title>
<g id="a_Node000002"><a xlink:href="../../d6/d32/classTplConsoleZ.html#a84090cac5c71af9a7c202ea52ad1cfaf" target="_top" xlink:title=" ">
<polygon fill="white" stroke="#666666" points="873.62,-738.5 647.62,-738.5 647.62,-714 873.62,-714 873.62,-738.5"/>
<text text-anchor="middle" x="760.62" y="-721.2" font-family="Helvetica,sans-Serif" font-size="14.00">TplConsoleZ\getTabCmdSection</text>
</a>
</g>
</g>
<!-- Node1&#45;&gt;Node2 -->
<g id="edge1_Node000001_Node000002" class="edge">
<title>Node1&#45;&gt;Node2</title>
<g id="a_edge1_Node000001_Node000002"><a xlink:title=" ">
<path fill="none" stroke="#63b8ff" d="M985.69,-392.92C984.49,-454.72 972.16,-621.95 877,-705.25 873.4,-708.4 869.49,-711.15 865.35,-713.55"/>
<polygon fill="#63b8ff" stroke="#63b8ff" points="989.19,-393.25 985.79,-383.22 982.19,-393.18 989.19,-393.25"/>
</a>
</g>
</g>
<!-- Node6 -->
<g id="Node000006" class="node">
<title>Node6</title>
<g id="a_Node000006"><a xlink:href="../../d6/d32/classTplConsoleZ.html#a6212457a0ac318e946c54f0a7190b080" target="_top" xlink:title=" ">
<polygon fill="white" stroke="#666666" points="868,-695.75 653.25,-695.75 653.25,-654.75 868,-654.75 868,-695.75"/>
<text text-anchor="start" x="661.25" y="-678.45" font-family="Helvetica,sans-Serif" font-size="14.00">TplConsoleZ\getTabComposer</text>
<text text-anchor="middle" x="760.62" y="-661.95" font-family="Helvetica,sans-Serif" font-size="14.00">Section</text>
</a>
</g>
</g>
<!-- Node1&#45;&gt;Node6 -->
<g id="edge5_Node000001_Node000006" class="edge">
<title>Node1&#45;&gt;Node6</title>
<g id="a_edge5_Node000001_Node000006"><a xlink:title=" ">
<path fill="none" stroke="#63b8ff" d="M983.48,-393.07C977.33,-446.76 954.72,-577.85 877,-646.25 873.59,-649.25 869.91,-651.95 866.04,-654.38"/>
<polygon fill="#63b8ff" stroke="#63b8ff" points="986.95,-393.54 984.5,-383.23 979.99,-392.81 986.95,-393.54"/>
</a>
</g>
</g>
<!-- Node7 -->
<g id="Node000007" class="node">
<title>Node7</title>
<g id="a_Node000007"><a xlink:href="../../d6/d32/classTplConsoleZ.html#a1fcf2cfdea1edb56ca2387ce13972f80" target="_top" xlink:title=" ">
<polygon fill="white" stroke="#666666" points="870.62,-636.75 650.62,-636.75 650.62,-595.75 870.62,-595.75 870.62,-636.75"/>
<text text-anchor="start" x="658.62" y="-619.45" font-family="Helvetica,sans-Serif" font-size="14.00">TplConsoleZ\getTabGhostscript</text>
<text text-anchor="middle" x="760.62" y="-602.95" font-family="Helvetica,sans-Serif" font-size="14.00">Section</text>
</a>
</g>
</g>
<!-- Node1&#45;&gt;Node7 -->
<g id="edge7_Node000001_Node000007" class="edge">
<title>Node1&#45;&gt;Node7</title>
<g id="a_edge7_Node000001_Node000007"><a xlink:title=" ">
<path fill="none" stroke="#63b8ff" d="M980.59,-393C969.8,-437.87 940.15,-535.12 877,-586.25 872.82,-589.64 868.29,-592.64 863.54,-595.31"/>
<polygon fill="#63b8ff" stroke="#63b8ff" points="983.99,-393.83 982.8,-383.3 977.17,-392.27 983.99,-393.83"/>
</a>
</g>
</g>
<!-- Node8 -->
<g id="Node000008" class="node">
<title>Node8</title>
<g id="a_Node000008"><a xlink:href="../../d6/d32/classTplConsoleZ.html#aab86d5f6aca2b3731385cfcc7653efbe" target="_top" xlink:title=" ">
<polygon fill="white" stroke="#666666" points="867.25,-577.5 654,-577.5 654,-553 867.25,-553 867.25,-577.5"/>
<text text-anchor="middle" x="760.62" y="-560.2" font-family="Helvetica,sans-Serif" font-size="14.00">TplConsoleZ\getTabGitSection</text>
</a>
</g>
</g>
<!-- Node1&#45;&gt;Node8 -->
<g id="edge9_Node000001_Node000008" class="edge">
<title>Node1&#45;&gt;Node8</title>
<g id="a_edge9_Node000001_Node000008"><a xlink:title=" ">
<path fill="none" stroke="#63b8ff" d="M978.1,-392.78C964.51,-431.17 932.07,-506.77 877,-544.25 872.29,-547.46 867.23,-550.22 861.95,-552.58"/>
<polygon fill="#63b8ff" stroke="#63b8ff" points="981.39,-393.95 981.29,-383.36 974.76,-391.7 981.39,-393.95"/>
</a>
</g>
</g>
<!-- Node9 -->
<g id="Node000009" class="node">
<title>Node9</title>
<g id="a_Node000009"><a xlink:href="../../d6/d32/classTplConsoleZ.html#a591cda939a9117bde22adfc9da6f77bd" target="_top" xlink:title=" ">
<polygon fill="white" stroke="#666666" points="859.38,-534.75 661.88,-534.75 661.88,-493.75 859.38,-493.75 859.38,-534.75"/>
<text text-anchor="start" x="669.88" y="-517.45" font-family="Helvetica,sans-Serif" font-size="14.00">TplConsoleZ\getTabMariadb</text>
<text text-anchor="middle" x="760.62" y="-500.95" font-family="Helvetica,sans-Serif" font-size="14.00">Section</text>
</a>
</g>
</g>
<!-- Node1&#45;&gt;Node9 -->
<g id="edge11_Node000001_Node000009" class="edge">
<title>Node1&#45;&gt;Node9</title>
<g id="a_edge11_Node000001_Node000009"><a xlink:title=" ">
<path fill="none" stroke="#63b8ff" d="M970.82,-391.24C952.06,-417.37 917.28,-460.43 877,-484.25 871.3,-487.62 865.22,-490.62 858.95,-493.28"/>
<polygon fill="#63b8ff" stroke="#63b8ff" points="973.68,-393.25 976.55,-383.05 967.95,-389.24 973.68,-393.25"/>
</a>
</g>
</g>
<!-- Node10 -->
<g id="Node000010" class="node">
<title>Node10</title>
<g id="a_Node000010"><a xlink:href="../../d6/d32/classTplConsoleZ.html#a328a576fc2db271d4bb1293cc66a66df" target="_top" xlink:title=" ">
<polygon fill="white" stroke="#666666" points="876.62,-475.5 644.62,-475.5 644.62,-451 876.62,-451 876.62,-475.5"/>
<text text-anchor="middle" x="760.62" y="-458.2" font-family="Helvetica,sans-Serif" font-size="14.00">TplConsoleZ\getTabMysqlSection</text>
</a>
</g>
</g>
<!-- Node1&#45;&gt;Node10 -->
<g id="edge13_Node000001_Node000010" class="edge">
<title>Node1&#45;&gt;Node10</title>
<g id="a_edge13_Node000001_Node000010"><a xlink:title=" ">
<path fill="none" stroke="#63b8ff" d="M962.08,-388.9C941.07,-405.4 908.8,-428.3 877,-441.25 868.03,-444.9 858.42,-447.96 848.71,-450.51"/>
<polygon fill="#63b8ff" stroke="#63b8ff" points="964.1,-391.76 969.71,-382.77 959.72,-386.3 964.1,-391.76"/>
</a>
</g>
</g>
<!-- Node11 -->
<g id="Node000011" class="node">
<title>Node11</title>
<g id="a_Node000011"><a xlink:href="../../d6/d32/classTplConsoleZ.html#a7c26a9f057f805d1666a774703e3152c" target="_top" xlink:title=" ">
<polygon fill="white" stroke="#666666" points="877,-432.5 644.25,-432.5 644.25,-408 877,-408 877,-432.5"/>
<text text-anchor="middle" x="760.62" y="-415.2" font-family="Helvetica,sans-Serif" font-size="14.00">TplConsoleZ\getTabNgrokSection</text>
</a>
</g>
</g>
<!-- Node1&#45;&gt;Node11 -->
<g id="edge15_Node000001_Node000011" class="edge">
<title>Node1&#45;&gt;Node11</title>
<g id="a_edge15_Node000001_Node000011"><a xlink:title=" ">
<path fill="none" stroke="#63b8ff" d="M932.4,-384.97C914.85,-389.88 895.16,-395.1 877,-399.25 864.1,-402.2 850.31,-405 836.92,-407.55"/>
<polygon fill="#63b8ff" stroke="#63b8ff" points="932.9,-388.47 941.57,-382.38 931,-381.73 932.9,-388.47"/>
</a>
</g>
</g>
<!-- Node12 -->
<g id="Node000012" class="node">
<title>Node12</title>
<g id="a_Node000012"><a xlink:href="../../d6/d32/classTplConsoleZ.html#a4e7352ed4289388665f0bea90382982e" target="_top" xlink:title=" ">
<polygon fill="white" stroke="#666666" points="856.75,-389.75 664.5,-389.75 664.5,-348.75 856.75,-348.75 856.75,-389.75"/>
<text text-anchor="start" x="672.5" y="-372.45" font-family="Helvetica,sans-Serif" font-size="14.00">TplConsoleZ\getTabNodejs</text>
<text text-anchor="middle" x="760.62" y="-355.95" font-family="Helvetica,sans-Serif" font-size="14.00">Section</text>
</a>
</g>
</g>
<!-- Node1&#45;&gt;Node12 -->
<g id="edge17_Node000001_Node000012" class="edge">
<title>Node1&#45;&gt;Node12</title>
<g id="a_edge17_Node000001_Node000012"><a xlink:title=" ">
<path fill="none" stroke="#63b8ff" d="M901.18,-369.25C886.75,-369.25 871.68,-369.25 856.99,-369.25"/>
<polygon fill="#63b8ff" stroke="#63b8ff" points="901.08,-372.75 911.08,-369.25 901.08,-365.75 901.08,-372.75"/>
</a>
</g>
</g>
<!-- Node13 -->
<g id="Node000013" class="node">
<title>Node13</title>
<g id="a_Node000013"><a xlink:href="../../d6/d32/classTplConsoleZ.html#a339b3438af34d6c72fda11af19b8075a" target="_top" xlink:title=" ">
<polygon fill="white" stroke="#666666" points="873.25,-330.5 648,-330.5 648,-306 873.25,-306 873.25,-330.5"/>
<text text-anchor="middle" x="760.62" y="-313.2" font-family="Helvetica,sans-Serif" font-size="14.00">TplConsoleZ\getTabPearSection</text>
</a>
</g>
</g>
<!-- Node1&#45;&gt;Node13 -->
<g id="edge19_Node000001_Node000013" class="edge">
<title>Node1&#45;&gt;Node13</title>
<g id="a_edge19_Node000001_Node000013"><a xlink:title=" ">
<path fill="none" stroke="#63b8ff" d="M930.03,-353.58C913.07,-349.02 894.33,-344.21 877,-340.25 862.79,-337 847.51,-333.85 832.88,-331"/>
<polygon fill="#63b8ff" stroke="#63b8ff" points="928.86,-356.89 939.42,-356.13 930.69,-350.13 928.86,-356.89"/>
</a>
</g>
</g>
<!-- Node14 -->
<g id="Node000014" class="node">
<title>Node14</title>
<g id="a_Node000014"><a xlink:href="../../d6/d32/classTplConsoleZ.html#a9c3611de49d72c9e430a92628bac292b" target="_top" xlink:title=" ">
<polygon fill="white" stroke="#666666" points="871,-287.5 650.25,-287.5 650.25,-263 871,-263 871,-287.5"/>
<text text-anchor="middle" x="760.62" y="-270.2" font-family="Helvetica,sans-Serif" font-size="14.00">TplConsoleZ\getTabPerlSection</text>
</a>
</g>
</g>
<!-- Node1&#45;&gt;Node14 -->
<g id="edge21_Node000001_Node000014" class="edge">
<title>Node1&#45;&gt;Node14</title>
<g id="a_edge21_Node000001_Node000014"><a xlink:title=" ">
<path fill="none" stroke="#63b8ff" d="M962.08,-349.6C941.07,-333.1 908.8,-310.2 877,-297.25 868.03,-293.6 858.42,-290.54 848.71,-287.99"/>
<polygon fill="#63b8ff" stroke="#63b8ff" points="959.72,-352.2 969.71,-355.73 964.1,-346.74 959.72,-352.2"/>
</a>
</g>
</g>
<!-- Node15 -->
<g id="Node000015" class="node">
<title>Node15</title>
<g id="a_Node000015"><a xlink:href="../../d6/d32/classTplConsoleZ.html#ab93eaf903e70813c819fe503bbae2c54" target="_top" xlink:title=" ">
<polygon fill="white" stroke="#666666" points="868.75,-244.75 652.5,-244.75 652.5,-203.75 868.75,-203.75 868.75,-244.75"/>
<text text-anchor="start" x="660.5" y="-227.45" font-family="Helvetica,sans-Serif" font-size="14.00">TplConsoleZ\getTabPostgresql</text>
<text text-anchor="middle" x="760.62" y="-210.95" font-family="Helvetica,sans-Serif" font-size="14.00">Section</text>
</a>
</g>
</g>
<!-- Node1&#45;&gt;Node15 -->
<g id="edge23_Node000001_Node000015" class="edge">
<title>Node1&#45;&gt;Node15</title>
<g id="a_edge23_Node000001_Node000015"><a xlink:title=" ">
<path fill="none" stroke="#63b8ff" d="M970.82,-347.26C952.06,-321.13 917.28,-278.07 877,-254.25 871.3,-250.88 865.22,-247.88 858.95,-245.22"/>
<polygon fill="#63b8ff" stroke="#63b8ff" points="967.95,-349.26 976.55,-355.45 973.68,-345.25 967.95,-349.26"/>
</a>
</g>
</g>
<!-- Node16 -->
<g id="Node000016" class="node">
<title>Node16</title>
<g id="a_Node000016"><a xlink:href="../../d6/d32/classTplConsoleZ.html#abe51ca1a21f4fee32040c4b113cc9abf" target="_top" xlink:title=" ">
<polygon fill="white" stroke="#666666" points="870.25,-185.75 651,-185.75 651,-144.75 870.25,-144.75 870.25,-185.75"/>
<text text-anchor="start" x="659" y="-168.45" font-family="Helvetica,sans-Serif" font-size="14.00">TplConsoleZ\getTabPowerShell</text>
<text text-anchor="middle" x="760.62" y="-151.95" font-family="Helvetica,sans-Serif" font-size="14.00">Section</text>
</a>
</g>
</g>
<!-- Node1&#45;&gt;Node16 -->
<g id="edge25_Node000001_Node000016" class="edge">
<title>Node1&#45;&gt;Node16</title>
<g id="a_edge25_Node000001_Node000016"><a xlink:title=" ">
<path fill="none" stroke="#63b8ff" d="M977.83,-346.55C963.78,-309.1 930.58,-234.61 877,-195.25 872.41,-191.88 867.48,-188.89 862.33,-186.23"/>
<polygon fill="#63b8ff" stroke="#63b8ff" points="974.37,-347.26 981.06,-355.48 980.95,-344.88 974.37,-347.26"/>
</a>
</g>
</g>
<!-- Node17 -->
<g id="Node000017" class="node">
<title>Node17</title>
<g id="a_Node000017"><a xlink:href="../../d6/d32/classTplConsoleZ.html#a64683b78dc2cf721e3fc7de62a31db14" target="_top" xlink:title=" ">
<polygon fill="white" stroke="#666666" points="856,-126.75 665.25,-126.75 665.25,-85.75 856,-85.75 856,-126.75"/>
<text text-anchor="start" x="673.25" y="-109.45" font-family="Helvetica,sans-Serif" font-size="14.00">TplConsoleZ\getTabPython</text>
<text text-anchor="middle" x="760.62" y="-92.95" font-family="Helvetica,sans-Serif" font-size="14.00">Section</text>
</a>
</g>
</g>
<!-- Node1&#45;&gt;Node17 -->
<g id="edge27_Node000001_Node000017" class="edge">
<title>Node1&#45;&gt;Node17</title>
<g id="a_edge27_Node000001_Node000017"><a xlink:title=" ">
<path fill="none" stroke="#63b8ff" d="M981.46,-345.4C971.92,-298.06 943.9,-191.97 877,-136.25 870.8,-131.08 863.81,-126.8 856.41,-123.24"/>
<polygon fill="#63b8ff" stroke="#63b8ff" points="978,-345.95 983.31,-355.12 984.88,-344.65 978,-345.95"/>
</a>
</g>
</g>
<!-- Node18 -->
<g id="Node000018" class="node">
<title>Node18</title>
<g id="a_Node000018"><a xlink:href="../../d6/d32/classTplConsoleZ.html#aca1317238ff106fc9494c5af00b331d6" target="_top" xlink:title=" ">
<polygon fill="white" stroke="#666666" points="874.75,-67.5 646.5,-67.5 646.5,-43 874.75,-43 874.75,-67.5"/>
<text text-anchor="middle" x="760.62" y="-50.2" font-family="Helvetica,sans-Serif" font-size="14.00">TplConsoleZ\getTabRubySection</text>
</a>
</g>
</g>
<!-- Node1&#45;&gt;Node18 -->
<g id="edge29_Node000001_Node000018" class="edge">
<title>Node1&#45;&gt;Node18</title>
<g id="a_edge29_Node000001_Node000018"><a xlink:title=" ">
<path fill="none" stroke="#63b8ff" d="M984.32,-345.34C979.88,-289.09 960.54,-147.84 877,-77.25 872.72,-73.63 868.02,-70.54 863.05,-67.89"/>
<polygon fill="#63b8ff" stroke="#63b8ff" points="980.81,-345.33 984.99,-355.07 987.79,-344.85 980.81,-345.33"/>
</a>
</g>
</g>
<!-- Node19 -->
<g id="Node000019" class="node">
<title>Node19</title>
<g id="a_Node000019"><a xlink:href="../../d6/d32/classTplConsoleZ.html#ae2401dbb183a5e37bdd59cc39a528d21" target="_top" xlink:title=" ">
<polygon fill="white" stroke="#666666" points="872.5,-24.5 648.75,-24.5 648.75,0 872.5,0 872.5,-24.5"/>
<text text-anchor="middle" x="760.62" y="-7.2" font-family="Helvetica,sans-Serif" font-size="14.00">TplConsoleZ\getTabYarnSection</text>
</a>
</g>
</g>
<!-- Node1&#45;&gt;Node19 -->
<g id="edge31_Node000001_Node000019" class="edge">
<title>Node1&#45;&gt;Node19</title>
<g id="a_edge31_Node000001_Node000019"><a xlink:title=" ">
<path fill="none" stroke="#63b8ff" d="M985.62,-345.28C984.21,-283.43 971.37,-117.49 877,-34.25 872.95,-30.68 868.5,-27.61 863.78,-24.97"/>
<polygon fill="#63b8ff" stroke="#63b8ff" points="982.11,-345.05 985.75,-355 989.11,-344.96 982.11,-345.05"/>
</a>
</g>
</g>
<!-- Node3 -->
<g id="Node000003" class="node">
<title>Node3</title>
<g id="a_Node000003"><a xlink:href="../../d6/d32/classTplConsoleZ.html#ad8eca3c98871396ed6eda2c5883be82c" target="_top" xlink:title=" ">
<polygon fill="white" stroke="#666666" points="608.25,-381.5 405.5,-381.5 405.5,-357 608.25,-357 608.25,-381.5"/>
<text text-anchor="middle" x="506.88" y="-364.2" font-family="Helvetica,sans-Serif" font-size="14.00">TplConsoleZ\getTabsSection</text>
</a>
</g>
</g>
<!-- Node2&#45;&gt;Node3 -->
<g id="edge2_Node000002_Node000003" class="edge">
<title>Node2&#45;&gt;Node3</title>
<g id="a_edge2_Node000002_Node000003"><a xlink:title=" ">
<path fill="none" stroke="#63b8ff" d="M647.21,-707.53C646.2,-706.8 645.22,-706.04 644.25,-705.25 536.54,-617.68 513.2,-431.69 508.8,-381.79"/>
<polygon fill="#63b8ff" stroke="#63b8ff" points="645.1,-710.34 655.43,-712.7 648.83,-704.42 645.1,-710.34"/>
</a>
</g>
</g>
<!-- Node4 -->
<g id="Node000004" class="node">
<title>Node4</title>
<g id="a_Node000004"><a xlink:href="../../d6/d32/classTplConsoleZ.html#a20311b354e97694e8a5c0ba6f2afe210" target="_top" xlink:title=" ">
<polygon fill="white" stroke="#666666" points="369.5,-381.5 215.5,-381.5 215.5,-357 369.5,-357 369.5,-381.5"/>
<text text-anchor="middle" x="292.5" y="-364.2" font-family="Helvetica,sans-Serif" font-size="14.00">TplConsoleZ\process</text>
</a>
</g>
</g>
<!-- Node3&#45;&gt;Node4 -->
<g id="edge3_Node000003_Node000004" class="edge">
<title>Node3&#45;&gt;Node4</title>
<g id="a_edge3_Node000003_Node000004"><a xlink:title=" ">
<path fill="none" stroke="#63b8ff" d="M393.84,-369.25C385.75,-369.25 377.71,-369.25 369.9,-369.25"/>
<polygon fill="#63b8ff" stroke="#63b8ff" points="393.77,-372.75 403.77,-369.25 393.77,-365.75 393.77,-372.75"/>
</a>
</g>
</g>
<!-- Node5 -->
<g id="Node000005" class="node">
<title>Node5</title>
<g id="a_Node000005"><a xlink:href="../../dd/dea/classActionReload.html#a9caf3b20c05475876e5dc72cdcdf6024" target="_top" xlink:title=" ">
<polygon fill="white" stroke="#666666" points="179.5,-381.5 0,-381.5 0,-357 179.5,-357 179.5,-381.5"/>
<text text-anchor="middle" x="89.75" y="-364.2" font-family="Helvetica,sans-Serif" font-size="14.00">ActionReload\__construct</text>
</a>
</g>
</g>
<!-- Node4&#45;&gt;Node5 -->
<g id="edge4_Node000004_Node000005" class="edge">
<title>Node4&#45;&gt;Node5</title>
<g id="a_edge4_Node000004_Node000005"><a xlink:title=" ">
<path fill="none" stroke="#63b8ff" d="M203.57,-369.25C195.68,-369.25 187.68,-369.25 179.78,-369.25"/>
<polygon fill="#63b8ff" stroke="#63b8ff" points="203.52,-372.75 213.52,-369.25 203.52,-365.75 203.52,-372.75"/>
</a>
</g>
</g>
<!-- Node6&#45;&gt;Node3 -->
<g id="edge6_Node000006_Node000003" class="edge">
<title>Node6&#45;&gt;Node3</title>
<g id="a_edge6_Node000006_Node000003"><a xlink:title=" ">
<path fill="none" stroke="#63b8ff" d="M646.71,-648.17C645.88,-647.54 645.06,-646.9 644.25,-646.25 554,-573.3 518.86,-425.62 510.17,-381.79"/>
<polygon fill="#63b8ff" stroke="#63b8ff" points="644.52,-650.91 654.79,-653.5 648.37,-645.07 644.52,-650.91"/>
</a>
</g>
</g>
<!-- Node7&#45;&gt;Node3 -->
<g id="edge8_Node000007_Node000003" class="edge">
<title>Node7&#45;&gt;Node3</title>
<g id="a_edge8_Node000007_Node000003"><a xlink:title=" ">
<path fill="none" stroke="#63b8ff" d="M649.1,-589.59C647.45,-588.52 645.83,-587.41 644.25,-586.25 568.5,-530.78 524.98,-419.33 512.01,-381.87"/>
<polygon fill="#63b8ff" stroke="#63b8ff" points="647.21,-592.53 657.62,-594.5 650.71,-586.47 647.21,-592.53"/>
</a>
</g>
</g>
<!-- Node8&#45;&gt;Node3 -->
<g id="edge10_Node000008_Node000003" class="edge">
<title>Node8&#45;&gt;Node3</title>
<g id="a_edge10_Node000008_Node000003"><a xlink:title=" ">
<path fill="none" stroke="#63b8ff" d="M650.9,-547.94C648.63,-546.79 646.41,-545.56 644.25,-544.25 576.37,-503.15 529.43,-414.88 513.68,-381.97"/>
<polygon fill="#63b8ff" stroke="#63b8ff" points="649.2,-551.02 659.76,-551.94 652.08,-544.64 649.2,-551.02"/>
</a>
</g>
</g>
<!-- Node9&#45;&gt;Node3 -->
<g id="edge12_Node000009_Node000003" class="edge">
<title>Node9&#45;&gt;Node3</title>
<g id="a_edge12_Node000009_Node000003"><a xlink:title=" ">
<path fill="none" stroke="#63b8ff" d="M654.32,-489.05C650.88,-487.54 647.51,-485.94 644.25,-484.25 591.16,-456.78 540.61,-405.37 518.94,-381.73"/>
<polygon fill="#63b8ff" stroke="#63b8ff" points="652.83,-492.22 663.41,-492.76 655.48,-485.74 652.83,-492.22"/>
</a>
</g>
</g>
<!-- Node10&#45;&gt;Node3 -->
<g id="edge14_Node000010_Node000003" class="edge">
<title>Node10&#45;&gt;Node3</title>
<g id="a_edge14_Node000010_Node000003"><a xlink:title=" ">
<path fill="none" stroke="#63b8ff" d="M665.51,-447.74C658.25,-445.8 651.09,-443.65 644.25,-441.25 600.29,-425.84 553.08,-398.12 527.36,-381.94"/>
<polygon fill="#63b8ff" stroke="#63b8ff" points="664.57,-451.11 675.12,-450.14 666.27,-444.32 664.57,-451.11"/>
</a>
</g>
</g>
<!-- Node11&#45;&gt;Node3 -->
<g id="edge16_Node000011_Node000003" class="edge">
<title>Node11&#45;&gt;Node3</title>
<g id="a_edge16_Node000011_Node000003"><a xlink:title=" ">
<path fill="none" stroke="#63b8ff" d="M676.34,-405.46C665.53,-403.44 654.62,-401.33 644.25,-399.25 617.63,-393.9 588.2,-387.49 563.51,-381.97"/>
<polygon fill="#63b8ff" stroke="#63b8ff" points="675.58,-408.88 686.05,-407.27 676.86,-402 675.58,-408.88"/>
</a>
</g>
</g>
<!-- Node12&#45;&gt;Node3 -->
<g id="edge18_Node000012_Node000003" class="edge">
<title>Node12&#45;&gt;Node3</title>
<g id="a_edge18_Node000012_Node000003"><a xlink:title=" ">
<path fill="none" stroke="#63b8ff" d="M652.89,-369.25C638.13,-369.25 623.01,-369.25 608.37,-369.25"/>
<polygon fill="#63b8ff" stroke="#63b8ff" points="652.58,-372.75 662.58,-369.25 652.58,-365.75 652.58,-372.75"/>
</a>
</g>
</g>
<!-- Node13&#45;&gt;Node3 -->
<g id="edge20_Node000013_Node000003" class="edge">
<title>Node13&#45;&gt;Node3</title>
<g id="a_edge20_Node000013_Node000003"><a xlink:title=" ">
<path fill="none" stroke="#63b8ff" d="M680.49,-333.11C668.35,-335.46 655.96,-337.89 644.25,-340.25 618.62,-345.42 590.35,-351.39 566.22,-356.56"/>
<polygon fill="#63b8ff" stroke="#63b8ff" points="680.91,-336.59 690.07,-331.27 679.59,-329.72 680.91,-336.59"/>
</a>
</g>
</g>
<!-- Node14&#45;&gt;Node3 -->
<g id="edge22_Node000014_Node000003" class="edge">
<title>Node14&#45;&gt;Node3</title>
<g id="a_edge22_Node000014_Node000003"><a xlink:title=" ">
<path fill="none" stroke="#63b8ff" d="M665.51,-290.76C658.25,-292.7 651.09,-294.85 644.25,-297.25 600.29,-312.66 553.08,-340.38 527.36,-356.56"/>
<polygon fill="#63b8ff" stroke="#63b8ff" points="666.27,-294.18 675.12,-288.36 664.57,-287.39 666.27,-294.18"/>
</a>
</g>
</g>
<!-- Node15&#45;&gt;Node3 -->
<g id="edge24_Node000015_Node000003" class="edge">
<title>Node15&#45;&gt;Node3</title>
<g id="a_edge24_Node000015_Node000003"><a xlink:title=" ">
<path fill="none" stroke="#63b8ff" d="M654.32,-249.45C650.88,-250.96 647.51,-252.56 644.25,-254.25 591.16,-281.72 540.61,-333.13 518.94,-356.77"/>
<polygon fill="#63b8ff" stroke="#63b8ff" points="655.48,-252.76 663.41,-245.74 652.83,-246.28 655.48,-252.76"/>
</a>
</g>
</g>
<!-- Node16&#45;&gt;Node3 -->
<g id="edge26_Node000016_Node000003" class="edge">
<title>Node16&#45;&gt;Node3</title>
<g id="a_edge26_Node000016_Node000003"><a xlink:title=" ">
<path fill="none" stroke="#63b8ff" d="M650.75,-191.29C648.53,-192.55 646.36,-193.87 644.25,-195.25 578.12,-238.59 530.11,-324.85 513.88,-356.89"/>
<polygon fill="#63b8ff" stroke="#63b8ff" points="652.12,-194.52 659.43,-186.84 648.93,-188.29 652.12,-194.52"/>
</a>
</g>
</g>
<!-- Node17&#45;&gt;Node3 -->
<g id="edge28_Node000017_Node000003" class="edge">
<title>Node17&#45;&gt;Node3</title>
<g id="a_edge28_Node000017_Node000003"><a xlink:title=" ">
<path fill="none" stroke="#63b8ff" d="M654.77,-129.3C651.11,-131.42 647.58,-133.73 644.25,-136.25 564.83,-196.35 523.29,-317.22 511.47,-356.56"/>
<polygon fill="#63b8ff" stroke="#63b8ff" points="656.14,-132.53 663.42,-124.83 652.93,-126.31 656.14,-132.53"/>
</a>
</g>
</g>
<!-- Node18&#45;&gt;Node3 -->
<g id="edge30_Node000018_Node000003" class="edge">
<title>Node18&#45;&gt;Node3</title>
<g id="a_edge30_Node000018_Node000003"><a xlink:title=" ">
<path fill="none" stroke="#63b8ff" d="M649.67,-73.39C647.81,-74.6 646,-75.89 644.25,-77.25 547.98,-152.14 516.78,-311.23 509.63,-356.81"/>
<polygon fill="#63b8ff" stroke="#63b8ff" points="651.07,-76.62 658.05,-68.65 647.62,-70.53 651.07,-76.62"/>
</a>
</g>
</g>
<!-- Node19&#45;&gt;Node3 -->
<g id="edge32_Node000019_Node000003" class="edge">
<title>Node19&#45;&gt;Node3</title>
<g id="a_edge32_Node000019_Node000003"><a xlink:title=" ">
<path fill="none" stroke="#63b8ff" d="M648.95,-30.7C647.34,-31.83 645.77,-33.01 644.25,-34.25 537.14,-121.99 513.37,-307.12 508.84,-356.77"/>
<polygon fill="#63b8ff" stroke="#63b8ff" points="650.53,-33.84 657.3,-25.69 646.93,-27.83 650.53,-33.84"/>
</a>
</g>
</g>
</g>
</svg>

<g id="navigator" transform="translate(0 0)" fill="#404254">
  <rect fill="#f2f5e9" fill-opacity="0.5" stroke="#606060" stroke-width=".5" x="0" y="0" width="60" height="60"/>
  <use id="zoomplus" xlink:href="#zoomPlus" x="17" y="9" onmousedown="handleZoom(evt,'in')"/>
  <use id="zoomminus" xlink:href="#zoomMin" x="42" y="9" onmousedown="handleZoom(evt,'out')"/>
  <use id="reset" xlink:href="#resetDef" x="30" y="36" onmousedown="handleReset()"/>
   <use id="arrowup" xlink:href="#arrowUp" x="0" y="0" onmousedown="handlePan(0,-1)"/>
  <use id="arrowright" xlink:href="#arrowRight" x="0" y="0" onmousedown="handlePan(1,0)"/>
  <use id="arrowdown" xlink:href="#arrowDown" x="0" y="0" onmousedown="handlePan(0,1)"/>
  <use id="arrowleft" xlink:href="#arrowLeft" x="0" y="0" onmousedown="handlePan(-1,0)"/>
</g>
<svg viewBox="0 0 15 15" width="100%" height="30px" preserveAspectRatio="xMaxYMin meet">
 <g id="arrow_out" transform="scale(0.3 0.3)">
  <a xlink:href="classTplConsoleZ_ac764f80bfa38857786068f396c16f80d_icgraph_org.svg" target="_base">
   <rect id="button" ry="5" rx="5" y="6" x="6" height="38" width="38"
        fill="#f2f5e9" fill-opacity="0.5" stroke="#606060" stroke-width="1.0"/>
   <path id="arrow"
     d="M 11.500037,31.436501 C 11.940474,20.09759 22.043105,11.32322 32.158766,21.979434 L 37.068811,17.246167 C 37.068811,17.246167 37.088388,32 37.088388,32 L 22.160133,31.978069 C 22.160133,31.978069 26.997745,27.140456 26.997745,27.140456 C 18.528582,18.264221 13.291696,25.230495 11.500037,31.436501 z"
     style="fill:#404040;"/>
  </a>
 </g>
</svg>

<style type='text/css'>
<![CDATA[
[data-mouse-over-selected='false'] { opacity: 0.7; }
[data-mouse-over-selected='true']  { opacity: 1.0; }
]]>
</style>
<script type="application/ecmascript"><![CDATA[
document.addEventListener('DOMContentLoaded', (event) => {
  highlightEdges();
  highlightAdjacentNodes();
});
]]></script>
</svg>
