<?xml version="1.0" encoding="UTF-8" standalone="no"?>
<!--
  - Copyright (c) 2021-2024 Bearsampp
  - License:  GNU General Public License version 3 or later; see LICENSE.txt
  - Author: Bear
  - Website: https://bearsampp.com
  - Github: https://github.com/Bearsampp
  -->

<!DOCTYPE svg PUBLIC "-//W3C//DTD SVG 1.1//EN"
 "http://www.w3.org/Graphics/SVG/1.1/DTD/svg11.dtd">
<!-- Generated by graphviz version 11.0.0 (20240428.1522)
 -->
<!-- Title: TplConsoleZ\getIncrStr Pages: 1 -->
<svg width="1366pt" height="1019pt"
 viewBox="0.00 0.00 1366.25 1019.37" xmlns="http://www.w3.org/2000/svg" xmlns:xlink="http://www.w3.org/1999/xlink">
<g id="graph0" class="graph" transform="scale(1 1) rotate(0) translate(4 1015.37)">
<title>TplConsoleZ\getIncrStr</title>
<!-- Node1 -->
<g id="Node000001" class="node">
<title>Node1</title>
<g id="a_Node000001"><a xlink:title=" ">
<polygon fill="#999999" stroke="#666666" points="1358.25,-865.6 1193.75,-865.6 1193.75,-841.1 1358.25,-841.1 1358.25,-865.6"/>
<text text-anchor="middle" x="1276" y="-848.3" font-family="Helvetica,sans-Serif" font-size="14.00">TplConsoleZ\getIncrStr</text>
</a>
</g>
</g>
<!-- Node2 -->
<g id="Node000002" class="node">
<title>Node2</title>
<g id="a_Node000002"><a xlink:href="../../d6/d32/classTplConsoleZ.html#a0123abf956a017749933037085460a30" target="_top" xlink:title=" ">
<polygon fill="white" stroke="#666666" points="616.12,-1000.85 416.38,-1000.85 416.38,-959.85 616.12,-959.85 616.12,-1000.85"/>
<text text-anchor="start" x="424.38" y="-983.55" font-family="Helvetica,sans-Serif" font-size="14.00">TplConsoleZ\getAppearance</text>
<text text-anchor="middle" x="516.25" y="-967.05" font-family="Helvetica,sans-Serif" font-size="14.00">Section</text>
</a>
</g>
</g>
<!-- Node1&#45;&gt;Node2 -->
<g id="edge1_Node000001_Node000002" class="edge">
<title>Node1&#45;&gt;Node2</title>
<g id="a_edge1_Node000001_Node000002"><a xlink:title=" ">
<path fill="none" stroke="#63b8ff" d="M1258.82,-874.74C1238.42,-899.82 1200.76,-940.13 1157.75,-957.35 977.75,-1029.4 746.04,-1014.02 616.41,-996.85"/>
<polygon fill="#63b8ff" stroke="#63b8ff" points="1261.37,-877.16 1264.83,-867.15 1255.88,-872.82 1261.37,-877.16"/>
</a>
</g>
</g>
<!-- Node5 -->
<g id="Node000005" class="node">
<title>Node5</title>
<g id="a_Node000005"><a xlink:href="../../d6/d32/classTplConsoleZ.html#a39afdcd0bc36378434d2cf2d4b141509" target="_top" xlink:title=" ">
<polygon fill="white" stroke="#666666" points="1157.75,-948.6 931.75,-948.6 931.75,-924.1 1157.75,-924.1 1157.75,-948.6"/>
<text text-anchor="middle" x="1044.75" y="-931.3" font-family="Helvetica,sans-Serif" font-size="14.00">TplConsoleZ\getBehaviorSection</text>
</a>
</g>
</g>
<!-- Node1&#45;&gt;Node5 -->
<g id="edge4_Node000001_Node000005" class="edge">
<title>Node1&#45;&gt;Node5</title>
<g id="a_edge4_Node000001_Node000005"><a xlink:title=" ">
<path fill="none" stroke="#63b8ff" d="M1245.19,-871.9C1222.11,-885.5 1188.93,-903.43 1157.75,-914.35 1147.46,-917.95 1136.43,-921.02 1125.44,-923.62"/>
<polygon fill="#63b8ff" stroke="#63b8ff" points="1246.97,-874.92 1253.75,-866.78 1243.37,-868.92 1246.97,-874.92"/>
</a>
</g>
</g>
<!-- Node6 -->
<g id="Node000006" class="node">
<title>Node6</title>
<g id="a_Node000006"><a xlink:href="../../d6/d32/classTplConsoleZ.html#a7f85598a7fee9daf7789e67e8ca608a8" target="_top" xlink:title=" ">
<polygon fill="white" stroke="#666666" points="1156.62,-905.6 932.88,-905.6 932.88,-881.1 1156.62,-881.1 1156.62,-905.6"/>
<text text-anchor="middle" x="1044.75" y="-888.3" font-family="Helvetica,sans-Serif" font-size="14.00">TplConsoleZ\getConsoleSection</text>
</a>
</g>
</g>
<!-- Node1&#45;&gt;Node6 -->
<g id="edge6_Node000001_Node000006" class="edge">
<title>Node1&#45;&gt;Node6</title>
<g id="a_edge6_Node000001_Node000006"><a xlink:title=" ">
<path fill="none" stroke="#63b8ff" d="M1191.06,-868C1167.37,-872.13 1141.8,-876.59 1118.8,-880.6"/>
<polygon fill="#63b8ff" stroke="#63b8ff" points="1191.41,-871.49 1200.66,-866.32 1190.21,-864.59 1191.41,-871.49"/>
</a>
</g>
</g>
<!-- Node7 -->
<g id="Node000007" class="node">
<title>Node7</title>
<g id="a_Node000007"><a xlink:href="../../d6/d32/classTplConsoleZ.html#a386ff1241f26d448bc4036d0d380542f" target="_top" xlink:title=" ">
<polygon fill="white" stroke="#666666" points="627,-865.6 405.5,-865.6 405.5,-841.1 627,-841.1 627,-865.6"/>
<text text-anchor="middle" x="516.25" y="-848.3" font-family="Helvetica,sans-Serif" font-size="14.00">TplConsoleZ\getHotkeysSection</text>
</a>
</g>
</g>
<!-- Node1&#45;&gt;Node7 -->
<g id="edge8_Node000001_Node000007" class="edge">
<title>Node1&#45;&gt;Node7</title>
<g id="a_edge8_Node000001_Node000007"><a xlink:title=" ">
<path fill="none" stroke="#63b8ff" d="M1182.45,-853.35C1042.34,-853.35 776.91,-853.35 627.18,-853.35"/>
<polygon fill="#63b8ff" stroke="#63b8ff" points="1182.03,-856.85 1192.03,-853.35 1182.03,-849.85 1182.03,-856.85"/>
</a>
</g>
</g>
<!-- Node8 -->
<g id="Node000008" class="node">
<title>Node8</title>
<g id="a_Node000008"><a xlink:href="../../d6/d32/classTplConsoleZ.html#a7f500c5a2e84bd2a8a2c56f317dae699" target="_top" xlink:title=" ">
<polygon fill="white" stroke="#666666" points="622.88,-822.6 409.62,-822.6 409.62,-798.1 622.88,-798.1 622.88,-822.6"/>
<text text-anchor="middle" x="516.25" y="-805.3" font-family="Helvetica,sans-Serif" font-size="14.00">TplConsoleZ\getMouseSection</text>
</a>
</g>
</g>
<!-- Node1&#45;&gt;Node8 -->
<g id="edge10_Node000001_Node000008" class="edge">
<title>Node1&#45;&gt;Node8</title>
<g id="a_edge10_Node000001_Node000008"><a xlink:title=" ">
<path fill="none" stroke="#63b8ff" d="M1182.35,-848.09C1041.01,-840.07 772.3,-824.82 623.34,-816.37"/>
<polygon fill="#63b8ff" stroke="#63b8ff" points="1181.85,-851.57 1192.04,-848.64 1182.25,-844.58 1181.85,-851.57"/>
</a>
</g>
</g>
<!-- Node9 -->
<g id="Node000009" class="node">
<title>Node9</title>
<g id="a_Node000009"><a xlink:href="../../d6/d32/classTplConsoleZ.html#ac764f80bfa38857786068f396c16f80d" target="_top" xlink:title=" ">
<polygon fill="white" stroke="#666666" points="1118.38,-455.6 971.12,-455.6 971.12,-431.1 1118.38,-431.1 1118.38,-455.6"/>
<text text-anchor="middle" x="1044.75" y="-438.3" font-family="Helvetica,sans-Serif" font-size="14.00">TplConsoleZ\getTab</text>
</a>
</g>
</g>
<!-- Node1&#45;&gt;Node9 -->
<g id="edge12_Node000001_Node000009" class="edge">
<title>Node1&#45;&gt;Node9</title>
<g id="a_edge12_Node000001_Node000009"><a xlink:title=" ">
<path fill="none" stroke="#63b8ff" d="M1262.36,-830.75C1220.2,-755.34 1085.16,-513.84 1052.78,-455.92"/>
<polygon fill="#63b8ff" stroke="#63b8ff" points="1259.21,-832.29 1267.15,-839.31 1265.32,-828.87 1259.21,-832.29"/>
</a>
</g>
</g>
<!-- Node11 -->
<g id="Node000011" class="node">
<title>Node11</title>
<g id="a_Node000011"><a xlink:href="../../d6/d32/classTplConsoleZ.html#ad8eca3c98871396ed6eda2c5883be82c" target="_top" xlink:title=" ">
<polygon fill="white" stroke="#666666" points="617.62,-430.6 414.88,-430.6 414.88,-406.1 617.62,-406.1 617.62,-430.6"/>
<text text-anchor="middle" x="516.25" y="-413.3" font-family="Helvetica,sans-Serif" font-size="14.00">TplConsoleZ\getTabsSection</text>
</a>
</g>
</g>
<!-- Node1&#45;&gt;Node11 -->
<g id="edge44_Node000001_Node000011" class="edge">
<title>Node1&#45;&gt;Node11</title>
<g id="a_edge44_Node000001_Node000011"><a xlink:title=" ">
<path fill="none" stroke="#63b8ff" d="M1273.43,-829.27C1264.33,-712.53 1207.21,-204.41 895.75,-40.35 804.23,7.86 748.3,18.18 663,-40.35 533.38,-129.29 519,-351.05 517.43,-405.92"/>
<polygon fill="#63b8ff" stroke="#63b8ff" points="1269.94,-829.48 1274.15,-839.2 1276.92,-828.97 1269.94,-829.48"/>
</a>
</g>
</g>
<!-- Node3 -->
<g id="Node000003" class="node">
<title>Node3</title>
<g id="a_Node000003"><a xlink:href="../../d6/d32/classTplConsoleZ.html#a20311b354e97694e8a5c0ba6f2afe210" target="_top" xlink:title=" ">
<polygon fill="white" stroke="#666666" points="369.5,-885.6 215.5,-885.6 215.5,-861.1 369.5,-861.1 369.5,-885.6"/>
<text text-anchor="middle" x="292.5" y="-868.3" font-family="Helvetica,sans-Serif" font-size="14.00">TplConsoleZ\process</text>
</a>
</g>
</g>
<!-- Node2&#45;&gt;Node3 -->
<g id="edge2_Node000002_Node000003" class="edge">
<title>Node2&#45;&gt;Node3</title>
<g id="a_edge2_Node000002_Node000003"><a xlink:title=" ">
<path fill="none" stroke="#63b8ff" d="M429.84,-955.56C421.5,-952.41 413.26,-949 405.5,-945.35 369.53,-928.41 331.34,-901.73 310.14,-886.05"/>
<polygon fill="#63b8ff" stroke="#63b8ff" points="428.42,-958.77 439.01,-958.89 430.81,-952.19 428.42,-958.77"/>
</a>
</g>
</g>
<!-- Node4 -->
<g id="Node000004" class="node">
<title>Node4</title>
<g id="a_Node000004"><a xlink:href="../../dd/dea/classActionReload.html#a9caf3b20c05475876e5dc72cdcdf6024" target="_top" xlink:title=" ">
<polygon fill="white" stroke="#666666" points="179.5,-885.6 0,-885.6 0,-861.1 179.5,-861.1 179.5,-885.6"/>
<text text-anchor="middle" x="89.75" y="-868.3" font-family="Helvetica,sans-Serif" font-size="14.00">ActionReload\__construct</text>
</a>
</g>
</g>
<!-- Node3&#45;&gt;Node4 -->
<g id="edge3_Node000003_Node000004" class="edge">
<title>Node3&#45;&gt;Node4</title>
<g id="a_edge3_Node000003_Node000004"><a xlink:title=" ">
<path fill="none" stroke="#63b8ff" d="M203.57,-873.35C195.68,-873.35 187.68,-873.35 179.78,-873.35"/>
<polygon fill="#63b8ff" stroke="#63b8ff" points="203.52,-876.85 213.52,-873.35 203.52,-869.85 203.52,-876.85"/>
</a>
</g>
</g>
<!-- Node5&#45;&gt;Node3 -->
<g id="edge5_Node000005_Node000003" class="edge">
<title>Node5&#45;&gt;Node3</title>
<g id="a_edge5_Node000005_Node000003"><a xlink:title=" ">
<path fill="none" stroke="#63b8ff" d="M919.82,-932.02C790.95,-926.58 583.53,-915.17 405.5,-893.35 390.01,-891.45 373.42,-888.82 357.87,-886.09"/>
<polygon fill="#63b8ff" stroke="#63b8ff" points="919.63,-935.51 929.76,-932.43 919.92,-928.52 919.63,-935.51"/>
</a>
</g>
</g>
<!-- Node6&#45;&gt;Node3 -->
<g id="edge7_Node000006_Node000003" class="edge">
<title>Node6&#45;&gt;Node3</title>
<g id="a_edge7_Node000006_Node000003"><a xlink:title=" ">
<path fill="none" stroke="#63b8ff" d="M921.6,-890.09C765.54,-885.93 500.08,-878.86 369.97,-875.39"/>
<polygon fill="#63b8ff" stroke="#63b8ff" points="921.04,-893.58 931.13,-890.35 921.23,-886.58 921.04,-893.58"/>
</a>
</g>
</g>
<!-- Node7&#45;&gt;Node3 -->
<g id="edge9_Node000007_Node000003" class="edge">
<title>Node7&#45;&gt;Node3</title>
<g id="a_edge9_Node000007_Node000003"><a xlink:title=" ">
<path fill="none" stroke="#63b8ff" d="M393.65,-864.32C385.63,-865.04 377.69,-865.76 369.99,-866.45"/>
<polygon fill="#63b8ff" stroke="#63b8ff" points="393.87,-867.81 403.52,-863.43 393.24,-860.84 393.87,-867.81"/>
</a>
</g>
</g>
<!-- Node8&#45;&gt;Node3 -->
<g id="edge11_Node000008_Node000003" class="edge">
<title>Node8&#45;&gt;Node3</title>
<g id="a_edge11_Node000008_Node000003"><a xlink:title=" ">
<path fill="none" stroke="#63b8ff" d="M432.35,-825.56C423.24,-827.64 414.14,-829.92 405.5,-832.35 377.4,-840.26 346.27,-851.89 323.98,-860.75"/>
<polygon fill="#63b8ff" stroke="#63b8ff" points="432.95,-829.01 441.96,-823.43 431.44,-822.17 432.95,-829.01"/>
</a>
</g>
</g>
<!-- Node10 -->
<g id="Node000010" class="node">
<title>Node10</title>
<g id="a_Node000010"><a xlink:href="../../d6/d32/classTplConsoleZ.html#a84090cac5c71af9a7c202ea52ad1cfaf" target="_top" xlink:title=" ">
<polygon fill="white" stroke="#666666" points="892.38,-787.6 666.38,-787.6 666.38,-763.1 892.38,-763.1 892.38,-787.6"/>
<text text-anchor="middle" x="779.38" y="-770.3" font-family="Helvetica,sans-Serif" font-size="14.00">TplConsoleZ\getTabCmdSection</text>
</a>
</g>
</g>
<!-- Node9&#45;&gt;Node10 -->
<g id="edge13_Node000009_Node000010" class="edge">
<title>Node9&#45;&gt;Node10</title>
<g id="a_edge13_Node000009_Node000010"><a xlink:title=" ">
<path fill="none" stroke="#63b8ff" d="M1039.97,-467.06C1029.24,-526.05 992.83,-680.04 895.75,-754.35 891.63,-757.5 887.18,-760.24 882.52,-762.61"/>
<polygon fill="#63b8ff" stroke="#63b8ff" points="1043.38,-467.91 1041.63,-457.46 1036.48,-466.72 1043.38,-467.91"/>
</a>
</g>
</g>
<!-- Node12 -->
<g id="Node000012" class="node">
<title>Node12</title>
<g id="a_Node000012"><a xlink:href="../../d6/d32/classTplConsoleZ.html#a6212457a0ac318e946c54f0a7190b080" target="_top" xlink:title=" ">
<polygon fill="white" stroke="#666666" points="886.75,-744.85 672,-744.85 672,-703.85 886.75,-703.85 886.75,-744.85"/>
<text text-anchor="start" x="680" y="-727.55" font-family="Helvetica,sans-Serif" font-size="14.00">TplConsoleZ\getTabComposer</text>
<text text-anchor="middle" x="779.38" y="-711.05" font-family="Helvetica,sans-Serif" font-size="14.00">Section</text>
</a>
</g>
</g>
<!-- Node9&#45;&gt;Node12 -->
<g id="edge16_Node000009_Node000012" class="edge">
<title>Node9&#45;&gt;Node12</title>
<g id="a_edge16_Node000009_Node000012"><a xlink:title=" ">
<path fill="none" stroke="#63b8ff" d="M1036.82,-466.89C1020.79,-517.11 976.21,-635.06 895.75,-695.35 891.78,-698.32 887.55,-700.99 883.12,-703.39"/>
<polygon fill="#63b8ff" stroke="#63b8ff" points="1040.16,-467.96 1039.76,-457.37 1033.47,-465.89 1040.16,-467.96"/>
</a>
</g>
</g>
<!-- Node13 -->
<g id="Node000013" class="node">
<title>Node13</title>
<g id="a_Node000013"><a xlink:href="../../d6/d32/classTplConsoleZ.html#a1fcf2cfdea1edb56ca2387ce13972f80" target="_top" xlink:title=" ">
<polygon fill="white" stroke="#666666" points="889.38,-685.85 669.38,-685.85 669.38,-644.85 889.38,-644.85 889.38,-685.85"/>
<text text-anchor="start" x="677.38" y="-668.55" font-family="Helvetica,sans-Serif" font-size="14.00">TplConsoleZ\getTabGhostscript</text>
<text text-anchor="middle" x="779.38" y="-652.05" font-family="Helvetica,sans-Serif" font-size="14.00">Section</text>
</a>
</g>
</g>
<!-- Node9&#45;&gt;Node13 -->
<g id="edge18_Node000009_Node000013" class="edge">
<title>Node9&#45;&gt;Node13</title>
<g id="a_edge18_Node000009_Node000013"><a xlink:title=" ">
<path fill="none" stroke="#63b8ff" d="M1032.65,-466.18C1011.73,-506.73 962.5,-591.21 895.75,-635.35 890.66,-638.72 885.21,-641.71 879.55,-644.36"/>
<polygon fill="#63b8ff" stroke="#63b8ff" points="1035.74,-467.83 1037.11,-457.33 1029.49,-464.68 1035.74,-467.83"/>
</a>
</g>
</g>
<!-- Node14 -->
<g id="Node000014" class="node">
<title>Node14</title>
<g id="a_Node000014"><a xlink:href="../../d6/d32/classTplConsoleZ.html#aab86d5f6aca2b3731385cfcc7653efbe" target="_top" xlink:title=" ">
<polygon fill="white" stroke="#666666" points="886,-626.6 672.75,-626.6 672.75,-602.1 886,-602.1 886,-626.6"/>
<text text-anchor="middle" x="779.38" y="-609.3" font-family="Helvetica,sans-Serif" font-size="14.00">TplConsoleZ\getTabGitSection</text>
</a>
</g>
</g>
<!-- Node9&#45;&gt;Node14 -->
<g id="edge20_Node000009_Node000014" class="edge">
<title>Node9&#45;&gt;Node14</title>
<g id="a_edge20_Node000009_Node000014"><a xlink:title=" ">
<path fill="none" stroke="#63b8ff" d="M1028.97,-465.32C1005.17,-498.82 954.96,-562.06 895.75,-593.35 889.63,-596.58 883.1,-599.33 876.38,-601.66"/>
<polygon fill="#63b8ff" stroke="#63b8ff" points="1031.79,-467.4 1034.63,-457.19 1026.05,-463.4 1031.79,-467.4"/>
</a>
</g>
</g>
<!-- Node15 -->
<g id="Node000015" class="node">
<title>Node15</title>
<g id="a_Node000015"><a xlink:href="../../d6/d32/classTplConsoleZ.html#a591cda939a9117bde22adfc9da6f77bd" target="_top" xlink:title=" ">
<polygon fill="white" stroke="#666666" points="878.12,-583.85 680.62,-583.85 680.62,-542.85 878.12,-542.85 878.12,-583.85"/>
<text text-anchor="start" x="688.62" y="-566.55" font-family="Helvetica,sans-Serif" font-size="14.00">TplConsoleZ\getTabMariadb</text>
<text text-anchor="middle" x="779.38" y="-550.05" font-family="Helvetica,sans-Serif" font-size="14.00">Section</text>
</a>
</g>
</g>
<!-- Node9&#45;&gt;Node15 -->
<g id="edge22_Node000009_Node000015" class="edge">
<title>Node9&#45;&gt;Node15</title>
<g id="a_edge22_Node000009_Node000015"><a xlink:title=" ">
<path fill="none" stroke="#63b8ff" d="M1017.59,-462.53C988.96,-482.71 941.08,-514.16 895.75,-533.35 887.94,-536.66 879.66,-539.67 871.28,-542.41"/>
<polygon fill="#63b8ff" stroke="#63b8ff" points="1019.54,-465.44 1025.64,-456.78 1015.47,-459.74 1019.54,-465.44"/>
</a>
</g>
</g>
<!-- Node16 -->
<g id="Node000016" class="node">
<title>Node16</title>
<g id="a_Node000016"><a xlink:href="../../d6/d32/classTplConsoleZ.html#a328a576fc2db271d4bb1293cc66a66df" target="_top" xlink:title=" ">
<polygon fill="white" stroke="#666666" points="895.38,-524.6 663.38,-524.6 663.38,-500.1 895.38,-500.1 895.38,-524.6"/>
<text text-anchor="middle" x="779.38" y="-507.3" font-family="Helvetica,sans-Serif" font-size="14.00">TplConsoleZ\getTabMysqlSection</text>
</a>
</g>
</g>
<!-- Node9&#45;&gt;Node16 -->
<g id="edge24_Node000009_Node000016" class="edge">
<title>Node9&#45;&gt;Node16</title>
<g id="a_edge24_Node000009_Node000016"><a xlink:title=" ">
<path fill="none" stroke="#63b8ff" d="M997.29,-459.67C968.33,-469.45 930.16,-481.64 895.75,-490.35 882.41,-493.73 868.08,-496.85 854.21,-499.63"/>
<polygon fill="#63b8ff" stroke="#63b8ff" points="998.14,-463.08 1006.47,-456.54 995.88,-456.45 998.14,-463.08"/>
</a>
</g>
</g>
<!-- Node17 -->
<g id="Node000017" class="node">
<title>Node17</title>
<g id="a_Node000017"><a xlink:href="../../d6/d32/classTplConsoleZ.html#a7c26a9f057f805d1666a774703e3152c" target="_top" xlink:title=" ">
<polygon fill="white" stroke="#666666" points="895.75,-481.6 663,-481.6 663,-457.1 895.75,-457.1 895.75,-481.6"/>
<text text-anchor="middle" x="779.38" y="-464.3" font-family="Helvetica,sans-Serif" font-size="14.00">TplConsoleZ\getTabNgrokSection</text>
</a>
</g>
</g>
<!-- Node9&#45;&gt;Node17 -->
<g id="edge26_Node000009_Node000017" class="edge">
<title>Node9&#45;&gt;Node17</title>
<g id="a_edge26_Node000009_Node000017"><a xlink:title=" ">
<path fill="none" stroke="#63b8ff" d="M959.4,-451.68C939.23,-453.67 917.35,-455.83 896.04,-457.93"/>
<polygon fill="#63b8ff" stroke="#63b8ff" points="959.62,-455.17 969.23,-450.71 958.93,-448.2 959.62,-455.17"/>
</a>
</g>
</g>
<!-- Node18 -->
<g id="Node000018" class="node">
<title>Node18</title>
<g id="a_Node000018"><a xlink:href="../../d6/d32/classTplConsoleZ.html#a4e7352ed4289388665f0bea90382982e" target="_top" xlink:title=" ">
<polygon fill="white" stroke="#666666" points="875.5,-438.85 683.25,-438.85 683.25,-397.85 875.5,-397.85 875.5,-438.85"/>
<text text-anchor="start" x="691.25" y="-421.55" font-family="Helvetica,sans-Serif" font-size="14.00">TplConsoleZ\getTabNodejs</text>
<text text-anchor="middle" x="779.38" y="-405.05" font-family="Helvetica,sans-Serif" font-size="14.00">Section</text>
</a>
</g>
</g>
<!-- Node9&#45;&gt;Node18 -->
<g id="edge28_Node000009_Node000018" class="edge">
<title>Node9&#45;&gt;Node18</title>
<g id="a_edge28_Node000009_Node000018"><a xlink:title=" ">
<path fill="none" stroke="#63b8ff" d="M959.5,-435.35C932.83,-432.82 903.16,-430 875.76,-427.4"/>
<polygon fill="#63b8ff" stroke="#63b8ff" points="958.94,-438.81 969.23,-436.28 959.6,-431.85 958.94,-438.81"/>
</a>
</g>
</g>
<!-- Node19 -->
<g id="Node000019" class="node">
<title>Node19</title>
<g id="a_Node000019"><a xlink:href="../../d6/d32/classTplConsoleZ.html#a339b3438af34d6c72fda11af19b8075a" target="_top" xlink:title=" ">
<polygon fill="white" stroke="#666666" points="892,-379.6 666.75,-379.6 666.75,-355.1 892,-355.1 892,-379.6"/>
<text text-anchor="middle" x="779.38" y="-362.3" font-family="Helvetica,sans-Serif" font-size="14.00">TplConsoleZ\getTabPearSection</text>
</a>
</g>
</g>
<!-- Node9&#45;&gt;Node19 -->
<g id="edge30_Node000009_Node000019" class="edge">
<title>Node9&#45;&gt;Node19</title>
<g id="a_edge30_Node000009_Node000019"><a xlink:title=" ">
<path fill="none" stroke="#63b8ff" d="M1002.65,-426.32C973.27,-414.65 932.57,-399.51 895.75,-389.35 883.17,-385.88 869.67,-382.77 856.49,-380.06"/>
<polygon fill="#63b8ff" stroke="#63b8ff" points="1001.33,-429.56 1011.92,-430.04 1003.94,-423.07 1001.33,-429.56"/>
</a>
</g>
</g>
<!-- Node20 -->
<g id="Node000020" class="node">
<title>Node20</title>
<g id="a_Node000020"><a xlink:href="../../d6/d32/classTplConsoleZ.html#a9c3611de49d72c9e430a92628bac292b" target="_top" xlink:title=" ">
<polygon fill="white" stroke="#666666" points="889.75,-336.6 669,-336.6 669,-312.1 889.75,-312.1 889.75,-336.6"/>
<text text-anchor="middle" x="779.38" y="-319.3" font-family="Helvetica,sans-Serif" font-size="14.00">TplConsoleZ\getTabPerlSection</text>
</a>
</g>
</g>
<!-- Node9&#45;&gt;Node20 -->
<g id="edge32_Node000009_Node000020" class="edge">
<title>Node9&#45;&gt;Node20</title>
<g id="a_edge32_Node000009_Node000020"><a xlink:title=" ">
<path fill="none" stroke="#63b8ff" d="M1020.27,-423.71C992.39,-401.43 943.6,-365.7 895.75,-346.35 886.68,-342.68 876.95,-339.61 867.13,-337.05"/>
<polygon fill="#63b8ff" stroke="#63b8ff" points="1017.75,-426.17 1027.72,-429.75 1022.16,-420.73 1017.75,-426.17"/>
</a>
</g>
</g>
<!-- Node21 -->
<g id="Node000021" class="node">
<title>Node21</title>
<g id="a_Node000021"><a xlink:href="../../d6/d32/classTplConsoleZ.html#ab93eaf903e70813c819fe503bbae2c54" target="_top" xlink:title=" ">
<polygon fill="white" stroke="#666666" points="887.5,-293.85 671.25,-293.85 671.25,-252.85 887.5,-252.85 887.5,-293.85"/>
<text text-anchor="start" x="679.25" y="-276.55" font-family="Helvetica,sans-Serif" font-size="14.00">TplConsoleZ\getTabPostgresql</text>
<text text-anchor="middle" x="779.38" y="-260.05" font-family="Helvetica,sans-Serif" font-size="14.00">Section</text>
</a>
</g>
</g>
<!-- Node9&#45;&gt;Node21 -->
<g id="edge34_Node000009_Node000021" class="edge">
<title>Node9&#45;&gt;Node21</title>
<g id="a_edge34_Node000009_Node000021"><a xlink:title=" ">
<path fill="none" stroke="#63b8ff" d="M1027.23,-421.99C1002.18,-391.1 951.54,-334.27 895.75,-303.35 889.69,-299.99 883.23,-296.99 876.6,-294.33"/>
<polygon fill="#63b8ff" stroke="#63b8ff" points="1024.25,-423.87 1033.22,-429.51 1029.72,-419.51 1024.25,-423.87"/>
</a>
</g>
</g>
<!-- Node22 -->
<g id="Node000022" class="node">
<title>Node22</title>
<g id="a_Node000022"><a xlink:href="../../d6/d32/classTplConsoleZ.html#abe51ca1a21f4fee32040c4b113cc9abf" target="_top" xlink:title=" ">
<polygon fill="white" stroke="#666666" points="889,-234.85 669.75,-234.85 669.75,-193.85 889,-193.85 889,-234.85"/>
<text text-anchor="start" x="677.75" y="-217.55" font-family="Helvetica,sans-Serif" font-size="14.00">TplConsoleZ\getTabPowerShell</text>
<text text-anchor="middle" x="779.38" y="-201.05" font-family="Helvetica,sans-Serif" font-size="14.00">Section</text>
</a>
</g>
</g>
<!-- Node9&#45;&gt;Node22 -->
<g id="edge36_Node000009_Node000022" class="edge">
<title>Node9&#45;&gt;Node22</title>
<g id="a_edge36_Node000009_Node000022"><a xlink:title=" ">
<path fill="none" stroke="#63b8ff" d="M1033.3,-420.56C1013,-378.87 964.11,-290.4 895.75,-244.35 890.69,-240.94 885.26,-237.91 879.62,-235.23"/>
<polygon fill="#63b8ff" stroke="#63b8ff" points="1030.06,-421.88 1037.51,-429.41 1036.38,-418.87 1030.06,-421.88"/>
</a>
</g>
</g>
<!-- Node23 -->
<g id="Node000023" class="node">
<title>Node23</title>
<g id="a_Node000023"><a xlink:href="../../d6/d32/classTplConsoleZ.html#a64683b78dc2cf721e3fc7de62a31db14" target="_top" xlink:title=" ">
<polygon fill="white" stroke="#666666" points="874.75,-175.85 684,-175.85 684,-134.85 874.75,-134.85 874.75,-175.85"/>
<text text-anchor="start" x="692" y="-158.55" font-family="Helvetica,sans-Serif" font-size="14.00">TplConsoleZ\getTabPython</text>
<text text-anchor="middle" x="779.38" y="-142.05" font-family="Helvetica,sans-Serif" font-size="14.00">Section</text>
</a>
</g>
</g>
<!-- Node9&#45;&gt;Node23 -->
<g id="edge38_Node000009_Node000023" class="edge">
<title>Node9&#45;&gt;Node23</title>
<g id="a_edge38_Node000009_Node000023"><a xlink:title=" ">
<path fill="none" stroke="#63b8ff" d="M1037.16,-419.98C1021.57,-369.07 977.44,-247.73 895.75,-185.35 889.42,-180.51 882.38,-176.45 874.99,-173.04"/>
<polygon fill="#63b8ff" stroke="#63b8ff" points="1033.74,-420.76 1039.94,-429.35 1040.45,-418.77 1033.74,-420.76"/>
</a>
</g>
</g>
<!-- Node24 -->
<g id="Node000024" class="node">
<title>Node24</title>
<g id="a_Node000024"><a xlink:href="../../d6/d32/classTplConsoleZ.html#aca1317238ff106fc9494c5af00b331d6" target="_top" xlink:title=" ">
<polygon fill="white" stroke="#666666" points="893.5,-116.6 665.25,-116.6 665.25,-92.1 893.5,-92.1 893.5,-116.6"/>
<text text-anchor="middle" x="779.38" y="-99.3" font-family="Helvetica,sans-Serif" font-size="14.00">TplConsoleZ\getTabRubySection</text>
</a>
</g>
</g>
<!-- Node9&#45;&gt;Node24 -->
<g id="edge40_Node000009_Node000024" class="edge">
<title>Node9&#45;&gt;Node24</title>
<g id="a_edge40_Node000009_Node000024"><a xlink:title=" ">
<path fill="none" stroke="#63b8ff" d="M1040.16,-419.66C1029.78,-359.97 993.98,-202.78 895.75,-126.35 891.08,-122.72 885.99,-119.63 880.63,-117"/>
<polygon fill="#63b8ff" stroke="#63b8ff" points="1036.68,-420.05 1041.75,-429.35 1043.58,-418.92 1036.68,-420.05"/>
</a>
</g>
</g>
<!-- Node25 -->
<g id="Node000025" class="node">
<title>Node25</title>
<g id="a_Node000025"><a xlink:href="../../d6/d32/classTplConsoleZ.html#ae2401dbb183a5e37bdd59cc39a528d21" target="_top" xlink:title=" ">
<polygon fill="white" stroke="#666666" points="891.25,-73.6 667.5,-73.6 667.5,-49.1 891.25,-49.1 891.25,-73.6"/>
<text text-anchor="middle" x="779.38" y="-56.3" font-family="Helvetica,sans-Serif" font-size="14.00">TplConsoleZ\getTabYarnSection</text>
</a>
</g>
</g>
<!-- Node9&#45;&gt;Node25 -->
<g id="edge42_Node000009_Node000025" class="edge">
<title>Node9&#45;&gt;Node25</title>
<g id="a_edge42_Node000009_Node000025"><a xlink:title=" ">
<path fill="none" stroke="#63b8ff" d="M1041.59,-419.58C1034.31,-354.49 1004.68,-172.27 895.75,-83.35 891.33,-79.74 886.49,-76.65 881.39,-74.03"/>
<polygon fill="#63b8ff" stroke="#63b8ff" points="1038.06,-419.56 1042.57,-429.15 1045.03,-418.84 1038.06,-419.56"/>
</a>
</g>
</g>
<!-- Node10&#45;&gt;Node11 -->
<g id="edge14_Node000010_Node000011" class="edge">
<title>Node10&#45;&gt;Node11</title>
<g id="a_edge14_Node000010_Node000011"><a xlink:title=" ">
<path fill="none" stroke="#63b8ff" d="M666.05,-756.64C665.01,-755.9 664,-755.14 663,-754.35 553.17,-667.2 524.41,-480.9 518.55,-430.91"/>
<polygon fill="#63b8ff" stroke="#63b8ff" points="664.18,-759.6 674.53,-761.85 667.84,-753.64 664.18,-759.6"/>
</a>
</g>
</g>
<!-- Node11&#45;&gt;Node3 -->
<g id="edge15_Node000011_Node000003" class="edge">
<title>Node11&#45;&gt;Node3</title>
<g id="a_edge15_Node000011_Node000003"><a xlink:title=" ">
<path fill="none" stroke="#63b8ff" d="M504.12,-441.19C464.3,-522.9 329.68,-799.1 299.53,-860.98"/>
<polygon fill="#63b8ff" stroke="#63b8ff" points="507.19,-442.88 508.42,-432.35 500.9,-439.81 507.19,-442.88"/>
</a>
</g>
</g>
<!-- Node12&#45;&gt;Node11 -->
<g id="edge17_Node000012_Node000011" class="edge">
<title>Node12&#45;&gt;Node11</title>
<g id="a_edge17_Node000012_Node000011"><a xlink:title=" ">
<path fill="none" stroke="#63b8ff" d="M665.54,-697.27C664.68,-696.65 663.83,-696.01 663,-695.35 570.52,-622.63 530.22,-474.79 519.98,-430.9"/>
<polygon fill="#63b8ff" stroke="#63b8ff" points="663.6,-700.19 673.91,-702.64 667.38,-694.3 663.6,-700.19"/>
</a>
</g>
</g>
<!-- Node13&#45;&gt;Node11 -->
<g id="edge19_Node000013_Node000011" class="edge">
<title>Node13&#45;&gt;Node11</title>
<g id="a_edge19_Node000013_Node000011"><a xlink:title=" ">
<path fill="none" stroke="#63b8ff" d="M668.56,-639.03C666.66,-637.85 664.8,-636.63 663,-635.35 584.89,-579.95 536.53,-468.46 521.94,-430.97"/>
<polygon fill="#63b8ff" stroke="#63b8ff" points="666.6,-641.95 677.05,-643.73 670,-635.82 666.6,-641.95"/>
</a>
</g>
</g>
<!-- Node14&#45;&gt;Node11 -->
<g id="edge21_Node000014_Node000011" class="edge">
<title>Node14&#45;&gt;Node11</title>
<g id="a_edge21_Node000014_Node000011"><a xlink:title=" ">
<path fill="none" stroke="#63b8ff" d="M670.2,-597.19C667.74,-595.99 665.34,-594.71 663,-593.35 592.65,-552.3 541.14,-464 523.71,-431.07"/>
<polygon fill="#63b8ff" stroke="#63b8ff" points="668.63,-600.32 679.2,-601.08 671.41,-593.9 668.63,-600.32"/>
</a>
</g>
</g>
<!-- Node15&#45;&gt;Node11 -->
<g id="edge23_Node000015_Node000011" class="edge">
<title>Node15&#45;&gt;Node11</title>
<g id="a_edge23_Node000015_Node000011"><a xlink:title=" ">
<path fill="none" stroke="#63b8ff" d="M673.76,-538.28C670.09,-536.72 666.49,-535.08 663,-533.35 607.29,-505.67 552.74,-454.36 529.26,-430.79"/>
<polygon fill="#63b8ff" stroke="#63b8ff" points="672.29,-541.46 682.88,-541.86 674.86,-534.94 672.29,-541.46"/>
</a>
</g>
</g>
<!-- Node16&#45;&gt;Node11 -->
<g id="edge25_Node000016_Node000011" class="edge">
<title>Node16&#45;&gt;Node11</title>
<g id="a_edge25_Node000016_Node000011"><a xlink:title=" ">
<path fill="none" stroke="#63b8ff" d="M685.68,-496.98C677.94,-495 670.29,-492.8 663,-490.35 616.44,-474.73 565.84,-447.08 538.2,-430.97"/>
<polygon fill="#63b8ff" stroke="#63b8ff" points="684.65,-500.33 695.19,-499.27 686.29,-493.52 684.65,-500.33"/>
</a>
</g>
</g>
<!-- Node17&#45;&gt;Node11 -->
<g id="edge27_Node000017_Node000011" class="edge">
<title>Node17&#45;&gt;Node11</title>
<g id="a_edge27_Node000017_Node000011"><a xlink:title=" ">
<path fill="none" stroke="#63b8ff" d="M695.93,-454.58C684.85,-452.53 673.64,-450.41 663,-448.35 634.85,-442.89 603.71,-436.53 577.46,-431.07"/>
<polygon fill="#63b8ff" stroke="#63b8ff" points="694.98,-457.96 705.45,-456.34 696.25,-451.08 694.98,-457.96"/>
</a>
</g>
</g>
<!-- Node18&#45;&gt;Node11 -->
<g id="edge29_Node000018_Node000011" class="edge">
<title>Node18&#45;&gt;Node11</title>
<g id="a_edge29_Node000018_Node000011"><a xlink:title=" ">
<path fill="none" stroke="#63b8ff" d="M671.49,-418.35C653.84,-418.35 635.58,-418.35 618.08,-418.35"/>
<polygon fill="#63b8ff" stroke="#63b8ff" points="671.48,-421.85 681.48,-418.35 671.48,-414.85 671.48,-421.85"/>
</a>
</g>
</g>
<!-- Node19&#45;&gt;Node11 -->
<g id="edge31_Node000019_Node000011" class="edge">
<title>Node19&#45;&gt;Node11</title>
<g id="a_edge31_Node000019_Node000011"><a xlink:title=" ">
<path fill="none" stroke="#63b8ff" d="M699.99,-382.21C687.61,-384.58 674.95,-387.02 663,-389.35 636.03,-394.6 606.28,-400.5 580.72,-405.61"/>
<polygon fill="#63b8ff" stroke="#63b8ff" points="700.6,-385.66 709.76,-380.34 699.28,-378.78 700.6,-385.66"/>
</a>
</g>
</g>
<!-- Node20&#45;&gt;Node11 -->
<g id="edge33_Node000020_Node000011" class="edge">
<title>Node20&#45;&gt;Node11</title>
<g id="a_edge33_Node000020_Node000011"><a xlink:title=" ">
<path fill="none" stroke="#63b8ff" d="M685.68,-339.72C677.94,-341.7 670.29,-343.9 663,-346.35 616.44,-361.97 565.84,-389.62 538.2,-405.73"/>
<polygon fill="#63b8ff" stroke="#63b8ff" points="686.29,-343.18 695.19,-337.43 684.65,-336.37 686.29,-343.18"/>
</a>
</g>
</g>
<!-- Node21&#45;&gt;Node11 -->
<g id="edge35_Node000021_Node000011" class="edge">
<title>Node21&#45;&gt;Node11</title>
<g id="a_edge35_Node000021_Node000011"><a xlink:title=" ">
<path fill="none" stroke="#63b8ff" d="M673.76,-298.42C670.09,-299.97 666.49,-301.62 663,-303.35 607.29,-331.03 552.74,-382.34 529.26,-405.91"/>
<polygon fill="#63b8ff" stroke="#63b8ff" points="674.86,-301.75 682.88,-294.83 672.29,-295.24 674.86,-301.75"/>
</a>
</g>
</g>
<!-- Node22&#45;&gt;Node11 -->
<g id="edge37_Node000022_Node000011" class="edge">
<title>Node22&#45;&gt;Node11</title>
<g id="a_edge37_Node000022_Node000011"><a xlink:title=" ">
<path fill="none" stroke="#63b8ff" d="M669.67,-240.42C667.4,-241.67 665.17,-242.98 663,-244.35 594.39,-287.74 541.82,-373.97 523.91,-405.99"/>
<polygon fill="#63b8ff" stroke="#63b8ff" points="671.19,-243.58 678.59,-235.99 668.07,-237.31 671.19,-243.58"/>
</a>
</g>
</g>
<!-- Node23&#45;&gt;Node11 -->
<g id="edge39_Node000023_Node000011" class="edge">
<title>Node23&#45;&gt;Node11</title>
<g id="a_edge39_Node000023_Node000011"><a xlink:title=" ">
<path fill="none" stroke="#63b8ff" d="M673.61,-178.53C669.92,-180.61 666.37,-182.88 663,-185.35 581.26,-245.34 534.79,-366.28 521.36,-405.65"/>
<polygon fill="#63b8ff" stroke="#63b8ff" points="674.97,-181.76 682.31,-174.12 671.81,-175.52 674.97,-181.76"/>
</a>
</g>
</g>
<!-- Node24&#45;&gt;Node11 -->
<g id="edge41_Node000024_Node000011" class="edge">
<title>Node24&#45;&gt;Node11</title>
<g id="a_edge41_Node000024_Node000011"><a xlink:title=" ">
<path fill="none" stroke="#63b8ff" d="M668.57,-122.49C666.66,-123.7 664.8,-124.99 663,-126.35 564.53,-200.91 528.08,-360.23 519.42,-405.89"/>
<polygon fill="#63b8ff" stroke="#63b8ff" points="670.11,-125.63 677.18,-117.74 666.73,-119.5 670.11,-125.63"/>
</a>
</g>
</g>
<!-- Node25&#45;&gt;Node11 -->
<g id="edge43_Node000025_Node000011" class="edge">
<title>Node25&#45;&gt;Node11</title>
<g id="a_edge43_Node000025_Node000011"><a xlink:title=" ">
<path fill="none" stroke="#63b8ff" d="M667.82,-79.79C666.17,-80.92 664.56,-82.1 663,-83.35 553.76,-170.68 524.57,-356.1 518.58,-405.85"/>
<polygon fill="#63b8ff" stroke="#63b8ff" points="669.56,-82.83 676.42,-74.76 666.02,-76.79 669.56,-82.83"/>
</a>
</g>
</g>
</g>
</svg>
