<?xml version="1.0" encoding="UTF-8" standalone="no"?>
<!--
  - Copyright (c) 2021-2024 Bearsampp
  - License:  GNU General Public License version 3 or later; see LICENSE.txt
  - Author: Bear
  - Website: https://bearsampp.com
  - Github: https://github.com/Bearsampp
  -->

<!DOCTYPE svg PUBLIC "-//W3C//DTD SVG 1.1//EN"
 "http://www.w3.org/Graphics/SVG/1.1/DTD/svg11.dtd">
<!-- Generated by graphviz version 11.0.0 (20240428.1522)
 -->
<!-- Title: Graph Legend Pages: 1 -->
<svg width="648pt" height="187pt"
 viewBox="0.00 0.00 647.88 186.50" xmlns="http://www.w3.org/2000/svg" xmlns:xlink="http://www.w3.org/1999/xlink">
<g id="graph0" class="graph" transform="scale(1 1) rotate(0) translate(4 182.5)">
<title>Graph Legend</title>
<!-- Node9 -->
<g id="Node000009" class="node">
<title>Node9</title>
<g id="a_Node000009"><a xlink:title=" ">
<polygon fill="#999999" stroke="#666666" points="377.75,-24.5 306.25,-24.5 306.25,0 377.75,0 377.75,-24.5"/>
<text text-anchor="middle" x="342" y="-7.2" font-family="Helvetica,sans-Serif" font-size="14.00">Inherited</text>
</a>
</g>
</g>
<!-- Node10 -->
<g id="Node000010" class="node">
<title>Node10</title>
<g id="a_Node000010"><a xlink:title=" ">
<polygon fill="white" stroke="#666666" points="88,-101.5 0,-101.5 0,-77 88,-77 88,-101.5"/>
<text text-anchor="middle" x="44" y="-84.2" font-family="Helvetica,sans-Serif" font-size="14.00">PublicBase</text>
</a>
</g>
</g>
<!-- Node10&#45;&gt;Node9 -->
<g id="edge1" class="edge">
<title>Node10&#45;&gt;Node9</title>
<g id="a_edge1"><a xlink:title=" ">
<path fill="none" stroke="#63b8ff" d="M99.13,-74.37C159.46,-59.19 254.42,-35.29 305.9,-22.33"/>
<polygon fill="#63b8ff" stroke="#63b8ff" points="98.6,-70.9 89.76,-76.73 100.31,-77.69 98.6,-70.9"/>
</a>
</g>
</g>
<!-- Node11 -->
<g id="Node000011" class="node">
<title>Node11</title>
<g id="a_Node000011"><a xlink:title=" ">
<polygon fill="#fff0f0" stroke="red" points="83.88,-178.5 4.12,-178.5 4.12,-154 83.88,-154 83.88,-178.5"/>
<text text-anchor="middle" x="44" y="-161.2" font-family="Helvetica,sans-Serif" font-size="14.00">Truncated</text>
</a>
</g>
</g>
<!-- Node11&#45;&gt;Node10 -->
<g id="edge2" class="edge">
<title>Node11&#45;&gt;Node10</title>
<g id="a_edge2"><a xlink:title=" ">
<path fill="none" stroke="#63b8ff" d="M44,-142.24C44,-128.78 44,-112.38 44,-101.64"/>
<polygon fill="#63b8ff" stroke="#63b8ff" points="40.5,-142.02 44,-152.02 47.5,-142.02 40.5,-142.02"/>
</a>
</g>
</g>
<!-- Node13 -->
<g id="node4" class="node">
<title>Node13</title>
<g id="a_node4"><a xlink:title=" ">
<polygon fill="white" stroke="#666666" points="217.62,-101.5 106.38,-101.5 106.38,-77 217.62,-77 217.62,-101.5"/>
<text text-anchor="middle" x="162" y="-84.2" font-family="Helvetica,sans-Serif" font-size="14.00">ProtectedBase</text>
</a>
</g>
</g>
<!-- Node13&#45;&gt;Node9 -->
<g id="edge3" class="edge">
<title>Node13&#45;&gt;Node9</title>
<g id="a_edge3"><a xlink:title=" ">
<path fill="none" stroke="darkgreen" d="M200.64,-72.15C234.74,-57.94 283.64,-37.57 314.07,-24.89"/>
<polygon fill="darkgreen" stroke="darkgreen" points="199.41,-68.87 191.52,-75.95 202.1,-75.33 199.41,-68.87"/>
</a>
</g>
</g>
<!-- Node14 -->
<g id="node5" class="node">
<title>Node14</title>
<g id="a_node5"><a xlink:title=" ">
<polygon fill="white" stroke="#666666" points="328.25,-101.5 235.75,-101.5 235.75,-77 328.25,-77 328.25,-101.5"/>
<text text-anchor="middle" x="282" y="-84.2" font-family="Helvetica,sans-Serif" font-size="14.00">PrivateBase</text>
</a>
</g>
</g>
<!-- Node14&#45;&gt;Node9 -->
<g id="edge4" class="edge">
<title>Node14&#45;&gt;Node9</title>
<g id="a_edge4"><a xlink:title=" ">
<path fill="none" stroke="#8b1a1a" d="M298.45,-67.68C309.55,-53.81 323.77,-36.04 332.89,-24.64"/>
<polygon fill="#8b1a1a" stroke="#8b1a1a" points="295.83,-65.35 292.32,-75.35 301.3,-69.73 295.83,-65.35"/>
</a>
</g>
</g>
<!-- Node15 -->
<g id="Node000015" class="node">
<title>Node15</title>
<g id="a_Node000015"><a xlink:title=" ">
<polygon fill="#e0e0e0" stroke="#999999" points="459.38,-101.5 346.62,-101.5 346.62,-77 459.38,-77 459.38,-101.5"/>
<text text-anchor="middle" x="403" y="-84.2" font-family="Helvetica,sans-Serif" font-size="14.00">Undocumented</text>
</a>
</g>
</g>
<!-- Node15&#45;&gt;Node9 -->
<g id="edge5" class="edge">
<title>Node15&#45;&gt;Node9</title>
<g id="a_edge5"><a xlink:title=" ">
<path fill="none" stroke="#63b8ff" d="M386.27,-67.68C374.99,-53.81 360.53,-36.04 351.26,-24.64"/>
<polygon fill="#63b8ff" stroke="#63b8ff" points="383.49,-69.81 392.51,-75.36 388.92,-65.39 383.49,-69.81"/>
</a>
</g>
</g>
<!-- Node16 -->
<g id="node7" class="node">
<title>Node16</title>
<g id="a_node7"><a xlink:title=" ">
<polygon fill="white" stroke="#666666" points="572.38,-101.5 477.62,-101.5 477.62,-77 572.38,-77 572.38,-101.5"/>
<text text-anchor="middle" x="525" y="-84.2" font-family="Helvetica,sans-Serif" font-size="14.00">Templ&lt; int &gt;</text>
</a>
</g>
</g>
<!-- Node16&#45;&gt;Node9 -->
<g id="edge6" class="edge">
<title>Node16&#45;&gt;Node9</title>
<g id="a_edge6"><a xlink:title=" ">
<path fill="none" stroke="#63b8ff" d="M486.17,-72.34C451.48,-58.12 401.47,-37.62 370.39,-24.89"/>
<polygon fill="#63b8ff" stroke="#63b8ff" points="484.43,-75.4 495.01,-75.96 487.08,-68.93 484.43,-75.4"/>
</a>
</g>
</g>
<!-- Node17 -->
<g id="node8" class="node">
<title>Node17</title>
<g id="a_node8"><a xlink:title=" ">
<polygon fill="white" stroke="#666666" points="569.75,-178.5 480.25,-178.5 480.25,-154 569.75,-154 569.75,-178.5"/>
<text text-anchor="middle" x="525" y="-161.2" font-family="Helvetica,sans-Serif" font-size="14.00">Templ&lt; T &gt;</text>
</a>
</g>
</g>
<!-- Node17&#45;&gt;Node16 -->
<g id="edge7" class="edge">
<title>Node17&#45;&gt;Node16</title>
<g id="a_edge7"><a xlink:title=" ">
<path fill="none" stroke="orange" stroke-dasharray="5,2" d="M525,-142.24C525,-128.78 525,-112.38 525,-101.64"/>
<polygon fill="orange" stroke="orange" points="521.5,-142.02 525,-152.02 528.5,-142.02 521.5,-142.02"/>
</a>
</g>
<text text-anchor="middle" x="544.12" y="-122.7" font-family="Helvetica,sans-Serif" font-size="14.00" fill="grey">&lt; int &gt;</text>
</g>
<!-- Node18 -->
<g id="node9" class="node">
<title>Node18</title>
<g id="a_node9"><a xlink:title=" ">
<polygon fill="white" stroke="#666666" points="639.88,-101.5 590.12,-101.5 590.12,-77 639.88,-77 639.88,-101.5"/>
<text text-anchor="middle" x="615" y="-84.2" font-family="Helvetica,sans-Serif" font-size="14.00">Used</text>
</a>
</g>
</g>
<!-- Node18&#45;&gt;Node9 -->
<g id="edge8" class="edge">
<title>Node18&#45;&gt;Node9</title>
<g id="a_edge8"><a xlink:title=" ">
<path fill="none" stroke="#9a32cd" stroke-dasharray="5,2" d="M578.97,-76.49C502.15,-53.6 423.13,-33.35 378.24,-22.15"/>
<polygon fill="#9a32cd" stroke="#9a32cd" points="577.76,-79.78 588.35,-79.31 579.78,-73.08 577.76,-79.78"/>
</a>
</g>
<text text-anchor="middle" x="558.88" y="-45.7" font-family="Helvetica,sans-Serif" font-size="14.00" fill="grey">m_usedClass</text>
</g>
</g>
</svg>
