<?xml version="1.0" encoding="UTF-8" standalone="no"?>
<!--
  - Copyright (c) 2021-2024 Bearsampp
  - License:  GNU General Public License version 3 or later; see LICENSE.txt
  - Author: Bear
  - Website: https://bearsampp.com
  - Github: https://github.com/Bearsampp
  -->

<!DOCTYPE svg PUBLIC "-//W3C//DTD SVG 1.1//EN"
 "http://www.w3.org/Graphics/SVG/1.1/DTD/svg11.dtd">
<!-- Generated by graphviz version 11.0.0 (20240428.1522)
 -->
<!-- Title: Module\getCurrentPath Pages: 1 -->
<!--zoomable 332 -->

<svg id="main" version="1.1" xmlns="http://www.w3.org/2000/svg" xmlns:xlink="http://www.w3.org/1999/xlink" xml:space="preserve" onload="init(evt)">
<style type="text/css"><![CDATA[
.node, .edge {opacity: 0.7;}
.node.selected, .edge.selected {opacity: 1;}
.edge:hover path { stroke: red; }
.edge:hover polygon { stroke: red; fill: red; }
]]></style>

<defs>
  <circle id="rim" cx="0" cy="0" r="7"/>
  <circle id="rim2" cx="0" cy="0" r="3.5"/>
  <g id="zoomPlus">
    <use xlink:href="#rim" fill="#404040"><set attributeName="fill" to="#808080" begin="zoomplus.mouseover" end="zoomplus.mouseout"/></use>
    <path d="M-4,0h8M0,-4v8" fill="none" stroke="white" stroke-width="1.5" pointer-events="none"/>
  </g>
  <g id="zoomMin">
    <use xlink:href="#rim" fill="#404040"><set attributeName="fill" to="#808080" begin="zoomminus.mouseover" end="zoomminus.mouseout"/></use>
    <path d="M-4,0h8" fill="none" stroke="white" stroke-width="1.5" pointer-events="none"/>
  </g>
  <g id="arrowUp" transform="translate(30 24)">
    <use xlink:href="#rim"/>
    <path pointer-events="none" fill="none" stroke="white" stroke-width="1.5" d="M0,-3.0v7 M-2.5,-0.5L0,-3.0L2.5,-0.5"/>
  </g>
  <g id="arrowRight" transform="rotate(90) translate(36 -43)">
    <use xlink:href="#rim"/>
    <path pointer-events="none" fill="none" stroke="white" stroke-width="1.5" d="M0,-3.0v7 M-2.5,-0.5L0,-3.0L2.5,-0.5"/>
  </g>
  <g id="arrowDown" transform="rotate(180) translate(-30 -48)">
    <use xlink:href="#rim"/>
    <path pointer-events="none" fill="none" stroke="white" stroke-width="1.5" d="M0,-3.0v7 M-2.5,-0.5L0,-3.0L2.5,-0.5"/>
  </g>
  <g id="arrowLeft" transform="rotate(270) translate(-36 17)">
    <use xlink:href="#rim"/>
    <path pointer-events="none" fill="none" stroke="white" stroke-width="1.5" d="M0,-3.0v7 M-2.5,-0.5L0,-3.0L2.5,-0.5"/>
  </g>
  <g id="resetDef">
    <use xlink:href="#rim2" fill="#404040"><set attributeName="fill" to="#808080" begin="reset.mouseover" end="reset.mouseout"/></use>
  </g>
</defs>
<script type="application/ecmascript">
var viewWidth = 858;
var viewHeight = 332;
var sectionId = 'dynsection-2';
</script>
<script type="application/ecmascript" xlink:href="../../svg.min.js"/>
<svg id="graph" class="graph">
<g id="viewport">
<title>Module\getCurrentPath</title>
<!-- Node1 -->
<g id="Node000001" class="node">
<title>Node1</title>
<g id="a_Node000001"><a xlink:title=" ">
<polygon fill="#999999" stroke="#666666" points="850,-157.16 688.5,-157.16 688.5,-132.66 850,-132.66 850,-157.16"/>
<text text-anchor="middle" x="769.25" y="-139.86" font-family="Helvetica,sans-Serif" font-size="14.00">Module\getCurrentPath</text>
</a>
</g>
</g>
<!-- Node2 -->
<g id="Node000002" class="node">
<title>Node2</title>
<g id="a_Node000002"><a xlink:href="../../dc/db3/classBinPhp.html#a1f7128f917c7f18ffa8fa8a68d70b166" target="_top" xlink:title=" ">
<polygon fill="white" stroke="#666666" points="648.38,-265.16 467.38,-265.16 467.38,-240.66 648.38,-240.66 648.38,-265.16"/>
<text text-anchor="middle" x="557.88" y="-247.86" font-family="Helvetica,sans-Serif" font-size="14.00">BinPhp\getApacheModule</text>
</a>
</g>
</g>
<!-- Node1&#45;&gt;Node2 -->
<g id="edge1_Node000001_Node000002" class="edge">
<title>Node1&#45;&gt;Node2</title>
<g id="a_edge1_Node000001_Node000002"><a xlink:title=" ">
<path fill="none" stroke="#63b8ff" d="M746.94,-165.01C724.94,-184.67 688.82,-214.03 652.5,-230.91 644.63,-234.56 636.09,-237.64 627.48,-240.23"/>
<polygon fill="#63b8ff" stroke="#63b8ff" points="749.03,-167.84 754.07,-158.52 744.32,-162.66 749.03,-167.84"/>
</a>
</g>
</g>
<!-- Node5 -->
<g id="Node000005" class="node">
<title>Node5</title>
<g id="a_Node000005"><a xlink:href="../../dc/db3/classBinPhp.html#a0f352ec713990b6844a9b8feb583cc40" target="_top" xlink:title=" ">
<polygon fill="white" stroke="#666666" points="652.5,-324.41 463.25,-324.41 463.25,-283.41 652.5,-283.41 652.5,-324.41"/>
<text text-anchor="start" x="471.25" y="-307.11" font-family="Helvetica,sans-Serif" font-size="14.00">BinPhp\getExtensionsFrom</text>
<text text-anchor="middle" x="557.88" y="-290.61" font-family="Helvetica,sans-Serif" font-size="14.00">Folder</text>
</a>
</g>
</g>
<!-- Node1&#45;&gt;Node5 -->
<g id="edge4_Node000001_Node000005" class="edge">
<title>Node1&#45;&gt;Node5</title>
<g id="a_edge4_Node000001_Node000005"><a xlink:title=" ">
<path fill="none" stroke="#63b8ff" d="M753.95,-167.09C734.37,-195.76 696.59,-245.35 652.5,-273.91 647.34,-277.25 641.78,-280.24 636.04,-282.92"/>
<polygon fill="#63b8ff" stroke="#63b8ff" points="756.83,-169.08 759.47,-158.82 751.01,-165.19 756.83,-169.08"/>
</a>
</g>
</g>
<!-- Node7 -->
<g id="Node000007" class="node">
<title>Node7</title>
<g id="a_Node000007"><a xlink:href="../../dc/db3/classBinPhp.html#a322601309f58ac85d7d430de001725da" target="_top" xlink:title=" ">
<polygon fill="white" stroke="#666666" points="640.12,-222.16 475.62,-222.16 475.62,-197.66 640.12,-197.66 640.12,-222.16"/>
<text text-anchor="middle" x="557.88" y="-204.86" font-family="Helvetica,sans-Serif" font-size="14.00">BinPhp\getPearVersion</text>
</a>
</g>
</g>
<!-- Node1&#45;&gt;Node7 -->
<g id="edge6_Node000001_Node000007" class="edge">
<title>Node1&#45;&gt;Node7</title>
<g id="a_edge6_Node000001_Node000007"><a xlink:title=" ">
<path fill="none" stroke="#63b8ff" d="M727.07,-161.63C705.15,-170.17 677.61,-180.32 652.5,-187.91 641.47,-191.24 629.59,-194.37 618.11,-197.17"/>
<polygon fill="#63b8ff" stroke="#63b8ff" points="728.22,-164.94 736.25,-158.02 725.66,-158.42 728.22,-164.94"/>
</a>
</g>
</g>
<!-- Node8 -->
<g id="Node000008" class="node">
<title>Node8</title>
<g id="a_Node000008"><a xlink:href="../../dc/db3/classBinPhp.html#a425f8d7bf6475d60b5a6d6ccd7e3a03f" target="_top" xlink:title=" ">
<polygon fill="white" stroke="#666666" points="617.25,-179.16 498.5,-179.16 498.5,-154.66 617.25,-154.66 617.25,-179.16"/>
<text text-anchor="middle" x="557.88" y="-161.86" font-family="Helvetica,sans-Serif" font-size="14.00">BinPhp\getTsDll</text>
</a>
</g>
</g>
<!-- Node1&#45;&gt;Node8 -->
<g id="edge7_Node000001_Node000008" class="edge">
<title>Node1&#45;&gt;Node8</title>
<g id="a_edge7_Node000001_Node000008"><a xlink:title=" ">
<path fill="none" stroke="#63b8ff" d="M676.82,-154.51C656.78,-156.62 636.08,-158.79 617.72,-160.72"/>
<polygon fill="#63b8ff" stroke="#63b8ff" points="677.11,-158 686.69,-153.48 676.38,-151.04 677.11,-158"/>
</a>
</g>
</g>
<!-- Node9 -->
<g id="Node000009" class="node">
<title>Node9</title>
<g id="a_Node000009"><a xlink:href="../../d6/d88/classBinMysql.html#ad0cb81bbc0f92f94aba2b89eb3396818" target="_top" xlink:title=" ">
<polygon fill="white" stroke="#666666" points="619.5,-136.16 496.25,-136.16 496.25,-111.66 619.5,-111.66 619.5,-136.16"/>
<text text-anchor="middle" x="557.88" y="-118.86" font-family="Helvetica,sans-Serif" font-size="14.00">BinMysql\initData</text>
</a>
</g>
</g>
<!-- Node1&#45;&gt;Node9 -->
<g id="edge9_Node000001_Node000009" class="edge">
<title>Node1&#45;&gt;Node9</title>
<g id="a_edge9_Node000001_Node000009"><a xlink:title=" ">
<path fill="none" stroke="#63b8ff" d="M676.95,-135.75C657.69,-133.82 637.82,-131.82 620,-130.04"/>
<polygon fill="#63b8ff" stroke="#63b8ff" points="676.39,-139.21 686.69,-136.73 677.09,-132.24 676.39,-139.21"/>
</a>
</g>
</g>
<!-- Node10 -->
<g id="Node000010" class="node">
<title>Node10</title>
<g id="a_Node000010"><a xlink:href="../../d6/d88/classBinMysql.html#ab584c3d562f8f0c12c94c16d571398fb" target="_top" xlink:title=" ">
<polygon fill="white" stroke="#666666" points="411.12,-106.16 248.88,-106.16 248.88,-81.66 411.12,-81.66 411.12,-106.16"/>
<text text-anchor="middle" x="330" y="-88.86" font-family="Helvetica,sans-Serif" font-size="14.00">BinMysql\updateConfig</text>
</a>
</g>
</g>
<!-- Node1&#45;&gt;Node10 -->
<g id="edge15_Node000001_Node000010" class="edge">
<title>Node1&#45;&gt;Node10</title>
<g id="a_edge15_Node000001_Node000010"><a xlink:title=" ">
<path fill="none" stroke="#63b8ff" d="M731.01,-127.94C708.73,-118.67 679.57,-108.06 652.5,-102.91 571.45,-87.48 476.87,-86.87 411.37,-89.1"/>
<polygon fill="#63b8ff" stroke="#63b8ff" points="729.39,-131.05 739.96,-131.76 732.13,-124.61 729.39,-131.05"/>
</a>
</g>
</g>
<!-- Node12 -->
<g id="Node000012" class="node">
<title>Node12</title>
<g id="a_Node000012"><a xlink:href="../../dc/db9/classBinPostgresql.html#a6a6817ca71ca5be4dfd3a6a282136b6e" target="_top" xlink:title=" ">
<polygon fill="white" stroke="#666666" points="635.62,-56.16 480.12,-56.16 480.12,-31.66 635.62,-31.66 635.62,-56.16"/>
<text text-anchor="middle" x="557.88" y="-38.86" font-family="Helvetica,sans-Serif" font-size="14.00">BinPostgresql\initData</text>
</a>
</g>
</g>
<!-- Node1&#45;&gt;Node12 -->
<g id="edge12_Node000001_Node000012" class="edge">
<title>Node1&#45;&gt;Node12</title>
<g id="a_edge12_Node000001_Node000012"><a xlink:title=" ">
<path fill="none" stroke="#63b8ff" d="M743.39,-125.6C720.79,-108.83 685.94,-84.95 652.5,-69.91 640.81,-64.64 627.81,-60.21 615.3,-56.59"/>
<polygon fill="#63b8ff" stroke="#63b8ff" points="740.99,-128.17 751.09,-131.39 745.2,-122.58 740.99,-128.17"/>
</a>
</g>
</g>
<!-- Node13 -->
<g id="Node000013" class="node">
<title>Node13</title>
<g id="a_Node000013"><a xlink:href="../../dc/db9/classBinPostgresql.html#ab9521e473ea9de96409472e01cd215a6" target="_top" xlink:title=" ">
<polygon fill="white" stroke="#666666" points="427.25,-45.16 232.75,-45.16 232.75,-20.66 427.25,-20.66 427.25,-45.16"/>
<text text-anchor="middle" x="330" y="-27.86" font-family="Helvetica,sans-Serif" font-size="14.00">BinPostgresql\updateConfig</text>
</a>
</g>
</g>
<!-- Node1&#45;&gt;Node13 -->
<g id="edge16_Node000001_Node000013" class="edge">
<title>Node1&#45;&gt;Node13</title>
<g id="a_edge16_Node000001_Node000013"><a xlink:title=" ">
<path fill="none" stroke="#63b8ff" d="M755.34,-122.72C736.86,-93.44 699.8,-43.23 652.5,-22.91 560.4,16.67 439.4,-4.17 375.3,-20.16"/>
<polygon fill="#63b8ff" stroke="#63b8ff" points="752.31,-124.47 760.51,-131.18 758.28,-120.82 752.31,-124.47"/>
</a>
</g>
</g>
<!-- Node3 -->
<g id="Node000003" class="node">
<title>Node3</title>
<g id="a_Node000003"><a xlink:href="../../dc/db3/classBinPhp.html#a9b92767dc6a36f70a22985c54c9c6808" target="_top" xlink:title=" ">
<polygon fill="white" stroke="#666666" points="405.5,-222.16 254.5,-222.16 254.5,-197.66 405.5,-197.66 405.5,-222.16"/>
<text text-anchor="middle" x="330" y="-204.86" font-family="Helvetica,sans-Serif" font-size="14.00">BinPhp\updateConfig</text>
</a>
</g>
</g>
<!-- Node2&#45;&gt;Node3 -->
<g id="edge2_Node000002_Node000003" class="edge">
<title>Node2&#45;&gt;Node3</title>
<g id="a_edge2_Node000002_Node000003"><a xlink:title=" ">
<path fill="none" stroke="#63b8ff" d="M478.88,-238.06C452.44,-233.02 423.16,-227.45 397.68,-222.6"/>
<polygon fill="#63b8ff" stroke="#63b8ff" points="478.06,-241.46 488.54,-239.9 479.37,-234.59 478.06,-241.46"/>
</a>
</g>
</g>
<!-- Node4 -->
<g id="Node000004" class="node">
<title>Node4</title>
<g id="a_Node000004"><a xlink:href="../../dc/db3/classBinPhp.html#a2d9502d15fb68361643bcd91d3d1b81a" target="_top" xlink:title=" ">
<polygon fill="white" stroke="#666666" points="175,-222.16 21.75,-222.16 21.75,-197.66 175,-197.66 175,-222.16"/>
<text text-anchor="middle" x="98.38" y="-204.86" font-family="Helvetica,sans-Serif" font-size="14.00">BinPhp\switchVersion</text>
</a>
</g>
</g>
<!-- Node3&#45;&gt;Node4 -->
<g id="edge3_Node000003_Node000004" class="edge">
<title>Node3&#45;&gt;Node4</title>
<g id="a_edge3_Node000003_Node000004"><a xlink:title=" ">
<path fill="none" stroke="#63b8ff" d="M242.71,-209.91C220.56,-209.91 196.9,-209.91 175.32,-209.91"/>
<polygon fill="#63b8ff" stroke="#63b8ff" points="242.62,-213.41 252.62,-209.91 242.62,-206.41 242.62,-213.41"/>
</a>
</g>
</g>
<!-- Node6 -->
<g id="Node000006" class="node">
<title>Node6</title>
<g id="a_Node000006"><a xlink:href="../../dc/db3/classBinPhp.html#ad33e2bf1e933c6e0e117df325313022a" target="_top" xlink:title=" ">
<polygon fill="white" stroke="#666666" points="407.75,-316.16 252.25,-316.16 252.25,-291.66 407.75,-291.66 407.75,-316.16"/>
<text text-anchor="middle" x="330" y="-298.86" font-family="Helvetica,sans-Serif" font-size="14.00">BinPhp\getExtensions</text>
</a>
</g>
</g>
<!-- Node5&#45;&gt;Node6 -->
<g id="edge5_Node000005_Node000006" class="edge">
<title>Node5&#45;&gt;Node6</title>
<g id="a_edge5_Node000005_Node000006"><a xlink:title=" ">
<path fill="none" stroke="#63b8ff" d="M451.82,-303.91C437.08,-303.91 422.16,-303.91 408.07,-303.91"/>
<polygon fill="#63b8ff" stroke="#63b8ff" points="451.53,-307.41 461.53,-303.91 451.53,-300.41 451.53,-307.41"/>
</a>
</g>
</g>
<!-- Node8&#45;&gt;Node3 -->
<g id="edge8_Node000008_Node000003" class="edge">
<title>Node8&#45;&gt;Node3</title>
<g id="a_edge8_Node000008_Node000003"><a xlink:title=" ">
<path fill="none" stroke="#63b8ff" d="M487.05,-180.2C458.64,-185.61 425.94,-191.83 397.84,-197.18"/>
<polygon fill="#63b8ff" stroke="#63b8ff" points="487.46,-183.68 496.63,-178.37 486.15,-176.81 487.46,-183.68"/>
</a>
</g>
</g>
<!-- Node9&#45;&gt;Node10 -->
<g id="edge10_Node000009_Node000010" class="edge">
<title>Node9&#45;&gt;Node10</title>
<g id="a_edge10_Node000009_Node000010"><a xlink:title=" ">
<path fill="none" stroke="#63b8ff" d="M484.82,-114.34C461.46,-111.23 435.41,-107.77 411.48,-104.59"/>
<polygon fill="#63b8ff" stroke="#63b8ff" points="484.17,-117.78 494.55,-115.63 485.1,-110.84 484.17,-117.78"/>
</a>
</g>
</g>
<!-- Node11 -->
<g id="Node000011" class="node">
<title>Node11</title>
<g id="a_Node000011"><a xlink:href="../../d6/d88/classBinMysql.html#a6d31e31a0b68da6fbf5db4d4210849a9" target="_top" xlink:title=" ">
<polygon fill="white" stroke="#666666" points="180.62,-106.16 16.12,-106.16 16.12,-81.66 180.62,-81.66 180.62,-106.16"/>
<text text-anchor="middle" x="98.38" y="-88.86" font-family="Helvetica,sans-Serif" font-size="14.00">BinMysql\switchVersion</text>
</a>
</g>
</g>
<!-- Node10&#45;&gt;Node11 -->
<g id="edge11_Node000010_Node000011" class="edge">
<title>Node10&#45;&gt;Node11</title>
<g id="a_edge11_Node000010_Node000011"><a xlink:title=" ">
<path fill="none" stroke="#63b8ff" d="M237.21,-93.91C218.56,-93.91 199.07,-93.91 180.81,-93.91"/>
<polygon fill="#63b8ff" stroke="#63b8ff" points="237.17,-97.41 247.17,-93.91 237.17,-90.41 237.17,-97.41"/>
</a>
</g>
</g>
<!-- Node12&#45;&gt;Node13 -->
<g id="edge13_Node000012_Node000013" class="edge">
<title>Node12&#45;&gt;Node13</title>
<g id="a_edge13_Node000012_Node000013"><a xlink:title=" ">
<path fill="none" stroke="#63b8ff" d="M468.64,-39.61C455.22,-38.95 441.31,-38.28 427.73,-37.62"/>
<polygon fill="#63b8ff" stroke="#63b8ff" points="468.1,-43.09 478.26,-40.08 468.44,-36.09 468.1,-43.09"/>
</a>
</g>
</g>
<!-- Node14 -->
<g id="Node000014" class="node">
<title>Node14</title>
<g id="a_Node000014"><a xlink:href="../../dc/db9/classBinPostgresql.html#a79ac81202051d309f1cfa47f0545d2b2" target="_top" xlink:title=" ">
<polygon fill="white" stroke="#666666" points="196.75,-45.16 0,-45.16 0,-20.66 196.75,-20.66 196.75,-45.16"/>
<text text-anchor="middle" x="98.38" y="-27.86" font-family="Helvetica,sans-Serif" font-size="14.00">BinPostgresql\switchVersion</text>
</a>
</g>
</g>
<!-- Node13&#45;&gt;Node14 -->
<g id="edge14_Node000013_Node000014" class="edge">
<title>Node13&#45;&gt;Node14</title>
<g id="a_edge14_Node000013_Node000014"><a xlink:title=" ">
<path fill="none" stroke="#63b8ff" d="M221.03,-32.91C213.04,-32.91 205.01,-32.91 197.08,-32.91"/>
<polygon fill="#63b8ff" stroke="#63b8ff" points="220.77,-36.41 230.77,-32.91 220.77,-29.41 220.77,-36.41"/>
</a>
</g>
</g>
</g>
</svg>

<g id="navigator" transform="translate(0 0)" fill="#404254">
  <rect fill="#f2f5e9" fill-opacity="0.5" stroke="#606060" stroke-width=".5" x="0" y="0" width="60" height="60"/>
  <use id="zoomplus" xlink:href="#zoomPlus" x="17" y="9" onmousedown="handleZoom(evt,'in')"/>
  <use id="zoomminus" xlink:href="#zoomMin" x="42" y="9" onmousedown="handleZoom(evt,'out')"/>
  <use id="reset" xlink:href="#resetDef" x="30" y="36" onmousedown="handleReset()"/>
   <use id="arrowup" xlink:href="#arrowUp" x="0" y="0" onmousedown="handlePan(0,-1)"/>
  <use id="arrowright" xlink:href="#arrowRight" x="0" y="0" onmousedown="handlePan(1,0)"/>
  <use id="arrowdown" xlink:href="#arrowDown" x="0" y="0" onmousedown="handlePan(0,1)"/>
  <use id="arrowleft" xlink:href="#arrowLeft" x="0" y="0" onmousedown="handlePan(-1,0)"/>
</g>
<svg viewBox="0 0 15 15" width="100%" height="30px" preserveAspectRatio="xMaxYMin meet">
 <g id="arrow_out" transform="scale(0.3 0.3)">
  <a xlink:href="classModule_acf24f2c5ad92b79f62cad65a3ee10c24_icgraph_org.svg" target="_base">
   <rect id="button" ry="5" rx="5" y="6" x="6" height="38" width="38"
        fill="#f2f5e9" fill-opacity="0.5" stroke="#606060" stroke-width="1.0"/>
   <path id="arrow"
     d="M 11.500037,31.436501 C 11.940474,20.09759 22.043105,11.32322 32.158766,21.979434 L 37.068811,17.246167 C 37.068811,17.246167 37.088388,32 37.088388,32 L 22.160133,31.978069 C 22.160133,31.978069 26.997745,27.140456 26.997745,27.140456 C 18.528582,18.264221 13.291696,25.230495 11.500037,31.436501 z"
     style="fill:#404040;"/>
  </a>
 </g>
</svg>

<style type='text/css'>
<![CDATA[
[data-mouse-over-selected='false'] { opacity: 0.7; }
[data-mouse-over-selected='true']  { opacity: 1.0; }
]]>
</style>
<script type="application/ecmascript"><![CDATA[
document.addEventListener('DOMContentLoaded', (event) => {
  highlightEdges();
  highlightAdjacentNodes();
});
]]></script>
</svg>
