<?xml version="1.0" encoding="UTF-8" standalone="no"?>
<!--
  - Copyright (c) 2021-2024 Bearsampp
  - License:  GNU General Public License version 3 or later; see LICENSE.txt
  - Author: Bear
  - Website: https://bearsampp.com
  - Github: https://github.com/Bearsampp
  -->

<!DOCTYPE svg PUBLIC "-//W3C//DTD SVG 1.1//EN"
 "http://www.w3.org/Graphics/SVG/1.1/DTD/svg11.dtd">
<!-- Generated by graphviz version 11.0.0 (20240428.1522)
 -->
<!-- Title: Module\getVersion Pages: 1 -->
<svg width="867pt" height="1182pt"
 viewBox="0.00 0.00 867.00 1181.50" xmlns="http://www.w3.org/2000/svg" xmlns:xlink="http://www.w3.org/1999/xlink">
<g id="graph0" class="graph" transform="scale(1 1) rotate(0) translate(4 1177.5)">
<title>Module\getVersion</title>
<!-- Node1 -->
<g id="Node000001" class="node">
<title>Node1</title>
<g id="a_Node000001"><a xlink:title=" ">
<polygon fill="#999999" stroke="#666666" points="859,-604.5 723.75,-604.5 723.75,-580 859,-580 859,-604.5"/>
<text text-anchor="middle" x="791.38" y="-587.2" font-family="Helvetica,sans-Serif" font-size="14.00">Module\getVersion</text>
</a>
</g>
</g>
<!-- Node2 -->
<g id="Node000002" class="node">
<title>Node2</title>
<g id="a_Node000002"><a xlink:href="../../dc/db9/classBinPostgresql.html#a1cca7ea136a877a3c5346d191c3bd66f" target="_top" xlink:title=" ">
<polygon fill="white" stroke="#666666" points="672.38,-1173.5 499.62,-1173.5 499.62,-1149 672.38,-1149 672.38,-1173.5"/>
<text text-anchor="middle" x="586" y="-1156.2" font-family="Helvetica,sans-Serif" font-size="14.00">BinPostgresql\checkPort</text>
</a>
</g>
</g>
<!-- Node1&#45;&gt;Node2 -->
<g id="edge1_Node000001_Node000002" class="edge">
<title>Node1&#45;&gt;Node2</title>
<g id="a_edge1_Node000001_Node000002"><a xlink:title=" ">
<path fill="none" stroke="#63b8ff" d="M789.16,-616.39C783.91,-711.4 760,-1058.08 687.75,-1135.25 682.56,-1140.79 676.37,-1145.21 669.63,-1148.73"/>
<polygon fill="#63b8ff" stroke="#63b8ff" points="792.66,-616.62 789.69,-606.45 785.67,-616.25 792.66,-616.62"/>
</a>
</g>
</g>
<!-- Node3 -->
<g id="Node000003" class="node">
<title>Node3</title>
<g id="a_Node000003"><a xlink:href="../../dc/db3/classBinPhp.html#a1f7128f917c7f18ffa8fa8a68d70b166" target="_top" xlink:title=" ">
<polygon fill="white" stroke="#666666" points="676.5,-1093.5 495.5,-1093.5 495.5,-1069 676.5,-1069 676.5,-1093.5"/>
<text text-anchor="middle" x="586" y="-1076.2" font-family="Helvetica,sans-Serif" font-size="14.00">BinPhp\getApacheModule</text>
</a>
</g>
</g>
<!-- Node1&#45;&gt;Node3 -->
<g id="edge2_Node000001_Node000003" class="edge">
<title>Node1&#45;&gt;Node3</title>
<g id="a_edge2_Node000001_Node000003"><a xlink:title=" ">
<path fill="none" stroke="#63b8ff" d="M788.45,-616.35C781.06,-702.79 751.65,-995.44 687.75,-1059.25 684.08,-1062.92 679.94,-1066.04 675.5,-1068.69"/>
<polygon fill="#63b8ff" stroke="#63b8ff" points="791.93,-616.7 789.27,-606.45 784.96,-616.12 791.93,-616.7"/>
</a>
</g>
</g>
<!-- Node4 -->
<g id="Node000004" class="node">
<title>Node4</title>
<g id="a_Node000004"><a xlink:href="../../dc/db3/classBinPhp.html#a9b92767dc6a36f70a22985c54c9c6808" target="_top" xlink:title=" ">
<polygon fill="white" stroke="#666666" points="415.25,-1093.5 264.25,-1093.5 264.25,-1069 415.25,-1069 415.25,-1093.5"/>
<text text-anchor="middle" x="339.75" y="-1076.2" font-family="Helvetica,sans-Serif" font-size="14.00">BinPhp\updateConfig</text>
</a>
</g>
</g>
<!-- Node1&#45;&gt;Node4 -->
<g id="edge48_Node000001_Node000004" class="edge">
<title>Node1&#45;&gt;Node4</title>
<g id="a_edge48_Node000001_Node000004"><a xlink:title=" ">
<path fill="none" stroke="#63b8ff" d="M789.4,-616.35C785.1,-708.9 764.5,-1039.4 687.75,-1102.25 645.02,-1137.24 486.06,-1111.47 398.88,-1093.93"/>
<polygon fill="#63b8ff" stroke="#63b8ff" points="792.89,-616.58 789.83,-606.44 785.9,-616.28 792.89,-616.58"/>
</a>
</g>
</g>
<!-- Node6 -->
<g id="Node000006" class="node">
<title>Node6</title>
<g id="a_Node000006"><a xlink:href="../../d9/d6c/classBinApache.html#a4f4abaf4949aa6b815654a9807e310d3" target="_top" xlink:title=" ">
<polygon fill="white" stroke="#666666" points="686.25,-1007.5 485.75,-1007.5 485.75,-983 686.25,-983 686.25,-1007.5"/>
<text text-anchor="middle" x="586" y="-990.2" font-family="Helvetica,sans-Serif" font-size="14.00">BinApache\getOfflineContent</text>
</a>
</g>
</g>
<!-- Node1&#45;&gt;Node6 -->
<g id="edge5_Node000001_Node000006" class="edge">
<title>Node1&#45;&gt;Node6</title>
<g id="a_edge5_Node000001_Node000006"><a xlink:title=" ">
<path fill="none" stroke="#63b8ff" d="M787.22,-615.98C776.74,-691.27 740.71,-922.77 687.75,-973.25 683.86,-976.96 679.5,-980.09 674.83,-982.75"/>
<polygon fill="#63b8ff" stroke="#63b8ff" points="790.64,-616.8 788.53,-606.42 783.71,-615.85 790.64,-616.8"/>
</a>
</g>
</g>
<!-- Node13 -->
<g id="Node000013" class="node">
<title>Node13</title>
<g id="a_Node000013"><a xlink:href="../../d9/d6c/classBinApache.html#a8f785277bdaef55bcbb6d84f8b5ea432" target="_top" xlink:title=" ">
<polygon fill="white" stroke="#666666" points="685.5,-964.5 486.5,-964.5 486.5,-940 685.5,-940 685.5,-964.5"/>
<text text-anchor="middle" x="586" y="-947.2" font-family="Helvetica,sans-Serif" font-size="14.00">BinApache\getOnlineContent</text>
</a>
</g>
</g>
<!-- Node1&#45;&gt;Node13 -->
<g id="edge12_Node000001_Node000013" class="edge">
<title>Node1&#45;&gt;Node13</title>
<g id="a_edge12_Node000001_Node000013"><a xlink:title=" ">
<path fill="none" stroke="#63b8ff" d="M790.49,-616.16C789.43,-677.22 777.83,-840.18 687.75,-926.25 682,-931.74 675.26,-936.11 668.02,-939.59"/>
<polygon fill="#63b8ff" stroke="#63b8ff" points="793.99,-616.28 790.57,-606.25 786.99,-616.22 793.99,-616.28"/>
</a>
</g>
</g>
<!-- Node14 -->
<g id="Node000014" class="node">
<title>Node14</title>
<g id="a_Node000014"><a xlink:href="../../dc/db3/classBinPhp.html#a425f8d7bf6475d60b5a6d6ccd7e3a03f" target="_top" xlink:title=" ">
<polygon fill="white" stroke="#666666" points="645.38,-1050.5 526.62,-1050.5 526.62,-1026 645.38,-1026 645.38,-1050.5"/>
<text text-anchor="middle" x="586" y="-1033.2" font-family="Helvetica,sans-Serif" font-size="14.00">BinPhp\getTsDll</text>
</a>
</g>
</g>
<!-- Node1&#45;&gt;Node14 -->
<g id="edge17_Node000001_Node000014" class="edge">
<title>Node1&#45;&gt;Node14</title>
<g id="a_edge17_Node000001_Node000014"><a xlink:title=" ">
<path fill="none" stroke="#63b8ff" d="M787.92,-615.94C779.07,-696.66 746.22,-959.08 687.75,-1016.25 676.48,-1027.26 661.06,-1033.31 645.67,-1036.49"/>
<polygon fill="#63b8ff" stroke="#63b8ff" points="791.39,-616.43 788.97,-606.11 784.43,-615.68 791.39,-616.43"/>
</a>
</g>
</g>
<!-- Node15 -->
<g id="Node000015" class="node">
<title>Node15</title>
<g id="a_Node000015"><a xlink:href="../../d6/d88/classBinMysql.html#ad0cb81bbc0f92f94aba2b89eb3396818" target="_top" xlink:title=" ">
<polygon fill="white" stroke="#666666" points="647.62,-884.5 524.38,-884.5 524.38,-860 647.62,-860 647.62,-884.5"/>
<text text-anchor="middle" x="586" y="-867.2" font-family="Helvetica,sans-Serif" font-size="14.00">BinMysql\initData</text>
</a>
</g>
</g>
<!-- Node1&#45;&gt;Node15 -->
<g id="edge19_Node000001_Node000015" class="edge">
<title>Node1&#45;&gt;Node15</title>
<g id="a_edge19_Node000001_Node000015"><a xlink:title=" ">
<path fill="none" stroke="#63b8ff" d="M788.22,-615.99C782.25,-667.17 760.76,-788.31 687.75,-850.25 676.62,-859.69 662.37,-865.35 648.11,-868.68"/>
<polygon fill="#63b8ff" stroke="#63b8ff" points="791.67,-616.64 789.24,-606.33 784.71,-615.91 791.67,-616.64"/>
</a>
</g>
</g>
<!-- Node16 -->
<g id="Node000016" class="node">
<title>Node16</title>
<g id="a_Node000016"><a xlink:href="../../d6/d88/classBinMysql.html#ab584c3d562f8f0c12c94c16d571398fb" target="_top" xlink:title=" ">
<polygon fill="white" stroke="#666666" points="420.88,-878.5 258.62,-878.5 258.62,-854 420.88,-854 420.88,-878.5"/>
<text text-anchor="middle" x="339.75" y="-861.2" font-family="Helvetica,sans-Serif" font-size="14.00">BinMysql\updateConfig</text>
</a>
</g>
</g>
<!-- Node1&#45;&gt;Node16 -->
<g id="edge45_Node000001_Node000016" class="edge">
<title>Node1&#45;&gt;Node16</title>
<g id="a_edge45_Node000001_Node000016"><a xlink:title=" ">
<path fill="none" stroke="#63b8ff" d="M790.73,-616.32C790.13,-675.44 779.36,-827.7 687.75,-893.25 614.2,-945.88 574.3,-901.65 484.25,-893.25 468.41,-891.77 433.61,-885.26 402.25,-878.99"/>
<polygon fill="#63b8ff" stroke="#63b8ff" points="794.23,-616.4 790.73,-606.4 787.23,-616.4 794.23,-616.4"/>
</a>
</g>
</g>
<!-- Node18 -->
<g id="Node000018" class="node">
<title>Node18</title>
<g id="a_Node000018"><a xlink:href="../../d9/d6c/classBinApache.html#a54e8925c2f6dec1622cc8b4171810348" target="_top" xlink:title=" ">
<polygon fill="white" stroke="#666666" points="662.25,-841.5 509.75,-841.5 509.75,-817 662.25,-817 662.25,-841.5"/>
<text text-anchor="middle" x="586" y="-824.2" font-family="Helvetica,sans-Serif" font-size="14.00">BinApache\setEnable</text>
</a>
</g>
</g>
<!-- Node1&#45;&gt;Node18 -->
<g id="edge22_Node000001_Node000018" class="edge">
<title>Node1&#45;&gt;Node18</title>
<g id="a_edge22_Node000001_Node000018"><a xlink:title=" ">
<path fill="none" stroke="#63b8ff" d="M786.14,-615.99C776.83,-660.78 750.27,-757.7 687.75,-807.25 680.31,-813.14 671.64,-817.54 662.56,-820.81"/>
<polygon fill="#63b8ff" stroke="#63b8ff" points="789.54,-616.79 788.03,-606.3 782.67,-615.45 789.54,-616.79"/>
</a>
</g>
</g>
<!-- Node19 -->
<g id="Node000019" class="node">
<title>Node19</title>
<g id="a_Node000019"><a xlink:href="../../da/d23/classBinFilezilla.html#a00f53d4c8b7f101f056eded025c1f3c1" target="_top" xlink:title=" ">
<polygon fill="white" stroke="#666666" points="661.12,-798.5 510.88,-798.5 510.88,-774 661.12,-774 661.12,-798.5"/>
<text text-anchor="middle" x="586" y="-781.2" font-family="Helvetica,sans-Serif" font-size="14.00">BinFilezilla\setEnable</text>
</a>
</g>
</g>
<!-- Node1&#45;&gt;Node19 -->
<g id="edge23_Node000001_Node000019" class="edge">
<title>Node1&#45;&gt;Node19</title>
<g id="a_edge23_Node000001_Node000019"><a xlink:title=" ">
<path fill="none" stroke="#63b8ff" d="M783.3,-615.39C770.59,-652.88 740.21,-726.49 687.75,-764.25 679.9,-769.9 670.88,-774.14 661.54,-777.32"/>
<polygon fill="#63b8ff" stroke="#63b8ff" points="786.59,-616.61 786.35,-606.02 779.93,-614.45 786.59,-616.61"/>
</a>
</g>
</g>
<!-- Node20 -->
<g id="Node000020" class="node">
<title>Node20</title>
<g id="a_Node000020"><a xlink:href="../../db/df2/classBinMailhog.html#aecce319d43fb78f65b3a4ff9913c8be5" target="_top" xlink:title=" ">
<polygon fill="white" stroke="#666666" points="662.25,-755.5 509.75,-755.5 509.75,-731 662.25,-731 662.25,-755.5"/>
<text text-anchor="middle" x="586" y="-738.2" font-family="Helvetica,sans-Serif" font-size="14.00">BinMailhog\setEnable</text>
</a>
</g>
</g>
<!-- Node1&#45;&gt;Node20 -->
<g id="edge24_Node000001_Node000020" class="edge">
<title>Node1&#45;&gt;Node20</title>
<g id="a_edge24_Node000001_Node000020"><a xlink:title=" ">
<path fill="none" stroke="#63b8ff" d="M778.74,-615.03C762.49,-644.4 730.19,-694.83 687.75,-721.25 680.07,-726.03 671.51,-729.78 662.7,-732.72"/>
<polygon fill="#63b8ff" stroke="#63b8ff" points="781.81,-616.7 783.45,-606.23 775.64,-613.4 781.81,-616.7"/>
</a>
</g>
</g>
<!-- Node21 -->
<g id="Node000021" class="node">
<title>Node21</title>
<g id="a_Node000021"><a xlink:href="../../d9/ddd/classBinMailpit.html#a32db6d32a46a58829c4535ad33e2202f" target="_top" xlink:title=" ">
<polygon fill="white" stroke="#666666" points="657.75,-712.5 514.25,-712.5 514.25,-688 657.75,-688 657.75,-712.5"/>
<text text-anchor="middle" x="586" y="-695.2" font-family="Helvetica,sans-Serif" font-size="14.00">BinMailpit\setEnable</text>
</a>
</g>
</g>
<!-- Node1&#45;&gt;Node21 -->
<g id="edge25_Node000001_Node000021" class="edge">
<title>Node1&#45;&gt;Node21</title>
<g id="a_edge25_Node000001_Node000021"><a xlink:title=" ">
<path fill="none" stroke="#63b8ff" d="M771.46,-613.09C752.3,-632.9 720.83,-662.01 687.75,-678.25 678.51,-682.79 668.34,-686.39 658.12,-689.26"/>
<polygon fill="#63b8ff" stroke="#63b8ff" points="773.76,-615.75 778.09,-606.08 768.68,-610.95 773.76,-615.75"/>
</a>
</g>
</g>
<!-- Node22 -->
<g id="Node000022" class="node">
<title>Node22</title>
<g id="a_Node000022"><a xlink:href="../../d4/d8f/classBinMariadb.html#a976769ec002d6256882fc608f2a971c1" target="_top" xlink:title=" ">
<polygon fill="white" stroke="#666666" points="663,-669.5 509,-669.5 509,-645 663,-645 663,-669.5"/>
<text text-anchor="middle" x="586" y="-652.2" font-family="Helvetica,sans-Serif" font-size="14.00">BinMariadb\setEnable</text>
</a>
</g>
</g>
<!-- Node1&#45;&gt;Node22 -->
<g id="edge26_Node000001_Node000022" class="edge">
<title>Node1&#45;&gt;Node22</title>
<g id="a_edge26_Node000001_Node000022"><a xlink:title=" ">
<path fill="none" stroke="#63b8ff" d="M753.42,-609.65C734.16,-618.23 710.03,-628.21 687.75,-635.25 676.82,-638.7 665.06,-641.8 653.57,-644.51"/>
<polygon fill="#63b8ff" stroke="#63b8ff" points="754.82,-612.86 762.49,-605.55 751.93,-606.49 754.82,-612.86"/>
</a>
</g>
</g>
<!-- Node23 -->
<g id="Node000023" class="node">
<title>Node23</title>
<g id="a_Node000023"><a xlink:href="../../da/d10/classBinMemcached.html#a6e34e322bae67fd3cb41528c12e62a4c" target="_top" xlink:title=" ">
<polygon fill="white" stroke="#666666" points="676.88,-626.5 495.12,-626.5 495.12,-602 676.88,-602 676.88,-626.5"/>
<text text-anchor="middle" x="586" y="-609.2" font-family="Helvetica,sans-Serif" font-size="14.00">BinMemcached\setEnable</text>
</a>
</g>
</g>
<!-- Node1&#45;&gt;Node23 -->
<g id="edge27_Node000001_Node000023" class="edge">
<title>Node1&#45;&gt;Node23</title>
<g id="a_edge27_Node000001_Node000023"><a xlink:title=" ">
<path fill="none" stroke="#63b8ff" d="M712.2,-600.71C700.73,-601.95 688.85,-603.23 677.17,-604.5"/>
<polygon fill="#63b8ff" stroke="#63b8ff" points="712.43,-604.2 722,-599.65 711.68,-597.24 712.43,-604.2"/>
</a>
</g>
</g>
<!-- Node24 -->
<g id="Node000024" class="node">
<title>Node24</title>
<g id="a_Node000024"><a xlink:href="../../d6/d88/classBinMysql.html#ae2f67df247c503657a59721431e74e5d" target="_top" xlink:title=" ">
<polygon fill="white" stroke="#666666" points="656.25,-583.5 515.75,-583.5 515.75,-559 656.25,-559 656.25,-583.5"/>
<text text-anchor="middle" x="586" y="-566.2" font-family="Helvetica,sans-Serif" font-size="14.00">BinMysql\setEnable</text>
</a>
</g>
</g>
<!-- Node1&#45;&gt;Node24 -->
<g id="edge28_Node000001_Node000024" class="edge">
<title>Node1&#45;&gt;Node24</title>
<g id="a_edge28_Node000001_Node000024"><a xlink:title=" ">
<path fill="none" stroke="#63b8ff" d="M712.27,-584.19C693.98,-582.3 674.61,-580.3 656.71,-578.45"/>
<polygon fill="#63b8ff" stroke="#63b8ff" points="711.69,-587.64 722,-585.19 712.41,-580.68 711.69,-587.64"/>
</a>
</g>
</g>
<!-- Node25 -->
<g id="Node000025" class="node">
<title>Node25</title>
<g id="a_Node000025"><a xlink:href="../../d8/d9c/classBinNodejs.html#a4a52d5023ae050c401ec388decd02546" target="_top" xlink:title=" ">
<polygon fill="white" stroke="#666666" points="660.38,-540.5 511.62,-540.5 511.62,-516 660.38,-516 660.38,-540.5"/>
<text text-anchor="middle" x="586" y="-523.2" font-family="Helvetica,sans-Serif" font-size="14.00">BinNodejs\setEnable</text>
</a>
</g>
</g>
<!-- Node1&#45;&gt;Node25 -->
<g id="edge29_Node000001_Node000025" class="edge">
<title>Node1&#45;&gt;Node25</title>
<g id="a_edge29_Node000001_Node000025"><a xlink:title=" ">
<path fill="none" stroke="#63b8ff" d="M752.58,-574.94C733.44,-566.65 709.67,-557.07 687.75,-550.25 676.64,-546.79 664.67,-543.67 653.01,-540.94"/>
<polygon fill="#63b8ff" stroke="#63b8ff" points="751.03,-578.08 761.59,-578.91 753.85,-571.68 751.03,-578.08"/>
</a>
</g>
</g>
<!-- Node26 -->
<g id="Node000026" class="node">
<title>Node26</title>
<g id="a_Node000026"><a xlink:href="../../dc/db3/classBinPhp.html#a89be847e34d7efd92078d2aa07137422" target="_top" xlink:title=" ">
<polygon fill="white" stroke="#666666" points="650.62,-497.5 521.38,-497.5 521.38,-473 650.62,-473 650.62,-497.5"/>
<text text-anchor="middle" x="586" y="-480.2" font-family="Helvetica,sans-Serif" font-size="14.00">BinPhp\setEnable</text>
</a>
</g>
</g>
<!-- Node1&#45;&gt;Node26 -->
<g id="edge30_Node000001_Node000026" class="edge">
<title>Node1&#45;&gt;Node26</title>
<g id="a_edge30_Node000001_Node000026"><a xlink:title=" ">
<path fill="none" stroke="#63b8ff" d="M771.16,-571.39C751.93,-551.82 720.57,-523.24 687.75,-507.25 676.32,-501.68 663.48,-497.51 650.9,-494.39"/>
<polygon fill="#63b8ff" stroke="#63b8ff" points="768.6,-573.78 778.05,-578.58 773.65,-568.94 768.6,-573.78"/>
</a>
</g>
</g>
<!-- Node27 -->
<g id="Node000027" class="node">
<title>Node27</title>
<g id="a_Node000027"><a xlink:href="../../dc/db9/classBinPostgresql.html#a1dfaa8c453e59e1a9849bfd7b5a27bbb" target="_top" xlink:title=" ">
<polygon fill="white" stroke="#666666" points="672.38,-454.5 499.62,-454.5 499.62,-430 672.38,-430 672.38,-454.5"/>
<text text-anchor="middle" x="586" y="-437.2" font-family="Helvetica,sans-Serif" font-size="14.00">BinPostgresql\setEnable</text>
</a>
</g>
</g>
<!-- Node1&#45;&gt;Node27 -->
<g id="edge31_Node000001_Node000027" class="edge">
<title>Node1&#45;&gt;Node27</title>
<g id="a_edge31_Node000001_Node000027"><a xlink:title=" ">
<path fill="none" stroke="#63b8ff" d="M778.69,-569.65C762.4,-540.5 730.04,-490.47 687.75,-464.25 681.82,-460.57 675.35,-457.5 668.66,-454.94"/>
<polygon fill="#63b8ff" stroke="#63b8ff" points="775.57,-571.24 783.41,-578.37 781.73,-567.91 775.57,-571.24"/>
</a>
</g>
</g>
<!-- Node28 -->
<g id="Node000028" class="node">
<title>Node28</title>
<g id="a_Node000028"><a xlink:href="../../d8/ddb/classBinXlight.html#af8a4eaf341f9faaf452ef20759623a1a" target="_top" xlink:title=" ">
<polygon fill="white" stroke="#666666" points="655.5,-411.5 516.5,-411.5 516.5,-387 655.5,-387 655.5,-411.5"/>
<text text-anchor="middle" x="586" y="-394.2" font-family="Helvetica,sans-Serif" font-size="14.00">BinXlight\setEnable</text>
</a>
</g>
</g>
<!-- Node1&#45;&gt;Node28 -->
<g id="edge32_Node000001_Node000028" class="edge">
<title>Node1&#45;&gt;Node28</title>
<g id="a_edge32_Node000001_Node000028"><a xlink:title=" ">
<path fill="none" stroke="#63b8ff" d="M783.08,-568.69C770.2,-531.26 739.78,-458.6 687.75,-421.25 678.3,-414.46 667.15,-409.7 655.78,-406.38"/>
<polygon fill="#63b8ff" stroke="#63b8ff" points="779.72,-569.68 786.17,-578.08 786.36,-567.49 779.72,-569.68"/>
</a>
</g>
</g>
<!-- Node29 -->
<g id="Node000029" class="node">
<title>Node29</title>
<g id="a_Node000029"><a xlink:href="../../d9/d6c/classBinApache.html#a568adc920f3c2722c4fec4c86df88b54" target="_top" xlink:title=" ">
<polygon fill="white" stroke="#666666" points="673.12,-368.5 498.88,-368.5 498.88,-344 673.12,-344 673.12,-368.5"/>
<text text-anchor="middle" x="586" y="-351.2" font-family="Helvetica,sans-Serif" font-size="14.00">BinApache\updateConfig</text>
</a>
</g>
</g>
<!-- Node1&#45;&gt;Node29 -->
<g id="edge33_Node000001_Node000029" class="edge">
<title>Node1&#45;&gt;Node29</title>
<g id="a_edge33_Node000001_Node000029"><a xlink:title=" ">
<path fill="none" stroke="#63b8ff" d="M786.1,-568.62C776.74,-524.03 750.07,-427.56 687.75,-378.25 683.12,-374.58 678,-371.5 672.61,-368.9"/>
<polygon fill="#63b8ff" stroke="#63b8ff" points="782.63,-569.12 788,-578.25 789.5,-567.76 782.63,-569.12"/>
</a>
</g>
</g>
<!-- Node31 -->
<g id="Node000031" class="node">
<title>Node31</title>
<g id="a_Node000031"><a xlink:href="../../da/d23/classBinFilezilla.html#a66353a5a6f70047b44e22789823082bf" target="_top" xlink:title=" ">
<polygon fill="white" stroke="#666666" points="672,-325.5 500,-325.5 500,-301 672,-301 672,-325.5"/>
<text text-anchor="middle" x="586" y="-308.2" font-family="Helvetica,sans-Serif" font-size="14.00">BinFilezilla\updateConfig</text>
</a>
</g>
</g>
<!-- Node1&#45;&gt;Node31 -->
<g id="edge35_Node000001_Node000031" class="edge">
<title>Node1&#45;&gt;Node31</title>
<g id="a_edge35_Node000001_Node000031"><a xlink:title=" ">
<path fill="none" stroke="#63b8ff" d="M788.15,-568.28C782.07,-517.1 760.4,-396.81 687.75,-335.25 683.11,-331.31 677.92,-328.04 672.41,-325.31"/>
<polygon fill="#63b8ff" stroke="#63b8ff" points="784.67,-568.65 789.22,-578.22 791.63,-567.9 784.67,-568.65"/>
</a>
</g>
</g>
<!-- Node33 -->
<g id="Node000033" class="node">
<title>Node33</title>
<g id="a_Node000033"><a xlink:href="../../db/df2/classBinMailhog.html#af54594fb0d8e4114e09efc9d6d984f72" target="_top" xlink:title=" ">
<polygon fill="white" stroke="#666666" points="673.12,-282.5 498.88,-282.5 498.88,-258 673.12,-258 673.12,-282.5"/>
<text text-anchor="middle" x="586" y="-265.2" font-family="Helvetica,sans-Serif" font-size="14.00">BinMailhog\updateConfig</text>
</a>
</g>
</g>
<!-- Node1&#45;&gt;Node33 -->
<g id="edge37_Node000001_Node000033" class="edge">
<title>Node1&#45;&gt;Node33</title>
<g id="a_edge37_Node000001_Node000033"><a xlink:title=" ">
<path fill="none" stroke="#63b8ff" d="M789.71,-568.28C786.77,-511.21 771.03,-366.49 687.75,-292.25 683.47,-288.44 678.69,-285.23 673.6,-282.55"/>
<polygon fill="#63b8ff" stroke="#63b8ff" points="786.21,-568.3 790.12,-578.15 793.2,-568.01 786.21,-568.3"/>
</a>
</g>
</g>
<!-- Node35 -->
<g id="Node000035" class="node">
<title>Node35</title>
<g id="a_Node000035"><a xlink:href="../../d9/ddd/classBinMailpit.html#a9c590e2101f6ee220c101ebed2feed76" target="_top" xlink:title=" ">
<polygon fill="white" stroke="#666666" points="668.62,-239.5 503.38,-239.5 503.38,-215 668.62,-215 668.62,-239.5"/>
<text text-anchor="middle" x="586" y="-222.2" font-family="Helvetica,sans-Serif" font-size="14.00">BinMailpit\updateConfig</text>
</a>
</g>
</g>
<!-- Node1&#45;&gt;Node35 -->
<g id="edge39_Node000001_Node000035" class="edge">
<title>Node1&#45;&gt;Node35</title>
<g id="a_edge39_Node000001_Node000035"><a xlink:title=" ">
<path fill="none" stroke="#63b8ff" d="M790.91,-568.33C790.91,-505.83 781.78,-336.42 687.75,-249.25 682.24,-244.14 675.82,-240.11 668.94,-236.95"/>
<polygon fill="#63b8ff" stroke="#63b8ff" points="787.41,-568.12 790.81,-578.15 794.41,-568.19 787.41,-568.12"/>
</a>
</g>
</g>
<!-- Node37 -->
<g id="Node000037" class="node">
<title>Node37</title>
<g id="a_Node000037"><a xlink:href="../../d4/d8f/classBinMariadb.html#a5761bf237034a02d4f7b11d048c44a3c" target="_top" xlink:title=" ">
<polygon fill="white" stroke="#666666" points="673.88,-196.5 498.12,-196.5 498.12,-172 673.88,-172 673.88,-196.5"/>
<text text-anchor="middle" x="586" y="-179.2" font-family="Helvetica,sans-Serif" font-size="14.00">BinMariadb\updateConfig</text>
</a>
</g>
</g>
<!-- Node1&#45;&gt;Node37 -->
<g id="edge41_Node000001_Node000037" class="edge">
<title>Node1&#45;&gt;Node37</title>
<g id="a_edge41_Node000001_Node000037"><a xlink:title=" ">
<path fill="none" stroke="#63b8ff" d="M787.34,-568.72C777.09,-492.99 741.4,-257.54 687.75,-206.25 683.61,-202.29 678.93,-198.98 673.91,-196.21"/>
<polygon fill="#63b8ff" stroke="#63b8ff" points="783.83,-568.87 788.61,-578.32 790.77,-567.95 783.83,-568.87"/>
</a>
</g>
</g>
<!-- Node39 -->
<g id="Node000039" class="node">
<title>Node39</title>
<g id="a_Node000039"><a xlink:href="../../da/d10/classBinMemcached.html#a9f3d2973395fca97e1bd29b48019cbb3" target="_top" xlink:title=" ">
<polygon fill="white" stroke="#666666" points="687.75,-153.5 484.25,-153.5 484.25,-129 687.75,-129 687.75,-153.5"/>
<text text-anchor="middle" x="586" y="-136.2" font-family="Helvetica,sans-Serif" font-size="14.00">BinMemcached\updateConfig</text>
</a>
</g>
</g>
<!-- Node1&#45;&gt;Node39 -->
<g id="edge43_Node000001_Node000039" class="edge">
<title>Node1&#45;&gt;Node39</title>
<g id="a_edge43_Node000001_Node000039"><a xlink:title=" ">
<path fill="none" stroke="#63b8ff" d="M787.99,-568.53C779.32,-487.17 746.86,-221.2 687.75,-163.25 684.04,-159.62 679.88,-156.52 675.42,-153.89"/>
<polygon fill="#63b8ff" stroke="#63b8ff" points="784.48,-568.66 789,-578.24 791.44,-567.94 784.48,-568.66"/>
</a>
</g>
</g>
<!-- Node41 -->
<g id="Node000041" class="node">
<title>Node41</title>
<g id="a_Node000041"><a xlink:href="../../d8/d9c/classBinNodejs.html#a7e05048d9ec4cee6fa7b07fcf8461474" target="_top" xlink:title=" ">
<polygon fill="white" stroke="#666666" points="671.25,-110.5 500.75,-110.5 500.75,-86 671.25,-86 671.25,-110.5"/>
<text text-anchor="middle" x="586" y="-93.2" font-family="Helvetica,sans-Serif" font-size="14.00">BinNodejs\updateConfig</text>
</a>
</g>
</g>
<!-- Node1&#45;&gt;Node41 -->
<g id="edge46_Node000001_Node000041" class="edge">
<title>Node1&#45;&gt;Node41</title>
<g id="a_edge46_Node000001_Node000041"><a xlink:title=" ">
<path fill="none" stroke="#63b8ff" d="M788.54,-568.46C781.36,-481.84 752.37,-184.93 687.75,-120.25 682.94,-115.44 677.34,-111.57 671.29,-108.47"/>
<polygon fill="#63b8ff" stroke="#63b8ff" points="785.04,-568.68 789.33,-578.36 792.02,-568.12 785.04,-568.68"/>
</a>
</g>
</g>
<!-- Node43 -->
<g id="Node000043" class="node">
<title>Node43</title>
<g id="a_Node000043"><a xlink:href="../../dc/db9/classBinPostgresql.html#ab9521e473ea9de96409472e01cd215a6" target="_top" xlink:title=" ">
<polygon fill="white" stroke="#666666" points="683.25,-67.5 488.75,-67.5 488.75,-43 683.25,-43 683.25,-67.5"/>
<text text-anchor="middle" x="586" y="-50.2" font-family="Helvetica,sans-Serif" font-size="14.00">BinPostgresql\updateConfig</text>
</a>
</g>
</g>
<!-- Node1&#45;&gt;Node43 -->
<g id="edge49_Node000001_Node000043" class="edge">
<title>Node1&#45;&gt;Node43</title>
<g id="a_edge49_Node000001_Node000043"><a xlink:title=" ">
<path fill="none" stroke="#63b8ff" d="M789,-568.39C783.23,-476.72 757.9,-148.7 687.75,-77.25 684.11,-73.55 680.01,-70.4 675.58,-67.73"/>
<polygon fill="#63b8ff" stroke="#63b8ff" points="785.5,-568.43 789.6,-578.2 792.48,-568 785.5,-568.43"/>
</a>
</g>
</g>
<!-- Node45 -->
<g id="Node000045" class="node">
<title>Node45</title>
<g id="a_Node000045"><a xlink:href="../../d8/ddb/classBinXlight.html#a1dde5a86a2d03cb7e9eee7b0061fe183" target="_top" xlink:title=" ">
<polygon fill="white" stroke="#666666" points="666.38,-24.5 505.62,-24.5 505.62,0 666.38,0 666.38,-24.5"/>
<text text-anchor="middle" x="586" y="-7.2" font-family="Helvetica,sans-Serif" font-size="14.00">BinXlight\updateConfig</text>
</a>
</g>
</g>
<!-- Node1&#45;&gt;Node45 -->
<g id="edge51_Node000001_Node000045" class="edge">
<title>Node1&#45;&gt;Node45</title>
<g id="a_edge51_Node000001_Node000045"><a xlink:title=" ">
<path fill="none" stroke="#63b8ff" d="M789.39,-568.3C784.94,-471.73 763.45,-112.5 687.75,-34.25 681.77,-28.07 674.5,-23.44 666.62,-19.99"/>
<polygon fill="#63b8ff" stroke="#63b8ff" points="785.89,-568.32 789.83,-578.15 792.88,-568.01 785.89,-568.32"/>
</a>
</g>
</g>
<!-- Node3&#45;&gt;Node4 -->
<g id="edge3_Node000003_Node000004" class="edge">
<title>Node3&#45;&gt;Node4</title>
<g id="a_edge3_Node000003_Node000004"><a xlink:title=" ">
<path fill="none" stroke="#63b8ff" d="M483.65,-1081.25C460.88,-1081.25 437.11,-1081.25 415.65,-1081.25"/>
<polygon fill="#63b8ff" stroke="#63b8ff" points="483.58,-1084.75 493.58,-1081.25 483.58,-1077.75 483.58,-1084.75"/>
</a>
</g>
</g>
<!-- Node5 -->
<g id="Node000005" class="node">
<title>Node5</title>
<g id="a_Node000005"><a xlink:href="../../dc/db3/classBinPhp.html#a2d9502d15fb68361643bcd91d3d1b81a" target="_top" xlink:title=" ">
<polygon fill="white" stroke="#666666" points="174.25,-1093.5 21,-1093.5 21,-1069 174.25,-1069 174.25,-1093.5"/>
<text text-anchor="middle" x="97.62" y="-1076.2" font-family="Helvetica,sans-Serif" font-size="14.00">BinPhp\switchVersion</text>
</a>
</g>
</g>
<!-- Node4&#45;&gt;Node5 -->
<g id="edge4_Node000004_Node000005" class="edge">
<title>Node4&#45;&gt;Node5</title>
<g id="a_edge4_Node000004_Node000005"><a xlink:title=" ">
<path fill="none" stroke="#63b8ff" d="M252.28,-1081.25C226.91,-1081.25 199.37,-1081.25 174.7,-1081.25"/>
<polygon fill="#63b8ff" stroke="#63b8ff" points="252.25,-1084.75 262.25,-1081.25 252.25,-1077.75 252.25,-1084.75"/>
</a>
</g>
</g>
<!-- Node7 -->
<g id="Node000007" class="node">
<title>Node7</title>
<g id="a_Node000007"><a xlink:href="../../d9/d6c/classBinApache.html#a88e65e5df8d5a98fd51f045f1360ecfd" target="_top" xlink:title=" ">
<polygon fill="white" stroke="#666666" points="448.25,-921.5 231.25,-921.5 231.25,-897 448.25,-897 448.25,-921.5"/>
<text text-anchor="middle" x="339.75" y="-904.2" font-family="Helvetica,sans-Serif" font-size="14.00">BinApache\getRequiredContent</text>
</a>
</g>
</g>
<!-- Node6&#45;&gt;Node7 -->
<g id="edge6_Node000006_Node000007" class="edge">
<title>Node6&#45;&gt;Node7</title>
<g id="a_edge6_Node000006_Node000007"><a xlink:title=" ">
<path fill="none" stroke="#63b8ff" d="M493.53,-978.17C490.33,-976.67 487.23,-975.03 484.25,-973.25 463.14,-960.64 469.44,-943.72 448.25,-931.25 442.01,-927.58 435.26,-924.51 428.28,-921.95"/>
<polygon fill="#63b8ff" stroke="#63b8ff" points="492.02,-981.33 502.59,-981.96 494.71,-974.87 492.02,-981.33"/>
</a>
</g>
</g>
<!-- Node10 -->
<g id="Node000010" class="node">
<title>Node10</title>
<g id="a_Node000010"><a xlink:href="../../d9/d6c/classBinApache.html#a9e715eda066b0d564d23ce51f0fec684" target="_top" xlink:title=" ">
<polygon fill="white" stroke="#666666" points="422,-1050.5 257.5,-1050.5 257.5,-1026 422,-1026 422,-1050.5"/>
<text text-anchor="middle" x="339.75" y="-1033.2" font-family="Helvetica,sans-Serif" font-size="14.00">BinApache\refreshAlias</text>
</a>
</g>
</g>
<!-- Node6&#45;&gt;Node10 -->
<g id="edge9_Node000006_Node000010" class="edge">
<title>Node6&#45;&gt;Node10</title>
<g id="a_edge9_Node000006_Node000010"><a xlink:title=" ">
<path fill="none" stroke="#63b8ff" d="M501.43,-1009.96C472.63,-1015.03 440.66,-1020.66 412.86,-1025.56"/>
<polygon fill="#63b8ff" stroke="#63b8ff" points="501.98,-1013.42 511.22,-1008.24 500.76,-1006.53 501.98,-1013.42"/>
</a>
</g>
</g>
<!-- Node11 -->
<g id="Node000011" class="node">
<title>Node11</title>
<g id="a_Node000011"><a xlink:href="../../d9/d6c/classBinApache.html#a562c609c726922caf740b22ea9d4c537" target="_top" xlink:title=" ">
<polygon fill="white" stroke="#666666" points="422,-1007.5 257.5,-1007.5 257.5,-983 422,-983 422,-1007.5"/>
<text text-anchor="middle" x="339.75" y="-990.2" font-family="Helvetica,sans-Serif" font-size="14.00">BinApache\refreshConf</text>
</a>
</g>
</g>
<!-- Node6&#45;&gt;Node11 -->
<g id="edge10_Node000006_Node000011" class="edge">
<title>Node6&#45;&gt;Node11</title>
<g id="a_edge10_Node000006_Node000011"><a xlink:title=" ">
<path fill="none" stroke="#63b8ff" d="M473.92,-995.25C456.52,-995.25 438.81,-995.25 422.23,-995.25"/>
<polygon fill="#63b8ff" stroke="#63b8ff" points="473.79,-998.75 483.79,-995.25 473.79,-991.75 473.79,-998.75"/>
</a>
</g>
</g>
<!-- Node12 -->
<g id="Node000012" class="node">
<title>Node12</title>
<g id="a_Node000012"><a xlink:href="../../d9/d6c/classBinApache.html#a7547ed525ff649c090a3c1f1474afdab" target="_top" xlink:title=" ">
<polygon fill="white" stroke="#666666" points="428.75,-964.5 250.75,-964.5 250.75,-940 428.75,-940 428.75,-964.5"/>
<text text-anchor="middle" x="339.75" y="-947.2" font-family="Helvetica,sans-Serif" font-size="14.00">BinApache\refreshVhosts</text>
</a>
</g>
</g>
<!-- Node6&#45;&gt;Node12 -->
<g id="edge11_Node000006_Node000012" class="edge">
<title>Node6&#45;&gt;Node12</title>
<g id="a_edge11_Node000006_Node000012"><a xlink:title=" ">
<path fill="none" stroke="#63b8ff" d="M501.43,-980.54C472.63,-975.47 440.66,-969.84 412.86,-964.94"/>
<polygon fill="#63b8ff" stroke="#63b8ff" points="500.76,-983.97 511.22,-982.26 501.98,-977.08 500.76,-983.97"/>
</a>
</g>
</g>
<!-- Node8 -->
<g id="Node000008" class="node">
<title>Node8</title>
<g id="a_Node000008"><a xlink:href="../../d9/d6c/classBinApache.html#a47a45966871479aa2dc4a851c5107a96" target="_top" xlink:title=" ">
<polygon fill="white" stroke="#666666" points="192.25,-964.5 3,-964.5 3,-940 192.25,-940 192.25,-964.5"/>
<text text-anchor="middle" x="97.62" y="-947.2" font-family="Helvetica,sans-Serif" font-size="14.00">BinApache\getAliasContent</text>
</a>
</g>
</g>
<!-- Node7&#45;&gt;Node8 -->
<g id="edge7_Node000007_Node000008" class="edge">
<title>Node7&#45;&gt;Node8</title>
<g id="a_edge7_Node000007_Node000008"><a xlink:title=" ">
<path fill="none" stroke="#63b8ff" d="M256.59,-923.96C228.28,-929.03 196.84,-934.66 169.51,-939.56"/>
<polygon fill="#63b8ff" stroke="#63b8ff" points="256.96,-927.45 266.19,-922.24 255.73,-920.56 256.96,-927.45"/>
</a>
</g>
</g>
<!-- Node9 -->
<g id="Node000009" class="node">
<title>Node9</title>
<g id="a_Node000009"><a xlink:href="../../d9/d6c/classBinApache.html#a68c6240da8b11ea8f1c32b79dac57979" target="_top" xlink:title=" ">
<polygon fill="white" stroke="#666666" points="195.25,-921.5 0,-921.5 0,-897 195.25,-897 195.25,-921.5"/>
<text text-anchor="middle" x="97.62" y="-904.2" font-family="Helvetica,sans-Serif" font-size="14.00">BinApache\getVhostContent</text>
</a>
</g>
</g>
<!-- Node7&#45;&gt;Node9 -->
<g id="edge8_Node000007_Node000009" class="edge">
<title>Node7&#45;&gt;Node9</title>
<g id="a_edge8_Node000007_Node000009"><a xlink:title=" ">
<path fill="none" stroke="#63b8ff" d="M219.56,-909.25C211.48,-909.25 203.38,-909.25 195.43,-909.25"/>
<polygon fill="#63b8ff" stroke="#63b8ff" points="219.47,-912.75 229.47,-909.25 219.47,-905.75 219.47,-912.75"/>
</a>
</g>
</g>
<!-- Node13&#45;&gt;Node7 -->
<g id="edge13_Node000013_Node000007" class="edge">
<title>Node13&#45;&gt;Node7</title>
<g id="a_edge13_Node000013_Node000007"><a xlink:title=" ">
<path fill="none" stroke="#63b8ff" d="M501.43,-937.54C472.63,-932.47 440.66,-926.84 412.86,-921.94"/>
<polygon fill="#63b8ff" stroke="#63b8ff" points="500.76,-940.97 511.22,-939.26 501.98,-934.08 500.76,-940.97"/>
</a>
</g>
</g>
<!-- Node13&#45;&gt;Node10 -->
<g id="edge14_Node000013_Node000010" class="edge">
<title>Node13&#45;&gt;Node10</title>
<g id="a_edge14_Node000013_Node000010"><a xlink:title=" ">
<path fill="none" stroke="#63b8ff" d="M493.53,-969.33C490.33,-970.83 487.23,-972.47 484.25,-974.25 463.14,-986.86 469.44,-1003.78 448.25,-1016.25 440.29,-1020.94 431.48,-1024.64 422.44,-1027.56"/>
<polygon fill="#63b8ff" stroke="#63b8ff" points="494.71,-972.63 502.59,-965.54 492.02,-966.17 494.71,-972.63"/>
</a>
</g>
</g>
<!-- Node13&#45;&gt;Node11 -->
<g id="edge15_Node000013_Node000011" class="edge">
<title>Node13&#45;&gt;Node11</title>
<g id="a_edge15_Node000013_Node000011"><a xlink:title=" ">
<path fill="none" stroke="#63b8ff" d="M501.43,-966.96C472.63,-972.03 440.66,-977.66 412.86,-982.56"/>
<polygon fill="#63b8ff" stroke="#63b8ff" points="501.98,-970.42 511.22,-965.24 500.76,-963.53 501.98,-970.42"/>
</a>
</g>
</g>
<!-- Node13&#45;&gt;Node12 -->
<g id="edge16_Node000013_Node000012" class="edge">
<title>Node13&#45;&gt;Node12</title>
<g id="a_edge16_Node000013_Node000012"><a xlink:title=" ">
<path fill="none" stroke="#63b8ff" d="M474.85,-952.25C459.45,-952.25 443.8,-952.25 428.88,-952.25"/>
<polygon fill="#63b8ff" stroke="#63b8ff" points="474.49,-955.75 484.49,-952.25 474.49,-948.75 474.49,-955.75"/>
</a>
</g>
</g>
<!-- Node14&#45;&gt;Node4 -->
<g id="edge18_Node000014_Node000004" class="edge">
<title>Node14&#45;&gt;Node4</title>
<g id="a_edge18_Node000014_Node000004"><a xlink:title=" ">
<path fill="none" stroke="#63b8ff" d="M515.14,-1050.55C483.16,-1056.18 445.28,-1062.85 413.02,-1068.53"/>
<polygon fill="#63b8ff" stroke="#63b8ff" points="515.45,-1054.05 524.69,-1048.87 514.24,-1047.15 515.45,-1054.05"/>
</a>
</g>
</g>
<!-- Node15&#45;&gt;Node16 -->
<g id="edge20_Node000015_Node000016" class="edge">
<title>Node15&#45;&gt;Node16</title>
<g id="a_edge20_Node000015_Node000016"><a xlink:title=" ">
<path fill="none" stroke="#63b8ff" d="M512.79,-870.48C484.02,-869.77 450.78,-868.95 421.24,-868.23"/>
<polygon fill="#63b8ff" stroke="#63b8ff" points="512.4,-873.97 522.48,-870.71 512.57,-866.97 512.4,-873.97"/>
</a>
</g>
</g>
<!-- Node17 -->
<g id="Node000017" class="node">
<title>Node17</title>
<g id="a_Node000017"><a xlink:href="../../d6/d88/classBinMysql.html#a6d31e31a0b68da6fbf5db4d4210849a9" target="_top" xlink:title=" ">
<polygon fill="white" stroke="#666666" points="179.88,-878.5 15.38,-878.5 15.38,-854 179.88,-854 179.88,-878.5"/>
<text text-anchor="middle" x="97.62" y="-861.2" font-family="Helvetica,sans-Serif" font-size="14.00">BinMysql\switchVersion</text>
</a>
</g>
</g>
<!-- Node16&#45;&gt;Node17 -->
<g id="edge21_Node000016_Node000017" class="edge">
<title>Node16&#45;&gt;Node17</title>
<g id="a_edge21_Node000016_Node000017"><a xlink:title=" ">
<path fill="none" stroke="#63b8ff" d="M247.07,-866.25C225.02,-866.25 201.62,-866.25 180.07,-866.25"/>
<polygon fill="#63b8ff" stroke="#63b8ff" points="246.94,-869.75 256.94,-866.25 246.94,-862.75 246.94,-869.75"/>
</a>
</g>
</g>
<!-- Node30 -->
<g id="Node000030" class="node">
<title>Node30</title>
<g id="a_Node000030"><a xlink:href="../../d9/d6c/classBinApache.html#a12cfa333889d6aa34dfaaa182b2786f4" target="_top" xlink:title=" ">
<polygon fill="white" stroke="#666666" points="428,-368.5 251.5,-368.5 251.5,-344 428,-344 428,-368.5"/>
<text text-anchor="middle" x="339.75" y="-351.2" font-family="Helvetica,sans-Serif" font-size="14.00">BinApache\switchVersion</text>
</a>
</g>
</g>
<!-- Node29&#45;&gt;Node30 -->
<g id="edge34_Node000029_Node000030" class="edge">
<title>Node29&#45;&gt;Node30</title>
<g id="a_edge34_Node000029_Node000030"><a xlink:title=" ">
<path fill="none" stroke="#63b8ff" d="M487.2,-356.25C467.74,-356.25 447.42,-356.25 428.33,-356.25"/>
<polygon fill="#63b8ff" stroke="#63b8ff" points="487.03,-359.75 497.03,-356.25 487.03,-352.75 487.03,-359.75"/>
</a>
</g>
</g>
<!-- Node32 -->
<g id="Node000032" class="node">
<title>Node32</title>
<g id="a_Node000032"><a xlink:href="../../da/d23/classBinFilezilla.html#a252ac578876f5e66642b8bf9e69393c0" target="_top" xlink:title=" ">
<polygon fill="white" stroke="#666666" points="426.88,-325.5 252.62,-325.5 252.62,-301 426.88,-301 426.88,-325.5"/>
<text text-anchor="middle" x="339.75" y="-308.2" font-family="Helvetica,sans-Serif" font-size="14.00">BinFilezilla\switchVersion</text>
</a>
</g>
</g>
<!-- Node31&#45;&gt;Node32 -->
<g id="edge36_Node000031_Node000032" class="edge">
<title>Node31&#45;&gt;Node32</title>
<g id="a_edge36_Node000031_Node000032"><a xlink:title=" ">
<path fill="none" stroke="#63b8ff" d="M488.2,-313.25C468.11,-313.25 447.06,-313.25 427.37,-313.25"/>
<polygon fill="#63b8ff" stroke="#63b8ff" points="488.06,-316.75 498.06,-313.25 488.06,-309.75 488.06,-316.75"/>
</a>
</g>
</g>
<!-- Node34 -->
<g id="Node000034" class="node">
<title>Node34</title>
<g id="a_Node000034"><a xlink:href="../../db/df2/classBinMailhog.html#a714e6f26c3c035c80798ad83c6d4ac46" target="_top" xlink:title=" ">
<polygon fill="white" stroke="#666666" points="428,-282.5 251.5,-282.5 251.5,-258 428,-258 428,-282.5"/>
<text text-anchor="middle" x="339.75" y="-265.2" font-family="Helvetica,sans-Serif" font-size="14.00">BinMailhog\switchVersion</text>
</a>
</g>
</g>
<!-- Node33&#45;&gt;Node34 -->
<g id="edge38_Node000033_Node000034" class="edge">
<title>Node33&#45;&gt;Node34</title>
<g id="a_edge38_Node000033_Node000034"><a xlink:title=" ">
<path fill="none" stroke="#63b8ff" d="M487.2,-270.25C467.74,-270.25 447.42,-270.25 428.33,-270.25"/>
<polygon fill="#63b8ff" stroke="#63b8ff" points="487.03,-273.75 497.03,-270.25 487.03,-266.75 487.03,-273.75"/>
</a>
</g>
</g>
<!-- Node36 -->
<g id="Node000036" class="node">
<title>Node36</title>
<g id="a_Node000036"><a xlink:href="../../d9/ddd/classBinMailpit.html#a979d18bf9a9bdc22d98655d12307d467" target="_top" xlink:title=" ">
<polygon fill="white" stroke="#666666" points="423.5,-239.5 256,-239.5 256,-215 423.5,-215 423.5,-239.5"/>
<text text-anchor="middle" x="339.75" y="-222.2" font-family="Helvetica,sans-Serif" font-size="14.00">BinMailpit\switchVersion</text>
</a>
</g>
</g>
<!-- Node35&#45;&gt;Node36 -->
<g id="edge40_Node000035_Node000036" class="edge">
<title>Node35&#45;&gt;Node36</title>
<g id="a_edge40_Node000035_Node000036"><a xlink:title=" ">
<path fill="none" stroke="#63b8ff" d="M491.48,-227.25C469.2,-227.25 445.57,-227.25 423.79,-227.25"/>
<polygon fill="#63b8ff" stroke="#63b8ff" points="491.48,-230.75 501.48,-227.25 491.48,-223.75 491.48,-230.75"/>
</a>
</g>
</g>
<!-- Node38 -->
<g id="Node000038" class="node">
<title>Node38</title>
<g id="a_Node000038"><a xlink:href="../../d4/d8f/classBinMariadb.html#ab2c7ba60f8e003f75502fa7112e2e31f" target="_top" xlink:title=" ">
<polygon fill="white" stroke="#666666" points="428.75,-196.5 250.75,-196.5 250.75,-172 428.75,-172 428.75,-196.5"/>
<text text-anchor="middle" x="339.75" y="-179.2" font-family="Helvetica,sans-Serif" font-size="14.00">BinMariadb\switchVersion</text>
</a>
</g>
</g>
<!-- Node37&#45;&gt;Node38 -->
<g id="edge42_Node000037_Node000038" class="edge">
<title>Node37&#45;&gt;Node38</title>
<g id="a_edge42_Node000037_Node000038"><a xlink:title=" ">
<path fill="none" stroke="#63b8ff" d="M486.47,-184.25C467.5,-184.25 447.73,-184.25 429.1,-184.25"/>
<polygon fill="#63b8ff" stroke="#63b8ff" points="486.34,-187.75 496.34,-184.25 486.34,-180.75 486.34,-187.75"/>
</a>
</g>
</g>
<!-- Node40 -->
<g id="Node000040" class="node">
<title>Node40</title>
<g id="a_Node000040"><a xlink:href="../../da/d10/classBinMemcached.html#a3ba44288eaf9296f593d37b514213991" target="_top" xlink:title=" ">
<polygon fill="white" stroke="#666666" points="442.62,-153.5 236.88,-153.5 236.88,-129 442.62,-129 442.62,-153.5"/>
<text text-anchor="middle" x="339.75" y="-136.2" font-family="Helvetica,sans-Serif" font-size="14.00">BinMemcached\switchVersion</text>
</a>
</g>
</g>
<!-- Node39&#45;&gt;Node40 -->
<g id="edge44_Node000039_Node000040" class="edge">
<title>Node39&#45;&gt;Node40</title>
<g id="a_edge44_Node000039_Node000040"><a xlink:title=" ">
<path fill="none" stroke="#63b8ff" d="M472.42,-141.25C462.6,-141.25 452.69,-141.25 442.97,-141.25"/>
<polygon fill="#63b8ff" stroke="#63b8ff" points="472.38,-144.75 482.38,-141.25 472.38,-137.75 472.38,-144.75"/>
</a>
</g>
</g>
<!-- Node42 -->
<g id="Node000042" class="node">
<title>Node42</title>
<g id="a_Node000042"><a xlink:href="../../d8/d9c/classBinNodejs.html#a13a10227cebce8b72fa3408bf946a988" target="_top" xlink:title=" ">
<polygon fill="white" stroke="#666666" points="426.12,-110.5 253.38,-110.5 253.38,-86 426.12,-86 426.12,-110.5"/>
<text text-anchor="middle" x="339.75" y="-93.2" font-family="Helvetica,sans-Serif" font-size="14.00">BinNodejs\switchVersion</text>
</a>
</g>
</g>
<!-- Node41&#45;&gt;Node42 -->
<g id="edge47_Node000041_Node000042" class="edge">
<title>Node41&#45;&gt;Node42</title>
<g id="a_edge47_Node000041_Node000042"><a xlink:title=" ">
<path fill="none" stroke="#63b8ff" d="M488.95,-98.25C468.37,-98.25 446.75,-98.25 426.58,-98.25"/>
<polygon fill="#63b8ff" stroke="#63b8ff" points="488.75,-101.75 498.75,-98.25 488.75,-94.75 488.75,-101.75"/>
</a>
</g>
</g>
<!-- Node44 -->
<g id="Node000044" class="node">
<title>Node44</title>
<g id="a_Node000044"><a xlink:href="../../dc/db9/classBinPostgresql.html#a79ac81202051d309f1cfa47f0545d2b2" target="_top" xlink:title=" ">
<polygon fill="white" stroke="#666666" points="438.12,-67.5 241.38,-67.5 241.38,-43 438.12,-43 438.12,-67.5"/>
<text text-anchor="middle" x="339.75" y="-50.2" font-family="Helvetica,sans-Serif" font-size="14.00">BinPostgresql\switchVersion</text>
</a>
</g>
</g>
<!-- Node43&#45;&gt;Node44 -->
<g id="edge50_Node000043_Node000044" class="edge">
<title>Node43&#45;&gt;Node44</title>
<g id="a_edge50_Node000043_Node000044"><a xlink:title=" ">
<path fill="none" stroke="#63b8ff" d="M477.23,-55.25C464.37,-55.25 451.3,-55.25 438.58,-55.25"/>
<polygon fill="#63b8ff" stroke="#63b8ff" points="476.95,-58.75 486.95,-55.25 476.95,-51.75 476.95,-58.75"/>
</a>
</g>
</g>
<!-- Node46 -->
<g id="Node000046" class="node">
<title>Node46</title>
<g id="a_Node000046"><a xlink:href="../../d8/ddb/classBinXlight.html#af4ac3343dcb90d9f76311cc3036747ff" target="_top" xlink:title=" ">
<polygon fill="white" stroke="#666666" points="421.25,-24.5 258.25,-24.5 258.25,0 421.25,0 421.25,-24.5"/>
<text text-anchor="middle" x="339.75" y="-7.2" font-family="Helvetica,sans-Serif" font-size="14.00">BinXlight\switchVersion</text>
</a>
</g>
</g>
<!-- Node45&#45;&gt;Node46 -->
<g id="edge52_Node000045_Node000046" class="edge">
<title>Node45&#45;&gt;Node46</title>
<g id="a_edge52_Node000045_Node000046"><a xlink:title=" ">
<path fill="none" stroke="#63b8ff" d="M493.86,-12.25C470.12,-12.25 444.7,-12.25 421.54,-12.25"/>
<polygon fill="#63b8ff" stroke="#63b8ff" points="493.85,-15.75 503.85,-12.25 493.85,-8.75 493.85,-15.75"/>
</a>
</g>
</g>
</g>
</svg>
