<?xml version="1.0" encoding="UTF-8" standalone="no"?>
<!--
  - Copyright (c) 2021-2024 Bearsampp
  - License:  GNU General Public License version 3 or later; see LICENSE.txt
  - Author: Bear
  - Website: https://bearsampp.com
  - Github: https://github.com/Bearsampp
  -->

<!DOCTYPE svg PUBLIC "-//W3C//DTD SVG 1.1//EN"
 "http://www.w3.org/Graphics/SVG/1.1/DTD/svg11.dtd">
<!-- Generated by graphviz version 11.0.0 (20240428.1522)
 -->
<!-- Title: Module\getSymlinkPath Pages: 1 -->
<svg width="422pt" height="205pt"
 viewBox="0.00 0.00 421.75 204.50" xmlns="http://www.w3.org/2000/svg" xmlns:xlink="http://www.w3.org/1999/xlink">

<svg id="main" version="1.1" xmlns="http://www.w3.org/2000/svg" xmlns:xlink="http://www.w3.org/1999/xlink" xml:space="preserve" onload="init(evt)">
<style type="text/css"><![CDATA[
.node, .edge {opacity: 0.7;}
.node.selected, .edge.selected {opacity: 1;}
.edge:hover path { stroke: red; }
.edge:hover polygon { stroke: red; fill: red; }
]]></style>
<script type="application/ecmascript" xlink:href="../../svg.min.js"/>
<svg id="graph" class="graph">
<g id="graph0" class="graph" transform="scale(1 1) rotate(0) translate(4 200.5)">
<title>Module\getSymlinkPath</title>
<!-- Node1 -->
<g id="Node000001" class="node">
<title>Node1</title>
<g id="a_Node000001"><a xlink:title=" ">
<polygon fill="#999999" stroke="#666666" points="413.75,-110.5 250,-110.5 250,-86 413.75,-86 413.75,-110.5"/>
<text text-anchor="middle" x="331.88" y="-93.2" font-family="Helvetica,sans-Serif" font-size="14.00">Module\getSymlinkPath</text>
</a>
</g>
</g>
<!-- Node2 -->
<g id="Node000002" class="node">
<title>Node2</title>
<g id="a_Node000002"><a xlink:href="../../df/d54/classAppAdminer.html#a21d4f19f407b6d453ed8feccc4e75a65" target="_top" xlink:title=" ">
<polygon fill="white" stroke="#666666" points="199.38,-196.5 14.62,-196.5 14.62,-172 199.38,-172 199.38,-196.5"/>
<text text-anchor="middle" x="107" y="-179.2" font-family="Helvetica,sans-Serif" font-size="14.00">AppAdminer\updateConfig</text>
</a>
</g>
</g>
<!-- Node1&#45;&gt;Node2 -->
<g id="edge1_Node000001_Node000002" class="edge">
<title>Node1&#45;&gt;Node2</title>
<g id="a_edge1_Node000001_Node000002"><a xlink:title=" ">
<path fill="none" stroke="#63b8ff" d="M302.4,-116.98C279.41,-131.31 245.77,-150.55 214,-162.25 204.21,-165.85 193.68,-168.93 183.2,-171.54"/>
<polygon fill="#63b8ff" stroke="#63b8ff" points="304.02,-120.1 310.59,-111.79 300.27,-114.19 304.02,-120.1"/>
</a>
</g>
</g>
<!-- Node3 -->
<g id="Node000003" class="node">
<title>Node3</title>
<g id="a_Node000003"><a xlink:href="../../dd/dec/classAppPhpmyadmin.html#a78f1cd4b9a3ab52d45ca05da77c56bba" target="_top" xlink:title=" ">
<polygon fill="white" stroke="#666666" points="214,-153.5 0,-153.5 0,-129 214,-129 214,-153.5"/>
<text text-anchor="middle" x="107" y="-136.2" font-family="Helvetica,sans-Serif" font-size="14.00">AppPhpmyadmin\updateConfig</text>
</a>
</g>
</g>
<!-- Node1&#45;&gt;Node3 -->
<g id="edge2_Node000001_Node000003" class="edge">
<title>Node1&#45;&gt;Node3</title>
<g id="a_edge2_Node000001_Node000003"><a xlink:title=" ">
<path fill="none" stroke="#63b8ff" d="M253.92,-113.1C227.83,-118.13 198.94,-123.71 173.8,-128.56"/>
<polygon fill="#63b8ff" stroke="#63b8ff" points="254.27,-116.59 263.42,-111.26 252.94,-109.72 254.27,-116.59"/>
</a>
</g>
</g>
<!-- Node4 -->
<g id="Node000004" class="node">
<title>Node4</title>
<g id="a_Node000004"><a xlink:href="../../dc/d53/classAppPhppgadmin.html#a9e408f7f1ec703bc7aa472c01b53c3af" target="_top" xlink:title=" ">
<polygon fill="white" stroke="#666666" points="212.88,-110.5 1.12,-110.5 1.12,-86 212.88,-86 212.88,-110.5"/>
<text text-anchor="middle" x="107" y="-93.2" font-family="Helvetica,sans-Serif" font-size="14.00">AppPhppgadmin\updateConfig</text>
</a>
</g>
</g>
<!-- Node1&#45;&gt;Node4 -->
<g id="edge3_Node000001_Node000004" class="edge">
<title>Node1&#45;&gt;Node4</title>
<g id="a_edge3_Node000001_Node000004"><a xlink:title=" ">
<path fill="none" stroke="#63b8ff" d="M238.45,-98.25C230.06,-98.25 221.52,-98.25 213.03,-98.25"/>
<polygon fill="#63b8ff" stroke="#63b8ff" points="238.27,-101.75 248.27,-98.25 238.27,-94.75 238.27,-101.75"/>
</a>
</g>
</g>
<!-- Node5 -->
<g id="Node000005" class="node">
<title>Node5</title>
<g id="a_Node000005"><a xlink:href="../../dc/df4/classAppWebgrind.html#a3069eed867a1598db3d2d27b4f726ffe" target="_top" xlink:title=" ">
<polygon fill="white" stroke="#666666" points="203.88,-67.5 10.12,-67.5 10.12,-43 203.88,-43 203.88,-67.5"/>
<text text-anchor="middle" x="107" y="-50.2" font-family="Helvetica,sans-Serif" font-size="14.00">AppWebgrind\updateConfig</text>
</a>
</g>
</g>
<!-- Node1&#45;&gt;Node5 -->
<g id="edge4_Node000001_Node000005" class="edge">
<title>Node1&#45;&gt;Node5</title>
<g id="a_edge4_Node000001_Node000005"><a xlink:title=" ">
<path fill="none" stroke="#63b8ff" d="M253.92,-83.4C227.83,-78.37 198.94,-72.79 173.8,-67.94"/>
<polygon fill="#63b8ff" stroke="#63b8ff" points="252.94,-86.78 263.42,-85.24 254.27,-79.91 252.94,-86.78"/>
</a>
</g>
</g>
<!-- Node6 -->
<g id="Node000006" class="node">
<title>Node6</title>
<g id="a_Node000006"><a xlink:href="../../d3/dc0/classToolGit.html#ac463f968089166b32e648b5e2d7b8d88" target="_top" xlink:title=" ">
<polygon fill="white" stroke="#666666" points="182.88,-24.5 31.12,-24.5 31.12,0 182.88,0 182.88,-24.5"/>
<text text-anchor="middle" x="107" y="-7.2" font-family="Helvetica,sans-Serif" font-size="14.00">ToolGit\updateConfig</text>
</a>
</g>
</g>
<!-- Node1&#45;&gt;Node6 -->
<g id="edge5_Node000001_Node000006" class="edge">
<title>Node1&#45;&gt;Node6</title>
<g id="a_edge5_Node000001_Node000006"><a xlink:title=" ">
<path fill="none" stroke="#63b8ff" d="M302.4,-79.52C279.41,-65.19 245.77,-45.95 214,-34.25 204.21,-30.65 193.68,-27.57 183.2,-24.96"/>
<polygon fill="#63b8ff" stroke="#63b8ff" points="300.27,-82.31 310.59,-84.71 304.02,-76.4 300.27,-82.31"/>
</a>
</g>
</g>
</g>
</svg>
</svg>

<style type='text/css'>
<![CDATA[
[data-mouse-over-selected='false'] { opacity: 0.7; }
[data-mouse-over-selected='true']  { opacity: 1.0; }
]]>
</style>
<script type="application/ecmascript"><![CDATA[
document.addEventListener('DOMContentLoaded', (event) => {
  highlightEdges();
  highlightAdjacentNodes();
});
]]></script>
</svg>
