<?xml version="1.0" encoding="UTF-8" standalone="no"?>
<!--
  - Copyright (c) 2021-2024 Bearsampp
  - License:  GNU General Public License version 3 or later; see LICENSE.txt
  - Author: Bear
  - Website: https://bearsampp.com
  - Github: https://github.com/Bearsampp
  -->

<!DOCTYPE svg PUBLIC "-//W3C//DTD SVG 1.1//EN"
 "http://www.w3.org/Graphics/SVG/1.1/DTD/svg11.dtd">
<!-- Generated by graphviz version 11.0.0 (20240428.1522)
 -->
<!-- Title: Module\update Pages: 1 -->
<!--zoomable 522 -->

<svg id="main" version="1.1" xmlns="http://www.w3.org/2000/svg" xmlns:xlink="http://www.w3.org/1999/xlink" xml:space="preserve" onload="init(evt)">
<style type="text/css"><![CDATA[
.node, .edge {opacity: 0.7;}
.node.selected, .edge.selected {opacity: 1;}
.edge:hover path { stroke: red; }
.edge:hover polygon { stroke: red; fill: red; }
]]></style>

<defs>
  <circle id="rim" cx="0" cy="0" r="7"/>
  <circle id="rim2" cx="0" cy="0" r="3.5"/>
  <g id="zoomPlus">
    <use xlink:href="#rim" fill="#404040"><set attributeName="fill" to="#808080" begin="zoomplus.mouseover" end="zoomplus.mouseout"/></use>
    <path d="M-4,0h8M0,-4v8" fill="none" stroke="white" stroke-width="1.5" pointer-events="none"/>
  </g>
  <g id="zoomMin">
    <use xlink:href="#rim" fill="#404040"><set attributeName="fill" to="#808080" begin="zoomminus.mouseover" end="zoomminus.mouseout"/></use>
    <path d="M-4,0h8" fill="none" stroke="white" stroke-width="1.5" pointer-events="none"/>
  </g>
  <g id="arrowUp" transform="translate(30 24)">
    <use xlink:href="#rim"/>
    <path pointer-events="none" fill="none" stroke="white" stroke-width="1.5" d="M0,-3.0v7 M-2.5,-0.5L0,-3.0L2.5,-0.5"/>
  </g>
  <g id="arrowRight" transform="rotate(90) translate(36 -43)">
    <use xlink:href="#rim"/>
    <path pointer-events="none" fill="none" stroke="white" stroke-width="1.5" d="M0,-3.0v7 M-2.5,-0.5L0,-3.0L2.5,-0.5"/>
  </g>
  <g id="arrowDown" transform="rotate(180) translate(-30 -48)">
    <use xlink:href="#rim"/>
    <path pointer-events="none" fill="none" stroke="white" stroke-width="1.5" d="M0,-3.0v7 M-2.5,-0.5L0,-3.0L2.5,-0.5"/>
  </g>
  <g id="arrowLeft" transform="rotate(270) translate(-36 17)">
    <use xlink:href="#rim"/>
    <path pointer-events="none" fill="none" stroke="white" stroke-width="1.5" d="M0,-3.0v7 M-2.5,-0.5L0,-3.0L2.5,-0.5"/>
  </g>
  <g id="resetDef">
    <use xlink:href="#rim2" fill="#404040"><set attributeName="fill" to="#808080" begin="reset.mouseover" end="reset.mouseout"/></use>
  </g>
</defs>
<script type="application/ecmascript">
var viewWidth = 384;
var viewHeight = 522;
var sectionId = 'dynsection-8';
</script>
<script type="application/ecmascript" xlink:href="../../svg.min.js"/>
<svg id="graph" class="graph">
<g id="viewport">
<title>Module\update</title>
<!-- Node1 -->
<g id="Node000001" class="node">
<title>Node1</title>
<g id="a_Node000001"><a xlink:title=" ">
<polygon fill="#999999" stroke="#666666" points="376.25,-276.75 266.5,-276.75 266.5,-252.25 376.25,-252.25 376.25,-276.75"/>
<text text-anchor="middle" x="321.38" y="-259.45" font-family="Helvetica,sans-Serif" font-size="14.00">Module\update</text>
</a>
</g>
</g>
<!-- Node2 -->
<g id="Node000002" class="node">
<title>Node2</title>
<g id="a_Node000002"><a xlink:href="../../d9/d6c/classBinApache.html#a083bd533269b323aa962c71e3ed67b91" target="_top" xlink:title=" ">
<polygon fill="white" stroke="#666666" points="196,-513.75 34.5,-513.75 34.5,-489.25 196,-489.25 196,-513.75"/>
<text text-anchor="middle" x="115.25" y="-496.45" font-family="Helvetica,sans-Serif" font-size="14.00">BinApache\changePort</text>
</a>
</g>
</g>
<!-- Node1&#45;&gt;Node2 -->
<g id="edge1_Node000001_Node000002" class="edge">
<title>Node1&#45;&gt;Node2</title>
<g id="a_edge1_Node000001_Node000002"><a xlink:title=" ">
<path fill="none" stroke="#63b8ff" d="M317.72,-288.3C311.38,-333.19 291.05,-430.28 230.5,-479.5 220.63,-487.53 208.69,-492.94 196.31,-496.53"/>
<polygon fill="#63b8ff" stroke="#63b8ff" points="321.16,-288.97 318.97,-278.6 314.22,-288.08 321.16,-288.97"/>
</a>
</g>
</g>
<!-- Node3 -->
<g id="Node000003" class="node">
<title>Node3</title>
<g id="a_Node000003"><a xlink:href="../../da/d23/classBinFilezilla.html#a0b76d07f5ea8d1e0710869134b39f86e" target="_top" xlink:title=" ">
<polygon fill="white" stroke="#666666" points="194.88,-470.75 35.62,-470.75 35.62,-446.25 194.88,-446.25 194.88,-470.75"/>
<text text-anchor="middle" x="115.25" y="-453.45" font-family="Helvetica,sans-Serif" font-size="14.00">BinFilezilla\changePort</text>
</a>
</g>
</g>
<!-- Node1&#45;&gt;Node3 -->
<g id="edge2_Node000001_Node000003" class="edge">
<title>Node1&#45;&gt;Node3</title>
<g id="a_edge2_Node000001_Node000003"><a xlink:title=" ">
<path fill="none" stroke="#63b8ff" d="M315.15,-287.73C305.41,-325.34 280.74,-399.11 230.5,-436.5 220.13,-444.22 207.8,-449.45 195.15,-452.96"/>
<polygon fill="#63b8ff" stroke="#63b8ff" points="318.47,-288.89 317.44,-278.35 311.67,-287.23 318.47,-288.89"/>
</a>
</g>
</g>
<!-- Node4 -->
<g id="Node000004" class="node">
<title>Node4</title>
<g id="a_Node000004"><a xlink:href="../../db/df2/classBinMailhog.html#a7ac4063e736338217b6af943cd6b51e7" target="_top" xlink:title=" ">
<polygon fill="white" stroke="#666666" points="196,-427.75 34.5,-427.75 34.5,-403.25 196,-403.25 196,-427.75"/>
<text text-anchor="middle" x="115.25" y="-410.45" font-family="Helvetica,sans-Serif" font-size="14.00">BinMailhog\changePort</text>
</a>
</g>
</g>
<!-- Node1&#45;&gt;Node4 -->
<g id="edge3_Node000001_Node000004" class="edge">
<title>Node1&#45;&gt;Node4</title>
<g id="a_edge3_Node000001_Node000004"><a xlink:title=" ">
<path fill="none" stroke="#63b8ff" d="M311.03,-287.41C297.75,-316.93 270.48,-367.52 230.5,-393.5 220.25,-400.16 208.47,-404.9 196.44,-408.26"/>
<polygon fill="#63b8ff" stroke="#63b8ff" points="314.08,-289.19 314.84,-278.62 307.66,-286.41 314.08,-289.19"/>
</a>
</g>
</g>
<!-- Node5 -->
<g id="Node000005" class="node">
<title>Node5</title>
<g id="a_Node000005"><a xlink:href="../../d9/ddd/classBinMailpit.html#abbd708edd17dce9e2f937fd691761395" target="_top" xlink:title=" ">
<polygon fill="white" stroke="#666666" points="191.5,-384.75 39,-384.75 39,-360.25 191.5,-360.25 191.5,-384.75"/>
<text text-anchor="middle" x="115.25" y="-367.45" font-family="Helvetica,sans-Serif" font-size="14.00">BinMailpit\changePort</text>
</a>
</g>
</g>
<!-- Node1&#45;&gt;Node5 -->
<g id="edge4_Node000001_Node000005" class="edge">
<title>Node1&#45;&gt;Node5</title>
<g id="a_edge4_Node000001_Node000005"><a xlink:title=" ">
<path fill="none" stroke="#63b8ff" d="M304.05,-286.05C287.69,-306.02 260.68,-334.91 230.5,-350.5 218.57,-356.66 205.12,-361.11 191.76,-364.32"/>
<polygon fill="#63b8ff" stroke="#63b8ff" points="306.76,-288.26 310.24,-278.25 301.28,-283.91 306.76,-288.26"/>
</a>
</g>
</g>
<!-- Node6 -->
<g id="Node000006" class="node">
<title>Node6</title>
<g id="a_Node000006"><a xlink:href="../../d4/d8f/classBinMariadb.html#adbe680fe241ced84ce0dc5e62203536e" target="_top" xlink:title=" ">
<polygon fill="white" stroke="#666666" points="196.75,-341.75 33.75,-341.75 33.75,-317.25 196.75,-317.25 196.75,-341.75"/>
<text text-anchor="middle" x="115.25" y="-324.45" font-family="Helvetica,sans-Serif" font-size="14.00">BinMariadb\changePort</text>
</a>
</g>
</g>
<!-- Node1&#45;&gt;Node6 -->
<g id="edge5_Node000001_Node000006" class="edge">
<title>Node1&#45;&gt;Node6</title>
<g id="a_edge5_Node000001_Node000006"><a xlink:title=" ">
<path fill="none" stroke="#63b8ff" d="M288.3,-282.32C271.51,-291 250.36,-300.96 230.5,-307.5 219.56,-311.1 207.83,-314.19 196.21,-316.82"/>
<polygon fill="#63b8ff" stroke="#63b8ff" points="289.6,-285.59 296.8,-277.83 286.32,-279.4 289.6,-285.59"/>
</a>
</g>
</g>
<!-- Node7 -->
<g id="Node000007" class="node">
<title>Node7</title>
<g id="a_Node000007"><a xlink:href="../../da/d10/classBinMemcached.html#a74251cd69f82fc40a87ede6e34f48701" target="_top" xlink:title=" ">
<polygon fill="white" stroke="#666666" points="210.62,-298.75 19.88,-298.75 19.88,-274.25 210.62,-274.25 210.62,-298.75"/>
<text text-anchor="middle" x="115.25" y="-281.45" font-family="Helvetica,sans-Serif" font-size="14.00">BinMemcached\changePort</text>
</a>
</g>
</g>
<!-- Node1&#45;&gt;Node7 -->
<g id="edge6_Node000001_Node000007" class="edge">
<title>Node1&#45;&gt;Node7</title>
<g id="a_edge6_Node000001_Node000007"><a xlink:title=" ">
<path fill="none" stroke="#63b8ff" d="M255.16,-271.53C241.07,-273.05 225.9,-274.68 210.94,-276.29"/>
<polygon fill="#63b8ff" stroke="#63b8ff" points="255.14,-275.05 264.7,-270.5 254.39,-268.09 255.14,-275.05"/>
</a>
</g>
</g>
<!-- Node8 -->
<g id="Node000008" class="node">
<title>Node8</title>
<g id="a_Node000008"><a xlink:href="../../d6/d88/classBinMysql.html#afbd9de6ff63b3f2640f1b8c521fe397c" target="_top" xlink:title=" ">
<polygon fill="white" stroke="#666666" points="190,-255.75 40.5,-255.75 40.5,-231.25 190,-231.25 190,-255.75"/>
<text text-anchor="middle" x="115.25" y="-238.45" font-family="Helvetica,sans-Serif" font-size="14.00">BinMysql\changePort</text>
</a>
</g>
</g>
<!-- Node1&#45;&gt;Node8 -->
<g id="edge7_Node000001_Node000008" class="edge">
<title>Node1&#45;&gt;Node8</title>
<g id="a_edge7_Node000001_Node000008"><a xlink:title=" ">
<path fill="none" stroke="#63b8ff" d="M255.01,-257.78C234.39,-255.65 211.45,-253.29 190.27,-251.12"/>
<polygon fill="#63b8ff" stroke="#63b8ff" points="254.4,-261.23 264.7,-258.77 255.11,-254.27 254.4,-261.23"/>
</a>
</g>
</g>
<!-- Node9 -->
<g id="Node000009" class="node">
<title>Node9</title>
<g id="a_Node000009"><a xlink:href="../../dc/db9/classBinPostgresql.html#a0bc7538679a08420fd5f02832bcb31e9" target="_top" xlink:title=" ">
<polygon fill="white" stroke="#666666" points="206.12,-212.75 24.38,-212.75 24.38,-188.25 206.12,-188.25 206.12,-212.75"/>
<text text-anchor="middle" x="115.25" y="-195.45" font-family="Helvetica,sans-Serif" font-size="14.00">BinPostgresql\changePort</text>
</a>
</g>
</g>
<!-- Node1&#45;&gt;Node9 -->
<g id="edge8_Node000001_Node000009" class="edge">
<title>Node1&#45;&gt;Node9</title>
<g id="a_edge8_Node000001_Node000009"><a xlink:title=" ">
<path fill="none" stroke="#63b8ff" d="M287.56,-246.78C270.87,-238.38 250.04,-228.84 230.5,-222.5 219.45,-218.92 207.6,-215.83 195.87,-213.2"/>
<polygon fill="#63b8ff" stroke="#63b8ff" points="285.52,-249.66 296.02,-251.12 288.72,-243.44 285.52,-249.66"/>
</a>
</g>
</g>
<!-- Node10 -->
<g id="Node000010" class="node">
<title>Node10</title>
<g id="a_Node000010"><a xlink:href="../../d8/ddb/classBinXlight.html#a7c63ec12bf829df33995c2ed75a400c9" target="_top" xlink:title=" ">
<polygon fill="white" stroke="#666666" points="189.25,-169.75 41.25,-169.75 41.25,-145.25 189.25,-145.25 189.25,-169.75"/>
<text text-anchor="middle" x="115.25" y="-152.45" font-family="Helvetica,sans-Serif" font-size="14.00">BinXlight\changePort</text>
</a>
</g>
</g>
<!-- Node1&#45;&gt;Node10 -->
<g id="edge9_Node000001_Node000010" class="edge">
<title>Node1&#45;&gt;Node10</title>
<g id="a_edge9_Node000001_Node000010"><a xlink:title=" ">
<path fill="none" stroke="#63b8ff" d="M303.72,-242.88C287.3,-223.16 260.39,-194.83 230.5,-179.5 217.92,-173.05 203.68,-168.48 189.62,-165.25"/>
<polygon fill="#63b8ff" stroke="#63b8ff" points="300.95,-245.01 309.95,-250.59 306.39,-240.61 300.95,-245.01"/>
</a>
</g>
</g>
<!-- Node11 -->
<g id="Node000011" class="node">
<title>Node11</title>
<g id="a_Node000011"><a xlink:href="../../d4/d8f/classBinMariadb.html#ac61643f0ea240621cda9bbf8acbd6efa" target="_top" xlink:title=" ">
<polygon fill="white" stroke="#666666" points="230.5,-126.75 0,-126.75 0,-102.25 230.5,-102.25 230.5,-126.75"/>
<text text-anchor="middle" x="115.25" y="-109.45" font-family="Helvetica,sans-Serif" font-size="14.00">BinMariadb\changeRootPassword</text>
</a>
</g>
</g>
<!-- Node1&#45;&gt;Node11 -->
<g id="edge10_Node000001_Node000011" class="edge">
<title>Node1&#45;&gt;Node11</title>
<g id="a_edge10_Node000001_Node000011"><a xlink:title=" ">
<path fill="none" stroke="#63b8ff" d="M310.81,-241.37C297.4,-212.03 270.14,-162.16 230.5,-136.5 224.82,-132.82 218.67,-129.73 212.27,-127.14"/>
<polygon fill="#63b8ff" stroke="#63b8ff" points="307.58,-242.73 314.8,-250.48 313.99,-239.92 307.58,-242.73"/>
</a>
</g>
</g>
<!-- Node12 -->
<g id="Node000012" class="node">
<title>Node12</title>
<g id="a_Node000012"><a xlink:href="../../d6/d88/classBinMysql.html#a1204d390c490f53ece3b23b4f1e091bc" target="_top" xlink:title=" ">
<polygon fill="white" stroke="#666666" points="223.75,-83.75 6.75,-83.75 6.75,-59.25 223.75,-59.25 223.75,-83.75"/>
<text text-anchor="middle" x="115.25" y="-66.45" font-family="Helvetica,sans-Serif" font-size="14.00">BinMysql\changeRootPassword</text>
</a>
</g>
</g>
<!-- Node1&#45;&gt;Node12 -->
<g id="edge11_Node000001_Node000012" class="edge">
<title>Node1&#45;&gt;Node12</title>
<g id="a_edge11_Node000001_Node000012"><a xlink:title=" ">
<path fill="none" stroke="#63b8ff" d="M315.11,-241.41C305.31,-204.01 280.56,-130.66 230.5,-93.5 225.63,-89.89 220.34,-86.82 214.78,-84.22"/>
<polygon fill="#63b8ff" stroke="#63b8ff" points="311.61,-241.86 317.41,-250.72 318.41,-240.17 311.61,-241.86"/>
</a>
</g>
</g>
<!-- Node13 -->
<g id="Node000013" class="node">
<title>Node13</title>
<g id="a_Node000013"><a xlink:href="../../dc/db9/classBinPostgresql.html#aadca44c8ab38185777152af69c2542b7" target="_top" xlink:title=" ">
<polygon fill="white" stroke="#666666" points="208.38,-41 22.12,-41 22.12,0 208.38,0 208.38,-41"/>
<text text-anchor="start" x="30.12" y="-23.7" font-family="Helvetica,sans-Serif" font-size="14.00">BinPostgresql\changeRoot</text>
<text text-anchor="middle" x="115.25" y="-7.2" font-family="Helvetica,sans-Serif" font-size="14.00">Password</text>
</a>
</g>
</g>
<!-- Node1&#45;&gt;Node13 -->
<g id="edge12_Node000001_Node000013" class="edge">
<title>Node1&#45;&gt;Node13</title>
<g id="a_edge12_Node000001_Node000013"><a xlink:title=" ">
<path fill="none" stroke="#63b8ff" d="M317.29,-240.57C310.27,-196.24 288.92,-101.22 230.5,-50.5 224,-44.85 216.55,-40.25 208.65,-36.5"/>
<polygon fill="#63b8ff" stroke="#63b8ff" points="313.81,-241 318.72,-250.4 320.74,-239.99 313.81,-241"/>
</a>
</g>
</g>
</g>
</svg>

<g id="navigator" transform="translate(0 0)" fill="#404254">
  <rect fill="#f2f5e9" fill-opacity="0.5" stroke="#606060" stroke-width=".5" x="0" y="0" width="60" height="60"/>
  <use id="zoomplus" xlink:href="#zoomPlus" x="17" y="9" onmousedown="handleZoom(evt,'in')"/>
  <use id="zoomminus" xlink:href="#zoomMin" x="42" y="9" onmousedown="handleZoom(evt,'out')"/>
  <use id="reset" xlink:href="#resetDef" x="30" y="36" onmousedown="handleReset()"/>
   <use id="arrowup" xlink:href="#arrowUp" x="0" y="0" onmousedown="handlePan(0,-1)"/>
  <use id="arrowright" xlink:href="#arrowRight" x="0" y="0" onmousedown="handlePan(1,0)"/>
  <use id="arrowdown" xlink:href="#arrowDown" x="0" y="0" onmousedown="handlePan(0,1)"/>
  <use id="arrowleft" xlink:href="#arrowLeft" x="0" y="0" onmousedown="handlePan(-1,0)"/>
</g>
<svg viewBox="0 0 15 15" width="100%" height="30px" preserveAspectRatio="xMaxYMin meet">
 <g id="arrow_out" transform="scale(0.3 0.3)">
  <a xlink:href="classModule_a47f387037148c9ad87aea328f6439127_icgraph_org.svg" target="_base">
   <rect id="button" ry="5" rx="5" y="6" x="6" height="38" width="38"
        fill="#f2f5e9" fill-opacity="0.5" stroke="#606060" stroke-width="1.0"/>
   <path id="arrow"
     d="M 11.500037,31.436501 C 11.940474,20.09759 22.043105,11.32322 32.158766,21.979434 L 37.068811,17.246167 C 37.068811,17.246167 37.088388,32 37.088388,32 L 22.160133,31.978069 C 22.160133,31.978069 26.997745,27.140456 26.997745,27.140456 C 18.528582,18.264221 13.291696,25.230495 11.500037,31.436501 z"
     style="fill:#404040;"/>
  </a>
 </g>
</svg>

<style type='text/css'>
<![CDATA[
[data-mouse-over-selected='false'] { opacity: 0.7; }
[data-mouse-over-selected='true']  { opacity: 1.0; }
]]>
</style>
<script type="application/ecmascript"><![CDATA[
document.addEventListener('DOMContentLoaded', (event) => {
  highlightEdges();
  highlightAdjacentNodes();
});
]]></script>
</svg>
