<?xml version="1.0" encoding="UTF-8" standalone="no"?>
<!--
  - Copyright (c) 2021-2024 Bearsampp
  - License:  GNU General Public License version 3 or later; see LICENSE.txt
  - Author: Bear
  - Website: https://bearsampp.com
  - Github: https://github.com/Bearsampp
  -->

<!DOCTYPE svg PUBLIC "-//W3C//DTD SVG 1.1//EN"
 "http://www.w3.org/Graphics/SVG/1.1/DTD/svg11.dtd">
<!-- Generated by graphviz version 11.0.0 (20240428.1522)
 -->
<!-- Title: Module\replaceAll Pages: 1 -->
<!--zoomable 1022 -->

<svg id="main" version="1.1" xmlns="http://www.w3.org/2000/svg" xmlns:xlink="http://www.w3.org/1999/xlink" xml:space="preserve" onload="init(evt)">
<style type="text/css"><![CDATA[
.node, .edge {opacity: 0.7;}
.node.selected, .edge.selected {opacity: 1;}
.edge:hover path { stroke: red; }
.edge:hover polygon { stroke: red; fill: red; }
]]></style>

<defs>
  <circle id="rim" cx="0" cy="0" r="7"/>
  <circle id="rim2" cx="0" cy="0" r="3.5"/>
  <g id="zoomPlus">
    <use xlink:href="#rim" fill="#404040"><set attributeName="fill" to="#808080" begin="zoomplus.mouseover" end="zoomplus.mouseout"/></use>
    <path d="M-4,0h8M0,-4v8" fill="none" stroke="white" stroke-width="1.5" pointer-events="none"/>
  </g>
  <g id="zoomMin">
    <use xlink:href="#rim" fill="#404040"><set attributeName="fill" to="#808080" begin="zoomminus.mouseover" end="zoomminus.mouseout"/></use>
    <path d="M-4,0h8" fill="none" stroke="white" stroke-width="1.5" pointer-events="none"/>
  </g>
  <g id="arrowUp" transform="translate(30 24)">
    <use xlink:href="#rim"/>
    <path pointer-events="none" fill="none" stroke="white" stroke-width="1.5" d="M0,-3.0v7 M-2.5,-0.5L0,-3.0L2.5,-0.5"/>
  </g>
  <g id="arrowRight" transform="rotate(90) translate(36 -43)">
    <use xlink:href="#rim"/>
    <path pointer-events="none" fill="none" stroke="white" stroke-width="1.5" d="M0,-3.0v7 M-2.5,-0.5L0,-3.0L2.5,-0.5"/>
  </g>
  <g id="arrowDown" transform="rotate(180) translate(-30 -48)">
    <use xlink:href="#rim"/>
    <path pointer-events="none" fill="none" stroke="white" stroke-width="1.5" d="M0,-3.0v7 M-2.5,-0.5L0,-3.0L2.5,-0.5"/>
  </g>
  <g id="arrowLeft" transform="rotate(270) translate(-36 17)">
    <use xlink:href="#rim"/>
    <path pointer-events="none" fill="none" stroke="white" stroke-width="1.5" d="M0,-3.0v7 M-2.5,-0.5L0,-3.0L2.5,-0.5"/>
  </g>
  <g id="resetDef">
    <use xlink:href="#rim2" fill="#404040"><set attributeName="fill" to="#808080" begin="reset.mouseover" end="reset.mouseout"/></use>
  </g>
</defs>
<script type="application/ecmascript">
var viewWidth = 779;
var viewHeight = 1022;
var sectionId = 'dynsection-7';
</script>
<script type="application/ecmascript" xlink:href="../../svg.min.js"/>
<svg id="graph" class="graph">
<g id="viewport">
<title>Module\replaceAll</title>
<!-- Node1 -->
<g id="Node000001" class="node">
<title>Node1</title>
<g id="a_Node000001"><a xlink:title=" ">
<polygon fill="#999999" stroke="#666666" points="770.5,-518.5 641.25,-518.5 641.25,-494 770.5,-494 770.5,-518.5"/>
<text text-anchor="middle" x="705.88" y="-501.2" font-family="Helvetica,sans-Serif" font-size="14.00">Module\replaceAll</text>
</a>
</g>
</g>
<!-- Node2 -->
<g id="Node000002" class="node">
<title>Node2</title>
<g id="a_Node000002"><a xlink:href="../../d3/d9c/classModule.html#ab6e4627bef25c288252f3b457049346d" target="_top" xlink:title=" ">
<polygon fill="white" stroke="#666666" points="605.25,-518.5 491.75,-518.5 491.75,-494 605.25,-494 605.25,-518.5"/>
<text text-anchor="middle" x="548.5" y="-501.2" font-family="Helvetica,sans-Serif" font-size="14.00">Module\replace</text>
</a>
</g>
</g>
<!-- Node1&#45;&gt;Node2 -->
<g id="edge1_Node000001_Node000002" class="edge">
<title>Node1&#45;&gt;Node2</title>
<g id="a_edge1_Node000001_Node000002"><a xlink:title=" ">
<path fill="none" stroke="#63b8ff" d="M629.44,-506.25C621.38,-506.25 613.28,-506.25 605.5,-506.25"/>
<polygon fill="#63b8ff" stroke="#63b8ff" points="629.27,-509.75 639.27,-506.25 629.27,-502.75 629.27,-509.75"/>
</a>
</g>
</g>
<!-- Node3 -->
<g id="Node000003" class="node">
<title>Node3</title>
<g id="a_Node000003"><a xlink:href="../../db/df2/classBinMailhog.html#ab559ae41ad0f704e17272f4af6238053" target="_top" xlink:title=" ">
<polygon fill="white" stroke="#666666" points="438.88,-1013.5 283.38,-1013.5 283.38,-989 438.88,-989 438.88,-1013.5"/>
<text text-anchor="middle" x="361.12" y="-996.2" font-family="Helvetica,sans-Serif" font-size="14.00">BinMailhog\setApiPort</text>
</a>
</g>
</g>
<!-- Node2&#45;&gt;Node3 -->
<g id="edge2_Node000002_Node000003" class="edge">
<title>Node2&#45;&gt;Node3</title>
<g id="a_edge2_Node000002_Node000003"><a xlink:title=" ">
<path fill="none" stroke="#63b8ff" d="M546.22,-530.03C541.05,-616.62 518.96,-913.51 455.75,-979.25 451.01,-984.18 445.38,-988.1 439.27,-991.2"/>
<polygon fill="#63b8ff" stroke="#63b8ff" points="549.7,-530.32 546.78,-520.13 542.72,-529.92 549.7,-530.32"/>
</a>
</g>
</g>
<!-- Node4 -->
<g id="Node000004" class="node">
<title>Node4</title>
<g id="a_Node000004"><a xlink:href="../../d9/ddd/classBinMailpit.html#afdfcc09f25b06a3e5d16aed677277a14" target="_top" xlink:title=" ">
<polygon fill="white" stroke="#666666" points="429.88,-970.5 292.38,-970.5 292.38,-946 429.88,-946 429.88,-970.5"/>
<text text-anchor="middle" x="361.12" y="-953.2" font-family="Helvetica,sans-Serif" font-size="14.00">BinMailpit\setListen</text>
</a>
</g>
</g>
<!-- Node2&#45;&gt;Node4 -->
<g id="edge3_Node000002_Node000004" class="edge">
<title>Node2&#45;&gt;Node4</title>
<g id="a_edge3_Node000002_Node000004"><a xlink:title=" ">
<path fill="none" stroke="#63b8ff" d="M545.7,-530.21C539.08,-611.85 513.43,-877.37 455.75,-936.25 448.62,-943.53 439.58,-948.58 429.93,-952.07"/>
<polygon fill="#63b8ff" stroke="#63b8ff" points="549.19,-530.5 546.48,-520.25 542.21,-529.95 549.19,-530.5"/>
</a>
</g>
</g>
<!-- Node5 -->
<g id="Node000005" class="node">
<title>Node5</title>
<g id="a_Node000005"><a xlink:href="../../da/d10/classBinMemcached.html#a97a9d2872697f81f8c84dc2821571eda" target="_top" xlink:title=" ">
<polygon fill="white" stroke="#666666" points="455.38,-927.5 266.88,-927.5 266.88,-903 455.38,-903 455.38,-927.5"/>
<text text-anchor="middle" x="361.12" y="-910.2" font-family="Helvetica,sans-Serif" font-size="14.00">BinMemcached\setMemory</text>
</a>
</g>
</g>
<!-- Node2&#45;&gt;Node5 -->
<g id="edge4_Node000002_Node000005" class="edge">
<title>Node2&#45;&gt;Node5</title>
<g id="a_edge4_Node000002_Node000005"><a xlink:title=" ">
<path fill="none" stroke="#63b8ff" d="M545.13,-529.78C537.05,-605.51 508.07,-841.04 455.75,-893.25 452.09,-896.91 447.94,-900 443.47,-902.61"/>
<polygon fill="#63b8ff" stroke="#63b8ff" points="548.58,-530.49 546.13,-520.18 541.62,-529.77 548.58,-530.49"/>
</a>
</g>
</g>
<!-- Node6 -->
<g id="Node000006" class="node">
<title>Node6</title>
<g id="a_Node000006"><a xlink:href="../../d9/d6c/classBinApache.html#ae19ab6169b0ca873651fe311d6a6cbfe" target="_top" xlink:title=" ">
<polygon fill="white" stroke="#666666" points="428.38,-884.5 293.88,-884.5 293.88,-860 428.38,-860 428.38,-884.5"/>
<text text-anchor="middle" x="361.12" y="-867.2" font-family="Helvetica,sans-Serif" font-size="14.00">BinApache\setPort</text>
</a>
</g>
</g>
<!-- Node2&#45;&gt;Node6 -->
<g id="edge5_Node000002_Node000006" class="edge">
<title>Node2&#45;&gt;Node6</title>
<g id="a_edge5_Node000002_Node000006"><a xlink:title=" ">
<path fill="none" stroke="#63b8ff" d="M544.37,-529.88C534.62,-599.99 502.61,-804.77 455.75,-850.25 448.2,-857.58 438.7,-862.63 428.66,-866.08"/>
<polygon fill="#63b8ff" stroke="#63b8ff" points="547.8,-530.65 545.68,-520.27 540.86,-529.71 547.8,-530.65"/>
</a>
</g>
</g>
<!-- Node8 -->
<g id="Node000008" class="node">
<title>Node8</title>
<g id="a_Node000008"><a xlink:href="../../da/d23/classBinFilezilla.html#a79b9c5c44f85242364a88e5cdc8b9f3e" target="_top" xlink:title=" ">
<polygon fill="white" stroke="#666666" points="427.25,-841.5 295,-841.5 295,-817 427.25,-817 427.25,-841.5"/>
<text text-anchor="middle" x="361.12" y="-824.2" font-family="Helvetica,sans-Serif" font-size="14.00">BinFilezilla\setPort</text>
</a>
</g>
</g>
<!-- Node2&#45;&gt;Node8 -->
<g id="edge7_Node000002_Node000008" class="edge">
<title>Node2&#45;&gt;Node8</title>
<g id="a_edge7_Node000002_Node000008"><a xlink:title=" ">
<path fill="none" stroke="#63b8ff" d="M547.73,-530.14C546.92,-587.05 536.55,-731.55 455.75,-807.25 447.83,-814.67 437.9,-819.74 427.48,-823.18"/>
<polygon fill="#63b8ff" stroke="#63b8ff" points="551.23,-530.32 547.77,-520.31 544.23,-530.29 551.23,-530.32"/>
</a>
</g>
</g>
<!-- Node10 -->
<g id="Node000010" class="node">
<title>Node10</title>
<g id="a_Node000010"><a xlink:href="../../d4/d8f/classBinMariadb.html#a4c1d27f6cf6dc710f5be9681941a6b27" target="_top" xlink:title=" ">
<polygon fill="white" stroke="#666666" points="429.12,-798.5 293.12,-798.5 293.12,-774 429.12,-774 429.12,-798.5"/>
<text text-anchor="middle" x="361.12" y="-781.2" font-family="Helvetica,sans-Serif" font-size="14.00">BinMariadb\setPort</text>
</a>
</g>
</g>
<!-- Node2&#45;&gt;Node10 -->
<g id="edge9_Node000002_Node000010" class="edge">
<title>Node2&#45;&gt;Node10</title>
<g id="a_edge9_Node000002_Node000010"><a xlink:title=" ">
<path fill="none" stroke="#63b8ff" d="M546.32,-530.16C542.45,-581.22 525.97,-701.42 455.75,-764.25 448.28,-770.93 439.18,-775.69 429.6,-779.06"/>
<polygon fill="#63b8ff" stroke="#63b8ff" points="549.81,-530.45 546.96,-520.25 542.82,-530 549.81,-530.45"/>
</a>
</g>
</g>
<!-- Node12 -->
<g id="Node000012" class="node">
<title>Node12</title>
<g id="a_Node000012"><a xlink:href="../../da/d10/classBinMemcached.html#a9b1fca163bd87019a841f265ece693cd" target="_top" xlink:title=" ">
<polygon fill="white" stroke="#666666" points="443,-755.5 279.25,-755.5 279.25,-731 443,-731 443,-755.5"/>
<text text-anchor="middle" x="361.12" y="-738.2" font-family="Helvetica,sans-Serif" font-size="14.00">BinMemcached\setPort</text>
</a>
</g>
</g>
<!-- Node2&#45;&gt;Node12 -->
<g id="edge11_Node000002_Node000012" class="edge">
<title>Node2&#45;&gt;Node12</title>
<g id="a_edge11_Node000002_Node000012"><a xlink:title=" ">
<path fill="none" stroke="#63b8ff" d="M544.4,-530.12C537.28,-574.79 515.53,-670.99 455.75,-721.25 451.4,-724.9 446.56,-727.97 441.43,-730.55"/>
<polygon fill="#63b8ff" stroke="#63b8ff" points="547.86,-530.64 545.85,-520.23 540.93,-529.62 547.86,-530.64"/>
</a>
</g>
</g>
<!-- Node14 -->
<g id="Node000014" class="node">
<title>Node14</title>
<g id="a_Node000014"><a xlink:href="../../d6/d88/classBinMysql.html#aab7b36ad5ce8aaa9865e45697027ccf9" target="_top" xlink:title=" ">
<polygon fill="white" stroke="#666666" points="422.38,-712.5 299.88,-712.5 299.88,-688 422.38,-688 422.38,-712.5"/>
<text text-anchor="middle" x="361.12" y="-695.2" font-family="Helvetica,sans-Serif" font-size="14.00">BinMysql\setPort</text>
</a>
</g>
</g>
<!-- Node2&#45;&gt;Node14 -->
<g id="edge13_Node000002_Node000014" class="edge">
<title>Node2&#45;&gt;Node14</title>
<g id="a_edge13_Node000002_Node000014"><a xlink:title=" ">
<path fill="none" stroke="#63b8ff" d="M541.69,-529.8C531.19,-567.26 505.37,-640.08 455.75,-678.25 446.09,-685.68 434.33,-690.67 422.44,-693.99"/>
<polygon fill="#63b8ff" stroke="#63b8ff" points="544.99,-531 544.18,-520.43 538.23,-529.2 544.99,-531"/>
</a>
</g>
</g>
<!-- Node16 -->
<g id="Node000016" class="node">
<title>Node16</title>
<g id="a_Node000016"><a xlink:href="../../dc/db9/classBinPostgresql.html#ae1b66728d186a0041f5fc23026ea4a88" target="_top" xlink:title=" ">
<polygon fill="white" stroke="#666666" points="438.5,-669.5 283.75,-669.5 283.75,-645 438.5,-645 438.5,-669.5"/>
<text text-anchor="middle" x="361.12" y="-652.2" font-family="Helvetica,sans-Serif" font-size="14.00">BinPostgresql\setPort</text>
</a>
</g>
</g>
<!-- Node2&#45;&gt;Node16 -->
<g id="edge15_Node000002_Node000016" class="edge">
<title>Node2&#45;&gt;Node16</title>
<g id="a_edge15_Node000002_Node000016"><a xlink:title=" ">
<path fill="none" stroke="#63b8ff" d="M537.67,-528.92C523.78,-558.18 495.6,-608.47 455.75,-635.25 450.21,-638.98 444.11,-642.07 437.77,-644.65"/>
<polygon fill="#63b8ff" stroke="#63b8ff" points="540.68,-530.76 541.66,-520.21 534.31,-527.85 540.68,-530.76"/>
</a>
</g>
</g>
<!-- Node18 -->
<g id="Node000018" class="node">
<title>Node18</title>
<g id="a_Node000018"><a xlink:href="../../d8/ddb/classBinXlight.html#a718d9bbb0952f07d6fd26727f004812f" target="_top" xlink:title=" ">
<polygon fill="white" stroke="#666666" points="421.62,-626.5 300.62,-626.5 300.62,-602 421.62,-602 421.62,-626.5"/>
<text text-anchor="middle" x="361.12" y="-609.2" font-family="Helvetica,sans-Serif" font-size="14.00">BinXlight\setPort</text>
</a>
</g>
</g>
<!-- Node2&#45;&gt;Node18 -->
<g id="edge17_Node000002_Node000018" class="edge">
<title>Node2&#45;&gt;Node18</title>
<g id="a_edge17_Node000002_Node000018"><a xlink:title=" ">
<path fill="none" stroke="#63b8ff" d="M530.54,-527.58C513.67,-547.34 485.98,-576.05 455.75,-592.25 445.3,-597.85 433.45,-602.04 421.77,-605.16"/>
<polygon fill="#63b8ff" stroke="#63b8ff" points="533.05,-530.04 536.75,-520.11 527.66,-525.57 533.05,-530.04"/>
</a>
</g>
</g>
<!-- Node19 -->
<g id="Node000019" class="node">
<title>Node19</title>
<g id="a_Node000019"><a xlink:href="../../d4/d8f/classBinMariadb.html#aaf577cc08681ed75df8d02f840757e23" target="_top" xlink:title=" ">
<polygon fill="white" stroke="#666666" points="445.25,-583.5 277,-583.5 277,-559 445.25,-559 445.25,-583.5"/>
<text text-anchor="middle" x="361.12" y="-566.2" font-family="Helvetica,sans-Serif" font-size="14.00">BinMariadb\setRootPwd</text>
</a>
</g>
</g>
<!-- Node2&#45;&gt;Node19 -->
<g id="edge18_Node000002_Node000019" class="edge">
<title>Node2&#45;&gt;Node19</title>
<g id="a_edge18_Node000002_Node000019"><a xlink:title=" ">
<path fill="none" stroke="#63b8ff" d="M513.89,-524.06C496.83,-532.56 475.56,-542.36 455.75,-549.25 445.74,-552.73 434.93,-555.84 424.34,-558.54"/>
<polygon fill="#63b8ff" stroke="#63b8ff" points="515.24,-527.3 522.57,-519.65 512.07,-521.05 515.24,-527.3"/>
</a>
</g>
</g>
<!-- Node21 -->
<g id="Node000021" class="node">
<title>Node21</title>
<g id="a_Node000021"><a xlink:href="../../d6/d88/classBinMysql.html#af3216fb20d1d2f235b17b66d5e882b21" target="_top" xlink:title=" ">
<polygon fill="white" stroke="#666666" points="438.5,-540.5 283.75,-540.5 283.75,-516 438.5,-516 438.5,-540.5"/>
<text text-anchor="middle" x="361.12" y="-523.2" font-family="Helvetica,sans-Serif" font-size="14.00">BinMysql\setRootPwd</text>
</a>
</g>
</g>
<!-- Node2&#45;&gt;Node21 -->
<g id="edge20_Node000002_Node000021" class="edge">
<title>Node2&#45;&gt;Node21</title>
<g id="a_edge20_Node000002_Node000021"><a xlink:title=" ">
<path fill="none" stroke="#63b8ff" d="M480.3,-514.23C466.86,-515.82 452.65,-517.51 438.92,-519.14"/>
<polygon fill="#63b8ff" stroke="#63b8ff" points="480.36,-517.74 489.88,-513.09 479.53,-510.79 480.36,-517.74"/>
</a>
</g>
</g>
<!-- Node23 -->
<g id="Node000023" class="node">
<title>Node23</title>
<g id="a_Node000023"><a xlink:href="../../dc/db9/classBinPostgresql.html#a9f4c58b0efb1bd8a2e1e7802fa0040d2" target="_top" xlink:title=" ">
<polygon fill="white" stroke="#666666" points="454.62,-497.5 267.62,-497.5 267.62,-473 454.62,-473 454.62,-497.5"/>
<text text-anchor="middle" x="361.12" y="-480.2" font-family="Helvetica,sans-Serif" font-size="14.00">BinPostgresql\setRootPwd</text>
</a>
</g>
</g>
<!-- Node2&#45;&gt;Node23 -->
<g id="edge22_Node000002_Node000023" class="edge">
<title>Node2&#45;&gt;Node23</title>
<g id="a_edge22_Node000002_Node000023"><a xlink:title=" ">
<path fill="none" stroke="#63b8ff" d="M480.07,-498.61C471.92,-497.69 463.49,-496.73 455.05,-495.78"/>
<polygon fill="#63b8ff" stroke="#63b8ff" points="479.54,-502.07 489.87,-499.72 480.33,-495.12 479.54,-502.07"/>
</a>
</g>
</g>
<!-- Node25 -->
<g id="Node000025" class="node">
<title>Node25</title>
<g id="a_Node000025"><a xlink:href="../../d4/d8f/classBinMariadb.html#a4eb7b08608f859fd846992c8626e1197" target="_top" xlink:title=" ">
<polygon fill="white" stroke="#666666" points="446.38,-454.5 275.88,-454.5 275.88,-430 446.38,-430 446.38,-454.5"/>
<text text-anchor="middle" x="361.12" y="-437.2" font-family="Helvetica,sans-Serif" font-size="14.00">BinMariadb\setRootUser</text>
</a>
</g>
</g>
<!-- Node2&#45;&gt;Node25 -->
<g id="edge24_Node000002_Node000025" class="edge">
<title>Node2&#45;&gt;Node25</title>
<g id="a_edge24_Node000002_Node000025"><a xlink:title=" ">
<path fill="none" stroke="#63b8ff" d="M513.49,-488.72C496.48,-480.46 475.38,-470.97 455.75,-464.25 445.64,-460.79 434.73,-457.68 424.06,-454.97"/>
<polygon fill="#63b8ff" stroke="#63b8ff" points="511.63,-491.71 522.15,-493 514.73,-485.43 511.63,-491.71"/>
</a>
</g>
</g>
<!-- Node26 -->
<g id="Node000026" class="node">
<title>Node26</title>
<g id="a_Node000026"><a xlink:href="../../d6/d88/classBinMysql.html#a821af244a865b1d708bcfee90b22f4c0" target="_top" xlink:title=" ">
<polygon fill="white" stroke="#666666" points="439.62,-411.5 282.62,-411.5 282.62,-387 439.62,-387 439.62,-411.5"/>
<text text-anchor="middle" x="361.12" y="-394.2" font-family="Helvetica,sans-Serif" font-size="14.00">BinMysql\setRootUser</text>
</a>
</g>
</g>
<!-- Node2&#45;&gt;Node26 -->
<g id="edge25_Node000002_Node000026" class="edge">
<title>Node2&#45;&gt;Node26</title>
<g id="a_edge25_Node000002_Node000026"><a xlink:title=" ">
<path fill="none" stroke="#63b8ff" d="M530.26,-484.91C513.33,-465.39 485.73,-437.2 455.75,-421.25 448.82,-417.56 441.28,-414.49 433.59,-411.93"/>
<polygon fill="#63b8ff" stroke="#63b8ff" points="527.58,-487.16 536.7,-492.55 532.93,-482.65 527.58,-487.16"/>
</a>
</g>
</g>
<!-- Node27 -->
<g id="Node000027" class="node">
<title>Node27</title>
<g id="a_Node000027"><a xlink:href="../../dc/db9/classBinPostgresql.html#ae716e3a0c4233baea8ba4047452cde73" target="_top" xlink:title=" ">
<polygon fill="white" stroke="#666666" points="455.75,-368.5 266.5,-368.5 266.5,-344 455.75,-344 455.75,-368.5"/>
<text text-anchor="middle" x="361.12" y="-351.2" font-family="Helvetica,sans-Serif" font-size="14.00">BinPostgresql\setRootUser</text>
</a>
</g>
</g>
<!-- Node2&#45;&gt;Node27 -->
<g id="edge26_Node000002_Node000027" class="edge">
<title>Node2&#45;&gt;Node27</title>
<g id="a_edge26_Node000002_Node000027"><a xlink:title=" ">
<path fill="none" stroke="#63b8ff" d="M537.44,-483.37C523.44,-454.29 495.27,-404.7 455.75,-378.25 450.2,-374.54 444.1,-371.44 437.75,-368.87"/>
<polygon fill="#63b8ff" stroke="#63b8ff" points="534.24,-484.79 541.62,-492.39 540.59,-481.84 534.24,-484.79"/>
</a>
</g>
</g>
<!-- Node28 -->
<g id="Node000028" class="node">
<title>Node28</title>
<g id="a_Node000028"><a xlink:href="../../db/df2/classBinMailhog.html#a6858ce502e978878b7ad224034c8aff3" target="_top" xlink:title=" ">
<polygon fill="white" stroke="#666666" points="445.25,-325.5 277,-325.5 277,-301 445.25,-301 445.25,-325.5"/>
<text text-anchor="middle" x="361.12" y="-308.2" font-family="Helvetica,sans-Serif" font-size="14.00">BinMailhog\setSmtpPort</text>
</a>
</g>
</g>
<!-- Node2&#45;&gt;Node28 -->
<g id="edge27_Node000002_Node000028" class="edge">
<title>Node2&#45;&gt;Node28</title>
<g id="a_edge27_Node000002_Node000028"><a xlink:title=" ">
<path fill="none" stroke="#63b8ff" d="M541.65,-482.83C531.09,-445.58 505.19,-373.19 455.75,-335.25 450.98,-331.59 445.7,-328.53 440.15,-325.96"/>
<polygon fill="#63b8ff" stroke="#63b8ff" points="538.18,-483.39 544.16,-492.14 544.94,-481.57 538.18,-483.39"/>
</a>
</g>
</g>
<!-- Node30 -->
<g id="Node000030" class="node">
<title>Node30</title>
<g id="a_Node000030"><a xlink:href="../../d9/ddd/classBinMailpit.html#ad879868109ea690ebcd0c71bb0ea0400" target="_top" xlink:title=" ">
<polygon fill="white" stroke="#666666" points="440.75,-282.5 281.5,-282.5 281.5,-258 440.75,-258 440.75,-282.5"/>
<text text-anchor="middle" x="361.12" y="-265.2" font-family="Helvetica,sans-Serif" font-size="14.00">BinMailpit\setSmtpPort</text>
</a>
</g>
</g>
<!-- Node2&#45;&gt;Node30 -->
<g id="edge29_Node000002_Node000030" class="edge">
<title>Node2&#45;&gt;Node30</title>
<g id="a_edge29_Node000002_Node000030"><a xlink:title=" ">
<path fill="none" stroke="#63b8ff" d="M544.36,-482.45C537.18,-437.98 515.32,-342.25 455.75,-292.25 451.27,-288.49 446.27,-285.35 440.97,-282.73"/>
<polygon fill="#63b8ff" stroke="#63b8ff" points="540.85,-482.69 545.79,-492.06 547.78,-481.65 540.85,-482.69"/>
</a>
</g>
</g>
<!-- Node32 -->
<g id="Node000032" class="node">
<title>Node32</title>
<g id="a_Node000032"><a xlink:href="../../d9/d6c/classBinApache.html#a45815b039ed736bc7f82cbf96466ad94" target="_top" xlink:title=" ">
<polygon fill="white" stroke="#666666" points="438.5,-239.5 283.75,-239.5 283.75,-215 438.5,-215 438.5,-239.5"/>
<text text-anchor="middle" x="361.12" y="-222.2" font-family="Helvetica,sans-Serif" font-size="14.00">BinApache\setSslPort</text>
</a>
</g>
</g>
<!-- Node2&#45;&gt;Node32 -->
<g id="edge31_Node000002_Node000032" class="edge">
<title>Node2&#45;&gt;Node32</title>
<g id="a_edge31_Node000002_Node000032"><a xlink:title=" ">
<path fill="none" stroke="#63b8ff" d="M546.26,-482.08C542.28,-431 525.6,-311.68 455.75,-249.25 450.77,-244.8 445.06,-241.2 438.97,-238.3"/>
<polygon fill="#63b8ff" stroke="#63b8ff" points="542.76,-482.26 546.92,-492.01 549.75,-481.8 542.76,-482.26"/>
</a>
</g>
</g>
<!-- Node33 -->
<g id="Node000033" class="node">
<title>Node33</title>
<g id="a_Node000033"><a xlink:href="../../da/d23/classBinFilezilla.html#a531deb9e6d3d71ac1fedfa47f430c3a2" target="_top" xlink:title=" ">
<polygon fill="white" stroke="#666666" points="437.38,-196.5 284.88,-196.5 284.88,-172 437.38,-172 437.38,-196.5"/>
<text text-anchor="middle" x="361.12" y="-179.2" font-family="Helvetica,sans-Serif" font-size="14.00">BinFilezilla\setSslPort</text>
</a>
</g>
</g>
<!-- Node2&#45;&gt;Node33 -->
<g id="edge32_Node000002_Node000033" class="edge">
<title>Node2&#45;&gt;Node33</title>
<g id="a_edge32_Node000002_Node000033"><a xlink:title=" ">
<path fill="none" stroke="#63b8ff" d="M547.71,-482.44C546.83,-425.71 536.34,-281.69 455.75,-206.25 450.51,-201.34 444.39,-197.46 437.83,-194.41"/>
<polygon fill="#63b8ff" stroke="#63b8ff" points="544.2,-482.25 547.76,-492.23 551.2,-482.21 544.2,-482.25"/>
</a>
</g>
</g>
<!-- Node34 -->
<g id="Node000034" class="node">
<title>Node34</title>
<g id="a_Node000034"><a xlink:href="../../d8/ddb/classBinXlight.html#ae5c49ad49e46780932918e87de6303b9" target="_top" xlink:title=" ">
<polygon fill="white" stroke="#666666" points="431.75,-153.5 290.5,-153.5 290.5,-129 431.75,-129 431.75,-153.5"/>
<text text-anchor="middle" x="361.12" y="-136.2" font-family="Helvetica,sans-Serif" font-size="14.00">BinXlight\setSslPort</text>
</a>
</g>
</g>
<!-- Node2&#45;&gt;Node34 -->
<g id="edge33_Node000002_Node000034" class="edge">
<title>Node2&#45;&gt;Node34</title>
<g id="a_edge33_Node000002_Node000034"><a xlink:title=" ">
<path fill="none" stroke="#63b8ff" d="M544.36,-482.69C534.59,-412.78 502.5,-208.59 455.75,-163.25 449.04,-156.74 440.78,-152.03 431.98,-148.63"/>
<polygon fill="#63b8ff" stroke="#63b8ff" points="540.85,-482.83 545.68,-492.27 547.78,-481.88 540.85,-482.83"/>
</a>
</g>
</g>
<!-- Node35 -->
<g id="Node000035" class="node">
<title>Node35</title>
<g id="a_Node000035"><a xlink:href="../../db/df2/classBinMailhog.html#a2322d11b1f38e1a7677ccf5ac6e789fc" target="_top" xlink:title=" ">
<polygon fill="white" stroke="#666666" points="434.75,-110.5 287.5,-110.5 287.5,-86 434.75,-86 434.75,-110.5"/>
<text text-anchor="middle" x="361.12" y="-93.2" font-family="Helvetica,sans-Serif" font-size="14.00">BinMailhog\setUiPort</text>
</a>
</g>
</g>
<!-- Node2&#45;&gt;Node35 -->
<g id="edge34_Node000002_Node000035" class="edge">
<title>Node2&#45;&gt;Node35</title>
<g id="a_edge34_Node000002_Node000035"><a xlink:title=" ">
<path fill="none" stroke="#63b8ff" d="M545.12,-482.78C537.01,-407.24 507.95,-172.32 455.75,-120.25 449.84,-114.35 442.67,-109.92 434.95,-106.61"/>
<polygon fill="#63b8ff" stroke="#63b8ff" points="541.6,-482.77 546.13,-492.35 548.57,-482.04 541.6,-482.77"/>
</a>
</g>
</g>
<!-- Node36 -->
<g id="Node000036" class="node">
<title>Node36</title>
<g id="a_Node000036"><a xlink:href="../../d9/ddd/classBinMailpit.html#a899267874d7ba337ec7f61ca19b64d8f" target="_top" xlink:title=" ">
<polygon fill="white" stroke="#666666" points="430.25,-67.5 292,-67.5 292,-43 430.25,-43 430.25,-67.5"/>
<text text-anchor="middle" x="361.12" y="-50.2" font-family="Helvetica,sans-Serif" font-size="14.00">BinMailpit\setUiPort</text>
</a>
</g>
</g>
<!-- Node2&#45;&gt;Node36 -->
<g id="edge35_Node000002_Node000036" class="edge">
<title>Node2&#45;&gt;Node36</title>
<g id="a_edge35_Node000002_Node000036"><a xlink:title=" ">
<path fill="none" stroke="#63b8ff" d="M545.69,-482.35C539.05,-400.89 513.31,-135.98 455.75,-77.25 448.74,-70.1 439.87,-65.09 430.4,-61.61"/>
<polygon fill="#63b8ff" stroke="#63b8ff" points="542.2,-482.58 546.48,-492.27 549.18,-482.03 542.2,-482.58"/>
</a>
</g>
</g>
<!-- Node37 -->
<g id="Node000037" class="node">
<title>Node37</title>
<g id="a_Node000037"><a xlink:href="../../d9/ddd/classBinMailpit.html#a71448e3bb793a48e1a8e4a961bb4bd29" target="_top" xlink:title=" ">
<polygon fill="white" stroke="#666666" points="441.5,-24.5 280.75,-24.5 280.75,0 441.5,0 441.5,-24.5"/>
<text text-anchor="middle" x="361.12" y="-7.2" font-family="Helvetica,sans-Serif" font-size="14.00">BinMailpit\setWebRoot</text>
</a>
</g>
</g>
<!-- Node2&#45;&gt;Node37 -->
<g id="edge36_Node000002_Node000037" class="edge">
<title>Node2&#45;&gt;Node37</title>
<g id="a_edge36_Node000002_Node000037"><a xlink:title=" ">
<path fill="none" stroke="#63b8ff" d="M546.21,-482.52C541.02,-396.11 518.84,-99.84 455.75,-34.25 451.7,-30.04 447.01,-26.57 441.92,-23.71"/>
<polygon fill="#63b8ff" stroke="#63b8ff" points="542.71,-482.61 546.78,-492.39 549.7,-482.21 542.71,-482.61"/>
</a>
</g>
</g>
<!-- Node7 -->
<g id="Node000007" class="node">
<title>Node7</title>
<g id="a_Node000007"><a xlink:href="../../d9/d6c/classBinApache.html#a083bd533269b323aa962c71e3ed67b91" target="_top" xlink:title=" ">
<polygon fill="white" stroke="#666666" points="196,-884.5 34.5,-884.5 34.5,-860 196,-860 196,-884.5"/>
<text text-anchor="middle" x="115.25" y="-867.2" font-family="Helvetica,sans-Serif" font-size="14.00">BinApache\changePort</text>
</a>
</g>
</g>
<!-- Node6&#45;&gt;Node7 -->
<g id="edge6_Node000006_Node000007" class="edge">
<title>Node6&#45;&gt;Node7</title>
<g id="a_edge6_Node000006_Node000007"><a xlink:title=" ">
<path fill="none" stroke="#63b8ff" d="M281.97,-872.25C254.58,-872.25 223.79,-872.25 196.25,-872.25"/>
<polygon fill="#63b8ff" stroke="#63b8ff" points="281.97,-875.75 291.97,-872.25 281.97,-868.75 281.97,-875.75"/>
</a>
</g>
</g>
<!-- Node9 -->
<g id="Node000009" class="node">
<title>Node9</title>
<g id="a_Node000009"><a xlink:href="../../da/d23/classBinFilezilla.html#a0b76d07f5ea8d1e0710869134b39f86e" target="_top" xlink:title=" ">
<polygon fill="white" stroke="#666666" points="194.88,-841.5 35.62,-841.5 35.62,-817 194.88,-817 194.88,-841.5"/>
<text text-anchor="middle" x="115.25" y="-824.2" font-family="Helvetica,sans-Serif" font-size="14.00">BinFilezilla\changePort</text>
</a>
</g>
</g>
<!-- Node8&#45;&gt;Node9 -->
<g id="edge8_Node000008_Node000009" class="edge">
<title>Node8&#45;&gt;Node9</title>
<g id="a_edge8_Node000008_Node000009"><a xlink:title=" ">
<path fill="none" stroke="#63b8ff" d="M283.4,-829.25C255.33,-829.25 223.53,-829.25 195.26,-829.25"/>
<polygon fill="#63b8ff" stroke="#63b8ff" points="283.26,-832.75 293.26,-829.25 283.26,-825.75 283.26,-832.75"/>
</a>
</g>
</g>
<!-- Node11 -->
<g id="Node000011" class="node">
<title>Node11</title>
<g id="a_Node000011"><a xlink:href="../../d4/d8f/classBinMariadb.html#adbe680fe241ced84ce0dc5e62203536e" target="_top" xlink:title=" ">
<polygon fill="white" stroke="#666666" points="196.75,-798.5 33.75,-798.5 33.75,-774 196.75,-774 196.75,-798.5"/>
<text text-anchor="middle" x="115.25" y="-781.2" font-family="Helvetica,sans-Serif" font-size="14.00">BinMariadb\changePort</text>
</a>
</g>
</g>
<!-- Node10&#45;&gt;Node11 -->
<g id="edge10_Node000010_Node000011" class="edge">
<title>Node10&#45;&gt;Node11</title>
<g id="a_edge10_Node000010_Node000011"><a xlink:title=" ">
<path fill="none" stroke="#63b8ff" d="M281.5,-786.25C254.54,-786.25 224.33,-786.25 197.18,-786.25"/>
<polygon fill="#63b8ff" stroke="#63b8ff" points="281.33,-789.75 291.33,-786.25 281.33,-782.75 281.33,-789.75"/>
</a>
</g>
</g>
<!-- Node13 -->
<g id="Node000013" class="node">
<title>Node13</title>
<g id="a_Node000013"><a xlink:href="../../da/d10/classBinMemcached.html#a74251cd69f82fc40a87ede6e34f48701" target="_top" xlink:title=" ">
<polygon fill="white" stroke="#666666" points="210.62,-755.5 19.88,-755.5 19.88,-731 210.62,-731 210.62,-755.5"/>
<text text-anchor="middle" x="115.25" y="-738.2" font-family="Helvetica,sans-Serif" font-size="14.00">BinMemcached\changePort</text>
</a>
</g>
</g>
<!-- Node12&#45;&gt;Node13 -->
<g id="edge12_Node000012_Node000013" class="edge">
<title>Node12&#45;&gt;Node13</title>
<g id="a_edge12_Node000012_Node000013"><a xlink:title=" ">
<path fill="none" stroke="#63b8ff" d="M267.54,-743.25C249.05,-743.25 229.6,-743.25 211.04,-743.25"/>
<polygon fill="#63b8ff" stroke="#63b8ff" points="267.4,-746.75 277.4,-743.25 267.4,-739.75 267.4,-746.75"/>
</a>
</g>
</g>
<!-- Node15 -->
<g id="Node000015" class="node">
<title>Node15</title>
<g id="a_Node000015"><a xlink:href="../../d6/d88/classBinMysql.html#afbd9de6ff63b3f2640f1b8c521fe397c" target="_top" xlink:title=" ">
<polygon fill="white" stroke="#666666" points="190,-712.5 40.5,-712.5 40.5,-688 190,-688 190,-712.5"/>
<text text-anchor="middle" x="115.25" y="-695.2" font-family="Helvetica,sans-Serif" font-size="14.00">BinMysql\changePort</text>
</a>
</g>
</g>
<!-- Node14&#45;&gt;Node15 -->
<g id="edge14_Node000014_Node000015" class="edge">
<title>Node14&#45;&gt;Node15</title>
<g id="a_edge14_Node000014_Node000015"><a xlink:title=" ">
<path fill="none" stroke="#63b8ff" d="M288.02,-700.25C257.28,-700.25 221.44,-700.25 190.48,-700.25"/>
<polygon fill="#63b8ff" stroke="#63b8ff" points="288.01,-703.75 298.01,-700.25 288.01,-696.75 288.01,-703.75"/>
</a>
</g>
</g>
<!-- Node17 -->
<g id="Node000017" class="node">
<title>Node17</title>
<g id="a_Node000017"><a xlink:href="../../dc/db9/classBinPostgresql.html#a0bc7538679a08420fd5f02832bcb31e9" target="_top" xlink:title=" ">
<polygon fill="white" stroke="#666666" points="206.12,-669.5 24.38,-669.5 24.38,-645 206.12,-645 206.12,-669.5"/>
<text text-anchor="middle" x="115.25" y="-652.2" font-family="Helvetica,sans-Serif" font-size="14.00">BinPostgresql\changePort</text>
</a>
</g>
</g>
<!-- Node16&#45;&gt;Node17 -->
<g id="edge16_Node000016_Node000017" class="edge">
<title>Node16&#45;&gt;Node17</title>
<g id="a_edge16_Node000016_Node000017"><a xlink:title=" ">
<path fill="none" stroke="#63b8ff" d="M271.95,-657.25C250.61,-657.25 227.77,-657.25 206.34,-657.25"/>
<polygon fill="#63b8ff" stroke="#63b8ff" points="271.78,-660.75 281.78,-657.25 271.78,-653.75 271.78,-660.75"/>
</a>
</g>
</g>
<!-- Node20 -->
<g id="Node000020" class="node">
<title>Node20</title>
<g id="a_Node000020"><a xlink:href="../../d4/d8f/classBinMariadb.html#ac61643f0ea240621cda9bbf8acbd6efa" target="_top" xlink:title=" ">
<polygon fill="white" stroke="#666666" points="230.5,-583.5 0,-583.5 0,-559 230.5,-559 230.5,-583.5"/>
<text text-anchor="middle" x="115.25" y="-566.2" font-family="Helvetica,sans-Serif" font-size="14.00">BinMariadb\changeRootPassword</text>
</a>
</g>
</g>
<!-- Node19&#45;&gt;Node20 -->
<g id="edge19_Node000019_Node000020" class="edge">
<title>Node19&#45;&gt;Node20</title>
<g id="a_edge19_Node000019_Node000020"><a xlink:title=" ">
<path fill="none" stroke="#63b8ff" d="M265.33,-571.25C254,-571.25 242.34,-571.25 230.77,-571.25"/>
<polygon fill="#63b8ff" stroke="#63b8ff" points="265.02,-574.75 275.02,-571.25 265.02,-567.75 265.02,-574.75"/>
</a>
</g>
</g>
<!-- Node22 -->
<g id="Node000022" class="node">
<title>Node22</title>
<g id="a_Node000022"><a xlink:href="../../d6/d88/classBinMysql.html#a1204d390c490f53ece3b23b4f1e091bc" target="_top" xlink:title=" ">
<polygon fill="white" stroke="#666666" points="223.75,-540.5 6.75,-540.5 6.75,-516 223.75,-516 223.75,-540.5"/>
<text text-anchor="middle" x="115.25" y="-523.2" font-family="Helvetica,sans-Serif" font-size="14.00">BinMysql\changeRootPassword</text>
</a>
</g>
</g>
<!-- Node21&#45;&gt;Node22 -->
<g id="edge21_Node000021_Node000022" class="edge">
<title>Node21&#45;&gt;Node22</title>
<g id="a_edge21_Node000021_Node000022"><a xlink:title=" ">
<path fill="none" stroke="#63b8ff" d="M272.08,-528.25C256.45,-528.25 240.02,-528.25 223.92,-528.25"/>
<polygon fill="#63b8ff" stroke="#63b8ff" points="271.78,-531.75 281.78,-528.25 271.78,-524.75 271.78,-531.75"/>
</a>
</g>
</g>
<!-- Node24 -->
<g id="Node000024" class="node">
<title>Node24</title>
<g id="a_Node000024"><a xlink:href="../../dc/db9/classBinPostgresql.html#aadca44c8ab38185777152af69c2542b7" target="_top" xlink:title=" ">
<polygon fill="white" stroke="#666666" points="208.38,-497.75 22.12,-497.75 22.12,-456.75 208.38,-456.75 208.38,-497.75"/>
<text text-anchor="start" x="30.12" y="-480.45" font-family="Helvetica,sans-Serif" font-size="14.00">BinPostgresql\changeRoot</text>
<text text-anchor="middle" x="115.25" y="-463.95" font-family="Helvetica,sans-Serif" font-size="14.00">Password</text>
</a>
</g>
</g>
<!-- Node23&#45;&gt;Node24 -->
<g id="edge23_Node000023_Node000024" class="edge">
<title>Node23&#45;&gt;Node24</title>
<g id="a_edge23_Node000023_Node000024"><a xlink:title=" ">
<path fill="none" stroke="#63b8ff" d="M255.85,-481.83C240.1,-481.31 223.95,-480.78 208.48,-480.28"/>
<polygon fill="#63b8ff" stroke="#63b8ff" points="255.61,-485.32 265.72,-482.15 255.84,-478.33 255.61,-485.32"/>
</a>
</g>
</g>
<!-- Node29 -->
<g id="Node000029" class="node">
<title>Node29</title>
<g id="a_Node000029"><a xlink:href="../../db/df2/classBinMailhog.html#a7ac4063e736338217b6af943cd6b51e7" target="_top" xlink:title=" ">
<polygon fill="white" stroke="#666666" points="196,-325.5 34.5,-325.5 34.5,-301 196,-301 196,-325.5"/>
<text text-anchor="middle" x="115.25" y="-308.2" font-family="Helvetica,sans-Serif" font-size="14.00">BinMailhog\changePort</text>
</a>
</g>
</g>
<!-- Node28&#45;&gt;Node29 -->
<g id="edge28_Node000028_Node000029" class="edge">
<title>Node28&#45;&gt;Node29</title>
<g id="a_edge28_Node000028_Node000029"><a xlink:title=" ">
<path fill="none" stroke="#63b8ff" d="M265.15,-313.25C242.44,-313.25 218.41,-313.25 196.43,-313.25"/>
<polygon fill="#63b8ff" stroke="#63b8ff" points="265.02,-316.75 275.02,-313.25 265.02,-309.75 265.02,-316.75"/>
</a>
</g>
</g>
<!-- Node31 -->
<g id="Node000031" class="node">
<title>Node31</title>
<g id="a_Node000031"><a xlink:href="../../d9/ddd/classBinMailpit.html#abbd708edd17dce9e2f937fd691761395" target="_top" xlink:title=" ">
<polygon fill="white" stroke="#666666" points="191.5,-282.5 39,-282.5 39,-258 191.5,-258 191.5,-282.5"/>
<text text-anchor="middle" x="115.25" y="-265.2" font-family="Helvetica,sans-Serif" font-size="14.00">BinMailpit\changePort</text>
</a>
</g>
</g>
<!-- Node30&#45;&gt;Node31 -->
<g id="edge30_Node000030_Node000031" class="edge">
<title>Node30&#45;&gt;Node31</title>
<g id="a_edge30_Node000030_Node000031"><a xlink:title=" ">
<path fill="none" stroke="#63b8ff" d="M270.03,-270.25C244.35,-270.25 216.64,-270.25 191.91,-270.25"/>
<polygon fill="#63b8ff" stroke="#63b8ff" points="269.77,-273.75 279.77,-270.25 269.77,-266.75 269.77,-273.75"/>
</a>
</g>
</g>
</g>
</svg>

<g id="navigator" transform="translate(0 0)" fill="#404254">
  <rect fill="#f2f5e9" fill-opacity="0.5" stroke="#606060" stroke-width=".5" x="0" y="0" width="60" height="60"/>
  <use id="zoomplus" xlink:href="#zoomPlus" x="17" y="9" onmousedown="handleZoom(evt,'in')"/>
  <use id="zoomminus" xlink:href="#zoomMin" x="42" y="9" onmousedown="handleZoom(evt,'out')"/>
  <use id="reset" xlink:href="#resetDef" x="30" y="36" onmousedown="handleReset()"/>
   <use id="arrowup" xlink:href="#arrowUp" x="0" y="0" onmousedown="handlePan(0,-1)"/>
  <use id="arrowright" xlink:href="#arrowRight" x="0" y="0" onmousedown="handlePan(1,0)"/>
  <use id="arrowdown" xlink:href="#arrowDown" x="0" y="0" onmousedown="handlePan(0,1)"/>
  <use id="arrowleft" xlink:href="#arrowLeft" x="0" y="0" onmousedown="handlePan(-1,0)"/>
</g>
<svg viewBox="0 0 15 15" width="100%" height="30px" preserveAspectRatio="xMaxYMin meet">
 <g id="arrow_out" transform="scale(0.3 0.3)">
  <a xlink:href="classModule_a7926c9d583fa75128d46ddd32bfcc0ed_icgraph_org.svg" target="_base">
   <rect id="button" ry="5" rx="5" y="6" x="6" height="38" width="38"
        fill="#f2f5e9" fill-opacity="0.5" stroke="#606060" stroke-width="1.0"/>
   <path id="arrow"
     d="M 11.500037,31.436501 C 11.940474,20.09759 22.043105,11.32322 32.158766,21.979434 L 37.068811,17.246167 C 37.068811,17.246167 37.088388,32 37.088388,32 L 22.160133,31.978069 C 22.160133,31.978069 26.997745,27.140456 26.997745,27.140456 C 18.528582,18.264221 13.291696,25.230495 11.500037,31.436501 z"
     style="fill:#404040;"/>
  </a>
 </g>
</svg>

<style type='text/css'>
<![CDATA[
[data-mouse-over-selected='false'] { opacity: 0.7; }
[data-mouse-over-selected='true']  { opacity: 1.0; }
]]>
</style>
<script type="application/ecmascript"><![CDATA[
document.addEventListener('DOMContentLoaded', (event) => {
  highlightEdges();
  highlightAdjacentNodes();
});
]]></script>
</svg>
