<?xml version="1.0" encoding="UTF-8" standalone="no"?>
<!--
  - Copyright (c) 2021-2024 Bearsampp
  - License:  GNU General Public License version 3 or later; see LICENSE.txt
  - Author: Bear
  - Website: https://bearsampp.com
  - Github: https://github.com/Bearsampp
  -->

<!DOCTYPE svg PUBLIC "-//W3C//DTD SVG 1.1//EN"
 "http://www.w3.org/Graphics/SVG/1.1/DTD/svg11.dtd">
<!-- Generated by graphviz version 11.0.0 (20240428.1522)
 -->
<!-- Title: BinMysql\getConf Pages: 1 -->
<svg width="535pt" height="33pt"
 viewBox="0.00 0.00 534.50 32.50" xmlns="http://www.w3.org/2000/svg" xmlns:xlink="http://www.w3.org/1999/xlink">
<g id="graph0" class="graph" transform="scale(1 1) rotate(0) translate(4 28.5)">
<title>BinMysql\getConf</title>
<!-- Node1 -->
<g id="Node000001" class="node">
<title>Node1</title>
<g id="a_Node000001"><a xlink:title=" ">
<polygon fill="#999999" stroke="#666666" points="526.5,-24.5 398.75,-24.5 398.75,0 526.5,0 526.5,-24.5"/>
<text text-anchor="middle" x="462.62" y="-7.2" font-family="Helvetica,sans-Serif" font-size="14.00">BinMysql\getConf</text>
</a>
</g>
</g>
<!-- Node2 -->
<g id="Node000002" class="node">
<title>Node2</title>
<g id="a_Node000002"><a xlink:href="../../d6/d88/classBinMysql.html#ab584c3d562f8f0c12c94c16d571398fb" target="_top" xlink:title=" ">
<polygon fill="white" stroke="#666666" points="362.75,-24.5 200.5,-24.5 200.5,0 362.75,0 362.75,-24.5"/>
<text text-anchor="middle" x="281.62" y="-7.2" font-family="Helvetica,sans-Serif" font-size="14.00">BinMysql\updateConfig</text>
</a>
</g>
</g>
<!-- Node1&#45;&gt;Node2 -->
<g id="edge1_Node000001_Node000002" class="edge">
<title>Node1&#45;&gt;Node2</title>
<g id="a_edge1_Node000001_Node000002"><a xlink:title=" ">
<path fill="none" stroke="#63b8ff" d="M386.91,-12.25C379.06,-12.25 371.06,-12.25 363.15,-12.25"/>
<polygon fill="#63b8ff" stroke="#63b8ff" points="386.75,-15.75 396.75,-12.25 386.75,-8.75 386.75,-15.75"/>
</a>
</g>
</g>
<!-- Node3 -->
<g id="Node000003" class="node">
<title>Node3</title>
<g id="a_Node000003"><a xlink:href="../../d6/d88/classBinMysql.html#a6d31e31a0b68da6fbf5db4d4210849a9" target="_top" xlink:title=" ">
<polygon fill="white" stroke="#666666" points="164.5,-24.5 0,-24.5 0,0 164.5,0 164.5,-24.5"/>
<text text-anchor="middle" x="82.25" y="-7.2" font-family="Helvetica,sans-Serif" font-size="14.00">BinMysql\switchVersion</text>
</a>
</g>
</g>
<!-- Node2&#45;&gt;Node3 -->
<g id="edge2_Node000002_Node000003" class="edge">
<title>Node2&#45;&gt;Node3</title>
<g id="a_edge2_Node000002_Node000003"><a xlink:title=" ">
<path fill="none" stroke="#63b8ff" d="M188.81,-12.25C180.81,-12.25 172.75,-12.25 164.84,-12.25"/>
<polygon fill="#63b8ff" stroke="#63b8ff" points="188.55,-15.75 198.55,-12.25 188.55,-8.75 188.55,-15.75"/>
</a>
</g>
</g>
</g>
</svg>
