<?xml version="1.0" encoding="UTF-8" standalone="no"?>
<!--
  - Copyright (c) 2021-2024 Bearsampp
  - License:  GNU General Public License version 3 or later; see LICENSE.txt
  - Author: Bear
  - Website: https://bearsampp.com
  - Github: https://github.com/Bearsampp
  -->

<!DOCTYPE svg PUBLIC "-//W3C//DTD SVG 1.1//EN"
 "http://www.w3.org/Graphics/SVG/1.1/DTD/svg11.dtd">
<!-- Generated by graphviz version 11.0.0 (20240428.1522)
 -->
<!-- Title: BinMysql\reload Pages: 1 -->
<svg width="710pt" height="119pt"
 viewBox="0.00 0.00 710.25 118.50" xmlns="http://www.w3.org/2000/svg" xmlns:xlink="http://www.w3.org/1999/xlink">
<g id="graph0" class="graph" transform="scale(1 1) rotate(0) translate(4 114.5)">
<title>BinMysql\reload</title>
<!-- Node1 -->
<g id="Node000001" class="node">
<title>Node1</title>
<g id="a_Node000001"><a xlink:title=" ">
<polygon fill="#999999" stroke="#666666" points="702.25,-67.5 585.75,-67.5 585.75,-43 702.25,-43 702.25,-67.5"/>
<text text-anchor="middle" x="644" y="-50.2" font-family="Helvetica,sans-Serif" font-size="14.00">BinMysql\reload</text>
</a>
</g>
</g>
<!-- Node2 -->
<g id="Node000002" class="node">
<title>Node2</title>
<g id="a_Node000002"><a xlink:href="../../d6/d88/classBinMysql.html#a29b889b336a3ffb648e4aaa7083812f1" target="_top" xlink:title=" ">
<polygon fill="white" stroke="#666666" points="549.75,-110.5 398.75,-110.5 398.75,-86 549.75,-86 549.75,-110.5"/>
<text text-anchor="middle" x="474.25" y="-93.2" font-family="Helvetica,sans-Serif" font-size="14.00">BinMysql\__construct</text>
</a>
</g>
</g>
<!-- Node1&#45;&gt;Node2 -->
<g id="edge1_Node000001_Node000002" class="edge">
<title>Node1&#45;&gt;Node2</title>
<g id="a_edge1_Node000001_Node000002"><a xlink:title=" ">
<path fill="none" stroke="#63b8ff" d="M582.66,-70.72C563.71,-75.58 543.02,-80.88 524.9,-85.52"/>
<polygon fill="#63b8ff" stroke="#63b8ff" points="583.29,-74.17 592.11,-68.29 581.55,-67.39 583.29,-74.17"/>
</a>
</g>
</g>
<!-- Node3 -->
<g id="Node000003" class="node">
<title>Node3</title>
<g id="a_Node000003"><a xlink:href="../../d6/d88/classBinMysql.html#ae2f67df247c503657a59721431e74e5d" target="_top" xlink:title=" ">
<polygon fill="white" stroke="#666666" points="544.5,-67.5 404,-67.5 404,-43 544.5,-43 544.5,-67.5"/>
<text text-anchor="middle" x="474.25" y="-50.2" font-family="Helvetica,sans-Serif" font-size="14.00">BinMysql\setEnable</text>
</a>
</g>
</g>
<!-- Node1&#45;&gt;Node3 -->
<g id="edge2_Node000001_Node000003" class="edge">
<title>Node1&#45;&gt;Node3</title>
<g id="a_edge2_Node000001_Node000003"><a xlink:title=" ">
<path fill="none" stroke="#63b8ff" d="M573.81,-55.25C564.28,-55.25 554.5,-55.25 544.96,-55.25"/>
<polygon fill="#63b8ff" stroke="#63b8ff" points="573.76,-58.75 583.76,-55.25 573.76,-51.75 573.76,-58.75"/>
</a>
</g>
</g>
<!-- Node4 -->
<g id="Node000004" class="node">
<title>Node4</title>
<g id="a_Node000004"><a xlink:href="../../d6/d88/classBinMysql.html#a24d1d45c3b303a40e8a83054d533a7d4" target="_top" xlink:title=" ">
<polygon fill="white" stroke="#666666" points="546.75,-24.5 401.75,-24.5 401.75,0 546.75,0 546.75,-24.5"/>
<text text-anchor="middle" x="474.25" y="-7.2" font-family="Helvetica,sans-Serif" font-size="14.00">BinMysql\setVersion</text>
</a>
</g>
</g>
<!-- Node1&#45;&gt;Node4 -->
<g id="edge3_Node000001_Node000004" class="edge">
<title>Node1&#45;&gt;Node4</title>
<g id="a_edge3_Node000001_Node000004"><a xlink:title=" ">
<path fill="none" stroke="#63b8ff" d="M582.66,-39.78C563.71,-34.92 543.02,-29.62 524.9,-24.98"/>
<polygon fill="#63b8ff" stroke="#63b8ff" points="581.55,-43.11 592.11,-42.21 583.29,-36.33 581.55,-43.11"/>
</a>
</g>
</g>
<!-- Node5 -->
<g id="Node000005" class="node">
<title>Node5</title>
<g id="a_Node000005"><a xlink:href="../../d6/d88/classBinMysql.html#ab584c3d562f8f0c12c94c16d571398fb" target="_top" xlink:title=" ">
<polygon fill="white" stroke="#666666" points="362.75,-24.5 200.5,-24.5 200.5,0 362.75,0 362.75,-24.5"/>
<text text-anchor="middle" x="281.62" y="-7.2" font-family="Helvetica,sans-Serif" font-size="14.00">BinMysql\updateConfig</text>
</a>
</g>
</g>
<!-- Node4&#45;&gt;Node5 -->
<g id="edge4_Node000004_Node000005" class="edge">
<title>Node4&#45;&gt;Node5</title>
<g id="a_edge4_Node000004_Node000005"><a xlink:title=" ">
<path fill="none" stroke="#63b8ff" d="M390.14,-12.25C381.13,-12.25 371.96,-12.25 362.98,-12.25"/>
<polygon fill="#63b8ff" stroke="#63b8ff" points="389.94,-15.75 399.94,-12.25 389.94,-8.75 389.94,-15.75"/>
</a>
</g>
</g>
<!-- Node6 -->
<g id="Node000006" class="node">
<title>Node6</title>
<g id="a_Node000006"><a xlink:href="../../d6/d88/classBinMysql.html#a6d31e31a0b68da6fbf5db4d4210849a9" target="_top" xlink:title=" ">
<polygon fill="white" stroke="#666666" points="164.5,-24.5 0,-24.5 0,0 164.5,0 164.5,-24.5"/>
<text text-anchor="middle" x="82.25" y="-7.2" font-family="Helvetica,sans-Serif" font-size="14.00">BinMysql\switchVersion</text>
</a>
</g>
</g>
<!-- Node5&#45;&gt;Node6 -->
<g id="edge5_Node000005_Node000006" class="edge">
<title>Node5&#45;&gt;Node6</title>
<g id="a_edge5_Node000005_Node000006"><a xlink:title=" ">
<path fill="none" stroke="#63b8ff" d="M188.81,-12.25C180.81,-12.25 172.75,-12.25 164.84,-12.25"/>
<polygon fill="#63b8ff" stroke="#63b8ff" points="188.55,-15.75 198.55,-12.25 188.55,-8.75 188.55,-15.75"/>
</a>
</g>
</g>
</g>
</svg>
