<?xml version="1.0" encoding="UTF-8" standalone="no"?>
<!--
  - Copyright (c) 2021-2024 Bearsampp
  - License:  GNU General Public License version 3 or later; see LICENSE.txt
  - Author: Bear
  - Website: https://bearsampp.com
  - Github: https://github.com/Bearsampp
  -->

<!DOCTYPE svg PUBLIC "-//W3C//DTD SVG 1.1//EN"
 "http://www.w3.org/Graphics/SVG/1.1/DTD/svg11.dtd">
<!-- Generated by graphviz version 11.0.0 (20240428.1522)
 -->
<!-- Title: raw_db_list_table_fields_def Pages: 1 -->
<svg width="871pt" height="76pt"
 viewBox="0.00 0.00 871.00 75.50" xmlns="http://www.w3.org/2000/svg" xmlns:xlink="http://www.w3.org/1999/xlink">
<g id="graph0" class="graph" transform="scale(1 1) rotate(0) translate(4 71.5)">
<title>raw_db_list_table_fields_def</title>
<!-- Node1 -->
<g id="Node000001" class="node">
<title>Node1</title>
<g id="a_Node000001"><a xlink:title=" ">
<polygon fill="#999999" stroke="#666666" points="863,-44.5 664,-44.5 664,-20 863,-20 863,-44.5"/>
<text text-anchor="middle" x="763.5" y="-27.2" font-family="Helvetica,sans-Serif" font-size="14.00">raw_db_list_table_fields_def</text>
</a>
</g>
</g>
<!-- Node2 -->
<g id="Node000002" class="node">
<title>Node2</title>
<g id="a_Node000002"><a xlink:href="../../d9/d92/db__common_8inc_8php.html#a82a238eba2de474aa1ab173ac10f0f49" target="_top" xlink:title=" ">
<polygon fill="white" stroke="#666666" points="628,-44.5 488.25,-44.5 488.25,-20 628,-20 628,-44.5"/>
<text text-anchor="middle" x="558.12" y="-27.2" font-family="Helvetica,sans-Serif" font-size="14.00">db_list_table_fields</text>
</a>
</g>
</g>
<!-- Node1&#45;&gt;Node2 -->
<g id="edge1_Node000001_Node000002" class="edge">
<title>Node1&#45;&gt;Node2</title>
<g id="a_edge1_Node000001_Node000002"><a xlink:title=" ">
<path fill="none" stroke="#63b8ff" d="M652.32,-32.25C644.23,-32.25 636.2,-32.25 628.46,-32.25"/>
<polygon fill="#63b8ff" stroke="#63b8ff" points="652.28,-35.75 662.28,-32.25 652.28,-28.75 652.28,-35.75"/>
</a>
</g>
</g>
<!-- Node3 -->
<g id="Node000003" class="node">
<title>Node3</title>
<g id="a_Node000003"><a xlink:href="../../d9/d92/db__common_8inc_8php.html#a8833c99dd19a96686010d6186d464f23" target="_top" xlink:title=" ">
<polygon fill="white" stroke="#666666" points="452.25,-64.5 322.25,-64.5 322.25,-40 452.25,-40 452.25,-64.5"/>
<text text-anchor="middle" x="387.25" y="-47.2" font-family="Helvetica,sans-Serif" font-size="14.00">db_create_record</text>
</a>
</g>
</g>
<!-- Node2&#45;&gt;Node3 -->
<g id="edge2_Node000002_Node000003" class="edge">
<title>Node2&#45;&gt;Node3</title>
<g id="a_edge2_Node000002_Node000003"><a xlink:title=" ">
<path fill="none" stroke="#63b8ff" d="M476.65,-41.78C468.62,-42.73 460.54,-43.69 452.7,-44.62"/>
<polygon fill="#63b8ff" stroke="#63b8ff" points="476.93,-45.27 486.45,-40.62 476.1,-38.32 476.93,-45.27"/>
</a>
</g>
</g>
<!-- Node5 -->
<g id="Node000005" class="node">
<title>Node5</title>
<g id="a_Node000005"><a xlink:href="../../d9/d92/db__common_8inc_8php.html#a3fceaf1354f4886f8e6d9ce79b9f0ce1" target="_top" xlink:title=" ">
<polygon fill="white" stroke="#666666" points="283.25,-24.5 169.75,-24.5 169.75,0 283.25,0 283.25,-24.5"/>
<text text-anchor="middle" x="226.5" y="-7.2" font-family="Helvetica,sans-Serif" font-size="14.00">db_edit_record</text>
</a>
</g>
</g>
<!-- Node2&#45;&gt;Node5 -->
<g id="edge6_Node000002_Node000005" class="edge">
<title>Node2&#45;&gt;Node5</title>
<g id="a_edge6_Node000002_Node000005"><a xlink:title=" ">
<path fill="none" stroke="#63b8ff" d="M476.72,-27.37C416.89,-23.74 336.72,-18.88 283.65,-15.66"/>
<polygon fill="#63b8ff" stroke="#63b8ff" points="476.32,-30.85 486.51,-27.97 476.74,-23.87 476.32,-30.85"/>
</a>
</g>
</g>
<!-- Node4 -->
<g id="Node000004" class="node">
<title>Node4</title>
<g id="a_Node000004"><a xlink:href="../../d9/d92/db__common_8inc_8php.html#a936f838f8c0e21031350e9354cab55d5" target="_top" xlink:title=" ">
<polygon fill="white" stroke="#666666" points="286.25,-67.5 166.75,-67.5 166.75,-43 286.25,-43 286.25,-67.5"/>
<text text-anchor="middle" x="226.5" y="-50.2" font-family="Helvetica,sans-Serif" font-size="14.00">db_create_table</text>
</a>
</g>
</g>
<!-- Node3&#45;&gt;Node4 -->
<g id="edge3_Node000003_Node000004" class="edge">
<title>Node3&#45;&gt;Node4</title>
<g id="a_edge3_Node000003_Node000004"><a xlink:title=" ">
<path fill="none" stroke="#63b8ff" d="M310.79,-53.68C302.71,-53.83 294.57,-53.98 286.72,-54.13"/>
<polygon fill="#63b8ff" stroke="#63b8ff" points="310.69,-57.18 320.62,-53.49 310.56,-50.18 310.69,-57.18"/>
</a>
</g>
</g>
<!-- Node3&#45;&gt;Node5 -->
<g id="edge4_Node000003_Node000005" class="edge">
<title>Node3&#45;&gt;Node5</title>
<g id="a_edge4_Node000003_Node000005"><a xlink:title=" ">
<path fill="none" stroke="#63b8ff" d="M324.92,-36.8C309.38,-32.88 292.87,-28.72 277.95,-24.96"/>
<polygon fill="#63b8ff" stroke="#63b8ff" points="324,-40.17 334.55,-39.22 325.71,-33.39 324,-40.17"/>
</a>
</g>
</g>
<!-- Node6 -->
<g id="Node000006" class="node">
<title>Node6</title>
<g id="a_Node000006"><a xlink:href="../../d9/d92/db__common_8inc_8php.html#a111b2e22e83336d81be9c2fae45a8adb" target="_top" xlink:title=" ">
<polygon fill="white" stroke="#666666" points="130.75,-24.5 0,-24.5 0,0 130.75,0 130.75,-24.5"/>
<text text-anchor="middle" x="65.38" y="-7.2" font-family="Helvetica,sans-Serif" font-size="14.00">db_swap_records</text>
</a>
</g>
</g>
<!-- Node5&#45;&gt;Node6 -->
<g id="edge5_Node000005_Node000006" class="edge">
<title>Node5&#45;&gt;Node6</title>
<g id="a_edge5_Node000005_Node000006"><a xlink:title=" ">
<path fill="none" stroke="#63b8ff" d="M157.92,-12.25C149.07,-12.25 140.02,-12.25 131.21,-12.25"/>
<polygon fill="#63b8ff" stroke="#63b8ff" points="157.88,-15.75 167.88,-12.25 157.88,-8.75 157.88,-15.75"/>
</a>
</g>
</g>
</g>
</svg>
