<?xml version="1.0" encoding="UTF-8" standalone="no"?>
<!--
  - Copyright (c) 2021-2024 Bearsampp
  - License:  GNU General Public License version 3 or later; see LICENSE.txt
  - Author: Bear
  - Website: https://bearsampp.com
  - Github: https://github.com/Bearsampp
  -->

<!DOCTYPE svg PUBLIC "-//W3C//DTD SVG 1.1//EN"
 "http://www.w3.org/Graphics/SVG/1.1/DTD/svg11.dtd">
<!-- Generated by graphviz version 11.0.0 (20240428.1522)
 -->
<!-- Title: raw_db_fetch_array Pages: 1 -->
<!--zoomable 279 -->

<svg id="main" version="1.1" xmlns="http://www.w3.org/2000/svg" xmlns:xlink="http://www.w3.org/1999/xlink" xml:space="preserve" onload="init(evt)">
<style type="text/css"><![CDATA[
.node, .edge {opacity: 0.7;}
.node.selected, .edge.selected {opacity: 1;}
.edge:hover path { stroke: red; }
.edge:hover polygon { stroke: red; fill: red; }
]]></style>

<defs>
  <circle id="rim" cx="0" cy="0" r="7"/>
  <circle id="rim2" cx="0" cy="0" r="3.5"/>
  <g id="zoomPlus">
    <use xlink:href="#rim" fill="#404040"><set attributeName="fill" to="#808080" begin="zoomplus.mouseover" end="zoomplus.mouseout"/></use>
    <path d="M-4,0h8M0,-4v8" fill="none" stroke="white" stroke-width="1.5" pointer-events="none"/>
  </g>
  <g id="zoomMin">
    <use xlink:href="#rim" fill="#404040"><set attributeName="fill" to="#808080" begin="zoomminus.mouseover" end="zoomminus.mouseout"/></use>
    <path d="M-4,0h8" fill="none" stroke="white" stroke-width="1.5" pointer-events="none"/>
  </g>
  <g id="arrowUp" transform="translate(30 24)">
    <use xlink:href="#rim"/>
    <path pointer-events="none" fill="none" stroke="white" stroke-width="1.5" d="M0,-3.0v7 M-2.5,-0.5L0,-3.0L2.5,-0.5"/>
  </g>
  <g id="arrowRight" transform="rotate(90) translate(36 -43)">
    <use xlink:href="#rim"/>
    <path pointer-events="none" fill="none" stroke="white" stroke-width="1.5" d="M0,-3.0v7 M-2.5,-0.5L0,-3.0L2.5,-0.5"/>
  </g>
  <g id="arrowDown" transform="rotate(180) translate(-30 -48)">
    <use xlink:href="#rim"/>
    <path pointer-events="none" fill="none" stroke="white" stroke-width="1.5" d="M0,-3.0v7 M-2.5,-0.5L0,-3.0L2.5,-0.5"/>
  </g>
  <g id="arrowLeft" transform="rotate(270) translate(-36 17)">
    <use xlink:href="#rim"/>
    <path pointer-events="none" fill="none" stroke="white" stroke-width="1.5" d="M0,-3.0v7 M-2.5,-0.5L0,-3.0L2.5,-0.5"/>
  </g>
  <g id="resetDef">
    <use xlink:href="#rim2" fill="#404040"><set attributeName="fill" to="#808080" begin="reset.mouseover" end="reset.mouseout"/></use>
  </g>
</defs>
<script type="application/ecmascript">
var viewWidth = 883;
var viewHeight = 279;
var sectionId = 'dynsection-6';
</script>
<script type="application/ecmascript" xlink:href="../../svg.min.js"/>
<svg id="graph" class="graph">
<g id="viewport">
<title>raw_db_fetch_array</title>
<!-- Node1 -->
<g id="Node000001" class="node">
<title>Node1</title>
<g id="a_Node000001"><a xlink:title=" ">
<polygon fill="#999999" stroke="#666666" points="875,-125.5 733.75,-125.5 733.75,-101 875,-101 875,-125.5"/>
<text text-anchor="middle" x="804.38" y="-108.2" font-family="Helvetica,sans-Serif" font-size="14.00">raw_db_fetch_array</text>
</a>
</g>
</g>
<!-- Node2 -->
<g id="Node000002" class="node">
<title>Node2</title>
<g id="a_Node000002"><a xlink:href="../../d9/d92/db__common_8inc_8php.html#ae530fae07afd2611bf93f712d99dfa95" target="_top" xlink:title=" ">
<polygon fill="white" stroke="#666666" points="697.75,-125.5 586.5,-125.5 586.5,-101 697.75,-101 697.75,-125.5"/>
<text text-anchor="middle" x="642.12" y="-108.2" font-family="Helvetica,sans-Serif" font-size="14.00">db_fetch_array</text>
</a>
</g>
</g>
<!-- Node1&#45;&gt;Node2 -->
<g id="edge1_Node000001_Node000002" class="edge">
<title>Node1&#45;&gt;Node2</title>
<g id="a_edge1_Node000001_Node000002"><a xlink:title=" ">
<path fill="none" stroke="#63b8ff" d="M722.27,-113.25C713.97,-113.25 705.69,-113.25 697.78,-113.25"/>
<polygon fill="#63b8ff" stroke="#63b8ff" points="722.04,-116.75 732.04,-113.25 722.04,-109.75 722.04,-116.75"/>
</a>
</g>
</g>
<!-- Node3 -->
<g id="Node000003" class="node">
<title>Node3</title>
<g id="a_Node000003"><a xlink:href="../../d9/d92/db__common_8inc_8php.html#a8833c99dd19a96686010d6186d464f23" target="_top" xlink:title=" ">
<polygon fill="white" stroke="#666666" points="516,-227.5 386,-227.5 386,-203 516,-203 516,-227.5"/>
<text text-anchor="middle" x="451" y="-210.2" font-family="Helvetica,sans-Serif" font-size="14.00">db_create_record</text>
</a>
</g>
</g>
<!-- Node2&#45;&gt;Node3 -->
<g id="edge2_Node000002_Node000003" class="edge">
<title>Node2&#45;&gt;Node3</title>
<g id="a_edge2_Node000002_Node000003"><a xlink:title=" ">
<path fill="none" stroke="#63b8ff" d="M622.17,-133.54C605,-150.76 578.23,-174.88 550.5,-189.25 539.9,-194.74 528.04,-199.14 516.33,-202.65"/>
<polygon fill="#63b8ff" stroke="#63b8ff" points="624.26,-136.41 628.72,-126.8 619.24,-131.53 624.26,-136.41"/>
</a>
</g>
</g>
<!-- Node6 -->
<g id="Node000006" class="node">
<title>Node6</title>
<g id="a_Node000006"><a xlink:href="../../d9/d92/db__common_8inc_8php.html#a111b2e22e83336d81be9c2fae45a8adb" target="_top" xlink:title=" ">
<polygon fill="white" stroke="#666666" points="130.75,-187.5 0,-187.5 0,-163 130.75,-163 130.75,-187.5"/>
<text text-anchor="middle" x="65.38" y="-170.2" font-family="Helvetica,sans-Serif" font-size="14.00">db_swap_records</text>
</a>
</g>
</g>
<!-- Node2&#45;&gt;Node6 -->
<g id="edge11_Node000002_Node000006" class="edge">
<title>Node2&#45;&gt;Node6</title>
<g id="a_edge11_Node000002_Node000006"><a xlink:title=" ">
<path fill="none" stroke="#63b8ff" d="M610.84,-131.41C593.76,-140.67 571.65,-151.05 550.5,-156.25 403.88,-192.3 224.86,-187.14 130.95,-180.83"/>
<polygon fill="#63b8ff" stroke="#63b8ff" points="612.45,-134.53 619.46,-126.59 609.03,-128.42 612.45,-134.53"/>
</a>
</g>
</g>
<!-- Node7 -->
<g id="Node000007" class="node">
<title>Node7</title>
<g id="a_Node000007"><a xlink:href="../../d9/d92/db__common_8inc_8php.html#a7bd603470b466f5d841634e4f2deb847" target="_top" xlink:title=" ">
<polygon fill="white" stroke="#666666" points="499.12,-147.5 402.88,-147.5 402.88,-123 499.12,-123 499.12,-147.5"/>
<text text-anchor="middle" x="451" y="-130.2" font-family="Helvetica,sans-Serif" font-size="14.00">db_get_data</text>
</a>
</g>
</g>
<!-- Node2&#45;&gt;Node7 -->
<g id="edge6_Node000002_Node000007" class="edge">
<title>Node2&#45;&gt;Node7</title>
<g id="a_edge6_Node000002_Node000007"><a xlink:title=" ">
<path fill="none" stroke="#63b8ff" d="M574.96,-120.95C550.05,-123.84 522.25,-127.08 499.39,-129.74"/>
<polygon fill="#63b8ff" stroke="#63b8ff" points="575.14,-124.45 584.66,-119.82 574.33,-117.5 575.14,-124.45"/>
</a>
</g>
</g>
<!-- Node9 -->
<g id="Node000009" class="node">
<title>Node9</title>
<g id="a_Node000009"><a xlink:href="../../d9/d92/db__common_8inc_8php.html#a013284fcfe2e9831d68cd86b793a1d42" target="_top" xlink:title=" ">
<polygon fill="white" stroke="#666666" points="491.25,-104.5 410.75,-104.5 410.75,-80 491.25,-80 491.25,-104.5"/>
<text text-anchor="middle" x="451" y="-87.2" font-family="Helvetica,sans-Serif" font-size="14.00">db_get_id</text>
</a>
</g>
</g>
<!-- Node2&#45;&gt;Node9 -->
<g id="edge8_Node000002_Node000009" class="edge">
<title>Node2&#45;&gt;Node9</title>
<g id="a_edge8_Node000002_Node000009"><a xlink:title=" ">
<path fill="none" stroke="#63b8ff" d="M574.89,-105.9C547.04,-102.8 515.58,-99.31 491.46,-96.63"/>
<polygon fill="#63b8ff" stroke="#63b8ff" points="574.34,-109.36 584.66,-106.98 575.11,-102.4 574.34,-109.36"/>
</a>
</g>
</g>
<!-- Node10 -->
<g id="Node000010" class="node">
<title>Node10</title>
<g id="a_Node000010"><a xlink:href="../../d9/d92/db__common_8inc_8php.html#a14c6dea7a68f757bca21db9b70b5454d" target="_top" xlink:title=" ">
<polygon fill="white" stroke="#666666" points="315.5,-84.5 166.75,-84.5 166.75,-60 315.5,-60 315.5,-84.5"/>
<text text-anchor="middle" x="241.12" y="-67.2" font-family="Helvetica,sans-Serif" font-size="14.00">db_get_next_free_id</text>
</a>
</g>
</g>
<!-- Node2&#45;&gt;Node10 -->
<g id="edge9_Node000002_Node000010" class="edge">
<title>Node2&#45;&gt;Node10</title>
<g id="a_edge9_Node000002_Node000010"><a xlink:title=" ">
<path fill="none" stroke="#63b8ff" d="M610.87,-95.19C593.79,-86.05 571.68,-75.92 550.5,-71.25 471.82,-53.9 379.07,-57.3 315.99,-63.04"/>
<polygon fill="#63b8ff" stroke="#63b8ff" points="609.03,-98.17 619.48,-99.96 612.43,-92.05 609.03,-98.17"/>
</a>
</g>
</g>
<!-- Node11 -->
<g id="Node000011" class="node">
<title>Node11</title>
<g id="a_Node000011"><a xlink:href="../../d3/d41/db__sqlite_8inc_8php.html#a58cd9e1d69cbdfae39b0dbfa12592bc9" target="_top" xlink:title=" ">
<polygon fill="white" stroke="#666666" points="550.5,-24.5 351.5,-24.5 351.5,0 550.5,0 550.5,-24.5"/>
<text text-anchor="middle" x="451" y="-7.2" font-family="Helvetica,sans-Serif" font-size="14.00">raw_db_list_table_fields_def</text>
</a>
</g>
</g>
<!-- Node2&#45;&gt;Node11 -->
<g id="edge12_Node000002_Node000011" class="edge">
<title>Node2&#45;&gt;Node11</title>
<g id="a_edge12_Node000002_Node000011"><a xlink:title=" ">
<path fill="none" stroke="#63b8ff" d="M621.82,-92.95C604.62,-75.98 577.97,-52.37 550.5,-38.25 539.96,-32.83 528.19,-28.47 516.56,-24.98"/>
<polygon fill="#63b8ff" stroke="#63b8ff" points="618.88,-94.95 628.41,-99.59 623.86,-90.03 618.88,-94.95"/>
</a>
</g>
</g>
<!-- Node4 -->
<g id="Node000004" class="node">
<title>Node4</title>
<g id="a_Node000004"><a xlink:href="../../d9/d92/db__common_8inc_8php.html#a936f838f8c0e21031350e9354cab55d5" target="_top" xlink:title=" ">
<polygon fill="white" stroke="#666666" points="300.88,-270.5 181.38,-270.5 181.38,-246 300.88,-246 300.88,-270.5"/>
<text text-anchor="middle" x="241.12" y="-253.2" font-family="Helvetica,sans-Serif" font-size="14.00">db_create_table</text>
</a>
</g>
</g>
<!-- Node3&#45;&gt;Node4 -->
<g id="edge3_Node000003_Node000004" class="edge">
<title>Node3&#45;&gt;Node4</title>
<g id="a_edge3_Node000003_Node000004"><a xlink:title=" ">
<path fill="none" stroke="#63b8ff" d="M377.27,-230.29C352.44,-235.43 324.99,-241.11 301.35,-246"/>
<polygon fill="#63b8ff" stroke="#63b8ff" points="377.91,-233.74 386.99,-228.28 376.49,-226.88 377.91,-233.74"/>
</a>
</g>
</g>
<!-- Node5 -->
<g id="Node000005" class="node">
<title>Node5</title>
<g id="a_Node000005"><a xlink:href="../../d9/d92/db__common_8inc_8php.html#a3fceaf1354f4886f8e6d9ce79b9f0ce1" target="_top" xlink:title=" ">
<polygon fill="white" stroke="#666666" points="297.88,-227.5 184.38,-227.5 184.38,-203 297.88,-203 297.88,-227.5"/>
<text text-anchor="middle" x="241.12" y="-210.2" font-family="Helvetica,sans-Serif" font-size="14.00">db_edit_record</text>
</a>
</g>
</g>
<!-- Node3&#45;&gt;Node5 -->
<g id="edge4_Node000003_Node000005" class="edge">
<title>Node3&#45;&gt;Node5</title>
<g id="a_edge4_Node000003_Node000005"><a xlink:title=" ">
<path fill="none" stroke="#63b8ff" d="M374.27,-215.25C349.08,-215.25 321.51,-215.25 298.09,-215.25"/>
<polygon fill="#63b8ff" stroke="#63b8ff" points="374.14,-218.75 384.14,-215.25 374.14,-211.75 374.14,-218.75"/>
</a>
</g>
</g>
<!-- Node5&#45;&gt;Node6 -->
<g id="edge5_Node000005_Node000006" class="edge">
<title>Node5&#45;&gt;Node6</title>
<g id="a_edge5_Node000005_Node000006"><a xlink:title=" ">
<path fill="none" stroke="#63b8ff" d="M173.99,-200.02C156.7,-196.04 138.24,-191.8 121.59,-187.96"/>
<polygon fill="#63b8ff" stroke="#63b8ff" points="173.14,-203.42 183.67,-202.25 174.71,-196.6 173.14,-203.42"/>
</a>
</g>
</g>
<!-- Node8 -->
<g id="Node000008" class="node">
<title>Node8</title>
<g id="a_Node000008"><a xlink:href="../../d9/d92/db__common_8inc_8php.html#aee9b4beb331414bb0a79ff61ce3f9587" target="_top" xlink:title=" ">
<polygon fill="white" stroke="#666666" points="292.62,-147.5 189.62,-147.5 189.62,-123 292.62,-123 292.62,-147.5"/>
<text text-anchor="middle" x="241.12" y="-130.2" font-family="Helvetica,sans-Serif" font-size="14.00">db_get_index</text>
</a>
</g>
</g>
<!-- Node7&#45;&gt;Node8 -->
<g id="edge7_Node000007_Node000008" class="edge">
<title>Node7&#45;&gt;Node8</title>
<g id="a_edge7_Node000007_Node000008"><a xlink:title=" ">
<path fill="none" stroke="#63b8ff" d="M391.07,-135.25C360.14,-135.25 322.63,-135.25 292.98,-135.25"/>
<polygon fill="#63b8ff" stroke="#63b8ff" points="391.06,-138.75 401.06,-135.25 391.06,-131.75 391.06,-138.75"/>
</a>
</g>
</g>
<!-- Node10&#45;&gt;Node6 -->
<g id="edge10_Node000010_Node000006" class="edge">
<title>Node10&#45;&gt;Node6</title>
<g id="a_edge10_Node000010_Node000006"><a xlink:title=" ">
<path fill="none" stroke="#63b8ff" d="M207.78,-90.52C194.96,-97.83 180.12,-106.36 166.75,-114.25 138.82,-130.72 106.87,-150.27 86.66,-162.71"/>
<polygon fill="#63b8ff" stroke="#63b8ff" points="209.28,-93.7 216.24,-85.71 205.82,-87.61 209.28,-93.7"/>
</a>
</g>
</g>
</g>
</svg>

<g id="navigator" transform="translate(0 0)" fill="#404254">
  <rect fill="#f2f5e9" fill-opacity="0.5" stroke="#606060" stroke-width=".5" x="0" y="0" width="60" height="60"/>
  <use id="zoomplus" xlink:href="#zoomPlus" x="17" y="9" onmousedown="handleZoom(evt,'in')"/>
  <use id="zoomminus" xlink:href="#zoomMin" x="42" y="9" onmousedown="handleZoom(evt,'out')"/>
  <use id="reset" xlink:href="#resetDef" x="30" y="36" onmousedown="handleReset()"/>
   <use id="arrowup" xlink:href="#arrowUp" x="0" y="0" onmousedown="handlePan(0,-1)"/>
  <use id="arrowright" xlink:href="#arrowRight" x="0" y="0" onmousedown="handlePan(1,0)"/>
  <use id="arrowdown" xlink:href="#arrowDown" x="0" y="0" onmousedown="handlePan(0,1)"/>
  <use id="arrowleft" xlink:href="#arrowLeft" x="0" y="0" onmousedown="handlePan(-1,0)"/>
</g>
<svg viewBox="0 0 15 15" width="100%" height="30px" preserveAspectRatio="xMaxYMin meet">
 <g id="arrow_out" transform="scale(0.3 0.3)">
  <a xlink:href="db__mysql_8inc_8php_aab90de61690f8cff6faef90d221daa38_icgraph_org.svg" target="_base">
   <rect id="button" ry="5" rx="5" y="6" x="6" height="38" width="38"
        fill="#f2f5e9" fill-opacity="0.5" stroke="#606060" stroke-width="1.0"/>
   <path id="arrow"
     d="M 11.500037,31.436501 C 11.940474,20.09759 22.043105,11.32322 32.158766,21.979434 L 37.068811,17.246167 C 37.068811,17.246167 37.088388,32 37.088388,32 L 22.160133,31.978069 C 22.160133,31.978069 26.997745,27.140456 26.997745,27.140456 C 18.528582,18.264221 13.291696,25.230495 11.500037,31.436501 z"
     style="fill:#404040;"/>
  </a>
 </g>
</svg>

<style type='text/css'>
<![CDATA[
[data-mouse-over-selected='false'] { opacity: 0.7; }
[data-mouse-over-selected='true']  { opacity: 1.0; }
]]>
</style>
<script type="application/ecmascript"><![CDATA[
document.addEventListener('DOMContentLoaded', (event) => {
  highlightEdges();
  highlightAdjacentNodes();
});
]]></script>
</svg>
