<?xml version="1.0" encoding="UTF-8" standalone="no"?>
<!--
  - Copyright (c) 2021-2024 Bearsampp
  - License:  GNU General Public License version 3 or later; see LICENSE.txt
  - Author: Bear
  - Website: https://bearsampp.com
  - Github: https://github.com/Bearsampp
  -->

<!DOCTYPE svg PUBLIC "-//W3C//DTD SVG 1.1//EN"
 "http://www.w3.org/Graphics/SVG/1.1/DTD/svg11.dtd">
<!-- Generated by graphviz version 11.0.0 (20240428.1522)
 -->
<!-- Title: raw_db_query Pages: 1 -->
<!--zoomable 396 -->

<svg id="main" version="1.1" xmlns="http://www.w3.org/2000/svg" xmlns:xlink="http://www.w3.org/1999/xlink" xml:space="preserve" onload="init(evt)">
<style type="text/css"><![CDATA[
.node, .edge {opacity: 0.7;}
.node.selected, .edge.selected {opacity: 1;}
.edge:hover path { stroke: red; }
.edge:hover polygon { stroke: red; fill: red; }
]]></style>

<defs>
  <circle id="rim" cx="0" cy="0" r="7"/>
  <circle id="rim2" cx="0" cy="0" r="3.5"/>
  <g id="zoomPlus">
    <use xlink:href="#rim" fill="#404040"><set attributeName="fill" to="#808080" begin="zoomplus.mouseover" end="zoomplus.mouseout"/></use>
    <path d="M-4,0h8M0,-4v8" fill="none" stroke="white" stroke-width="1.5" pointer-events="none"/>
  </g>
  <g id="zoomMin">
    <use xlink:href="#rim" fill="#404040"><set attributeName="fill" to="#808080" begin="zoomminus.mouseover" end="zoomminus.mouseout"/></use>
    <path d="M-4,0h8" fill="none" stroke="white" stroke-width="1.5" pointer-events="none"/>
  </g>
  <g id="arrowUp" transform="translate(30 24)">
    <use xlink:href="#rim"/>
    <path pointer-events="none" fill="none" stroke="white" stroke-width="1.5" d="M0,-3.0v7 M-2.5,-0.5L0,-3.0L2.5,-0.5"/>
  </g>
  <g id="arrowRight" transform="rotate(90) translate(36 -43)">
    <use xlink:href="#rim"/>
    <path pointer-events="none" fill="none" stroke="white" stroke-width="1.5" d="M0,-3.0v7 M-2.5,-0.5L0,-3.0L2.5,-0.5"/>
  </g>
  <g id="arrowDown" transform="rotate(180) translate(-30 -48)">
    <use xlink:href="#rim"/>
    <path pointer-events="none" fill="none" stroke="white" stroke-width="1.5" d="M0,-3.0v7 M-2.5,-0.5L0,-3.0L2.5,-0.5"/>
  </g>
  <g id="arrowLeft" transform="rotate(270) translate(-36 17)">
    <use xlink:href="#rim"/>
    <path pointer-events="none" fill="none" stroke="white" stroke-width="1.5" d="M0,-3.0v7 M-2.5,-0.5L0,-3.0L2.5,-0.5"/>
  </g>
  <g id="resetDef">
    <use xlink:href="#rim2" fill="#404040"><set attributeName="fill" to="#808080" begin="reset.mouseover" end="reset.mouseout"/></use>
  </g>
</defs>
<script type="application/ecmascript">
var viewWidth = 689;
var viewHeight = 396;
var sectionId = 'dynsection-11';
</script>
<script type="application/ecmascript" xlink:href="../../svg.min.js"/>
<svg id="graph" class="graph">
<g id="viewport">
<title>raw_db_query</title>
<!-- Node1 -->
<g id="Node000001" class="node">
<title>Node1</title>
<g id="a_Node000001"><a xlink:title=" ">
<polygon fill="#999999" stroke="#666666" points="681.25,-211.5 575.25,-211.5 575.25,-187 681.25,-187 681.25,-211.5"/>
<text text-anchor="middle" x="628.25" y="-194.2" font-family="Helvetica,sans-Serif" font-size="14.00">raw_db_query</text>
</a>
</g>
</g>
<!-- Node2 -->
<g id="Node000002" class="node">
<title>Node2</title>
<g id="a_Node000002"><a xlink:href="../../d9/d92/db__common_8inc_8php.html#a8833c99dd19a96686010d6186d464f23" target="_top" xlink:title=" ">
<polygon fill="white" stroke="#666666" points="535.5,-351.5 405.5,-351.5 405.5,-327 535.5,-327 535.5,-351.5"/>
<text text-anchor="middle" x="470.5" y="-334.2" font-family="Helvetica,sans-Serif" font-size="14.00">db_create_record</text>
</a>
</g>
</g>
<!-- Node1&#45;&gt;Node2 -->
<g id="edge1_Node000001_Node000002" class="edge">
<title>Node1&#45;&gt;Node2</title>
<g id="a_edge1_Node000001_Node000002"><a xlink:title=" ">
<path fill="none" stroke="#63b8ff" d="M615.15,-221.51C600.31,-246.91 572.94,-288.17 539.25,-313.25 532.07,-318.59 523.67,-322.97 515.27,-326.51"/>
<polygon fill="#63b8ff" stroke="#63b8ff" points="618.08,-223.43 619.97,-213 611.99,-219.97 618.08,-223.43"/>
</a>
</g>
</g>
<!-- Node3 -->
<g id="Node000003" class="node">
<title>Node3</title>
<g id="a_Node000003"><a xlink:href="../../d9/d92/db__common_8inc_8php.html#a936f838f8c0e21031350e9354cab55d5" target="_top" xlink:title=" ">
<polygon fill="white" stroke="#666666" points="326,-373.5 206.5,-373.5 206.5,-349 326,-349 326,-373.5"/>
<text text-anchor="middle" x="266.25" y="-356.2" font-family="Helvetica,sans-Serif" font-size="14.00">db_create_table</text>
</a>
</g>
</g>
<!-- Node1&#45;&gt;Node3 -->
<g id="edge5_Node000001_Node000003" class="edge">
<title>Node1&#45;&gt;Node3</title>
<g id="a_edge5_Node000001_Node000003"><a xlink:title=" ">
<path fill="none" stroke="#63b8ff" d="M622.26,-223.07C613.08,-260.07 589.66,-330.23 539.25,-360.25 468.65,-402.29 368.37,-387.65 311.36,-373.95"/>
<polygon fill="#63b8ff" stroke="#63b8ff" points="625.66,-223.9 624.5,-213.37 618.84,-222.32 625.66,-223.9"/>
</a>
</g>
</g>
<!-- Node4 -->
<g id="Node000004" class="node">
<title>Node4</title>
<g id="a_Node000004"><a xlink:href="../../d9/d92/db__common_8inc_8php.html#a3fceaf1354f4886f8e6d9ce79b9f0ce1" target="_top" xlink:title=" ">
<polygon fill="white" stroke="#666666" points="323,-313.5 209.5,-313.5 209.5,-289 323,-289 323,-313.5"/>
<text text-anchor="middle" x="266.25" y="-296.2" font-family="Helvetica,sans-Serif" font-size="14.00">db_edit_record</text>
</a>
</g>
</g>
<!-- Node1&#45;&gt;Node4 -->
<g id="edge8_Node000001_Node000004" class="edge">
<title>Node1&#45;&gt;Node4</title>
<g id="a_edge8_Node000001_Node000004"><a xlink:title=" ">
<path fill="none" stroke="#63b8ff" d="M610.03,-220.07C593.82,-238.07 567.81,-263.05 539.25,-275.25 469.24,-305.17 380.1,-307.79 323.34,-305.59"/>
<polygon fill="#63b8ff" stroke="#63b8ff" points="612.24,-222.86 616.18,-213.03 606.97,-218.26 612.24,-222.86"/>
</a>
</g>
</g>
<!-- Node5 -->
<g id="Node000005" class="node">
<title>Node5</title>
<g id="a_Node000005"><a xlink:href="../../d9/d92/db__common_8inc_8php.html#a111b2e22e83336d81be9c2fae45a8adb" target="_top" xlink:title=" ">
<polygon fill="white" stroke="#666666" points="130.75,-273.5 0,-273.5 0,-249 130.75,-249 130.75,-273.5"/>
<text text-anchor="middle" x="65.38" y="-256.2" font-family="Helvetica,sans-Serif" font-size="14.00">db_swap_records</text>
</a>
</g>
</g>
<!-- Node1&#45;&gt;Node5 -->
<g id="edge16_Node000001_Node000005" class="edge">
<title>Node1&#45;&gt;Node5</title>
<g id="a_edge16_Node000001_Node000005"><a xlink:title=" ">
<path fill="none" stroke="#63b8ff" d="M597.91,-217.41C581.34,-226.66 559.87,-237.04 539.25,-242.25 397.05,-278.16 223.25,-273.23 131.05,-266.95"/>
<polygon fill="#63b8ff" stroke="#63b8ff" points="599.32,-220.63 606.24,-212.6 595.82,-214.57 599.32,-220.63"/>
</a>
</g>
</g>
<!-- Node6 -->
<g id="Node000006" class="node">
<title>Node6</title>
<g id="a_Node000006"><a xlink:href="../../d9/d92/db__common_8inc_8php.html#ae83a69515cbe0c60c6a894fa416860bf" target="_top" xlink:title=" ">
<polygon fill="white" stroke="#666666" points="539.25,-233.5 401.75,-233.5 401.75,-209 539.25,-209 539.25,-233.5"/>
<text text-anchor="middle" x="470.5" y="-216.2" font-family="Helvetica,sans-Serif" font-size="14.00">db_delete_records</text>
</a>
</g>
</g>
<!-- Node1&#45;&gt;Node6 -->
<g id="edge6_Node000001_Node000006" class="edge">
<title>Node1&#45;&gt;Node6</title>
<g id="a_edge6_Node000001_Node000006"><a xlink:title=" ">
<path fill="none" stroke="#63b8ff" d="M563.6,-208.24C555.72,-209.35 547.64,-210.49 539.7,-211.62"/>
<polygon fill="#63b8ff" stroke="#63b8ff" points="564.04,-211.71 573.46,-206.85 563.06,-204.78 564.04,-211.71"/>
</a>
</g>
</g>
<!-- Node7 -->
<g id="Node000007" class="node">
<title>Node7</title>
<g id="a_Node000007"><a xlink:href="../../d9/d92/db__common_8inc_8php.html#ae43cfcea99ecca78b6ef1e1e9c22c8e9" target="_top" xlink:title=" ">
<polygon fill="white" stroke="#666666" points="530.25,-190.5 410.75,-190.5 410.75,-166 530.25,-166 530.25,-190.5"/>
<text text-anchor="middle" x="470.5" y="-173.2" font-family="Helvetica,sans-Serif" font-size="14.00">db_delete_table</text>
</a>
</g>
</g>
<!-- Node1&#45;&gt;Node7 -->
<g id="edge7_Node000001_Node000007" class="edge">
<title>Node1&#45;&gt;Node7</title>
<g id="a_edge7_Node000001_Node000007"><a xlink:title=" ">
<path fill="none" stroke="#63b8ff" d="M563.73,-190.69C552.79,-189.21 541.46,-187.68 530.64,-186.22"/>
<polygon fill="#63b8ff" stroke="#63b8ff" points="563.08,-194.13 573.45,-192 564.01,-187.19 563.08,-194.13"/>
</a>
</g>
</g>
<!-- Node8 -->
<g id="Node000008" class="node">
<title>Node8</title>
<g id="a_Node000008"><a xlink:href="../../d9/d92/db__common_8inc_8php.html#a7bd603470b466f5d841634e4f2deb847" target="_top" xlink:title=" ">
<polygon fill="white" stroke="#666666" points="518.62,-147.5 422.38,-147.5 422.38,-123 518.62,-123 518.62,-147.5"/>
<text text-anchor="middle" x="470.5" y="-130.2" font-family="Helvetica,sans-Serif" font-size="14.00">db_get_data</text>
</a>
</g>
</g>
<!-- Node1&#45;&gt;Node8 -->
<g id="edge9_Node000001_Node000008" class="edge">
<title>Node1&#45;&gt;Node8</title>
<g id="a_edge9_Node000001_Node000008"><a xlink:title=" ">
<path fill="none" stroke="#63b8ff" d="M592.96,-181.6C576.87,-173.65 557.31,-164.45 539.25,-157.25 530.98,-153.95 522,-150.77 513.37,-147.89"/>
<polygon fill="#63b8ff" stroke="#63b8ff" points="591.12,-184.59 601.62,-185.93 594.25,-178.32 591.12,-184.59"/>
</a>
</g>
</g>
<!-- Node10 -->
<g id="Node000010" class="node">
<title>Node10</title>
<g id="a_Node000010"><a xlink:href="../../d9/d92/db__common_8inc_8php.html#a013284fcfe2e9831d68cd86b793a1d42" target="_top" xlink:title=" ">
<polygon fill="white" stroke="#666666" points="510.75,-104.5 430.25,-104.5 430.25,-80 510.75,-80 510.75,-104.5"/>
<text text-anchor="middle" x="470.5" y="-87.2" font-family="Helvetica,sans-Serif" font-size="14.00">db_get_id</text>
</a>
</g>
</g>
<!-- Node1&#45;&gt;Node10 -->
<g id="edge11_Node000001_Node000010" class="edge">
<title>Node1&#45;&gt;Node10</title>
<g id="a_edge11_Node000001_Node000010"><a xlink:title=" ">
<path fill="none" stroke="#63b8ff" d="M610.32,-178.12C593.96,-158.98 567.57,-131.27 539.25,-114.25 530.66,-109.09 520.73,-104.99 511.16,-101.8"/>
<polygon fill="#63b8ff" stroke="#63b8ff" points="607.44,-180.13 616.53,-185.57 612.82,-175.65 607.44,-180.13"/>
</a>
</g>
</g>
<!-- Node11 -->
<g id="Node000011" class="node">
<title>Node11</title>
<g id="a_Node000011"><a xlink:href="../../d9/d92/db__common_8inc_8php.html#a14c6dea7a68f757bca21db9b70b5454d" target="_top" xlink:title=" ">
<polygon fill="white" stroke="#666666" points="340.62,-86.5 191.88,-86.5 191.88,-62 340.62,-62 340.62,-86.5"/>
<text text-anchor="middle" x="266.25" y="-69.2" font-family="Helvetica,sans-Serif" font-size="14.00">db_get_next_free_id</text>
</a>
</g>
</g>
<!-- Node1&#45;&gt;Node11 -->
<g id="edge12_Node000001_Node000011" class="edge">
<title>Node1&#45;&gt;Node11</title>
<g id="a_edge12_Node000001_Node000011"><a xlink:title=" ">
<path fill="none" stroke="#63b8ff" d="M619.24,-176.27C607.23,-145.83 581.36,-93.4 539.25,-71.25 466.94,-33.21 368.15,-47.96 311.68,-61.51"/>
<polygon fill="#63b8ff" stroke="#63b8ff" points="615.85,-177.2 622.64,-185.34 622.4,-174.74 615.85,-177.2"/>
</a>
</g>
</g>
<!-- Node12 -->
<g id="Node000012" class="node">
<title>Node12</title>
<g id="a_Node000012"><a xlink:href="../../d9/d92/db__common_8inc_8php.html#a9e096321b86945d128746ac7bedce8f3" target="_top" xlink:title=" ">
<polygon fill="white" stroke="#666666" points="508.5,-24.5 432.5,-24.5 432.5,0 508.5,0 508.5,-24.5"/>
<text text-anchor="middle" x="470.5" y="-7.2" font-family="Helvetica,sans-Serif" font-size="14.00">db_query</text>
</a>
</g>
</g>
<!-- Node1&#45;&gt;Node12 -->
<g id="edge14_Node000001_Node000012" class="edge">
<title>Node1&#45;&gt;Node12</title>
<g id="a_edge14_Node000001_Node000012"><a xlink:title=" ">
<path fill="none" stroke="#63b8ff" d="M620.3,-176C608.84,-141.39 582.79,-76.33 539.25,-38.25 530.62,-30.7 519.56,-25.24 508.9,-21.32"/>
<polygon fill="#63b8ff" stroke="#63b8ff" points="616.94,-176.96 623.3,-185.44 623.61,-174.85 616.94,-176.96"/>
</a>
</g>
</g>
<!-- Node2&#45;&gt;Node3 -->
<g id="edge2_Node000002_Node000003" class="edge">
<title>Node2&#45;&gt;Node3</title>
<g id="a_edge2_Node000002_Node000003"><a xlink:title=" ">
<path fill="none" stroke="#63b8ff" d="M394.04,-347.46C371.63,-349.9 347.41,-352.53 326.21,-354.84"/>
<polygon fill="#63b8ff" stroke="#63b8ff" points="394.16,-350.97 403.72,-346.4 393.4,-344.01 394.16,-350.97"/>
</a>
</g>
</g>
<!-- Node2&#45;&gt;Node4 -->
<g id="edge3_Node000002_Node000004" class="edge">
<title>Node2&#45;&gt;Node4</title>
<g id="a_edge3_Node000002_Node000004"><a xlink:title=" ">
<path fill="none" stroke="#63b8ff" d="M394.22,-325.11C370.68,-320.68 345.13,-315.88 323.17,-311.76"/>
<polygon fill="#63b8ff" stroke="#63b8ff" points="393.27,-328.49 403.74,-326.89 394.56,-321.61 393.27,-328.49"/>
</a>
</g>
</g>
<!-- Node4&#45;&gt;Node5 -->
<g id="edge4_Node000004_Node000005" class="edge">
<title>Node4&#45;&gt;Node5</title>
<g id="a_edge4_Node000004_Node000005"><a xlink:title=" ">
<path fill="none" stroke="#63b8ff" d="M198.05,-287.73C175.86,-283.27 151.28,-278.33 129.42,-273.93"/>
<polygon fill="#63b8ff" stroke="#63b8ff" points="197.08,-291.11 207.57,-289.65 198.46,-284.25 197.08,-291.11"/>
</a>
</g>
</g>
<!-- Node9 -->
<g id="Node000009" class="node">
<title>Node9</title>
<g id="a_Node000009"><a xlink:href="../../d9/d92/db__common_8inc_8php.html#aee9b4beb331414bb0a79ff61ce3f9587" target="_top" xlink:title=" ">
<polygon fill="white" stroke="#666666" points="317.75,-147.5 214.75,-147.5 214.75,-123 317.75,-123 317.75,-147.5"/>
<text text-anchor="middle" x="266.25" y="-130.2" font-family="Helvetica,sans-Serif" font-size="14.00">db_get_index</text>
</a>
</g>
</g>
<!-- Node8&#45;&gt;Node9 -->
<g id="edge10_Node000008_Node000009" class="edge">
<title>Node8&#45;&gt;Node9</title>
<g id="a_edge10_Node000008_Node000009"><a xlink:title=" ">
<path fill="none" stroke="#63b8ff" d="M410.71,-135.25C381.32,-135.25 346.09,-135.25 317.91,-135.25"/>
<polygon fill="#63b8ff" stroke="#63b8ff" points="410.57,-138.75 420.57,-135.25 410.57,-131.75 410.57,-138.75"/>
</a>
</g>
</g>
<!-- Node11&#45;&gt;Node5 -->
<g id="edge13_Node000011_Node000005" class="edge">
<title>Node11&#45;&gt;Node5</title>
<g id="a_edge13_Node000011_Node000005"><a xlink:title=" ">
<path fill="none" stroke="#63b8ff" d="M208.2,-90.87C193.74,-96.77 178.89,-104.46 166.75,-114.25 118.64,-153.05 84.44,-220.95 71.78,-248.8"/>
<polygon fill="#63b8ff" stroke="#63b8ff" points="209.11,-94.27 217.2,-87.43 206.61,-87.73 209.11,-94.27"/>
</a>
</g>
</g>
<!-- Node13 -->
<g id="Node000013" class="node">
<title>Node13</title>
<g id="a_Node000013"><a xlink:href="../../d3/d41/db__sqlite_8inc_8php.html#a58cd9e1d69cbdfae39b0dbfa12592bc9" target="_top" xlink:title=" ">
<polygon fill="white" stroke="#666666" points="365.75,-24.5 166.75,-24.5 166.75,0 365.75,0 365.75,-24.5"/>
<text text-anchor="middle" x="266.25" y="-7.2" font-family="Helvetica,sans-Serif" font-size="14.00">raw_db_list_table_fields_def</text>
</a>
</g>
</g>
<!-- Node12&#45;&gt;Node13 -->
<g id="edge15_Node000012_Node000013" class="edge">
<title>Node12&#45;&gt;Node13</title>
<g id="a_edge15_Node000012_Node000013"><a xlink:title=" ">
<path fill="none" stroke="#63b8ff" d="M421.32,-12.25C404.65,-12.25 385.31,-12.25 366.07,-12.25"/>
<polygon fill="#63b8ff" stroke="#63b8ff" points="420.89,-15.75 430.89,-12.25 420.89,-8.75 420.89,-15.75"/>
</a>
</g>
</g>
</g>
</svg>

<g id="navigator" transform="translate(0 0)" fill="#404254">
  <rect fill="#f2f5e9" fill-opacity="0.5" stroke="#606060" stroke-width=".5" x="0" y="0" width="60" height="60"/>
  <use id="zoomplus" xlink:href="#zoomPlus" x="17" y="9" onmousedown="handleZoom(evt,'in')"/>
  <use id="zoomminus" xlink:href="#zoomMin" x="42" y="9" onmousedown="handleZoom(evt,'out')"/>
  <use id="reset" xlink:href="#resetDef" x="30" y="36" onmousedown="handleReset()"/>
   <use id="arrowup" xlink:href="#arrowUp" x="0" y="0" onmousedown="handlePan(0,-1)"/>
  <use id="arrowright" xlink:href="#arrowRight" x="0" y="0" onmousedown="handlePan(1,0)"/>
  <use id="arrowdown" xlink:href="#arrowDown" x="0" y="0" onmousedown="handlePan(0,1)"/>
  <use id="arrowleft" xlink:href="#arrowLeft" x="0" y="0" onmousedown="handlePan(-1,0)"/>
</g>
<svg viewBox="0 0 15 15" width="100%" height="30px" preserveAspectRatio="xMaxYMin meet">
 <g id="arrow_out" transform="scale(0.3 0.3)">
  <a xlink:href="db__mysql_8inc_8php_ae7ee32fcd3c828f30353bf217fad9b45_icgraph_org.svg" target="_base">
   <rect id="button" ry="5" rx="5" y="6" x="6" height="38" width="38"
        fill="#f2f5e9" fill-opacity="0.5" stroke="#606060" stroke-width="1.0"/>
   <path id="arrow"
     d="M 11.500037,31.436501 C 11.940474,20.09759 22.043105,11.32322 32.158766,21.979434 L 37.068811,17.246167 C 37.068811,17.246167 37.088388,32 37.088388,32 L 22.160133,31.978069 C 22.160133,31.978069 26.997745,27.140456 26.997745,27.140456 C 18.528582,18.264221 13.291696,25.230495 11.500037,31.436501 z"
     style="fill:#404040;"/>
  </a>
 </g>
</svg>

<style type='text/css'>
<![CDATA[
[data-mouse-over-selected='false'] { opacity: 0.7; }
[data-mouse-over-selected='true']  { opacity: 1.0; }
]]>
</style>
<script type="application/ecmascript"><![CDATA[
document.addEventListener('DOMContentLoaded', (event) => {
  highlightEdges();
  highlightAdjacentNodes();
});
]]></script>
</svg>
