<?xml version="1.0" encoding="UTF-8" standalone="no"?>
<!--
  - Copyright (c) 2021-2024 Bearsampp
  - License:  GNU General Public License version 3 or later; see LICENSE.txt
  - Author: Bear
  - Website: https://bearsampp.com
  - Github: https://github.com/Bearsampp
  -->

<!DOCTYPE svg PUBLIC "-//W3C//DTD SVG 1.1//EN"
 "http://www.w3.org/Graphics/SVG/1.1/DTD/svg11.dtd">
<!-- Generated by graphviz version 11.0.0 (20240428.1522)
 -->
<!-- Title: TplApp\getSectionStartupAction Pages: 1 -->
<svg width="588pt" height="76pt"
 viewBox="0.00 0.00 587.75 75.50" xmlns="http://www.w3.org/2000/svg" xmlns:xlink="http://www.w3.org/1999/xlink">
<g id="graph0" class="graph" transform="scale(1 1) rotate(0) translate(4 71.5)">
<title>TplApp\getSectionStartupAction</title>
<!-- Node1 -->
<g id="Node000001" class="node">
<title>Node1</title>
<g id="a_Node000001"><a xlink:title=" ">
<polygon fill="#999999" stroke="#666666" points="579.75,-53.75 400.25,-53.75 400.25,-12.75 579.75,-12.75 579.75,-53.75"/>
<text text-anchor="start" x="408.25" y="-36.45" font-family="Helvetica,sans-Serif" font-size="14.00">TplApp\getSectionStartup</text>
<text text-anchor="middle" x="490" y="-19.95" font-family="Helvetica,sans-Serif" font-size="14.00">Action</text>
</a>
</g>
</g>
<!-- Node2 -->
<g id="Node000002" class="node">
<title>Node2</title>
<g id="a_Node000002"><a xlink:href="../../d1/d65/classTplApp.html#a57b270c79fbb8b220ad02af08368e367" target="_top" xlink:title=" ">
<polygon fill="white" stroke="#666666" points="348.88,-67.5 230.88,-67.5 230.88,-43 348.88,-43 348.88,-67.5"/>
<text text-anchor="middle" x="289.88" y="-50.2" font-family="Helvetica,sans-Serif" font-size="14.00">TplApp\process</text>
</a>
</g>
</g>
<!-- Node1&#45;&gt;Node2 -->
<g id="edge1_Node000001_Node000002" class="edge">
<title>Node1&#45;&gt;Node2</title>
<g id="a_edge1_Node000001_Node000002"><a xlink:title=" ">
<path fill="none" stroke="#63b8ff" d="M388.5,-44.41C375.04,-45.9 361.62,-47.39 349.22,-48.77"/>
<polygon fill="#63b8ff" stroke="#63b8ff" points="388.73,-47.91 398.29,-43.32 387.96,-40.95 388.73,-47.91"/>
</a>
</g>
</g>
<!-- Node4 -->
<g id="Node000004" class="node">
<title>Node4</title>
<g id="a_Node000004"><a xlink:href="../../d1/d65/classTplApp.html#af21cc09d1f63ca9dd7a3041e0a90b293" target="_top" xlink:title=" ">
<polygon fill="white" stroke="#666666" points="364.25,-24.5 215.5,-24.5 215.5,0 364.25,0 364.25,-24.5"/>
<text text-anchor="middle" x="289.88" y="-7.2" font-family="Helvetica,sans-Serif" font-size="14.00">TplApp\processLight</text>
</a>
</g>
</g>
<!-- Node1&#45;&gt;Node4 -->
<g id="edge3_Node000001_Node000004" class="edge">
<title>Node1&#45;&gt;Node4</title>
<g id="a_edge3_Node000001_Node000004"><a xlink:title=" ">
<path fill="none" stroke="#63b8ff" d="M388.4,-22.59C380.34,-21.73 372.29,-20.88 364.47,-20.05"/>
<polygon fill="#63b8ff" stroke="#63b8ff" points="387.97,-26.06 398.29,-23.63 388.71,-19.1 387.97,-26.06"/>
</a>
</g>
</g>
<!-- Node3 -->
<g id="Node000003" class="node">
<title>Node3</title>
<g id="a_Node000003"><a xlink:href="../../dd/dea/classActionReload.html#a9caf3b20c05475876e5dc72cdcdf6024" target="_top" xlink:title=" ">
<polygon fill="white" stroke="#666666" points="179.5,-67.5 0,-67.5 0,-43 179.5,-43 179.5,-67.5"/>
<text text-anchor="middle" x="89.75" y="-50.2" font-family="Helvetica,sans-Serif" font-size="14.00">ActionReload\__construct</text>
</a>
</g>
</g>
<!-- Node2&#45;&gt;Node3 -->
<g id="edge2_Node000002_Node000003" class="edge">
<title>Node2&#45;&gt;Node3</title>
<g id="a_edge2_Node000002_Node000003"><a xlink:title=" ">
<path fill="none" stroke="#63b8ff" d="M219.1,-55.25C206.43,-55.25 193.06,-55.25 179.93,-55.25"/>
<polygon fill="#63b8ff" stroke="#63b8ff" points="218.99,-58.75 228.99,-55.25 218.99,-51.75 218.99,-58.75"/>
</a>
</g>
</g>
</g>
</svg>
