<?xml version="1.0" encoding="UTF-8" standalone="no"?>
<!--
  - Copyright (c) 2021-2024 Bearsampp
  - License:  GNU General Public License version 3 or later; see LICENSE.txt
  - Author: Bear
  - Website: https://bearsampp.com
  - Github: https://github.com/Bearsampp
  -->

<!DOCTYPE svg PUBLIC "-//W3C//DTD SVG 1.1//EN"
 "http://www.w3.org/Graphics/SVG/1.1/DTD/svg11.dtd">
<!-- Generated by graphviz version 11.0.0 (20240428.1522)
 -->
<!-- Title: TplApp\getMenuEnable Pages: 1 -->
<!--zoomable 463 -->

<svg id="main" version="1.1" xmlns="http://www.w3.org/2000/svg" xmlns:xlink="http://www.w3.org/1999/xlink" xml:space="preserve" onload="init(evt)">
<style type="text/css"><![CDATA[
.node, .edge {opacity: 0.7;}
.node.selected, .edge.selected {opacity: 1;}
.edge:hover path { stroke: red; }
.edge:hover polygon { stroke: red; fill: red; }
]]></style>

<defs>
  <circle id="rim" cx="0" cy="0" r="7"/>
  <circle id="rim2" cx="0" cy="0" r="3.5"/>
  <g id="zoomPlus">
    <use xlink:href="#rim" fill="#404040"><set attributeName="fill" to="#808080" begin="zoomplus.mouseover" end="zoomplus.mouseout"/></use>
    <path d="M-4,0h8M0,-4v8" fill="none" stroke="white" stroke-width="1.5" pointer-events="none"/>
  </g>
  <g id="zoomMin">
    <use xlink:href="#rim" fill="#404040"><set attributeName="fill" to="#808080" begin="zoomminus.mouseover" end="zoomminus.mouseout"/></use>
    <path d="M-4,0h8" fill="none" stroke="white" stroke-width="1.5" pointer-events="none"/>
  </g>
  <g id="arrowUp" transform="translate(30 24)">
    <use xlink:href="#rim"/>
    <path pointer-events="none" fill="none" stroke="white" stroke-width="1.5" d="M0,-3.0v7 M-2.5,-0.5L0,-3.0L2.5,-0.5"/>
  </g>
  <g id="arrowRight" transform="rotate(90) translate(36 -43)">
    <use xlink:href="#rim"/>
    <path pointer-events="none" fill="none" stroke="white" stroke-width="1.5" d="M0,-3.0v7 M-2.5,-0.5L0,-3.0L2.5,-0.5"/>
  </g>
  <g id="arrowDown" transform="rotate(180) translate(-30 -48)">
    <use xlink:href="#rim"/>
    <path pointer-events="none" fill="none" stroke="white" stroke-width="1.5" d="M0,-3.0v7 M-2.5,-0.5L0,-3.0L2.5,-0.5"/>
  </g>
  <g id="arrowLeft" transform="rotate(270) translate(-36 17)">
    <use xlink:href="#rim"/>
    <path pointer-events="none" fill="none" stroke="white" stroke-width="1.5" d="M0,-3.0v7 M-2.5,-0.5L0,-3.0L2.5,-0.5"/>
  </g>
  <g id="resetDef">
    <use xlink:href="#rim2" fill="#404040"><set attributeName="fill" to="#808080" begin="reset.mouseover" end="reset.mouseout"/></use>
  </g>
</defs>
<script type="application/ecmascript">
var viewWidth = 1005;
var viewHeight = 463;
var sectionId = 'dynsection-3';
</script>
<script type="application/ecmascript" xlink:href="../../svg.min.js"/>
<svg id="graph" class="graph">
<g id="viewport">
<title>TplApp\getMenuEnable</title>
<!-- Node1 -->
<g id="Node000001" class="node">
<title>Node1</title>
<g id="a_Node000001"><a xlink:title=" ">
<polygon fill="#999999" stroke="#666666" points="996.5,-239.5 831.25,-239.5 831.25,-215 996.5,-215 996.5,-239.5"/>
<text text-anchor="middle" x="913.88" y="-222.2" font-family="Helvetica,sans-Serif" font-size="14.00">TplApp\getMenuEnable</text>
</a>
</g>
</g>
<!-- Node2 -->
<g id="Node000002" class="node">
<title>Node2</title>
<g id="a_Node000002"><a xlink:href="../../d9/d51/classTplAppApache.html#a199c46ef6918905bc0d49f1047272b13" target="_top" xlink:title=" ">
<polygon fill="white" stroke="#666666" points="780.62,-454.5 613.88,-454.5 613.88,-430 780.62,-430 780.62,-454.5"/>
<text text-anchor="middle" x="697.25" y="-437.2" font-family="Helvetica,sans-Serif" font-size="14.00">TplAppApache\process</text>
</a>
</g>
</g>
<!-- Node1&#45;&gt;Node2 -->
<g id="edge1_Node000001_Node000002" class="edge">
<title>Node1&#45;&gt;Node2</title>
<g id="a_edge1_Node000001_Node000002"><a xlink:title=" ">
<path fill="none" stroke="#63b8ff" d="M905.57,-250.3C891.34,-291.3 855.86,-376.68 795.25,-420.25 790.06,-423.98 784.35,-427.09 778.37,-429.68"/>
<polygon fill="#63b8ff" stroke="#63b8ff" points="908.84,-251.57 908.69,-240.97 902.2,-249.35 908.84,-251.57"/>
</a>
</g>
</g>
<!-- Node6 -->
<g id="Node000006" class="node">
<title>Node6</title>
<g id="a_Node000006"><a xlink:href="../../d0/d23/classTplAppFilezilla.html#a95d6ff0a80636e3ab69efdf97da7a970" target="_top" xlink:title=" ">
<polygon fill="white" stroke="#666666" points="779.5,-411.5 615,-411.5 615,-387 779.5,-387 779.5,-411.5"/>
<text text-anchor="middle" x="697.25" y="-394.2" font-family="Helvetica,sans-Serif" font-size="14.00">TplAppFilezilla\process</text>
</a>
</g>
</g>
<!-- Node1&#45;&gt;Node6 -->
<g id="edge5_Node000001_Node000006" class="edge">
<title>Node1&#45;&gt;Node6</title>
<g id="a_edge5_Node000001_Node000006"><a xlink:title=" ">
<path fill="none" stroke="#63b8ff" d="M901.68,-249.81C883.91,-283.16 845.99,-345.12 795.25,-377.25 789.41,-380.94 783.03,-384.02 776.42,-386.58"/>
<polygon fill="#63b8ff" stroke="#63b8ff" points="904.74,-251.52 906.23,-241.03 898.52,-248.3 904.74,-251.52"/>
</a>
</g>
</g>
<!-- Node7 -->
<g id="Node000007" class="node">
<title>Node7</title>
<g id="a_Node000007"><a xlink:href="../../d4/d8a/classTplAppMailhog.html#a8fff9a0ed0771e296b40a5622a9eec0e" target="_top" xlink:title=" ">
<polygon fill="white" stroke="#666666" points="780.62,-368.5 613.88,-368.5 613.88,-344 780.62,-344 780.62,-368.5"/>
<text text-anchor="middle" x="697.25" y="-351.2" font-family="Helvetica,sans-Serif" font-size="14.00">TplAppMailhog\process</text>
</a>
</g>
</g>
<!-- Node1&#45;&gt;Node7 -->
<g id="edge7_Node000001_Node000007" class="edge">
<title>Node1&#45;&gt;Node7</title>
<g id="a_edge7_Node000001_Node000007"><a xlink:title=" ">
<path fill="none" stroke="#63b8ff" d="M895.82,-248.29C874.79,-272.79 836.71,-312.64 795.25,-334.25 788.21,-337.92 780.56,-340.98 772.76,-343.54"/>
<polygon fill="#63b8ff" stroke="#63b8ff" points="898.29,-250.79 902.05,-240.89 892.93,-246.29 898.29,-250.79"/>
</a>
</g>
</g>
<!-- Node8 -->
<g id="Node000008" class="node">
<title>Node8</title>
<g id="a_Node000008"><a xlink:href="../../d8/dd3/classTplAppMailpit.html#a511a631b07edb6fdc78bd99287df0ef3" target="_top" xlink:title=" ">
<polygon fill="white" stroke="#666666" points="776.12,-325.5 618.38,-325.5 618.38,-301 776.12,-301 776.12,-325.5"/>
<text text-anchor="middle" x="697.25" y="-308.2" font-family="Helvetica,sans-Serif" font-size="14.00">TplAppMailpit\process</text>
</a>
</g>
</g>
<!-- Node1&#45;&gt;Node8 -->
<g id="edge9_Node000001_Node000008" class="edge">
<title>Node1&#45;&gt;Node8</title>
<g id="a_edge9_Node000001_Node000008"><a xlink:title=" ">
<path fill="none" stroke="#63b8ff" d="M884.14,-245.81C860.96,-260.05 827.08,-279.24 795.25,-291.25 785.8,-294.81 775.6,-297.9 765.49,-300.54"/>
<polygon fill="#63b8ff" stroke="#63b8ff" points="885.77,-248.92 892.4,-240.65 882.07,-242.98 885.77,-248.92"/>
</a>
</g>
</g>
<!-- Node9 -->
<g id="Node000009" class="node">
<title>Node9</title>
<g id="a_Node000009"><a xlink:href="../../d4/de1/classTplAppMariadb.html#a0216892642132b350a0ac4aed8e4365e" target="_top" xlink:title=" ">
<polygon fill="white" stroke="#666666" points="781.38,-282.5 613.12,-282.5 613.12,-258 781.38,-258 781.38,-282.5"/>
<text text-anchor="middle" x="697.25" y="-265.2" font-family="Helvetica,sans-Serif" font-size="14.00">TplAppMariadb\process</text>
</a>
</g>
</g>
<!-- Node1&#45;&gt;Node9 -->
<g id="edge11_Node000001_Node000009" class="edge">
<title>Node1&#45;&gt;Node9</title>
<g id="a_edge11_Node000001_Node000009"><a xlink:title=" ">
<path fill="none" stroke="#63b8ff" d="M838.09,-242.23C813.14,-247.23 785.61,-252.75 761.61,-257.56"/>
<polygon fill="#63b8ff" stroke="#63b8ff" points="838.75,-245.67 847.87,-240.27 837.37,-238.81 838.75,-245.67"/>
</a>
</g>
</g>
<!-- Node10 -->
<g id="Node000010" class="node">
<title>Node10</title>
<g id="a_Node000010"><a xlink:href="../../d8/dff/classTplAppMemcached.html#afbe38b0447b66d202677d9a939bde350" target="_top" xlink:title=" ">
<polygon fill="white" stroke="#666666" points="795.25,-239.5 599.25,-239.5 599.25,-215 795.25,-215 795.25,-239.5"/>
<text text-anchor="middle" x="697.25" y="-222.2" font-family="Helvetica,sans-Serif" font-size="14.00">TplAppMemcached\process</text>
</a>
</g>
</g>
<!-- Node1&#45;&gt;Node10 -->
<g id="edge13_Node000001_Node000010" class="edge">
<title>Node1&#45;&gt;Node10</title>
<g id="a_edge13_Node000001_Node000010"><a xlink:title=" ">
<path fill="none" stroke="#63b8ff" d="M819.4,-227.25C811.55,-227.25 803.6,-227.25 795.72,-227.25"/>
<polygon fill="#63b8ff" stroke="#63b8ff" points="819.3,-230.75 829.3,-227.25 819.3,-223.75 819.3,-230.75"/>
</a>
</g>
</g>
<!-- Node11 -->
<g id="Node000011" class="node">
<title>Node11</title>
<g id="a_Node000011"><a xlink:href="../../d6/d19/classTplAppMysql.html#af8621685c1a610f8df1749d4ffad0a78" target="_top" xlink:title=" ">
<polygon fill="white" stroke="#666666" points="774.62,-196.5 619.88,-196.5 619.88,-172 774.62,-172 774.62,-196.5"/>
<text text-anchor="middle" x="697.25" y="-179.2" font-family="Helvetica,sans-Serif" font-size="14.00">TplAppMysql\process</text>
</a>
</g>
</g>
<!-- Node1&#45;&gt;Node11 -->
<g id="edge15_Node000001_Node000011" class="edge">
<title>Node1&#45;&gt;Node11</title>
<g id="a_edge15_Node000001_Node000011"><a xlink:title=" ">
<path fill="none" stroke="#63b8ff" d="M838.09,-212.27C813.14,-207.27 785.61,-201.75 761.61,-196.94"/>
<polygon fill="#63b8ff" stroke="#63b8ff" points="837.37,-215.69 847.87,-214.23 838.75,-208.83 837.37,-215.69"/>
</a>
</g>
</g>
<!-- Node12 -->
<g id="Node000012" class="node">
<title>Node12</title>
<g id="a_Node000012"><a xlink:href="../../dc/d32/classTplAppNodejs.html#a6eae155f0915bd2aed6247651ce961ca" target="_top" xlink:title=" ">
<polygon fill="white" stroke="#666666" points="778.75,-153.5 615.75,-153.5 615.75,-129 778.75,-129 778.75,-153.5"/>
<text text-anchor="middle" x="697.25" y="-136.2" font-family="Helvetica,sans-Serif" font-size="14.00">TplAppNodejs\process</text>
</a>
</g>
</g>
<!-- Node1&#45;&gt;Node12 -->
<g id="edge17_Node000001_Node000012" class="edge">
<title>Node1&#45;&gt;Node12</title>
<g id="a_edge17_Node000001_Node000012"><a xlink:title=" ">
<path fill="none" stroke="#63b8ff" d="M884.14,-208.69C860.96,-194.45 827.08,-175.26 795.25,-163.25 785.8,-159.69 775.6,-156.6 765.49,-153.96"/>
<polygon fill="#63b8ff" stroke="#63b8ff" points="882.07,-211.52 892.4,-213.85 885.77,-205.58 882.07,-211.52"/>
</a>
</g>
</g>
<!-- Node13 -->
<g id="Node000013" class="node">
<title>Node13</title>
<g id="a_Node000013"><a xlink:href="../../d0/d1a/classTplAppPhp.html#ae1387a931823384c72fe7adda92eee6a" target="_top" xlink:title=" ">
<polygon fill="white" stroke="#666666" points="769,-110.5 625.5,-110.5 625.5,-86 769,-86 769,-110.5"/>
<text text-anchor="middle" x="697.25" y="-93.2" font-family="Helvetica,sans-Serif" font-size="14.00">TplAppPhp\process</text>
</a>
</g>
</g>
<!-- Node1&#45;&gt;Node13 -->
<g id="edge19_Node000001_Node000013" class="edge">
<title>Node1&#45;&gt;Node13</title>
<g id="a_edge19_Node000001_Node000013"><a xlink:title=" ">
<path fill="none" stroke="#63b8ff" d="M895.82,-206.21C874.79,-181.71 836.71,-141.86 795.25,-120.25 787.21,-116.06 778.39,-112.66 769.45,-109.91"/>
<polygon fill="#63b8ff" stroke="#63b8ff" points="892.93,-208.21 902.05,-213.61 898.29,-203.71 892.93,-208.21"/>
</a>
</g>
</g>
<!-- Node14 -->
<g id="Node000014" class="node">
<title>Node14</title>
<g id="a_Node000014"><a xlink:href="../../d3/d1b/classTplAppPostgresql.html#aa7b05b55996fe8309127d08158748d70" target="_top" xlink:title=" ">
<polygon fill="white" stroke="#666666" points="790.75,-67.5 603.75,-67.5 603.75,-43 790.75,-43 790.75,-67.5"/>
<text text-anchor="middle" x="697.25" y="-50.2" font-family="Helvetica,sans-Serif" font-size="14.00">TplAppPostgresql\process</text>
</a>
</g>
</g>
<!-- Node1&#45;&gt;Node14 -->
<g id="edge21_Node000001_Node000014" class="edge">
<title>Node1&#45;&gt;Node14</title>
<g id="a_edge21_Node000001_Node000014"><a xlink:title=" ">
<path fill="none" stroke="#63b8ff" d="M901.68,-204.69C883.91,-171.34 845.99,-109.38 795.25,-77.25 789.41,-73.56 783.03,-70.48 776.42,-67.92"/>
<polygon fill="#63b8ff" stroke="#63b8ff" points="898.52,-206.2 906.23,-213.47 904.74,-202.98 898.52,-206.2"/>
</a>
</g>
</g>
<!-- Node15 -->
<g id="Node000015" class="node">
<title>Node15</title>
<g id="a_Node000015"><a xlink:href="../../dc/d83/classTplAppXlight.html#acd069893081b6b311f41eb8f718f9bfe" target="_top" xlink:title=" ">
<polygon fill="white" stroke="#666666" points="773.88,-24.5 620.62,-24.5 620.62,0 773.88,0 773.88,-24.5"/>
<text text-anchor="middle" x="697.25" y="-7.2" font-family="Helvetica,sans-Serif" font-size="14.00">TplAppXlight\process</text>
</a>
</g>
</g>
<!-- Node1&#45;&gt;Node15 -->
<g id="edge23_Node000001_Node000015" class="edge">
<title>Node1&#45;&gt;Node15</title>
<g id="a_edge23_Node000001_Node000015"><a xlink:title=" ">
<path fill="none" stroke="#63b8ff" d="M905.57,-204.2C891.34,-163.2 855.86,-77.82 795.25,-34.25 788.8,-29.61 781.54,-25.93 773.96,-23.01"/>
<polygon fill="#63b8ff" stroke="#63b8ff" points="902.2,-205.15 908.69,-213.53 908.84,-202.93 902.2,-205.15"/>
</a>
</g>
</g>
<!-- Node3 -->
<g id="Node000003" class="node">
<title>Node3</title>
<g id="a_Node000003"><a xlink:href="../../d1/d65/classTplApp.html#a7548fa52341ab60cfa061827d44cf43c" target="_top" xlink:title=" ">
<polygon fill="white" stroke="#666666" points="563.25,-239.5 369.5,-239.5 369.5,-215 563.25,-215 563.25,-239.5"/>
<text text-anchor="middle" x="466.38" y="-222.2" font-family="Helvetica,sans-Serif" font-size="14.00">TplApp\getSectionMenuLeft</text>
</a>
</g>
</g>
<!-- Node2&#45;&gt;Node3 -->
<g id="edge2_Node000002_Node000003" class="edge">
<title>Node2&#45;&gt;Node3</title>
<g id="a_edge2_Node000002_Node000003"><a xlink:title=" ">
<path fill="none" stroke="#63b8ff" d="M606.65,-424.75C604.1,-423.36 601.62,-421.86 599.25,-420.25 529.11,-372.56 485.6,-274.1 471.99,-239.55"/>
<polygon fill="#63b8ff" stroke="#63b8ff" points="604.93,-427.81 615.46,-428.94 607.93,-421.49 604.93,-427.81"/>
</a>
</g>
</g>
<!-- Node4 -->
<g id="Node000004" class="node">
<title>Node4</title>
<g id="a_Node000004"><a xlink:href="../../d1/d65/classTplApp.html#a57b270c79fbb8b220ad02af08368e367" target="_top" xlink:title=" ">
<polygon fill="white" stroke="#666666" points="333.5,-239.5 215.5,-239.5 215.5,-215 333.5,-215 333.5,-239.5"/>
<text text-anchor="middle" x="274.5" y="-222.2" font-family="Helvetica,sans-Serif" font-size="14.00">TplApp\process</text>
</a>
</g>
</g>
<!-- Node3&#45;&gt;Node4 -->
<g id="edge3_Node000003_Node000004" class="edge">
<title>Node3&#45;&gt;Node4</title>
<g id="a_edge3_Node000003_Node000004"><a xlink:title=" ">
<path fill="none" stroke="#63b8ff" d="M357.81,-227.25C349.6,-227.25 341.53,-227.25 333.83,-227.25"/>
<polygon fill="#63b8ff" stroke="#63b8ff" points="357.53,-230.75 367.53,-227.25 357.53,-223.75 357.53,-230.75"/>
</a>
</g>
</g>
<!-- Node5 -->
<g id="Node000005" class="node">
<title>Node5</title>
<g id="a_Node000005"><a xlink:href="../../dd/dea/classActionReload.html#a9caf3b20c05475876e5dc72cdcdf6024" target="_top" xlink:title=" ">
<polygon fill="white" stroke="#666666" points="179.5,-239.5 0,-239.5 0,-215 179.5,-215 179.5,-239.5"/>
<text text-anchor="middle" x="89.75" y="-222.2" font-family="Helvetica,sans-Serif" font-size="14.00">ActionReload\__construct</text>
</a>
</g>
</g>
<!-- Node4&#45;&gt;Node5 -->
<g id="edge4_Node000004_Node000005" class="edge">
<title>Node4&#45;&gt;Node5</title>
<g id="a_edge4_Node000004_Node000005"><a xlink:title=" ">
<path fill="none" stroke="#63b8ff" d="M203.85,-227.25C195.99,-227.25 187.9,-227.25 179.83,-227.25"/>
<polygon fill="#63b8ff" stroke="#63b8ff" points="203.66,-230.75 213.66,-227.25 203.66,-223.75 203.66,-230.75"/>
</a>
</g>
</g>
<!-- Node6&#45;&gt;Node3 -->
<g id="edge6_Node000006_Node000003" class="edge">
<title>Node6&#45;&gt;Node3</title>
<g id="a_edge6_Node000006_Node000003"><a xlink:title=" ">
<path fill="none" stroke="#63b8ff" d="M608.55,-382.15C605.35,-380.65 602.23,-379.02 599.25,-377.25 539.04,-341.46 491.74,-268.76 474.47,-239.68"/>
<polygon fill="#63b8ff" stroke="#63b8ff" points="607.07,-385.33 617.65,-385.93 609.75,-378.86 607.07,-385.33"/>
</a>
</g>
</g>
<!-- Node7&#45;&gt;Node3 -->
<g id="edge8_Node000007_Node000003" class="edge">
<title>Node7&#45;&gt;Node3</title>
<g id="a_edge8_Node000007_Node000003"><a xlink:title=" ">
<path fill="none" stroke="#63b8ff" d="M612.47,-339.88C607.92,-338.18 603.49,-336.31 599.25,-334.25 548.6,-309.64 500.12,-262.19 478.77,-239.68"/>
<polygon fill="#63b8ff" stroke="#63b8ff" points="611.19,-343.14 621.79,-343.05 613.45,-336.51 611.19,-343.14"/>
</a>
</g>
</g>
<!-- Node8&#45;&gt;Node3 -->
<g id="edge10_Node000008_Node000003" class="edge">
<title>Node8&#45;&gt;Node3</title>
<g id="a_edge10_Node000008_Node000003"><a xlink:title=" ">
<path fill="none" stroke="#63b8ff" d="M619.72,-297.63C612.74,-295.68 605.83,-293.56 599.25,-291.25 559.15,-277.18 515.25,-254.23 489.57,-239.98"/>
<polygon fill="#63b8ff" stroke="#63b8ff" points="618.68,-300.97 629.25,-300.15 620.47,-294.21 618.68,-300.97"/>
</a>
</g>
</g>
<!-- Node9&#45;&gt;Node3 -->
<g id="edge12_Node000009_Node000003" class="edge">
<title>Node9&#45;&gt;Node3</title>
<g id="a_edge12_Node000009_Node000003"><a xlink:title=" ">
<path fill="none" stroke="#63b8ff" d="M617.22,-255.4C590.43,-250.37 560.76,-244.79 534.94,-239.94"/>
<polygon fill="#63b8ff" stroke="#63b8ff" points="616.55,-258.84 627.02,-257.24 617.84,-251.96 616.55,-258.84"/>
</a>
</g>
</g>
<!-- Node10&#45;&gt;Node3 -->
<g id="edge14_Node000010_Node000003" class="edge">
<title>Node10&#45;&gt;Node3</title>
<g id="a_edge14_Node000010_Node000003"><a xlink:title=" ">
<path fill="none" stroke="#63b8ff" d="M587.57,-227.25C579.56,-227.25 571.52,-227.25 563.59,-227.25"/>
<polygon fill="#63b8ff" stroke="#63b8ff" points="587.34,-230.75 597.34,-227.25 587.34,-223.75 587.34,-230.75"/>
</a>
</g>
</g>
<!-- Node11&#45;&gt;Node3 -->
<g id="edge16_Node000011_Node000003" class="edge">
<title>Node11&#45;&gt;Node3</title>
<g id="a_edge16_Node000011_Node000003"><a xlink:title=" ">
<path fill="none" stroke="#63b8ff" d="M617.22,-199.1C590.43,-204.13 560.76,-209.71 534.94,-214.56"/>
<polygon fill="#63b8ff" stroke="#63b8ff" points="617.84,-202.54 627.02,-197.26 616.55,-195.66 617.84,-202.54"/>
</a>
</g>
</g>
<!-- Node12&#45;&gt;Node3 -->
<g id="edge18_Node000012_Node000003" class="edge">
<title>Node12&#45;&gt;Node3</title>
<g id="a_edge18_Node000012_Node000003"><a xlink:title=" ">
<path fill="none" stroke="#63b8ff" d="M619.72,-156.87C612.74,-158.82 605.83,-160.94 599.25,-163.25 559.15,-177.32 515.25,-200.27 489.57,-214.52"/>
<polygon fill="#63b8ff" stroke="#63b8ff" points="620.47,-160.29 629.25,-154.35 618.68,-153.53 620.47,-160.29"/>
</a>
</g>
</g>
<!-- Node13&#45;&gt;Node3 -->
<g id="edge20_Node000013_Node000003" class="edge">
<title>Node13&#45;&gt;Node3</title>
<g id="a_edge20_Node000013_Node000003"><a xlink:title=" ">
<path fill="none" stroke="#63b8ff" d="M614.27,-113.96C609.09,-115.83 604.05,-117.92 599.25,-120.25 548.6,-144.86 500.12,-192.31 478.77,-214.82"/>
<polygon fill="#63b8ff" stroke="#63b8ff" points="615.18,-117.35 623.58,-110.89 612.99,-110.7 615.18,-117.35"/>
</a>
</g>
</g>
<!-- Node14&#45;&gt;Node3 -->
<g id="edge22_Node000014_Node000003" class="edge">
<title>Node14&#45;&gt;Node3</title>
<g id="a_edge22_Node000014_Node000003"><a xlink:title=" ">
<path fill="none" stroke="#63b8ff" d="M608.55,-72.35C605.35,-73.85 602.23,-75.48 599.25,-77.25 539.04,-113.04 491.74,-185.74 474.47,-214.82"/>
<polygon fill="#63b8ff" stroke="#63b8ff" points="609.75,-75.64 617.65,-68.57 607.07,-69.17 609.75,-75.64"/>
</a>
</g>
</g>
<!-- Node15&#45;&gt;Node3 -->
<g id="edge24_Node000015_Node000003" class="edge">
<title>Node15&#45;&gt;Node3</title>
<g id="a_edge24_Node000015_Node000003"><a xlink:title=" ">
<path fill="none" stroke="#63b8ff" d="M610.05,-27.99C606.29,-29.85 602.66,-31.93 599.25,-34.25 529.11,-81.94 485.6,-180.4 471.99,-214.95"/>
<polygon fill="#63b8ff" stroke="#63b8ff" points="611.11,-31.34 618.89,-24.15 608.33,-24.92 611.11,-31.34"/>
</a>
</g>
</g>
</g>
</svg>

<g id="navigator" transform="translate(0 0)" fill="#404254">
  <rect fill="#f2f5e9" fill-opacity="0.5" stroke="#606060" stroke-width=".5" x="0" y="0" width="60" height="60"/>
  <use id="zoomplus" xlink:href="#zoomPlus" x="17" y="9" onmousedown="handleZoom(evt,'in')"/>
  <use id="zoomminus" xlink:href="#zoomMin" x="42" y="9" onmousedown="handleZoom(evt,'out')"/>
  <use id="reset" xlink:href="#resetDef" x="30" y="36" onmousedown="handleReset()"/>
   <use id="arrowup" xlink:href="#arrowUp" x="0" y="0" onmousedown="handlePan(0,-1)"/>
  <use id="arrowright" xlink:href="#arrowRight" x="0" y="0" onmousedown="handlePan(1,0)"/>
  <use id="arrowdown" xlink:href="#arrowDown" x="0" y="0" onmousedown="handlePan(0,1)"/>
  <use id="arrowleft" xlink:href="#arrowLeft" x="0" y="0" onmousedown="handlePan(-1,0)"/>
</g>
<svg viewBox="0 0 15 15" width="100%" height="30px" preserveAspectRatio="xMaxYMin meet">
 <g id="arrow_out" transform="scale(0.3 0.3)">
  <a xlink:href="classTplApp_a6c80bb1a9034d0ca40dd32852bb27d31_icgraph_org.svg" target="_base">
   <rect id="button" ry="5" rx="5" y="6" x="6" height="38" width="38"
        fill="#f2f5e9" fill-opacity="0.5" stroke="#606060" stroke-width="1.0"/>
   <path id="arrow"
     d="M 11.500037,31.436501 C 11.940474,20.09759 22.043105,11.32322 32.158766,21.979434 L 37.068811,17.246167 C 37.068811,17.246167 37.088388,32 37.088388,32 L 22.160133,31.978069 C 22.160133,31.978069 26.997745,27.140456 26.997745,27.140456 C 18.528582,18.264221 13.291696,25.230495 11.500037,31.436501 z"
     style="fill:#404040;"/>
  </a>
 </g>
</svg>

<style type='text/css'>
<![CDATA[
[data-mouse-over-selected='false'] { opacity: 0.7; }
[data-mouse-over-selected='true']  { opacity: 1.0; }
]]>
</style>
<script type="application/ecmascript"><![CDATA[
document.addEventListener('DOMContentLoaded', (event) => {
  highlightEdges();
  highlightAdjacentNodes();
});
]]></script>
</svg>
