<?xml version="1.0" encoding="UTF-8" standalone="no"?>
<!--
  - Copyright (c) 2021-2024 Bearsampp
  - License:  GNU General Public License version 3 or later; see LICENSE.txt
  - Author: Bear
  - Website: https://bearsampp.com
  - Github: https://github.com/Bearsampp
  -->

<!DOCTYPE svg PUBLIC "-//W3C//DTD SVG 1.1//EN"
 "http://www.w3.org/Graphics/SVG/1.1/DTD/svg11.dtd">
<!-- Generated by graphviz version 11.0.0 (20240428.1522)
 -->
<!-- Title: TplApp\getMenu Pages: 1 -->
<!--zoomable 823 -->

<svg id="main" version="1.1" xmlns="http://www.w3.org/2000/svg" xmlns:xlink="http://www.w3.org/1999/xlink" xml:space="preserve" onload="init(evt)">
<style type="text/css"><![CDATA[
.node, .edge {opacity: 0.7;}
.node.selected, .edge.selected {opacity: 1;}
.edge:hover path { stroke: red; }
.edge:hover polygon { stroke: red; fill: red; }
]]></style>

<defs>
  <circle id="rim" cx="0" cy="0" r="7"/>
  <circle id="rim2" cx="0" cy="0" r="3.5"/>
  <g id="zoomPlus">
    <use xlink:href="#rim" fill="#404040"><set attributeName="fill" to="#808080" begin="zoomplus.mouseover" end="zoomplus.mouseout"/></use>
    <path d="M-4,0h8M0,-4v8" fill="none" stroke="white" stroke-width="1.5" pointer-events="none"/>
  </g>
  <g id="zoomMin">
    <use xlink:href="#rim" fill="#404040"><set attributeName="fill" to="#808080" begin="zoomminus.mouseover" end="zoomminus.mouseout"/></use>
    <path d="M-4,0h8" fill="none" stroke="white" stroke-width="1.5" pointer-events="none"/>
  </g>
  <g id="arrowUp" transform="translate(30 24)">
    <use xlink:href="#rim"/>
    <path pointer-events="none" fill="none" stroke="white" stroke-width="1.5" d="M0,-3.0v7 M-2.5,-0.5L0,-3.0L2.5,-0.5"/>
  </g>
  <g id="arrowRight" transform="rotate(90) translate(36 -43)">
    <use xlink:href="#rim"/>
    <path pointer-events="none" fill="none" stroke="white" stroke-width="1.5" d="M0,-3.0v7 M-2.5,-0.5L0,-3.0L2.5,-0.5"/>
  </g>
  <g id="arrowDown" transform="rotate(180) translate(-30 -48)">
    <use xlink:href="#rim"/>
    <path pointer-events="none" fill="none" stroke="white" stroke-width="1.5" d="M0,-3.0v7 M-2.5,-0.5L0,-3.0L2.5,-0.5"/>
  </g>
  <g id="arrowLeft" transform="rotate(270) translate(-36 17)">
    <use xlink:href="#rim"/>
    <path pointer-events="none" fill="none" stroke="white" stroke-width="1.5" d="M0,-3.0v7 M-2.5,-0.5L0,-3.0L2.5,-0.5"/>
  </g>
  <g id="resetDef">
    <use xlink:href="#rim2" fill="#404040"><set attributeName="fill" to="#808080" begin="reset.mouseover" end="reset.mouseout"/></use>
  </g>
</defs>
<script type="application/ecmascript">
var viewWidth = 1050;
var viewHeight = 823;
var sectionId = 'dynsection-2';
</script>
<script type="application/ecmascript" xlink:href="../../svg.min.js"/>
<svg id="graph" class="graph">
<g id="viewport">
<title>TplApp\getMenu</title>
<!-- Node1 -->
<g id="Node000001" class="node">
<title>Node1</title>
<g id="a_Node000001"><a xlink:title=" ">
<polygon fill="#999999" stroke="#666666" points="1041.5,-427.5 920.5,-427.5 920.5,-403 1041.5,-403 1041.5,-427.5"/>
<text text-anchor="middle" x="981" y="-410.2" font-family="Helvetica,sans-Serif" font-size="14.00">TplApp\getMenu</text>
</a>
</g>
</g>
<!-- Node2 -->
<g id="Node000002" class="node">
<title>Node2</title>
<g id="a_Node000002"><a xlink:href="../../d9/d51/classTplAppApache.html#a41883e060efdff6f2d33a272b7c3faae" target="_top" xlink:title=" ">
<polygon fill="white" stroke="#666666" points="855.25,-814.5 636.75,-814.5 636.75,-790 855.25,-790 855.25,-814.5"/>
<text text-anchor="middle" x="746" y="-797.2" font-family="Helvetica,sans-Serif" font-size="14.00">TplAppApache\getMenuApache</text>
</a>
</g>
</g>
<!-- Node1&#45;&gt;Node2 -->
<g id="edge1_Node000001_Node000002" class="edge">
<title>Node1&#45;&gt;Node2</title>
<g id="a_edge1_Node000001_Node000002"><a xlink:title=" ">
<path fill="none" stroke="#63b8ff" d="M977.16,-439.03C967.88,-512.46 936.09,-733.45 884.5,-780.25 876.08,-787.88 866.12,-793.46 855.47,-797.47"/>
<polygon fill="#63b8ff" stroke="#63b8ff" points="980.6,-439.69 978.35,-429.33 973.65,-438.83 980.6,-439.69"/>
</a>
</g>
</g>
<!-- Node3 -->
<g id="Node000003" class="node">
<title>Node3</title>
<g id="a_Node000003"><a xlink:href="../../d0/d23/classTplAppFilezilla.html#ac79291983a2d52baddaff20066557be6" target="_top" xlink:title=" ">
<polygon fill="white" stroke="#666666" points="853,-771.5 639,-771.5 639,-747 853,-747 853,-771.5"/>
<text text-anchor="middle" x="746" y="-754.2" font-family="Helvetica,sans-Serif" font-size="14.00">TplAppFilezilla\getMenuFilezilla</text>
</a>
</g>
</g>
<!-- Node1&#45;&gt;Node3 -->
<g id="edge2_Node000001_Node000003" class="edge">
<title>Node1&#45;&gt;Node3</title>
<g id="a_edge2_Node000001_Node000003"><a xlink:title=" ">
<path fill="none" stroke="#63b8ff" d="M980.83,-439.17C981.52,-499.46 974.29,-658.41 884.5,-737.25 875.42,-745.23 864.64,-750.92 853.17,-754.93"/>
<polygon fill="#63b8ff" stroke="#63b8ff" points="984.34,-439.31 980.63,-429.38 977.34,-439.46 984.34,-439.31"/>
</a>
</g>
</g>
<!-- Node4 -->
<g id="Node000004" class="node">
<title>Node4</title>
<g id="a_Node000004"><a xlink:href="../../d0/dbb/classTplAppGit.html#aaec8cdb1aac71d62ba8ca42c626a82a5" target="_top" xlink:title=" ">
<polygon fill="white" stroke="#666666" points="824.5,-728.5 667.5,-728.5 667.5,-704 824.5,-704 824.5,-728.5"/>
<text text-anchor="middle" x="746" y="-711.2" font-family="Helvetica,sans-Serif" font-size="14.00">TplAppGit\getMenuGit</text>
</a>
</g>
</g>
<!-- Node1&#45;&gt;Node4 -->
<g id="edge3_Node000001_Node000004" class="edge">
<title>Node1&#45;&gt;Node4</title>
<g id="a_edge3_Node000001_Node000004"><a xlink:title=" ">
<path fill="none" stroke="#63b8ff" d="M979.58,-438.91C977.24,-493.35 963.34,-627.87 884.5,-694.25 867.95,-708.19 846.16,-715.07 824.83,-718.12"/>
<polygon fill="#63b8ff" stroke="#63b8ff" points="983.07,-439.34 979.89,-429.23 976.07,-439.12 983.07,-439.34"/>
</a>
</g>
</g>
<!-- Node5 -->
<g id="Node000005" class="node">
<title>Node5</title>
<g id="a_Node000005"><a xlink:href="../../d4/d8a/classTplAppMailhog.html#a67c2c3057bcdaac6cf91614662582c6d" target="_top" xlink:title=" ">
<polygon fill="white" stroke="#666666" points="855.25,-685.5 636.75,-685.5 636.75,-661 855.25,-661 855.25,-685.5"/>
<text text-anchor="middle" x="746" y="-668.2" font-family="Helvetica,sans-Serif" font-size="14.00">TplAppMailhog\getMenuMailhog</text>
</a>
</g>
</g>
<!-- Node1&#45;&gt;Node5 -->
<g id="edge4_Node000001_Node000005" class="edge">
<title>Node1&#45;&gt;Node5</title>
<g id="a_edge4_Node000001_Node000005"><a xlink:title=" ">
<path fill="none" stroke="#63b8ff" d="M977.89,-439.18C972.25,-487.63 952.27,-597.29 884.5,-651.25 875.9,-658.1 866.01,-663.21 855.56,-666.99"/>
<polygon fill="#63b8ff" stroke="#63b8ff" points="981.37,-439.56 978.92,-429.25 974.41,-438.83 981.37,-439.56"/>
</a>
</g>
</g>
<!-- Node6 -->
<g id="Node000006" class="node">
<title>Node6</title>
<g id="a_Node000006"><a xlink:href="../../d8/dd3/classTplAppMailpit.html#a6b11486b7c0c3abff5bd9a69107e739f" target="_top" xlink:title=" ">
<polygon fill="white" stroke="#666666" points="846.25,-642.5 645.75,-642.5 645.75,-618 846.25,-618 846.25,-642.5"/>
<text text-anchor="middle" x="746" y="-625.2" font-family="Helvetica,sans-Serif" font-size="14.00">TplAppMailpit\getMenuMailpit</text>
</a>
</g>
</g>
<!-- Node1&#45;&gt;Node6 -->
<g id="edge5_Node000001_Node000006" class="edge">
<title>Node1&#45;&gt;Node6</title>
<g id="a_edge5_Node000001_Node000006"><a xlink:title=" ">
<path fill="none" stroke="#63b8ff" d="M975.61,-438.84C966.54,-480.38 941.63,-566.16 884.5,-608.25 873.31,-616.5 860.21,-622.15 846.62,-625.95"/>
<polygon fill="#63b8ff" stroke="#63b8ff" points="979.01,-439.67 977.58,-429.17 972.15,-438.27 979.01,-439.67"/>
</a>
</g>
</g>
<!-- Node7 -->
<g id="Node000007" class="node">
<title>Node7</title>
<g id="a_Node000007"><a xlink:href="../../d4/de1/classTplAppMariadb.html#a46c8afea1780be6bdd5989bccb0c67e2" target="_top" xlink:title=" ">
<polygon fill="white" stroke="#666666" points="856.75,-599.5 635.25,-599.5 635.25,-575 856.75,-575 856.75,-599.5"/>
<text text-anchor="middle" x="746" y="-582.2" font-family="Helvetica,sans-Serif" font-size="14.00">TplAppMariadb\getMenuMariadb</text>
</a>
</g>
</g>
<!-- Node1&#45;&gt;Node7 -->
<g id="edge6_Node000001_Node000007" class="edge">
<title>Node1&#45;&gt;Node7</title>
<g id="a_edge6_Node000001_Node000007"><a xlink:title=" ">
<path fill="none" stroke="#63b8ff" d="M972.17,-438.6C959.51,-472.5 931.12,-534.62 884.5,-565.25 876.11,-570.76 866.84,-575.06 857.17,-578.4"/>
<polygon fill="#63b8ff" stroke="#63b8ff" points="975.42,-439.91 975.49,-429.31 968.83,-437.55 975.42,-439.91"/>
</a>
</g>
</g>
<!-- Node8 -->
<g id="Node000008" class="node">
<title>Node8</title>
<g id="a_Node000008"><a xlink:href="../../d8/dff/classTplAppMemcached.html#aefb8013320c0321bd6f3727349ea1045" target="_top" xlink:title=" ">
<polygon fill="white" stroke="#666666" points="884.5,-556.5 607.5,-556.5 607.5,-532 884.5,-532 884.5,-556.5"/>
<text text-anchor="middle" x="746" y="-539.2" font-family="Helvetica,sans-Serif" font-size="14.00">TplAppMemcached\getMenuMemcached</text>
</a>
</g>
</g>
<!-- Node1&#45;&gt;Node8 -->
<g id="edge7_Node000001_Node000008" class="edge">
<title>Node1&#45;&gt;Node8</title>
<g id="a_edge7_Node000001_Node000008"><a xlink:title=" ">
<path fill="none" stroke="#63b8ff" d="M966.91,-437.37C950.86,-462.37 921.2,-502.18 884.5,-522.25 877.82,-525.9 870.7,-528.99 863.35,-531.6"/>
<polygon fill="#63b8ff" stroke="#63b8ff" points="969.84,-439.3 972.14,-428.95 963.89,-435.6 969.84,-439.3"/>
</a>
</g>
</g>
<!-- Node9 -->
<g id="Node000009" class="node">
<title>Node9</title>
<g id="a_Node000009"><a xlink:href="../../d6/d19/classTplAppMysql.html#ab73238f0e33b03f8ce20144b582e5609" target="_top" xlink:title=" ">
<polygon fill="white" stroke="#666666" points="843.25,-513.5 648.75,-513.5 648.75,-489 843.25,-489 843.25,-513.5"/>
<text text-anchor="middle" x="746" y="-496.2" font-family="Helvetica,sans-Serif" font-size="14.00">TplAppMysql\getMenuMysql</text>
</a>
</g>
</g>
<!-- Node1&#45;&gt;Node9 -->
<g id="edge8_Node000001_Node000009" class="edge">
<title>Node1&#45;&gt;Node9</title>
<g id="a_edge8_Node000001_Node000009"><a xlink:title=" ">
<path fill="none" stroke="#63b8ff" d="M956.81,-435.01C938.41,-449.6 911.39,-468.68 884.5,-479.25 871.56,-484.34 857.5,-488.25 843.47,-491.25"/>
<polygon fill="#63b8ff" stroke="#63b8ff" points="958.88,-437.84 964.43,-428.82 954.46,-432.41 958.88,-437.84"/>
</a>
</g>
</g>
<!-- Node10 -->
<g id="Node000010" class="node">
<title>Node10</title>
<g id="a_Node000010"><a xlink:href="../../dc/d32/classTplAppNodejs.html#ae6136fcf0895063f90caa2b191d0d11b" target="_top" xlink:title=" ">
<polygon fill="white" stroke="#666666" points="851.5,-470.5 640.5,-470.5 640.5,-446 851.5,-446 851.5,-470.5"/>
<text text-anchor="middle" x="746" y="-453.2" font-family="Helvetica,sans-Serif" font-size="14.00">TplAppNodejs\getMenuNodejs</text>
</a>
</g>
</g>
<!-- Node1&#45;&gt;Node10 -->
<g id="edge9_Node000001_Node000010" class="edge">
<title>Node1&#45;&gt;Node10</title>
<g id="a_edge9_Node000001_Node000010"><a xlink:title=" ">
<path fill="none" stroke="#63b8ff" d="M913.85,-430.32C904.03,-432.4 894.01,-434.44 884.5,-436.25 867.4,-439.5 849.04,-442.66 831.49,-445.52"/>
<polygon fill="#63b8ff" stroke="#63b8ff" points="914.3,-433.8 923.33,-428.27 912.82,-426.96 914.3,-433.8"/>
</a>
</g>
</g>
<!-- Node11 -->
<g id="Node000011" class="node">
<title>Node11</title>
<g id="a_Node000011"><a xlink:href="../../d0/d1a/classTplAppPhp.html#a1f03b6b08aba4677031cc2f46550690c" target="_top" xlink:title=" ">
<polygon fill="white" stroke="#666666" points="832,-427.5 660,-427.5 660,-403 832,-403 832,-427.5"/>
<text text-anchor="middle" x="746" y="-410.2" font-family="Helvetica,sans-Serif" font-size="14.00">TplAppPhp\getMenuPhp</text>
</a>
</g>
</g>
<!-- Node1&#45;&gt;Node11 -->
<g id="edge10_Node000001_Node000011" class="edge">
<title>Node1&#45;&gt;Node11</title>
<g id="a_edge10_Node000001_Node000011"><a xlink:title=" ">
<path fill="none" stroke="#63b8ff" d="M909.07,-415.25C884.91,-415.25 857.65,-415.25 832.47,-415.25"/>
<polygon fill="#63b8ff" stroke="#63b8ff" points="908.79,-418.75 918.79,-415.25 908.79,-411.75 908.79,-418.75"/>
</a>
</g>
</g>
<!-- Node12 -->
<g id="Node000012" class="node">
<title>Node12</title>
<g id="a_Node000012"><a xlink:href="../../d3/d1b/classTplAppPostgresql.html#ae7611346aa23c70ab2d933dcf5b75e44" target="_top" xlink:title=" ">
<polygon fill="white" stroke="#666666" points="841,-384.75 651,-384.75 651,-343.75 841,-343.75 841,-384.75"/>
<text text-anchor="start" x="659" y="-367.45" font-family="Helvetica,sans-Serif" font-size="14.00">TplAppPostgresql\getMenu</text>
<text text-anchor="middle" x="746" y="-350.95" font-family="Helvetica,sans-Serif" font-size="14.00">Postgresql</text>
</a>
</g>
</g>
<!-- Node1&#45;&gt;Node12 -->
<g id="edge11_Node000001_Node000012" class="edge">
<title>Node1&#45;&gt;Node12</title>
<g id="a_edge11_Node000001_Node000012"><a xlink:title=" ">
<path fill="none" stroke="#63b8ff" d="M910.98,-400.06C902.07,-398.1 893.07,-396.13 884.5,-394.25 870.54,-391.19 855.78,-387.96 841.31,-384.81"/>
<polygon fill="#63b8ff" stroke="#63b8ff" points="910.18,-403.47 920.7,-402.19 911.69,-396.63 910.18,-403.47"/>
</a>
</g>
</g>
<!-- Node13 -->
<g id="Node000013" class="node">
<title>Node13</title>
<g id="a_Node000013"><a xlink:href="../../dc/d83/classTplAppXlight.html#af5d3e9e4275051253786be7055330a6c" target="_top" xlink:title=" ">
<polygon fill="white" stroke="#666666" points="841.75,-325.5 650.25,-325.5 650.25,-301 841.75,-301 841.75,-325.5"/>
<text text-anchor="middle" x="746" y="-308.2" font-family="Helvetica,sans-Serif" font-size="14.00">TplAppXlight\getMenuXlight</text>
</a>
</g>
</g>
<!-- Node1&#45;&gt;Node13 -->
<g id="edge12_Node000001_Node000013" class="edge">
<title>Node1&#45;&gt;Node13</title>
<g id="a_edge12_Node000001_Node000013"><a xlink:title=" ">
<path fill="none" stroke="#63b8ff" d="M961.51,-394.36C943.72,-375.69 915.08,-349.2 884.5,-335.25 871.3,-329.23 856.74,-324.82 842.17,-321.6"/>
<polygon fill="#63b8ff" stroke="#63b8ff" points="958.72,-396.49 968.08,-401.45 963.85,-391.73 958.72,-396.49"/>
</a>
</g>
</g>
<!-- Node14 -->
<g id="Node000014" class="node">
<title>Node14</title>
<g id="a_Node000014"><a xlink:href="../../d9/d19/classTplAppApps.html#ab018e1e375019c861d80a92d16e46c2f" target="_top" xlink:title=" ">
<polygon fill="white" stroke="#666666" points="821.88,-282.5 670.12,-282.5 670.12,-258 821.88,-258 821.88,-282.5"/>
<text text-anchor="middle" x="746" y="-265.2" font-family="Helvetica,sans-Serif" font-size="14.00">TplAppApps\process</text>
</a>
</g>
</g>
<!-- Node1&#45;&gt;Node14 -->
<g id="edge13_Node000001_Node000014" class="edge">
<title>Node1&#45;&gt;Node14</title>
<g id="a_edge13_Node000001_Node000014"><a xlink:title=" ">
<path fill="none" stroke="#63b8ff" d="M969.09,-392.38C954.22,-363.89 924.75,-316.08 884.5,-292.25 865.88,-281.23 843.48,-275.22 822.21,-272.07"/>
<polygon fill="#63b8ff" stroke="#63b8ff" points="965.93,-393.88 973.55,-401.24 972.19,-390.74 965.93,-393.88"/>
</a>
</g>
</g>
<!-- Node18 -->
<g id="Node000018" class="node">
<title>Node18</title>
<g id="a_Node000018"><a xlink:href="../../d0/dbb/classTplAppGit.html#adea74cf92a5295608c08f369dad1a0f6" target="_top" xlink:title=" ">
<polygon fill="white" stroke="#666666" points="814,-153.5 678,-153.5 678,-129 814,-129 814,-153.5"/>
<text text-anchor="middle" x="746" y="-136.2" font-family="Helvetica,sans-Serif" font-size="14.00">TplAppGit\process</text>
</a>
</g>
</g>
<!-- Node1&#45;&gt;Node18 -->
<g id="edge17_Node000001_Node000018" class="edge">
<title>Node1&#45;&gt;Node18</title>
<g id="a_edge17_Node000001_Node000018"><a xlink:title=" ">
<path fill="none" stroke="#63b8ff" d="M978.56,-391.12C974.13,-340.2 956.23,-221.68 884.5,-163.25 865.01,-147.37 838.66,-140.76 814.24,-138.51"/>
<polygon fill="#63b8ff" stroke="#63b8ff" points="975.06,-391.31 979.3,-401.02 982.04,-390.78 975.06,-391.31"/>
</a>
</g>
</g>
<!-- Node20 -->
<g id="Node000020" class="node">
<title>Node20</title>
<g id="a_Node000020"><a xlink:href="../../dc/d2c/classTplAppLang.html#abff3e31875497aeeb561e38d9c86ad2d" target="_top" xlink:title=" ">
<polygon fill="white" stroke="#666666" points="820.75,-67.5 671.25,-67.5 671.25,-43 820.75,-43 820.75,-67.5"/>
<text text-anchor="middle" x="746" y="-50.2" font-family="Helvetica,sans-Serif" font-size="14.00">TplAppLang\process</text>
</a>
</g>
</g>
<!-- Node1&#45;&gt;Node20 -->
<g id="edge19_Node000001_Node000020" class="edge">
<title>Node1&#45;&gt;Node20</title>
<g id="a_edge19_Node000001_Node000020"><a xlink:title=" ">
<path fill="none" stroke="#63b8ff" d="M976.69,-391.86C966.37,-322.5 932.64,-120.07 884.5,-77.25 867.25,-61.9 843.74,-54.95 821.03,-52.25"/>
<polygon fill="#63b8ff" stroke="#63b8ff" points="973.16,-391.97 978.07,-401.36 980.09,-390.96 973.16,-391.97"/>
</a>
</g>
</g>
<!-- Node22 -->
<g id="Node000022" class="node">
<title>Node22</title>
<g id="a_Node000022"><a xlink:href="../../d2/d2a/classTplAppLogs.html#a3234d300aa7c615b8ec45e4a5d9f6825" target="_top" xlink:title=" ">
<polygon fill="white" stroke="#666666" points="821.12,-239.5 670.88,-239.5 670.88,-215 821.12,-215 821.12,-239.5"/>
<text text-anchor="middle" x="746" y="-222.2" font-family="Helvetica,sans-Serif" font-size="14.00">TplAppLogs\process</text>
</a>
</g>
</g>
<!-- Node1&#45;&gt;Node22 -->
<g id="edge22_Node000001_Node000022" class="edge">
<title>Node1&#45;&gt;Node22</title>
<g id="a_edge22_Node000001_Node000022"><a xlink:title=" ">
<path fill="none" stroke="#63b8ff" d="M973.72,-392.07C962.46,-355.29 935.13,-284.16 884.5,-249.25 866.19,-236.62 843.28,-230.23 821.45,-227.22"/>
<polygon fill="#63b8ff" stroke="#63b8ff" points="970.24,-392.64 976.4,-401.26 976.96,-390.68 970.24,-392.64"/>
</a>
</g>
</g>
<!-- Node23 -->
<g id="Node000023" class="node">
<title>Node23</title>
<g id="a_Node000023"><a xlink:href="../../d9/d3f/classTplAppLogsVerbose.html#a11a29ae5ff5c48b458f391eb4a9e2dfb" target="_top" xlink:title=" ">
<polygon fill="white" stroke="#666666" points="848.5,-24.5 643.5,-24.5 643.5,0 848.5,0 848.5,-24.5"/>
<text text-anchor="middle" x="746" y="-7.2" font-family="Helvetica,sans-Serif" font-size="14.00">TplAppLogsVerbose\process</text>
</a>
</g>
</g>
<!-- Node1&#45;&gt;Node23 -->
<g id="edge24_Node000001_Node000023" class="edge">
<title>Node1&#45;&gt;Node23</title>
<g id="a_edge24_Node000001_Node000023"><a xlink:title=" ">
<path fill="none" stroke="#63b8ff" d="M977.43,-391.42C968.77,-315.81 938.19,-83.46 884.5,-34.25 874.34,-24.94 861.89,-18.68 848.67,-14.58"/>
<polygon fill="#63b8ff" stroke="#63b8ff" points="973.91,-391.47 978.5,-401.02 980.87,-390.7 973.91,-391.47"/>
</a>
</g>
</g>
<!-- Node24 -->
<g id="Node000024" class="node">
<title>Node24</title>
<g id="a_Node000024"><a xlink:href="../../de/d1b/classTplAppPython.html#a2e1c0ccfe5817de9d36f506d884d866f" target="_top" xlink:title=" ">
<polygon fill="white" stroke="#666666" points="826.75,-110.5 665.25,-110.5 665.25,-86 826.75,-86 826.75,-110.5"/>
<text text-anchor="middle" x="746" y="-93.2" font-family="Helvetica,sans-Serif" font-size="14.00">TplAppPython\process</text>
</a>
</g>
</g>
<!-- Node1&#45;&gt;Node24 -->
<g id="edge26_Node000001_Node000024" class="edge">
<title>Node1&#45;&gt;Node24</title>
<g id="a_edge26_Node000001_Node000024"><a xlink:title=" ">
<path fill="none" stroke="#63b8ff" d="M980.08,-391.42C978.88,-334.71 967.37,-191.22 884.5,-120.25 868.62,-106.65 847.77,-99.73 827.12,-96.52"/>
<polygon fill="#63b8ff" stroke="#63b8ff" points="976.58,-391.25 980.19,-401.21 983.58,-391.17 976.58,-391.25"/>
</a>
</g>
</g>
<!-- Node25 -->
<g id="Node000025" class="node">
<title>Node25</title>
<g id="a_Node000025"><a xlink:href="../../dc/dd8/classTplAppTools.html#a0a521efda0ec7adde6da0325d3095ec2" target="_top" xlink:title=" ">
<polygon fill="white" stroke="#666666" points="823,-196.5 669,-196.5 669,-172 823,-172 823,-196.5"/>
<text text-anchor="middle" x="746" y="-179.2" font-family="Helvetica,sans-Serif" font-size="14.00">TplAppTools\process</text>
</a>
</g>
</g>
<!-- Node1&#45;&gt;Node25 -->
<g id="edge28_Node000001_Node000025" class="edge">
<title>Node1&#45;&gt;Node25</title>
<g id="a_edge28_Node000001_Node000025"><a xlink:title=" ">
<path fill="none" stroke="#63b8ff" d="M976.51,-391.29C968.7,-347 945.46,-252.63 884.5,-206.25 867.09,-193 844.8,-186.37 823.27,-183.34"/>
<polygon fill="#63b8ff" stroke="#63b8ff" points="973.05,-391.81 978.11,-401.12 979.95,-390.68 973.05,-391.81"/>
</a>
</g>
</g>
<!-- Node15 -->
<g id="Node000015" class="node">
<title>Node15</title>
<g id="a_Node000015"><a xlink:href="../../d1/d65/classTplApp.html#a7548fa52341ab60cfa061827d44cf43c" target="_top" xlink:title=" ">
<polygon fill="white" stroke="#666666" points="567.38,-217.5 373.62,-217.5 373.62,-193 567.38,-193 567.38,-217.5"/>
<text text-anchor="middle" x="470.5" y="-200.2" font-family="Helvetica,sans-Serif" font-size="14.00">TplApp\getSectionMenuLeft</text>
</a>
</g>
</g>
<!-- Node14&#45;&gt;Node15 -->
<g id="edge14_Node000014_Node000015" class="edge">
<title>Node14&#45;&gt;Node15</title>
<g id="a_edge14_Node000014_Node000015"><a xlink:title=" ">
<path fill="none" stroke="#63b8ff" d="M658.6,-258.42C641.57,-255.53 623.9,-252.13 607.5,-248.25 572.68,-240.01 533.84,-227.37 506.61,-217.92"/>
<polygon fill="#63b8ff" stroke="#63b8ff" points="657.75,-261.83 668.18,-260.01 658.89,-254.92 657.75,-261.83"/>
</a>
</g>
</g>
<!-- Node16 -->
<g id="Node000016" class="node">
<title>Node16</title>
<g id="a_Node000016"><a xlink:href="../../d1/d65/classTplApp.html#a57b270c79fbb8b220ad02af08368e367" target="_top" xlink:title=" ">
<polygon fill="white" stroke="#666666" points="333.5,-131.5 215.5,-131.5 215.5,-107 333.5,-107 333.5,-131.5"/>
<text text-anchor="middle" x="274.5" y="-114.2" font-family="Helvetica,sans-Serif" font-size="14.00">TplApp\process</text>
</a>
</g>
</g>
<!-- Node15&#45;&gt;Node16 -->
<g id="edge15_Node000015_Node000016" class="edge">
<title>Node15&#45;&gt;Node16</title>
<g id="a_edge15_Node000015_Node000016"><a xlink:title=" ">
<path fill="none" stroke="#63b8ff" d="M430.38,-187.91C393.05,-171.36 337.68,-146.81 304.24,-131.99"/>
<polygon fill="#63b8ff" stroke="#63b8ff" points="428.93,-191.09 439.49,-191.95 431.77,-184.69 428.93,-191.09"/>
</a>
</g>
</g>
<!-- Node17 -->
<g id="Node000017" class="node">
<title>Node17</title>
<g id="a_Node000017"><a xlink:href="../../dd/dea/classActionReload.html#a9caf3b20c05475876e5dc72cdcdf6024" target="_top" xlink:title=" ">
<polygon fill="white" stroke="#666666" points="179.5,-131.5 0,-131.5 0,-107 179.5,-107 179.5,-131.5"/>
<text text-anchor="middle" x="89.75" y="-114.2" font-family="Helvetica,sans-Serif" font-size="14.00">ActionReload\__construct</text>
</a>
</g>
</g>
<!-- Node16&#45;&gt;Node17 -->
<g id="edge16_Node000016_Node000017" class="edge">
<title>Node16&#45;&gt;Node17</title>
<g id="a_edge16_Node000016_Node000017"><a xlink:title=" ">
<path fill="none" stroke="#63b8ff" d="M203.85,-119.25C195.99,-119.25 187.9,-119.25 179.83,-119.25"/>
<polygon fill="#63b8ff" stroke="#63b8ff" points="203.66,-122.75 213.66,-119.25 203.66,-115.75 203.66,-122.75"/>
</a>
</g>
</g>
<!-- Node19 -->
<g id="Node000019" class="node">
<title>Node19</title>
<g id="a_Node000019"><a xlink:href="../../dc/dd8/classTplAppTools.html#a97812c609b88d8652034a1bf78725687" target="_top" xlink:title=" ">
<polygon fill="white" stroke="#666666" points="567,-131.5 374,-131.5 374,-107 567,-107 567,-131.5"/>
<text text-anchor="middle" x="470.5" y="-114.2" font-family="Helvetica,sans-Serif" font-size="14.00">TplAppTools\getMenuTools</text>
</a>
</g>
</g>
<!-- Node18&#45;&gt;Node19 -->
<g id="edge18_Node000018_Node000019" class="edge">
<title>Node18&#45;&gt;Node19</title>
<g id="a_edge18_Node000018_Node000019"><a xlink:title=" ">
<path fill="none" stroke="#63b8ff" d="M666.59,-134.94C635.68,-132.46 599.88,-129.58 567.45,-126.97"/>
<polygon fill="#63b8ff" stroke="#63b8ff" points="665.99,-138.41 676.24,-135.72 666.55,-131.43 665.99,-138.41"/>
</a>
</g>
</g>
<!-- Node21 -->
<g id="Node000021" class="node">
<title>Node21</title>
<g id="a_Node000021"><a xlink:href="../../d1/d65/classTplApp.html#a9db61fdb53ab5d42766b0634f77dd458" target="_top" xlink:title=" ">
<polygon fill="white" stroke="#666666" points="571.5,-67.5 369.5,-67.5 369.5,-43 571.5,-43 571.5,-67.5"/>
<text text-anchor="middle" x="470.5" y="-50.2" font-family="Helvetica,sans-Serif" font-size="14.00">TplApp\getSectionMenuRight</text>
</a>
</g>
</g>
<!-- Node20&#45;&gt;Node21 -->
<g id="edge20_Node000020_Node000021" class="edge">
<title>Node20&#45;&gt;Node21</title>
<g id="a_edge20_Node000020_Node000021"><a xlink:title=" ">
<path fill="none" stroke="#63b8ff" d="M659.68,-55.25C631.81,-55.25 600.62,-55.25 571.76,-55.25"/>
<polygon fill="#63b8ff" stroke="#63b8ff" points="659.47,-58.75 669.47,-55.25 659.47,-51.75 659.47,-58.75"/>
</a>
</g>
</g>
<!-- Node21&#45;&gt;Node16 -->
<g id="edge21_Node000021_Node000016" class="edge">
<title>Node21&#45;&gt;Node16</title>
<g id="a_edge21_Node000021_Node000016"><a xlink:title=" ">
<path fill="none" stroke="#63b8ff" d="M420.4,-71.45C387.43,-82.32 344.61,-96.45 314.08,-106.52"/>
<polygon fill="#63b8ff" stroke="#63b8ff" points="421.33,-74.83 429.73,-68.37 419.14,-68.18 421.33,-74.83"/>
</a>
</g>
</g>
<!-- Node22&#45;&gt;Node15 -->
<g id="edge23_Node000022_Node000015" class="edge">
<title>Node22&#45;&gt;Node15</title>
<g id="a_edge23_Node000022_Node000015"><a xlink:title=" ">
<path fill="none" stroke="#63b8ff" d="M659.26,-220.35C630.19,-218.02 597.54,-215.39 567.72,-212.99"/>
<polygon fill="#63b8ff" stroke="#63b8ff" points="658.87,-223.83 669.12,-221.15 659.43,-216.86 658.87,-223.83"/>
</a>
</g>
</g>
<!-- Node23&#45;&gt;Node21 -->
<g id="edge25_Node000023_Node000021" class="edge">
<title>Node23&#45;&gt;Node21</title>
<g id="a_edge25_Node000023_Node000021"><a xlink:title=" ">
<path fill="none" stroke="#63b8ff" d="M652.7,-26.76C620.13,-31.88 583.78,-37.6 552.24,-42.56"/>
<polygon fill="#63b8ff" stroke="#63b8ff" points="653.22,-30.22 662.56,-25.21 652.13,-23.31 653.22,-30.22"/>
</a>
</g>
</g>
<!-- Node24&#45;&gt;Node19 -->
<g id="edge27_Node000024_Node000019" class="edge">
<title>Node24&#45;&gt;Node19</title>
<g id="a_edge27_Node000024_Node000019"><a xlink:title=" ">
<path fill="none" stroke="#63b8ff" d="M653.49,-105.28C625.74,-107.41 595.19,-109.75 567.18,-111.9"/>
<polygon fill="#63b8ff" stroke="#63b8ff" points="653.58,-108.78 663.28,-104.52 653.04,-101.8 653.58,-108.78"/>
</a>
</g>
</g>
<!-- Node25&#45;&gt;Node15 -->
<g id="edge29_Node000025_Node000015" class="edge">
<title>Node25&#45;&gt;Node15</title>
<g id="a_edge29_Node000025_Node000015"><a xlink:title=" ">
<path fill="none" stroke="#63b8ff" d="M657.61,-190.96C628.99,-193.16 597.04,-195.61 567.8,-197.86"/>
<polygon fill="#63b8ff" stroke="#63b8ff" points="657.6,-194.47 667.31,-190.22 657.07,-187.49 657.6,-194.47"/>
</a>
</g>
</g>
</g>
</svg>

<g id="navigator" transform="translate(0 0)" fill="#404254">
  <rect fill="#f2f5e9" fill-opacity="0.5" stroke="#606060" stroke-width=".5" x="0" y="0" width="60" height="60"/>
  <use id="zoomplus" xlink:href="#zoomPlus" x="17" y="9" onmousedown="handleZoom(evt,'in')"/>
  <use id="zoomminus" xlink:href="#zoomMin" x="42" y="9" onmousedown="handleZoom(evt,'out')"/>
  <use id="reset" xlink:href="#resetDef" x="30" y="36" onmousedown="handleReset()"/>
   <use id="arrowup" xlink:href="#arrowUp" x="0" y="0" onmousedown="handlePan(0,-1)"/>
  <use id="arrowright" xlink:href="#arrowRight" x="0" y="0" onmousedown="handlePan(1,0)"/>
  <use id="arrowdown" xlink:href="#arrowDown" x="0" y="0" onmousedown="handlePan(0,1)"/>
  <use id="arrowleft" xlink:href="#arrowLeft" x="0" y="0" onmousedown="handlePan(-1,0)"/>
</g>
<svg viewBox="0 0 15 15" width="100%" height="30px" preserveAspectRatio="xMaxYMin meet">
 <g id="arrow_out" transform="scale(0.3 0.3)">
  <a xlink:href="classTplApp_ad922d164c77acd93d176eb04301d68b3_icgraph_org.svg" target="_base">
   <rect id="button" ry="5" rx="5" y="6" x="6" height="38" width="38"
        fill="#f2f5e9" fill-opacity="0.5" stroke="#606060" stroke-width="1.0"/>
   <path id="arrow"
     d="M 11.500037,31.436501 C 11.940474,20.09759 22.043105,11.32322 32.158766,21.979434 L 37.068811,17.246167 C 37.068811,17.246167 37.088388,32 37.088388,32 L 22.160133,31.978069 C 22.160133,31.978069 26.997745,27.140456 26.997745,27.140456 C 18.528582,18.264221 13.291696,25.230495 11.500037,31.436501 z"
     style="fill:#404040;"/>
  </a>
 </g>
</svg>

<style type='text/css'>
<![CDATA[
[data-mouse-over-selected='false'] { opacity: 0.7; }
[data-mouse-over-selected='true']  { opacity: 1.0; }
]]>
</style>
<script type="application/ecmascript"><![CDATA[
document.addEventListener('DOMContentLoaded', (event) => {
  highlightEdges();
  highlightAdjacentNodes();
});
]]></script>
</svg>
