<?xml version="1.0" encoding="UTF-8" standalone="no"?>
<!--
  - Copyright (c) 2021-2024 Bearsampp
  - License:  GNU General Public License version 3 or later; see LICENSE.txt
  - Author: Bear
  - Website: https://bearsampp.com
  - Github: https://github.com/Bearsampp
  -->

<!DOCTYPE svg PUBLIC "-//W3C//DTD SVG 1.1//EN"
 "http://www.w3.org/Graphics/SVG/1.1/DTD/svg11.dtd">
<!-- Generated by graphviz version 11.0.0 (20240428.1522)
 -->
<!-- Title: Util\changePath Pages: 1 -->
<svg width="581pt" height="92pt"
 viewBox="0.00 0.00 581.00 91.75" xmlns="http://www.w3.org/2000/svg" xmlns:xlink="http://www.w3.org/1999/xlink">
<g id="graph0" class="graph" transform="scale(1 1) rotate(0) translate(4 87.75)">
<title>Util\changePath</title>
<!-- Node1 -->
<g id="Node000001" class="node">
<title>Node1</title>
<g id="a_Node000001"><a xlink:title=" ">
<polygon fill="#999999" stroke="#666666" points="573,-57.75 458.75,-57.75 458.75,-33.25 573,-33.25 573,-57.75"/>
<text text-anchor="middle" x="515.88" y="-40.45" font-family="Helvetica,sans-Serif" font-size="14.00">Util\changePath</text>
</a>
</g>
</g>
<!-- Node2 -->
<g id="Node000002" class="node">
<title>Node2</title>
<g id="a_Node000002"><a xlink:href="../../d1/db8/classActionStartup.html#a3ad5368c4a2382783daf1f3e8350cabb" target="_top" xlink:title=" ">
<polygon fill="white" stroke="#666666" points="422.75,-83.75 243.25,-83.75 243.25,-59.25 422.75,-59.25 422.75,-83.75"/>
<text text-anchor="middle" x="333" y="-66.45" font-family="Helvetica,sans-Serif" font-size="14.00">ActionStartup\changePath</text>
</a>
</g>
</g>
<!-- Node1&#45;&gt;Node2 -->
<g id="edge1_Node000001_Node000002" class="edge">
<title>Node1&#45;&gt;Node2</title>
<g id="a_edge1_Node000001_Node000002"><a xlink:title=" ">
<path fill="none" stroke="#63b8ff" d="M447.34,-55.21C439.2,-56.38 430.8,-57.59 422.42,-58.79"/>
<polygon fill="#63b8ff" stroke="#63b8ff" points="447.74,-58.69 457.14,-53.8 446.74,-51.76 447.74,-58.69"/>
</a>
</g>
</g>
<!-- Node4 -->
<g id="Node000004" class="node">
<title>Node4</title>
<g id="a_Node000004"><a xlink:href="../../d6/dff/classActionSwitchVersion.html#a89f1ff41b1715ca23ea9f9d35f7ff643" target="_top" xlink:title=" ">
<polygon fill="white" stroke="#666666" points="405.88,-41 260.12,-41 260.12,0 405.88,0 405.88,-41"/>
<text text-anchor="start" x="268.12" y="-23.7" font-family="Helvetica,sans-Serif" font-size="14.00">ActionSwitchVersion</text>
<text text-anchor="middle" x="333" y="-7.2" font-family="Helvetica,sans-Serif" font-size="14.00">\processWindow</text>
</a>
</g>
</g>
<!-- Node1&#45;&gt;Node4 -->
<g id="edge3_Node000001_Node000004" class="edge">
<title>Node1&#45;&gt;Node4</title>
<g id="a_edge3_Node000001_Node000004"><a xlink:title=" ">
<path fill="none" stroke="#63b8ff" d="M447.52,-36.19C434.04,-34.33 419.83,-32.36 406.2,-30.48"/>
<polygon fill="#63b8ff" stroke="#63b8ff" points="446.75,-39.62 457.14,-37.52 447.71,-32.68 446.75,-39.62"/>
</a>
</g>
</g>
<!-- Node3 -->
<g id="Node000003" class="node">
<title>Node3</title>
<g id="a_Node000003"><a xlink:href="../../d1/db8/classActionStartup.html#a1234a0f2093a95140d6f86983514d28f" target="_top" xlink:title=" ">
<polygon fill="white" stroke="#666666" points="207.25,-83.75 0,-83.75 0,-59.25 207.25,-59.25 207.25,-83.75"/>
<text text-anchor="middle" x="103.63" y="-66.45" font-family="Helvetica,sans-Serif" font-size="14.00">ActionStartup\processWindow</text>
</a>
</g>
</g>
<!-- Node2&#45;&gt;Node3 -->
<g id="edge2_Node000002_Node000003" class="edge">
<title>Node2&#45;&gt;Node3</title>
<g id="a_edge2_Node000002_Node000003"><a xlink:title=" ">
<path fill="none" stroke="#63b8ff" d="M231.3,-71.5C223.41,-71.5 215.43,-71.5 207.52,-71.5"/>
<polygon fill="#63b8ff" stroke="#63b8ff" points="231.27,-75 241.27,-71.5 231.27,-68 231.27,-75"/>
</a>
</g>
</g>
</g>
</svg>
