<?xml version="1.0" encoding="UTF-8" standalone="no"?>
<!--
  - Copyright (c) 2021-2024 Bearsampp
  - License:  GNU General Public License version 3 or later; see LICENSE.txt
  - Author: Bear
  - Website: https://bearsampp.com
  - Github: https://github.com/Bearsampp
  -->

<!DOCTYPE svg PUBLIC "-//W3C//DTD SVG 1.1//EN"
 "http://www.w3.org/Graphics/SVG/1.1/DTD/svg11.dtd">
<!-- Generated by graphviz version 11.0.0 (20240428.1522)
 -->
<!-- Title: Util\getHeaders Pages: 1 -->
<svg width="310pt" height="162pt"
 viewBox="0.00 0.00 310.00 161.50" xmlns="http://www.w3.org/2000/svg" xmlns:xlink="http://www.w3.org/1999/xlink">

<svg id="main" version="1.1" xmlns="http://www.w3.org/2000/svg" xmlns:xlink="http://www.w3.org/1999/xlink" xml:space="preserve" onload="init(evt)">
<style type="text/css"><![CDATA[
.node, .edge {opacity: 0.7;}
.node.selected, .edge.selected {opacity: 1;}
.edge:hover path { stroke: red; }
.edge:hover polygon { stroke: red; fill: red; }
]]></style>
<script type="application/ecmascript" xlink:href="../../svg.min.js"/>
<svg id="graph" class="graph">
<g id="graph0" class="graph" transform="scale(1 1) rotate(0) translate(4 157.5)">
<title>Util\getHeaders</title>
<!-- Node1 -->
<g id="Node000001" class="node">
<title>Node1</title>
<g id="a_Node000001"><a xlink:title=" ">
<polygon fill="#999999" stroke="#666666" points="302,-88.5 188.5,-88.5 188.5,-64 302,-64 302,-88.5"/>
<text text-anchor="middle" x="245.25" y="-71.2" font-family="Helvetica,sans-Serif" font-size="14.00">Util\getHeaders</text>
</a>
</g>
</g>
<!-- Node2 -->
<g id="Node000002" class="node">
<title>Node2</title>
<g id="a_Node000002"><a xlink:href="../../da/d23/classBinFilezilla.html#a01aa87ce20c886e60b479cfdaa23fbb4" target="_top" xlink:title=" ">
<polygon fill="white" stroke="#666666" points="151.38,-153.5 1.12,-153.5 1.12,-129 151.38,-129 151.38,-153.5"/>
<text text-anchor="middle" x="76.25" y="-136.2" font-family="Helvetica,sans-Serif" font-size="14.00">BinFilezilla\checkPort</text>
</a>
</g>
</g>
<!-- Node1&#45;&gt;Node2 -->
<g id="edge1_Node000001_Node000002" class="edge">
<title>Node1&#45;&gt;Node2</title>
<g id="a_edge1_Node000001_Node000002"><a xlink:title=" ">
<path fill="none" stroke="#63b8ff" d="M209.76,-93.95C192.78,-102.27 171.85,-111.94 152.5,-119.25 143.59,-122.62 133.92,-125.79 124.58,-128.62"/>
<polygon fill="#63b8ff" stroke="#63b8ff" points="211.02,-97.24 218.42,-89.66 207.9,-90.97 211.02,-97.24"/>
</a>
</g>
</g>
<!-- Node3 -->
<g id="Node000003" class="node">
<title>Node3</title>
<g id="a_Node000003"><a xlink:href="../../db/df2/classBinMailhog.html#a04295eec0431e43862d99161de64b7b2" target="_top" xlink:title=" ">
<polygon fill="white" stroke="#666666" points="152.5,-110.5 0,-110.5 0,-86 152.5,-86 152.5,-110.5"/>
<text text-anchor="middle" x="76.25" y="-93.2" font-family="Helvetica,sans-Serif" font-size="14.00">BinMailhog\checkPort</text>
</a>
</g>
</g>
<!-- Node1&#45;&gt;Node3 -->
<g id="edge2_Node000001_Node000003" class="edge">
<title>Node1&#45;&gt;Node3</title>
<g id="a_edge2_Node000001_Node000003"><a xlink:title=" ">
<path fill="none" stroke="#63b8ff" d="M176.77,-85.14C168.87,-86.18 160.76,-87.25 152.76,-88.3"/>
<polygon fill="#63b8ff" stroke="#63b8ff" points="177.22,-88.61 186.68,-83.83 176.3,-81.67 177.22,-88.61"/>
</a>
</g>
</g>
<!-- Node4 -->
<g id="Node000004" class="node">
<title>Node4</title>
<g id="a_Node000004"><a xlink:href="../../d9/ddd/classBinMailpit.html#a7a7fb45f46ccaa21226c898a67bc1653" target="_top" xlink:title=" ">
<polygon fill="white" stroke="#666666" points="148,-67.5 4.5,-67.5 4.5,-43 148,-43 148,-67.5"/>
<text text-anchor="middle" x="76.25" y="-50.2" font-family="Helvetica,sans-Serif" font-size="14.00">BinMailpit\checkPort</text>
</a>
</g>
</g>
<!-- Node1&#45;&gt;Node4 -->
<g id="edge3_Node000001_Node000004" class="edge">
<title>Node1&#45;&gt;Node4</title>
<g id="a_edge3_Node000001_Node000004"><a xlink:title=" ">
<path fill="none" stroke="#63b8ff" d="M176.88,-67.78C167.47,-66.59 157.77,-65.38 148.3,-64.18"/>
<polygon fill="#63b8ff" stroke="#63b8ff" points="176.32,-71.23 186.68,-69.01 177.19,-64.29 176.32,-71.23"/>
</a>
</g>
</g>
<!-- Node5 -->
<g id="Node000005" class="node">
<title>Node5</title>
<g id="a_Node000005"><a xlink:href="../../d8/ddb/classBinXlight.html#ab82c8668ec828a8c3ea349ff6c712b17" target="_top" xlink:title=" ">
<polygon fill="white" stroke="#666666" points="145.75,-24.5 6.75,-24.5 6.75,0 145.75,0 145.75,-24.5"/>
<text text-anchor="middle" x="76.25" y="-7.2" font-family="Helvetica,sans-Serif" font-size="14.00">BinXlight\checkPort</text>
</a>
</g>
</g>
<!-- Node1&#45;&gt;Node5 -->
<g id="edge4_Node000001_Node000005" class="edge">
<title>Node1&#45;&gt;Node5</title>
<g id="a_edge4_Node000001_Node000005"><a xlink:title=" ">
<path fill="none" stroke="#63b8ff" d="M209.36,-58.83C192.44,-50.76 171.67,-41.4 152.5,-34.25 143.57,-30.92 133.9,-27.77 124.56,-24.94"/>
<polygon fill="#63b8ff" stroke="#63b8ff" points="207.46,-61.8 217.99,-63 210.51,-55.5 207.46,-61.8"/>
</a>
</g>
</g>
</g>
</svg>
</svg>

<style type='text/css'>
<![CDATA[
[data-mouse-over-selected='false'] { opacity: 0.7; }
[data-mouse-over-selected='true']  { opacity: 1.0; }
]]>
</style>
<script type="application/ecmascript"><![CDATA[
document.addEventListener('DOMContentLoaded', (event) => {
  highlightEdges();
  highlightAdjacentNodes();
});
]]></script>
</svg>
