<?xml version="1.0" encoding="UTF-8" standalone="no"?>
<!--
  - Copyright (c) 2021-2024 Bearsampp
  - License:  GNU General Public License version 3 or later; see LICENSE.txt
  - Author: Bear
  - Website: https://bearsampp.com
  - Github: https://github.com/Bearsampp
  -->

<!DOCTYPE svg PUBLIC "-//W3C//DTD SVG 1.1//EN"
 "http://www.w3.org/Graphics/SVG/1.1/DTD/svg11.dtd">
<!-- Generated by graphviz version 11.0.0 (20240428.1522)
 -->
<!-- Title: Util\stopLoading Pages: 1 -->
<svg width="546pt" height="210pt"
 viewBox="0.00 0.00 545.75 210.00" xmlns="http://www.w3.org/2000/svg" xmlns:xlink="http://www.w3.org/1999/xlink">
<g id="graph0" class="graph" transform="scale(1 1) rotate(0) translate(4 206)">
<title>Util\stopLoading</title>
<!-- Node1 -->
<g id="Node000001" class="node">
<title>Node1</title>
<g id="a_Node000001"><a xlink:title=" ">
<polygon fill="#999999" stroke="#666666" points="537.75,-116.75 419.75,-116.75 419.75,-92.25 537.75,-92.25 537.75,-116.75"/>
<text text-anchor="middle" x="478.75" y="-99.45" font-family="Helvetica,sans-Serif" font-size="14.00">Util\stopLoading</text>
</a>
</g>
</g>
<!-- Node2 -->
<g id="Node000002" class="node">
<title>Node2</title>
<g id="a_Node000002"><a xlink:href="../../d0/d9f/classActionManualRestart.html#a229630778cbd92fef95f4e99e872fdca" target="_top" xlink:title=" ">
<polygon fill="white" stroke="#666666" points="355.25,-202 209.5,-202 209.5,-161 355.25,-161 355.25,-202"/>
<text text-anchor="start" x="217.5" y="-184.7" font-family="Helvetica,sans-Serif" font-size="14.00">ActionManualRestart</text>
<text text-anchor="middle" x="282.38" y="-168.2" font-family="Helvetica,sans-Serif" font-size="14.00">\__construct</text>
</a>
</g>
</g>
<!-- Node1&#45;&gt;Node2 -->
<g id="edge1_Node000001_Node000002" class="edge">
<title>Node1&#45;&gt;Node2</title>
<g id="a_edge1_Node000001_Node000002"><a xlink:title=" ">
<path fill="none" stroke="#63b8ff" d="M444.95,-122.65C427.18,-132.04 404.64,-143.23 383.75,-151.5 374.79,-155.05 365.23,-158.41 355.72,-161.52"/>
<polygon fill="#63b8ff" stroke="#63b8ff" points="446.59,-125.75 453.75,-117.94 443.28,-119.58 446.59,-125.75"/>
</a>
</g>
</g>
<!-- Node3 -->
<g id="Node000003" class="node">
<title>Node3</title>
<g id="a_Node000003"><a xlink:href="../../d7/d0e/classActionService.html#a4440ed18ce314e66ba30932864b5584b" target="_top" xlink:title=" ">
<polygon fill="white" stroke="#666666" points="373.25,-142.75 191.5,-142.75 191.5,-118.25 373.25,-118.25 373.25,-142.75"/>
<text text-anchor="middle" x="282.38" y="-125.45" font-family="Helvetica,sans-Serif" font-size="14.00">ActionService\__construct</text>
</a>
</g>
</g>
<!-- Node1&#45;&gt;Node3 -->
<g id="edge2_Node000001_Node000003" class="edge">
<title>Node1&#45;&gt;Node3</title>
<g id="a_edge2_Node000001_Node000003"><a xlink:title=" ">
<path fill="none" stroke="#63b8ff" d="M408.03,-113.83C396.88,-115.32 385.2,-116.88 373.66,-118.42"/>
<polygon fill="#63b8ff" stroke="#63b8ff" points="408.48,-117.3 417.93,-112.5 407.56,-110.36 408.48,-117.3"/>
</a>
</g>
</g>
<!-- Node4 -->
<g id="Node000004" class="node">
<title>Node4</title>
<g id="a_Node000004"><a xlink:href="../../da/d27/classActionCheckVersion.html#a5db3fb58d6b4b8f1dbce5d428be47380" target="_top" xlink:title=" ">
<polygon fill="white" stroke="#666666" points="383.75,-100 181,-100 181,-59 383.75,-59 383.75,-100"/>
<text text-anchor="start" x="189" y="-82.7" font-family="Helvetica,sans-Serif" font-size="14.00">ActionCheckVersion</text>
<text text-anchor="middle" x="282.38" y="-66.2" font-family="Helvetica,sans-Serif" font-size="14.00">\showVersionOkMessageBox</text>
</a>
</g>
</g>
<!-- Node1&#45;&gt;Node4 -->
<g id="edge3_Node000001_Node000004" class="edge">
<title>Node1&#45;&gt;Node4</title>
<g id="a_edge3_Node000001_Node000004"><a xlink:title=" ">
<path fill="none" stroke="#63b8ff" d="M408.18,-95.55C400.36,-94.55 392.28,-93.51 384.17,-92.46"/>
<polygon fill="#63b8ff" stroke="#63b8ff" points="407.57,-99 417.93,-96.81 408.46,-92.06 407.57,-99"/>
</a>
</g>
</g>
<!-- Node6 -->
<g id="Node000006" class="node">
<title>Node6</title>
<g id="a_Node000006"><a xlink:href="../../da/d27/classActionCheckVersion.html#a6e8a2ddb662d0e6077f7320e9df49c07" target="_top" xlink:title=" ">
<polygon fill="white" stroke="#666666" points="381.5,-41 183.25,-41 183.25,0 381.5,0 381.5,-41"/>
<text text-anchor="start" x="191.25" y="-23.7" font-family="Helvetica,sans-Serif" font-size="14.00">ActionCheckVersion</text>
<text text-anchor="middle" x="282.38" y="-7.2" font-family="Helvetica,sans-Serif" font-size="14.00">\showVersionUpdateWindow</text>
</a>
</g>
</g>
<!-- Node1&#45;&gt;Node6 -->
<g id="edge5_Node000001_Node000006" class="edge">
<title>Node1&#45;&gt;Node6</title>
<g id="a_edge5_Node000001_Node000006"><a xlink:title=" ">
<path fill="none" stroke="#63b8ff" d="M448.96,-85.63C430.8,-74.33 406.55,-60.3 383.75,-50.5 376.23,-47.27 368.25,-44.25 360.21,-41.46"/>
<polygon fill="#63b8ff" stroke="#63b8ff" points="447.03,-88.55 457.35,-90.94 450.77,-82.64 447.03,-88.55"/>
</a>
</g>
</g>
<!-- Node5 -->
<g id="Node000005" class="node">
<title>Node5</title>
<g id="a_Node000005"><a xlink:href="../../da/d27/classActionCheckVersion.html#a28bc17b27165f0051d6daa9b4db830d3" target="_top" xlink:title=" ">
<polygon fill="white" stroke="#666666" points="145,-70 0,-70 0,-29 145,-29 145,-70"/>
<text text-anchor="start" x="8" y="-52.7" font-family="Helvetica,sans-Serif" font-size="14.00">ActionCheckVersion</text>
<text text-anchor="middle" x="72.5" y="-36.2" font-family="Helvetica,sans-Serif" font-size="14.00">\__construct</text>
</a>
</g>
</g>
<!-- Node4&#45;&gt;Node5 -->
<g id="edge4_Node000004_Node000005" class="edge">
<title>Node4&#45;&gt;Node5</title>
<g id="a_edge4_Node000004_Node000005"><a xlink:title=" ">
<path fill="none" stroke="#63b8ff" d="M169.62,-63.37C161.44,-62.19 153.33,-61.02 145.48,-59.89"/>
<polygon fill="#63b8ff" stroke="#63b8ff" points="168.89,-66.8 179.29,-64.77 169.89,-59.87 168.89,-66.8"/>
</a>
</g>
</g>
<!-- Node6&#45;&gt;Node5 -->
<g id="edge6_Node000006_Node000005" class="edge">
<title>Node6&#45;&gt;Node5</title>
<g id="a_edge6_Node000006_Node000005"><a xlink:title=" ">
<path fill="none" stroke="#63b8ff" d="M171.6,-35.81C162.67,-37.06 153.8,-38.3 145.26,-39.49"/>
<polygon fill="#63b8ff" stroke="#63b8ff" points="172,-39.29 181.42,-34.44 171.03,-32.36 172,-39.29"/>
</a>
</g>
</g>
</g>
</svg>
