<?xml version="1.0" encoding="UTF-8" standalone="no"?>
<!--
  - Copyright (c) 2021-2024 Bearsampp
  - License:  GNU General Public License version 3 or later; see LICENSE.txt
  - Author: Bear
  - Website: https://bearsampp.com
  - Github: https://github.com/Bearsampp
  -->

<!DOCTYPE svg PUBLIC "-//W3C//DTD SVG 1.1//EN"
 "http://www.w3.org/Graphics/SVG/1.1/DTD/svg11.dtd">
<!-- Generated by graphviz version 11.0.0 (20240428.1522)
 -->
<!-- Title: Util\getAppPathRegKey Pages: 1 -->
<svg width="676pt" height="33pt"
 viewBox="0.00 0.00 675.50 32.50" xmlns="http://www.w3.org/2000/svg" xmlns:xlink="http://www.w3.org/1999/xlink">
<g id="graph0" class="graph" transform="scale(1 1) rotate(0) translate(4 28.5)">
<title>Util\getAppPathRegKey</title>
<!-- Node1 -->
<g id="Node000001" class="node">
<title>Node1</title>
<g id="a_Node000001"><a xlink:title=" ">
<polygon fill="#999999" stroke="#666666" points="667.5,-24.5 501.5,-24.5 501.5,0 667.5,0 667.5,-24.5"/>
<text text-anchor="middle" x="584.5" y="-7.2" font-family="Helvetica,sans-Serif" font-size="14.00">Util\getAppPathRegKey</text>
</a>
</g>
</g>
<!-- Node2 -->
<g id="Node000002" class="node">
<title>Node2</title>
<g id="a_Node000002"><a xlink:href="../../d1/db8/classActionStartup.html#a35c15a92432c3feae9bddbd05e290a54" target="_top" xlink:title=" ">
<polygon fill="white" stroke="#666666" points="465.5,-24.5 243.25,-24.5 243.25,0 465.5,0 465.5,-24.5"/>
<text text-anchor="middle" x="354.38" y="-7.2" font-family="Helvetica,sans-Serif" font-size="14.00">ActionStartup\checkPathRegKey</text>
</a>
</g>
</g>
<!-- Node1&#45;&gt;Node2 -->
<g id="edge1_Node000001_Node000002" class="edge">
<title>Node1&#45;&gt;Node2</title>
<g id="a_edge1_Node000001_Node000002"><a xlink:title=" ">
<path fill="none" stroke="#63b8ff" d="M489.7,-12.25C481.82,-12.25 473.8,-12.25 465.8,-12.25"/>
<polygon fill="#63b8ff" stroke="#63b8ff" points="489.63,-15.75 499.63,-12.25 489.63,-8.75 489.63,-15.75"/>
</a>
</g>
</g>
<!-- Node3 -->
<g id="Node000003" class="node">
<title>Node3</title>
<g id="a_Node000003"><a xlink:href="../../d1/db8/classActionStartup.html#a1234a0f2093a95140d6f86983514d28f" target="_top" xlink:title=" ">
<polygon fill="white" stroke="#666666" points="207.25,-24.5 0,-24.5 0,0 207.25,0 207.25,-24.5"/>
<text text-anchor="middle" x="103.63" y="-7.2" font-family="Helvetica,sans-Serif" font-size="14.00">ActionStartup\processWindow</text>
</a>
</g>
</g>
<!-- Node2&#45;&gt;Node3 -->
<g id="edge2_Node000002_Node000003" class="edge">
<title>Node2&#45;&gt;Node3</title>
<g id="a_edge2_Node000002_Node000003"><a xlink:title=" ">
<path fill="none" stroke="#63b8ff" d="M231.56,-12.25C223.58,-12.25 215.59,-12.25 207.71,-12.25"/>
<polygon fill="#63b8ff" stroke="#63b8ff" points="231.31,-15.75 241.31,-12.25 231.31,-8.75 231.31,-15.75"/>
</a>
</g>
</g>
</g>
</svg>
