<?xml version="1.0" encoding="UTF-8" standalone="no"?>
<!--
  - Copyright (c) 2021-2024 Bearsampp
  - License:  GNU General Public License version 3 or later; see LICENSE.txt
  - Author: Bear
  - Website: https://bearsampp.com
  - Github: https://github.com/Bearsampp
  -->

<!DOCTYPE svg PUBLIC "-//W3C//DTD SVG 1.1//EN"
 "http://www.w3.org/Graphics/SVG/1.1/DTD/svg11.dtd">
<!-- Generated by graphviz version 11.0.0 (20240428.1522)
 -->
<!-- Title: Util\openFileContent Pages: 1 -->
<svg width="356pt" height="226pt"
 viewBox="0.00 0.00 355.75 226.00" xmlns="http://www.w3.org/2000/svg" xmlns:xlink="http://www.w3.org/1999/xlink">

<svg id="main" version="1.1" xmlns="http://www.w3.org/2000/svg" xmlns:xlink="http://www.w3.org/1999/xlink" xml:space="preserve" onload="init(evt)">
<style type="text/css"><![CDATA[
.node, .edge {opacity: 0.7;}
.node.selected, .edge.selected {opacity: 1;}
.edge:hover path { stroke: red; }
.edge:hover polygon { stroke: red; fill: red; }
]]></style>
<script type="application/ecmascript" xlink:href="../../svg.min.js"/>
<svg id="graph" class="graph">
<g id="graph0" class="graph" transform="scale(1 1) rotate(0) translate(4 222)">
<title>Util\openFileContent</title>
<!-- Node1 -->
<g id="Node000001" class="node">
<title>Node1</title>
<g id="a_Node000001"><a xlink:title=" ">
<polygon fill="#999999" stroke="#666666" points="347.75,-120.75 203.5,-120.75 203.5,-96.25 347.75,-96.25 347.75,-120.75"/>
<text text-anchor="middle" x="275.62" y="-103.45" font-family="Helvetica,sans-Serif" font-size="14.00">Util\openFileContent</text>
</a>
</g>
</g>
<!-- Node2 -->
<g id="Node000002" class="node">
<title>Node2</title>
<g id="a_Node000002"><a xlink:href="../../d6/d42/classActionDebugApache.html#abba8b6081cbfd77f76ecd62c2a87cc6d" target="_top" xlink:title=" ">
<polygon fill="white" stroke="#666666" points="159.25,-218 8.25,-218 8.25,-177 159.25,-177 159.25,-218"/>
<text text-anchor="start" x="16.25" y="-200.7" font-family="Helvetica,sans-Serif" font-size="14.00">ActionDebugApache\</text>
<text text-anchor="middle" x="83.75" y="-184.2" font-family="Helvetica,sans-Serif" font-size="14.00">__construct</text>
</a>
</g>
</g>
<!-- Node1&#45;&gt;Node2 -->
<g id="edge1_Node000001_Node000002" class="edge">
<title>Node1&#45;&gt;Node2</title>
<g id="a_edge1_Node000001_Node000002"><a xlink:title=" ">
<path fill="none" stroke="#63b8ff" d="M244.97,-126.95C223.86,-139.62 194.55,-156.3 167.5,-168.5 161.26,-171.32 154.65,-174.04 148,-176.61"/>
<polygon fill="#63b8ff" stroke="#63b8ff" points="246.61,-130.05 253.34,-121.87 242.98,-124.07 246.61,-130.05"/>
</a>
</g>
</g>
<!-- Node3 -->
<g id="Node000003" class="node">
<title>Node3</title>
<g id="a_Node000003"><a xlink:href="../../d8/d8e/classActionDebugMariadb.html#ae682ac1781cc80938670a62be7b41530" target="_top" xlink:title=" ">
<polygon fill="white" stroke="#666666" points="158.12,-159 9.38,-159 9.38,-118 158.12,-118 158.12,-159"/>
<text text-anchor="start" x="17.38" y="-141.7" font-family="Helvetica,sans-Serif" font-size="14.00">ActionDebugMariadb</text>
<text text-anchor="middle" x="83.75" y="-125.2" font-family="Helvetica,sans-Serif" font-size="14.00">\__construct</text>
</a>
</g>
</g>
<!-- Node1&#45;&gt;Node3 -->
<g id="edge2_Node000001_Node000003" class="edge">
<title>Node1&#45;&gt;Node3</title>
<g id="a_edge2_Node000001_Node000003"><a xlink:title=" ">
<path fill="none" stroke="#63b8ff" d="M192.03,-121.55C180.84,-123.32 169.43,-125.12 158.41,-126.86"/>
<polygon fill="#63b8ff" stroke="#63b8ff" points="192.29,-125.05 201.62,-120.04 191.19,-118.14 192.29,-125.05"/>
</a>
</g>
</g>
<!-- Node4 -->
<g id="Node000004" class="node">
<title>Node4</title>
<g id="a_Node000004"><a xlink:href="../../d0/ddc/classActionDebugMysql.html#a76a40eb6a65aeb581b68b6ed6fabb352" target="_top" xlink:title=" ">
<polygon fill="white" stroke="#666666" points="157.38,-100 10.12,-100 10.12,-59 157.38,-59 157.38,-100"/>
<text text-anchor="start" x="18.12" y="-82.7" font-family="Helvetica,sans-Serif" font-size="14.00">ActionDebugMysql\_</text>
<text text-anchor="middle" x="83.75" y="-66.2" font-family="Helvetica,sans-Serif" font-size="14.00">_construct</text>
</a>
</g>
</g>
<!-- Node1&#45;&gt;Node4 -->
<g id="edge3_Node000001_Node000004" class="edge">
<title>Node1&#45;&gt;Node4</title>
<g id="a_edge3_Node000001_Node000004"><a xlink:title=" ">
<path fill="none" stroke="#63b8ff" d="M191.87,-95.86C180.52,-94.13 168.94,-92.36 157.78,-90.65"/>
<polygon fill="#63b8ff" stroke="#63b8ff" points="191.2,-99.3 201.62,-97.35 192.26,-92.38 191.2,-99.3"/>
</a>
</g>
</g>
<!-- Node5 -->
<g id="Node000005" class="node">
<title>Node5</title>
<g id="a_Node000005"><a xlink:href="../../df/d34/classActionDebugPostgresql.html#aa837749c75c800ef47c880e903e8facc" target="_top" xlink:title=" ">
<polygon fill="white" stroke="#666666" points="167.5,-41 0,-41 0,0 167.5,0 167.5,-41"/>
<text text-anchor="start" x="8" y="-23.7" font-family="Helvetica,sans-Serif" font-size="14.00">ActionDebugPostgresql</text>
<text text-anchor="middle" x="83.75" y="-7.2" font-family="Helvetica,sans-Serif" font-size="14.00">\__construct</text>
</a>
</g>
</g>
<!-- Node1&#45;&gt;Node5 -->
<g id="edge4_Node000001_Node000005" class="edge">
<title>Node1&#45;&gt;Node5</title>
<g id="a_edge4_Node000001_Node000005"><a xlink:title=" ">
<path fill="none" stroke="#63b8ff" d="M243.67,-90.15C222.6,-78.06 193.86,-62.34 167.5,-50.5 160.53,-47.37 153.13,-44.32 145.72,-41.43"/>
<polygon fill="#63b8ff" stroke="#63b8ff" points="241.64,-93.02 252.04,-95 245.15,-86.96 241.64,-93.02"/>
</a>
</g>
</g>
</g>
</svg>
</svg>

<style type='text/css'>
<![CDATA[
[data-mouse-over-selected='false'] { opacity: 0.7; }
[data-mouse-over-selected='true']  { opacity: 1.0; }
]]>
</style>
<script type="application/ecmascript"><![CDATA[
document.addEventListener('DOMContentLoaded', (event) => {
  highlightEdges();
  highlightAdjacentNodes();
});
]]></script>
</svg>
