<?xml version="1.0" encoding="UTF-8" standalone="no"?>
<!--
  - Copyright (c) 2021-2024 Bearsampp
  - License:  GNU General Public License version 3 or later; see LICENSE.txt
  - Author: Bear
  - Website: https://bearsampp.com
  - Github: https://github.com/Bearsampp
  -->

<!DOCTYPE svg PUBLIC "-//W3C//DTD SVG 1.1//EN"
 "http://www.w3.org/Graphics/SVG/1.1/DTD/svg11.dtd">
<!-- Generated by graphviz version 11.0.0 (20240428.1522)
 -->
<!-- Title: Util\contains Pages: 1 -->
<svg width="1032pt" height="377pt"
 viewBox="0.00 0.00 1031.50 376.50" xmlns="http://www.w3.org/2000/svg" xmlns:xlink="http://www.w3.org/1999/xlink">
<g id="graph0" class="graph" transform="scale(1 1) rotate(0) translate(4 372.5)">
<title>Util\contains</title>
<!-- Node1 -->
<g id="Node000001" class="node">
<title>Node1</title>
<g id="a_Node000001"><a xlink:title=" ">
<polygon fill="#999999" stroke="#666666" points="1023.5,-239.5 931.75,-239.5 931.75,-215 1023.5,-215 1023.5,-239.5"/>
<text text-anchor="middle" x="977.62" y="-222.2" font-family="Helvetica,sans-Serif" font-size="14.00">Util\contains</text>
</a>
</g>
</g>
<!-- Node2 -->
<g id="Node000002" class="node">
<title>Node2</title>
<g id="a_Node000002"><a xlink:href="../../db/df2/classBinMailhog.html#a04295eec0431e43862d99161de64b7b2" target="_top" xlink:title=" ">
<polygon fill="white" stroke="#666666" points="866.88,-368.5 714.38,-368.5 714.38,-344 866.88,-344 866.88,-368.5"/>
<text text-anchor="middle" x="790.62" y="-351.2" font-family="Helvetica,sans-Serif" font-size="14.00">BinMailhog\checkPort</text>
</a>
</g>
</g>
<!-- Node1&#45;&gt;Node2 -->
<g id="edge1_Node000001_Node000002" class="edge">
<title>Node1&#45;&gt;Node2</title>
<g id="a_edge1_Node000001_Node000002"><a xlink:title=" ">
<path fill="none" stroke="#63b8ff" d="M965.85,-249.77C952.81,-274.51 928.45,-313.48 895.75,-334.25 887.09,-339.75 877.3,-343.9 867.26,-347.02"/>
<polygon fill="#63b8ff" stroke="#63b8ff" points="968.81,-251.68 970.21,-241.18 962.57,-248.52 968.81,-251.68"/>
</a>
</g>
</g>
<!-- Node3 -->
<g id="Node000003" class="node">
<title>Node3</title>
<g id="a_Node000003"><a xlink:href="../../d9/ddd/classBinMailpit.html#a7a7fb45f46ccaa21226c898a67bc1653" target="_top" xlink:title=" ">
<polygon fill="white" stroke="#666666" points="862.38,-325.5 718.88,-325.5 718.88,-301 862.38,-301 862.38,-325.5"/>
<text text-anchor="middle" x="790.62" y="-308.2" font-family="Helvetica,sans-Serif" font-size="14.00">BinMailpit\checkPort</text>
</a>
</g>
</g>
<!-- Node1&#45;&gt;Node3 -->
<g id="edge2_Node000001_Node000003" class="edge">
<title>Node1&#45;&gt;Node3</title>
<g id="a_edge2_Node000001_Node000003"><a xlink:title=" ">
<path fill="none" stroke="#63b8ff" d="M956.25,-247.81C940.9,-262.13 918.65,-280.5 895.75,-291.25 885.46,-296.08 874.11,-299.86 862.8,-302.81"/>
<polygon fill="#63b8ff" stroke="#63b8ff" points="958.56,-250.45 963.35,-240.99 953.72,-245.4 958.56,-250.45"/>
</a>
</g>
</g>
<!-- Node4 -->
<g id="Node000004" class="node">
<title>Node4</title>
<g id="a_Node000004"><a xlink:href="../../d8/ddb/classBinXlight.html#ab82c8668ec828a8c3ea349ff6c712b17" target="_top" xlink:title=" ">
<polygon fill="white" stroke="#666666" points="860.12,-282.5 721.12,-282.5 721.12,-258 860.12,-258 860.12,-282.5"/>
<text text-anchor="middle" x="790.62" y="-265.2" font-family="Helvetica,sans-Serif" font-size="14.00">BinXlight\checkPort</text>
</a>
</g>
</g>
<!-- Node1&#45;&gt;Node4 -->
<g id="edge3_Node000001_Node000004" class="edge">
<title>Node1&#45;&gt;Node4</title>
<g id="a_edge3_Node000001_Node000004"><a xlink:title=" ">
<path fill="none" stroke="#63b8ff" d="M920.31,-242.23C912.09,-244.31 903.71,-246.38 895.75,-248.25 882.35,-251.4 867.93,-254.58 854.22,-257.51"/>
<polygon fill="#63b8ff" stroke="#63b8ff" points="921.09,-245.64 929.91,-239.77 919.35,-238.86 921.09,-245.64"/>
</a>
</g>
</g>
<!-- Node5 -->
<g id="Node000005" class="node">
<title>Node5</title>
<g id="a_Node000005"><a xlink:href="../../d4/d8f/classBinMariadb.html#a55a27af701a06f75da01c8dd20a3ae3e" target="_top" xlink:title=" ">
<polygon fill="white" stroke="#666666" points="895.75,-239.5 685.5,-239.5 685.5,-215 895.75,-215 895.75,-239.5"/>
<text text-anchor="middle" x="790.62" y="-222.2" font-family="Helvetica,sans-Serif" font-size="14.00">BinMariadb\getCmdLineOutput</text>
</a>
</g>
</g>
<!-- Node1&#45;&gt;Node5 -->
<g id="edge4_Node000001_Node000005" class="edge">
<title>Node1&#45;&gt;Node5</title>
<g id="a_edge4_Node000001_Node000005"><a xlink:title=" ">
<path fill="none" stroke="#63b8ff" d="M920,-227.25C912.29,-227.25 904.18,-227.25 895.95,-227.25"/>
<polygon fill="#63b8ff" stroke="#63b8ff" points="919.86,-230.75 929.86,-227.25 919.86,-223.75 919.86,-230.75"/>
</a>
</g>
</g>
<!-- Node6 -->
<g id="Node000006" class="node">
<title>Node6</title>
<g id="a_Node000006"><a xlink:href="../../d6/d88/classBinMysql.html#a5f6e303f950b38251c2d069aa3d9ecf3" target="_top" xlink:title=" ">
<polygon fill="white" stroke="#666666" points="889,-196.5 692.25,-196.5 692.25,-172 889,-172 889,-196.5"/>
<text text-anchor="middle" x="790.62" y="-179.2" font-family="Helvetica,sans-Serif" font-size="14.00">BinMysql\getCmdLineOutput</text>
</a>
</g>
</g>
<!-- Node1&#45;&gt;Node6 -->
<g id="edge5_Node000001_Node000006" class="edge">
<title>Node1&#45;&gt;Node6</title>
<g id="a_edge5_Node000001_Node000006"><a xlink:title=" ">
<path fill="none" stroke="#63b8ff" d="M920.31,-212.27C912.09,-210.19 903.71,-208.12 895.75,-206.25 882.35,-203.1 867.93,-199.92 854.22,-196.99"/>
<polygon fill="#63b8ff" stroke="#63b8ff" points="919.35,-215.64 929.91,-214.73 921.09,-208.86 919.35,-215.64"/>
</a>
</g>
</g>
<!-- Node7 -->
<g id="Node000007" class="node">
<title>Node7</title>
<g id="a_Node000007"><a xlink:href="../../d6/de4/classUtil.html#aa54bd546d5874432f23615c99550f813" target="_top" xlink:title=" ">
<polygon fill="white" stroke="#666666" points="845.12,-153.5 736.12,-153.5 736.12,-129 845.12,-129 845.12,-153.5"/>
<text text-anchor="middle" x="790.62" y="-136.2" font-family="Helvetica,sans-Serif" font-size="14.00">Util\is32BitsOs</text>
</a>
</g>
</g>
<!-- Node1&#45;&gt;Node7 -->
<g id="edge6_Node000001_Node000007" class="edge">
<title>Node1&#45;&gt;Node7</title>
<g id="a_edge6_Node000001_Node000007"><a xlink:title=" ">
<path fill="none" stroke="#63b8ff" d="M956.25,-206.69C940.9,-192.37 918.65,-174 895.75,-163.25 880.2,-155.95 862.2,-151.05 845.59,-147.77"/>
<polygon fill="#63b8ff" stroke="#63b8ff" points="953.72,-209.1 963.35,-213.51 958.56,-204.05 953.72,-209.1"/>
</a>
</g>
</g>
<!-- Node8 -->
<g id="Node000008" class="node">
<title>Node8</title>
<g id="a_Node000008"><a xlink:href="../../dc/ddb/classWin32Ps.html#aa522ce4696d00af3e499932fff26a2da" target="_top" xlink:title=" ">
<polygon fill="white" stroke="#666666" points="851.5,-110.5 729.75,-110.5 729.75,-86 851.5,-86 851.5,-110.5"/>
<text text-anchor="middle" x="790.62" y="-93.2" font-family="Helvetica,sans-Serif" font-size="14.00">Win32Ps\killBins</text>
</a>
</g>
</g>
<!-- Node1&#45;&gt;Node8 -->
<g id="edge7_Node000001_Node000008" class="edge">
<title>Node1&#45;&gt;Node8</title>
<g id="a_edge7_Node000001_Node000008"><a xlink:title=" ">
<path fill="none" stroke="#63b8ff" d="M965.85,-204.73C952.81,-179.99 928.45,-141.02 895.75,-120.25 882.65,-111.93 866.94,-106.7 851.73,-103.43"/>
<polygon fill="#63b8ff" stroke="#63b8ff" points="962.57,-205.98 970.21,-213.32 968.81,-202.82 962.57,-205.98"/>
</a>
</g>
</g>
<!-- Node9 -->
<g id="Node000009" class="node">
<title>Node9</title>
<g id="a_Node000009"><a xlink:href="../../d0/d9f/classActionManualRestart.html#a229630778cbd92fef95f4e99e872fdca" target="_top" xlink:title=" ">
<polygon fill="white" stroke="#666666" points="620.25,-212.75 474.5,-212.75 474.5,-171.75 620.25,-171.75 620.25,-212.75"/>
<text text-anchor="start" x="482.5" y="-195.45" font-family="Helvetica,sans-Serif" font-size="14.00">ActionManualRestart</text>
<text text-anchor="middle" x="547.38" y="-178.95" font-family="Helvetica,sans-Serif" font-size="14.00">\__construct</text>
</a>
</g>
</g>
<!-- Node8&#45;&gt;Node9 -->
<g id="edge8_Node000008_Node000009" class="edge">
<title>Node8&#45;&gt;Node9</title>
<g id="a_edge8_Node000008_Node000009"><a xlink:title=" ">
<path fill="none" stroke="#63b8ff" d="M718.33,-106.8C706.87,-109.98 695.5,-114.32 685.5,-120.25 664.35,-132.79 670.13,-148.87 649.5,-162.25 640.67,-167.98 630.7,-172.65 620.55,-176.44"/>
<polygon fill="#63b8ff" stroke="#63b8ff" points="718.97,-110.25 727.84,-104.46 717.29,-103.45 718.97,-110.25"/>
</a>
</g>
</g>
<!-- Node10 -->
<g id="Node000010" class="node">
<title>Node10</title>
<g id="a_Node000010"><a xlink:href="../../da/dbb/classBatch.html#a60ded4c18eb060829639a955ec294ffc" target="_top" xlink:title=" ">
<polygon fill="white" stroke="#666666" points="599.25,-153.5 495.5,-153.5 495.5,-129 599.25,-129 599.25,-153.5"/>
<text text-anchor="middle" x="547.38" y="-136.2" font-family="Helvetica,sans-Serif" font-size="14.00">Batch\exitApp</text>
</a>
</g>
</g>
<!-- Node8&#45;&gt;Node10 -->
<g id="edge9_Node000008_Node000010" class="edge">
<title>Node8&#45;&gt;Node10</title>
<g id="a_edge9_Node000008_Node000010"><a xlink:title=" ">
<path fill="none" stroke="#63b8ff" d="M718.34,-110.96C680.26,-117.74 634.25,-125.94 599.71,-132.1"/>
<polygon fill="#63b8ff" stroke="#63b8ff" points="718.65,-114.46 727.88,-109.26 717.42,-107.56 718.65,-114.46"/>
</a>
</g>
</g>
<!-- Node13 -->
<g id="Node000013" class="node">
<title>Node13</title>
<g id="a_Node000013"><a xlink:href="../../d1/db8/classActionStartup.html#a7a49b348e0daf7c1afc440479e15335a" target="_top" xlink:title=" ">
<polygon fill="white" stroke="#666666" points="649.5,-110.5 445.25,-110.5 445.25,-86 649.5,-86 649.5,-110.5"/>
<text text-anchor="middle" x="547.38" y="-93.2" font-family="Helvetica,sans-Serif" font-size="14.00">ActionStartup\killOldInstances</text>
</a>
</g>
</g>
<!-- Node8&#45;&gt;Node13 -->
<g id="edge13_Node000008_Node000013" class="edge">
<title>Node8&#45;&gt;Node13</title>
<g id="a_edge13_Node000008_Node000013"><a xlink:title=" ">
<path fill="none" stroke="#63b8ff" d="M718.05,-98.25C696.58,-98.25 672.6,-98.25 649.59,-98.25"/>
<polygon fill="#63b8ff" stroke="#63b8ff" points="717.86,-101.75 727.86,-98.25 717.86,-94.75 717.86,-101.75"/>
</a>
</g>
</g>
<!-- Node15 -->
<g id="Node000015" class="node">
<title>Node15</title>
<g id="a_Node000015"><a xlink:href="../../de/d86/classActionQuit.html#a2331cc6725be5a9283c65d462bfb5f5b" target="_top" xlink:title=" ">
<polygon fill="white" stroke="#666666" points="641.25,-67.5 453.5,-67.5 453.5,-43 641.25,-43 641.25,-67.5"/>
<text text-anchor="middle" x="547.38" y="-50.2" font-family="Helvetica,sans-Serif" font-size="14.00">ActionQuit\processWindow</text>
</a>
</g>
</g>
<!-- Node8&#45;&gt;Node15 -->
<g id="edge15_Node000008_Node000015" class="edge">
<title>Node8&#45;&gt;Node15</title>
<g id="a_edge15_Node000008_Node000015"><a xlink:title=" ">
<path fill="none" stroke="#63b8ff" d="M718.19,-85.52C687.17,-79.99 650.9,-73.52 619.86,-67.99"/>
<polygon fill="#63b8ff" stroke="#63b8ff" points="717.42,-88.94 727.88,-87.24 718.65,-82.04 717.42,-88.94"/>
</a>
</g>
</g>
<!-- Node16 -->
<g id="Node000016" class="node">
<title>Node16</title>
<g id="a_Node000016"><a xlink:href="../../d1/d42/classActionExt.html#a773acee7f7d11b500400d4c897323076" target="_top" xlink:title=" ">
<polygon fill="white" stroke="#666666" points="624.38,-24.5 470.38,-24.5 470.38,0 624.38,0 624.38,-24.5"/>
<text text-anchor="middle" x="547.38" y="-7.2" font-family="Helvetica,sans-Serif" font-size="14.00">ActionExt\procReload</text>
</a>
</g>
</g>
<!-- Node8&#45;&gt;Node16 -->
<g id="edge16_Node000008_Node000016" class="edge">
<title>Node8&#45;&gt;Node16</title>
<g id="a_edge16_Node000008_Node000016"><a xlink:title=" ">
<path fill="none" stroke="#63b8ff" d="M755.95,-80.39C728.07,-66.21 687.08,-46.76 649.5,-34.25 638.93,-30.73 627.55,-27.63 616.37,-24.94"/>
<polygon fill="#63b8ff" stroke="#63b8ff" points="754.12,-83.38 764.61,-84.84 757.32,-77.16 754.12,-83.38"/>
</a>
</g>
</g>
<!-- Node11 -->
<g id="Node000011" class="node">
<title>Node11</title>
<g id="a_Node000011"><a xlink:href="../../db/d8f/classActionExec.html#a8228382d8a7768239c559563a8d58994" target="_top" xlink:title=" ">
<polygon fill="white" stroke="#666666" points="166,-173.5 0,-173.5 0,-149 166,-149 166,-173.5"/>
<text text-anchor="middle" x="83" y="-156.2" font-family="Helvetica,sans-Serif" font-size="14.00">ActionExec\__construct</text>
</a>
</g>
</g>
<!-- Node10&#45;&gt;Node11 -->
<g id="edge10_Node000010_Node000011" class="edge">
<title>Node10&#45;&gt;Node11</title>
<g id="a_edge10_Node000010_Node000011"><a xlink:title=" ">
<path fill="none" stroke="#63b8ff" d="M483.98,-152.85C460.63,-156.65 433.81,-160.38 409.25,-162.25 317.4,-169.24 294.11,-162.64 202,-162.25 190.43,-162.2 178.21,-162.12 166.21,-162.04"/>
<polygon fill="#63b8ff" stroke="#63b8ff" points="484.37,-156.34 493.65,-151.24 483.21,-149.43 484.37,-156.34"/>
</a>
</g>
</g>
<!-- Node12 -->
<g id="Node000012" class="node">
<title>Node12</title>
<g id="a_Node000012"><a xlink:href="../../da/dbb/classBatch.html#ac5c8b3c31fa2a76d1cb2b1a10ff6d4d5" target="_top" xlink:title=" ">
<polygon fill="white" stroke="#666666" points="366.5,-153.5 244.75,-153.5 244.75,-129 366.5,-129 366.5,-153.5"/>
<text text-anchor="middle" x="305.62" y="-136.2" font-family="Helvetica,sans-Serif" font-size="14.00">Batch\restartApp</text>
</a>
</g>
</g>
<!-- Node10&#45;&gt;Node12 -->
<g id="edge11_Node000010_Node000012" class="edge">
<title>Node10&#45;&gt;Node12</title>
<g id="a_edge11_Node000010_Node000012"><a xlink:title=" ">
<path fill="none" stroke="#63b8ff" d="M483.83,-141.25C447.63,-141.25 402.32,-141.25 366.57,-141.25"/>
<polygon fill="#63b8ff" stroke="#63b8ff" points="483.72,-144.75 493.72,-141.25 483.72,-137.75 483.72,-144.75"/>
</a>
</g>
</g>
<!-- Node12&#45;&gt;Node11 -->
<g id="edge12_Node000012_Node000011" class="edge">
<title>Node12&#45;&gt;Node11</title>
<g id="a_edge12_Node000012_Node000011"><a xlink:title=" ">
<path fill="none" stroke="#63b8ff" d="M233.06,-147.74C211.7,-149.67 188.11,-151.81 166.13,-153.8"/>
<polygon fill="#63b8ff" stroke="#63b8ff" points="233.19,-151.24 242.83,-146.85 232.56,-144.27 233.19,-151.24"/>
</a>
</g>
</g>
<!-- Node14 -->
<g id="Node000014" class="node">
<title>Node14</title>
<g id="a_Node000014"><a xlink:href="../../d1/db8/classActionStartup.html#a1234a0f2093a95140d6f86983514d28f" target="_top" xlink:title=" ">
<polygon fill="white" stroke="#666666" points="409.25,-110.5 202,-110.5 202,-86 409.25,-86 409.25,-110.5"/>
<text text-anchor="middle" x="305.62" y="-93.2" font-family="Helvetica,sans-Serif" font-size="14.00">ActionStartup\processWindow</text>
</a>
</g>
</g>
<!-- Node13&#45;&gt;Node14 -->
<g id="edge14_Node000013_Node000014" class="edge">
<title>Node13&#45;&gt;Node14</title>
<g id="a_edge14_Node000013_Node000014"><a xlink:title=" ">
<path fill="none" stroke="#63b8ff" d="M433.69,-98.25C425.62,-98.25 417.52,-98.25 409.51,-98.25"/>
<polygon fill="#63b8ff" stroke="#63b8ff" points="433.53,-101.75 443.53,-98.25 433.53,-94.75 433.53,-101.75"/>
</a>
</g>
</g>
</g>
</svg>
