<?xml version="1.0" encoding="UTF-8" standalone="no"?>
<!--
  - Copyright (c) 2021-2024 Bearsampp
  - License:  GNU General Public License version 3 or later; see LICENSE.txt
  - Author: Bear
  - Website: https://bearsampp.com
  - Github: https://github.com/Bearsampp
  -->

<!DOCTYPE svg PUBLIC "-//W3C//DTD SVG 1.1//EN"
 "http://www.w3.org/Graphics/SVG/1.1/DTD/svg11.dtd">
<!-- Generated by graphviz version 11.0.0 (20240428.1522)
 -->
<!-- Title: Util\isLaunchStartup Pages: 1 -->
<svg width="945pt" height="68pt"
 viewBox="0.00 0.00 945.25 67.75" xmlns="http://www.w3.org/2000/svg" xmlns:xlink="http://www.w3.org/1999/xlink">
<g id="graph0" class="graph" transform="scale(1 1) rotate(0) translate(4 63.75)">
<title>Util\isLaunchStartup</title>
<!-- Node1 -->
<g id="Node000001" class="node">
<title>Node1</title>
<g id="a_Node000001"><a xlink:title=" ">
<polygon fill="#999999" stroke="#666666" points="937.25,-56.75 796.75,-56.75 796.75,-32.25 937.25,-32.25 937.25,-56.75"/>
<text text-anchor="middle" x="867" y="-39.45" font-family="Helvetica,sans-Serif" font-size="14.00">Util\isLaunchStartup</text>
</a>
</g>
</g>
<!-- Node2 -->
<g id="Node000002" class="node">
<title>Node2</title>
<g id="a_Node000002"><a xlink:href="../../dd/dea/classActionReload.html#a9caf3b20c05475876e5dc72cdcdf6024" target="_top" xlink:title=" ">
<polygon fill="white" stroke="#666666" points="179.5,-59.75 0,-59.75 0,-35.25 179.5,-35.25 179.5,-59.75"/>
<text text-anchor="middle" x="89.75" y="-42.45" font-family="Helvetica,sans-Serif" font-size="14.00">ActionReload\__construct</text>
</a>
</g>
</g>
<!-- Node1&#45;&gt;Node2 -->
<g id="edge1_Node000001_Node000002" class="edge">
<title>Node1&#45;&gt;Node2</title>
<g id="a_edge1_Node000001_Node000002"><a xlink:title=" ">
<path fill="none" stroke="#63b8ff" d="M784.9,-49.59C776.74,-49.96 768.58,-50.28 760.75,-50.5 699.49,-52.24 436.36,-49.95 215.5,-48.5 203.91,-48.42 191.72,-48.34 179.68,-48.24"/>
<polygon fill="#63b8ff" stroke="#63b8ff" points="785.06,-53.08 794.88,-49.1 784.72,-46.09 785.06,-53.08"/>
</a>
</g>
</g>
<!-- Node3 -->
<g id="Node000003" class="node">
<title>Node3</title>
<g id="a_Node000003"><a xlink:href="../../dd/d54/classTplAppLaunchStartup.html#ad9365c36113086abee5c58cca6c95dfa" target="_top" xlink:title=" ">
<polygon fill="white" stroke="#666666" points="760.75,-41 607.5,-41 607.5,0 760.75,0 760.75,-41"/>
<text text-anchor="start" x="615.5" y="-23.7" font-family="Helvetica,sans-Serif" font-size="14.00">TplAppLaunchStartup</text>
<text text-anchor="middle" x="684.12" y="-7.2" font-family="Helvetica,sans-Serif" font-size="14.00">\process</text>
</a>
</g>
</g>
<!-- Node1&#45;&gt;Node3 -->
<g id="edge2_Node000001_Node000003" class="edge">
<title>Node1&#45;&gt;Node3</title>
<g id="a_edge2_Node000001_Node000003"><a xlink:title=" ">
<path fill="none" stroke="#63b8ff" d="M785.11,-33.77C777.12,-32.71 769.02,-31.63 761.07,-30.58"/>
<polygon fill="#63b8ff" stroke="#63b8ff" points="784.45,-37.21 794.83,-35.06 785.37,-30.27 784.45,-37.21"/>
</a>
</g>
</g>
<!-- Node4 -->
<g id="Node000004" class="node">
<title>Node4</title>
<g id="a_Node000004"><a xlink:href="../../d1/d65/classTplApp.html#a9db61fdb53ab5d42766b0634f77dd458" target="_top" xlink:title=" ">
<polygon fill="white" stroke="#666666" points="571.5,-35.75 369.5,-35.75 369.5,-11.25 571.5,-11.25 571.5,-35.75"/>
<text text-anchor="middle" x="470.5" y="-18.45" font-family="Helvetica,sans-Serif" font-size="14.00">TplApp\getSectionMenuRight</text>
</a>
</g>
</g>
<!-- Node3&#45;&gt;Node4 -->
<g id="edge3_Node000003_Node000004" class="edge">
<title>Node3&#45;&gt;Node4</title>
<g id="a_edge3_Node000003_Node000004"><a xlink:title=" ">
<path fill="none" stroke="#63b8ff" d="M595.68,-21.74C587.86,-21.85 579.91,-21.96 571.99,-22.08"/>
<polygon fill="#63b8ff" stroke="#63b8ff" points="595.56,-25.24 605.51,-21.6 595.46,-18.24 595.56,-25.24"/>
</a>
</g>
</g>
<!-- Node5 -->
<g id="Node000005" class="node">
<title>Node5</title>
<g id="a_Node000005"><a xlink:href="../../d1/d65/classTplApp.html#a57b270c79fbb8b220ad02af08368e367" target="_top" xlink:title=" ">
<polygon fill="white" stroke="#666666" points="333.5,-39.75 215.5,-39.75 215.5,-15.25 333.5,-15.25 333.5,-39.75"/>
<text text-anchor="middle" x="274.5" y="-22.45" font-family="Helvetica,sans-Serif" font-size="14.00">TplApp\process</text>
</a>
</g>
</g>
<!-- Node4&#45;&gt;Node5 -->
<g id="edge4_Node000004_Node000005" class="edge">
<title>Node4&#45;&gt;Node5</title>
<g id="a_edge4_Node000004_Node000005"><a xlink:title=" ">
<path fill="none" stroke="#63b8ff" d="M357.59,-25.81C349.5,-25.97 341.55,-26.14 333.98,-26.29"/>
<polygon fill="#63b8ff" stroke="#63b8ff" points="357.65,-29.31 367.58,-25.6 357.51,-22.31 357.65,-29.31"/>
</a>
</g>
</g>
<!-- Node5&#45;&gt;Node2 -->
<g id="edge5_Node000005_Node000002" class="edge">
<title>Node5&#45;&gt;Node2</title>
<g id="a_edge5_Node000005_Node000002"><a xlink:title=" ">
<path fill="none" stroke="#63b8ff" d="M203.85,-35.12C195.99,-35.98 187.9,-36.87 179.83,-37.75"/>
<polygon fill="#63b8ff" stroke="#63b8ff" points="204.11,-38.61 213.67,-34.05 203.35,-31.66 204.11,-38.61"/>
</a>
</g>
</g>
</g>
</svg>
