<?xml version="1.0" encoding="UTF-8" standalone="no"?>
<!--
  - Copyright (c) 2021-2024 Bearsampp
  - License:  GNU General Public License version 3 or later; see LICENSE.txt
  - Author: Bear
  - Website: https://bearsampp.com
  - Github: https://github.com/Bearsampp
  -->

<!DOCTYPE svg PUBLIC "-//W3C//DTD SVG 1.1//EN"
 "http://www.w3.org/Graphics/SVG/1.1/DTD/svg11.dtd">
<!-- Generated by graphviz version 11.0.0 (20240428.1522)
 -->
<!-- Title: Util\startService Pages: 1 -->
<svg width="694pt" height="96pt"
 viewBox="0.00 0.00 693.75 95.50" xmlns="http://www.w3.org/2000/svg" xmlns:xlink="http://www.w3.org/1999/xlink">
<g id="graph0" class="graph" transform="scale(1 1) rotate(0) translate(4 91.5)">
<title>Util\startService</title>
<!-- Node1 -->
<g id="Node000001" class="node">
<title>Node1</title>
<g id="a_Node000001"><a xlink:title=" ">
<polygon fill="#999999" stroke="#666666" points="685.75,-65.5 571.5,-65.5 571.5,-41 685.75,-41 685.75,-65.5"/>
<text text-anchor="middle" x="628.62" y="-48.2" font-family="Helvetica,sans-Serif" font-size="14.00">Util\startService</text>
</a>
</g>
</g>
<!-- Node2 -->
<g id="Node000002" class="node">
<title>Node2</title>
<g id="a_Node000002"><a xlink:href="../../dc/db3/classBinPhp.html#a89be847e34d7efd92078d2aa07137422" target="_top" xlink:title=" ">
<polygon fill="white" stroke="#666666" points="532.88,-87.5 403.62,-87.5 403.62,-63 532.88,-63 532.88,-87.5"/>
<text text-anchor="middle" x="468.25" y="-70.2" font-family="Helvetica,sans-Serif" font-size="14.00">BinPhp\setEnable</text>
</a>
</g>
</g>
<!-- Node1&#45;&gt;Node2 -->
<g id="edge1_Node000001_Node000002" class="edge">
<title>Node1&#45;&gt;Node2</title>
<g id="a_edge1_Node000001_Node000002"><a xlink:title=" ">
<path fill="none" stroke="#63b8ff" d="M560.16,-62.62C551.21,-63.86 542.06,-65.14 533.18,-66.37"/>
<polygon fill="#63b8ff" stroke="#63b8ff" points="560.42,-66.12 569.84,-61.28 559.46,-59.19 560.42,-66.12"/>
</a>
</g>
</g>
<!-- Node3 -->
<g id="Node000003" class="node">
<title>Node3</title>
<g id="a_Node000003"><a xlink:href="../../d7/d0e/classActionService.html#aa2ecd338f211716418b803af44a713c4" target="_top" xlink:title=" ">
<polygon fill="white" stroke="#666666" points="535.5,-44.5 401,-44.5 401,-20 535.5,-20 535.5,-44.5"/>
<text text-anchor="middle" x="468.25" y="-27.2" font-family="Helvetica,sans-Serif" font-size="14.00">ActionService\start</text>
</a>
</g>
</g>
<!-- Node1&#45;&gt;Node3 -->
<g id="edge2_Node000001_Node000003" class="edge">
<title>Node1&#45;&gt;Node3</title>
<g id="a_edge2_Node000001_Node000003"><a xlink:title=" ">
<path fill="none" stroke="#63b8ff" d="M560.14,-44.3C552.11,-43.24 543.93,-42.15 535.91,-41.09"/>
<polygon fill="#63b8ff" stroke="#63b8ff" points="559.47,-47.74 569.84,-45.59 560.39,-40.8 559.47,-47.74"/>
</a>
</g>
</g>
<!-- Node4 -->
<g id="Node000004" class="node">
<title>Node4</title>
<g id="a_Node000004"><a xlink:href="../../d7/d0e/classActionService.html#a4440ed18ce314e66ba30932864b5584b" target="_top" xlink:title=" ">
<polygon fill="white" stroke="#666666" points="181.75,-44.5 0,-44.5 0,-20 181.75,-20 181.75,-44.5"/>
<text text-anchor="middle" x="90.88" y="-27.2" font-family="Helvetica,sans-Serif" font-size="14.00">ActionService\__construct</text>
</a>
</g>
</g>
<!-- Node3&#45;&gt;Node4 -->
<g id="edge3_Node000003_Node000004" class="edge">
<title>Node3&#45;&gt;Node4</title>
<g id="a_edge3_Node000003_Node000004"><a xlink:title=" ">
<path fill="none" stroke="#63b8ff" d="M389.19,-33.09C381.02,-33.16 372.84,-33.21 365,-33.25 299.56,-33.57 283.19,-33.51 217.75,-33.25 206.17,-33.2 193.99,-33.13 181.95,-33.05"/>
<polygon fill="#63b8ff" stroke="#63b8ff" points="389.21,-36.59 399.18,-33.01 389.16,-29.59 389.21,-36.59"/>
</a>
</g>
</g>
<!-- Node5 -->
<g id="Node000005" class="node">
<title>Node5</title>
<g id="a_Node000005"><a xlink:href="../../d7/d0e/classActionService.html#a66abcafad5706de7894580c0dab1ca0a" target="_top" xlink:title=" ">
<polygon fill="white" stroke="#666666" points="365,-24.5 217.75,-24.5 217.75,0 365,0 365,-24.5"/>
<text text-anchor="middle" x="291.38" y="-7.2" font-family="Helvetica,sans-Serif" font-size="14.00">ActionService\restart</text>
</a>
</g>
</g>
<!-- Node3&#45;&gt;Node5 -->
<g id="edge4_Node000003_Node000005" class="edge">
<title>Node3&#45;&gt;Node5</title>
<g id="a_edge4_Node000003_Node000005"><a xlink:title=" ">
<path fill="none" stroke="#63b8ff" d="M389.38,-23.34C381.34,-22.42 373.2,-21.49 365.22,-20.58"/>
<polygon fill="#63b8ff" stroke="#63b8ff" points="388.8,-26.8 399.13,-24.46 389.6,-19.85 388.8,-26.8"/>
</a>
</g>
</g>
<!-- Node5&#45;&gt;Node4 -->
<g id="edge5_Node000005_Node000004" class="edge">
<title>Node5&#45;&gt;Node4</title>
<g id="a_edge5_Node000005_Node000004"><a xlink:title=" ">
<path fill="none" stroke="#63b8ff" d="M206.13,-20.74C198.14,-21.54 190.02,-22.36 181.98,-23.17"/>
<polygon fill="#63b8ff" stroke="#63b8ff" points="206.2,-24.25 215.8,-19.76 205.5,-17.28 206.2,-24.25"/>
</a>
</g>
</g>
</g>
</svg>
