<?xml version="1.0" encoding="UTF-8" standalone="no"?>
<!--
  - Copyright (c) 2021-2024 Bearsampp
  - License:  GNU General Public License version 3 or later; see LICENSE.txt
  - Author: Bear
  - Website: https://bearsampp.com
  - Github: https://github.com/Bearsampp
  -->

<!DOCTYPE svg PUBLIC "-//W3C//DTD SVG 1.1//EN"
 "http://www.w3.org/Graphics/SVG/1.1/DTD/svg11.dtd">
<!-- Generated by graphviz version 11.0.0 (20240428.1522)
 -->
<!-- Title: Util\getMicrotime Pages: 1 -->
<svg width="818pt" height="172pt"
 viewBox="0.00 0.00 818.25 171.75" xmlns="http://www.w3.org/2000/svg" xmlns:xlink="http://www.w3.org/1999/xlink">
<g id="graph0" class="graph" transform="scale(1 1) rotate(0) translate(4 167.75)">
<title>Util\getMicrotime</title>
<!-- Node1 -->
<g id="Node000001" class="node">
<title>Node1</title>
<g id="a_Node000001"><a xlink:title=" ">
<polygon fill="#999999" stroke="#666666" points="810.25,-84.5 689.25,-84.5 689.25,-60 810.25,-60 810.25,-84.5"/>
<text text-anchor="middle" x="749.75" y="-67.2" font-family="Helvetica,sans-Serif" font-size="14.00">Util\getMicrotime</text>
</a>
</g>
</g>
<!-- Node2 -->
<g id="Node000002" class="node">
<title>Node2</title>
<g id="a_Node000002"><a xlink:href="../../d1/db8/classActionStartup.html#a285cd2c8807b4ae4b622fe384ac98672" target="_top" xlink:title=" ">
<polygon fill="white" stroke="#666666" points="653.25,-147.5 474.5,-147.5 474.5,-123 653.25,-123 653.25,-147.5"/>
<text text-anchor="middle" x="563.88" y="-130.2" font-family="Helvetica,sans-Serif" font-size="14.00">ActionStartup\__construct</text>
</a>
</g>
</g>
<!-- Node1&#45;&gt;Node2 -->
<g id="edge1_Node000001_Node000002" class="edge">
<title>Node1&#45;&gt;Node2</title>
<g id="a_edge1_Node000001_Node000002"><a xlink:title=" ">
<path fill="none" stroke="#63b8ff" d="M712.07,-89.65C694.53,-97.54 673.08,-106.58 653.25,-113.25 643.21,-116.63 632.37,-119.75 621.84,-122.51"/>
<polygon fill="#63b8ff" stroke="#63b8ff" points="713.42,-92.88 721.06,-85.54 710.51,-86.51 713.42,-92.88"/>
</a>
</g>
</g>
<!-- Node3 -->
<g id="Node000003" class="node">
<title>Node3</title>
<g id="a_Node000003"><a xlink:href="../../d6/de4/classUtil.html#a55280bd0193da8aabb79ac6f6785ecf5" target="_top" xlink:title=" ">
<polygon fill="white" stroke="#666666" points="633.75,-104.5 494,-104.5 494,-80 633.75,-80 633.75,-104.5"/>
<text text-anchor="middle" x="563.88" y="-87.2" font-family="Helvetica,sans-Serif" font-size="14.00">Util\getFilesToScan</text>
</a>
</g>
</g>
<!-- Node1&#45;&gt;Node3 -->
<g id="edge2_Node000001_Node000003" class="edge">
<title>Node1&#45;&gt;Node3</title>
<g id="a_edge2_Node000001_Node000003"><a xlink:title=" ">
<path fill="none" stroke="#63b8ff" d="M677.51,-80C663.22,-81.55 648.23,-83.18 634.01,-84.73"/>
<polygon fill="#63b8ff" stroke="#63b8ff" points="677.73,-83.5 687.29,-78.93 676.97,-76.54 677.73,-83.5"/>
</a>
</g>
</g>
<!-- Node6 -->
<g id="Node000006" class="node">
<title>Node6</title>
<g id="a_Node000006"><a xlink:href="../../d1/db8/classActionStartup.html#a1234a0f2093a95140d6f86983514d28f" target="_top" xlink:title=" ">
<polygon fill="white" stroke="#666666" points="207.25,-64.5 0,-64.5 0,-40 207.25,-40 207.25,-64.5"/>
<text text-anchor="middle" x="103.63" y="-47.2" font-family="Helvetica,sans-Serif" font-size="14.00">ActionStartup\processWindow</text>
</a>
</g>
</g>
<!-- Node1&#45;&gt;Node6 -->
<g id="edge8_Node000001_Node000006" class="edge">
<title>Node1&#45;&gt;Node6</title>
<g id="a_edge8_Node000001_Node000006"><a xlink:title=" ">
<path fill="none" stroke="#63b8ff" d="M677.67,-70.04C563.64,-66.5 339.33,-59.54 207.71,-55.45"/>
<polygon fill="#63b8ff" stroke="#63b8ff" points="677.4,-73.54 687.51,-70.35 677.62,-66.54 677.4,-73.54"/>
</a>
</g>
</g>
<!-- Node7 -->
<g id="Node000007" class="node">
<title>Node7</title>
<g id="a_Node000007"><a xlink:href="../../d1/db8/classActionStartup.html#adef126078efed832ed35196e0e159144" target="_top" xlink:title=" ">
<polygon fill="white" stroke="#666666" points="438.5,-24.5 243.25,-24.5 243.25,0 438.5,0 438.5,-24.5"/>
<text text-anchor="middle" x="340.88" y="-7.2" font-family="Helvetica,sans-Serif" font-size="14.00">ActionStartup\installServices</text>
</a>
</g>
</g>
<!-- Node1&#45;&gt;Node7 -->
<g id="edge6_Node000001_Node000007" class="edge">
<title>Node1&#45;&gt;Node7</title>
<g id="a_edge6_Node000001_Node000007"><a xlink:title=" ">
<path fill="none" stroke="#63b8ff" d="M709.04,-55.52C692.14,-49.08 672.02,-42.3 653.25,-38.25 582.46,-22.96 500.83,-16.55 438.91,-13.91"/>
<polygon fill="#63b8ff" stroke="#63b8ff" points="707.64,-58.73 718.23,-59.12 710.2,-52.21 707.64,-58.73"/>
</a>
</g>
</g>
<!-- Node4 -->
<g id="Node000004" class="node">
<title>Node4</title>
<g id="a_Node000004"><a xlink:href="../../d6/dff/classActionSwitchVersion.html#a89f1ff41b1715ca23ea9f9d35f7ff643" target="_top" xlink:title=" ">
<polygon fill="white" stroke="#666666" points="413.75,-163.75 268,-163.75 268,-122.75 413.75,-122.75 413.75,-163.75"/>
<text text-anchor="start" x="276" y="-146.45" font-family="Helvetica,sans-Serif" font-size="14.00">ActionSwitchVersion</text>
<text text-anchor="middle" x="340.88" y="-129.95" font-family="Helvetica,sans-Serif" font-size="14.00">\processWindow</text>
</a>
</g>
</g>
<!-- Node3&#45;&gt;Node4 -->
<g id="edge3_Node000003_Node000004" class="edge">
<title>Node3&#45;&gt;Node4</title>
<g id="a_edge3_Node000003_Node000004"><a xlink:title=" ">
<path fill="none" stroke="#63b8ff" d="M496.75,-107.51C470.63,-113.54 440.54,-120.48 413.88,-126.63"/>
<polygon fill="#63b8ff" stroke="#63b8ff" points="497.25,-110.99 506.2,-105.33 495.67,-104.17 497.25,-110.99"/>
</a>
</g>
</g>
<!-- Node5 -->
<g id="Node000005" class="node">
<title>Node5</title>
<g id="a_Node000005"><a xlink:href="../../d1/db8/classActionStartup.html#ac821b68c4b5464e564fbd59fc51f9ceb" target="_top" xlink:title=" ">
<polygon fill="white" stroke="#666666" points="432.5,-104.5 249.25,-104.5 249.25,-80 432.5,-80 432.5,-104.5"/>
<text text-anchor="middle" x="340.88" y="-87.2" font-family="Helvetica,sans-Serif" font-size="14.00">ActionStartup\scanFolders</text>
</a>
</g>
</g>
<!-- Node3&#45;&gt;Node5 -->
<g id="edge4_Node000003_Node000005" class="edge">
<title>Node3&#45;&gt;Node5</title>
<g id="a_edge4_Node000003_Node000005"><a xlink:title=" ">
<path fill="none" stroke="#63b8ff" d="M482.08,-92.25C466.07,-92.25 449.17,-92.25 432.85,-92.25"/>
<polygon fill="#63b8ff" stroke="#63b8ff" points="482.04,-95.75 492.04,-92.25 482.04,-88.75 482.04,-95.75"/>
</a>
</g>
</g>
<!-- Node5&#45;&gt;Node6 -->
<g id="edge5_Node000005_Node000006" class="edge">
<title>Node5&#45;&gt;Node6</title>
<g id="a_edge5_Node000005_Node000006"><a xlink:title=" ">
<path fill="none" stroke="#63b8ff" d="M254.06,-77.66C229.66,-73.51 203.29,-69.03 179.59,-65"/>
<polygon fill="#63b8ff" stroke="#63b8ff" points="253.18,-81.06 263.63,-79.29 254.35,-74.16 253.18,-81.06"/>
</a>
</g>
</g>
<!-- Node7&#45;&gt;Node6 -->
<g id="edge7_Node000007_Node000006" class="edge">
<title>Node7&#45;&gt;Node6</title>
<g id="a_edge7_Node000007_Node000006"><a xlink:title=" ">
<path fill="none" stroke="#63b8ff" d="M254.06,-26.84C229.66,-30.99 203.29,-35.47 179.59,-39.5"/>
<polygon fill="#63b8ff" stroke="#63b8ff" points="254.35,-30.34 263.63,-25.21 253.18,-23.44 254.35,-30.34"/>
</a>
</g>
</g>
</g>
</svg>
