<?xml version="1.0" encoding="UTF-8" standalone="no"?>
<!--
  - Copyright (c) 2021-2024 Bearsampp
  - License:  GNU General Public License version 3 or later; see LICENSE.txt
  - Author: Bear
  - Website: https://bearsampp.com
  - Github: https://github.com/Bearsampp
  -->

<!DOCTYPE svg PUBLIC "-//W3C//DTD SVG 1.1//EN"
 "http://www.w3.org/Graphics/SVG/1.1/DTD/svg11.dtd">
<!-- Generated by graphviz version 11.0.0 (20240428.1522)
 -->
<!-- Title: Util\getGithubUserUrl Pages: 1 -->
<svg width="392pt" height="119pt"
 viewBox="0.00 0.00 391.75 118.50" xmlns="http://www.w3.org/2000/svg" xmlns:xlink="http://www.w3.org/1999/xlink">
<g id="graph0" class="graph" transform="scale(1 1) rotate(0) translate(4 114.5)">
<title>Util\getGithubUserUrl</title>
<!-- Node1 -->
<g id="Node000001" class="node">
<title>Node1</title>
<g id="a_Node000001"><a xlink:title=" ">
<polygon fill="#999999" stroke="#666666" points="383.75,-67.5 235.75,-67.5 235.75,-43 383.75,-43 383.75,-67.5"/>
<text text-anchor="middle" x="309.75" y="-50.2" font-family="Helvetica,sans-Serif" font-size="14.00">Util\getGithubUserUrl</text>
</a>
</g>
</g>
<!-- Node2 -->
<g id="Node000002" class="node">
<title>Node2</title>
<g id="a_Node000002"><a xlink:href="../../d5/d43/classActionAbout.html#aaa96db6b0220bee91c8f026b562cef76" target="_top" xlink:title=" ">
<polygon fill="white" stroke="#666666" points="185.5,-110.5 14.25,-110.5 14.25,-86 185.5,-86 185.5,-110.5"/>
<text text-anchor="middle" x="99.88" y="-93.2" font-family="Helvetica,sans-Serif" font-size="14.00">ActionAbout\__construct</text>
</a>
</g>
</g>
<!-- Node1&#45;&gt;Node2 -->
<g id="edge1_Node000001_Node000002" class="edge">
<title>Node1&#45;&gt;Node2</title>
<g id="a_edge1_Node000001_Node000002"><a xlink:title=" ">
<path fill="none" stroke="#63b8ff" d="M235.99,-70.3C211.92,-75.28 185.38,-80.77 162.24,-85.56"/>
<polygon fill="#63b8ff" stroke="#63b8ff" points="236.66,-73.74 245.74,-68.28 235.24,-66.88 236.66,-73.74"/>
</a>
</g>
</g>
<!-- Node3 -->
<g id="Node000003" class="node">
<title>Node3</title>
<g id="a_Node000003"><a xlink:href="../../d6/de4/classUtil.html#ab3c2c03c86a1a944b17d0c1ca5933577" target="_top" xlink:title=" ">
<polygon fill="white" stroke="#666666" points="158.88,-67.5 40.88,-67.5 40.88,-43 158.88,-43 158.88,-67.5"/>
<text text-anchor="middle" x="99.88" y="-50.2" font-family="Helvetica,sans-Serif" font-size="14.00">Util\getGithubUrl</text>
</a>
</g>
</g>
<!-- Node1&#45;&gt;Node3 -->
<g id="edge2_Node000001_Node000003" class="edge">
<title>Node1&#45;&gt;Node3</title>
<g id="a_edge2_Node000001_Node000003"><a xlink:title=" ">
<path fill="none" stroke="#63b8ff" d="M224.17,-55.25C202.33,-55.25 179.32,-55.25 159.16,-55.25"/>
<polygon fill="#63b8ff" stroke="#63b8ff" points="223.95,-58.75 233.95,-55.25 223.95,-51.75 223.95,-58.75"/>
</a>
</g>
</g>
<!-- Node4 -->
<g id="Node000004" class="node">
<title>Node4</title>
<g id="a_Node000004"><a xlink:href="../../d5/d43/classActionAbout.html#a686ab955b412bedcf7b9509228d62bde" target="_top" xlink:title=" ">
<polygon fill="white" stroke="#666666" points="199.75,-24.5 0,-24.5 0,0 199.75,0 199.75,-24.5"/>
<text text-anchor="middle" x="99.88" y="-7.2" font-family="Helvetica,sans-Serif" font-size="14.00">ActionAbout\processWindow</text>
</a>
</g>
</g>
<!-- Node1&#45;&gt;Node4 -->
<g id="edge3_Node000001_Node000004" class="edge">
<title>Node1&#45;&gt;Node4</title>
<g id="a_edge3_Node000001_Node000004"><a xlink:title=" ">
<path fill="none" stroke="#63b8ff" d="M235.99,-40.2C211.92,-35.22 185.38,-29.73 162.24,-24.94"/>
<polygon fill="#63b8ff" stroke="#63b8ff" points="235.24,-43.62 245.74,-42.22 236.66,-36.76 235.24,-43.62"/>
</a>
</g>
</g>
</g>
</svg>
