<?xml version="1.0" encoding="UTF-8" standalone="no"?>
<!--
  - Copyright (c) 2021-2024 Bearsampp
  - License:  GNU General Public License version 3 or later; see LICENSE.txt
  - Author: Bear
  - Website: https://bearsampp.com
  - Github: https://github.com/Bearsampp
  -->

<!DOCTYPE svg PUBLIC "-//W3C//DTD SVG 1.1//EN"
 "http://www.w3.org/Graphics/SVG/1.1/DTD/svg11.dtd">
<!-- Generated by graphviz version 11.0.0 (20240428.1522)
 -->
<!-- Title: Util\getAppBinsRegKey Pages: 1 -->
<svg width="674pt" height="135pt"
 viewBox="0.00 0.00 674.00 134.75" xmlns="http://www.w3.org/2000/svg" xmlns:xlink="http://www.w3.org/1999/xlink">
<g id="graph0" class="graph" transform="scale(1 1) rotate(0) translate(4 130.75)">
<title>Util\getAppBinsRegKey</title>
<!-- Node1 -->
<g id="Node000001" class="node">
<title>Node1</title>
<g id="a_Node000001"><a xlink:title=" ">
<polygon fill="#999999" stroke="#666666" points="666,-83.75 500.75,-83.75 500.75,-59.25 666,-59.25 666,-83.75"/>
<text text-anchor="middle" x="583.38" y="-66.45" font-family="Helvetica,sans-Serif" font-size="14.00">Util\getAppBinsRegKey</text>
</a>
</g>
</g>
<!-- Node2 -->
<g id="Node000002" class="node">
<title>Node2</title>
<g id="a_Node000002"><a xlink:href="../../d1/db8/classActionStartup.html#abe4d907f0d15217a1a5f1536c648a6d1" target="_top" xlink:title=" ">
<polygon fill="white" stroke="#666666" points="464.75,-126.75 243.25,-126.75 243.25,-102.25 464.75,-102.25 464.75,-126.75"/>
<text text-anchor="middle" x="354" y="-109.45" font-family="Helvetica,sans-Serif" font-size="14.00">ActionStartup\checkBinsRegKey</text>
</a>
</g>
</g>
<!-- Node1&#45;&gt;Node2 -->
<g id="edge1_Node000001_Node000002" class="edge">
<title>Node1&#45;&gt;Node2</title>
<g id="a_edge1_Node000001_Node000002"><a xlink:title=" ">
<path fill="none" stroke="#63b8ff" d="M503.86,-86.35C477.25,-91.38 447.77,-96.96 422.12,-101.81"/>
<polygon fill="#63b8ff" stroke="#63b8ff" points="504.42,-89.81 513.59,-84.51 503.11,-82.93 504.42,-89.81"/>
</a>
</g>
</g>
<!-- Node4 -->
<g id="Node000004" class="node">
<title>Node4</title>
<g id="a_Node000004"><a xlink:href="../../df/d28/classWin32Service.html#a0d671863c8ed9869297400110daef2c1" target="_top" xlink:title=" ">
<polygon fill="white" stroke="#666666" points="428.38,-83.75 279.62,-83.75 279.62,-59.25 428.38,-59.25 428.38,-83.75"/>
<text text-anchor="middle" x="354" y="-66.45" font-family="Helvetica,sans-Serif" font-size="14.00">Win32Service\create</text>
</a>
</g>
</g>
<!-- Node1&#45;&gt;Node4 -->
<g id="edge3_Node000001_Node000004" class="edge">
<title>Node1&#45;&gt;Node4</title>
<g id="a_edge3_Node000001_Node000004"><a xlink:title=" ">
<path fill="none" stroke="#63b8ff" d="M488.91,-71.5C468.83,-71.5 447.87,-71.5 428.67,-71.5"/>
<polygon fill="#63b8ff" stroke="#63b8ff" points="488.77,-75 498.77,-71.5 488.77,-68 488.77,-75"/>
</a>
</g>
</g>
<!-- Node6 -->
<g id="Node000006" class="node">
<title>Node6</title>
<g id="a_Node000006"><a xlink:href="../../d6/dff/classActionSwitchVersion.html#a89f1ff41b1715ca23ea9f9d35f7ff643" target="_top" xlink:title=" ">
<polygon fill="white" stroke="#666666" points="426.88,-41 281.12,-41 281.12,0 426.88,0 426.88,-41"/>
<text text-anchor="start" x="289.12" y="-23.7" font-family="Helvetica,sans-Serif" font-size="14.00">ActionSwitchVersion</text>
<text text-anchor="middle" x="354" y="-7.2" font-family="Helvetica,sans-Serif" font-size="14.00">\processWindow</text>
</a>
</g>
</g>
<!-- Node1&#45;&gt;Node6 -->
<g id="edge5_Node000001_Node000006" class="edge">
<title>Node1&#45;&gt;Node6</title>
<g id="a_edge5_Node000001_Node000006"><a xlink:title=" ">
<path fill="none" stroke="#63b8ff" d="M514.45,-56.26C486.86,-50.08 454.96,-42.92 426.97,-36.64"/>
<polygon fill="#63b8ff" stroke="#63b8ff" points="513.58,-59.66 524.11,-58.43 515.12,-52.83 513.58,-59.66"/>
</a>
</g>
</g>
<!-- Node3 -->
<g id="Node000003" class="node">
<title>Node3</title>
<g id="a_Node000003"><a xlink:href="../../d1/db8/classActionStartup.html#a1234a0f2093a95140d6f86983514d28f" target="_top" xlink:title=" ">
<polygon fill="white" stroke="#666666" points="207.25,-126.75 0,-126.75 0,-102.25 207.25,-102.25 207.25,-126.75"/>
<text text-anchor="middle" x="103.63" y="-109.45" font-family="Helvetica,sans-Serif" font-size="14.00">ActionStartup\processWindow</text>
</a>
</g>
</g>
<!-- Node2&#45;&gt;Node3 -->
<g id="edge2_Node000002_Node000003" class="edge">
<title>Node2&#45;&gt;Node3</title>
<g id="a_edge2_Node000002_Node000003"><a xlink:title=" ">
<path fill="none" stroke="#63b8ff" d="M231.59,-114.5C223.52,-114.5 215.43,-114.5 207.47,-114.5"/>
<polygon fill="#63b8ff" stroke="#63b8ff" points="231.46,-118 241.46,-114.5 231.46,-111 231.46,-118"/>
</a>
</g>
</g>
<!-- Node5 -->
<g id="Node000005" class="node">
<title>Node5</title>
<g id="a_Node000005"><a xlink:href="../../df/d28/classWin32Service.html#ab2bdb25f7405e3bb9e5230fca1980747" target="_top" xlink:title=" ">
<polygon fill="white" stroke="#666666" points="174.25,-83.75 33,-83.75 33,-59.25 174.25,-59.25 174.25,-83.75"/>
<text text-anchor="middle" x="103.63" y="-66.45" font-family="Helvetica,sans-Serif" font-size="14.00">Win32Service\reset</text>
</a>
</g>
</g>
<!-- Node4&#45;&gt;Node5 -->
<g id="edge4_Node000004_Node000005" class="edge">
<title>Node4&#45;&gt;Node5</title>
<g id="a_edge4_Node000004_Node000005"><a xlink:title=" ">
<path fill="none" stroke="#63b8ff" d="M267.67,-71.5C237.23,-71.5 203.33,-71.5 174.36,-71.5"/>
<polygon fill="#63b8ff" stroke="#63b8ff" points="267.64,-75 277.64,-71.5 267.64,-68 267.64,-75"/>
</a>
</g>
</g>
</g>
</svg>
