<?xml version="1.0" encoding="UTF-8" standalone="no"?>
<!DOCTYPE svg PUBLIC "-//W3C//DTD SVG 1.1//EN"
 "http://www.w3.org/Graphics/SVG/1.1/DTD/svg11.dtd">
<!-- Generated by graphviz version 11.0.0 (20240428.1522)
 -->
<!-- Title: Util\logTrace Pages: 1 -->
<svg width="761pt" height="1409pt"
 viewBox="0.00 0.00 760.50 1408.50" xmlns="http://www.w3.org/2000/svg" xmlns:xlink="http://www.w3.org/1999/xlink">
<g id="graph0" class="graph" transform="scale(1 1) rotate(0) translate(4 1404.5)">
<title>Util\logTrace</title>
<!-- Node1 -->
<g id="Node000001" class="node">
<title>Node1</title>
<g id="a_Node000001"><a xlink:title=" ">
<polygon fill="#999999" stroke="#666666" points="752.5,-1105.5 657,-1105.5 657,-1081 752.5,-1081 752.5,-1105.5"/>
<text text-anchor="middle" x="704.75" y="-1088.2" font-family="Helvetica,sans-Serif" font-size="14.00">Util\logTrace</text>
</a>
</g>
</g>
<!-- Node2 -->
<g id="Node000002" class="node">
<title>Node2</title>
<g id="a_Node000002"><a xlink:href="../../d6/de4/classUtil.html#afe47f97deae8594ad07f64e1acf51255" target="_top" xlink:title=" ">
<polygon fill="white" stroke="#666666" points="614.25,-1336.5 449.75,-1336.5 449.75,-1312 614.25,-1312 614.25,-1336.5"/>
<text text-anchor="middle" x="532" y="-1319.2" font-family="Helvetica,sans-Serif" font-size="14.00">Util\getCurlHttpHeaders</text>
</a>
</g>
</g>
<!-- Node1&#45;&gt;Node2 -->
<g id="edge1_Node000001_Node000002" class="edge">
<title>Node1&#45;&gt;Node2</title>
<g id="a_edge1_Node000001_Node000002"><a xlink:title=" ">
<path fill="none" stroke="#63b8ff" d="M693.09,-1115.98C678.78,-1145.38 651.58,-1197.55 621,-1237.25 598.45,-1266.52 566.48,-1295.73 547.92,-1311.75"/>
<polygon fill="#63b8ff" stroke="#63b8ff" points="696.1,-1117.79 697.27,-1107.26 689.79,-1114.76 696.1,-1117.79"/>
</a>
</g>
</g>
<!-- Node5 -->
<g id="Node000005" class="node">
<title>Node5</title>
<g id="a_Node000005"><a xlink:href="../../d6/de4/classUtil.html#aad0ddfac5415751b2ba93898ee532abd" target="_top" xlink:title=" ">
<polygon fill="white" stroke="#666666" points="379.62,-712.5 266.12,-712.5 266.12,-688 379.62,-688 379.62,-712.5"/>
<text text-anchor="middle" x="322.88" y="-695.2" font-family="Helvetica,sans-Serif" font-size="14.00">Util\logInitClass</text>
</a>
</g>
</g>
<!-- Node1&#45;&gt;Node5 -->
<g id="edge3_Node000001_Node000005" class="edge">
<title>Node1&#45;&gt;Node5</title>
<g id="a_edge3_Node000001_Node000005"><a xlink:title=" ">
<path fill="none" stroke="#63b8ff" d="M684.93,-1113.81C669.47,-1129.08 646.09,-1148.68 621,-1157.25 546.14,-1182.82 505.6,-1205.62 443,-1157.25 424.35,-1142.84 343.05,-785.44 326.73,-712.99"/>
<polygon fill="#63b8ff" stroke="#63b8ff" points="687.14,-1116.56 691.61,-1106.95 682.13,-1111.67 687.14,-1116.56"/>
</a>
</g>
</g>
<!-- Node38 -->
<g id="Node000038" class="node">
<title>Node38</title>
<g id="a_Node000038"><a xlink:href="../../d6/de4/classUtil.html#a1f2f58994381e42d59ae66bf04dcf66c" target="_top" xlink:title=" ">
<polygon fill="#fff0f0" stroke="red" points="602.25,-1228.5 461.75,-1228.5 461.75,-1204 602.25,-1204 602.25,-1228.5"/>
<text text-anchor="middle" x="532" y="-1211.2" font-family="Helvetica,sans-Serif" font-size="14.00">Util\logReloadClass</text>
</a>
</g>
</g>
<!-- Node1&#45;&gt;Node38 -->
<g id="edge36_Node000001_Node000038" class="edge">
<title>Node1&#45;&gt;Node38</title>
<g id="a_edge36_Node000001_Node000038"><a xlink:title=" ">
<path fill="none" stroke="#63b8ff" d="M690.49,-1115.21C676.05,-1137.3 650.97,-1170.79 621,-1190.25 612.58,-1195.72 602.98,-1200.07 593.28,-1203.52"/>
<polygon fill="#63b8ff" stroke="#63b8ff" points="693.32,-1117.28 695.71,-1106.96 687.41,-1113.53 693.32,-1117.28"/>
</a>
</g>
</g>
<!-- Node118 -->
<g id="Node000118" class="node">
<title>Node118</title>
<g id="a_Node000118"><a xlink:href="../../d9/d6c/classBinApache.html#a9e715eda066b0d564d23ce51f0fec684" target="_top" xlink:title=" ">
<polygon fill="white" stroke="#666666" points="614.25,-1148.5 449.75,-1148.5 449.75,-1124 614.25,-1124 614.25,-1148.5"/>
<text text-anchor="middle" x="532" y="-1131.2" font-family="Helvetica,sans-Serif" font-size="14.00">BinApache\refreshAlias</text>
</a>
</g>
</g>
<!-- Node1&#45;&gt;Node118 -->
<g id="edge51_Node000001_Node000118" class="edge">
<title>Node1&#45;&gt;Node118</title>
<g id="a_edge51_Node000001_Node000118"><a xlink:title=" ">
<path fill="none" stroke="#63b8ff" d="M646.03,-1107.93C637.63,-1110.05 629.09,-1112.21 621,-1114.25 608.94,-1117.29 595.94,-1120.55 583.73,-1123.6"/>
<polygon fill="#63b8ff" stroke="#63b8ff" points="646.63,-1111.38 655.46,-1105.53 644.91,-1104.6 646.63,-1111.38"/>
</a>
</g>
</g>
<!-- Node119 -->
<g id="Node000119" class="node">
<title>Node119</title>
<g id="a_Node000119"><a xlink:href="../../d9/d6c/classBinApache.html#a562c609c726922caf740b22ea9d4c537" target="_top" xlink:title=" ">
<polygon fill="white" stroke="#666666" points="614.25,-1105.5 449.75,-1105.5 449.75,-1081 614.25,-1081 614.25,-1105.5"/>
<text text-anchor="middle" x="532" y="-1088.2" font-family="Helvetica,sans-Serif" font-size="14.00">BinApache\refreshConf</text>
</a>
</g>
</g>
<!-- Node1&#45;&gt;Node119 -->
<g id="edge52_Node000001_Node000119" class="edge">
<title>Node1&#45;&gt;Node119</title>
<g id="a_edge52_Node000001_Node000119"><a xlink:title=" ">
<path fill="none" stroke="#63b8ff" d="M645.33,-1093.25C635.45,-1093.25 625.03,-1093.25 614.69,-1093.25"/>
<polygon fill="#63b8ff" stroke="#63b8ff" points="645.13,-1096.75 655.13,-1093.25 645.13,-1089.75 645.13,-1096.75"/>
</a>
</g>
</g>
<!-- Node120 -->
<g id="Node000120" class="node">
<title>Node120</title>
<g id="a_Node000120"><a xlink:href="../../d9/d6c/classBinApache.html#a7547ed525ff649c090a3c1f1474afdab" target="_top" xlink:title=" ">
<polygon fill="white" stroke="#666666" points="621,-1062.5 443,-1062.5 443,-1038 621,-1038 621,-1062.5"/>
<text text-anchor="middle" x="532" y="-1045.2" font-family="Helvetica,sans-Serif" font-size="14.00">BinApache\refreshVhosts</text>
</a>
</g>
</g>
<!-- Node1&#45;&gt;Node120 -->
<g id="edge53_Node000001_Node000120" class="edge">
<title>Node1&#45;&gt;Node120</title>
<g id="a_edge53_Node000001_Node000120"><a xlink:title=" ">
<path fill="none" stroke="#63b8ff" d="M646.03,-1078.57C637.63,-1076.45 629.09,-1074.29 621,-1072.25 608.94,-1069.21 595.94,-1065.95 583.73,-1062.9"/>
<polygon fill="#63b8ff" stroke="#63b8ff" points="644.91,-1081.9 655.46,-1080.97 646.63,-1075.12 644.91,-1081.9"/>
</a>
</g>
</g>
<!-- Node121 -->
<g id="Node000121" class="node">
<title>Node121</title>
<g id="a_Node000121"><a xlink:href="../../d9/df9/classConfig.html#ad36fe591d802379bfa4793e2c21cc02d" target="_top" xlink:title=" ">
<polygon fill="#fff0f0" stroke="red" points="594.38,-1019.5 469.62,-1019.5 469.62,-995 594.38,-995 594.38,-1019.5"/>
<text text-anchor="middle" x="532" y="-1002.2" font-family="Helvetica,sans-Serif" font-size="14.00">Config\replaceAll</text>
</a>
</g>
</g>
<!-- Node1&#45;&gt;Node121 -->
<g id="edge54_Node000001_Node000121" class="edge">
<title>Node1&#45;&gt;Node121</title>
<g id="a_edge54_Node000001_Node000121"><a xlink:title=" ">
<path fill="none" stroke="#63b8ff" d="M682.7,-1072.96C666.89,-1058.78 644.08,-1040.45 621,-1029.25 612.78,-1025.26 603.77,-1021.95 594.75,-1019.22"/>
<polygon fill="#63b8ff" stroke="#63b8ff" points="680.3,-1075.51 690.03,-1079.71 685.05,-1070.36 680.3,-1075.51"/>
</a>
</g>
</g>
<!-- Node123 -->
<g id="Node000123" class="node">
<title>Node123</title>
<g id="a_Node000123"><a xlink:href="../../d6/de4/classUtil.html#a492fee0e6859b7891725b82153425443" target="_top" xlink:title=" ">
<polygon fill="#fff0f0" stroke="red" points="592.88,-976.5 471.12,-976.5 471.12,-952 592.88,-952 592.88,-976.5"/>
<text text-anchor="middle" x="532" y="-959.2" font-family="Helvetica,sans-Serif" font-size="14.00">Util\replaceInFile</text>
</a>
</g>
</g>
<!-- Node1&#45;&gt;Node123 -->
<g id="edge55_Node000001_Node000123" class="edge">
<title>Node1&#45;&gt;Node123</title>
<g id="a_edge55_Node000001_Node000123"><a xlink:title=" ">
<path fill="none" stroke="#63b8ff" d="M692.45,-1070.95C678.85,-1046.41 653.71,-1007.62 621,-986.25 612.56,-980.74 602.84,-976.61 593.01,-973.51"/>
<polygon fill="#63b8ff" stroke="#63b8ff" points="689.2,-1072.3 697,-1079.47 695.38,-1069 689.2,-1072.3"/>
</a>
</g>
</g>
<!-- Node132 -->
<g id="Node000132" class="node">
<title>Node132</title>
<g id="a_Node000132"><a xlink:href="../../db/d6d/classCore.html#a840b79980f468e326e9f64b996cc41f0" target="_top" xlink:title=" ">
<polygon fill="white" stroke="#666666" points="585.75,-933.5 478.25,-933.5 478.25,-909 585.75,-909 585.75,-933.5"/>
<text text-anchor="middle" x="532" y="-916.2" font-family="Helvetica,sans-Serif" font-size="14.00">Core\unzipFile</text>
</a>
</g>
</g>
<!-- Node1&#45;&gt;Node132 -->
<g id="edge56_Node000001_Node000132" class="edge">
<title>Node1&#45;&gt;Node132</title>
<g id="a_edge56_Node000001_Node000132"><a xlink:title=" ">
<path fill="none" stroke="#63b8ff" d="M697.25,-1069.52C686.84,-1036.13 663.2,-975.72 621,-943.25 610.89,-935.47 598.37,-930.41 585.97,-927.13"/>
<polygon fill="#63b8ff" stroke="#63b8ff" points="693.87,-1070.45 700.06,-1079.05 700.59,-1068.47 693.87,-1070.45"/>
</a>
</g>
</g>
<!-- Node3 -->
<g id="Node000003" class="node">
<title>Node3</title>
<g id="a_Node000003"><a xlink:href="../../d6/de4/classUtil.html#a237a2fa1a4454714d664fb22cdd21acc" target="_top" xlink:title=" ">
<polygon fill="#fff0f0" stroke="red" points="392.38,-1400.5 253.38,-1400.5 253.38,-1376 392.38,-1376 392.38,-1400.5"/>
<text text-anchor="middle" x="322.88" y="-1383.2" font-family="Helvetica,sans-Serif" font-size="14.00">Util\getHttpHeaders</text>
</a>
</g>
</g>
<!-- Node2&#45;&gt;Node3 -->
<g id="edge2_Node000002_Node000003" class="edge">
<title>Node2&#45;&gt;Node3</title>
<g id="a_edge2_Node000002_Node000003"><a xlink:title=" ">
<path fill="none" stroke="#63b8ff" d="M485.05,-1340.64C461.78,-1348.73 433.02,-1358.41 407,-1366.25 396.42,-1369.44 385.01,-1372.62 374.14,-1375.53"/>
<polygon fill="#63b8ff" stroke="#63b8ff" points="485.95,-1344.04 494.23,-1337.43 483.64,-1337.43 485.95,-1344.04"/>
</a>
</g>
</g>
<!-- Node6 -->
<g id="Node000006" class="node">
<title>Node6</title>
<g id="a_Node000006"><a xlink:href="../../df/d54/classAppAdminer.html#a7463642ab7bb00cdf02097ce59489e1b" target="_top" xlink:title=" ">
<polygon fill="white" stroke="#666666" points="188.12,-1099.5 14.62,-1099.5 14.62,-1075 188.12,-1075 188.12,-1099.5"/>
<text text-anchor="middle" x="101.38" y="-1082.2" font-family="Helvetica,sans-Serif" font-size="14.00">AppAdminer\__construct</text>
</a>
</g>
</g>
<!-- Node5&#45;&gt;Node6 -->
<g id="edge4_Node000005_Node000006" class="edge">
<title>Node5&#45;&gt;Node6</title>
<g id="a_edge4_Node000005_Node000006"><a xlink:title=" ">
<path fill="none" stroke="#63b8ff" d="M321.72,-724.45C319.89,-790.01 305.38,-972.37 202.75,-1065.25 198.38,-1069.2 193.48,-1072.5 188.24,-1075.24"/>
<polygon fill="#63b8ff" stroke="#63b8ff" points="325.21,-724.53 321.9,-714.47 318.22,-724.4 325.21,-724.53"/>
</a>
</g>
</g>
<!-- Node7 -->
<g id="Node000007" class="node">
<title>Node7</title>
<g id="a_Node000007"><a xlink:href="../../dd/dec/classAppPhpmyadmin.html#a40805dbd949eb9da437ff1a292c18792" target="_top" xlink:title=" ">
<polygon fill="white" stroke="#666666" points="202.75,-1357.5 0,-1357.5 0,-1333 202.75,-1333 202.75,-1357.5"/>
<text text-anchor="middle" x="101.38" y="-1340.2" font-family="Helvetica,sans-Serif" font-size="14.00">AppPhpmyadmin\__construct</text>
</a>
</g>
</g>
<!-- Node5&#45;&gt;Node7 -->
<g id="edge5_Node000005_Node000007" class="edge">
<title>Node5&#45;&gt;Node7</title>
<g id="a_edge5_Node000005_Node000007"><a xlink:title=" ">
<path fill="none" stroke="#63b8ff" d="M315.84,-723.64C301.09,-781.44 262.66,-935.81 238.75,-1066.25 228.35,-1122.97 241.94,-1280.94 202.75,-1323.25 199.36,-1326.91 195.5,-1330.04 191.33,-1332.7"/>
<polygon fill="#63b8ff" stroke="#63b8ff" points="319.15,-724.84 318.24,-714.28 312.37,-723.1 319.15,-724.84"/>
</a>
</g>
</g>
<!-- Node8 -->
<g id="Node000008" class="node">
<title>Node8</title>
<g id="a_Node000008"><a xlink:href="../../dc/d53/classAppPhppgadmin.html#a553f176d0dcdeec922c514148ecb044e" target="_top" xlink:title=" ">
<polygon fill="white" stroke="#666666" points="201.62,-1314.5 1.12,-1314.5 1.12,-1290 201.62,-1290 201.62,-1314.5"/>
<text text-anchor="middle" x="101.38" y="-1297.2" font-family="Helvetica,sans-Serif" font-size="14.00">AppPhppgadmin\__construct</text>
</a>
</g>
</g>
<!-- Node5&#45;&gt;Node8 -->
<g id="edge6_Node000005_Node000008" class="edge">
<title>Node5&#45;&gt;Node8</title>
<g id="a_edge6_Node000005_Node000008"><a xlink:title=" ">
<path fill="none" stroke="#63b8ff" d="M316.07,-723.68C301.82,-781.58 264.45,-936.15 238.75,-1066.25 229.41,-1113.56 236,-1245.32 202.75,-1280.25 199.31,-1283.87 195.41,-1286.96 191.21,-1289.59"/>
<polygon fill="#63b8ff" stroke="#63b8ff" points="319.38,-724.85 318.38,-714.31 312.59,-723.18 319.38,-724.85"/>
</a>
</g>
</g>
<!-- Node9 -->
<g id="Node000009" class="node">
<title>Node9</title>
<g id="a_Node000009"><a xlink:href="../../dc/df4/classAppWebgrind.html#aa05ddaec092d33bd75b24c724423783f" target="_top" xlink:title=" ">
<polygon fill="white" stroke="#666666" points="192.62,-1271.5 10.12,-1271.5 10.12,-1247 192.62,-1247 192.62,-1271.5"/>
<text text-anchor="middle" x="101.38" y="-1254.2" font-family="Helvetica,sans-Serif" font-size="14.00">AppWebgrind\__construct</text>
</a>
</g>
</g>
<!-- Node5&#45;&gt;Node9 -->
<g id="edge7_Node000005_Node000009" class="edge">
<title>Node5&#45;&gt;Node9</title>
<g id="a_edge7_Node000005_Node000009"><a xlink:title=" ">
<path fill="none" stroke="#63b8ff" d="M316.4,-723.75C302.91,-781.81 267.1,-936.7 238.75,-1066.25 222.15,-1142.12 257.44,-1182.11 202.75,-1237.25 199.11,-1240.92 195,-1244.05 190.58,-1246.7"/>
<polygon fill="#63b8ff" stroke="#63b8ff" points="319.73,-724.88 318.59,-714.35 312.91,-723.3 319.73,-724.88"/>
</a>
</g>
</g>
<!-- Node10 -->
<g id="Node000010" class="node">
<title>Node10</title>
<g id="a_Node000010"><a xlink:href="../../d9/d6c/classBinApache.html#ad151c63555c4aa954d051c51e601512f" target="_top" xlink:title=" ">
<polygon fill="white" stroke="#666666" points="182.88,-1228.5 19.88,-1228.5 19.88,-1204 182.88,-1204 182.88,-1228.5"/>
<text text-anchor="middle" x="101.38" y="-1211.2" font-family="Helvetica,sans-Serif" font-size="14.00">BinApache\__construct</text>
</a>
</g>
</g>
<!-- Node5&#45;&gt;Node10 -->
<g id="edge8_Node000005_Node000010" class="edge">
<title>Node5&#45;&gt;Node10</title>
<g id="a_edge8_Node000005_Node000010"><a xlink:title=" ">
<path fill="none" stroke="#63b8ff" d="M316.53,-723.91C294.49,-821.21 211.49,-1185.69 202.75,-1194.25 197.14,-1199.74 190.5,-1204 183.34,-1207.28"/>
<polygon fill="#63b8ff" stroke="#63b8ff" points="319.93,-724.71 318.73,-714.19 313.11,-723.17 319.93,-724.71"/>
</a>
</g>
</g>
<!-- Node11 -->
<g id="Node000011" class="node">
<title>Node11</title>
<g id="a_Node000011"><a xlink:href="../../da/d23/classBinFilezilla.html#ac14fbb45ee0e664fe93a00a0699194b4" target="_top" xlink:title=" ">
<polygon fill="white" stroke="#666666" points="181.75,-1185.5 21,-1185.5 21,-1161 181.75,-1161 181.75,-1185.5"/>
<text text-anchor="middle" x="101.38" y="-1168.2" font-family="Helvetica,sans-Serif" font-size="14.00">BinFilezilla\__construct</text>
</a>
</g>
</g>
<!-- Node5&#45;&gt;Node11 -->
<g id="edge9_Node000005_Node000011" class="edge">
<title>Node5&#45;&gt;Node11</title>
<g id="a_edge9_Node000005_Node000011"><a xlink:title=" ">
<path fill="none" stroke="#63b8ff" d="M317.13,-723.91C299.16,-812.42 234.76,-1120.58 202.75,-1151.25 196.83,-1156.93 189.79,-1161.28 182.23,-1164.59"/>
<polygon fill="#63b8ff" stroke="#63b8ff" points="320.54,-724.69 319.09,-714.2 313.68,-723.31 320.54,-724.69"/>
</a>
</g>
</g>
<!-- Node12 -->
<g id="Node000012" class="node">
<title>Node12</title>
<g id="a_Node000012"><a xlink:href="../../db/df2/classBinMailhog.html#aa5a006326ba4bee2ab96ddcc5a55fcbe" target="_top" xlink:title=" ">
<polygon fill="white" stroke="#666666" points="182.88,-1142.5 19.88,-1142.5 19.88,-1118 182.88,-1118 182.88,-1142.5"/>
<text text-anchor="middle" x="101.38" y="-1125.2" font-family="Helvetica,sans-Serif" font-size="14.00">BinMailhog\__construct</text>
</a>
</g>
</g>
<!-- Node5&#45;&gt;Node12 -->
<g id="edge10_Node000005_Node000012" class="edge">
<title>Node5&#45;&gt;Node12</title>
<g id="a_edge10_Node000005_Node000012"><a xlink:title=" ">
<path fill="none" stroke="#63b8ff" d="M318.15,-724.13C305.34,-803.13 260.72,-1054.11 202.75,-1108.25 197.01,-1113.61 190.28,-1117.77 183.07,-1121"/>
<polygon fill="#63b8ff" stroke="#63b8ff" points="321.57,-724.9 319.69,-714.48 314.66,-723.8 321.57,-724.9"/>
</a>
</g>
</g>
<!-- Node13 -->
<g id="Node000013" class="node">
<title>Node13</title>
<g id="a_Node000013"><a xlink:href="../../d9/ddd/classBinMailpit.html#a82f1643d6bb2a9fcdf6e064d76017ebb" target="_top" xlink:title=" ">
<polygon fill="white" stroke="#666666" points="178.38,-153.5 24.38,-153.5 24.38,-129 178.38,-129 178.38,-153.5"/>
<text text-anchor="middle" x="101.38" y="-136.2" font-family="Helvetica,sans-Serif" font-size="14.00">BinMailpit\__construct</text>
</a>
</g>
</g>
<!-- Node5&#45;&gt;Node13 -->
<g id="edge11_Node000005_Node000013" class="edge">
<title>Node5&#45;&gt;Node13</title>
<g id="a_edge11_Node000005_Node000013"><a xlink:title=" ">
<path fill="none" stroke="#63b8ff" d="M319.92,-676.26C311.76,-581.86 277.25,-237.56 202.75,-163.25 195.99,-156.51 187.68,-151.63 178.75,-148.12"/>
<polygon fill="#63b8ff" stroke="#63b8ff" points="316.43,-676.46 320.76,-686.13 323.4,-675.87 316.43,-676.46"/>
</a>
</g>
</g>
<!-- Node14 -->
<g id="Node000014" class="node">
<title>Node14</title>
<g id="a_Node000014"><a xlink:href="../../d4/d8f/classBinMariadb.html#a556e8ccea62d307894e335d1b332850d" target="_top" xlink:title=" ">
<polygon fill="white" stroke="#666666" points="183.62,-110.5 19.12,-110.5 19.12,-86 183.62,-86 183.62,-110.5"/>
<text text-anchor="middle" x="101.38" y="-93.2" font-family="Helvetica,sans-Serif" font-size="14.00">BinMariadb\__construct</text>
</a>
</g>
</g>
<!-- Node5&#45;&gt;Node14 -->
<g id="edge12_Node000005_Node000014" class="edge">
<title>Node5&#45;&gt;Node14</title>
<g id="a_edge12_Node000005_Node000014"><a xlink:title=" ">
<path fill="none" stroke="#63b8ff" d="M320.35,-676.28C313.56,-577.24 282.82,-201.38 202.75,-120.25 197.36,-114.79 190.95,-110.54 184.01,-107.26"/>
<polygon fill="#63b8ff" stroke="#63b8ff" points="316.85,-676.4 321.01,-686.15 323.84,-675.94 316.85,-676.4"/>
</a>
</g>
</g>
<!-- Node15 -->
<g id="Node000015" class="node">
<title>Node15</title>
<g id="a_Node000015"><a xlink:href="../../da/d10/classBinMemcached.html#ae499cddf960db523f908daf1f519f4ae" target="_top" xlink:title=" ">
<polygon fill="white" stroke="#666666" points="197.5,-67.5 5.25,-67.5 5.25,-43 197.5,-43 197.5,-67.5"/>
<text text-anchor="middle" x="101.38" y="-50.2" font-family="Helvetica,sans-Serif" font-size="14.00">BinMemcached\__construct</text>
</a>
</g>
</g>
<!-- Node5&#45;&gt;Node15 -->
<g id="edge13_Node000005_Node000015" class="edge">
<title>Node5&#45;&gt;Node15</title>
<g id="a_edge13_Node000005_Node000015"><a xlink:title=" ">
<path fill="none" stroke="#63b8ff" d="M320.71,-676.18C315.21,-572.49 288.38,-165.21 202.75,-77.25 199.14,-73.54 195.06,-70.39 190.67,-67.72"/>
<polygon fill="#63b8ff" stroke="#63b8ff" points="317.21,-676.2 321.22,-686.01 324.2,-675.85 317.21,-676.2"/>
</a>
</g>
</g>
<!-- Node16 -->
<g id="Node000016" class="node">
<title>Node16</title>
<g id="a_Node000016"><a xlink:href="../../d6/d88/classBinMysql.html#a29b889b336a3ffb648e4aaa7083812f1" target="_top" xlink:title=" ">
<polygon fill="white" stroke="#666666" points="176.88,-24.5 25.88,-24.5 25.88,0 176.88,0 176.88,-24.5"/>
<text text-anchor="middle" x="101.38" y="-7.2" font-family="Helvetica,sans-Serif" font-size="14.00">BinMysql\__construct</text>
</a>
</g>
</g>
<!-- Node5&#45;&gt;Node16 -->
<g id="edge14_Node000005_Node000016" class="edge">
<title>Node5&#45;&gt;Node16</title>
<g id="a_edge14_Node000005_Node000016"><a xlink:title=" ">
<path fill="none" stroke="#63b8ff" d="M321.04,-676.28C316.78,-568.4 294.01,-129.12 202.75,-34.25 195.7,-26.92 186.81,-21.77 177.26,-18.18"/>
<polygon fill="#63b8ff" stroke="#63b8ff" points="317.54,-676.37 321.41,-686.23 324.54,-676.11 317.54,-676.37"/>
</a>
</g>
</g>
<!-- Node17 -->
<g id="Node000017" class="node">
<title>Node17</title>
<g id="a_Node000017"><a xlink:href="../../d8/d9c/classBinNodejs.html#a6b318e5149cf52b3a6bdaca425d162f0" target="_top" xlink:title=" ">
<polygon fill="white" stroke="#666666" points="181,-1056.5 21.75,-1056.5 21.75,-1032 181,-1032 181,-1056.5"/>
<text text-anchor="middle" x="101.38" y="-1039.2" font-family="Helvetica,sans-Serif" font-size="14.00">BinNodejs\__construct</text>
</a>
</g>
</g>
<!-- Node5&#45;&gt;Node17 -->
<g id="edge15_Node000005_Node000017" class="edge">
<title>Node5&#45;&gt;Node17</title>
<g id="a_edge15_Node000005_Node000017"><a xlink:title=" ">
<path fill="none" stroke="#63b8ff" d="M320.54,-724.01C315.85,-783.92 294.89,-942.07 202.75,-1022.25 196.49,-1027.7 189.2,-1031.89 181.45,-1035.1"/>
<polygon fill="#63b8ff" stroke="#63b8ff" points="324.02,-724.51 321.22,-714.29 317.04,-724.03 324.02,-724.51"/>
</a>
</g>
</g>
<!-- Node18 -->
<g id="Node000018" class="node">
<title>Node18</title>
<g id="a_Node000018"><a xlink:href="../../dc/db3/classBinPhp.html#a9cf4dc2fe94f048849732fde504031b8" target="_top" xlink:title=" ">
<polygon fill="white" stroke="#666666" points="171.25,-1013.5 31.5,-1013.5 31.5,-989 171.25,-989 171.25,-1013.5"/>
<text text-anchor="middle" x="101.38" y="-996.2" font-family="Helvetica,sans-Serif" font-size="14.00">BinPhp\__construct</text>
</a>
</g>
</g>
<!-- Node5&#45;&gt;Node18 -->
<g id="edge16_Node000005_Node000018" class="edge">
<title>Node5&#45;&gt;Node18</title>
<g id="a_edge16_Node000005_Node000018"><a xlink:title=" ">
<path fill="none" stroke="#63b8ff" d="M319.02,-724.12C311.19,-778.44 284.24,-911.79 202.75,-979.25 193.82,-986.64 182.95,-991.7 171.71,-995.13"/>
<polygon fill="#63b8ff" stroke="#63b8ff" points="322.46,-724.81 320.31,-714.43 315.52,-723.88 322.46,-724.81"/>
</a>
</g>
</g>
<!-- Node19 -->
<g id="Node000019" class="node">
<title>Node19</title>
<g id="a_Node000019"><a xlink:href="../../dc/db9/classBinPostgresql.html#a620692613a6f9a4fe40eee7340eec915" target="_top" xlink:title=" ">
<polygon fill="white" stroke="#666666" points="193,-970.5 9.75,-970.5 9.75,-946 193,-946 193,-970.5"/>
<text text-anchor="middle" x="101.38" y="-953.2" font-family="Helvetica,sans-Serif" font-size="14.00">BinPostgresql\__construct</text>
</a>
</g>
</g>
<!-- Node5&#45;&gt;Node19 -->
<g id="edge17_Node000005_Node000019" class="edge">
<title>Node5&#45;&gt;Node19</title>
<g id="a_edge17_Node000005_Node000019"><a xlink:title=" ">
<path fill="none" stroke="#63b8ff" d="M317.02,-724.02C305.88,-772.14 273.82,-881.14 202.75,-936.25 197.96,-939.97 192.67,-943.08 187.09,-945.7"/>
<polygon fill="#63b8ff" stroke="#63b8ff" points="320.4,-724.91 319.13,-714.4 313.57,-723.41 320.4,-724.91"/>
</a>
</g>
</g>
<!-- Node20 -->
<g id="Node000020" class="node">
<title>Node20</title>
<g id="a_Node000020"><a xlink:href="../../de/d54/classBins.html#af1b1018d56d89d699f9099f9bb79b056" target="_top" xlink:title=" ">
<polygon fill="white" stroke="#666666" points="162.25,-927.5 40.5,-927.5 40.5,-903 162.25,-903 162.25,-927.5"/>
<text text-anchor="middle" x="101.38" y="-910.2" font-family="Helvetica,sans-Serif" font-size="14.00">Bins\__construct</text>
</a>
</g>
</g>
<!-- Node5&#45;&gt;Node20 -->
<g id="edge18_Node000005_Node000020" class="edge">
<title>Node5&#45;&gt;Node20</title>
<g id="a_edge18_Node000005_Node000020"><a xlink:title=" ">
<path fill="none" stroke="#63b8ff" d="M314.42,-723.35C299.92,-764.42 263.85,-849.93 202.75,-893.25 191.04,-901.56 176.76,-906.81 162.7,-910.12"/>
<polygon fill="#63b8ff" stroke="#63b8ff" points="317.7,-724.59 317.6,-714 311.07,-722.34 317.7,-724.59"/>
</a>
</g>
</g>
<!-- Node21 -->
<g id="Node000021" class="node">
<title>Node21</title>
<g id="a_Node000021"><a xlink:href="../../d8/ddb/classBinXlight.html#a7d1fe161525c9b467d8966faa5bf3c1e" target="_top" xlink:title=" ">
<polygon fill="white" stroke="#666666" points="176.12,-884.5 26.62,-884.5 26.62,-860 176.12,-860 176.12,-884.5"/>
<text text-anchor="middle" x="101.38" y="-867.2" font-family="Helvetica,sans-Serif" font-size="14.00">BinXlight\__construct</text>
</a>
</g>
</g>
<!-- Node5&#45;&gt;Node21 -->
<g id="edge19_Node000005_Node000021" class="edge">
<title>Node5&#45;&gt;Node21</title>
<g id="a_edge19_Node000005_Node000021"><a xlink:title=" ">
<path fill="none" stroke="#63b8ff" d="M310.49,-722.86C292.43,-756.27 253.96,-818.31 202.75,-850.25 194.73,-855.25 185.72,-859.13 176.49,-862.13"/>
<polygon fill="#63b8ff" stroke="#63b8ff" points="313.56,-724.53 315.11,-714.05 307.37,-721.28 313.56,-724.53"/>
</a>
</g>
</g>
<!-- Node22 -->
<g id="Node000022" class="node">
<title>Node22</title>
<g id="a_Node000022"><a xlink:href="../../d4/ddb/classHomepage.html#aeb71d82142befc2da1a0447fbd792301" target="_top" xlink:title=" ">
<polygon fill="white" stroke="#666666" points="183.62,-841.5 19.12,-841.5 19.12,-817 183.62,-817 183.62,-841.5"/>
<text text-anchor="middle" x="101.38" y="-824.2" font-family="Helvetica,sans-Serif" font-size="14.00">Homepage\__construct</text>
</a>
</g>
</g>
<!-- Node5&#45;&gt;Node22 -->
<g id="edge20_Node000005_Node000022" class="edge">
<title>Node5&#45;&gt;Node22</title>
<g id="a_edge20_Node000005_Node000022"><a xlink:title=" ">
<path fill="none" stroke="#63b8ff" d="M304.57,-721.34C283.25,-745.88 244.65,-785.77 202.75,-807.25 195.61,-810.91 187.87,-813.97 179.98,-816.52"/>
<polygon fill="#63b8ff" stroke="#63b8ff" points="307.08,-723.79 310.89,-713.91 301.75,-719.26 307.08,-723.79"/>
</a>
</g>
</g>
<!-- Node23 -->
<g id="Node000023" class="node">
<title>Node23</title>
<g id="a_Node000023"><a xlink:href="../../d3/d93/classNssm.html#a293131d5ba622f4dbb14b22b4701a03d" target="_top" xlink:title=" ">
<polygon fill="white" stroke="#666666" points="166.75,-798.5 36,-798.5 36,-774 166.75,-774 166.75,-798.5"/>
<text text-anchor="middle" x="101.38" y="-781.2" font-family="Helvetica,sans-Serif" font-size="14.00">Nssm\__construct</text>
</a>
</g>
</g>
<!-- Node5&#45;&gt;Node23 -->
<g id="edge21_Node000005_Node000023" class="edge">
<title>Node5&#45;&gt;Node23</title>
<g id="a_edge21_Node000005_Node000023"><a xlink:title=" ">
<path fill="none" stroke="#63b8ff" d="M292.77,-718.86C269.28,-733.12 234.97,-752.33 202.75,-764.25 191.46,-768.43 179.14,-771.93 167.13,-774.83"/>
<polygon fill="#63b8ff" stroke="#63b8ff" points="294.48,-721.91 301.15,-713.68 290.8,-715.96 294.48,-721.91"/>
</a>
</g>
</g>
<!-- Node24 -->
<g id="Node000024" class="node">
<title>Node24</title>
<g id="a_Node000024"><a xlink:href="../../db/d0d/classRegistry.html#a8692ca76b3f6d20e0233fdbdfa66f846" target="_top" xlink:title=" ">
<polygon fill="white" stroke="#666666" points="174.62,-755.5 28.12,-755.5 28.12,-731 174.62,-731 174.62,-755.5"/>
<text text-anchor="middle" x="101.38" y="-738.2" font-family="Helvetica,sans-Serif" font-size="14.00">Registry\__construct</text>
</a>
</g>
</g>
<!-- Node5&#45;&gt;Node24 -->
<g id="edge22_Node000005_Node000024" class="edge">
<title>Node5&#45;&gt;Node24</title>
<g id="a_edge22_Node000005_Node000024"><a xlink:title=" ">
<path fill="none" stroke="#63b8ff" d="M254.46,-713.46C226.77,-718.88 194.85,-725.13 167.42,-730.51"/>
<polygon fill="#63b8ff" stroke="#63b8ff" points="255.01,-716.92 264.15,-711.56 253.66,-710.05 255.01,-716.92"/>
</a>
</g>
</g>
<!-- Node25 -->
<g id="Node000025" class="node">
<title>Node25</title>
<g id="a_Node000025"><a xlink:href="../../d1/d56/classSplash.html#a06caa65a6f8f44efc24bb1f5ffc2ddd1" target="_top" xlink:title=" ">
<polygon fill="white" stroke="#666666" points="170.12,-712.5 32.62,-712.5 32.62,-688 170.12,-688 170.12,-712.5"/>
<text text-anchor="middle" x="101.38" y="-695.2" font-family="Helvetica,sans-Serif" font-size="14.00">Splash\__construct</text>
</a>
</g>
</g>
<!-- Node5&#45;&gt;Node25 -->
<g id="edge23_Node000005_Node000025" class="edge">
<title>Node5&#45;&gt;Node25</title>
<g id="a_edge23_Node000005_Node000025"><a xlink:title=" ">
<path fill="none" stroke="#63b8ff" d="M254.13,-700.25C227.59,-700.25 197.2,-700.25 170.61,-700.25"/>
<polygon fill="#63b8ff" stroke="#63b8ff" points="254.12,-703.75 264.12,-700.25 254.12,-696.75 254.12,-703.75"/>
</a>
</g>
</g>
<!-- Node26 -->
<g id="Node000026" class="node">
<title>Node26</title>
<g id="a_Node000026"><a xlink:href="../../d7/d6f/classToolComposer.html#ac5b4effc37789a264dd39fe60a86fe1f" target="_top" xlink:title=" ">
<polygon fill="white" stroke="#666666" points="196.38,-669.5 6.38,-669.5 6.38,-645 196.38,-645 196.38,-669.5"/>
<text text-anchor="middle" x="101.38" y="-652.2" font-family="Helvetica,sans-Serif" font-size="14.00">ToolComposer\__construct</text>
</a>
</g>
</g>
<!-- Node5&#45;&gt;Node26 -->
<g id="edge24_Node000005_Node000026" class="edge">
<title>Node5&#45;&gt;Node26</title>
<g id="a_edge24_Node000005_Node000026"><a xlink:title=" ">
<path fill="none" stroke="#63b8ff" d="M254.46,-687.04C226.77,-681.62 194.85,-675.37 167.42,-669.99"/>
<polygon fill="#63b8ff" stroke="#63b8ff" points="253.66,-690.45 264.15,-688.94 255.01,-683.58 253.66,-690.45"/>
</a>
</g>
</g>
<!-- Node27 -->
<g id="Node000027" class="node">
<title>Node27</title>
<g id="a_Node000027"><a xlink:href="../../d6/d0c/classToolConsoleZ.html#afbdd86039bed79d20d190ab12ffde7a6" target="_top" xlink:title=" ">
<polygon fill="white" stroke="#666666" points="193.75,-626.5 9,-626.5 9,-602 193.75,-602 193.75,-626.5"/>
<text text-anchor="middle" x="101.38" y="-609.2" font-family="Helvetica,sans-Serif" font-size="14.00">ToolConsoleZ\__construct</text>
</a>
</g>
</g>
<!-- Node5&#45;&gt;Node27 -->
<g id="edge25_Node000005_Node000027" class="edge">
<title>Node5&#45;&gt;Node27</title>
<g id="a_edge25_Node000005_Node000027"><a xlink:title=" ">
<path fill="none" stroke="#63b8ff" d="M292.77,-681.64C269.28,-667.38 234.97,-648.17 202.75,-636.25 193.13,-632.69 182.77,-629.62 172.48,-627"/>
<polygon fill="#63b8ff" stroke="#63b8ff" points="290.8,-684.54 301.15,-686.82 294.48,-678.59 290.8,-684.54"/>
</a>
</g>
</g>
<!-- Node28 -->
<g id="Node000028" class="node">
<title>Node28</title>
<g id="a_Node000028"><a xlink:href="../../d3/df9/classToolGhostscript.html#aeca0ac85e5332f874450f38eb08c5dc9" target="_top" xlink:title=" ">
<polygon fill="white" stroke="#666666" points="199,-583.5 3.75,-583.5 3.75,-559 199,-559 199,-583.5"/>
<text text-anchor="middle" x="101.38" y="-566.2" font-family="Helvetica,sans-Serif" font-size="14.00">ToolGhostscript\__construct</text>
</a>
</g>
</g>
<!-- Node5&#45;&gt;Node28 -->
<g id="edge26_Node000005_Node000028" class="edge">
<title>Node5&#45;&gt;Node28</title>
<g id="a_edge26_Node000005_Node000028"><a xlink:title=" ">
<path fill="none" stroke="#63b8ff" d="M304.57,-679.16C283.25,-654.62 244.65,-614.73 202.75,-593.25 195.61,-589.59 187.87,-586.53 179.98,-583.98"/>
<polygon fill="#63b8ff" stroke="#63b8ff" points="301.75,-681.24 310.89,-686.59 307.08,-676.71 301.75,-681.24"/>
</a>
</g>
</g>
<!-- Node29 -->
<g id="Node000029" class="node">
<title>Node29</title>
<g id="a_Node000029"><a xlink:href="../../d3/dc0/classToolGit.html#af65324d2b48326eaa85ead71a7db6c46" target="_top" xlink:title=" ">
<polygon fill="white" stroke="#666666" points="171.62,-540.5 31.12,-540.5 31.12,-516 171.62,-516 171.62,-540.5"/>
<text text-anchor="middle" x="101.38" y="-523.2" font-family="Helvetica,sans-Serif" font-size="14.00">ToolGit\__construct</text>
</a>
</g>
</g>
<!-- Node5&#45;&gt;Node29 -->
<g id="edge27_Node000005_Node000029" class="edge">
<title>Node5&#45;&gt;Node29</title>
<g id="a_edge27_Node000005_Node000029"><a xlink:title=" ">
<path fill="none" stroke="#63b8ff" d="M310.49,-677.64C292.43,-644.23 253.96,-582.19 202.75,-550.25 193.44,-544.44 182.81,-540.16 172.03,-537"/>
<polygon fill="#63b8ff" stroke="#63b8ff" points="307.37,-679.22 315.11,-686.45 313.56,-675.97 307.37,-679.22"/>
</a>
</g>
</g>
<!-- Node30 -->
<g id="Node000030" class="node">
<title>Node30</title>
<g id="a_Node000030"><a xlink:href="../../dc/d8f/classToolNgrok.html#a9acd6610c7d5d80472f99f01e9bdf60b" target="_top" xlink:title=" ">
<polygon fill="white" stroke="#666666" points="181.38,-497.5 21.38,-497.5 21.38,-473 181.38,-473 181.38,-497.5"/>
<text text-anchor="middle" x="101.38" y="-480.2" font-family="Helvetica,sans-Serif" font-size="14.00">ToolNgrok\__construct</text>
</a>
</g>
</g>
<!-- Node5&#45;&gt;Node30 -->
<g id="edge28_Node000005_Node000030" class="edge">
<title>Node5&#45;&gt;Node30</title>
<g id="a_edge28_Node000005_Node000030"><a xlink:title=" ">
<path fill="none" stroke="#63b8ff" d="M314.42,-677.15C299.92,-636.08 263.85,-550.57 202.75,-507.25 196.35,-502.71 189.18,-499.08 181.7,-496.18"/>
<polygon fill="#63b8ff" stroke="#63b8ff" points="311.07,-678.16 317.6,-686.5 317.7,-675.91 311.07,-678.16"/>
</a>
</g>
</g>
<!-- Node31 -->
<g id="Node000031" class="node">
<title>Node31</title>
<g id="a_Node000031"><a xlink:href="../../d0/dd5/classToolPerl.html#aee7a98e6821492a0dc667c813c4f1fcf" target="_top" xlink:title=" ">
<polygon fill="white" stroke="#666666" points="175.38,-454.5 27.38,-454.5 27.38,-430 175.38,-430 175.38,-454.5"/>
<text text-anchor="middle" x="101.38" y="-437.2" font-family="Helvetica,sans-Serif" font-size="14.00">ToolPerl\__construct</text>
</a>
</g>
</g>
<!-- Node5&#45;&gt;Node31 -->
<g id="edge29_Node000005_Node000031" class="edge">
<title>Node5&#45;&gt;Node31</title>
<g id="a_edge29_Node000005_Node000031"><a xlink:title=" ">
<path fill="none" stroke="#63b8ff" d="M317.02,-676.48C305.88,-628.36 273.82,-519.36 202.75,-464.25 194.78,-458.07 185.45,-453.55 175.73,-450.26"/>
<polygon fill="#63b8ff" stroke="#63b8ff" points="313.57,-677.09 319.13,-686.1 320.4,-675.59 313.57,-677.09"/>
</a>
</g>
</g>
<!-- Node32 -->
<g id="Node000032" class="node">
<title>Node32</title>
<g id="a_Node000032"><a xlink:href="../../d4/d34/classToolPython.html#a04235e83f0ebd8b16cd0eebe8561d495" target="_top" xlink:title=" ">
<polygon fill="white" stroke="#666666" points="184.38,-411.5 18.38,-411.5 18.38,-387 184.38,-387 184.38,-411.5"/>
<text text-anchor="middle" x="101.38" y="-394.2" font-family="Helvetica,sans-Serif" font-size="14.00">ToolPython\__construct</text>
</a>
</g>
</g>
<!-- Node5&#45;&gt;Node32 -->
<g id="edge30_Node000005_Node000032" class="edge">
<title>Node5&#45;&gt;Node32</title>
<g id="a_edge30_Node000005_Node000032"><a xlink:title=" ">
<path fill="none" stroke="#63b8ff" d="M319.02,-676.38C311.19,-622.06 284.24,-488.71 202.75,-421.25 197.25,-416.7 191.02,-413.03 184.42,-410.09"/>
<polygon fill="#63b8ff" stroke="#63b8ff" points="315.52,-676.62 320.31,-686.07 322.46,-675.69 315.52,-676.62"/>
</a>
</g>
</g>
<!-- Node33 -->
<g id="Node000033" class="node">
<title>Node33</title>
<g id="a_Node000033"><a xlink:href="../../de/d39/classToolRuby.html#a3035496f2c7a72f97d692ec809599f4f" target="_top" xlink:title=" ">
<polygon fill="white" stroke="#666666" points="179.12,-368.5 23.62,-368.5 23.62,-344 179.12,-344 179.12,-368.5"/>
<text text-anchor="middle" x="101.38" y="-351.2" font-family="Helvetica,sans-Serif" font-size="14.00">ToolRuby\__construct</text>
</a>
</g>
</g>
<!-- Node5&#45;&gt;Node33 -->
<g id="edge31_Node000005_Node000033" class="edge">
<title>Node5&#45;&gt;Node33</title>
<g id="a_edge31_Node000005_Node000033"><a xlink:title=" ">
<path fill="none" stroke="#63b8ff" d="M320.54,-676.49C315.85,-616.58 294.89,-458.43 202.75,-378.25 195.95,-372.34 187.93,-367.9 179.44,-364.59"/>
<polygon fill="#63b8ff" stroke="#63b8ff" points="317.04,-676.47 321.22,-686.21 324.02,-675.99 317.04,-676.47"/>
</a>
</g>
</g>
<!-- Node34 -->
<g id="Node000034" class="node">
<title>Node34</title>
<g id="a_Node000034"><a xlink:href="../../df/d1b/classToolXdc.html#a9bdb243af760d32f93099c5c3a2a2f20" target="_top" xlink:title=" ">
<polygon fill="white" stroke="#666666" points="175.38,-325.5 27.38,-325.5 27.38,-301 175.38,-301 175.38,-325.5"/>
<text text-anchor="middle" x="101.38" y="-308.2" font-family="Helvetica,sans-Serif" font-size="14.00">ToolXdc\__construct</text>
</a>
</g>
</g>
<!-- Node5&#45;&gt;Node34 -->
<g id="edge32_Node000005_Node000034" class="edge">
<title>Node5&#45;&gt;Node34</title>
<g id="a_edge32_Node000005_Node000034"><a xlink:title=" ">
<path fill="none" stroke="#63b8ff" d="M321.72,-676.05C319.89,-610.49 305.38,-428.13 202.75,-335.25 195.08,-328.31 185.73,-323.38 175.86,-319.91"/>
<polygon fill="#63b8ff" stroke="#63b8ff" points="318.22,-676.1 321.9,-686.03 325.21,-675.97 318.22,-676.1"/>
</a>
</g>
</g>
<!-- Node35 -->
<g id="Node000035" class="node">
<title>Node35</title>
<g id="a_Node000035"><a xlink:href="../../d7/d8e/classToolYarn.html#ad822c8b683bc5820e51e6aca5b9be09a" target="_top" xlink:title=" ">
<polygon fill="white" stroke="#666666" points="176.88,-282.5 25.88,-282.5 25.88,-258 176.88,-258 176.88,-282.5"/>
<text text-anchor="middle" x="101.38" y="-265.2" font-family="Helvetica,sans-Serif" font-size="14.00">ToolYarn\__construct</text>
</a>
</g>
</g>
<!-- Node5&#45;&gt;Node35 -->
<g id="edge33_Node000005_Node000035" class="edge">
<title>Node5&#45;&gt;Node35</title>
<g id="a_edge33_Node000005_Node000035"><a xlink:title=" ">
<path fill="none" stroke="#63b8ff" d="M322.68,-676.55C323.67,-606.47 316.46,-398.44 202.75,-292.25 195.51,-285.49 186.7,-280.63 177.33,-277.16"/>
<polygon fill="#63b8ff" stroke="#63b8ff" points="319.19,-676.05 322.46,-686.12 326.19,-676.2 319.19,-676.05"/>
</a>
</g>
</g>
<!-- Node36 -->
<g id="Node000036" class="node">
<title>Node36</title>
<g id="a_Node000036"><a xlink:href="../../df/d28/classWin32Service.html#aa25c9c8861bfd2904d89886be3757b88" target="_top" xlink:title=" ">
<polygon fill="white" stroke="#666666" points="193,-239.5 9.75,-239.5 9.75,-215 193,-215 193,-239.5"/>
<text text-anchor="middle" x="101.38" y="-222.2" font-family="Helvetica,sans-Serif" font-size="14.00">Win32Service\__construct</text>
</a>
</g>
</g>
<!-- Node5&#45;&gt;Node36 -->
<g id="edge34_Node000005_Node000036" class="edge">
<title>Node5&#45;&gt;Node36</title>
<g id="a_edge34_Node000005_Node000036"><a xlink:title=" ">
<path fill="none" stroke="#63b8ff" d="M318.85,-676.38C307.71,-592.06 266.21,-310.07 202.75,-249.25 198.89,-245.55 194.55,-242.41 189.9,-239.76"/>
<polygon fill="#63b8ff" stroke="#63b8ff" points="315.35,-676.57 320.11,-686.04 322.29,-675.67 315.35,-676.57"/>
</a>
</g>
</g>
<!-- Node37 -->
<g id="Node000037" class="node">
<title>Node37</title>
<g id="a_Node000037"><a xlink:href="../../db/da5/classWinBinder.html#a38c16a4e3f8fb9fd1117f9494a9e1ab5" target="_top" xlink:title=" ">
<polygon fill="white" stroke="#666666" points="181.38,-196.5 21.38,-196.5 21.38,-172 181.38,-172 181.38,-196.5"/>
<text text-anchor="middle" x="101.38" y="-179.2" font-family="Helvetica,sans-Serif" font-size="14.00">WinBinder\__construct</text>
</a>
</g>
</g>
<!-- Node5&#45;&gt;Node37 -->
<g id="edge35_Node000005_Node000037" class="edge">
<title>Node5&#45;&gt;Node37</title>
<g id="a_edge35_Node000005_Node000037"><a xlink:title=" ">
<path fill="none" stroke="#63b8ff" d="M319.45,-676.47C309.87,-587.21 271.76,-273.83 202.75,-206.25 196.76,-200.38 189.59,-195.93 181.86,-192.57"/>
<polygon fill="#63b8ff" stroke="#63b8ff" points="315.95,-676.66 320.48,-686.24 322.91,-675.93 315.95,-676.66"/>
</a>
</g>
</g>
<!-- Node39 -->
<g id="Node000039" class="node">
<title>Node39</title>
<g id="a_Node000039"><a xlink:href="../../df/d54/classAppAdminer.html#a78eea9c2b9f4896e1b11938e08f66855" target="_top" xlink:title=" ">
<polygon fill="white" stroke="#666666" points="392.38,-1099.5 253.38,-1099.5 253.38,-1075 392.38,-1075 392.38,-1099.5"/>
<text text-anchor="middle" x="322.88" y="-1082.2" font-family="Helvetica,sans-Serif" font-size="14.00">AppAdminer\reload</text>
</a>
</g>
</g>
<!-- Node38&#45;&gt;Node39 -->
<g id="edge37_Node000038_Node000039" class="edge">
<title>Node38&#45;&gt;Node39</title>
<g id="a_edge37_Node000038_Node000039"><a xlink:title=" ">
<path fill="none" stroke="#63b8ff" d="M454.66,-1198.56C450.5,-1196.14 446.57,-1193.38 443,-1190.25 413.38,-1164.28 436.99,-1134.8 407,-1109.25 402.68,-1105.57 397.81,-1102.5 392.66,-1099.94"/>
<polygon fill="#63b8ff" stroke="#63b8ff" points="452.87,-1201.58 463.38,-1202.95 456.02,-1195.32 452.87,-1201.58"/>
</a>
</g>
</g>
<!-- Node40 -->
<g id="Node000040" class="node">
<title>Node40</title>
<g id="a_Node000040"><a xlink:href="../../dd/dec/classAppPhpmyadmin.html#a100d0bc0d133f40826cf601a52f591b7" target="_top" xlink:title=" ">
<polygon fill="white" stroke="#666666" points="407,-1357.5 238.75,-1357.5 238.75,-1333 407,-1333 407,-1357.5"/>
<text text-anchor="middle" x="322.88" y="-1340.2" font-family="Helvetica,sans-Serif" font-size="14.00">AppPhpmyadmin\reload</text>
</a>
</g>
</g>
<!-- Node38&#45;&gt;Node40 -->
<g id="edge39_Node000038_Node000040" class="edge">
<title>Node38&#45;&gt;Node40</title>
<g id="a_edge39_Node000038_Node000040"><a xlink:title=" ">
<path fill="none" stroke="#63b8ff" d="M512.29,-1237.38C489.68,-1261.63 449.37,-1300.9 407,-1323.25 400.13,-1326.87 392.63,-1329.93 385.02,-1332.5"/>
<polygon fill="#63b8ff" stroke="#63b8ff" points="514.86,-1239.75 519.03,-1230.01 509.7,-1235.03 514.86,-1239.75"/>
</a>
</g>
</g>
<!-- Node41 -->
<g id="Node000041" class="node">
<title>Node41</title>
<g id="a_Node000041"><a xlink:href="../../dc/d53/classAppPhppgadmin.html#a217fff6cf1ce911abce2774cf56e2740" target="_top" xlink:title=" ">
<polygon fill="white" stroke="#666666" points="405.88,-1314.5 239.88,-1314.5 239.88,-1290 405.88,-1290 405.88,-1314.5"/>
<text text-anchor="middle" x="322.88" y="-1297.2" font-family="Helvetica,sans-Serif" font-size="14.00">AppPhppgadmin\reload</text>
</a>
</g>
</g>
<!-- Node38&#45;&gt;Node41 -->
<g id="edge41_Node000038_Node000041" class="edge">
<title>Node38&#45;&gt;Node41</title>
<g id="a_edge41_Node000038_Node000041"><a xlink:title=" ">
<path fill="none" stroke="#63b8ff" d="M500.34,-1234.47C475.76,-1248.48 440.04,-1267.53 407,-1280.25 397.94,-1283.74 388.13,-1286.87 378.52,-1289.61"/>
<polygon fill="#63b8ff" stroke="#63b8ff" points="501.93,-1237.59 508.84,-1229.56 498.43,-1231.53 501.93,-1237.59"/>
</a>
</g>
</g>
<!-- Node42 -->
<g id="Node000042" class="node">
<title>Node42</title>
<g id="a_Node000042"><a xlink:href="../../dc/df4/classAppWebgrind.html#a8ee8fbac604912e4a5fa2e5b02a3feeb" target="_top" xlink:title=" ">
<polygon fill="#fff0f0" stroke="red" points="396.88,-1271.5 248.88,-1271.5 248.88,-1247 396.88,-1247 396.88,-1271.5"/>
<text text-anchor="middle" x="322.88" y="-1254.2" font-family="Helvetica,sans-Serif" font-size="14.00">AppWebgrind\reload</text>
</a>
</g>
</g>
<!-- Node38&#45;&gt;Node42 -->
<g id="edge43_Node000038_Node000042" class="edge">
<title>Node38&#45;&gt;Node42</title>
<g id="a_edge43_Node000038_Node000042"><a xlink:title=" ">
<path fill="none" stroke="#63b8ff" d="M458.51,-1231.3C434.52,-1236.28 408.07,-1241.77 385.02,-1246.56"/>
<polygon fill="#63b8ff" stroke="#63b8ff" points="459.13,-1234.74 468.21,-1229.28 457.71,-1227.89 459.13,-1234.74"/>
</a>
</g>
</g>
<!-- Node44 -->
<g id="Node000044" class="node">
<title>Node44</title>
<g id="a_Node000044"><a xlink:href="../../d9/d6c/classBinApache.html#a4d864d3fe536e9d57f5f186c06612f30" target="_top" xlink:title=" ">
<polygon fill="#fff0f0" stroke="red" points="387.12,-1228.5 258.62,-1228.5 258.62,-1204 387.12,-1204 387.12,-1228.5"/>
<text text-anchor="middle" x="322.88" y="-1211.2" font-family="Helvetica,sans-Serif" font-size="14.00">BinApache\reload</text>
</a>
</g>
</g>
<!-- Node38&#45;&gt;Node44 -->
<g id="edge45_Node000038_Node000044" class="edge">
<title>Node38&#45;&gt;Node44</title>
<g id="a_edge45_Node000038_Node000044"><a xlink:title=" ">
<path fill="none" stroke="#63b8ff" d="M450.04,-1216.25C429.21,-1216.25 407.1,-1216.25 387.31,-1216.25"/>
<polygon fill="#63b8ff" stroke="#63b8ff" points="449.94,-1219.75 459.94,-1216.25 449.94,-1212.75 449.94,-1219.75"/>
</a>
</g>
</g>
<!-- Node49 -->
<g id="Node000049" class="node">
<title>Node49</title>
<g id="a_Node000049"><a xlink:href="../../da/d23/classBinFilezilla.html#a7e5cd84bc614b51b2379d0a231ce11c6" target="_top" xlink:title=" ">
<polygon fill="#fff0f0" stroke="red" points="386,-1185.5 259.75,-1185.5 259.75,-1161 386,-1161 386,-1185.5"/>
<text text-anchor="middle" x="322.88" y="-1168.2" font-family="Helvetica,sans-Serif" font-size="14.00">BinFilezilla\reload</text>
</a>
</g>
</g>
<!-- Node38&#45;&gt;Node49 -->
<g id="edge47_Node000038_Node000049" class="edge">
<title>Node38&#45;&gt;Node49</title>
<g id="a_edge47_Node000038_Node000049"><a xlink:title=" ">
<path fill="none" stroke="#63b8ff" d="M458.51,-1201.2C434.52,-1196.22 408.07,-1190.73 385.02,-1185.94"/>
<polygon fill="#63b8ff" stroke="#63b8ff" points="457.71,-1204.61 468.21,-1203.22 459.13,-1197.76 457.71,-1204.61"/>
</a>
</g>
</g>
<!-- Node54 -->
<g id="Node000054" class="node">
<title>Node54</title>
<g id="a_Node000054"><a xlink:href="../../db/df2/classBinMailhog.html#a03964e6b09aefe8338a86fc5c1e58ec9" target="_top" xlink:title=" ">
<polygon fill="#fff0f0" stroke="red" points="387.12,-1142.5 258.62,-1142.5 258.62,-1118 387.12,-1118 387.12,-1142.5"/>
<text text-anchor="middle" x="322.88" y="-1125.2" font-family="Helvetica,sans-Serif" font-size="14.00">BinMailhog\reload</text>
</a>
</g>
</g>
<!-- Node38&#45;&gt;Node54 -->
<g id="edge49_Node000038_Node000054" class="edge">
<title>Node38&#45;&gt;Node54</title>
<g id="a_edge49_Node000038_Node000054"><a xlink:title=" ">
<path fill="none" stroke="#63b8ff" d="M461.89,-1199.7C455.29,-1196.99 448.88,-1193.86 443,-1190.25 423.16,-1178.09 427.01,-1164.12 407,-1152.25 400.84,-1148.59 394.06,-1145.53 387.12,-1142.98"/>
<polygon fill="#63b8ff" stroke="#63b8ff" points="460.34,-1202.85 470.93,-1203.09 462.8,-1196.3 460.34,-1202.85"/>
</a>
</g>
</g>
<!-- Node39&#45;&gt;Node6 -->
<g id="edge38_Node000039_Node000006" class="edge">
<title>Node39&#45;&gt;Node6</title>
<g id="a_edge38_Node000039_Node000006"><a xlink:title=" ">
<path fill="none" stroke="#63b8ff" d="M241.78,-1087.25C224.41,-1087.25 205.97,-1087.25 188.38,-1087.25"/>
<polygon fill="#63b8ff" stroke="#63b8ff" points="241.51,-1090.75 251.51,-1087.25 241.51,-1083.75 241.51,-1090.75"/>
</a>
</g>
</g>
<!-- Node40&#45;&gt;Node7 -->
<g id="edge40_Node000040_Node000007" class="edge">
<title>Node40&#45;&gt;Node7</title>
<g id="a_edge40_Node000040_Node000007"><a xlink:title=" ">
<path fill="none" stroke="#63b8ff" d="M226.82,-1345.25C218.95,-1345.25 210.97,-1345.25 203.06,-1345.25"/>
<polygon fill="#63b8ff" stroke="#63b8ff" points="226.75,-1348.75 236.75,-1345.25 226.75,-1341.75 226.75,-1348.75"/>
</a>
</g>
</g>
<!-- Node41&#45;&gt;Node8 -->
<g id="edge42_Node000041_Node000008" class="edge">
<title>Node41&#45;&gt;Node8</title>
<g id="a_edge42_Node000041_Node000008"><a xlink:title=" ">
<path fill="none" stroke="#63b8ff" d="M228.17,-1302.25C219.46,-1302.25 210.62,-1302.25 201.86,-1302.25"/>
<polygon fill="#63b8ff" stroke="#63b8ff" points="228,-1305.75 238,-1302.25 228,-1298.75 228,-1305.75"/>
</a>
</g>
</g>
<!-- Node42&#45;&gt;Node9 -->
<g id="edge44_Node000042_Node000009" class="edge">
<title>Node42&#45;&gt;Node9</title>
<g id="a_edge44_Node000042_Node000009"><a xlink:title=" ">
<path fill="none" stroke="#63b8ff" d="M237.03,-1259.25C222.56,-1259.25 207.49,-1259.25 192.88,-1259.25"/>
<polygon fill="#63b8ff" stroke="#63b8ff" points="236.97,-1262.75 246.97,-1259.25 236.97,-1255.75 236.97,-1262.75"/>
</a>
</g>
</g>
<!-- Node44&#45;&gt;Node10 -->
<g id="edge46_Node000044_Node000010" class="edge">
<title>Node44&#45;&gt;Node10</title>
<g id="a_edge46_Node000044_Node000010"><a xlink:title=" ">
<path fill="none" stroke="#63b8ff" d="M246.89,-1216.25C226.41,-1216.25 204.13,-1216.25 183.34,-1216.25"/>
<polygon fill="#63b8ff" stroke="#63b8ff" points="246.87,-1219.75 256.87,-1216.25 246.87,-1212.75 246.87,-1219.75"/>
</a>
</g>
</g>
<!-- Node49&#45;&gt;Node11 -->
<g id="edge48_Node000049_Node000011" class="edge">
<title>Node49&#45;&gt;Node11</title>
<g id="a_edge48_Node000049_Node000011"><a xlink:title=" ">
<path fill="none" stroke="#63b8ff" d="M248.03,-1173.25C226.77,-1173.25 203.5,-1173.25 181.92,-1173.25"/>
<polygon fill="#63b8ff" stroke="#63b8ff" points="247.76,-1176.75 257.76,-1173.25 247.76,-1169.75 247.76,-1176.75"/>
</a>
</g>
</g>
<!-- Node54&#45;&gt;Node12 -->
<g id="edge50_Node000054_Node000012" class="edge">
<title>Node54&#45;&gt;Node12</title>
<g id="a_edge50_Node000054_Node000012"><a xlink:title=" ">
<path fill="none" stroke="#63b8ff" d="M246.89,-1130.25C226.41,-1130.25 204.13,-1130.25 183.34,-1130.25"/>
<polygon fill="#63b8ff" stroke="#63b8ff" points="246.87,-1133.75 256.87,-1130.25 246.87,-1126.75 246.87,-1133.75"/>
</a>
</g>
</g>
</g>
</svg>
