<?xml version="1.0" encoding="UTF-8" standalone="no"?>
<!--
  - Copyright (c) 2021-2024 Bearsampp
  - License:  GNU General Public License version 3 or later; see LICENSE.txt
  - Author: Bear
  - Website: https://bearsampp.com
  - Github: https://github.com/Bearsampp
  -->

<!DOCTYPE svg PUBLIC "-//W3C//DTD SVG 1.1//EN"
 "http://www.w3.org/Graphics/SVG/1.1/DTD/svg11.dtd">
<!-- Generated by graphviz version 11.0.0 (20240428.1522)
 -->
<!-- Title: Util\logInitClass Pages: 1 -->
<svg width="360pt" height="1366pt"
 viewBox="0.00 0.00 360.25 1365.50" xmlns="http://www.w3.org/2000/svg" xmlns:xlink="http://www.w3.org/1999/xlink">
<g id="graph0" class="graph" transform="scale(1 1) rotate(0) translate(4 1361.5)">
<title>Util\logInitClass</title>
<!-- Node1 -->
<g id="Node000001" class="node">
<title>Node1</title>
<g id="a_Node000001"><a xlink:title=" ">
<polygon fill="#999999" stroke="#666666" points="352.25,-690.5 238.75,-690.5 238.75,-666 352.25,-666 352.25,-690.5"/>
<text text-anchor="middle" x="295.5" y="-673.2" font-family="Helvetica,sans-Serif" font-size="14.00">Util\logInitClass</text>
</a>
</g>
</g>
<!-- Node2 -->
<g id="Node000002" class="node">
<title>Node2</title>
<g id="a_Node000002"><a xlink:href="../../df/d54/classAppAdminer.html#a7463642ab7bb00cdf02097ce59489e1b" target="_top" xlink:title=" ">
<polygon fill="white" stroke="#666666" points="188.12,-1357.5 14.62,-1357.5 14.62,-1333 188.12,-1333 188.12,-1357.5"/>
<text text-anchor="middle" x="101.38" y="-1340.2" font-family="Helvetica,sans-Serif" font-size="14.00">AppAdminer\__construct</text>
</a>
</g>
</g>
<!-- Node1&#45;&gt;Node2 -->
<g id="edge1_Node000001_Node000002" class="edge">
<title>Node1&#45;&gt;Node2</title>
<g id="a_edge1_Node000001_Node000002"><a xlink:title=" ">
<path fill="none" stroke="#63b8ff" d="M294.6,-702.09C294.52,-807.5 288.8,-1230.54 202.75,-1323.25 198.62,-1327.7 193.82,-1331.35 188.6,-1334.34"/>
<polygon fill="#63b8ff" stroke="#63b8ff" points="298.1,-702.37 294.58,-692.37 291.1,-702.37 298.1,-702.37"/>
</a>
</g>
</g>
<!-- Node3 -->
<g id="Node000003" class="node">
<title>Node3</title>
<g id="a_Node000003"><a xlink:href="../../dd/dec/classAppPhpmyadmin.html#a40805dbd949eb9da437ff1a292c18792" target="_top" xlink:title=" ">
<polygon fill="white" stroke="#666666" points="202.75,-1314.5 0,-1314.5 0,-1290 202.75,-1290 202.75,-1314.5"/>
<text text-anchor="middle" x="101.38" y="-1297.2" font-family="Helvetica,sans-Serif" font-size="14.00">AppPhpmyadmin\__construct</text>
</a>
</g>
</g>
<!-- Node1&#45;&gt;Node3 -->
<g id="edge2_Node000001_Node000003" class="edge">
<title>Node1&#45;&gt;Node3</title>
<g id="a_edge2_Node000001_Node000003"><a xlink:title=" ">
<path fill="none" stroke="#63b8ff" d="M294.33,-702.09C293.11,-803.09 283.18,-1194.45 202.75,-1280.25 199.33,-1283.89 195.46,-1287 191.28,-1289.65"/>
<polygon fill="#63b8ff" stroke="#63b8ff" points="297.83,-702.32 294.43,-692.29 290.83,-702.25 297.83,-702.32"/>
</a>
</g>
</g>
<!-- Node4 -->
<g id="Node000004" class="node">
<title>Node4</title>
<g id="a_Node000004"><a xlink:href="../../dc/d53/classAppPhppgadmin.html#a553f176d0dcdeec922c514148ecb044e" target="_top" xlink:title=" ">
<polygon fill="white" stroke="#666666" points="201.62,-1271.5 1.12,-1271.5 1.12,-1247 201.62,-1247 201.62,-1271.5"/>
<text text-anchor="middle" x="101.38" y="-1254.2" font-family="Helvetica,sans-Serif" font-size="14.00">AppPhppgadmin\__construct</text>
</a>
</g>
</g>
<!-- Node1&#45;&gt;Node4 -->
<g id="edge3_Node000001_Node000004" class="edge">
<title>Node1&#45;&gt;Node4</title>
<g id="a_edge3_Node000001_Node000004"><a xlink:title=" ">
<path fill="none" stroke="#63b8ff" d="M294.02,-702.22C291.58,-798.85 277.55,-1158.37 202.75,-1237.25 199.31,-1240.87 195.43,-1243.97 191.23,-1246.61"/>
<polygon fill="#63b8ff" stroke="#63b8ff" points="297.52,-702.43 294.25,-692.36 290.52,-702.27 297.52,-702.43"/>
</a>
</g>
</g>
<!-- Node5 -->
<g id="Node000005" class="node">
<title>Node5</title>
<g id="a_Node000005"><a xlink:href="../../dc/df4/classAppWebgrind.html#aa05ddaec092d33bd75b24c724423783f" target="_top" xlink:title=" ">
<polygon fill="white" stroke="#666666" points="192.62,-1228.5 10.12,-1228.5 10.12,-1204 192.62,-1204 192.62,-1228.5"/>
<text text-anchor="middle" x="101.38" y="-1211.2" font-family="Helvetica,sans-Serif" font-size="14.00">AppWebgrind\__construct</text>
</a>
</g>
</g>
<!-- Node1&#45;&gt;Node5 -->
<g id="edge4_Node000001_Node000005" class="edge">
<title>Node1&#45;&gt;Node5</title>
<g id="a_edge4_Node000001_Node000005"><a xlink:title=" ">
<path fill="none" stroke="#63b8ff" d="M293.66,-702.13C289.96,-793.87 272,-1122.19 202.75,-1194.25 199.29,-1197.85 195.38,-1200.93 191.17,-1203.55"/>
<polygon fill="#63b8ff" stroke="#63b8ff" points="297.16,-702.44 294.04,-692.31 290.16,-702.17 297.16,-702.44"/>
</a>
</g>
</g>
<!-- Node6 -->
<g id="Node000006" class="node">
<title>Node6</title>
<g id="a_Node000006"><a xlink:href="../../d9/d6c/classBinApache.html#ad151c63555c4aa954d051c51e601512f" target="_top" xlink:title=" ">
<polygon fill="white" stroke="#666666" points="182.88,-1185.5 19.88,-1185.5 19.88,-1161 182.88,-1161 182.88,-1185.5"/>
<text text-anchor="middle" x="101.38" y="-1168.2" font-family="Helvetica,sans-Serif" font-size="14.00">BinApache\__construct</text>
</a>
</g>
</g>
<!-- Node1&#45;&gt;Node6 -->
<g id="edge5_Node000001_Node000006" class="edge">
<title>Node1&#45;&gt;Node6</title>
<g id="a_edge5_Node000001_Node000006"><a xlink:title=" ">
<path fill="none" stroke="#63b8ff" d="M293.25,-702.06C288.2,-788.77 266.45,-1085.99 202.75,-1151.25 197.14,-1156.99 190.4,-1161.4 183.11,-1164.76"/>
<polygon fill="#63b8ff" stroke="#63b8ff" points="296.74,-702.33 293.8,-692.15 289.75,-701.94 296.74,-702.33"/>
</a>
</g>
</g>
<!-- Node7 -->
<g id="Node000007" class="node">
<title>Node7</title>
<g id="a_Node000007"><a xlink:href="../../da/d23/classBinFilezilla.html#ac14fbb45ee0e664fe93a00a0699194b4" target="_top" xlink:title=" ">
<polygon fill="white" stroke="#666666" points="181.75,-1142.5 21,-1142.5 21,-1118 181.75,-1118 181.75,-1142.5"/>
<text text-anchor="middle" x="101.38" y="-1125.2" font-family="Helvetica,sans-Serif" font-size="14.00">BinFilezilla\__construct</text>
</a>
</g>
</g>
<!-- Node1&#45;&gt;Node7 -->
<g id="edge6_Node000001_Node000007" class="edge">
<title>Node1&#45;&gt;Node7</title>
<g id="a_edge6_Node000001_Node000007"><a xlink:title=" ">
<path fill="none" stroke="#63b8ff" d="M292.75,-701.99C286.27,-783.44 260.93,-1049.75 202.75,-1108.25 196.84,-1114.2 189.71,-1118.7 182.02,-1122.09"/>
<polygon fill="#63b8ff" stroke="#63b8ff" points="296.22,-702.51 293.5,-692.27 289.24,-701.97 296.22,-702.51"/>
</a>
</g>
</g>
<!-- Node8 -->
<g id="Node000008" class="node">
<title>Node8</title>
<g id="a_Node000008"><a xlink:href="../../db/df2/classBinMailhog.html#aa5a006326ba4bee2ab96ddcc5a55fcbe" target="_top" xlink:title=" ">
<polygon fill="white" stroke="#666666" points="182.88,-1099.5 19.88,-1099.5 19.88,-1075 182.88,-1075 182.88,-1099.5"/>
<text text-anchor="middle" x="101.38" y="-1082.2" font-family="Helvetica,sans-Serif" font-size="14.00">BinMailhog\__construct</text>
</a>
</g>
</g>
<!-- Node1&#45;&gt;Node8 -->
<g id="edge7_Node000001_Node000008" class="edge">
<title>Node1&#45;&gt;Node8</title>
<g id="a_edge7_Node000001_Node000008"><a xlink:title=" ">
<path fill="none" stroke="#63b8ff" d="M292.17,-701.81C284.17,-777.64 255.46,-1013.43 202.75,-1065.25 197.15,-1070.75 190.51,-1075.01 183.36,-1078.3"/>
<polygon fill="#63b8ff" stroke="#63b8ff" points="295.61,-702.51 293.15,-692.2 288.65,-701.79 295.61,-702.51"/>
</a>
</g>
</g>
<!-- Node9 -->
<g id="Node000009" class="node">
<title>Node9</title>
<g id="a_Node000009"><a xlink:href="../../d9/ddd/classBinMailpit.html#a82f1643d6bb2a9fcdf6e064d76017ebb" target="_top" xlink:title=" ">
<polygon fill="white" stroke="#666666" points="178.38,-1056.5 24.38,-1056.5 24.38,-1032 178.38,-1032 178.38,-1056.5"/>
<text text-anchor="middle" x="101.38" y="-1039.2" font-family="Helvetica,sans-Serif" font-size="14.00">BinMailpit\__construct</text>
</a>
</g>
</g>
<!-- Node1&#45;&gt;Node9 -->
<g id="edge8_Node000001_Node000009" class="edge">
<title>Node1&#45;&gt;Node9</title>
<g id="a_edge8_Node000001_Node000009"><a xlink:title=" ">
<path fill="none" stroke="#63b8ff" d="M291.4,-701.91C281.74,-772.11 249.95,-977.12 202.75,-1022.25 195.92,-1028.78 187.61,-1033.56 178.73,-1037.01"/>
<polygon fill="#63b8ff" stroke="#63b8ff" points="294.83,-702.67 292.7,-692.29 287.9,-701.73 294.83,-702.67"/>
</a>
</g>
</g>
<!-- Node10 -->
<g id="Node000010" class="node">
<title>Node10</title>
<g id="a_Node000010"><a xlink:href="../../d4/d8f/classBinMariadb.html#a556e8ccea62d307894e335d1b332850d" target="_top" xlink:title=" ">
<polygon fill="white" stroke="#666666" points="183.62,-1013.5 19.12,-1013.5 19.12,-989 183.62,-989 183.62,-1013.5"/>
<text text-anchor="middle" x="101.38" y="-996.2" font-family="Helvetica,sans-Serif" font-size="14.00">BinMariadb\__construct</text>
</a>
</g>
</g>
<!-- Node1&#45;&gt;Node10 -->
<g id="edge9_Node000001_Node000010" class="edge">
<title>Node1&#45;&gt;Node10</title>
<g id="a_edge9_Node000001_Node000010"><a xlink:title=" ">
<path fill="none" stroke="#63b8ff" d="M294.81,-702.22C294.15,-759.31 284.11,-904.16 202.75,-979.25 197.24,-984.33 190.84,-988.34 183.99,-991.49"/>
<polygon fill="#63b8ff" stroke="#63b8ff" points="298.31,-702.36 294.82,-692.35 291.31,-702.35 298.31,-702.36"/>
</a>
</g>
</g>
<!-- Node11 -->
<g id="Node000011" class="node">
<title>Node11</title>
<g id="a_Node000011"><a xlink:href="../../da/d10/classBinMemcached.html#ae499cddf960db523f908daf1f519f4ae" target="_top" xlink:title=" ">
<polygon fill="white" stroke="#666666" points="197.5,-970.5 5.25,-970.5 5.25,-946 197.5,-946 197.5,-970.5"/>
<text text-anchor="middle" x="101.38" y="-953.2" font-family="Helvetica,sans-Serif" font-size="14.00">BinMemcached\__construct</text>
</a>
</g>
</g>
<!-- Node1&#45;&gt;Node11 -->
<g id="edge10_Node000001_Node000011" class="edge">
<title>Node1&#45;&gt;Node11</title>
<g id="a_edge10_Node000001_Node000011"><a xlink:title=" ">
<path fill="none" stroke="#63b8ff" d="M293.39,-702.24C289.67,-753.46 273.44,-873.95 202.75,-936.25 198.6,-939.91 193.99,-943 189.08,-945.61"/>
<polygon fill="#63b8ff" stroke="#63b8ff" points="296.88,-702.49 294,-692.29 289.89,-702.06 296.88,-702.49"/>
</a>
</g>
</g>
<!-- Node12 -->
<g id="Node000012" class="node">
<title>Node12</title>
<g id="a_Node000012"><a xlink:href="../../d6/d88/classBinMysql.html#a29b889b336a3ffb648e4aaa7083812f1" target="_top" xlink:title=" ">
<polygon fill="white" stroke="#666666" points="176.88,-927.5 25.88,-927.5 25.88,-903 176.88,-903 176.88,-927.5"/>
<text text-anchor="middle" x="101.38" y="-910.2" font-family="Helvetica,sans-Serif" font-size="14.00">BinMysql\__construct</text>
</a>
</g>
</g>
<!-- Node1&#45;&gt;Node12 -->
<g id="edge11_Node000001_Node000012" class="edge">
<title>Node1&#45;&gt;Node12</title>
<g id="a_edge11_Node000001_Node000012"><a xlink:title=" ">
<path fill="none" stroke="#63b8ff" d="M291.51,-701.92C284.56,-746.6 263.04,-843.33 202.75,-893.25 195.26,-899.45 186.41,-904.01 177.12,-907.34"/>
<polygon fill="#63b8ff" stroke="#63b8ff" points="294.94,-702.68 292.89,-692.28 288.01,-701.68 294.94,-702.68"/>
</a>
</g>
</g>
<!-- Node13 -->
<g id="Node000013" class="node">
<title>Node13</title>
<g id="a_Node000013"><a xlink:href="../../d8/d9c/classBinNodejs.html#a6b318e5149cf52b3a6bdaca425d162f0" target="_top" xlink:title=" ">
<polygon fill="white" stroke="#666666" points="181,-884.5 21.75,-884.5 21.75,-860 181,-860 181,-884.5"/>
<text text-anchor="middle" x="101.38" y="-867.2" font-family="Helvetica,sans-Serif" font-size="14.00">BinNodejs\__construct</text>
</a>
</g>
</g>
<!-- Node1&#45;&gt;Node13 -->
<g id="edge12_Node000001_Node000013" class="edge">
<title>Node1&#45;&gt;Node13</title>
<g id="a_edge12_Node000001_Node000013"><a xlink:title=" ">
<path fill="none" stroke="#63b8ff" d="M288.91,-701.34C278.59,-738.76 252.9,-812.26 202.75,-850.25 196.35,-855.1 189.1,-858.92 181.49,-861.93"/>
<polygon fill="#63b8ff" stroke="#63b8ff" points="292.2,-702.58 291.34,-692.02 285.43,-700.81 292.2,-702.58"/>
</a>
</g>
</g>
<!-- Node14 -->
<g id="Node000014" class="node">
<title>Node14</title>
<g id="a_Node000014"><a xlink:href="../../dc/db3/classBinPhp.html#a9cf4dc2fe94f048849732fde504031b8" target="_top" xlink:title=" ">
<polygon fill="white" stroke="#666666" points="171.25,-841.5 31.5,-841.5 31.5,-817 171.25,-817 171.25,-841.5"/>
<text text-anchor="middle" x="101.38" y="-824.2" font-family="Helvetica,sans-Serif" font-size="14.00">BinPhp\__construct</text>
</a>
</g>
</g>
<!-- Node1&#45;&gt;Node14 -->
<g id="edge13_Node000001_Node000014" class="edge">
<title>Node1&#45;&gt;Node14</title>
<g id="a_edge13_Node000001_Node000014"><a xlink:title=" ">
<path fill="none" stroke="#63b8ff" d="M284.73,-701.01C270.91,-730.37 242.8,-780.77 202.75,-807.25 193.37,-813.45 182.53,-817.93 171.52,-821.16"/>
<polygon fill="#63b8ff" stroke="#63b8ff" points="287.75,-702.82 288.7,-692.27 281.38,-699.93 287.75,-702.82"/>
</a>
</g>
</g>
<!-- Node15 -->
<g id="Node000015" class="node">
<title>Node15</title>
<g id="a_Node000015"><a xlink:href="../../dc/db9/classBinPostgresql.html#a620692613a6f9a4fe40eee7340eec915" target="_top" xlink:title=" ">
<polygon fill="white" stroke="#666666" points="193,-798.5 9.75,-798.5 9.75,-774 193,-774 193,-798.5"/>
<text text-anchor="middle" x="101.38" y="-781.2" font-family="Helvetica,sans-Serif" font-size="14.00">BinPostgresql\__construct</text>
</a>
</g>
</g>
<!-- Node1&#45;&gt;Node15 -->
<g id="edge14_Node000001_Node000015" class="edge">
<title>Node1&#45;&gt;Node15</title>
<g id="a_edge14_Node000001_Node000015"><a xlink:title=" ">
<path fill="none" stroke="#63b8ff" d="M277.87,-699.35C261.06,-719.2 233.27,-748.19 202.75,-764.25 195.72,-767.95 188.11,-771.02 180.32,-773.58"/>
<polygon fill="#63b8ff" stroke="#63b8ff" points="280.38,-701.81 284.04,-691.87 274.98,-697.36 280.38,-701.81"/>
</a>
</g>
</g>
<!-- Node16 -->
<g id="Node000016" class="node">
<title>Node16</title>
<g id="a_Node000016"><a xlink:href="../../de/d54/classBins.html#af1b1018d56d89d699f9099f9bb79b056" target="_top" xlink:title=" ">
<polygon fill="white" stroke="#666666" points="162.25,-755.5 40.5,-755.5 40.5,-731 162.25,-731 162.25,-755.5"/>
<text text-anchor="middle" x="101.38" y="-738.2" font-family="Helvetica,sans-Serif" font-size="14.00">Bins\__construct</text>
</a>
</g>
</g>
<!-- Node1&#45;&gt;Node16 -->
<g id="edge15_Node000001_Node000016" class="edge">
<title>Node1&#45;&gt;Node16</title>
<g id="a_edge15_Node000001_Node000016"><a xlink:title=" ">
<path fill="none" stroke="#63b8ff" d="M261.29,-696.01C244.18,-704.58 222.75,-714.46 202.75,-721.25 189.99,-725.58 176.03,-729.26 162.68,-732.31"/>
<polygon fill="#63b8ff" stroke="#63b8ff" points="262.68,-699.23 269.99,-691.56 259.49,-692.99 262.68,-699.23"/>
</a>
</g>
</g>
<!-- Node17 -->
<g id="Node000017" class="node">
<title>Node17</title>
<g id="a_Node000017"><a xlink:href="../../d8/ddb/classBinXlight.html#a7d1fe161525c9b467d8966faa5bf3c1e" target="_top" xlink:title=" ">
<polygon fill="white" stroke="#666666" points="176.12,-712.5 26.62,-712.5 26.62,-688 176.12,-688 176.12,-712.5"/>
<text text-anchor="middle" x="101.38" y="-695.2" font-family="Helvetica,sans-Serif" font-size="14.00">BinXlight\__construct</text>
</a>
</g>
</g>
<!-- Node1&#45;&gt;Node17 -->
<g id="edge16_Node000001_Node000017" class="edge">
<title>Node1&#45;&gt;Node17</title>
<g id="a_edge16_Node000001_Node000017"><a xlink:title=" ">
<path fill="none" stroke="#63b8ff" d="M227.26,-685.95C210.82,-687.83 193.14,-689.86 176.41,-691.77"/>
<polygon fill="#63b8ff" stroke="#63b8ff" points="227.37,-689.46 236.91,-684.84 226.58,-682.51 227.37,-689.46"/>
</a>
</g>
</g>
<!-- Node18 -->
<g id="Node000018" class="node">
<title>Node18</title>
<g id="a_Node000018"><a xlink:href="../../d4/ddb/classHomepage.html#aeb71d82142befc2da1a0447fbd792301" target="_top" xlink:title=" ">
<polygon fill="white" stroke="#666666" points="183.62,-669.5 19.12,-669.5 19.12,-645 183.62,-645 183.62,-669.5"/>
<text text-anchor="middle" x="101.38" y="-652.2" font-family="Helvetica,sans-Serif" font-size="14.00">Homepage\__construct</text>
</a>
</g>
</g>
<!-- Node1&#45;&gt;Node18 -->
<g id="edge17_Node000001_Node000018" class="edge">
<title>Node1&#45;&gt;Node18</title>
<g id="a_edge17_Node000001_Node000018"><a xlink:title=" ">
<path fill="none" stroke="#63b8ff" d="M227.37,-670.91C213.33,-669.38 198.38,-667.74 183.88,-666.16"/>
<polygon fill="#63b8ff" stroke="#63b8ff" points="226.59,-674.35 236.91,-671.96 227.35,-667.39 226.59,-674.35"/>
</a>
</g>
</g>
<!-- Node19 -->
<g id="Node000019" class="node">
<title>Node19</title>
<g id="a_Node000019"><a xlink:href="../../d3/d93/classNssm.html#a293131d5ba622f4dbb14b22b4701a03d" target="_top" xlink:title=" ">
<polygon fill="white" stroke="#666666" points="166.75,-626.5 36,-626.5 36,-602 166.75,-602 166.75,-626.5"/>
<text text-anchor="middle" x="101.38" y="-609.2" font-family="Helvetica,sans-Serif" font-size="14.00">Nssm\__construct</text>
</a>
</g>
</g>
<!-- Node1&#45;&gt;Node19 -->
<g id="edge18_Node000001_Node000019" class="edge">
<title>Node1&#45;&gt;Node19</title>
<g id="a_edge18_Node000001_Node000019"><a xlink:title=" ">
<path fill="none" stroke="#63b8ff" d="M260.53,-660.59C243.53,-652.31 222.43,-642.83 202.75,-636.25 191.41,-632.46 179.14,-629.15 167.19,-626.32"/>
<polygon fill="#63b8ff" stroke="#63b8ff" points="258.67,-663.58 269.18,-664.89 261.79,-657.31 258.67,-663.58"/>
</a>
</g>
</g>
<!-- Node20 -->
<g id="Node000020" class="node">
<title>Node20</title>
<g id="a_Node000020"><a xlink:href="../../db/d0d/classRegistry.html#a8692ca76b3f6d20e0233fdbdfa66f846" target="_top" xlink:title=" ">
<polygon fill="white" stroke="#666666" points="174.62,-583.5 28.12,-583.5 28.12,-559 174.62,-559 174.62,-583.5"/>
<text text-anchor="middle" x="101.38" y="-566.2" font-family="Helvetica,sans-Serif" font-size="14.00">Registry\__construct</text>
</a>
</g>
</g>
<!-- Node1&#45;&gt;Node20 -->
<g id="edge19_Node000001_Node000020" class="edge">
<title>Node1&#45;&gt;Node20</title>
<g id="a_edge19_Node000001_Node000020"><a xlink:title=" ">
<path fill="none" stroke="#63b8ff" d="M277.54,-657.07C260.67,-637.47 232.99,-609.05 202.75,-593.25 194.13,-588.75 184.64,-585.16 175.02,-582.31"/>
<polygon fill="#63b8ff" stroke="#63b8ff" points="274.64,-659.06 283.74,-664.48 280,-654.56 274.64,-659.06"/>
</a>
</g>
</g>
<!-- Node21 -->
<g id="Node000021" class="node">
<title>Node21</title>
<g id="a_Node000021"><a xlink:href="../../d1/d56/classSplash.html#a06caa65a6f8f44efc24bb1f5ffc2ddd1" target="_top" xlink:title=" ">
<polygon fill="white" stroke="#666666" points="170.12,-540.5 32.62,-540.5 32.62,-516 170.12,-516 170.12,-540.5"/>
<text text-anchor="middle" x="101.38" y="-523.2" font-family="Helvetica,sans-Serif" font-size="14.00">Splash\__construct</text>
</a>
</g>
</g>
<!-- Node1&#45;&gt;Node21 -->
<g id="edge20_Node000001_Node000021" class="edge">
<title>Node1&#45;&gt;Node21</title>
<g id="a_edge20_Node000001_Node000021"><a xlink:title=" ">
<path fill="none" stroke="#63b8ff" d="M284.5,-655.27C270.56,-626.1 242.46,-576.4 202.75,-550.25 193.07,-543.87 181.83,-539.32 170.45,-536.07"/>
<polygon fill="#63b8ff" stroke="#63b8ff" points="281.31,-656.71 288.66,-664.33 287.67,-653.78 281.31,-656.71"/>
</a>
</g>
</g>
<!-- Node22 -->
<g id="Node000022" class="node">
<title>Node22</title>
<g id="a_Node000022"><a xlink:href="../../d7/d6f/classToolComposer.html#ac5b4effc37789a264dd39fe60a86fe1f" target="_top" xlink:title=" ">
<polygon fill="white" stroke="#666666" points="196.38,-497.5 6.38,-497.5 6.38,-473 196.38,-473 196.38,-497.5"/>
<text text-anchor="middle" x="101.38" y="-480.2" font-family="Helvetica,sans-Serif" font-size="14.00">ToolComposer\__construct</text>
</a>
</g>
</g>
<!-- Node1&#45;&gt;Node22 -->
<g id="edge21_Node000001_Node000022" class="edge">
<title>Node1&#45;&gt;Node22</title>
<g id="a_edge21_Node000001_Node000022"><a xlink:title=" ">
<path fill="none" stroke="#63b8ff" d="M288.71,-654.74C278.24,-617.38 252.47,-544.82 202.75,-507.25 197.91,-503.59 192.59,-500.52 186.99,-497.94"/>
<polygon fill="#63b8ff" stroke="#63b8ff" points="285.25,-655.32 291.2,-664.09 292.01,-653.53 285.25,-655.32"/>
</a>
</g>
</g>
<!-- Node23 -->
<g id="Node000023" class="node">
<title>Node23</title>
<g id="a_Node000023"><a xlink:href="../../d6/d0c/classToolConsoleZ.html#afbdd86039bed79d20d190ab12ffde7a6" target="_top" xlink:title=" ">
<polygon fill="white" stroke="#666666" points="193.75,-454.5 9,-454.5 9,-430 193.75,-430 193.75,-454.5"/>
<text text-anchor="middle" x="101.38" y="-437.2" font-family="Helvetica,sans-Serif" font-size="14.00">ToolConsoleZ\__construct</text>
</a>
</g>
</g>
<!-- Node1&#45;&gt;Node23 -->
<g id="edge22_Node000001_Node000023" class="edge">
<title>Node1&#45;&gt;Node23</title>
<g id="a_edge22_Node000001_Node000023"><a xlink:title=" ">
<path fill="none" stroke="#63b8ff" d="M291.43,-654.37C284.36,-609.76 262.7,-513.8 202.75,-464.25 198.35,-460.61 193.48,-457.54 188.33,-454.95"/>
<polygon fill="#63b8ff" stroke="#63b8ff" points="287.93,-654.62 292.83,-664.01 294.85,-653.61 287.93,-654.62"/>
</a>
</g>
</g>
<!-- Node24 -->
<g id="Node000024" class="node">
<title>Node24</title>
<g id="a_Node000024"><a xlink:href="../../d3/df9/classToolGhostscript.html#aeca0ac85e5332f874450f38eb08c5dc9" target="_top" xlink:title=" ">
<polygon fill="white" stroke="#666666" points="199,-411.5 3.75,-411.5 3.75,-387 199,-387 199,-411.5"/>
<text text-anchor="middle" x="101.38" y="-394.2" font-family="Helvetica,sans-Serif" font-size="14.00">ToolGhostscript\__construct</text>
</a>
</g>
</g>
<!-- Node1&#45;&gt;Node24 -->
<g id="edge23_Node000001_Node000024" class="edge">
<title>Node1&#45;&gt;Node24</title>
<g id="a_edge23_Node000001_Node000024"><a xlink:title=" ">
<path fill="none" stroke="#63b8ff" d="M293.36,-654.35C289.57,-603.32 273.23,-483.3 202.75,-421.25 198.6,-417.6 193.98,-414.5 189.07,-411.89"/>
<polygon fill="#63b8ff" stroke="#63b8ff" points="289.86,-654.49 293.98,-664.25 296.85,-654.05 289.86,-654.49"/>
</a>
</g>
</g>
<!-- Node25 -->
<g id="Node000025" class="node">
<title>Node25</title>
<g id="a_Node000025"><a xlink:href="../../d3/dc0/classToolGit.html#af65324d2b48326eaa85ead71a7db6c46" target="_top" xlink:title=" ">
<polygon fill="white" stroke="#666666" points="171.62,-368.5 31.12,-368.5 31.12,-344 171.62,-344 171.62,-368.5"/>
<text text-anchor="middle" x="101.38" y="-351.2" font-family="Helvetica,sans-Serif" font-size="14.00">ToolGit\__construct</text>
</a>
</g>
</g>
<!-- Node1&#45;&gt;Node25 -->
<g id="edge24_Node000001_Node000025" class="edge">
<title>Node1&#45;&gt;Node25</title>
<g id="a_edge24_Node000001_Node000025"><a xlink:title=" ">
<path fill="none" stroke="#63b8ff" d="M294.78,-654.36C294.07,-597.46 283.9,-453.08 202.75,-378.25 194.09,-370.27 183.23,-364.94 171.87,-361.43"/>
<polygon fill="#63b8ff" stroke="#63b8ff" points="291.28,-654.2 294.8,-664.19 298.28,-654.18 291.28,-654.2"/>
</a>
</g>
</g>
<!-- Node26 -->
<g id="Node000026" class="node">
<title>Node26</title>
<g id="a_Node000026"><a xlink:href="../../dc/d8f/classToolNgrok.html#a9acd6610c7d5d80472f99f01e9bdf60b" target="_top" xlink:title=" ">
<polygon fill="white" stroke="#666666" points="181.38,-325.5 21.38,-325.5 21.38,-301 181.38,-301 181.38,-325.5"/>
<text text-anchor="middle" x="101.38" y="-308.2" font-family="Helvetica,sans-Serif" font-size="14.00">ToolNgrok\__construct</text>
</a>
</g>
</g>
<!-- Node1&#45;&gt;Node26 -->
<g id="edge25_Node000001_Node000026" class="edge">
<title>Node1&#45;&gt;Node26</title>
<g id="a_edge25_Node000001_Node000026"><a xlink:title=" ">
<path fill="none" stroke="#63b8ff" d="M291.39,-654.66C281.7,-584.66 249.84,-380.24 202.75,-335.25 196.69,-329.46 189.47,-325.05 181.72,-321.72"/>
<polygon fill="#63b8ff" stroke="#63b8ff" points="287.88,-654.81 292.69,-664.25 294.82,-653.87 287.88,-654.81"/>
</a>
</g>
</g>
<!-- Node27 -->
<g id="Node000027" class="node">
<title>Node27</title>
<g id="a_Node000027"><a xlink:href="../../d0/dd5/classToolPerl.html#aee7a98e6821492a0dc667c813c4f1fcf" target="_top" xlink:title=" ">
<polygon fill="white" stroke="#666666" points="175.38,-282.5 27.38,-282.5 27.38,-258 175.38,-258 175.38,-282.5"/>
<text text-anchor="middle" x="101.38" y="-265.2" font-family="Helvetica,sans-Serif" font-size="14.00">ToolPerl\__construct</text>
</a>
</g>
</g>
<!-- Node1&#45;&gt;Node27 -->
<g id="edge26_Node000001_Node000027" class="edge">
<title>Node1&#45;&gt;Node27</title>
<g id="a_edge26_Node000001_Node000027"><a xlink:title=" ">
<path fill="none" stroke="#63b8ff" d="M292.16,-654.75C284.14,-579.11 255.34,-343.92 202.75,-292.25 195.24,-284.87 185.86,-279.73 175.87,-276.18"/>
<polygon fill="#63b8ff" stroke="#63b8ff" points="288.64,-654.74 293.15,-664.33 295.6,-654.02 288.64,-654.74"/>
</a>
</g>
</g>
<!-- Node28 -->
<g id="Node000028" class="node">
<title>Node28</title>
<g id="a_Node000028"><a xlink:href="../../d4/d34/classToolPython.html#a04235e83f0ebd8b16cd0eebe8561d495" target="_top" xlink:title=" ">
<polygon fill="white" stroke="#666666" points="184.38,-239.5 18.38,-239.5 18.38,-215 184.38,-215 184.38,-239.5"/>
<text text-anchor="middle" x="101.38" y="-222.2" font-family="Helvetica,sans-Serif" font-size="14.00">ToolPython\__construct</text>
</a>
</g>
</g>
<!-- Node1&#45;&gt;Node28 -->
<g id="edge27_Node000001_Node000028" class="edge">
<title>Node1&#45;&gt;Node28</title>
<g id="a_edge27_Node000001_Node000028"><a xlink:title=" ">
<path fill="none" stroke="#63b8ff" d="M292.72,-654.31C286.19,-572.75 260.75,-307.55 202.75,-249.25 197.47,-243.94 191.21,-239.78 184.45,-236.53"/>
<polygon fill="#63b8ff" stroke="#63b8ff" points="289.23,-654.56 293.5,-664.26 296.21,-654.02 289.23,-654.56"/>
</a>
</g>
</g>
<!-- Node29 -->
<g id="Node000029" class="node">
<title>Node29</title>
<g id="a_Node000029"><a xlink:href="../../de/d39/classToolRuby.html#a3035496f2c7a72f97d692ec809599f4f" target="_top" xlink:title=" ">
<polygon fill="white" stroke="#666666" points="179.12,-196.5 23.62,-196.5 23.62,-172 179.12,-172 179.12,-196.5"/>
<text text-anchor="middle" x="101.38" y="-179.2" font-family="Helvetica,sans-Serif" font-size="14.00">ToolRuby\__construct</text>
</a>
</g>
</g>
<!-- Node1&#45;&gt;Node29 -->
<g id="edge28_Node000001_Node000029" class="edge">
<title>Node1&#45;&gt;Node29</title>
<g id="a_edge28_Node000001_Node000029"><a xlink:title=" ">
<path fill="none" stroke="#63b8ff" d="M293.24,-654.49C288.16,-567.97 266.33,-271.36 202.75,-206.25 196.14,-199.49 187.97,-194.58 179.16,-191.05"/>
<polygon fill="#63b8ff" stroke="#63b8ff" points="289.74,-654.59 293.8,-664.38 296.73,-654.2 289.74,-654.59"/>
</a>
</g>
</g>
<!-- Node30 -->
<g id="Node000030" class="node">
<title>Node30</title>
<g id="a_Node000030"><a xlink:href="../../df/d1b/classToolXdc.html#a9bdb243af760d32f93099c5c3a2a2f20" target="_top" xlink:title=" ">
<polygon fill="white" stroke="#666666" points="175.38,-153.5 27.38,-153.5 27.38,-129 175.38,-129 175.38,-153.5"/>
<text text-anchor="middle" x="101.38" y="-136.2" font-family="Helvetica,sans-Serif" font-size="14.00">ToolXdc\__construct</text>
</a>
</g>
</g>
<!-- Node1&#45;&gt;Node30 -->
<g id="edge29_Node000001_Node000030" class="edge">
<title>Node1&#45;&gt;Node30</title>
<g id="a_edge29_Node000001_Node000030"><a xlink:title=" ">
<path fill="none" stroke="#63b8ff" d="M293.66,-654.42C289.93,-562.85 271.88,-235.16 202.75,-163.25 195.33,-155.53 185.88,-150.23 175.75,-146.62"/>
<polygon fill="#63b8ff" stroke="#63b8ff" points="290.15,-654.35 294.03,-664.21 297.15,-654.08 290.15,-654.35"/>
</a>
</g>
</g>
<!-- Node31 -->
<g id="Node000031" class="node">
<title>Node31</title>
<g id="a_Node000031"><a xlink:href="../../d7/d8e/classToolYarn.html#ad822c8b683bc5820e51e6aca5b9be09a" target="_top" xlink:title=" ">
<polygon fill="white" stroke="#666666" points="176.88,-110.5 25.88,-110.5 25.88,-86 176.88,-86 176.88,-110.5"/>
<text text-anchor="middle" x="101.38" y="-93.2" font-family="Helvetica,sans-Serif" font-size="14.00">ToolYarn\__construct</text>
</a>
</g>
</g>
<!-- Node1&#45;&gt;Node31 -->
<g id="edge30_Node000001_Node000031" class="edge">
<title>Node1&#45;&gt;Node31</title>
<g id="a_edge30_Node000001_Node000031"><a xlink:title=" ">
<path fill="none" stroke="#63b8ff" d="M294.01,-654.32C291.55,-557.86 277.43,-198.98 202.75,-120.25 195.75,-112.87 186.89,-107.69 177.35,-104.09"/>
<polygon fill="#63b8ff" stroke="#63b8ff" points="290.51,-654.25 294.24,-664.17 297.51,-654.09 290.51,-654.25"/>
</a>
</g>
</g>
<!-- Node32 -->
<g id="Node000032" class="node">
<title>Node32</title>
<g id="a_Node000032"><a xlink:href="../../df/d28/classWin32Service.html#aa25c9c8861bfd2904d89886be3757b88" target="_top" xlink:title=" ">
<polygon fill="white" stroke="#666666" points="193,-67.5 9.75,-67.5 9.75,-43 193,-43 193,-67.5"/>
<text text-anchor="middle" x="101.38" y="-50.2" font-family="Helvetica,sans-Serif" font-size="14.00">Win32Service\__construct</text>
</a>
</g>
</g>
<!-- Node1&#45;&gt;Node32 -->
<g id="edge31_Node000001_Node000032" class="edge">
<title>Node1&#45;&gt;Node32</title>
<g id="a_edge31_Node000001_Node000032"><a xlink:title=" ">
<path fill="none" stroke="#63b8ff" d="M294.32,-654.45C293.08,-553.61 283.06,-162.9 202.75,-77.25 199.33,-73.61 195.46,-70.5 191.28,-67.85"/>
<polygon fill="#63b8ff" stroke="#63b8ff" points="290.82,-654.27 294.42,-664.24 297.82,-654.2 290.82,-654.27"/>
</a>
</g>
</g>
<!-- Node33 -->
<g id="Node000033" class="node">
<title>Node33</title>
<g id="a_Node000033"><a xlink:href="../../db/da5/classWinBinder.html#a38c16a4e3f8fb9fd1117f9494a9e1ab5" target="_top" xlink:title=" ">
<polygon fill="white" stroke="#666666" points="181.38,-24.5 21.38,-24.5 21.38,0 181.38,0 181.38,-24.5"/>
<text text-anchor="middle" x="101.38" y="-7.2" font-family="Helvetica,sans-Serif" font-size="14.00">WinBinder\__construct</text>
</a>
</g>
</g>
<!-- Node1&#45;&gt;Node33 -->
<g id="edge32_Node000001_Node000033" class="edge">
<title>Node1&#45;&gt;Node33</title>
<g id="a_edge32_Node000001_Node000033"><a xlink:title=" ">
<path fill="none" stroke="#63b8ff" d="M294.59,-654.44C294.49,-549.2 288.68,-126.81 202.75,-34.25 196.8,-27.84 189.45,-23.08 181.46,-19.57"/>
<polygon fill="#63b8ff" stroke="#63b8ff" points="291.09,-654.15 294.58,-664.15 298.09,-654.15 291.09,-654.15"/>
</a>
</g>
</g>
</g>
</svg>
