<?xml version="1.0" encoding="UTF-8" standalone="no"?>
<!--
  - Copyright (c) 2021-2024 Bearsampp
  - License:  GNU General Public License version 3 or later; see LICENSE.txt
  - Author: Bear
  - Website: https://bearsampp.com
  - Github: https://github.com/Bearsampp
  -->

<!DOCTYPE svg PUBLIC "-//W3C//DTD SVG 1.1//EN"
 "http://www.w3.org/Graphics/SVG/1.1/DTD/svg11.dtd">
<!-- Generated by graphviz version 11.0.0 (20240428.1522)
 -->
<!-- Title: Util\formatUnixPath Pages: 1 -->
<svg width="1519pt" height="881pt"
 viewBox="0.00 0.00 1518.75 880.86" xmlns="http://www.w3.org/2000/svg" xmlns:xlink="http://www.w3.org/1999/xlink">
<g id="graph0" class="graph" transform="scale(1 1) rotate(0) translate(4 876.86)">
<title>Util\formatUnixPath</title>
<!-- Node1 -->
<g id="Node000001" class="node">
<title>Node1</title>
<g id="a_Node000001"><a xlink:title=" ">
<polygon fill="#999999" stroke="#666666" points="1510.75,-435.5 1375.5,-435.5 1375.5,-411 1510.75,-411 1510.75,-435.5"/>
<text text-anchor="middle" x="1443.12" y="-418.2" font-family="Helvetica,sans-Serif" font-size="14.00">Util\formatUnixPath</text>
</a>
</g>
</g>
<!-- Node2 -->
<g id="Node000002" class="node">
<title>Node2</title>
<g id="a_Node000002"><a xlink:href="../../d6/de4/classUtil.html#a84c7124029d8691b6ca839191bf39e65" target="_top" xlink:title=" ">
<polygon fill="white" stroke="#666666" points="1063.25,-751.5 949,-751.5 949,-727 1063.25,-727 1063.25,-751.5"/>
<text text-anchor="middle" x="1006.12" y="-734.2" font-family="Helvetica,sans-Serif" font-size="14.00">Util\changePath</text>
</a>
</g>
</g>
<!-- Node1&#45;&gt;Node2 -->
<g id="edge1_Node000001_Node000002" class="edge">
<title>Node1&#45;&gt;Node2</title>
<g id="a_edge1_Node000001_Node000002"><a xlink:title=" ">
<path fill="none" stroke="#63b8ff" d="M1442.12,-447.1C1440.67,-505.01 1428.07,-653.26 1339.5,-720.25 1256.76,-782.84 1126.64,-767 1056.26,-751.94"/>
<polygon fill="#63b8ff" stroke="#63b8ff" points="1445.61,-447.44 1442.26,-437.39 1438.62,-447.33 1445.61,-447.44"/>
</a>
</g>
</g>
<!-- Node4 -->
<g id="Node000004" class="node">
<title>Node4</title>
<g id="a_Node000004"><a xlink:href="../../d1/db8/classActionStartup.html#a1234a0f2093a95140d6f86983514d28f" target="_top" xlink:title=" ">
<polygon fill="white" stroke="#666666" points="612.75,-729.5 405.5,-729.5 405.5,-705 612.75,-705 612.75,-729.5"/>
<text text-anchor="middle" x="509.12" y="-712.2" font-family="Helvetica,sans-Serif" font-size="14.00">ActionStartup\processWindow</text>
</a>
</g>
</g>
<!-- Node1&#45;&gt;Node4 -->
<g id="edge43_Node000001_Node000004" class="edge">
<title>Node1&#45;&gt;Node4</title>
<g id="a_edge43_Node000001_Node000004"><a xlink:title=" ">
<path fill="none" stroke="#63b8ff" d="M1438.33,-446.98C1426.74,-516.38 1389.45,-716.6 1339.5,-756.25 1098.76,-947.32 947.33,-862.16 648.75,-789.25 601.59,-777.73 552.61,-747.12 527.41,-729.75"/>
<polygon fill="#63b8ff" stroke="#63b8ff" points="1441.73,-447.88 1439.9,-437.45 1434.83,-446.75 1441.73,-447.88"/>
</a>
</g>
</g>
<!-- Node6 -->
<g id="Node000006" class="node">
<title>Node6</title>
<g id="a_Node000006"><a xlink:href="../../d8/d73/classRoot.html#aad8c713b34a3599f46d4281f534a7b04" target="_top" xlink:title=" ">
<polygon fill="white" stroke="#666666" points="1306.5,-570.5 1177.25,-570.5 1177.25,-546 1306.5,-546 1306.5,-570.5"/>
<text text-anchor="middle" x="1241.88" y="-553.2" font-family="Helvetica,sans-Serif" font-size="14.00">Root\errorHandler</text>
</a>
</g>
</g>
<!-- Node1&#45;&gt;Node6 -->
<g id="edge5_Node000001_Node000006" class="edge">
<title>Node1&#45;&gt;Node6</title>
<g id="a_edge5_Node000001_Node000006"><a xlink:title=" ">
<path fill="none" stroke="#63b8ff" d="M1428.45,-445.07C1411.04,-470.96 1378.49,-513.48 1339.5,-536.25 1329.55,-542.06 1318.18,-546.34 1306.83,-549.49"/>
<polygon fill="#63b8ff" stroke="#63b8ff" points="1431.19,-447.28 1433.73,-436.99 1425.33,-443.44 1431.19,-447.28"/>
</a>
</g>
</g>
<!-- Node7 -->
<g id="Node000007" class="node">
<title>Node7</title>
<g id="a_Node000007"><a xlink:href="../../dc/ddb/classWin32Ps.html#ac0804222f21d96f2404bd798c5805576" target="_top" xlink:title=" ">
<polygon fill="white" stroke="#666666" points="1315.12,-527.5 1168.62,-527.5 1168.62,-503 1315.12,-503 1315.12,-527.5"/>
<text text-anchor="middle" x="1241.88" y="-510.2" font-family="Helvetica,sans-Serif" font-size="14.00">Win32Ps\findByPath</text>
</a>
</g>
</g>
<!-- Node1&#45;&gt;Node7 -->
<g id="edge6_Node000001_Node000007" class="edge">
<title>Node1&#45;&gt;Node7</title>
<g id="a_edge6_Node000001_Node000007"><a xlink:title=" ">
<path fill="none" stroke="#63b8ff" d="M1418.63,-443.09C1398.76,-458.89 1368.89,-480.43 1339.5,-493.25 1331.14,-496.9 1322.1,-499.97 1313.02,-502.56"/>
<polygon fill="#63b8ff" stroke="#63b8ff" points="1420.81,-445.83 1426.37,-436.8 1416.4,-440.39 1420.81,-445.83"/>
</a>
</g>
</g>
<!-- Node8 -->
<g id="Node000008" class="node">
<title>Node8</title>
<g id="a_Node000008"><a xlink:href="../../d6/de4/classUtil.html#a9450555a5438c123a566ef0c926c89b8" target="_top" xlink:title=" ">
<polygon fill="white" stroke="#666666" points="1284.75,-466.5 1199,-466.5 1199,-442 1284.75,-442 1284.75,-466.5"/>
<text text-anchor="middle" x="1241.88" y="-449.2" font-family="Helvetica,sans-Serif" font-size="14.00">Util\findFile</text>
</a>
</g>
</g>
<!-- Node1&#45;&gt;Node8 -->
<g id="edge7_Node000001_Node000008" class="edge">
<title>Node1&#45;&gt;Node8</title>
<g id="a_edge7_Node000001_Node000008"><a xlink:title=" ">
<path fill="none" stroke="#63b8ff" d="M1363.89,-435.42C1337.09,-439.59 1308.11,-444.1 1285.24,-447.66"/>
<polygon fill="#63b8ff" stroke="#63b8ff" points="1364.38,-438.89 1373.73,-433.89 1363.31,-431.97 1364.38,-438.89"/>
</a>
</g>
</g>
<!-- Node14 -->
<g id="Node000014" class="node">
<title>Node14</title>
<g id="a_Node000014"><a xlink:href="../../d6/de4/classUtil.html#a08b0c742440b411d1ab9fdcaba408dbb" target="_top" xlink:title=" ">
<polygon fill="white" stroke="#666666" points="1288.5,-693.5 1195.25,-693.5 1195.25,-669 1288.5,-669 1288.5,-693.5"/>
<text text-anchor="middle" x="1241.88" y="-676.2" font-family="Helvetica,sans-Serif" font-size="14.00">Util\findFiles</text>
</a>
</g>
</g>
<!-- Node1&#45;&gt;Node14 -->
<g id="edge14_Node000001_Node000014" class="edge">
<title>Node1&#45;&gt;Node14</title>
<g id="a_edge14_Node000001_Node000014"><a xlink:title=" ">
<path fill="none" stroke="#63b8ff" d="M1438.54,-446.92C1430.14,-493.93 1404.73,-599.34 1339.5,-655.25 1325.39,-667.35 1306.19,-673.87 1288.63,-677.37"/>
<polygon fill="#63b8ff" stroke="#63b8ff" points="1441.95,-447.73 1440.15,-437.29 1435.05,-446.57 1441.95,-447.73"/>
</a>
</g>
</g>
<!-- Node17 -->
<g id="Node000017" class="node">
<title>Node17</title>
<g id="a_Node000017"><a xlink:href="../../d6/de4/classUtil.html#a28147962d5de17b2696d6805254f1291" target="_top" xlink:title=" ">
<polygon fill="white" stroke="#666666" points="1294.5,-405.5 1189.25,-405.5 1189.25,-381 1294.5,-381 1294.5,-405.5"/>
<text text-anchor="middle" x="1241.88" y="-388.2" font-family="Helvetica,sans-Serif" font-size="14.00">Util\findRepos</text>
</a>
</g>
</g>
<!-- Node1&#45;&gt;Node17 -->
<g id="edge20_Node000001_Node000017" class="edge">
<title>Node1&#45;&gt;Node17</title>
<g id="a_edge20_Node000001_Node000017"><a xlink:title=" ">
<path fill="none" stroke="#63b8ff" d="M1363.98,-411.48C1340.76,-407.99 1315.91,-404.25 1294.79,-401.07"/>
<polygon fill="#63b8ff" stroke="#63b8ff" points="1363.32,-414.92 1373.73,-412.95 1364.36,-408 1363.32,-414.92"/>
</a>
</g>
</g>
<!-- Node19 -->
<g id="Node000019" class="node">
<title>Node19</title>
<g id="a_Node000019"><a xlink:href="../../d9/d6c/classBinApache.html#a47a45966871479aa2dc4a851c5107a96" target="_top" xlink:title=" ">
<polygon fill="white" stroke="#666666" points="1336.5,-362.5 1147.25,-362.5 1147.25,-338 1336.5,-338 1336.5,-362.5"/>
<text text-anchor="middle" x="1241.88" y="-345.2" font-family="Helvetica,sans-Serif" font-size="14.00">BinApache\getAliasContent</text>
</a>
</g>
</g>
<!-- Node1&#45;&gt;Node19 -->
<g id="edge23_Node000001_Node000019" class="edge">
<title>Node1&#45;&gt;Node19</title>
<g id="a_edge23_Node000001_Node000019"><a xlink:title=" ">
<path fill="none" stroke="#63b8ff" d="M1410.35,-405C1390.5,-394.23 1364.12,-381.03 1339.5,-372.25 1329.61,-368.73 1318.95,-365.63 1308.45,-362.96"/>
<polygon fill="#63b8ff" stroke="#63b8ff" points="1408.6,-408.03 1419.05,-409.8 1411.98,-401.91 1408.6,-408.03"/>
</a>
</g>
</g>
<!-- Node20 -->
<g id="Node000020" class="node">
<title>Node20</title>
<g id="a_Node000020"><a xlink:href="../../d6/de4/classUtil.html#a10bf269e4cb8a9381331f47598616032" target="_top" xlink:title=" ">
<polygon fill="white" stroke="#666666" points="1320,-319.5 1163.75,-319.5 1163.75,-295 1320,-295 1320,-319.5"/>
<text text-anchor="middle" x="1241.88" y="-302.2" font-family="Helvetica,sans-Serif" font-size="14.00">Util\getNssmEnvPaths</text>
</a>
</g>
</g>
<!-- Node1&#45;&gt;Node20 -->
<g id="edge24_Node000001_Node000020" class="edge">
<title>Node1&#45;&gt;Node20</title>
<g id="a_edge24_Node000001_Node000020"><a xlink:title=" ">
<path fill="none" stroke="#63b8ff" d="M1424.81,-401.89C1406.07,-380.24 1374.17,-347.42 1339.5,-329.25 1332.49,-325.58 1324.88,-322.51 1317.11,-319.96"/>
<polygon fill="#63b8ff" stroke="#63b8ff" points="1422.13,-404.15 1431.25,-409.53 1427.48,-399.63 1422.13,-404.15"/>
</a>
</g>
</g>
<!-- Node23 -->
<g id="Node000023" class="node">
<title>Node23</title>
<g id="a_Node000023"><a xlink:href="../../dd/de9/classVbs.html#a659e3763b0d13a6e60c1068bcdcb6e81" target="_top" xlink:title=" ">
<polygon fill="white" stroke="#666666" points="1312.5,-276.5 1171.25,-276.5 1171.25,-252 1312.5,-252 1312.5,-276.5"/>
<text text-anchor="middle" x="1241.88" y="-259.2" font-family="Helvetica,sans-Serif" font-size="14.00">Vbs\getSpecialPath</text>
</a>
</g>
</g>
<!-- Node1&#45;&gt;Node23 -->
<g id="edge27_Node000001_Node000023" class="edge">
<title>Node1&#45;&gt;Node23</title>
<g id="a_edge27_Node000001_Node000023"><a xlink:title=" ">
<path fill="none" stroke="#63b8ff" d="M1431.5,-400.47C1415.87,-369.57 1383.68,-314.93 1339.5,-286.25 1331.42,-281 1322.25,-277 1312.86,-273.95"/>
<polygon fill="#63b8ff" stroke="#63b8ff" points="1428.3,-401.89 1435.84,-409.33 1434.59,-398.81 1428.3,-401.89"/>
</a>
</g>
</g>
<!-- Node26 -->
<g id="Node000026" class="node">
<title>Node26</title>
<g id="a_Node000026"><a xlink:href="../../d9/d6c/classBinApache.html#a68c6240da8b11ea8f1c32b79dac57979" target="_top" xlink:title=" ">
<polygon fill="white" stroke="#666666" points="1339.5,-233.5 1144.25,-233.5 1144.25,-209 1339.5,-209 1339.5,-233.5"/>
<text text-anchor="middle" x="1241.88" y="-216.2" font-family="Helvetica,sans-Serif" font-size="14.00">BinApache\getVhostContent</text>
</a>
</g>
</g>
<!-- Node1&#45;&gt;Node26 -->
<g id="edge30_Node000001_Node000026" class="edge">
<title>Node1&#45;&gt;Node26</title>
<g id="a_edge30_Node000001_Node000026"><a xlink:title=" ">
<path fill="none" stroke="#63b8ff" d="M1435.59,-399.92C1423.44,-361.06 1393.58,-283.37 1339.5,-243.25 1334.53,-239.56 1329.04,-236.47 1323.28,-233.89"/>
<polygon fill="#63b8ff" stroke="#63b8ff" points="1432.21,-400.84 1438.42,-409.42 1438.92,-398.83 1432.21,-400.84"/>
</a>
</g>
</g>
<!-- Node27 -->
<g id="Node000027" class="node">
<title>Node27</title>
<g id="a_Node000027"><a xlink:href="../../dc/ddb/classWin32Ps.html#aa522ce4696d00af3e499932fff26a2da" target="_top" xlink:title=" ">
<polygon fill="white" stroke="#666666" points="1302.75,-613.5 1181,-613.5 1181,-589 1302.75,-589 1302.75,-613.5"/>
<text text-anchor="middle" x="1241.88" y="-596.2" font-family="Helvetica,sans-Serif" font-size="14.00">Win32Ps\killBins</text>
</a>
</g>
</g>
<!-- Node1&#45;&gt;Node27 -->
<g id="edge31_Node000001_Node000027" class="edge">
<title>Node1&#45;&gt;Node27</title>
<g id="a_edge31_Node000001_Node000027"><a xlink:title=" ">
<path fill="none" stroke="#63b8ff" d="M1433.6,-446.17C1419.53,-480.69 1388.08,-545.55 1339.5,-579.25 1328.76,-586.7 1315.87,-591.67 1303.07,-594.97"/>
<polygon fill="#63b8ff" stroke="#63b8ff" points="1436.75,-447.71 1437.15,-437.13 1430.24,-445.16 1436.75,-447.71"/>
</a>
</g>
</g>
<!-- Node32 -->
<g id="Node000032" class="node">
<title>Node32</title>
<g id="a_Node000032"><a xlink:href="../../d1/db8/classActionStartup.html#a7a49b348e0daf7c1afc440479e15335a" target="_top" xlink:title=" ">
<polygon fill="white" stroke="#666666" points="1108.25,-664.5 904,-664.5 904,-640 1108.25,-640 1108.25,-664.5"/>
<text text-anchor="middle" x="1006.12" y="-647.2" font-family="Helvetica,sans-Serif" font-size="14.00">ActionStartup\killOldInstances</text>
</a>
</g>
</g>
<!-- Node1&#45;&gt;Node32 -->
<g id="edge41_Node000001_Node000032" class="edge">
<title>Node1&#45;&gt;Node32</title>
<g id="a_edge41_Node000001_Node000032"><a xlink:title=" ">
<path fill="none" stroke="#63b8ff" d="M1437.63,-446.84C1428.06,-489.91 1401.27,-580.68 1339.5,-622.25 1302.91,-646.87 1192.28,-652.82 1108.62,-653.6"/>
<polygon fill="#63b8ff" stroke="#63b8ff" points="1441.01,-447.79 1439.63,-437.28 1434.16,-446.36 1441.01,-447.79"/>
</a>
</g>
</g>
<!-- Node35 -->
<g id="Node000035" class="node">
<title>Node35</title>
<g id="a_Node000035"><a xlink:href="../../d1/d43/classActionGenSslCertificate.html#a483c5841fe91491d80c11673b6f49e3c" target="_top" xlink:title=" ">
<polygon fill="white" stroke="#666666" points="1325.62,-190.75 1158.12,-190.75 1158.12,-149.75 1325.62,-149.75 1325.62,-190.75"/>
<text text-anchor="start" x="1166.12" y="-173.45" font-family="Helvetica,sans-Serif" font-size="14.00">ActionGenSslCertificate</text>
<text text-anchor="middle" x="1241.88" y="-156.95" font-family="Helvetica,sans-Serif" font-size="14.00">\processWindow</text>
</a>
</g>
</g>
<!-- Node1&#45;&gt;Node35 -->
<g id="edge42_Node000001_Node000035" class="edge">
<title>Node1&#45;&gt;Node35</title>
<g id="a_edge42_Node000001_Node000035"><a xlink:title=" ">
<path fill="none" stroke="#63b8ff" d="M1437.88,-399.76C1428.46,-354.46 1401.56,-254.71 1339.5,-200.25 1335.41,-196.66 1330.89,-193.5 1326.11,-190.71"/>
<polygon fill="#63b8ff" stroke="#63b8ff" points="1434.39,-400.14 1439.75,-409.28 1441.26,-398.8 1434.39,-400.14"/>
</a>
</g>
</g>
<!-- Node36 -->
<g id="Node000036" class="node">
<title>Node36</title>
<g id="a_Node000036"><a xlink:href="../../da/d23/classBinFilezilla.html#a7e5cd84bc614b51b2379d0a231ce11c6" target="_top" xlink:title=" ">
<polygon fill="white" stroke="#666666" points="1305,-131.5 1178.75,-131.5 1178.75,-107 1305,-107 1305,-131.5"/>
<text text-anchor="middle" x="1241.88" y="-114.2" font-family="Helvetica,sans-Serif" font-size="14.00">BinFilezilla\reload</text>
</a>
</g>
</g>
<!-- Node1&#45;&gt;Node36 -->
<g id="edge44_Node000001_Node000036" class="edge">
<title>Node1&#45;&gt;Node36</title>
<g id="a_edge44_Node000001_Node000036"><a xlink:title=" ">
<path fill="none" stroke="#63b8ff" d="M1440.82,-399.27C1436.48,-344.67 1417.98,-210.47 1339.5,-141.25 1329.95,-132.83 1317.85,-127.44 1305.47,-124.03"/>
<polygon fill="#63b8ff" stroke="#63b8ff" points="1437.31,-399.26 1441.49,-409 1444.29,-398.78 1437.31,-399.26"/>
</a>
</g>
</g>
<!-- Node42 -->
<g id="Node000042" class="node">
<title>Node42</title>
<g id="a_Node000042"><a xlink:href="../../d3/dc0/classToolGit.html#af6a9258a0bc77c87bda2e34ae3fc1833" target="_top" xlink:title=" ">
<polygon fill="white" stroke="#666666" points="1294.88,-67.5 1188.88,-67.5 1188.88,-43 1294.88,-43 1294.88,-67.5"/>
<text text-anchor="middle" x="1241.88" y="-50.2" font-family="Helvetica,sans-Serif" font-size="14.00">ToolGit\reload</text>
</a>
</g>
</g>
<!-- Node1&#45;&gt;Node42 -->
<g id="edge50_Node000001_Node000042" class="edge">
<title>Node1&#45;&gt;Node42</title>
<g id="a_edge50_Node000001_Node000042"><a xlink:title=" ">
<path fill="none" stroke="#63b8ff" d="M1441.07,-399.24C1437.26,-340.55 1419.73,-188.09 1339.5,-98.25 1326.9,-84.14 1308.8,-74.43 1291.66,-67.85"/>
<polygon fill="#63b8ff" stroke="#63b8ff" points="1437.57,-399.28 1441.62,-409.07 1444.56,-398.89 1437.57,-399.28"/>
</a>
</g>
</g>
<!-- Node3 -->
<g id="Node000003" class="node">
<title>Node3</title>
<g id="a_Node000003"><a xlink:href="../../d1/db8/classActionStartup.html#a3ad5368c4a2382783daf1f3e8350cabb" target="_top" xlink:title=" ">
<polygon fill="white" stroke="#666666" points="848.12,-780.5 668.62,-780.5 668.62,-756 848.12,-756 848.12,-780.5"/>
<text text-anchor="middle" x="758.38" y="-763.2" font-family="Helvetica,sans-Serif" font-size="14.00">ActionStartup\changePath</text>
</a>
</g>
</g>
<!-- Node2&#45;&gt;Node3 -->
<g id="edge2_Node000002_Node000003" class="edge">
<title>Node2&#45;&gt;Node3</title>
<g id="a_edge2_Node000002_Node000003"><a xlink:title=" ">
<path fill="none" stroke="#63b8ff" d="M937.63,-747.22C910.03,-750.47 877.72,-754.28 848.25,-757.76"/>
<polygon fill="#63b8ff" stroke="#63b8ff" points="937.72,-750.73 947.24,-746.08 936.9,-743.78 937.72,-750.73"/>
</a>
</g>
</g>
<!-- Node5 -->
<g id="Node000005" class="node">
<title>Node5</title>
<g id="a_Node000005"><a xlink:href="../../d6/dff/classActionSwitchVersion.html#a89f1ff41b1715ca23ea9f9d35f7ff643" target="_top" xlink:title=" ">
<polygon fill="white" stroke="#666666" points="831.25,-737.75 685.5,-737.75 685.5,-696.75 831.25,-696.75 831.25,-737.75"/>
<text text-anchor="start" x="693.5" y="-720.45" font-family="Helvetica,sans-Serif" font-size="14.00">ActionSwitchVersion</text>
<text text-anchor="middle" x="758.38" y="-703.95" font-family="Helvetica,sans-Serif" font-size="14.00">\processWindow</text>
</a>
</g>
</g>
<!-- Node2&#45;&gt;Node5 -->
<g id="edge4_Node000002_Node000005" class="edge">
<title>Node2&#45;&gt;Node5</title>
<g id="a_edge4_Node000002_Node000005"><a xlink:title=" ">
<path fill="none" stroke="#63b8ff" d="M937.4,-733.19C904.46,-730.24 864.86,-726.69 831.38,-723.7"/>
<polygon fill="#63b8ff" stroke="#63b8ff" points="936.97,-736.66 947.24,-734.07 937.59,-729.69 936.97,-736.66"/>
</a>
</g>
</g>
<!-- Node3&#45;&gt;Node4 -->
<g id="edge3_Node000003_Node000004" class="edge">
<title>Node3&#45;&gt;Node4</title>
<g id="a_edge3_Node000003_Node000004"><a xlink:title=" ">
<path fill="none" stroke="#63b8ff" d="M679.31,-753.37C669.03,-751.35 658.63,-749.27 648.75,-747.25 621.97,-741.77 592.36,-735.4 567.39,-729.94"/>
<polygon fill="#63b8ff" stroke="#63b8ff" points="678.43,-756.77 688.92,-755.25 679.77,-749.9 678.43,-756.77"/>
</a>
</g>
</g>
<!-- Node8&#45;&gt;Node8 -->
<g id="edge8_Node000008_Node000008" class="edge">
<title>Node8&#45;&gt;Node8</title>
<g id="a_edge8_Node000008_Node000008"><a xlink:title=" ">
<path fill="none" stroke="#63b8ff" d="M1276.15,-478.43C1270.84,-482.05 1259.42,-484.5 1241.88,-484.5 1208.86,-484.5 1197.51,-475.81 1207.83,-466.99"/>
<polygon fill="#63b8ff" stroke="#63b8ff" points="1279.65,-478.44 1275.95,-468.51 1272.65,-478.57 1279.65,-478.44"/>
</a>
</g>
</g>
<!-- Node9 -->
<g id="Node000009" class="node">
<title>Node9</title>
<g id="a_Node000009"><a xlink:href="../../d6/de4/classUtil.html#a0fac7ec40fd1b8fa3a18cb0fa34bbc8e" target="_top" xlink:title=" ">
<polygon fill="white" stroke="#666666" points="1086.12,-433.5 926.12,-433.5 926.12,-409 1086.12,-409 1086.12,-433.5"/>
<text text-anchor="middle" x="1006.12" y="-416.2" font-family="Helvetica,sans-Serif" font-size="14.00">Util\getPowerShellPath</text>
</a>
</g>
</g>
<!-- Node8&#45;&gt;Node9 -->
<g id="edge9_Node000008_Node000009" class="edge">
<title>Node8&#45;&gt;Node9</title>
<g id="a_edge9_Node000008_Node000009"><a xlink:title=" ">
<path fill="none" stroke="#63b8ff" d="M1187.51,-446.72C1157.62,-442.5 1119.78,-437.15 1086.49,-432.45"/>
<polygon fill="#63b8ff" stroke="#63b8ff" points="1186.65,-450.13 1197.05,-448.06 1187.63,-443.2 1186.65,-450.13"/>
</a>
</g>
</g>
<!-- Node10 -->
<g id="Node000010" class="node">
<title>Node10</title>
<g id="a_Node000010"><a xlink:href="../../d6/d32/classTplConsoleZ.html#abe51ca1a21f4fee32040c4b113cc9abf" target="_top" xlink:title=" ">
<polygon fill="white" stroke="#666666" points="868,-441.75 648.75,-441.75 648.75,-400.75 868,-400.75 868,-441.75"/>
<text text-anchor="start" x="656.75" y="-424.45" font-family="Helvetica,sans-Serif" font-size="14.00">TplConsoleZ\getTabPowerShell</text>
<text text-anchor="middle" x="758.38" y="-407.95" font-family="Helvetica,sans-Serif" font-size="14.00">Section</text>
</a>
</g>
</g>
<!-- Node9&#45;&gt;Node10 -->
<g id="edge10_Node000009_Node000010" class="edge">
<title>Node9&#45;&gt;Node10</title>
<g id="a_edge10_Node000009_Node000010"><a xlink:title=" ">
<path fill="none" stroke="#63b8ff" d="M914.31,-421.25C899.26,-421.25 883.51,-421.25 868.07,-421.25"/>
<polygon fill="#63b8ff" stroke="#63b8ff" points="914.16,-424.75 924.16,-421.25 914.16,-417.75 914.16,-424.75"/>
</a>
</g>
</g>
<!-- Node11 -->
<g id="Node000011" class="node">
<title>Node11</title>
<g id="a_Node000011"><a xlink:href="../../d6/d32/classTplConsoleZ.html#ad8eca3c98871396ed6eda2c5883be82c" target="_top" xlink:title=" ">
<polygon fill="white" stroke="#666666" points="610.5,-433.5 407.75,-433.5 407.75,-409 610.5,-409 610.5,-433.5"/>
<text text-anchor="middle" x="509.12" y="-416.2" font-family="Helvetica,sans-Serif" font-size="14.00">TplConsoleZ\getTabsSection</text>
</a>
</g>
</g>
<!-- Node10&#45;&gt;Node11 -->
<g id="edge11_Node000010_Node000011" class="edge">
<title>Node10&#45;&gt;Node11</title>
<g id="a_edge11_Node000010_Node000011"><a xlink:title=" ">
<path fill="none" stroke="#63b8ff" d="M637.33,-421.25C628.44,-421.25 619.53,-421.25 610.77,-421.25"/>
<polygon fill="#63b8ff" stroke="#63b8ff" points="637.05,-424.75 647.05,-421.25 637.05,-417.75 637.05,-424.75"/>
</a>
</g>
</g>
<!-- Node12 -->
<g id="Node000012" class="node">
<title>Node12</title>
<g id="a_Node000012"><a xlink:href="../../d6/d32/classTplConsoleZ.html#a20311b354e97694e8a5c0ba6f2afe210" target="_top" xlink:title=" ">
<polygon fill="white" stroke="#666666" points="369.5,-433.5 215.5,-433.5 215.5,-409 369.5,-409 369.5,-433.5"/>
<text text-anchor="middle" x="292.5" y="-416.2" font-family="Helvetica,sans-Serif" font-size="14.00">TplConsoleZ\process</text>
</a>
</g>
</g>
<!-- Node11&#45;&gt;Node12 -->
<g id="edge12_Node000011_Node000012" class="edge">
<title>Node11&#45;&gt;Node12</title>
<g id="a_edge12_Node000011_Node000012"><a xlink:title=" ">
<path fill="none" stroke="#63b8ff" d="M396.15,-421.25C387.25,-421.25 378.41,-421.25 369.85,-421.25"/>
<polygon fill="#63b8ff" stroke="#63b8ff" points="395.9,-424.75 405.9,-421.25 395.9,-417.75 395.9,-424.75"/>
</a>
</g>
</g>
<!-- Node13 -->
<g id="Node000013" class="node">
<title>Node13</title>
<g id="a_Node000013"><a xlink:href="../../dd/dea/classActionReload.html#a9caf3b20c05475876e5dc72cdcdf6024" target="_top" xlink:title=" ">
<polygon fill="white" stroke="#666666" points="179.5,-433.5 0,-433.5 0,-409 179.5,-409 179.5,-433.5"/>
<text text-anchor="middle" x="89.75" y="-416.2" font-family="Helvetica,sans-Serif" font-size="14.00">ActionReload\__construct</text>
</a>
</g>
</g>
<!-- Node12&#45;&gt;Node13 -->
<g id="edge13_Node000012_Node000013" class="edge">
<title>Node12&#45;&gt;Node13</title>
<g id="a_edge13_Node000012_Node000013"><a xlink:title=" ">
<path fill="none" stroke="#63b8ff" d="M203.57,-421.25C195.68,-421.25 187.68,-421.25 179.78,-421.25"/>
<polygon fill="#63b8ff" stroke="#63b8ff" points="203.52,-424.75 213.52,-421.25 203.52,-417.75 203.52,-424.75"/>
</a>
</g>
</g>
<!-- Node14&#45;&gt;Node14 -->
<g id="edge15_Node000014_Node000014" class="edge">
<title>Node14&#45;&gt;Node14</title>
<g id="a_edge15_Node000014_Node000014"><a xlink:title=" ">
<path fill="none" stroke="#63b8ff" d="M1276.15,-705.43C1270.84,-709.05 1259.42,-711.5 1241.88,-711.5 1208.86,-711.5 1197.51,-702.81 1207.83,-693.99"/>
<polygon fill="#63b8ff" stroke="#63b8ff" points="1279.65,-705.44 1275.95,-695.51 1272.65,-705.57 1279.65,-705.44"/>
</a>
</g>
</g>
<!-- Node15 -->
<g id="Node000015" class="node">
<title>Node15</title>
<g id="a_Node000015"><a xlink:href="../../d6/de4/classUtil.html#a55280bd0193da8aabb79ac6f6785ecf5" target="_top" xlink:title=" ">
<polygon fill="white" stroke="#666666" points="1076,-707.5 936.25,-707.5 936.25,-683 1076,-683 1076,-707.5"/>
<text text-anchor="middle" x="1006.12" y="-690.2" font-family="Helvetica,sans-Serif" font-size="14.00">Util\getFilesToScan</text>
</a>
</g>
</g>
<!-- Node14&#45;&gt;Node15 -->
<g id="edge16_Node000014_Node000015" class="edge">
<title>Node14&#45;&gt;Node15</title>
<g id="a_edge16_Node000014_Node000015"><a xlink:title=" ">
<path fill="none" stroke="#63b8ff" d="M1183.89,-684.66C1151.49,-686.6 1110.67,-689.05 1076.42,-691.1"/>
<polygon fill="#63b8ff" stroke="#63b8ff" points="1183.69,-688.18 1193.46,-684.09 1183.27,-681.19 1183.69,-688.18"/>
</a>
</g>
</g>
<!-- Node15&#45;&gt;Node5 -->
<g id="edge17_Node000015_Node000005" class="edge">
<title>Node15&#45;&gt;Node5</title>
<g id="a_edge17_Node000015_Node000005"><a xlink:title=" ">
<path fill="none" stroke="#63b8ff" d="M924.69,-702.45C894.61,-705.14 860.66,-708.18 831.39,-710.8"/>
<polygon fill="#63b8ff" stroke="#63b8ff" points="924.86,-705.95 934.51,-701.57 924.24,-698.98 924.86,-705.95"/>
</a>
</g>
</g>
<!-- Node16 -->
<g id="Node000016" class="node">
<title>Node16</title>
<g id="a_Node000016"><a xlink:href="../../d1/db8/classActionStartup.html#ac821b68c4b5464e564fbd59fc51f9ceb" target="_top" xlink:title=" ">
<polygon fill="white" stroke="#666666" points="850,-678.5 666.75,-678.5 666.75,-654 850,-654 850,-678.5"/>
<text text-anchor="middle" x="758.38" y="-661.2" font-family="Helvetica,sans-Serif" font-size="14.00">ActionStartup\scanFolders</text>
</a>
</g>
</g>
<!-- Node15&#45;&gt;Node16 -->
<g id="edge18_Node000015_Node000016" class="edge">
<title>Node15&#45;&gt;Node16</title>
<g id="a_edge18_Node000015_Node000016"><a xlink:title=" ">
<path fill="none" stroke="#63b8ff" d="M924.59,-685.75C900.88,-682.95 874.77,-679.87 850.45,-677"/>
<polygon fill="#63b8ff" stroke="#63b8ff" points="924.17,-689.22 934.51,-686.92 924.99,-682.27 924.17,-689.22"/>
</a>
</g>
</g>
<!-- Node16&#45;&gt;Node4 -->
<g id="edge19_Node000016_Node000004" class="edge">
<title>Node16&#45;&gt;Node4</title>
<g id="a_edge19_Node000016_Node000004"><a xlink:title=" ">
<path fill="none" stroke="#63b8ff" d="M683.22,-681.2C671.68,-683.55 659.89,-685.96 648.75,-688.25 623.1,-693.53 594.8,-699.44 570.5,-704.53"/>
<polygon fill="#63b8ff" stroke="#63b8ff" points="683.59,-684.7 692.69,-679.28 682.2,-677.84 683.59,-684.7"/>
</a>
</g>
</g>
<!-- Node17&#45;&gt;Node17 -->
<g id="edge22_Node000017_Node000017" class="edge">
<title>Node17&#45;&gt;Node17</title>
<g id="a_edge22_Node000017_Node000017"><a xlink:title=" ">
<path fill="none" stroke="#63b8ff" d="M1276.15,-417.43C1270.84,-421.05 1259.42,-423.5 1241.88,-423.5 1208.86,-423.5 1197.51,-414.81 1207.83,-405.99"/>
<polygon fill="#63b8ff" stroke="#63b8ff" points="1279.65,-417.44 1275.95,-407.51 1272.65,-417.57 1279.65,-417.44"/>
</a>
</g>
</g>
<!-- Node18 -->
<g id="Node000018" class="node">
<title>Node18</title>
<g id="a_Node000018"><a xlink:href="../../d3/dc0/classToolGit.html#a04b644cec0f5f45c618eb7948c3d4689" target="_top" xlink:title=" ">
<polygon fill="white" stroke="#666666" points="1072.25,-390.5 940,-390.5 940,-366 1072.25,-366 1072.25,-390.5"/>
<text text-anchor="middle" x="1006.12" y="-373.2" font-family="Helvetica,sans-Serif" font-size="14.00">ToolGit\findRepos</text>
</a>
</g>
</g>
<!-- Node17&#45;&gt;Node18 -->
<g id="edge21_Node000017_Node000018" class="edge">
<title>Node17&#45;&gt;Node18</title>
<g id="a_edge21_Node000017_Node000018"><a xlink:title=" ">
<path fill="none" stroke="#63b8ff" d="M1177.8,-389.2C1145.25,-387.11 1105.57,-384.57 1072.67,-382.46"/>
<polygon fill="#63b8ff" stroke="#63b8ff" points="1177.28,-392.68 1187.49,-389.82 1177.73,-385.69 1177.28,-392.68"/>
</a>
</g>
</g>
<!-- Node21 -->
<g id="Node000021" class="node">
<title>Node21</title>
<g id="a_Node000021"><a xlink:href="../../df/d28/classWin32Service.html#a0d671863c8ed9869297400110daef2c1" target="_top" xlink:title=" ">
<polygon fill="white" stroke="#666666" points="1080.5,-319.5 931.75,-319.5 931.75,-295 1080.5,-295 1080.5,-319.5"/>
<text text-anchor="middle" x="1006.12" y="-302.2" font-family="Helvetica,sans-Serif" font-size="14.00">Win32Service\create</text>
</a>
</g>
</g>
<!-- Node20&#45;&gt;Node21 -->
<g id="edge25_Node000020_Node000021" class="edge">
<title>Node20&#45;&gt;Node21</title>
<g id="a_edge25_Node000020_Node000021"><a xlink:title=" ">
<path fill="none" stroke="#63b8ff" d="M1151.99,-307.25C1128.51,-307.25 1103.44,-307.25 1080.86,-307.25"/>
<polygon fill="#63b8ff" stroke="#63b8ff" points="1151.85,-310.75 1161.85,-307.25 1151.85,-303.75 1151.85,-310.75"/>
</a>
</g>
</g>
<!-- Node22 -->
<g id="Node000022" class="node">
<title>Node22</title>
<g id="a_Node000022"><a xlink:href="../../df/d28/classWin32Service.html#ab2bdb25f7405e3bb9e5230fca1980747" target="_top" xlink:title=" ">
<polygon fill="white" stroke="#666666" points="829,-319.5 687.75,-319.5 687.75,-295 829,-295 829,-319.5"/>
<text text-anchor="middle" x="758.38" y="-302.2" font-family="Helvetica,sans-Serif" font-size="14.00">Win32Service\reset</text>
</a>
</g>
</g>
<!-- Node21&#45;&gt;Node22 -->
<g id="edge26_Node000021_Node000022" class="edge">
<title>Node21&#45;&gt;Node22</title>
<g id="a_edge26_Node000021_Node000022"><a xlink:title=" ">
<path fill="none" stroke="#63b8ff" d="M920.2,-307.25C890.52,-307.25 857.57,-307.25 829.27,-307.25"/>
<polygon fill="#63b8ff" stroke="#63b8ff" points="919.88,-310.75 929.88,-307.25 919.88,-303.75 919.88,-310.75"/>
</a>
</g>
</g>
<!-- Node24 -->
<g id="Node000024" class="node">
<title>Node24</title>
<g id="a_Node000024"><a xlink:href="../../dd/de9/classVbs.html#a8371d4f8e7e1dd4bfa6f9f300293df36" target="_top" xlink:title=" ">
<polygon fill="white" stroke="#666666" points="1075.62,-276.5 936.62,-276.5 936.62,-252 1075.62,-252 1075.62,-276.5"/>
<text text-anchor="middle" x="1006.12" y="-259.2" font-family="Helvetica,sans-Serif" font-size="14.00">Vbs\getStartupPath</text>
</a>
</g>
</g>
<!-- Node23&#45;&gt;Node24 -->
<g id="edge28_Node000023_Node000024" class="edge">
<title>Node23&#45;&gt;Node24</title>
<g id="a_edge28_Node000023_Node000024"><a xlink:title=" ">
<path fill="none" stroke="#63b8ff" d="M1159.91,-264.25C1132.49,-264.25 1102.15,-264.25 1075.78,-264.25"/>
<polygon fill="#63b8ff" stroke="#63b8ff" points="1159.55,-267.75 1169.55,-264.25 1159.55,-260.75 1159.55,-267.75"/>
</a>
</g>
</g>
<!-- Node25 -->
<g id="Node000025" class="node">
<title>Node25</title>
<g id="a_Node000025"><a xlink:href="../../d6/de4/classUtil.html#a7ac5c068ccb6891fc8cfdf8141994df2" target="_top" xlink:title=" ">
<polygon fill="white" stroke="#666666" points="836.12,-276.5 680.62,-276.5 680.62,-252 836.12,-252 836.12,-276.5"/>
<text text-anchor="middle" x="758.38" y="-259.2" font-family="Helvetica,sans-Serif" font-size="14.00">Util\getStartupLnkPath</text>
</a>
</g>
</g>
<!-- Node24&#45;&gt;Node25 -->
<g id="edge29_Node000024_Node000025" class="edge">
<title>Node24&#45;&gt;Node25</title>
<g id="a_edge29_Node000024_Node000025"><a xlink:title=" ">
<path fill="none" stroke="#63b8ff" d="M925.19,-264.25C896.67,-264.25 864.62,-264.25 836.36,-264.25"/>
<polygon fill="#63b8ff" stroke="#63b8ff" points="924.83,-267.75 934.83,-264.25 924.83,-260.75 924.83,-267.75"/>
</a>
</g>
</g>
<!-- Node28 -->
<g id="Node000028" class="node">
<title>Node28</title>
<g id="a_Node000028"><a xlink:href="../../d0/d9f/classActionManualRestart.html#a229630778cbd92fef95f4e99e872fdca" target="_top" xlink:title=" ">
<polygon fill="white" stroke="#666666" points="1079,-621.75 933.25,-621.75 933.25,-580.75 1079,-580.75 1079,-621.75"/>
<text text-anchor="start" x="941.25" y="-604.45" font-family="Helvetica,sans-Serif" font-size="14.00">ActionManualRestart</text>
<text text-anchor="middle" x="1006.12" y="-587.95" font-family="Helvetica,sans-Serif" font-size="14.00">\__construct</text>
</a>
</g>
</g>
<!-- Node27&#45;&gt;Node28 -->
<g id="edge32_Node000027_Node000028" class="edge">
<title>Node27&#45;&gt;Node28</title>
<g id="a_edge32_Node000027_Node000028"><a xlink:title=" ">
<path fill="none" stroke="#63b8ff" d="M1169.52,-601.25C1140.87,-601.25 1107.9,-601.25 1079.19,-601.25"/>
<polygon fill="#63b8ff" stroke="#63b8ff" points="1169.17,-604.75 1179.17,-601.25 1169.16,-597.75 1169.17,-604.75"/>
</a>
</g>
</g>
<!-- Node29 -->
<g id="Node000029" class="node">
<title>Node29</title>
<g id="a_Node000029"><a xlink:href="../../da/dbb/classBatch.html#a60ded4c18eb060829639a955ec294ffc" target="_top" xlink:title=" ">
<polygon fill="white" stroke="#666666" points="1058,-562.5 954.25,-562.5 954.25,-538 1058,-538 1058,-562.5"/>
<text text-anchor="middle" x="1006.12" y="-545.2" font-family="Helvetica,sans-Serif" font-size="14.00">Batch\exitApp</text>
</a>
</g>
</g>
<!-- Node27&#45;&gt;Node29 -->
<g id="edge33_Node000027_Node000029" class="edge">
<title>Node27&#45;&gt;Node29</title>
<g id="a_edge33_Node000027_Node000029"><a xlink:title=" ">
<path fill="none" stroke="#63b8ff" d="M1171.66,-586.1C1151.24,-581.63 1128.85,-576.74 1108.25,-572.25 1092.01,-568.71 1074.31,-564.85 1058.31,-561.37"/>
<polygon fill="#63b8ff" stroke="#63b8ff" points="1170.78,-589.49 1181.3,-588.21 1172.28,-582.65 1170.78,-589.49"/>
</a>
</g>
</g>
<!-- Node27&#45;&gt;Node32 -->
<g id="edge37_Node000027_Node000032" class="edge">
<title>Node27&#45;&gt;Node32</title>
<g id="a_edge37_Node000027_Node000032"><a xlink:title=" ">
<path fill="none" stroke="#63b8ff" d="M1174.59,-616.49C1153.41,-621.29 1129.86,-626.56 1108.25,-631.25 1095.63,-633.99 1082.11,-636.85 1069.2,-639.54"/>
<polygon fill="#63b8ff" stroke="#63b8ff" points="1175.3,-619.91 1184.28,-614.28 1173.75,-613.09 1175.3,-619.91"/>
</a>
</g>
</g>
<!-- Node33 -->
<g id="Node000033" class="node">
<title>Node33</title>
<g id="a_Node000033"><a xlink:href="../../de/d86/classActionQuit.html#a2331cc6725be5a9283c65d462bfb5f5b" target="_top" xlink:title=" ">
<polygon fill="white" stroke="#666666" points="1100,-519.5 912.25,-519.5 912.25,-495 1100,-495 1100,-519.5"/>
<text text-anchor="middle" x="1006.12" y="-502.2" font-family="Helvetica,sans-Serif" font-size="14.00">ActionQuit\processWindow</text>
</a>
</g>
</g>
<!-- Node27&#45;&gt;Node33 -->
<g id="edge39_Node000027_Node000033" class="edge">
<title>Node27&#45;&gt;Node33</title>
<g id="a_edge39_Node000027_Node000033"><a xlink:title=" ">
<path fill="none" stroke="#63b8ff" d="M1169.64,-591.31C1160.66,-588.28 1151.95,-584.35 1144.25,-579.25 1121.43,-564.12 1131.15,-544.27 1108.25,-529.25 1102.69,-525.6 1096.63,-522.55 1090.32,-520"/>
<polygon fill="#63b8ff" stroke="#63b8ff" points="1168.62,-594.66 1179.2,-594.14 1170.61,-587.94 1168.62,-594.66"/>
</a>
</g>
</g>
<!-- Node34 -->
<g id="Node000034" class="node">
<title>Node34</title>
<g id="a_Node000034"><a xlink:href="../../d1/d42/classActionExt.html#a773acee7f7d11b500400d4c897323076" target="_top" xlink:title=" ">
<polygon fill="white" stroke="#666666" points="1083.12,-476.5 929.12,-476.5 929.12,-452 1083.12,-452 1083.12,-476.5"/>
<text text-anchor="middle" x="1006.12" y="-459.2" font-family="Helvetica,sans-Serif" font-size="14.00">ActionExt\procReload</text>
</a>
</g>
</g>
<!-- Node27&#45;&gt;Node34 -->
<g id="edge40_Node000027_Node000034" class="edge">
<title>Node27&#45;&gt;Node34</title>
<g id="a_edge40_Node000027_Node000034"><a xlink:title=" ">
<path fill="none" stroke="#63b8ff" d="M1169.96,-593.67C1160.59,-590.32 1151.67,-585.67 1144.25,-579.25 1110.71,-550.27 1141.92,-515.07 1108.25,-486.25 1101.02,-480.06 1092.44,-475.49 1083.39,-472.13"/>
<polygon fill="#63b8ff" stroke="#63b8ff" points="1168.64,-596.92 1179.22,-596.48 1170.67,-590.23 1168.64,-596.92"/>
</a>
</g>
</g>
<!-- Node30 -->
<g id="Node000030" class="node">
<title>Node30</title>
<g id="a_Node000030"><a xlink:href="../../db/d8f/classActionExec.html#a8228382d8a7768239c559563a8d58994" target="_top" xlink:title=" ">
<polygon fill="white" stroke="#666666" points="592.12,-561.5 426.12,-561.5 426.12,-537 592.12,-537 592.12,-561.5"/>
<text text-anchor="middle" x="509.12" y="-544.2" font-family="Helvetica,sans-Serif" font-size="14.00">ActionExec\__construct</text>
</a>
</g>
</g>
<!-- Node29&#45;&gt;Node30 -->
<g id="edge34_Node000029_Node000030" class="edge">
<title>Node29&#45;&gt;Node30</title>
<g id="a_edge34_Node000029_Node000030"><a xlink:title=" ">
<path fill="none" stroke="#63b8ff" d="M942.35,-550.39C871.16,-550.51 751.61,-550.62 648.75,-550.25 630.58,-550.18 611.07,-550.07 592.59,-549.94"/>
<polygon fill="#63b8ff" stroke="#63b8ff" points="942.27,-553.89 952.27,-550.37 942.26,-546.89 942.27,-553.89"/>
</a>
</g>
</g>
<!-- Node31 -->
<g id="Node000031" class="node">
<title>Node31</title>
<g id="a_Node000031"><a xlink:href="../../da/dbb/classBatch.html#ac5c8b3c31fa2a76d1cb2b1a10ff6d4d5" target="_top" xlink:title=" ">
<polygon fill="white" stroke="#666666" points="819.25,-541.5 697.5,-541.5 697.5,-517 819.25,-517 819.25,-541.5"/>
<text text-anchor="middle" x="758.38" y="-524.2" font-family="Helvetica,sans-Serif" font-size="14.00">Batch\restartApp</text>
</a>
</g>
</g>
<!-- Node29&#45;&gt;Node31 -->
<g id="edge35_Node000029_Node000031" class="edge">
<title>Node29&#45;&gt;Node31</title>
<g id="a_edge35_Node000029_Node000031"><a xlink:title=" ">
<path fill="none" stroke="#63b8ff" d="M942.54,-544.9C904.79,-541.68 856.95,-537.59 819.63,-534.4"/>
<polygon fill="#63b8ff" stroke="#63b8ff" points="942.14,-548.38 952.4,-545.74 942.73,-541.41 942.14,-548.38"/>
</a>
</g>
</g>
<!-- Node31&#45;&gt;Node30 -->
<g id="edge36_Node000031_Node000030" class="edge">
<title>Node31&#45;&gt;Node30</title>
<g id="a_edge36_Node000031_Node000030"><a xlink:title=" ">
<path fill="none" stroke="#63b8ff" d="M685.86,-535.03C656.69,-537.39 622.79,-540.14 592.58,-542.58"/>
<polygon fill="#63b8ff" stroke="#63b8ff" points="686.01,-538.53 695.7,-534.24 685.45,-531.56 686.01,-538.53"/>
</a>
</g>
</g>
<!-- Node32&#45;&gt;Node4 -->
<g id="edge38_Node000032_Node000004" class="edge">
<title>Node32&#45;&gt;Node4</title>
<g id="a_edge38_Node000032_Node000004"><a xlink:title=" ">
<path fill="none" stroke="#63b8ff" d="M917.03,-638.1C844.05,-629.32 738.2,-623.41 648.75,-645.25 601.59,-656.77 552.61,-687.38 527.41,-704.75"/>
<polygon fill="#63b8ff" stroke="#63b8ff" points="916.59,-641.57 926.95,-639.34 917.46,-634.63 916.59,-641.57"/>
</a>
</g>
</g>
<!-- Node37 -->
<g id="Node000037" class="node">
<title>Node37</title>
<g id="a_Node000037"><a xlink:href="../../da/d23/classBinFilezilla.html#ac14fbb45ee0e664fe93a00a0699194b4" target="_top" xlink:title=" ">
<polygon fill="white" stroke="#666666" points="1086.5,-196.5 925.75,-196.5 925.75,-172 1086.5,-172 1086.5,-196.5"/>
<text text-anchor="middle" x="1006.12" y="-179.2" font-family="Helvetica,sans-Serif" font-size="14.00">BinFilezilla\__construct</text>
</a>
</g>
</g>
<!-- Node36&#45;&gt;Node37 -->
<g id="edge45_Node000036_Node000037" class="edge">
<title>Node36&#45;&gt;Node37</title>
<g id="a_edge45_Node000036_Node000037"><a xlink:title=" ">
<path fill="none" stroke="#63b8ff" d="M1167.56,-133.45C1159.59,-135.73 1151.68,-138.32 1144.25,-141.25 1127.02,-148.05 1125.51,-155.53 1108.25,-162.25 1098.96,-165.87 1088.94,-168.95 1078.95,-171.56"/>
<polygon fill="#63b8ff" stroke="#63b8ff" points="1168.22,-136.9 1176.97,-130.92 1166.4,-130.13 1168.22,-136.9"/>
</a>
</g>
</g>
<!-- Node38 -->
<g id="Node000038" class="node">
<title>Node38</title>
<g id="a_Node000038"><a xlink:href="../../da/d23/classBinFilezilla.html#a00f53d4c8b7f101f056eded025c1f3c1" target="_top" xlink:title=" ">
<polygon fill="white" stroke="#666666" points="1081.25,-153.5 931,-153.5 931,-129 1081.25,-129 1081.25,-153.5"/>
<text text-anchor="middle" x="1006.12" y="-136.2" font-family="Helvetica,sans-Serif" font-size="14.00">BinFilezilla\setEnable</text>
</a>
</g>
</g>
<!-- Node36&#45;&gt;Node38 -->
<g id="edge46_Node000036_Node000038" class="edge">
<title>Node36&#45;&gt;Node38</title>
<g id="a_edge46_Node000036_Node000038"><a xlink:title=" ">
<path fill="none" stroke="#63b8ff" d="M1167.43,-126.16C1140,-128.74 1108.84,-131.68 1081.34,-134.27"/>
<polygon fill="#63b8ff" stroke="#63b8ff" points="1167.41,-129.68 1177.03,-125.26 1166.75,-122.71 1167.41,-129.68"/>
</a>
</g>
</g>
<!-- Node39 -->
<g id="Node000039" class="node">
<title>Node39</title>
<g id="a_Node000039"><a xlink:href="../../da/d23/classBinFilezilla.html#a822a1e90caee57831190434f0451f2d8" target="_top" xlink:title=" ">
<polygon fill="white" stroke="#666666" points="1083.5,-110.5 928.75,-110.5 928.75,-86 1083.5,-86 1083.5,-110.5"/>
<text text-anchor="middle" x="1006.12" y="-93.2" font-family="Helvetica,sans-Serif" font-size="14.00">BinFilezilla\setVersion</text>
</a>
</g>
</g>
<!-- Node36&#45;&gt;Node39 -->
<g id="edge47_Node000036_Node000039" class="edge">
<title>Node36&#45;&gt;Node39</title>
<g id="a_edge47_Node000036_Node000039"><a xlink:title=" ">
<path fill="none" stroke="#63b8ff" d="M1167.38,-112.65C1140.81,-110.26 1110.74,-107.56 1083.89,-105.15"/>
<polygon fill="#63b8ff" stroke="#63b8ff" points="1166.76,-116.11 1177.03,-113.51 1167.39,-109.13 1166.76,-116.11"/>
</a>
</g>
</g>
<!-- Node40 -->
<g id="Node000040" class="node">
<title>Node40</title>
<g id="a_Node000040"><a xlink:href="../../da/d23/classBinFilezilla.html#a66353a5a6f70047b44e22789823082bf" target="_top" xlink:title=" ">
<polygon fill="white" stroke="#666666" points="844.38,-110.5 672.38,-110.5 672.38,-86 844.38,-86 844.38,-110.5"/>
<text text-anchor="middle" x="758.38" y="-93.2" font-family="Helvetica,sans-Serif" font-size="14.00">BinFilezilla\updateConfig</text>
</a>
</g>
</g>
<!-- Node39&#45;&gt;Node40 -->
<g id="edge48_Node000039_Node000040" class="edge">
<title>Node39&#45;&gt;Node40</title>
<g id="a_edge48_Node000039_Node000040"><a xlink:title=" ">
<path fill="none" stroke="#63b8ff" d="M916.97,-98.25C893.38,-98.25 867.93,-98.25 844.51,-98.25"/>
<polygon fill="#63b8ff" stroke="#63b8ff" points="916.87,-101.75 926.87,-98.25 916.87,-94.75 916.87,-101.75"/>
</a>
</g>
</g>
<!-- Node41 -->
<g id="Node000041" class="node">
<title>Node41</title>
<g id="a_Node000041"><a xlink:href="../../da/d23/classBinFilezilla.html#a252ac578876f5e66642b8bf9e69393c0" target="_top" xlink:title=" ">
<polygon fill="white" stroke="#666666" points="596.25,-110.5 422,-110.5 422,-86 596.25,-86 596.25,-110.5"/>
<text text-anchor="middle" x="509.12" y="-93.2" font-family="Helvetica,sans-Serif" font-size="14.00">BinFilezilla\switchVersion</text>
</a>
</g>
</g>
<!-- Node40&#45;&gt;Node41 -->
<g id="edge49_Node000040_Node000041" class="edge">
<title>Node40&#45;&gt;Node41</title>
<g id="a_edge49_Node000040_Node000041"><a xlink:title=" ">
<path fill="none" stroke="#63b8ff" d="M660.64,-98.25C639.45,-98.25 617.15,-98.25 596.4,-98.25"/>
<polygon fill="#63b8ff" stroke="#63b8ff" points="660.43,-101.75 670.43,-98.25 660.43,-94.75 660.43,-101.75"/>
</a>
</g>
</g>
<!-- Node43 -->
<g id="Node000043" class="node">
<title>Node43</title>
<g id="a_Node000043"><a xlink:href="../../d3/dc0/classToolGit.html#af65324d2b48326eaa85ead71a7db6c46" target="_top" xlink:title=" ">
<polygon fill="white" stroke="#666666" points="1076.38,-67.5 935.88,-67.5 935.88,-43 1076.38,-43 1076.38,-67.5"/>
<text text-anchor="middle" x="1006.12" y="-50.2" font-family="Helvetica,sans-Serif" font-size="14.00">ToolGit\__construct</text>
</a>
</g>
</g>
<!-- Node42&#45;&gt;Node43 -->
<g id="edge51_Node000042_Node000043" class="edge">
<title>Node42&#45;&gt;Node43</title>
<g id="a_edge51_Node000042_Node000043"><a xlink:title=" ">
<path fill="none" stroke="#63b8ff" d="M1177.26,-55.25C1146.13,-55.25 1108.59,-55.25 1076.71,-55.25"/>
<polygon fill="#63b8ff" stroke="#63b8ff" points="1176.9,-58.75 1186.9,-55.25 1176.9,-51.75 1176.9,-58.75"/>
</a>
</g>
</g>
<!-- Node44 -->
<g id="Node000044" class="node">
<title>Node44</title>
<g id="a_Node000044"><a xlink:href="../../d3/dc0/classToolGit.html#a97493fb6ac4a0fb5c0f882d6b02e37f1" target="_top" xlink:title=" ">
<polygon fill="white" stroke="#666666" points="1073.38,-24.5 938.88,-24.5 938.88,0 1073.38,0 1073.38,-24.5"/>
<text text-anchor="middle" x="1006.12" y="-7.2" font-family="Helvetica,sans-Serif" font-size="14.00">ToolGit\setVersion</text>
</a>
</g>
</g>
<!-- Node42&#45;&gt;Node44 -->
<g id="edge52_Node000042_Node000044" class="edge">
<title>Node42&#45;&gt;Node44</title>
<g id="a_edge52_Node000042_Node000044"><a xlink:title=" ">
<path fill="none" stroke="#63b8ff" d="M1177.35,-43.57C1145.21,-37.65 1106.21,-30.48 1073.65,-24.49"/>
<polygon fill="#63b8ff" stroke="#63b8ff" points="1176.46,-46.96 1186.93,-45.33 1177.73,-40.07 1176.46,-46.96"/>
</a>
</g>
</g>
</g>
</svg>
