<?xml version="1.0" encoding="UTF-8" standalone="no"?>
<!--
  - Copyright (c) 2021-2024 Bearsampp
  - License:  GNU General Public License version 3 or later; see LICENSE.txt
  - Author: Bear
  - Website: https://bearsampp.com
  - Github: https://github.com/Bearsampp
  -->

<!DOCTYPE svg PUBLIC "-//W3C//DTD SVG 1.1//EN"
 "http://www.w3.org/Graphics/SVG/1.1/DTD/svg11.dtd">
<!-- Generated by graphviz version 11.0.0 (20240428.1522)
 -->
<!-- Title: Util\getWebsiteUrl Pages: 1 -->
<!--zoomable 651 -->

<svg id="main" version="1.1" xmlns="http://www.w3.org/2000/svg" xmlns:xlink="http://www.w3.org/1999/xlink" xml:space="preserve" onload="init(evt)">
<style type="text/css"><![CDATA[
.node, .edge {opacity: 0.7;}
.node.selected, .edge.selected {opacity: 1;}
.edge:hover path { stroke: red; }
.edge:hover polygon { stroke: red; fill: red; }
]]></style>

<defs>
  <circle id="rim" cx="0" cy="0" r="7"/>
  <circle id="rim2" cx="0" cy="0" r="3.5"/>
  <g id="zoomPlus">
    <use xlink:href="#rim" fill="#404040"><set attributeName="fill" to="#808080" begin="zoomplus.mouseover" end="zoomplus.mouseout"/></use>
    <path d="M-4,0h8M0,-4v8" fill="none" stroke="white" stroke-width="1.5" pointer-events="none"/>
  </g>
  <g id="zoomMin">
    <use xlink:href="#rim" fill="#404040"><set attributeName="fill" to="#808080" begin="zoomminus.mouseover" end="zoomminus.mouseout"/></use>
    <path d="M-4,0h8" fill="none" stroke="white" stroke-width="1.5" pointer-events="none"/>
  </g>
  <g id="arrowUp" transform="translate(30 24)">
    <use xlink:href="#rim"/>
    <path pointer-events="none" fill="none" stroke="white" stroke-width="1.5" d="M0,-3.0v7 M-2.5,-0.5L0,-3.0L2.5,-0.5"/>
  </g>
  <g id="arrowRight" transform="rotate(90) translate(36 -43)">
    <use xlink:href="#rim"/>
    <path pointer-events="none" fill="none" stroke="white" stroke-width="1.5" d="M0,-3.0v7 M-2.5,-0.5L0,-3.0L2.5,-0.5"/>
  </g>
  <g id="arrowDown" transform="rotate(180) translate(-30 -48)">
    <use xlink:href="#rim"/>
    <path pointer-events="none" fill="none" stroke="white" stroke-width="1.5" d="M0,-3.0v7 M-2.5,-0.5L0,-3.0L2.5,-0.5"/>
  </g>
  <g id="arrowLeft" transform="rotate(270) translate(-36 17)">
    <use xlink:href="#rim"/>
    <path pointer-events="none" fill="none" stroke="white" stroke-width="1.5" d="M0,-3.0v7 M-2.5,-0.5L0,-3.0L2.5,-0.5"/>
  </g>
  <g id="resetDef">
    <use xlink:href="#rim2" fill="#404040"><set attributeName="fill" to="#808080" begin="reset.mouseover" end="reset.mouseout"/></use>
  </g>
</defs>
<script type="application/ecmascript">
var viewWidth = 874;
var viewHeight = 651;
var sectionId = 'dynsection-34';
</script>
<script type="application/ecmascript" xlink:href="../../svg.min.js"/>
<svg id="graph" class="graph">
<g id="viewport">
<title>Util\getWebsiteUrl</title>
<!-- Node1 -->
<g id="Node000001" class="node">
<title>Node1</title>
<g id="a_Node000001"><a xlink:title=" ">
<polygon fill="#999999" stroke="#666666" points="865.75,-341.5 735.75,-341.5 735.75,-317 865.75,-317 865.75,-341.5"/>
<text text-anchor="middle" x="800.75" y="-324.2" font-family="Helvetica,sans-Serif" font-size="14.00">Util\getWebsiteUrl</text>
</a>
</g>
</g>
<!-- Node2 -->
<g id="Node000002" class="node">
<title>Node2</title>
<g id="a_Node000002"><a xlink:href="../../d6/de4/classUtil.html#a690f391c79273677963c70b92664f60e" target="_top" xlink:title=" ">
<polygon fill="white" stroke="#666666" points="634.12,-642.5 488.38,-642.5 488.38,-618 634.12,-618 634.12,-642.5"/>
<text text-anchor="middle" x="561.25" y="-625.2" font-family="Helvetica,sans-Serif" font-size="14.00">Util\getChangelogUrl</text>
</a>
</g>
</g>
<!-- Node1&#45;&gt;Node2 -->
<g id="edge1_Node000001_Node000002" class="edge">
<title>Node1&#45;&gt;Node2</title>
<g id="a_edge1_Node000001_Node000002"><a xlink:title=" ">
<path fill="none" stroke="#63b8ff" d="M798.92,-352.95C795.65,-407.45 779.47,-542.1 699.75,-608.25 681.7,-623.22 657.59,-630.01 634.6,-632.66"/>
<polygon fill="#63b8ff" stroke="#63b8ff" points="802.4,-353.41 799.4,-343.25 795.41,-353.06 802.4,-353.41"/>
</a>
</g>
</g>
<!-- Node3 -->
<g id="Node000003" class="node">
<title>Node3</title>
<g id="a_Node000003"><a xlink:href="../../d9/d51/classTplAppApache.html#a41883e060efdff6f2d33a272b7c3faae" target="_top" xlink:title=" ">
<polygon fill="white" stroke="#666666" points="670.5,-599.5 452,-599.5 452,-575 670.5,-575 670.5,-599.5"/>
<text text-anchor="middle" x="561.25" y="-582.2" font-family="Helvetica,sans-Serif" font-size="14.00">TplAppApache\getMenuApache</text>
</a>
</g>
</g>
<!-- Node1&#45;&gt;Node3 -->
<g id="edge2_Node000001_Node000003" class="edge">
<title>Node1&#45;&gt;Node3</title>
<g id="a_edge2_Node000001_Node000003"><a xlink:title=" ">
<path fill="none" stroke="#63b8ff" d="M797.2,-352.9C790.65,-401.25 768.56,-511.37 699.75,-565.25 691.09,-572.03 681.16,-577.1 670.7,-580.84"/>
<polygon fill="#63b8ff" stroke="#63b8ff" points="800.64,-353.62 798.4,-343.26 793.69,-352.76 800.64,-353.62"/>
</a>
</g>
</g>
<!-- Node4 -->
<g id="Node000004" class="node">
<title>Node4</title>
<g id="a_Node000004"><a xlink:href="../../d0/d23/classTplAppFilezilla.html#ac79291983a2d52baddaff20066557be6" target="_top" xlink:title=" ">
<polygon fill="white" stroke="#666666" points="668.25,-556.5 454.25,-556.5 454.25,-532 668.25,-532 668.25,-556.5"/>
<text text-anchor="middle" x="561.25" y="-539.2" font-family="Helvetica,sans-Serif" font-size="14.00">TplAppFilezilla\getMenuFilezilla</text>
</a>
</g>
</g>
<!-- Node1&#45;&gt;Node4 -->
<g id="edge3_Node000001_Node000004" class="edge">
<title>Node1&#45;&gt;Node4</title>
<g id="a_edge3_Node000001_Node000004"><a xlink:title=" ">
<path fill="none" stroke="#63b8ff" d="M794.8,-352.87C784.75,-394.45 757.81,-480.3 699.75,-522.25 690.34,-529.05 679.63,-534.07 668.43,-537.74"/>
<polygon fill="#63b8ff" stroke="#63b8ff" points="798.19,-353.71 797,-343.18 791.37,-352.15 798.19,-353.71"/>
</a>
</g>
</g>
<!-- Node5 -->
<g id="Node000005" class="node">
<title>Node5</title>
<g id="a_Node000005"><a xlink:href="../../d4/d8a/classTplAppMailhog.html#a67c2c3057bcdaac6cf91614662582c6d" target="_top" xlink:title=" ">
<polygon fill="white" stroke="#666666" points="670.5,-513.5 452,-513.5 452,-489 670.5,-489 670.5,-513.5"/>
<text text-anchor="middle" x="561.25" y="-496.2" font-family="Helvetica,sans-Serif" font-size="14.00">TplAppMailhog\getMenuMailhog</text>
</a>
</g>
</g>
<!-- Node1&#45;&gt;Node5 -->
<g id="edge4_Node000001_Node000005" class="edge">
<title>Node1&#45;&gt;Node5</title>
<g id="a_edge4_Node000001_Node000005"><a xlink:title=" ">
<path fill="none" stroke="#63b8ff" d="M791.24,-352.62C777.57,-386.54 747.34,-448.7 699.75,-479.25 690.9,-484.93 681.09,-489.32 670.9,-492.68"/>
<polygon fill="#63b8ff" stroke="#63b8ff" points="794.49,-353.9 794.83,-343.31 787.97,-351.38 794.49,-353.9"/>
</a>
</g>
</g>
<!-- Node6 -->
<g id="Node000006" class="node">
<title>Node6</title>
<g id="a_Node000006"><a xlink:href="../../d8/dd3/classTplAppMailpit.html#a6b11486b7c0c3abff5bd9a69107e739f" target="_top" xlink:title=" ">
<polygon fill="white" stroke="#666666" points="661.5,-470.5 461,-470.5 461,-446 661.5,-446 661.5,-470.5"/>
<text text-anchor="middle" x="561.25" y="-453.2" font-family="Helvetica,sans-Serif" font-size="14.00">TplAppMailpit\getMenuMailpit</text>
</a>
</g>
</g>
<!-- Node1&#45;&gt;Node6 -->
<g id="edge5_Node000001_Node000006" class="edge">
<title>Node1&#45;&gt;Node6</title>
<g id="a_edge5_Node000001_Node000006"><a xlink:title=" ">
<path fill="none" stroke="#63b8ff" d="M786.02,-351.04C769.02,-376.02 737.63,-416.1 699.75,-436.25 688.01,-442.5 674.97,-447.07 661.73,-450.41"/>
<polygon fill="#63b8ff" stroke="#63b8ff" points="788.79,-353.21 791.37,-342.93 782.94,-349.35 788.79,-353.21"/>
</a>
</g>
</g>
<!-- Node7 -->
<g id="Node000007" class="node">
<title>Node7</title>
<g id="a_Node000007"><a xlink:href="../../d4/de1/classTplAppMariadb.html#a46c8afea1780be6bdd5989bccb0c67e2" target="_top" xlink:title=" ">
<polygon fill="white" stroke="#666666" points="672,-427.5 450.5,-427.5 450.5,-403 672,-403 672,-427.5"/>
<text text-anchor="middle" x="561.25" y="-410.2" font-family="Helvetica,sans-Serif" font-size="14.00">TplAppMariadb\getMenuMariadb</text>
</a>
</g>
</g>
<!-- Node1&#45;&gt;Node7 -->
<g id="edge6_Node000001_Node000007" class="edge">
<title>Node1&#45;&gt;Node7</title>
<g id="a_edge6_Node000001_Node000007"><a xlink:title=" ">
<path fill="none" stroke="#63b8ff" d="M775.58,-348.78C756.22,-363.38 727.76,-382.58 699.75,-393.25 690.04,-396.95 679.71,-400.03 669.24,-402.59"/>
<polygon fill="#63b8ff" stroke="#63b8ff" points="777.59,-351.65 783.36,-342.77 773.31,-346.11 777.59,-351.65"/>
</a>
</g>
</g>
<!-- Node8 -->
<g id="Node000008" class="node">
<title>Node8</title>
<g id="a_Node000008"><a xlink:href="../../d8/dff/classTplAppMemcached.html#aefb8013320c0321bd6f3727349ea1045" target="_top" xlink:title=" ">
<polygon fill="white" stroke="#666666" points="699.75,-384.5 422.75,-384.5 422.75,-360 699.75,-360 699.75,-384.5"/>
<text text-anchor="middle" x="561.25" y="-367.2" font-family="Helvetica,sans-Serif" font-size="14.00">TplAppMemcached\getMenuMemcached</text>
</a>
</g>
</g>
<!-- Node1&#45;&gt;Node8 -->
<g id="edge7_Node000001_Node000008" class="edge">
<title>Node1&#45;&gt;Node8</title>
<g id="a_edge7_Node000001_Node000008"><a xlink:title=" ">
<path fill="none" stroke="#63b8ff" d="M730.39,-344.27C720.13,-346.36 709.68,-348.41 699.75,-350.25 682.4,-353.46 663.76,-356.63 645.98,-359.52"/>
<polygon fill="#63b8ff" stroke="#63b8ff" points="730.84,-347.75 739.93,-342.3 729.43,-340.89 730.84,-347.75"/>
</a>
</g>
</g>
<!-- Node9 -->
<g id="Node000009" class="node">
<title>Node9</title>
<g id="a_Node000009"><a xlink:href="../../d6/d19/classTplAppMysql.html#ab73238f0e33b03f8ce20144b582e5609" target="_top" xlink:title=" ">
<polygon fill="white" stroke="#666666" points="658.5,-341.5 464,-341.5 464,-317 658.5,-317 658.5,-341.5"/>
<text text-anchor="middle" x="561.25" y="-324.2" font-family="Helvetica,sans-Serif" font-size="14.00">TplAppMysql\getMenuMysql</text>
</a>
</g>
</g>
<!-- Node1&#45;&gt;Node9 -->
<g id="edge8_Node000001_Node000009" class="edge">
<title>Node1&#45;&gt;Node9</title>
<g id="a_edge8_Node000001_Node000009"><a xlink:title=" ">
<path fill="none" stroke="#63b8ff" d="M724.15,-329.25C703.35,-329.25 680.51,-329.25 658.71,-329.25"/>
<polygon fill="#63b8ff" stroke="#63b8ff" points="723.97,-332.75 733.97,-329.25 723.97,-325.75 723.97,-332.75"/>
</a>
</g>
</g>
<!-- Node10 -->
<g id="Node000010" class="node">
<title>Node10</title>
<g id="a_Node000010"><a xlink:href="../../dc/d32/classTplAppNodejs.html#ae6136fcf0895063f90caa2b191d0d11b" target="_top" xlink:title=" ">
<polygon fill="white" stroke="#666666" points="666.75,-298.5 455.75,-298.5 455.75,-274 666.75,-274 666.75,-298.5"/>
<text text-anchor="middle" x="561.25" y="-281.2" font-family="Helvetica,sans-Serif" font-size="14.00">TplAppNodejs\getMenuNodejs</text>
</a>
</g>
</g>
<!-- Node1&#45;&gt;Node10 -->
<g id="edge9_Node000001_Node000010" class="edge">
<title>Node1&#45;&gt;Node10</title>
<g id="a_edge9_Node000001_Node000010"><a xlink:title=" ">
<path fill="none" stroke="#63b8ff" d="M730.39,-314.23C720.13,-312.14 709.68,-310.09 699.75,-308.25 682.4,-305.04 663.76,-301.87 645.98,-298.98"/>
<polygon fill="#63b8ff" stroke="#63b8ff" points="729.43,-317.61 739.93,-316.2 730.84,-310.75 729.43,-317.61"/>
</a>
</g>
</g>
<!-- Node11 -->
<g id="Node000011" class="node">
<title>Node11</title>
<g id="a_Node000011"><a xlink:href="../../d0/d1a/classTplAppPhp.html#a1f03b6b08aba4677031cc2f46550690c" target="_top" xlink:title=" ">
<polygon fill="white" stroke="#666666" points="647.25,-255.5 475.25,-255.5 475.25,-231 647.25,-231 647.25,-255.5"/>
<text text-anchor="middle" x="561.25" y="-238.2" font-family="Helvetica,sans-Serif" font-size="14.00">TplAppPhp\getMenuPhp</text>
</a>
</g>
</g>
<!-- Node1&#45;&gt;Node11 -->
<g id="edge10_Node000001_Node000011" class="edge">
<title>Node1&#45;&gt;Node11</title>
<g id="a_edge10_Node000001_Node000011"><a xlink:title=" ">
<path fill="none" stroke="#63b8ff" d="M775.58,-309.72C756.22,-295.12 727.76,-275.92 699.75,-265.25 683.37,-259.01 665.24,-254.54 647.67,-251.34"/>
<polygon fill="#63b8ff" stroke="#63b8ff" points="773.31,-312.39 783.36,-315.73 777.59,-306.85 773.31,-312.39"/>
</a>
</g>
</g>
<!-- Node12 -->
<g id="Node000012" class="node">
<title>Node12</title>
<g id="a_Node000012"><a xlink:href="../../d3/d1b/classTplAppPostgresql.html#ae7611346aa23c70ab2d933dcf5b75e44" target="_top" xlink:title=" ">
<polygon fill="white" stroke="#666666" points="656.25,-212.75 466.25,-212.75 466.25,-171.75 656.25,-171.75 656.25,-212.75"/>
<text text-anchor="start" x="474.25" y="-195.45" font-family="Helvetica,sans-Serif" font-size="14.00">TplAppPostgresql\getMenu</text>
<text text-anchor="middle" x="561.25" y="-178.95" font-family="Helvetica,sans-Serif" font-size="14.00">Postgresql</text>
</a>
</g>
</g>
<!-- Node1&#45;&gt;Node12 -->
<g id="edge11_Node000001_Node000012" class="edge">
<title>Node1&#45;&gt;Node12</title>
<g id="a_edge11_Node000001_Node000012"><a xlink:title=" ">
<path fill="none" stroke="#63b8ff" d="M785.55,-307.44C768.3,-282.79 736.85,-243.35 699.75,-222.25 686.48,-214.7 671.49,-209.05 656.41,-204.82"/>
<polygon fill="#63b8ff" stroke="#63b8ff" points="782.48,-309.15 791,-315.45 788.27,-305.21 782.48,-309.15"/>
</a>
</g>
</g>
<!-- Node13 -->
<g id="Node000013" class="node">
<title>Node13</title>
<g id="a_Node000013"><a xlink:href="../../dc/d83/classTplAppXlight.html#af5d3e9e4275051253786be7055330a6c" target="_top" xlink:title=" ">
<polygon fill="white" stroke="#666666" points="657,-153.5 465.5,-153.5 465.5,-129 657,-129 657,-153.5"/>
<text text-anchor="middle" x="561.25" y="-136.2" font-family="Helvetica,sans-Serif" font-size="14.00">TplAppXlight\getMenuXlight</text>
</a>
</g>
</g>
<!-- Node1&#45;&gt;Node13 -->
<g id="edge12_Node000001_Node000013" class="edge">
<title>Node1&#45;&gt;Node13</title>
<g id="a_edge12_Node000001_Node000013"><a xlink:title=" ">
<path fill="none" stroke="#63b8ff" d="M792.84,-306.05C780.59,-269.24 751.34,-198.06 699.75,-163.25 687.13,-154.73 672.39,-149.07 657.34,-145.38"/>
<polygon fill="#63b8ff" stroke="#63b8ff" points="789.41,-306.79 795.77,-315.26 796.08,-304.67 789.41,-306.79"/>
</a>
</g>
</g>
<!-- Node14 -->
<g id="Node000014" class="node">
<title>Node14</title>
<g id="a_Node000014"><a xlink:href="../../d1/d65/classTplApp.html#a9db61fdb53ab5d42766b0634f77dd458" target="_top" xlink:title=" ">
<polygon fill="white" stroke="#666666" points="662.25,-110.5 460.25,-110.5 460.25,-86 662.25,-86 662.25,-110.5"/>
<text text-anchor="middle" x="561.25" y="-93.2" font-family="Helvetica,sans-Serif" font-size="14.00">TplApp\getSectionMenuRight</text>
</a>
</g>
</g>
<!-- Node1&#45;&gt;Node14 -->
<g id="edge13_Node000001_Node000014" class="edge">
<title>Node1&#45;&gt;Node14</title>
<g id="a_edge13_Node000001_Node000014"><a xlink:title=" ">
<path fill="none" stroke="#63b8ff" d="M795.78,-305.54C787.04,-261.33 761.76,-166.57 699.75,-120.25 688.81,-112.08 676,-106.44 662.68,-102.62"/>
<polygon fill="#63b8ff" stroke="#63b8ff" points="792.29,-305.91 797.55,-315.1 799.17,-304.63 792.29,-305.91"/>
</a>
</g>
</g>
<!-- Node17 -->
<g id="Node000017" class="node">
<title>Node17</title>
<g id="a_Node000017"><a xlink:href="../../d6/de4/classUtil.html#a150a01d3e188e371c4b0f7f6a3abada0" target="_top" xlink:title=" ">
<polygon fill="white" stroke="#666666" points="648,-67.5 474.5,-67.5 474.5,-43 648,-43 648,-67.5"/>
<text text-anchor="middle" x="561.25" y="-50.2" font-family="Helvetica,sans-Serif" font-size="14.00">Util\getWebsiteUrlNoUtm</text>
</a>
</g>
</g>
<!-- Node1&#45;&gt;Node17 -->
<g id="edge16_Node000001_Node000017" class="edge">
<title>Node1&#45;&gt;Node17</title>
<g id="a_edge16_Node000001_Node000017"><a xlink:title=" ">
<path fill="none" stroke="#63b8ff" d="M797.85,-305.08C792.46,-254.11 772.37,-135.47 699.75,-77.25 685.13,-65.53 666.76,-58.89 648.26,-55.33"/>
<polygon fill="#63b8ff" stroke="#63b8ff" points="794.36,-305.37 798.79,-315 801.33,-304.72 794.36,-305.37"/>
</a>
</g>
</g>
<!-- Node19 -->
<g id="Node000019" class="node">
<title>Node19</title>
<g id="a_Node000019"><a xlink:href="../../d5/d43/classActionAbout.html#a686ab955b412bedcf7b9509228d62bde" target="_top" xlink:title=" ">
<polygon fill="white" stroke="#666666" points="661.12,-24.5 461.38,-24.5 461.38,0 661.12,0 661.12,-24.5"/>
<text text-anchor="middle" x="561.25" y="-7.2" font-family="Helvetica,sans-Serif" font-size="14.00">ActionAbout\processWindow</text>
</a>
</g>
</g>
<!-- Node1&#45;&gt;Node19 -->
<g id="edge18_Node000001_Node000019" class="edge">
<title>Node1&#45;&gt;Node19</title>
<g id="a_edge18_Node000001_Node000019"><a xlink:title=" ">
<path fill="none" stroke="#63b8ff" d="M799.44,-305.39C797.31,-248.61 783.48,-104.97 699.75,-34.25 688.76,-24.97 675.45,-18.81 661.5,-14.83"/>
<polygon fill="#63b8ff" stroke="#63b8ff" points="795.94,-305.29 799.71,-315.19 802.93,-305.1 795.94,-305.29"/>
</a>
</g>
</g>
<!-- Node15 -->
<g id="Node000015" class="node">
<title>Node15</title>
<g id="a_Node000015"><a xlink:href="../../d1/d65/classTplApp.html#a57b270c79fbb8b220ad02af08368e367" target="_top" xlink:title=" ">
<polygon fill="white" stroke="#666666" points="360.12,-110.5 242.12,-110.5 242.12,-86 360.12,-86 360.12,-110.5"/>
<text text-anchor="middle" x="301.12" y="-93.2" font-family="Helvetica,sans-Serif" font-size="14.00">TplApp\process</text>
</a>
</g>
</g>
<!-- Node14&#45;&gt;Node15 -->
<g id="edge14_Node000014_Node000015" class="edge">
<title>Node14&#45;&gt;Node15</title>
<g id="a_edge14_Node000014_Node000015"><a xlink:title=" ">
<path fill="none" stroke="#63b8ff" d="M448.93,-98.25C418.45,-98.25 386.64,-98.25 360.44,-98.25"/>
<polygon fill="#63b8ff" stroke="#63b8ff" points="448.57,-101.75 458.57,-98.25 448.57,-94.75 448.57,-101.75"/>
</a>
</g>
</g>
<!-- Node16 -->
<g id="Node000016" class="node">
<title>Node16</title>
<g id="a_Node000016"><a xlink:href="../../dd/dea/classActionReload.html#a9caf3b20c05475876e5dc72cdcdf6024" target="_top" xlink:title=" ">
<polygon fill="white" stroke="#666666" points="179.5,-110.5 0,-110.5 0,-86 179.5,-86 179.5,-110.5"/>
<text text-anchor="middle" x="89.75" y="-93.2" font-family="Helvetica,sans-Serif" font-size="14.00">ActionReload\__construct</text>
</a>
</g>
</g>
<!-- Node15&#45;&gt;Node16 -->
<g id="edge15_Node000015_Node000016" class="edge">
<title>Node15&#45;&gt;Node16</title>
<g id="a_edge15_Node000015_Node000016"><a xlink:title=" ">
<path fill="none" stroke="#63b8ff" d="M230.73,-98.25C214.4,-98.25 196.77,-98.25 179.71,-98.25"/>
<polygon fill="#63b8ff" stroke="#63b8ff" points="230.29,-101.75 240.29,-98.25 230.29,-94.75 230.29,-101.75"/>
</a>
</g>
</g>
<!-- Node18 -->
<g id="Node000018" class="node">
<title>Node18</title>
<g id="a_Node000018"><a xlink:href="../../d5/d43/classActionAbout.html#aaa96db6b0220bee91c8f026b562cef76" target="_top" xlink:title=" ">
<polygon fill="white" stroke="#666666" points="386.75,-67.5 215.5,-67.5 215.5,-43 386.75,-43 386.75,-67.5"/>
<text text-anchor="middle" x="301.12" y="-50.2" font-family="Helvetica,sans-Serif" font-size="14.00">ActionAbout\__construct</text>
</a>
</g>
</g>
<!-- Node17&#45;&gt;Node18 -->
<g id="edge17_Node000017_Node000018" class="edge">
<title>Node17&#45;&gt;Node18</title>
<g id="a_edge17_Node000017_Node000018"><a xlink:title=" ">
<path fill="none" stroke="#63b8ff" d="M462.93,-55.25C437.89,-55.25 411.16,-55.25 386.82,-55.25"/>
<polygon fill="#63b8ff" stroke="#63b8ff" points="462.78,-58.75 472.78,-55.25 462.78,-51.75 462.78,-58.75"/>
</a>
</g>
</g>
</g>
</svg>

<g id="navigator" transform="translate(0 0)" fill="#404254">
  <rect fill="#f2f5e9" fill-opacity="0.5" stroke="#606060" stroke-width=".5" x="0" y="0" width="60" height="60"/>
  <use id="zoomplus" xlink:href="#zoomPlus" x="17" y="9" onmousedown="handleZoom(evt,'in')"/>
  <use id="zoomminus" xlink:href="#zoomMin" x="42" y="9" onmousedown="handleZoom(evt,'out')"/>
  <use id="reset" xlink:href="#resetDef" x="30" y="36" onmousedown="handleReset()"/>
   <use id="arrowup" xlink:href="#arrowUp" x="0" y="0" onmousedown="handlePan(0,-1)"/>
  <use id="arrowright" xlink:href="#arrowRight" x="0" y="0" onmousedown="handlePan(1,0)"/>
  <use id="arrowdown" xlink:href="#arrowDown" x="0" y="0" onmousedown="handlePan(0,1)"/>
  <use id="arrowleft" xlink:href="#arrowLeft" x="0" y="0" onmousedown="handlePan(-1,0)"/>
</g>
<svg viewBox="0 0 15 15" width="100%" height="30px" preserveAspectRatio="xMaxYMin meet">
 <g id="arrow_out" transform="scale(0.3 0.3)">
  <a xlink:href="classUtil_aa555da1931bacfa8f71de15afd78e79d_icgraph_org.svg" target="_base">
   <rect id="button" ry="5" rx="5" y="6" x="6" height="38" width="38"
        fill="#f2f5e9" fill-opacity="0.5" stroke="#606060" stroke-width="1.0"/>
   <path id="arrow"
     d="M 11.500037,31.436501 C 11.940474,20.09759 22.043105,11.32322 32.158766,21.979434 L 37.068811,17.246167 C 37.068811,17.246167 37.088388,32 37.088388,32 L 22.160133,31.978069 C 22.160133,31.978069 26.997745,27.140456 26.997745,27.140456 C 18.528582,18.264221 13.291696,25.230495 11.500037,31.436501 z"
     style="fill:#404040;"/>
  </a>
 </g>
</svg>

<style type='text/css'>
<![CDATA[
[data-mouse-over-selected='false'] { opacity: 0.7; }
[data-mouse-over-selected='true']  { opacity: 1.0; }
]]>
</style>
<script type="application/ecmascript"><![CDATA[
document.addEventListener('DOMContentLoaded', (event) => {
  highlightEdges();
  highlightAdjacentNodes();
});
]]></script>
</svg>
