<?xml version="1.0" encoding="UTF-8" standalone="no"?>
<!--
  - Copyright (c) 2021-2024 Bearsampp
  - License:  GNU General Public License version 3 or later; see LICENSE.txt
  - Author: Bear
  - Website: https://bearsampp.com
  - Github: https://github.com/Bearsampp
  -->

<!DOCTYPE svg PUBLIC "-//W3C//DTD SVG 1.1//EN"
 "http://www.w3.org/Graphics/SVG/1.1/DTD/svg11.dtd">
<!-- Generated by graphviz version 11.0.0 (20240428.1522)
 -->
<!-- Title: Util\disableLaunchStartup Pages: 1 -->
<svg width="651pt" height="108pt"
 viewBox="0.00 0.00 650.75 108.00" xmlns="http://www.w3.org/2000/svg" xmlns:xlink="http://www.w3.org/1999/xlink">
<g id="graph0" class="graph" transform="scale(1 1) rotate(0) translate(4 104)">
<title>Util\disableLaunchStartup</title>
<!-- Node1 -->
<g id="Node000001" class="node">
<title>Node1</title>
<g id="a_Node000001"><a xlink:title=" ">
<polygon fill="#999999" stroke="#666666" points="642.75,-61.75 467,-61.75 467,-37.25 642.75,-37.25 642.75,-61.75"/>
<text text-anchor="middle" x="554.88" y="-44.45" font-family="Helvetica,sans-Serif" font-size="14.00">Util\disableLaunchStartup</text>
</a>
</g>
</g>
<!-- Node2 -->
<g id="Node000002" class="node">
<title>Node2</title>
<g id="a_Node000002"><a xlink:href="../../d7/d5e/classActionLaunchStartup.html#ac73132d2feaecbc33b08f312c698e035" target="_top" xlink:title=" ">
<polygon fill="white" stroke="#666666" points="410.38,-100 263.88,-100 263.88,-59 410.38,-59 410.38,-100"/>
<text text-anchor="start" x="271.88" y="-82.7" font-family="Helvetica,sans-Serif" font-size="14.00">ActionLaunchStartup</text>
<text text-anchor="middle" x="337.12" y="-66.2" font-family="Helvetica,sans-Serif" font-size="14.00">\__construct</text>
</a>
</g>
</g>
<!-- Node1&#45;&gt;Node2 -->
<g id="edge1_Node000001_Node000002" class="edge">
<title>Node1&#45;&gt;Node2</title>
<g id="a_edge1_Node000001_Node000002"><a xlink:title=" ">
<path fill="none" stroke="#63b8ff" d="M455.77,-63.14C440.61,-65.25 425.19,-67.39 410.72,-69.41"/>
<polygon fill="#63b8ff" stroke="#63b8ff" points="455.82,-66.67 465.24,-61.82 454.86,-59.73 455.82,-66.67"/>
</a>
</g>
</g>
<!-- Node3 -->
<g id="Node000003" class="node">
<title>Node3</title>
<g id="a_Node000003"><a xlink:href="../../d1/db8/classActionStartup.html#a8bce5b2ec99fc47b5e454fd09f926e10" target="_top" xlink:title=" ">
<polygon fill="white" stroke="#666666" points="431,-41 243.25,-41 243.25,0 431,0 431,-41"/>
<text text-anchor="start" x="251.25" y="-23.7" font-family="Helvetica,sans-Serif" font-size="14.00">ActionStartup\checkLaunch</text>
<text text-anchor="middle" x="337.12" y="-7.2" font-family="Helvetica,sans-Serif" font-size="14.00">Startup</text>
</a>
</g>
</g>
<!-- Node1&#45;&gt;Node3 -->
<g id="edge2_Node000001_Node000003" class="edge">
<title>Node1&#45;&gt;Node3</title>
<g id="a_edge2_Node000001_Node000003"><a xlink:title=" ">
<path fill="none" stroke="#63b8ff" d="M455.42,-36.27C447.36,-35.18 439.24,-34.09 431.22,-33.01"/>
<polygon fill="#63b8ff" stroke="#63b8ff" points="454.87,-39.72 465.24,-37.59 455.8,-32.79 454.87,-39.72"/>
</a>
</g>
</g>
<!-- Node4 -->
<g id="Node000004" class="node">
<title>Node4</title>
<g id="a_Node000004"><a xlink:href="../../d1/db8/classActionStartup.html#a1234a0f2093a95140d6f86983514d28f" target="_top" xlink:title=" ">
<polygon fill="white" stroke="#666666" points="207.25,-32.75 0,-32.75 0,-8.25 207.25,-8.25 207.25,-32.75"/>
<text text-anchor="middle" x="103.63" y="-15.45" font-family="Helvetica,sans-Serif" font-size="14.00">ActionStartup\processWindow</text>
</a>
</g>
</g>
<!-- Node3&#45;&gt;Node4 -->
<g id="edge3_Node000003_Node000004" class="edge">
<title>Node3&#45;&gt;Node4</title>
<g id="a_edge3_Node000003_Node000004"><a xlink:title=" ">
<path fill="none" stroke="#63b8ff" d="M231.66,-20.5C223.61,-20.5 215.49,-20.5 207.46,-20.5"/>
<polygon fill="#63b8ff" stroke="#63b8ff" points="231.45,-24 241.45,-20.5 231.45,-17 231.45,-24"/>
</a>
</g>
</g>
</g>
</svg>
