<?xml version="1.0" encoding="UTF-8" standalone="no"?>
<!--
  - Copyright (c) 2021-2024 Bearsampp
  - License:  GNU General Public License version 3 or later; see LICENSE.txt
  - Author: Bear
  - Website: https://bearsampp.com
  - Github: https://github.com/Bearsampp
  -->

<!DOCTYPE svg PUBLIC "-//W3C//DTD SVG 1.1//EN"
 "http://www.w3.org/Graphics/SVG/1.1/DTD/svg11.dtd">
<!-- Generated by graphviz version 11.0.0 (20240428.1522)
 -->
<!-- Title: Util\findRepos Pages: 1 -->
<svg width="282pt" height="51pt"
 viewBox="0.00 0.00 281.50 50.50" xmlns="http://www.w3.org/2000/svg" xmlns:xlink="http://www.w3.org/1999/xlink">
<g id="graph0" class="graph" transform="scale(1 1) rotate(0) translate(4 46.5)">
<title>Util\findRepos</title>
<!-- Node1 -->
<g id="Node000001" class="node">
<title>Node1</title>
<g id="a_Node000001"><a xlink:title=" ">
<polygon fill="#999999" stroke="#666666" points="273.5,-24.5 168.25,-24.5 168.25,0 273.5,0 273.5,-24.5"/>
<text text-anchor="middle" x="220.88" y="-7.2" font-family="Helvetica,sans-Serif" font-size="14.00">Util\findRepos</text>
</a>
</g>
</g>
<!-- Node1&#45;&gt;Node1 -->
<g id="edge2_Node000001_Node000001" class="edge">
<title>Node1&#45;&gt;Node1</title>
<g id="a_edge2_Node000001_Node000001"><a xlink:title=" ">
<path fill="none" stroke="#63b8ff" d="M247.23,-36.43C243.15,-40.05 234.36,-42.5 220.88,-42.5 195.49,-42.5 186.76,-33.81 194.69,-24.99"/>
<polygon fill="#63b8ff" stroke="#63b8ff" points="250.73,-36.45 247.08,-26.51 243.73,-36.56 250.73,-36.45"/>
</a>
</g>
</g>
<!-- Node2 -->
<g id="Node000002" class="node">
<title>Node2</title>
<g id="a_Node000002"><a xlink:href="../../d3/dc0/classToolGit.html#a04b644cec0f5f45c618eb7948c3d4689" target="_top" xlink:title=" ">
<polygon fill="white" stroke="#666666" points="132.25,-24.5 0,-24.5 0,0 132.25,0 132.25,-24.5"/>
<text text-anchor="middle" x="66.12" y="-7.2" font-family="Helvetica,sans-Serif" font-size="14.00">ToolGit\findRepos</text>
</a>
</g>
</g>
<!-- Node1&#45;&gt;Node2 -->
<g id="edge1_Node000001_Node000002" class="edge">
<title>Node1&#45;&gt;Node2</title>
<g id="a_edge1_Node000001_Node000002"><a xlink:title=" ">
<path fill="none" stroke="#63b8ff" d="M156.69,-12.25C148.74,-12.25 140.59,-12.25 132.6,-12.25"/>
<polygon fill="#63b8ff" stroke="#63b8ff" points="156.65,-15.75 166.65,-12.25 156.65,-8.75 156.65,-15.75"/>
</a>
</g>
</g>
</g>
</svg>
