<?xml version="1.0" encoding="UTF-8" standalone="no"?>
<!--
  - Copyright (c) 2021-2024 Bearsampp
  - License:  GNU General Public License version 3 or later; see LICENSE.txt
  - Author: Bear
  - Website: https://bearsampp.com
  - Github: https://github.com/Bearsampp
  -->

<!DOCTYPE svg PUBLIC "-//W3C//DTD SVG 1.1//EN"
 "http://www.w3.org/Graphics/SVG/1.1/DTD/svg11.dtd">
<!-- Generated by graphviz version 11.0.0 (20240428.1522)
 -->
<!-- Title: Util\decryptFile Pages: 1 -->
<svg width="840pt" height="108pt"
 viewBox="0.00 0.00 840.25 108.00" xmlns="http://www.w3.org/2000/svg" xmlns:xlink="http://www.w3.org/1999/xlink">
<g id="graph0" class="graph" transform="scale(1 1) rotate(0) translate(4 104)">
<title>Util\decryptFile</title>
<!-- Node1 -->
<g id="Node000001" class="node">
<title>Node1</title>
<g id="a_Node000001"><a xlink:title=" ">
<polygon fill="#999999" stroke="#666666" points="832.25,-61.75 722.5,-61.75 722.5,-37.25 832.25,-37.25 832.25,-61.75"/>
<text text-anchor="middle" x="777.38" y="-44.45" font-family="Helvetica,sans-Serif" font-size="14.00">Util\decryptFile</text>
</a>
</g>
</g>
<!-- Node2 -->
<g id="Node000002" class="node">
<title>Node2</title>
<g id="a_Node000002"><a xlink:href="../../d6/de4/classUtil.html#af57b90dfa2130e20317bd06c847efd31" target="_top" xlink:title=" ">
<polygon fill="white" stroke="#666666" points="686.5,-70 511.5,-70 511.5,-29 686.5,-29 686.5,-70"/>
<text text-anchor="start" x="519.5" y="-52.7" font-family="Helvetica,sans-Serif" font-size="14.00">Util\setupCurlHeaderWith</text>
<text text-anchor="middle" x="599" y="-36.2" font-family="Helvetica,sans-Serif" font-size="14.00">Token</text>
</a>
</g>
</g>
<!-- Node1&#45;&gt;Node2 -->
<g id="edge1_Node000001_Node000002" class="edge">
<title>Node1&#45;&gt;Node2</title>
<g id="a_edge1_Node000001_Node000002"><a xlink:title=" ">
<path fill="none" stroke="#63b8ff" d="M710.54,-49.5C702.84,-49.5 694.89,-49.5 686.95,-49.5"/>
<polygon fill="#63b8ff" stroke="#63b8ff" points="710.5,-53 720.5,-49.5 710.5,-46 710.5,-53"/>
</a>
</g>
</g>
<!-- Node3 -->
<g id="Node000003" class="node">
<title>Node3</title>
<g id="a_Node000003"><a xlink:href="../../d6/de4/classUtil.html#a2029903d461c826c413344971453452e" target="_top" xlink:title=" ">
<polygon fill="white" stroke="#666666" points="475.5,-61.75 364.25,-61.75 364.25,-37.25 475.5,-37.25 475.5,-61.75"/>
<text text-anchor="middle" x="419.88" y="-44.45" font-family="Helvetica,sans-Serif" font-size="14.00">Util\getApiJson</text>
</a>
</g>
</g>
<!-- Node2&#45;&gt;Node3 -->
<g id="edge2_Node000002_Node000003" class="edge">
<title>Node2&#45;&gt;Node3</title>
<g id="a_edge2_Node000002_Node000003"><a xlink:title=" ">
<path fill="none" stroke="#63b8ff" d="M499.93,-49.5C491.65,-49.5 483.49,-49.5 475.73,-49.5"/>
<polygon fill="#63b8ff" stroke="#63b8ff" points="499.74,-53 509.74,-49.5 499.74,-46 499.74,-53"/>
</a>
</g>
</g>
<!-- Node4 -->
<g id="Node000004" class="node">
<title>Node4</title>
<g id="a_Node000004"><a xlink:href="../../d6/de4/classUtil.html#a6dafc082873c0ddc5f60e30cc80405a7" target="_top" xlink:title=" ">
<polygon fill="white" stroke="#666666" points="328.25,-61.75 181,-61.75 181,-37.25 328.25,-37.25 328.25,-61.75"/>
<text text-anchor="middle" x="254.62" y="-44.45" font-family="Helvetica,sans-Serif" font-size="14.00">Util\getLatestVersion</text>
</a>
</g>
</g>
<!-- Node3&#45;&gt;Node4 -->
<g id="edge3_Node000003_Node000004" class="edge">
<title>Node3&#45;&gt;Node4</title>
<g id="a_edge3_Node000003_Node000004"><a xlink:title=" ">
<path fill="none" stroke="#63b8ff" d="M352.63,-49.5C344.7,-49.5 336.58,-49.5 328.56,-49.5"/>
<polygon fill="#63b8ff" stroke="#63b8ff" points="352.55,-53 362.55,-49.5 352.55,-46 352.55,-53"/>
</a>
</g>
</g>
<!-- Node5 -->
<g id="Node000005" class="node">
<title>Node5</title>
<g id="a_Node000005"><a xlink:href="../../da/d27/classActionCheckVersion.html#a28bc17b27165f0051d6daa9b4db830d3" target="_top" xlink:title=" ">
<polygon fill="white" stroke="#666666" points="145,-100 0,-100 0,-59 145,-59 145,-100"/>
<text text-anchor="start" x="8" y="-82.7" font-family="Helvetica,sans-Serif" font-size="14.00">ActionCheckVersion</text>
<text text-anchor="middle" x="72.5" y="-66.2" font-family="Helvetica,sans-Serif" font-size="14.00">\__construct</text>
</a>
</g>
</g>
<!-- Node4&#45;&gt;Node5 -->
<g id="edge4_Node000004_Node000005" class="edge">
<title>Node4&#45;&gt;Node5</title>
<g id="a_edge4_Node000004_Node000005"><a xlink:title=" ">
<path fill="none" stroke="#63b8ff" d="M169.38,-63.53C161.37,-64.86 153.31,-66.21 145.44,-67.52"/>
<polygon fill="#63b8ff" stroke="#63b8ff" points="169.84,-67 179.13,-61.91 168.69,-60.1 169.84,-67"/>
</a>
</g>
</g>
<!-- Node6 -->
<g id="Node000006" class="node">
<title>Node6</title>
<g id="a_Node000006"><a xlink:href="../../da/d27/classActionCheckVersion.html#a121722c888676742d9b42688a48adb86" target="_top" xlink:title=" ">
<polygon fill="white" stroke="#666666" points="145,-41 0,-41 0,0 145,0 145,-41"/>
<text text-anchor="start" x="8" y="-23.7" font-family="Helvetica,sans-Serif" font-size="14.00">ActionCheckVersion</text>
<text text-anchor="middle" x="72.5" y="-7.2" font-family="Helvetica,sans-Serif" font-size="14.00">\processWindow</text>
</a>
</g>
</g>
<!-- Node4&#45;&gt;Node6 -->
<g id="edge5_Node000004_Node000006" class="edge">
<title>Node4&#45;&gt;Node6</title>
<g id="a_edge5_Node000004_Node000006"><a xlink:title=" ">
<path fill="none" stroke="#63b8ff" d="M169.38,-35.94C161.37,-34.65 153.31,-33.35 145.44,-32.08"/>
<polygon fill="#63b8ff" stroke="#63b8ff" points="168.7,-39.37 179.13,-37.51 169.81,-32.46 168.7,-39.37"/>
</a>
</g>
</g>
</g>
</svg>
