<?xml version="1.0" encoding="UTF-8" standalone="no"?>
<!--
  - Copyright (c) 2021-2024 Bearsampp
  - License:  GNU General Public License version 3 or later; see LICENSE.txt
  - Author: Bear
  - Website: https://bearsampp.com
  - Github: https://github.com/Bearsampp
  -->

<!DOCTYPE svg PUBLIC "-//W3C//DTD SVG 1.1//EN"
 "http://www.w3.org/Graphics/SVG/1.1/DTD/svg11.dtd">
<!-- Generated by graphviz version 11.0.0 (20240428.1522)
 -->
<!-- Title: Util\isValidDomainName Pages: 1 -->
<svg width="437pt" height="76pt"
 viewBox="0.00 0.00 436.75 75.50" xmlns="http://www.w3.org/2000/svg" xmlns:xlink="http://www.w3.org/1999/xlink">
<g id="graph0" class="graph" transform="scale(1 1) rotate(0) translate(4 71.5)">
<title>Util\isValidDomainName</title>
<!-- Node1 -->
<g id="Node000001" class="node">
<title>Node1</title>
<g id="a_Node000001"><a xlink:title=" ">
<polygon fill="#999999" stroke="#666666" points="428.75,-45.5 261.25,-45.5 261.25,-21 428.75,-21 428.75,-45.5"/>
<text text-anchor="middle" x="345" y="-28.2" font-family="Helvetica,sans-Serif" font-size="14.00">Util\isValidDomainName</text>
</a>
</g>
</g>
<!-- Node2 -->
<g id="Node000002" class="node">
<title>Node2</title>
<g id="a_Node000002"><a xlink:href="../../dc/d14/classActionAddVhost.html#a03523cfe4c23fd07d8f48201efd74d2a" target="_top" xlink:title=" ">
<polygon fill="white" stroke="#666666" points="225.25,-67.5 0,-67.5 0,-43 225.25,-43 225.25,-67.5"/>
<text text-anchor="middle" x="112.62" y="-50.2" font-family="Helvetica,sans-Serif" font-size="14.00">ActionAddVhost\processWindow</text>
</a>
</g>
</g>
<!-- Node1&#45;&gt;Node2 -->
<g id="edge1_Node000001_Node000002" class="edge">
<title>Node1&#45;&gt;Node2</title>
<g id="a_edge1_Node000001_Node000002"><a xlink:title=" ">
<path fill="none" stroke="#63b8ff" d="M249.41,-42.28C241.53,-43.04 233.53,-43.8 225.54,-44.56"/>
<polygon fill="#63b8ff" stroke="#63b8ff" points="249.7,-45.77 259.32,-41.34 249.04,-38.8 249.7,-45.77"/>
</a>
</g>
</g>
<!-- Node3 -->
<g id="Node000003" class="node">
<title>Node3</title>
<g id="a_Node000003"><a xlink:href="../../da/d7d/classActionEditVhost.html#a36262023eef854f2e5d7e57fe198f5ee" target="_top" xlink:title=" ">
<polygon fill="white" stroke="#666666" points="224.5,-24.5 0.75,-24.5 0.75,0 224.5,0 224.5,-24.5"/>
<text text-anchor="middle" x="112.62" y="-7.2" font-family="Helvetica,sans-Serif" font-size="14.00">ActionEditVhost\processWindow</text>
</a>
</g>
</g>
<!-- Node1&#45;&gt;Node3 -->
<g id="edge2_Node000001_Node000003" class="edge">
<title>Node1&#45;&gt;Node3</title>
<g id="a_edge2_Node000001_Node000003"><a xlink:title=" ">
<path fill="none" stroke="#63b8ff" d="M249.43,-24.63C241.29,-23.89 233,-23.13 224.74,-22.38"/>
<polygon fill="#63b8ff" stroke="#63b8ff" points="249.05,-28.11 259.32,-25.53 249.68,-21.14 249.05,-28.11"/>
</a>
</g>
</g>
</g>
</svg>
