<?xml version="1.0" encoding="UTF-8" standalone="no"?>
<!--
  - Copyright (c) 2021-2024 Bearsampp
  - License:  GNU General Public License version 3 or later; see LICENSE.txt
  - Author: Bear
  - Website: https://bearsampp.com
  - Github: https://github.com/Bearsampp
  -->

<!DOCTYPE svg PUBLIC "-//W3C//DTD SVG 1.1//EN"
 "http://www.w3.org/Graphics/SVG/1.1/DTD/svg11.dtd">
<!-- Generated by graphviz version 11.0.0 (20240428.1522)
 -->
<!-- Title: Util\getPathsToScan Pages: 1 -->
<svg width="791pt" height="92pt"
 viewBox="0.00 0.00 791.25 91.75" xmlns="http://www.w3.org/2000/svg" xmlns:xlink="http://www.w3.org/1999/xlink">
<g id="graph0" class="graph" transform="scale(1 1) rotate(0) translate(4 87.75)">
<title>Util\getPathsToScan</title>
<!-- Node1 -->
<g id="Node000001" class="node">
<title>Node1</title>
<g id="a_Node000001"><a xlink:title=" ">
<polygon fill="#999999" stroke="#666666" points="783.25,-49.5 638.25,-49.5 638.25,-25 783.25,-25 783.25,-49.5"/>
<text text-anchor="middle" x="710.75" y="-32.2" font-family="Helvetica,sans-Serif" font-size="14.00">Util\getPathsToScan</text>
</a>
</g>
</g>
<!-- Node2 -->
<g id="Node000002" class="node">
<title>Node2</title>
<g id="a_Node000002"><a xlink:href="../../d6/de4/classUtil.html#a55280bd0193da8aabb79ac6f6785ecf5" target="_top" xlink:title=" ">
<polygon fill="white" stroke="#666666" points="602.25,-49.5 462.5,-49.5 462.5,-25 602.25,-25 602.25,-49.5"/>
<text text-anchor="middle" x="532.38" y="-32.2" font-family="Helvetica,sans-Serif" font-size="14.00">Util\getFilesToScan</text>
</a>
</g>
</g>
<!-- Node1&#45;&gt;Node2 -->
<g id="edge1_Node000001_Node000002" class="edge">
<title>Node1&#45;&gt;Node2</title>
<g id="a_edge1_Node000001_Node000002"><a xlink:title=" ">
<path fill="none" stroke="#63b8ff" d="M626.5,-37.25C618.49,-37.25 610.43,-37.25 602.57,-37.25"/>
<polygon fill="#63b8ff" stroke="#63b8ff" points="626.24,-40.75 636.24,-37.25 626.24,-33.75 626.24,-40.75"/>
</a>
</g>
</g>
<!-- Node3 -->
<g id="Node000003" class="node">
<title>Node3</title>
<g id="a_Node000003"><a xlink:href="../../d6/dff/classActionSwitchVersion.html#a89f1ff41b1715ca23ea9f9d35f7ff643" target="_top" xlink:title=" ">
<polygon fill="white" stroke="#666666" points="407.75,-83.75 262,-83.75 262,-42.75 407.75,-42.75 407.75,-83.75"/>
<text text-anchor="start" x="270" y="-66.45" font-family="Helvetica,sans-Serif" font-size="14.00">ActionSwitchVersion</text>
<text text-anchor="middle" x="334.88" y="-49.95" font-family="Helvetica,sans-Serif" font-size="14.00">\processWindow</text>
</a>
</g>
</g>
<!-- Node2&#45;&gt;Node3 -->
<g id="edge2_Node000002_Node000003" class="edge">
<title>Node2&#45;&gt;Node3</title>
<g id="a_edge2_Node000002_Node000003"><a xlink:title=" ">
<path fill="none" stroke="#63b8ff" d="M450.9,-47.95C436.67,-49.85 421.94,-51.8 407.96,-53.66"/>
<polygon fill="#63b8ff" stroke="#63b8ff" points="451.22,-51.44 460.67,-46.65 450.3,-44.5 451.22,-51.44"/>
</a>
</g>
</g>
<!-- Node4 -->
<g id="Node000004" class="node">
<title>Node4</title>
<g id="a_Node000004"><a xlink:href="../../d1/db8/classActionStartup.html#ac821b68c4b5464e564fbd59fc51f9ceb" target="_top" xlink:title=" ">
<polygon fill="white" stroke="#666666" points="426.5,-24.5 243.25,-24.5 243.25,0 426.5,0 426.5,-24.5"/>
<text text-anchor="middle" x="334.88" y="-7.2" font-family="Helvetica,sans-Serif" font-size="14.00">ActionStartup\scanFolders</text>
</a>
</g>
</g>
<!-- Node2&#45;&gt;Node4 -->
<g id="edge3_Node000002_Node000004" class="edge">
<title>Node2&#45;&gt;Node4</title>
<g id="a_edge3_Node000002_Node000004"><a xlink:title=" ">
<path fill="none" stroke="#63b8ff" d="M450.77,-26.94C442.89,-25.94 434.86,-24.91 426.9,-23.89"/>
<polygon fill="#63b8ff" stroke="#63b8ff" points="450.31,-30.41 460.67,-28.21 451.2,-23.47 450.31,-30.41"/>
</a>
</g>
</g>
<!-- Node5 -->
<g id="Node000005" class="node">
<title>Node5</title>
<g id="a_Node000005"><a xlink:href="../../d1/db8/classActionStartup.html#a1234a0f2093a95140d6f86983514d28f" target="_top" xlink:title=" ">
<polygon fill="white" stroke="#666666" points="207.25,-24.5 0,-24.5 0,0 207.25,0 207.25,-24.5"/>
<text text-anchor="middle" x="103.63" y="-7.2" font-family="Helvetica,sans-Serif" font-size="14.00">ActionStartup\processWindow</text>
</a>
</g>
</g>
<!-- Node4&#45;&gt;Node5 -->
<g id="edge4_Node000004_Node000005" class="edge">
<title>Node4&#45;&gt;Node5</title>
<g id="a_edge4_Node000004_Node000005"><a xlink:title=" ">
<path fill="none" stroke="#63b8ff" d="M231.68,-12.25C223.67,-12.25 215.57,-12.25 207.55,-12.25"/>
<polygon fill="#63b8ff" stroke="#63b8ff" points="231.43,-15.75 241.43,-12.25 231.43,-8.75 231.43,-15.75"/>
</a>
</g>
</g>
</g>
</svg>
