<?xml version="1.0" encoding="UTF-8" standalone="no"?>
<!--
  - Copyright (c) 2021-2024 Bearsampp
  - License:  GNU General Public License version 3 or later; see LICENSE.txt
  - Author: Bear
  - Website: https://bearsampp.com
  - Github: https://github.com/Bearsampp
  -->

<!DOCTYPE svg PUBLIC "-//W3C//DTD SVG 1.1//EN"
 "http://www.w3.org/Graphics/SVG/1.1/DTD/svg11.dtd">
<!-- Generated by graphviz version 11.0.0 (20240428.1522)
 -->
<!-- Title: Util\getWebsiteUrl Pages: 1 -->
<svg width="874pt" height="694pt"
 viewBox="0.00 0.00 873.75 693.50" xmlns="http://www.w3.org/2000/svg" xmlns:xlink="http://www.w3.org/1999/xlink">
<g id="graph0" class="graph" transform="scale(1 1) rotate(0) translate(4 689.5)">
<title>Util\getWebsiteUrl</title>
<!-- Node1 -->
<g id="Node000001" class="node">
<title>Node1</title>
<g id="a_Node000001"><a xlink:title=" ">
<polygon fill="#999999" stroke="#666666" points="865.75,-362.5 735.75,-362.5 735.75,-338 865.75,-338 865.75,-362.5"/>
<text text-anchor="middle" x="800.75" y="-345.2" font-family="Helvetica,sans-Serif" font-size="14.00">Util\getWebsiteUrl</text>
</a>
</g>
</g>
<!-- Node2 -->
<g id="Node000002" class="node">
<title>Node2</title>
<g id="a_Node000002"><a xlink:href="../../d6/de4/classUtil.html#a690f391c79273677963c70b92664f60e" target="_top" xlink:title=" ">
<polygon fill="white" stroke="#666666" points="634.12,-685.5 488.38,-685.5 488.38,-661 634.12,-661 634.12,-685.5"/>
<text text-anchor="middle" x="561.25" y="-668.2" font-family="Helvetica,sans-Serif" font-size="14.00">Util\getChangelogUrl</text>
</a>
</g>
</g>
<!-- Node1&#45;&gt;Node2 -->
<g id="edge1_Node000001_Node000002" class="edge">
<title>Node1&#45;&gt;Node2</title>
<g id="a_edge1_Node000001_Node000002"><a xlink:title=" ">
<path fill="none" stroke="#63b8ff" d="M799.62,-374.19C797.92,-431.81 784.99,-578.82 699.75,-651.25 681.79,-666.51 657.56,-673.34 634.45,-675.95"/>
<polygon fill="#63b8ff" stroke="#63b8ff" points="803.12,-374.3 799.81,-364.23 796.12,-374.16 803.12,-374.3"/>
</a>
</g>
</g>
<!-- Node3 -->
<g id="Node000003" class="node">
<title>Node3</title>
<g id="a_Node000003"><a xlink:href="../../d9/d51/classTplAppApache.html#a41883e060efdff6f2d33a272b7c3faae" target="_top" xlink:title=" ">
<polygon fill="white" stroke="#666666" points="670.5,-642.5 452,-642.5 452,-618 670.5,-618 670.5,-642.5"/>
<text text-anchor="middle" x="561.25" y="-625.2" font-family="Helvetica,sans-Serif" font-size="14.00">TplAppApache\getMenuApache</text>
</a>
</g>
</g>
<!-- Node1&#45;&gt;Node3 -->
<g id="edge2_Node000001_Node000003" class="edge">
<title>Node1&#45;&gt;Node3</title>
<g id="a_edge2_Node000001_Node000003"><a xlink:title=" ">
<path fill="none" stroke="#63b8ff" d="M798.11,-374.28C793.21,-426.05 773.95,-548.27 699.75,-608.25 691.2,-615.17 681.34,-620.32 670.91,-624.11"/>
<polygon fill="#63b8ff" stroke="#63b8ff" points="801.59,-374.75 798.93,-364.5 794.61,-374.17 801.59,-374.75"/>
</a>
</g>
</g>
<!-- Node4 -->
<g id="Node000004" class="node">
<title>Node4</title>
<g id="a_Node000004"><a xlink:href="../../d0/d23/classTplAppFilezilla.html#ac79291983a2d52baddaff20066557be6" target="_top" xlink:title=" ">
<polygon fill="white" stroke="#666666" points="668.25,-599.5 454.25,-599.5 454.25,-575 668.25,-575 668.25,-599.5"/>
<text text-anchor="middle" x="561.25" y="-582.2" font-family="Helvetica,sans-Serif" font-size="14.00">TplAppFilezilla\getMenuFilezilla</text>
</a>
</g>
</g>
<!-- Node1&#45;&gt;Node4 -->
<g id="edge3_Node000001_Node000004" class="edge">
<title>Node1&#45;&gt;Node4</title>
<g id="a_edge3_Node000001_Node000004"><a xlink:title=" ">
<path fill="none" stroke="#63b8ff" d="M796.06,-374.3C787.75,-419.61 763.1,-517.39 699.75,-565.25 690.49,-572.25 679.87,-577.39 668.72,-581.13"/>
<polygon fill="#63b8ff" stroke="#63b8ff" points="799.5,-374.93 797.74,-364.48 792.6,-373.75 799.5,-374.93"/>
</a>
</g>
</g>
<!-- Node5 -->
<g id="Node000005" class="node">
<title>Node5</title>
<g id="a_Node000005"><a xlink:href="../../d4/d8a/classTplAppMailhog.html#a67c2c3057bcdaac6cf91614662582c6d" target="_top" xlink:title=" ">
<polygon fill="white" stroke="#666666" points="670.5,-556.5 452,-556.5 452,-532 670.5,-532 670.5,-556.5"/>
<text text-anchor="middle" x="561.25" y="-539.2" font-family="Helvetica,sans-Serif" font-size="14.00">TplAppMailhog\getMenuMailhog</text>
</a>
</g>
</g>
<!-- Node1&#45;&gt;Node5 -->
<g id="edge4_Node000001_Node000005" class="edge">
<title>Node1&#45;&gt;Node5</title>
<g id="a_edge4_Node000001_Node000005"><a xlink:title=" ">
<path fill="none" stroke="#63b8ff" d="M793.27,-373.72C781.47,-411.67 752.69,-485.92 699.75,-522.25 690.98,-528.27 681.16,-532.87 670.92,-536.36"/>
<polygon fill="#63b8ff" stroke="#63b8ff" points="796.6,-374.8 796.08,-364.21 789.89,-372.81 796.6,-374.8"/>
</a>
</g>
</g>
<!-- Node6 -->
<g id="Node000006" class="node">
<title>Node6</title>
<g id="a_Node000006"><a xlink:href="../../d8/dd3/classTplAppMailpit.html#a6b11486b7c0c3abff5bd9a69107e739f" target="_top" xlink:title=" ">
<polygon fill="white" stroke="#666666" points="661.5,-513.5 461,-513.5 461,-489 661.5,-489 661.5,-513.5"/>
<text text-anchor="middle" x="561.25" y="-496.2" font-family="Helvetica,sans-Serif" font-size="14.00">TplAppMailpit\getMenuMailpit</text>
</a>
</g>
</g>
<!-- Node1&#45;&gt;Node6 -->
<g id="edge5_Node000001_Node000006" class="edge">
<title>Node1&#45;&gt;Node6</title>
<g id="a_edge5_Node000001_Node000006"><a xlink:title=" ">
<path fill="none" stroke="#63b8ff" d="M789.01,-372.94C773.68,-402.64 742.55,-453.88 699.75,-479.25 688.21,-486.09 675.21,-491 661.92,-494.49"/>
<polygon fill="#63b8ff" stroke="#63b8ff" points="792.11,-374.58 793.43,-364.06 785.84,-371.45 792.11,-374.58"/>
</a>
</g>
</g>
<!-- Node7 -->
<g id="Node000007" class="node">
<title>Node7</title>
<g id="a_Node000007"><a xlink:href="../../d4/de1/classTplAppMariadb.html#a46c8afea1780be6bdd5989bccb0c67e2" target="_top" xlink:title=" ">
<polygon fill="white" stroke="#666666" points="672,-470.5 450.5,-470.5 450.5,-446 672,-446 672,-470.5"/>
<text text-anchor="middle" x="561.25" y="-453.2" font-family="Helvetica,sans-Serif" font-size="14.00">TplAppMariadb\getMenuMariadb</text>
</a>
</g>
</g>
<!-- Node1&#45;&gt;Node7 -->
<g id="edge6_Node000001_Node000007" class="edge">
<title>Node1&#45;&gt;Node7</title>
<g id="a_edge6_Node000001_Node000007"><a xlink:title=" ">
<path fill="none" stroke="#63b8ff" d="M781.68,-371.45C763.24,-391.57 732.71,-420.95 699.75,-436.25 691.09,-440.27 681.83,-443.57 672.35,-446.28"/>
<polygon fill="#63b8ff" stroke="#63b8ff" points="784.22,-373.86 788.26,-364.07 778.99,-369.2 784.22,-373.86"/>
</a>
</g>
</g>
<!-- Node8 -->
<g id="Node000008" class="node">
<title>Node8</title>
<g id="a_Node000008"><a xlink:href="../../d8/dff/classTplAppMemcached.html#aefb8013320c0321bd6f3727349ea1045" target="_top" xlink:title=" ">
<polygon fill="white" stroke="#666666" points="699.75,-427.5 422.75,-427.5 422.75,-403 699.75,-403 699.75,-427.5"/>
<text text-anchor="middle" x="561.25" y="-410.2" font-family="Helvetica,sans-Serif" font-size="14.00">TplAppMemcached\getMenuMemcached</text>
</a>
</g>
</g>
<!-- Node1&#45;&gt;Node8 -->
<g id="edge7_Node000001_Node000008" class="edge">
<title>Node1&#45;&gt;Node8</title>
<g id="a_edge7_Node000001_Node000008"><a xlink:title=" ">
<path fill="none" stroke="#63b8ff" d="M764.72,-367.85C745.88,-376.66 722,-386.79 699.75,-393.25 687.21,-396.89 673.85,-399.97 660.56,-402.57"/>
<polygon fill="#63b8ff" stroke="#63b8ff" points="766.02,-371.1 773.54,-363.64 763.01,-364.79 766.02,-371.1"/>
</a>
</g>
</g>
<!-- Node9 -->
<g id="Node000009" class="node">
<title>Node9</title>
<g id="a_Node000009"><a xlink:href="../../d6/d19/classTplAppMysql.html#ab73238f0e33b03f8ce20144b582e5609" target="_top" xlink:title=" ">
<polygon fill="white" stroke="#666666" points="658.5,-384.5 464,-384.5 464,-360 658.5,-360 658.5,-384.5"/>
<text text-anchor="middle" x="561.25" y="-367.2" font-family="Helvetica,sans-Serif" font-size="14.00">TplAppMysql\getMenuMysql</text>
</a>
</g>
</g>
<!-- Node1&#45;&gt;Node9 -->
<g id="edge8_Node000001_Node000009" class="edge">
<title>Node1&#45;&gt;Node9</title>
<g id="a_edge8_Node000001_Node000009"><a xlink:title=" ">
<path fill="none" stroke="#63b8ff" d="M724.15,-357.25C703.35,-359.18 680.51,-361.3 658.71,-363.32"/>
<polygon fill="#63b8ff" stroke="#63b8ff" points="724.34,-360.75 733.97,-356.34 723.69,-353.78 724.34,-360.75"/>
</a>
</g>
</g>
<!-- Node10 -->
<g id="Node000010" class="node">
<title>Node10</title>
<g id="a_Node000010"><a xlink:href="../../dc/d32/classTplAppNodejs.html#ae6136fcf0895063f90caa2b191d0d11b" target="_top" xlink:title=" ">
<polygon fill="white" stroke="#666666" points="666.75,-341.5 455.75,-341.5 455.75,-317 666.75,-317 666.75,-341.5"/>
<text text-anchor="middle" x="561.25" y="-324.2" font-family="Helvetica,sans-Serif" font-size="14.00">TplAppNodejs\getMenuNodejs</text>
</a>
</g>
</g>
<!-- Node1&#45;&gt;Node10 -->
<g id="edge9_Node000001_Node000010" class="edge">
<title>Node1&#45;&gt;Node10</title>
<g id="a_edge9_Node000001_Node000010"><a xlink:title=" ">
<path fill="none" stroke="#63b8ff" d="M724.07,-343.56C705.87,-341.95 686.12,-340.2 666.86,-338.5"/>
<polygon fill="#63b8ff" stroke="#63b8ff" points="723.7,-347.04 733.97,-344.43 724.32,-340.07 723.7,-347.04"/>
</a>
</g>
</g>
<!-- Node11 -->
<g id="Node000011" class="node">
<title>Node11</title>
<g id="a_Node000011"><a xlink:href="../../d0/d1a/classTplAppPhp.html#a1f03b6b08aba4677031cc2f46550690c" target="_top" xlink:title=" ">
<polygon fill="white" stroke="#666666" points="647.25,-298.5 475.25,-298.5 475.25,-274 647.25,-274 647.25,-298.5"/>
<text text-anchor="middle" x="561.25" y="-281.2" font-family="Helvetica,sans-Serif" font-size="14.00">TplAppPhp\getMenuPhp</text>
</a>
</g>
</g>
<!-- Node1&#45;&gt;Node11 -->
<g id="edge10_Node000001_Node000011" class="edge">
<title>Node1&#45;&gt;Node11</title>
<g id="a_edge10_Node000001_Node000011"><a xlink:title=" ">
<path fill="none" stroke="#63b8ff" d="M764.03,-332.79C745.28,-324.26 721.7,-314.52 699.75,-308.25 683.13,-303.5 665.07,-299.69 647.66,-296.66"/>
<polygon fill="#63b8ff" stroke="#63b8ff" points="762.54,-335.96 773.09,-337 765.49,-329.61 762.54,-335.96"/>
</a>
</g>
</g>
<!-- Node12 -->
<g id="Node000012" class="node">
<title>Node12</title>
<g id="a_Node000012"><a xlink:href="../../d3/d1b/classTplAppPostgresql.html#ae7611346aa23c70ab2d933dcf5b75e44" target="_top" xlink:title=" ">
<polygon fill="white" stroke="#666666" points="656.25,-255.75 466.25,-255.75 466.25,-214.75 656.25,-214.75 656.25,-255.75"/>
<text text-anchor="start" x="474.25" y="-238.45" font-family="Helvetica,sans-Serif" font-size="14.00">TplAppPostgresql\getMenu</text>
<text text-anchor="middle" x="561.25" y="-221.95" font-family="Helvetica,sans-Serif" font-size="14.00">Postgresql</text>
</a>
</g>
</g>
<!-- Node1&#45;&gt;Node12 -->
<g id="edge11_Node000001_Node000012" class="edge">
<title>Node1&#45;&gt;Node12</title>
<g id="a_edge11_Node000001_Node000012"><a xlink:title=" ">
<path fill="none" stroke="#63b8ff" d="M781.13,-329.38C762.48,-309.79 731.98,-281.2 699.75,-265.25 686.28,-258.58 671.35,-253.39 656.44,-249.34"/>
<polygon fill="#63b8ff" stroke="#63b8ff" points="778.43,-331.61 787.8,-336.55 783.56,-326.84 778.43,-331.61"/>
</a>
</g>
</g>
<!-- Node13 -->
<g id="Node000013" class="node">
<title>Node13</title>
<g id="a_Node000013"><a xlink:href="../../dc/d83/classTplAppXlight.html#af5d3e9e4275051253786be7055330a6c" target="_top" xlink:title=" ">
<polygon fill="white" stroke="#666666" points="657,-196.5 465.5,-196.5 465.5,-172 657,-172 657,-196.5"/>
<text text-anchor="middle" x="561.25" y="-179.2" font-family="Helvetica,sans-Serif" font-size="14.00">TplAppXlight\getMenuXlight</text>
</a>
</g>
</g>
<!-- Node1&#45;&gt;Node13 -->
<g id="edge12_Node000001_Node000013" class="edge">
<title>Node1&#45;&gt;Node13</title>
<g id="a_edge12_Node000001_Node000013"><a xlink:title=" ">
<path fill="none" stroke="#63b8ff" d="M790.76,-327.31C776.66,-294.62 746.08,-235.38 699.75,-206.25 686.96,-198.21 672.22,-192.78 657.24,-189.17"/>
<polygon fill="#63b8ff" stroke="#63b8ff" points="787.41,-328.38 794.48,-336.28 793.88,-325.7 787.41,-328.38"/>
</a>
</g>
</g>
<!-- Node14 -->
<g id="Node000014" class="node">
<title>Node14</title>
<g id="a_Node000014"><a xlink:href="../../d7/dcf/classQuickPick.html#a1ce22bffccae06cf6e817842c9dc829f" target="_top" xlink:title=" ">
<polygon fill="white" stroke="#666666" points="660.75,-153.5 461.75,-153.5 461.75,-129 660.75,-129 660.75,-153.5"/>
<text text-anchor="middle" x="561.25" y="-136.2" font-family="Helvetica,sans-Serif" font-size="14.00">QuickPick\getQuickpickMenu</text>
</a>
</g>
</g>
<!-- Node1&#45;&gt;Node14 -->
<g id="edge13_Node000001_Node000014" class="edge">
<title>Node1&#45;&gt;Node14</title>
<g id="a_edge13_Node000001_Node000014"><a xlink:title=" ">
<path fill="none" stroke="#63b8ff" d="M794.35,-326.5C783.77,-285.88 756.26,-203.53 699.75,-163.25 688.23,-155.04 674.8,-149.44 660.93,-145.67"/>
<polygon fill="#63b8ff" stroke="#63b8ff" points="790.95,-327.34 796.74,-336.21 797.74,-325.66 790.95,-327.34"/>
</a>
</g>
</g>
<!-- Node16 -->
<g id="Node000016" class="node">
<title>Node16</title>
<g id="a_Node000016"><a xlink:href="../../d1/d65/classTplApp.html#a9db61fdb53ab5d42766b0634f77dd458" target="_top" xlink:title=" ">
<polygon fill="white" stroke="#666666" points="662.25,-110.5 460.25,-110.5 460.25,-86 662.25,-86 662.25,-110.5"/>
<text text-anchor="middle" x="561.25" y="-93.2" font-family="Helvetica,sans-Serif" font-size="14.00">TplApp\getSectionMenuRight</text>
</a>
</g>
</g>
<!-- Node1&#45;&gt;Node16 -->
<g id="edge15_Node000001_Node000016" class="edge">
<title>Node1&#45;&gt;Node16</title>
<g id="a_edge15_Node000001_Node000016"><a xlink:title=" ">
<path fill="none" stroke="#63b8ff" d="M796.91,-326.55C789.87,-279.07 767.02,-172.43 699.75,-120.25 688.86,-111.81 676,-106.03 662.6,-102.15"/>
<polygon fill="#63b8ff" stroke="#63b8ff" points="793.42,-326.84 798.23,-336.27 800.35,-325.89 793.42,-326.84"/>
</a>
</g>
</g>
<!-- Node19 -->
<g id="Node000019" class="node">
<title>Node19</title>
<g id="a_Node000019"><a xlink:href="../../d6/de4/classUtil.html#a150a01d3e188e371c4b0f7f6a3abada0" target="_top" xlink:title=" ">
<polygon fill="white" stroke="#666666" points="648,-67.5 474.5,-67.5 474.5,-43 648,-43 648,-67.5"/>
<text text-anchor="middle" x="561.25" y="-50.2" font-family="Helvetica,sans-Serif" font-size="14.00">Util\getWebsiteUrlNoUtm</text>
</a>
</g>
</g>
<!-- Node1&#45;&gt;Node19 -->
<g id="edge18_Node000001_Node000019" class="edge">
<title>Node1&#45;&gt;Node19</title>
<g id="a_edge18_Node000001_Node000019"><a xlink:title=" ">
<path fill="none" stroke="#63b8ff" d="M798.7,-326.34C794.95,-272.52 777.83,-141.58 699.75,-77.25 685.29,-65.34 666.98,-58.62 648.48,-55.05"/>
<polygon fill="#63b8ff" stroke="#63b8ff" points="795.2,-326.43 799.28,-336.21 802.18,-326.02 795.2,-326.43"/>
</a>
</g>
</g>
<!-- Node21 -->
<g id="Node000021" class="node">
<title>Node21</title>
<g id="a_Node000021"><a xlink:href="../../d5/d43/classActionAbout.html#a686ab955b412bedcf7b9509228d62bde" target="_top" xlink:title=" ">
<polygon fill="white" stroke="#666666" points="661.12,-24.5 461.38,-24.5 461.38,0 661.12,0 661.12,-24.5"/>
<text text-anchor="middle" x="561.25" y="-7.2" font-family="Helvetica,sans-Serif" font-size="14.00">ActionAbout\processWindow</text>
</a>
</g>
</g>
<!-- Node1&#45;&gt;Node21 -->
<g id="edge20_Node000001_Node000021" class="edge">
<title>Node1&#45;&gt;Node21</title>
<g id="a_edge20_Node000001_Node000021"><a xlink:title=" ">
<path fill="none" stroke="#63b8ff" d="M800.06,-326.32C799.42,-266.75 788.86,-111.07 699.75,-34.25 688.76,-24.78 675.37,-18.54 661.31,-14.54"/>
<polygon fill="#63b8ff" stroke="#63b8ff" points="796.56,-326 800.07,-336 803.56,-325.99 796.56,-326"/>
</a>
</g>
</g>
<!-- Node15 -->
<g id="Node000015" class="node">
<title>Node15</title>
<g id="a_Node000015"><a xlink:href="../../d7/dcf/classQuickPick.html#ad084d8cf90355606b57515aee3b1a8ec" target="_top" xlink:title=" ">
<polygon fill="white" stroke="#666666" points="386.75,-153.5 215.5,-153.5 215.5,-129 386.75,-129 386.75,-153.5"/>
<text text-anchor="middle" x="301.12" y="-136.2" font-family="Helvetica,sans-Serif" font-size="14.00">QuickPick\loadQuickpick</text>
</a>
</g>
</g>
<!-- Node14&#45;&gt;Node15 -->
<g id="edge14_Node000014_Node000015" class="edge">
<title>Node14&#45;&gt;Node15</title>
<g id="a_edge14_Node000014_Node000015"><a xlink:title=" ">
<path fill="none" stroke="#63b8ff" d="M450.21,-141.25C429.01,-141.25 407.11,-141.25 386.87,-141.25"/>
<polygon fill="#63b8ff" stroke="#63b8ff" points="450.05,-144.75 460.05,-141.25 450.05,-137.75 450.05,-144.75"/>
</a>
</g>
</g>
<!-- Node17 -->
<g id="Node000017" class="node">
<title>Node17</title>
<g id="a_Node000017"><a xlink:href="../../d1/d65/classTplApp.html#a57b270c79fbb8b220ad02af08368e367" target="_top" xlink:title=" ">
<polygon fill="white" stroke="#666666" points="360.12,-110.5 242.12,-110.5 242.12,-86 360.12,-86 360.12,-110.5"/>
<text text-anchor="middle" x="301.12" y="-93.2" font-family="Helvetica,sans-Serif" font-size="14.00">TplApp\process</text>
</a>
</g>
</g>
<!-- Node16&#45;&gt;Node17 -->
<g id="edge16_Node000016_Node000017" class="edge">
<title>Node16&#45;&gt;Node17</title>
<g id="a_edge16_Node000016_Node000017"><a xlink:title=" ">
<path fill="none" stroke="#63b8ff" d="M448.93,-98.25C418.45,-98.25 386.64,-98.25 360.44,-98.25"/>
<polygon fill="#63b8ff" stroke="#63b8ff" points="448.57,-101.75 458.57,-98.25 448.57,-94.75 448.57,-101.75"/>
</a>
</g>
</g>
<!-- Node18 -->
<g id="Node000018" class="node">
<title>Node18</title>
<g id="a_Node000018"><a xlink:href="../../dd/dea/classActionReload.html#a9caf3b20c05475876e5dc72cdcdf6024" target="_top" xlink:title=" ">
<polygon fill="white" stroke="#666666" points="179.5,-110.5 0,-110.5 0,-86 179.5,-86 179.5,-110.5"/>
<text text-anchor="middle" x="89.75" y="-93.2" font-family="Helvetica,sans-Serif" font-size="14.00">ActionReload\__construct</text>
</a>
</g>
</g>
<!-- Node17&#45;&gt;Node18 -->
<g id="edge17_Node000017_Node000018" class="edge">
<title>Node17&#45;&gt;Node18</title>
<g id="a_edge17_Node000017_Node000018"><a xlink:title=" ">
<path fill="none" stroke="#63b8ff" d="M230.73,-98.25C214.4,-98.25 196.77,-98.25 179.71,-98.25"/>
<polygon fill="#63b8ff" stroke="#63b8ff" points="230.29,-101.75 240.29,-98.25 230.29,-94.75 230.29,-101.75"/>
</a>
</g>
</g>
<!-- Node20 -->
<g id="Node000020" class="node">
<title>Node20</title>
<g id="a_Node000020"><a xlink:href="../../d5/d43/classActionAbout.html#aaa96db6b0220bee91c8f026b562cef76" target="_top" xlink:title=" ">
<polygon fill="white" stroke="#666666" points="386.75,-67.5 215.5,-67.5 215.5,-43 386.75,-43 386.75,-67.5"/>
<text text-anchor="middle" x="301.12" y="-50.2" font-family="Helvetica,sans-Serif" font-size="14.00">ActionAbout\__construct</text>
</a>
</g>
</g>
<!-- Node19&#45;&gt;Node20 -->
<g id="edge19_Node000019_Node000020" class="edge">
<title>Node19&#45;&gt;Node20</title>
<g id="a_edge19_Node000019_Node000020"><a xlink:title=" ">
<path fill="none" stroke="#63b8ff" d="M462.93,-55.25C437.89,-55.25 411.16,-55.25 386.82,-55.25"/>
<polygon fill="#63b8ff" stroke="#63b8ff" points="462.78,-58.75 472.78,-55.25 462.78,-51.75 462.78,-58.75"/>
</a>
</g>
</g>
</g>
</svg>
