<?xml version="1.0" encoding="UTF-8" standalone="no"?>
<!--
  - Copyright (c) 2021-2024 Bearsampp
  - License:  GNU General Public License version 3 or later; see LICENSE.txt
  - Author: Bear
  - Website: https://bearsampp.com
  - Github: https://github.com/Bearsampp
  -->

<!DOCTYPE svg PUBLIC "-//W3C//DTD SVG 1.1//EN"
 "http://www.w3.org/Graphics/SVG/1.1/DTD/svg11.dtd">
<!-- Generated by graphviz version 11.0.0 (20240428.1522)
 -->
<!-- Title: Util\replaceInFile Pages: 1 -->
<!--zoomable 565 -->

<svg id="main" version="1.1" xmlns="http://www.w3.org/2000/svg" xmlns:xlink="http://www.w3.org/1999/xlink" xml:space="preserve" onload="init(evt)">
<style type="text/css"><![CDATA[
.node, .edge {opacity: 0.7;}
.node.selected, .edge.selected {opacity: 1;}
.edge:hover path { stroke: red; }
.edge:hover polygon { stroke: red; fill: red; }
]]></style>

<defs>
  <circle id="rim" cx="0" cy="0" r="7"/>
  <circle id="rim2" cx="0" cy="0" r="3.5"/>
  <g id="zoomPlus">
    <use xlink:href="#rim" fill="#404040"><set attributeName="fill" to="#808080" begin="zoomplus.mouseover" end="zoomplus.mouseout"/></use>
    <path d="M-4,0h8M0,-4v8" fill="none" stroke="white" stroke-width="1.5" pointer-events="none"/>
  </g>
  <g id="zoomMin">
    <use xlink:href="#rim" fill="#404040"><set attributeName="fill" to="#808080" begin="zoomminus.mouseover" end="zoomminus.mouseout"/></use>
    <path d="M-4,0h8" fill="none" stroke="white" stroke-width="1.5" pointer-events="none"/>
  </g>
  <g id="arrowUp" transform="translate(30 24)">
    <use xlink:href="#rim"/>
    <path pointer-events="none" fill="none" stroke="white" stroke-width="1.5" d="M0,-3.0v7 M-2.5,-0.5L0,-3.0L2.5,-0.5"/>
  </g>
  <g id="arrowRight" transform="rotate(90) translate(36 -43)">
    <use xlink:href="#rim"/>
    <path pointer-events="none" fill="none" stroke="white" stroke-width="1.5" d="M0,-3.0v7 M-2.5,-0.5L0,-3.0L2.5,-0.5"/>
  </g>
  <g id="arrowDown" transform="rotate(180) translate(-30 -48)">
    <use xlink:href="#rim"/>
    <path pointer-events="none" fill="none" stroke="white" stroke-width="1.5" d="M0,-3.0v7 M-2.5,-0.5L0,-3.0L2.5,-0.5"/>
  </g>
  <g id="arrowLeft" transform="rotate(270) translate(-36 17)">
    <use xlink:href="#rim"/>
    <path pointer-events="none" fill="none" stroke="white" stroke-width="1.5" d="M0,-3.0v7 M-2.5,-0.5L0,-3.0L2.5,-0.5"/>
  </g>
  <g id="resetDef">
    <use xlink:href="#rim2" fill="#404040"><set attributeName="fill" to="#808080" begin="reset.mouseover" end="reset.mouseout"/></use>
  </g>
</defs>
<script type="application/ecmascript">
var viewWidth = 615;
var viewHeight = 565;
var sectionId = 'dynsection-52';
</script>
<script type="application/ecmascript" xlink:href="../../svg.min.js"/>
<svg id="graph" class="graph">
<g id="viewport">
<title>Util\replaceInFile</title>
<!-- Node1 -->
<g id="Node000001" class="node">
<title>Node1</title>
<g id="a_Node000001"><a xlink:title=" ">
<polygon fill="#999999" stroke="#666666" points="606.75,-282.5 485,-282.5 485,-258 606.75,-258 606.75,-282.5"/>
<text text-anchor="middle" x="545.88" y="-265.2" font-family="Helvetica,sans-Serif" font-size="14.00">Util\replaceInFile</text>
</a>
</g>
</g>
<!-- Node2 -->
<g id="Node000002" class="node">
<title>Node2</title>
<g id="a_Node000002"><a xlink:href="../../dc/db9/classBinPostgresql.html#a88d1157962c915cd66b822a0ad8b5cf7" target="_top" xlink:title=" ">
<polygon fill="white" stroke="#666666" points="432.12,-556.5 249.62,-556.5 249.62,-532 432.12,-532 432.12,-556.5"/>
<text text-anchor="middle" x="340.88" y="-539.2" font-family="Helvetica,sans-Serif" font-size="14.00">BinPostgresql\rebuildConf</text>
</a>
</g>
</g>
<!-- Node1&#45;&gt;Node2 -->
<g id="edge1_Node000001_Node000002" class="edge">
<title>Node1&#45;&gt;Node2</title>
<g id="a_edge1_Node000001_Node000002"><a xlink:title=" ">
<path fill="none" stroke="#63b8ff" d="M543.27,-294.29C538.51,-345.03 519.98,-463.34 449,-523.25 444,-527.47 438.41,-530.93 432.47,-533.76"/>
<polygon fill="#63b8ff" stroke="#63b8ff" points="546.75,-294.68 544.08,-284.43 539.77,-294.1 546.75,-294.68"/>
</a>
</g>
</g>
<!-- Node3 -->
<g id="Node000003" class="node">
<title>Node3</title>
<g id="a_Node000003"><a xlink:href="../../d4/ddb/classHomepage.html#a70ce74a7625064352f4660397b6b3c97" target="_top" xlink:title=" ">
<polygon fill="white" stroke="#666666" points="449,-513.75 232.75,-513.75 232.75,-472.75 449,-472.75 449,-513.75"/>
<text text-anchor="start" x="240.75" y="-496.45" font-family="Helvetica,sans-Serif" font-size="14.00">Homepage\refreshCommonsJs</text>
<text text-anchor="middle" x="340.88" y="-479.95" font-family="Helvetica,sans-Serif" font-size="14.00">Content</text>
</a>
</g>
</g>
<!-- Node1&#45;&gt;Node3 -->
<g id="edge2_Node000001_Node000003" class="edge">
<title>Node1&#45;&gt;Node3</title>
<g id="a_edge2_Node000001_Node000003"><a xlink:title=" ">
<path fill="none" stroke="#63b8ff" d="M539.79,-293.79C529.74,-334.54 503.45,-418.19 449,-463.25 444.91,-466.64 440.46,-469.64 435.78,-472.31"/>
<polygon fill="#63b8ff" stroke="#63b8ff" points="543.14,-294.84 542.01,-284.3 536.32,-293.24 543.14,-294.84"/>
</a>
</g>
</g>
<!-- Node4 -->
<g id="Node000004" class="node">
<title>Node4</title>
<g id="a_Node000004"><a xlink:href="../../d6/de4/classUtil.html#ac1860c28e1d6603ec520cc2668f06a1b" target="_top" xlink:title=" ">
<polygon fill="white" stroke="#666666" points="405.12,-454.5 276.62,-454.5 276.62,-430 405.12,-430 405.12,-454.5"/>
<text text-anchor="middle" x="340.88" y="-437.2" font-family="Helvetica,sans-Serif" font-size="14.00">Util\replaceDefine</text>
</a>
</g>
</g>
<!-- Node1&#45;&gt;Node4 -->
<g id="edge3_Node000001_Node000004" class="edge">
<title>Node1&#45;&gt;Node4</title>
<g id="a_edge3_Node000001_Node000004"><a xlink:title=" ">
<path fill="none" stroke="#63b8ff" d="M536.81,-293.34C523.84,-326.9 495.02,-388.61 449,-420.25 436.25,-429.02 420.76,-434.43 405.57,-437.74"/>
<polygon fill="#63b8ff" stroke="#63b8ff" points="540.02,-294.75 540.22,-284.15 533.46,-292.31 540.02,-294.75"/>
</a>
</g>
</g>
<!-- Node5 -->
<g id="Node000005" class="node">
<title>Node5</title>
<g id="a_Node000005"><a xlink:href="../../d3/dc0/classToolGit.html#a3267ba608ed65f683f44e27c2570d9d8" target="_top" xlink:title=" ">
<polygon fill="white" stroke="#666666" points="422.38,-411.5 259.38,-411.5 259.38,-387 422.38,-387 422.38,-411.5"/>
<text text-anchor="middle" x="340.88" y="-394.2" font-family="Helvetica,sans-Serif" font-size="14.00">ToolGit\setScanStartup</text>
</a>
</g>
</g>
<!-- Node1&#45;&gt;Node5 -->
<g id="edge4_Node000001_Node000005" class="edge">
<title>Node1&#45;&gt;Node5</title>
<g id="a_edge4_Node000001_Node000005"><a xlink:title=" ">
<path fill="none" stroke="#63b8ff" d="M531.3,-292.48C514.96,-317.23 485.15,-356.49 449,-377.25 440.85,-381.93 431.85,-385.62 422.63,-388.54"/>
<polygon fill="#63b8ff" stroke="#63b8ff" points="534.2,-294.44 536.65,-284.13 528.31,-290.66 534.2,-294.44"/>
</a>
</g>
</g>
<!-- Node6 -->
<g id="Node000006" class="node">
<title>Node6</title>
<g id="a_Node000006"><a xlink:href="../../df/d54/classAppAdminer.html#a21d4f19f407b6d453ed8feccc4e75a65" target="_top" xlink:title=" ">
<polygon fill="white" stroke="#666666" points="433.25,-368.5 248.5,-368.5 248.5,-344 433.25,-344 433.25,-368.5"/>
<text text-anchor="middle" x="340.88" y="-351.2" font-family="Helvetica,sans-Serif" font-size="14.00">AppAdminer\updateConfig</text>
</a>
</g>
</g>
<!-- Node1&#45;&gt;Node6 -->
<g id="edge5_Node000001_Node000006" class="edge">
<title>Node1&#45;&gt;Node6</title>
<g id="a_edge5_Node000001_Node000006"><a xlink:title=" ">
<path fill="none" stroke="#63b8ff" d="M521.12,-289.93C502.57,-304.31 475.58,-323.15 449,-334.25 440.24,-337.91 430.82,-340.98 421.32,-343.55"/>
<polygon fill="#63b8ff" stroke="#63b8ff" points="523.15,-292.78 528.81,-283.83 518.8,-287.3 523.15,-292.78"/>
</a>
</g>
</g>
<!-- Node7 -->
<g id="Node000007" class="node">
<title>Node7</title>
<g id="a_Node000007"><a xlink:href="../../dd/dec/classAppPhpmyadmin.html#a78f1cd4b9a3ab52d45ca05da77c56bba" target="_top" xlink:title=" ">
<polygon fill="white" stroke="#666666" points="447.88,-325.5 233.88,-325.5 233.88,-301 447.88,-301 447.88,-325.5"/>
<text text-anchor="middle" x="340.88" y="-308.2" font-family="Helvetica,sans-Serif" font-size="14.00">AppPhpmyadmin\updateConfig</text>
</a>
</g>
</g>
<!-- Node1&#45;&gt;Node7 -->
<g id="edge6_Node000001_Node000007" class="edge">
<title>Node1&#45;&gt;Node7</title>
<g id="a_edge6_Node000001_Node000007"><a xlink:title=" ">
<path fill="none" stroke="#63b8ff" d="M476.27,-285.39C467.11,-287.38 457.83,-289.38 449,-291.25 434.61,-294.3 419.11,-297.53 404.5,-300.53"/>
<polygon fill="#63b8ff" stroke="#63b8ff" points="476.85,-288.85 485.88,-283.3 475.36,-282.01 476.85,-288.85"/>
</a>
</g>
</g>
<!-- Node8 -->
<g id="Node000008" class="node">
<title>Node8</title>
<g id="a_Node000008"><a xlink:href="../../dc/d53/classAppPhppgadmin.html#a9e408f7f1ec703bc7aa472c01b53c3af" target="_top" xlink:title=" ">
<polygon fill="white" stroke="#666666" points="446.75,-282.5 235,-282.5 235,-258 446.75,-258 446.75,-282.5"/>
<text text-anchor="middle" x="340.88" y="-265.2" font-family="Helvetica,sans-Serif" font-size="14.00">AppPhppgadmin\updateConfig</text>
</a>
</g>
</g>
<!-- Node1&#45;&gt;Node8 -->
<g id="edge7_Node000001_Node000008" class="edge">
<title>Node1&#45;&gt;Node8</title>
<g id="a_edge7_Node000001_Node000008"><a xlink:title=" ">
<path fill="none" stroke="#63b8ff" d="M473.21,-270.25C464.77,-270.25 456.02,-270.25 447.24,-270.25"/>
<polygon fill="#63b8ff" stroke="#63b8ff" points="473,-273.75 483,-270.25 473,-266.75 473,-273.75"/>
</a>
</g>
</g>
<!-- Node9 -->
<g id="Node000009" class="node">
<title>Node9</title>
<g id="a_Node000009"><a xlink:href="../../dc/df4/classAppWebgrind.html#a3069eed867a1598db3d2d27b4f726ffe" target="_top" xlink:title=" ">
<polygon fill="white" stroke="#666666" points="437.75,-239.5 244,-239.5 244,-215 437.75,-215 437.75,-239.5"/>
<text text-anchor="middle" x="340.88" y="-222.2" font-family="Helvetica,sans-Serif" font-size="14.00">AppWebgrind\updateConfig</text>
</a>
</g>
</g>
<!-- Node1&#45;&gt;Node9 -->
<g id="edge8_Node000001_Node000009" class="edge">
<title>Node1&#45;&gt;Node9</title>
<g id="a_edge8_Node000001_Node000009"><a xlink:title=" ">
<path fill="none" stroke="#63b8ff" d="M476.27,-255.11C467.11,-253.12 457.83,-251.12 449,-249.25 434.61,-246.2 419.11,-242.97 404.5,-239.97"/>
<polygon fill="#63b8ff" stroke="#63b8ff" points="475.36,-258.49 485.88,-257.2 476.85,-251.65 475.36,-258.49"/>
</a>
</g>
</g>
<!-- Node10 -->
<g id="Node000010" class="node">
<title>Node10</title>
<g id="a_Node000010"><a xlink:href="../../d9/d6c/classBinApache.html#a568adc920f3c2722c4fec4c86df88b54" target="_top" xlink:title=" ">
<polygon fill="white" stroke="#666666" points="428,-196.5 253.75,-196.5 253.75,-172 428,-172 428,-196.5"/>
<text text-anchor="middle" x="340.88" y="-179.2" font-family="Helvetica,sans-Serif" font-size="14.00">BinApache\updateConfig</text>
</a>
</g>
</g>
<!-- Node1&#45;&gt;Node10 -->
<g id="edge9_Node000001_Node000010" class="edge">
<title>Node1&#45;&gt;Node10</title>
<g id="a_edge9_Node000001_Node000010"><a xlink:title=" ">
<path fill="none" stroke="#63b8ff" d="M521.12,-250.57C502.57,-236.19 475.58,-217.35 449,-206.25 440.24,-202.59 430.82,-199.52 421.32,-196.95"/>
<polygon fill="#63b8ff" stroke="#63b8ff" points="518.8,-253.2 528.81,-256.67 523.15,-247.72 518.8,-253.2"/>
</a>
</g>
</g>
<!-- Node12 -->
<g id="Node000012" class="node">
<title>Node12</title>
<g id="a_Node000012"><a xlink:href="../../d4/d8f/classBinMariadb.html#a5761bf237034a02d4f7b11d048c44a3c" target="_top" xlink:title=" ">
<polygon fill="white" stroke="#666666" points="428.75,-153.5 253,-153.5 253,-129 428.75,-129 428.75,-153.5"/>
<text text-anchor="middle" x="340.88" y="-136.2" font-family="Helvetica,sans-Serif" font-size="14.00">BinMariadb\updateConfig</text>
</a>
</g>
</g>
<!-- Node1&#45;&gt;Node12 -->
<g id="edge11_Node000001_Node000012" class="edge">
<title>Node1&#45;&gt;Node12</title>
<g id="a_edge11_Node000001_Node000012"><a xlink:title=" ">
<path fill="none" stroke="#63b8ff" d="M531.3,-248.02C514.96,-223.27 485.15,-184.01 449,-163.25 442.58,-159.56 435.63,-156.49 428.46,-153.92"/>
<polygon fill="#63b8ff" stroke="#63b8ff" points="528.31,-249.84 536.65,-256.37 534.2,-246.06 528.31,-249.84"/>
</a>
</g>
</g>
<!-- Node14 -->
<g id="Node000014" class="node">
<title>Node14</title>
<g id="a_Node000014"><a xlink:href="../../d6/d88/classBinMysql.html#ab584c3d562f8f0c12c94c16d571398fb" target="_top" xlink:title=" ">
<polygon fill="white" stroke="#666666" points="422,-110.5 259.75,-110.5 259.75,-86 422,-86 422,-110.5"/>
<text text-anchor="middle" x="340.88" y="-93.2" font-family="Helvetica,sans-Serif" font-size="14.00">BinMysql\updateConfig</text>
</a>
</g>
</g>
<!-- Node1&#45;&gt;Node14 -->
<g id="edge13_Node000001_Node000014" class="edge">
<title>Node1&#45;&gt;Node14</title>
<g id="a_edge13_Node000001_Node000014"><a xlink:title=" ">
<path fill="none" stroke="#63b8ff" d="M536.81,-247.16C523.84,-213.6 495.02,-151.89 449,-120.25 440.94,-114.71 431.79,-110.51 422.31,-107.33"/>
<polygon fill="#63b8ff" stroke="#63b8ff" points="533.46,-248.19 540.22,-256.35 540.02,-245.75 533.46,-248.19"/>
</a>
</g>
</g>
<!-- Node16 -->
<g id="Node000016" class="node">
<title>Node16</title>
<g id="a_Node000016"><a xlink:href="../../dc/db3/classBinPhp.html#a9b92767dc6a36f70a22985c54c9c6808" target="_top" xlink:title=" ">
<polygon fill="white" stroke="#666666" points="416.38,-67.5 265.38,-67.5 265.38,-43 416.38,-43 416.38,-67.5"/>
<text text-anchor="middle" x="340.88" y="-50.2" font-family="Helvetica,sans-Serif" font-size="14.00">BinPhp\updateConfig</text>
</a>
</g>
</g>
<!-- Node1&#45;&gt;Node16 -->
<g id="edge15_Node000001_Node000016" class="edge">
<title>Node1&#45;&gt;Node16</title>
<g id="a_edge15_Node000001_Node000016"><a xlink:title=" ">
<path fill="none" stroke="#63b8ff" d="M540.25,-246.91C530.8,-205.76 505.27,-120.57 449,-77.25 439.6,-70.01 428.4,-64.99 416.85,-61.55"/>
<polygon fill="#63b8ff" stroke="#63b8ff" points="536.78,-247.43 542.31,-256.47 543.62,-245.95 536.78,-247.43"/>
</a>
</g>
</g>
<!-- Node18 -->
<g id="Node000018" class="node">
<title>Node18</title>
<g id="a_Node000018"><a xlink:href="../../dc/db9/classBinPostgresql.html#ab9521e473ea9de96409472e01cd215a6" target="_top" xlink:title=" ">
<polygon fill="white" stroke="#666666" points="438.12,-24.5 243.62,-24.5 243.62,0 438.12,0 438.12,-24.5"/>
<text text-anchor="middle" x="340.88" y="-7.2" font-family="Helvetica,sans-Serif" font-size="14.00">BinPostgresql\updateConfig</text>
</a>
</g>
</g>
<!-- Node1&#45;&gt;Node18 -->
<g id="edge17_Node000001_Node000018" class="edge">
<title>Node1&#45;&gt;Node18</title>
<g id="a_edge17_Node000001_Node000018"><a xlink:title=" ">
<path fill="none" stroke="#63b8ff" d="M542.48,-246.22C536.34,-198.04 515.48,-89.54 449,-34.25 444.62,-30.61 439.8,-27.52 434.69,-24.9"/>
<polygon fill="#63b8ff" stroke="#63b8ff" points="539,-246.57 543.63,-256.11 545.95,-245.77 539,-246.57"/>
</a>
</g>
</g>
<!-- Node11 -->
<g id="Node000011" class="node">
<title>Node11</title>
<g id="a_Node000011"><a xlink:href="../../d9/d6c/classBinApache.html#a12cfa333889d6aa34dfaaa182b2786f4" target="_top" xlink:title=" ">
<polygon fill="white" stroke="#666666" points="186.62,-196.5 10.12,-196.5 10.12,-172 186.62,-172 186.62,-196.5"/>
<text text-anchor="middle" x="98.38" y="-179.2" font-family="Helvetica,sans-Serif" font-size="14.00">BinApache\switchVersion</text>
</a>
</g>
</g>
<!-- Node10&#45;&gt;Node11 -->
<g id="edge10_Node000010_Node000011" class="edge">
<title>Node10&#45;&gt;Node11</title>
<g id="a_edge10_Node000010_Node000011"><a xlink:title=" ">
<path fill="none" stroke="#63b8ff" d="M241.9,-184.25C223.76,-184.25 204.92,-184.25 187.12,-184.25"/>
<polygon fill="#63b8ff" stroke="#63b8ff" points="241.88,-187.75 251.88,-184.25 241.88,-180.75 241.88,-187.75"/>
</a>
</g>
</g>
<!-- Node13 -->
<g id="Node000013" class="node">
<title>Node13</title>
<g id="a_Node000013"><a xlink:href="../../d4/d8f/classBinMariadb.html#ab2c7ba60f8e003f75502fa7112e2e31f" target="_top" xlink:title=" ">
<polygon fill="white" stroke="#666666" points="187.38,-153.5 9.38,-153.5 9.38,-129 187.38,-129 187.38,-153.5"/>
<text text-anchor="middle" x="98.38" y="-136.2" font-family="Helvetica,sans-Serif" font-size="14.00">BinMariadb\switchVersion</text>
</a>
</g>
</g>
<!-- Node12&#45;&gt;Node13 -->
<g id="edge12_Node000012_Node000013" class="edge">
<title>Node12&#45;&gt;Node13</title>
<g id="a_edge12_Node000012_Node000013"><a xlink:title=" ">
<path fill="none" stroke="#63b8ff" d="M241.21,-141.25C223.53,-141.25 205.22,-141.25 187.86,-141.25"/>
<polygon fill="#63b8ff" stroke="#63b8ff" points="241.2,-144.75 251.2,-141.25 241.2,-137.75 241.2,-144.75"/>
</a>
</g>
</g>
<!-- Node15 -->
<g id="Node000015" class="node">
<title>Node15</title>
<g id="a_Node000015"><a xlink:href="../../d6/d88/classBinMysql.html#a6d31e31a0b68da6fbf5db4d4210849a9" target="_top" xlink:title=" ">
<polygon fill="white" stroke="#666666" points="180.62,-110.5 16.12,-110.5 16.12,-86 180.62,-86 180.62,-110.5"/>
<text text-anchor="middle" x="98.38" y="-93.2" font-family="Helvetica,sans-Serif" font-size="14.00">BinMysql\switchVersion</text>
</a>
</g>
</g>
<!-- Node14&#45;&gt;Node15 -->
<g id="edge14_Node000014_Node000015" class="edge">
<title>Node14&#45;&gt;Node15</title>
<g id="a_edge14_Node000014_Node000015"><a xlink:title=" ">
<path fill="none" stroke="#63b8ff" d="M248.05,-98.25C225.97,-98.25 202.53,-98.25 180.95,-98.25"/>
<polygon fill="#63b8ff" stroke="#63b8ff" points="247.94,-101.75 257.94,-98.25 247.94,-94.75 247.94,-101.75"/>
</a>
</g>
</g>
<!-- Node17 -->
<g id="Node000017" class="node">
<title>Node17</title>
<g id="a_Node000017"><a xlink:href="../../dc/db3/classBinPhp.html#a2d9502d15fb68361643bcd91d3d1b81a" target="_top" xlink:title=" ">
<polygon fill="white" stroke="#666666" points="175,-67.5 21.75,-67.5 21.75,-43 175,-43 175,-67.5"/>
<text text-anchor="middle" x="98.38" y="-50.2" font-family="Helvetica,sans-Serif" font-size="14.00">BinPhp\switchVersion</text>
</a>
</g>
</g>
<!-- Node16&#45;&gt;Node17 -->
<g id="edge16_Node000016_Node000017" class="edge">
<title>Node16&#45;&gt;Node17</title>
<g id="a_edge16_Node000016_Node000017"><a xlink:title=" ">
<path fill="none" stroke="#63b8ff" d="M253.88,-55.25C228.23,-55.25 200.31,-55.25 175.35,-55.25"/>
<polygon fill="#63b8ff" stroke="#63b8ff" points="253.58,-58.75 263.58,-55.25 253.58,-51.75 253.58,-58.75"/>
</a>
</g>
</g>
<!-- Node19 -->
<g id="Node000019" class="node">
<title>Node19</title>
<g id="a_Node000019"><a xlink:href="../../dc/db9/classBinPostgresql.html#a79ac81202051d309f1cfa47f0545d2b2" target="_top" xlink:title=" ">
<polygon fill="white" stroke="#666666" points="196.75,-24.5 0,-24.5 0,0 196.75,0 196.75,-24.5"/>
<text text-anchor="middle" x="98.38" y="-7.2" font-family="Helvetica,sans-Serif" font-size="14.00">BinPostgresql\switchVersion</text>
</a>
</g>
</g>
<!-- Node18&#45;&gt;Node19 -->
<g id="edge18_Node000018_Node000019" class="edge">
<title>Node18&#45;&gt;Node19</title>
<g id="a_edge18_Node000018_Node000019"><a xlink:title=" ">
<path fill="none" stroke="#63b8ff" d="M232.25,-12.25C220.52,-12.25 208.62,-12.25 197.01,-12.25"/>
<polygon fill="#63b8ff" stroke="#63b8ff" points="231.93,-15.75 241.93,-12.25 231.93,-8.75 231.93,-15.75"/>
</a>
</g>
</g>
</g>
</svg>

<g id="navigator" transform="translate(0 0)" fill="#404254">
  <rect fill="#f2f5e9" fill-opacity="0.5" stroke="#606060" stroke-width=".5" x="0" y="0" width="60" height="60"/>
  <use id="zoomplus" xlink:href="#zoomPlus" x="17" y="9" onmousedown="handleZoom(evt,'in')"/>
  <use id="zoomminus" xlink:href="#zoomMin" x="42" y="9" onmousedown="handleZoom(evt,'out')"/>
  <use id="reset" xlink:href="#resetDef" x="30" y="36" onmousedown="handleReset()"/>
   <use id="arrowup" xlink:href="#arrowUp" x="0" y="0" onmousedown="handlePan(0,-1)"/>
  <use id="arrowright" xlink:href="#arrowRight" x="0" y="0" onmousedown="handlePan(1,0)"/>
  <use id="arrowdown" xlink:href="#arrowDown" x="0" y="0" onmousedown="handlePan(0,1)"/>
  <use id="arrowleft" xlink:href="#arrowLeft" x="0" y="0" onmousedown="handlePan(-1,0)"/>
</g>
<svg viewBox="0 0 15 15" width="100%" height="30px" preserveAspectRatio="xMaxYMin meet">
 <g id="arrow_out" transform="scale(0.3 0.3)">
  <a xlink:href="classUtil_a492fee0e6859b7891725b82153425443_icgraph_org.svg" target="_base">
   <rect id="button" ry="5" rx="5" y="6" x="6" height="38" width="38"
        fill="#f2f5e9" fill-opacity="0.5" stroke="#606060" stroke-width="1.0"/>
   <path id="arrow"
     d="M 11.500037,31.436501 C 11.940474,20.09759 22.043105,11.32322 32.158766,21.979434 L 37.068811,17.246167 C 37.068811,17.246167 37.088388,32 37.088388,32 L 22.160133,31.978069 C 22.160133,31.978069 26.997745,27.140456 26.997745,27.140456 C 18.528582,18.264221 13.291696,25.230495 11.500037,31.436501 z"
     style="fill:#404040;"/>
  </a>
 </g>
</svg>

<style type='text/css'>
<![CDATA[
[data-mouse-over-selected='false'] { opacity: 0.7; }
[data-mouse-over-selected='true']  { opacity: 1.0; }
]]>
</style>
<script type="application/ecmascript"><![CDATA[
document.addEventListener('DOMContentLoaded', (event) => {
  highlightEdges();
  highlightAdjacentNodes();
});
]]></script>
</svg>
