<?xml version="1.0" encoding="UTF-8" standalone="no"?>
<!--
  - Copyright (c) 2021-2024 Bearsampp
  - License:  GNU General Public License version 3 or later; see LICENSE.txt
  - Author: Bear
  - Website: https://bearsampp.com
  - Github: https://github.com/Bearsampp
  -->

<!DOCTYPE svg PUBLIC "-//W3C//DTD SVG 1.1//EN"
 "http://www.w3.org/Graphics/SVG/1.1/DTD/svg11.dtd">
<!-- Generated by graphviz version 11.0.0 (20240428.1522)
 -->
<!-- Title: Util\isValidPort Pages: 1 -->
<!--zoomable 764 -->

<svg id="main" version="1.1" xmlns="http://www.w3.org/2000/svg" xmlns:xlink="http://www.w3.org/1999/xlink" xml:space="preserve" onload="init(evt)">
<style type="text/css"><![CDATA[
.node, .edge {opacity: 0.7;}
.node.selected, .edge.selected {opacity: 1;}
.edge:hover path { stroke: red; }
.edge:hover polygon { stroke: red; fill: red; }
]]></style>

<defs>
  <circle id="rim" cx="0" cy="0" r="7"/>
  <circle id="rim2" cx="0" cy="0" r="3.5"/>
  <g id="zoomPlus">
    <use xlink:href="#rim" fill="#404040"><set attributeName="fill" to="#808080" begin="zoomplus.mouseover" end="zoomplus.mouseout"/></use>
    <path d="M-4,0h8M0,-4v8" fill="none" stroke="white" stroke-width="1.5" pointer-events="none"/>
  </g>
  <g id="zoomMin">
    <use xlink:href="#rim" fill="#404040"><set attributeName="fill" to="#808080" begin="zoomminus.mouseover" end="zoomminus.mouseout"/></use>
    <path d="M-4,0h8" fill="none" stroke="white" stroke-width="1.5" pointer-events="none"/>
  </g>
  <g id="arrowUp" transform="translate(30 24)">
    <use xlink:href="#rim"/>
    <path pointer-events="none" fill="none" stroke="white" stroke-width="1.5" d="M0,-3.0v7 M-2.5,-0.5L0,-3.0L2.5,-0.5"/>
  </g>
  <g id="arrowRight" transform="rotate(90) translate(36 -43)">
    <use xlink:href="#rim"/>
    <path pointer-events="none" fill="none" stroke="white" stroke-width="1.5" d="M0,-3.0v7 M-2.5,-0.5L0,-3.0L2.5,-0.5"/>
  </g>
  <g id="arrowDown" transform="rotate(180) translate(-30 -48)">
    <use xlink:href="#rim"/>
    <path pointer-events="none" fill="none" stroke="white" stroke-width="1.5" d="M0,-3.0v7 M-2.5,-0.5L0,-3.0L2.5,-0.5"/>
  </g>
  <g id="arrowLeft" transform="rotate(270) translate(-36 17)">
    <use xlink:href="#rim"/>
    <path pointer-events="none" fill="none" stroke="white" stroke-width="1.5" d="M0,-3.0v7 M-2.5,-0.5L0,-3.0L2.5,-0.5"/>
  </g>
  <g id="resetDef">
    <use xlink:href="#rim2" fill="#404040"><set attributeName="fill" to="#808080" begin="reset.mouseover" end="reset.mouseout"/></use>
  </g>
</defs>
<script type="application/ecmascript">
var viewWidth = 342;
var viewHeight = 764;
var sectionId = 'dynsection-41';
</script>
<script type="application/ecmascript" xlink:href="../../svg.min.js"/>
<svg id="graph" class="graph">
<g id="viewport">
<title>Util\isValidPort</title>
<!-- Node1 -->
<g id="Node000001" class="node">
<title>Node1</title>
<g id="a_Node000001"><a xlink:title=" ">
<polygon fill="#999999" stroke="#666666" points="334.25,-389.5 226.75,-389.5 226.75,-365 334.25,-365 334.25,-389.5"/>
<text text-anchor="middle" x="280.5" y="-372.2" font-family="Helvetica,sans-Serif" font-size="14.00">Util\isValidPort</text>
</a>
</g>
</g>
<!-- Node2 -->
<g id="Node000002" class="node">
<title>Node2</title>
<g id="a_Node000002"><a xlink:href="../../d9/d6c/classBinApache.html#a083bd533269b323aa962c71e3ed67b91" target="_top" xlink:title=" ">
<polygon fill="white" stroke="#666666" points="176.12,-755.5 14.62,-755.5 14.62,-731 176.12,-731 176.12,-755.5"/>
<text text-anchor="middle" x="95.38" y="-738.2" font-family="Helvetica,sans-Serif" font-size="14.00">BinApache\changePort</text>
</a>
</g>
</g>
<!-- Node1&#45;&gt;Node2 -->
<g id="edge1_Node000001_Node000002" class="edge">
<title>Node1&#45;&gt;Node2</title>
<g id="a_edge1_Node000001_Node000002"><a xlink:title=" ">
<path fill="none" stroke="#63b8ff" d="M276.59,-400.87C267.49,-470.97 237.37,-675.71 190.75,-721.25 186.54,-725.36 181.71,-728.77 176.52,-731.57"/>
<polygon fill="#63b8ff" stroke="#63b8ff" points="280.02,-401.63 277.81,-391.27 273.08,-400.75 280.02,-401.63"/>
</a>
</g>
</g>
<!-- Node3 -->
<g id="Node000003" class="node">
<title>Node3</title>
<g id="a_Node000003"><a xlink:href="../../da/d23/classBinFilezilla.html#a0b76d07f5ea8d1e0710869134b39f86e" target="_top" xlink:title=" ">
<polygon fill="white" stroke="#666666" points="175,-712.5 15.75,-712.5 15.75,-688 175,-688 175,-712.5"/>
<text text-anchor="middle" x="95.38" y="-695.2" font-family="Helvetica,sans-Serif" font-size="14.00">BinFilezilla\changePort</text>
</a>
</g>
</g>
<!-- Node1&#45;&gt;Node3 -->
<g id="edge2_Node000001_Node000003" class="edge">
<title>Node1&#45;&gt;Node3</title>
<g id="a_edge2_Node000001_Node000003"><a xlink:title=" ">
<path fill="none" stroke="#63b8ff" d="M280,-401.13C279.83,-458.02 271.05,-602.46 190.75,-678.25 186.22,-682.52 181.03,-686.02 175.47,-688.88"/>
<polygon fill="#63b8ff" stroke="#63b8ff" points="283.51,-401.28 279.93,-391.3 276.51,-401.33 283.51,-401.28"/>
</a>
</g>
</g>
<!-- Node4 -->
<g id="Node000004" class="node">
<title>Node4</title>
<g id="a_Node000004"><a xlink:href="../../db/df2/classBinMailhog.html#a7ac4063e736338217b6af943cd6b51e7" target="_top" xlink:title=" ">
<polygon fill="white" stroke="#666666" points="176.12,-669.5 14.62,-669.5 14.62,-645 176.12,-645 176.12,-669.5"/>
<text text-anchor="middle" x="95.38" y="-652.2" font-family="Helvetica,sans-Serif" font-size="14.00">BinMailhog\changePort</text>
</a>
</g>
</g>
<!-- Node1&#45;&gt;Node4 -->
<g id="edge3_Node000001_Node000004" class="edge">
<title>Node1&#45;&gt;Node4</title>
<g id="a_edge3_Node000001_Node000004"><a xlink:title=" ">
<path fill="none" stroke="#63b8ff" d="M278.63,-401.14C275.42,-452.19 260.44,-572.34 190.75,-635.25 186.5,-639.08 181.72,-642.29 176.62,-644.96"/>
<polygon fill="#63b8ff" stroke="#63b8ff" points="282.12,-401.41 279.14,-391.24 275.13,-401.05 282.12,-401.41"/>
</a>
</g>
</g>
<!-- Node5 -->
<g id="Node000005" class="node">
<title>Node5</title>
<g id="a_Node000005"><a xlink:href="../../d9/ddd/classBinMailpit.html#abbd708edd17dce9e2f937fd691761395" target="_top" xlink:title=" ">
<polygon fill="white" stroke="#666666" points="171.62,-626.5 19.12,-626.5 19.12,-602 171.62,-602 171.62,-626.5"/>
<text text-anchor="middle" x="95.38" y="-609.2" font-family="Helvetica,sans-Serif" font-size="14.00">BinMailpit\changePort</text>
</a>
</g>
</g>
<!-- Node1&#45;&gt;Node5 -->
<g id="edge4_Node000001_Node000005" class="edge">
<title>Node1&#45;&gt;Node5</title>
<g id="a_edge4_Node000001_Node000005"><a xlink:title=" ">
<path fill="none" stroke="#63b8ff" d="M276.75,-401.15C270.3,-445.81 249.97,-541.95 190.75,-592.25 185.11,-597.04 178.62,-600.84 171.74,-603.84"/>
<polygon fill="#63b8ff" stroke="#63b8ff" points="280.19,-401.87 278.03,-391.5 273.25,-400.95 280.19,-401.87"/>
</a>
</g>
</g>
<!-- Node6 -->
<g id="Node000006" class="node">
<title>Node6</title>
<g id="a_Node000006"><a xlink:href="../../d4/d8f/classBinMariadb.html#adbe680fe241ced84ce0dc5e62203536e" target="_top" xlink:title=" ">
<polygon fill="white" stroke="#666666" points="176.88,-583.5 13.88,-583.5 13.88,-559 176.88,-559 176.88,-583.5"/>
<text text-anchor="middle" x="95.38" y="-566.2" font-family="Helvetica,sans-Serif" font-size="14.00">BinMariadb\changePort</text>
</a>
</g>
</g>
<!-- Node1&#45;&gt;Node6 -->
<g id="edge5_Node000001_Node000006" class="edge">
<title>Node1&#45;&gt;Node6</title>
<g id="a_edge5_Node000001_Node000006"><a xlink:title=" ">
<path fill="none" stroke="#63b8ff" d="M274.12,-400.8C264.3,-438.25 239.79,-511.06 190.75,-549.25 185.97,-552.97 180.67,-556.08 175.09,-558.68"/>
<polygon fill="#63b8ff" stroke="#63b8ff" points="277.43,-401.99 276.44,-391.44 270.64,-400.3 277.43,-401.99"/>
</a>
</g>
</g>
<!-- Node7 -->
<g id="Node000007" class="node">
<title>Node7</title>
<g id="a_Node000007"><a xlink:href="../../da/d10/classBinMemcached.html#a74251cd69f82fc40a87ede6e34f48701" target="_top" xlink:title=" ">
<polygon fill="white" stroke="#666666" points="190.75,-540.5 0,-540.5 0,-516 190.75,-516 190.75,-540.5"/>
<text text-anchor="middle" x="95.38" y="-523.2" font-family="Helvetica,sans-Serif" font-size="14.00">BinMemcached\changePort</text>
</a>
</g>
</g>
<!-- Node1&#45;&gt;Node7 -->
<g id="edge6_Node000001_Node000007" class="edge">
<title>Node1&#45;&gt;Node7</title>
<g id="a_edge6_Node000001_Node000007"><a xlink:title=" ">
<path fill="none" stroke="#63b8ff" d="M270.02,-400.32C256.76,-429.63 229.81,-479.61 190.75,-506.25 185.33,-509.95 179.37,-513.03 173.16,-515.6"/>
<polygon fill="#63b8ff" stroke="#63b8ff" points="273.2,-401.79 273.98,-391.23 266.78,-399 273.2,-401.79"/>
</a>
</g>
</g>
<!-- Node8 -->
<g id="Node000008" class="node">
<title>Node8</title>
<g id="a_Node000008"><a xlink:href="../../d6/d88/classBinMysql.html#afbd9de6ff63b3f2640f1b8c521fe397c" target="_top" xlink:title=" ">
<polygon fill="white" stroke="#666666" points="170.12,-497.5 20.62,-497.5 20.62,-473 170.12,-473 170.12,-497.5"/>
<text text-anchor="middle" x="95.38" y="-480.2" font-family="Helvetica,sans-Serif" font-size="14.00">BinMysql\changePort</text>
</a>
</g>
</g>
<!-- Node1&#45;&gt;Node8 -->
<g id="edge7_Node000001_Node000008" class="edge">
<title>Node1&#45;&gt;Node8</title>
<g id="a_edge7_Node000001_Node000008"><a xlink:title=" ">
<path fill="none" stroke="#63b8ff" d="M263.03,-398.87C246.8,-418.65 220.21,-447.18 190.75,-463.25 183.96,-466.96 176.56,-470.04 168.99,-472.61"/>
<polygon fill="#63b8ff" stroke="#63b8ff" points="265.69,-401.15 269.19,-391.15 260.22,-396.79 265.69,-401.15"/>
</a>
</g>
</g>
<!-- Node9 -->
<g id="Node000009" class="node">
<title>Node9</title>
<g id="a_Node000009"><a xlink:href="../../dc/db9/classBinPostgresql.html#a0bc7538679a08420fd5f02832bcb31e9" target="_top" xlink:title=" ">
<polygon fill="white" stroke="#666666" points="186.25,-454.5 4.5,-454.5 4.5,-430 186.25,-430 186.25,-454.5"/>
<text text-anchor="middle" x="95.38" y="-437.2" font-family="Helvetica,sans-Serif" font-size="14.00">BinPostgresql\changePort</text>
</a>
</g>
</g>
<!-- Node1&#45;&gt;Node9 -->
<g id="edge8_Node000001_Node000009" class="edge">
<title>Node1&#45;&gt;Node9</title>
<g id="a_edge8_Node000001_Node000009"><a xlink:title=" ">
<path fill="none" stroke="#63b8ff" d="M246.93,-395.19C230.47,-403.69 209.95,-413.46 190.75,-420.25 180.84,-423.76 170.14,-426.86 159.63,-429.56"/>
<polygon fill="#63b8ff" stroke="#63b8ff" points="248.56,-398.29 255.77,-390.53 245.3,-392.09 248.56,-398.29"/>
</a>
</g>
</g>
<!-- Node10 -->
<g id="Node000010" class="node">
<title>Node10</title>
<g id="a_Node000010"><a xlink:href="../../d8/ddb/classBinXlight.html#a7c63ec12bf829df33995c2ed75a400c9" target="_top" xlink:title=" ">
<polygon fill="white" stroke="#666666" points="169.38,-411.5 21.38,-411.5 21.38,-387 169.38,-387 169.38,-411.5"/>
<text text-anchor="middle" x="95.38" y="-394.2" font-family="Helvetica,sans-Serif" font-size="14.00">BinXlight\changePort</text>
</a>
</g>
</g>
<!-- Node1&#45;&gt;Node10 -->
<g id="edge9_Node000001_Node000010" class="edge">
<title>Node1&#45;&gt;Node10</title>
<g id="a_edge9_Node000001_Node000010"><a xlink:title=" ">
<path fill="none" stroke="#63b8ff" d="M215.45,-384.94C200.66,-386.72 184.81,-388.63 169.66,-390.45"/>
<polygon fill="#63b8ff" stroke="#63b8ff" points="215.52,-388.46 225.03,-383.79 214.68,-381.51 215.52,-388.46"/>
</a>
</g>
</g>
<!-- Node11 -->
<g id="Node000011" class="node">
<title>Node11</title>
<g id="a_Node000011"><a xlink:href="../../d9/d6c/classBinApache.html#aab782f34a195f474b478bba752c27278" target="_top" xlink:title=" ">
<polygon fill="white" stroke="#666666" points="171.62,-368.5 19.12,-368.5 19.12,-344 171.62,-344 171.62,-368.5"/>
<text text-anchor="middle" x="95.38" y="-351.2" font-family="Helvetica,sans-Serif" font-size="14.00">BinApache\checkPort</text>
</a>
</g>
</g>
<!-- Node1&#45;&gt;Node11 -->
<g id="edge10_Node000001_Node000011" class="edge">
<title>Node1&#45;&gt;Node11</title>
<g id="a_edge10_Node000001_Node000011"><a xlink:title=" ">
<path fill="none" stroke="#63b8ff" d="M215.51,-369.91C201.47,-368.3 186.48,-366.58 172.04,-364.93"/>
<polygon fill="#63b8ff" stroke="#63b8ff" points="214.7,-373.34 225.03,-371 215.49,-366.39 214.7,-373.34"/>
</a>
</g>
</g>
<!-- Node12 -->
<g id="Node000012" class="node">
<title>Node12</title>
<g id="a_Node000012"><a xlink:href="../../da/d23/classBinFilezilla.html#a01aa87ce20c886e60b479cfdaa23fbb4" target="_top" xlink:title=" ">
<polygon fill="white" stroke="#666666" points="170.5,-325.5 20.25,-325.5 20.25,-301 170.5,-301 170.5,-325.5"/>
<text text-anchor="middle" x="95.38" y="-308.2" font-family="Helvetica,sans-Serif" font-size="14.00">BinFilezilla\checkPort</text>
</a>
</g>
</g>
<!-- Node1&#45;&gt;Node12 -->
<g id="edge11_Node000001_Node000012" class="edge">
<title>Node1&#45;&gt;Node12</title>
<g id="a_edge11_Node000001_Node000012"><a xlink:title=" ">
<path fill="none" stroke="#63b8ff" d="M246.2,-359.42C229.84,-351.2 209.63,-341.83 190.75,-335.25 180.74,-331.76 169.94,-328.66 159.35,-325.96"/>
<polygon fill="#63b8ff" stroke="#63b8ff" points="244.5,-362.48 255,-363.93 247.69,-356.25 244.5,-362.48"/>
</a>
</g>
</g>
<!-- Node13 -->
<g id="Node000013" class="node">
<title>Node13</title>
<g id="a_Node000013"><a xlink:href="../../db/df2/classBinMailhog.html#a04295eec0431e43862d99161de64b7b2" target="_top" xlink:title=" ">
<polygon fill="white" stroke="#666666" points="171.62,-282.5 19.12,-282.5 19.12,-258 171.62,-258 171.62,-282.5"/>
<text text-anchor="middle" x="95.38" y="-265.2" font-family="Helvetica,sans-Serif" font-size="14.00">BinMailhog\checkPort</text>
</a>
</g>
</g>
<!-- Node1&#45;&gt;Node13 -->
<g id="edge12_Node000001_Node000013" class="edge">
<title>Node1&#45;&gt;Node13</title>
<g id="a_edge12_Node000001_Node000013"><a xlink:title=" ">
<path fill="none" stroke="#63b8ff" d="M262.98,-355.88C246.71,-336.34 220.09,-308.14 190.75,-292.25 183.95,-288.56 176.54,-285.49 168.97,-282.93"/>
<polygon fill="#63b8ff" stroke="#63b8ff" points="260.14,-357.94 269.15,-363.51 265.58,-353.53 260.14,-357.94"/>
</a>
</g>
</g>
<!-- Node14 -->
<g id="Node000014" class="node">
<title>Node14</title>
<g id="a_Node000014"><a xlink:href="../../d9/ddd/classBinMailpit.html#a7a7fb45f46ccaa21226c898a67bc1653" target="_top" xlink:title=" ">
<polygon fill="white" stroke="#666666" points="167.12,-239.5 23.62,-239.5 23.62,-215 167.12,-215 167.12,-239.5"/>
<text text-anchor="middle" x="95.38" y="-222.2" font-family="Helvetica,sans-Serif" font-size="14.00">BinMailpit\checkPort</text>
</a>
</g>
</g>
<!-- Node1&#45;&gt;Node14 -->
<g id="edge13_Node000001_Node000014" class="edge">
<title>Node1&#45;&gt;Node14</title>
<g id="a_edge13_Node000001_Node000014"><a xlink:title=" ">
<path fill="none" stroke="#63b8ff" d="M269.98,-354.36C256.66,-325.27 229.65,-275.68 190.75,-249.25 183.65,-244.43 175.64,-240.65 167.35,-237.7"/>
<polygon fill="#63b8ff" stroke="#63b8ff" points="266.71,-355.63 273.94,-363.37 273.12,-352.81 266.71,-355.63"/>
</a>
</g>
</g>
<!-- Node15 -->
<g id="Node000015" class="node">
<title>Node15</title>
<g id="a_Node000015"><a xlink:href="../../d4/d8f/classBinMariadb.html#a12ad7bd1fa4b40cded22201ebc307aee" target="_top" xlink:title=" ">
<polygon fill="white" stroke="#666666" points="172.38,-196.5 18.38,-196.5 18.38,-172 172.38,-172 172.38,-196.5"/>
<text text-anchor="middle" x="95.38" y="-179.2" font-family="Helvetica,sans-Serif" font-size="14.00">BinMariadb\checkPort</text>
</a>
</g>
</g>
<!-- Node1&#45;&gt;Node15 -->
<g id="edge14_Node000001_Node000015" class="edge">
<title>Node1&#45;&gt;Node15</title>
<g id="a_edge14_Node000001_Node000015"><a xlink:title=" ">
<path fill="none" stroke="#63b8ff" d="M274.08,-353.84C264.2,-316.6 239.61,-244.21 190.75,-206.25 185.3,-202.02 179.18,-198.58 172.74,-195.78"/>
<polygon fill="#63b8ff" stroke="#63b8ff" points="270.58,-354.29 276.41,-363.14 277.37,-352.58 270.58,-354.29"/>
</a>
</g>
</g>
<!-- Node16 -->
<g id="Node000016" class="node">
<title>Node16</title>
<g id="a_Node000016"><a xlink:href="../../da/d10/classBinMemcached.html#ae5cca001bf994bfa686d58f0077b764c" target="_top" xlink:title=" ">
<polygon fill="white" stroke="#666666" points="186.25,-153.5 4.5,-153.5 4.5,-129 186.25,-129 186.25,-153.5"/>
<text text-anchor="middle" x="95.38" y="-136.2" font-family="Helvetica,sans-Serif" font-size="14.00">BinMemcached\checkPort</text>
</a>
</g>
</g>
<!-- Node1&#45;&gt;Node16 -->
<g id="edge15_Node000001_Node000016" class="edge">
<title>Node1&#45;&gt;Node16</title>
<g id="a_edge15_Node000001_Node000016"><a xlink:title=" ">
<path fill="none" stroke="#63b8ff" d="M276.68,-353.18C270.12,-308.6 249.65,-213.2 190.75,-163.25 186.39,-159.55 181.52,-156.45 176.36,-153.84"/>
<polygon fill="#63b8ff" stroke="#63b8ff" points="273.2,-353.62 278,-363.06 280.14,-352.68 273.2,-353.62"/>
</a>
</g>
</g>
<!-- Node17 -->
<g id="Node000017" class="node">
<title>Node17</title>
<g id="a_Node000017"><a xlink:href="../../d6/d88/classBinMysql.html#af9d2a8da6151dc0883213d3596cfa674" target="_top" xlink:title=" ">
<polygon fill="white" stroke="#666666" points="165.62,-110.5 25.12,-110.5 25.12,-86 165.62,-86 165.62,-110.5"/>
<text text-anchor="middle" x="95.38" y="-93.2" font-family="Helvetica,sans-Serif" font-size="14.00">BinMysql\checkPort</text>
</a>
</g>
</g>
<!-- Node1&#45;&gt;Node17 -->
<g id="edge16_Node000001_Node000017" class="edge">
<title>Node1&#45;&gt;Node17</title>
<g id="a_edge16_Node000001_Node000017"><a xlink:title=" ">
<path fill="none" stroke="#63b8ff" d="M278.57,-353.09C275.26,-302.04 260.08,-182.75 190.75,-120.25 183.63,-113.83 175,-109.18 165.89,-105.82"/>
<polygon fill="#63b8ff" stroke="#63b8ff" points="275.08,-353.21 279.11,-363.01 282.07,-352.84 275.08,-353.21"/>
</a>
</g>
</g>
<!-- Node18 -->
<g id="Node000018" class="node">
<title>Node18</title>
<g id="a_Node000018"><a xlink:href="../../dc/db9/classBinPostgresql.html#a1cca7ea136a877a3c5346d191c3bd66f" target="_top" xlink:title=" ">
<polygon fill="white" stroke="#666666" points="181.75,-67.5 9,-67.5 9,-43 181.75,-43 181.75,-67.5"/>
<text text-anchor="middle" x="95.38" y="-50.2" font-family="Helvetica,sans-Serif" font-size="14.00">BinPostgresql\checkPort</text>
</a>
</g>
</g>
<!-- Node1&#45;&gt;Node18 -->
<g id="edge17_Node000001_Node000018" class="edge">
<title>Node1&#45;&gt;Node18</title>
<g id="a_edge17_Node000001_Node000018"><a xlink:title=" ">
<path fill="none" stroke="#63b8ff" d="M279.98,-353.45C279.74,-296.75 270.84,-152.77 190.75,-77.25 186.83,-73.56 182.42,-70.44 177.7,-67.82"/>
<polygon fill="#63b8ff" stroke="#63b8ff" points="276.48,-353.22 279.92,-363.24 283.48,-353.26 276.48,-353.22"/>
</a>
</g>
</g>
<!-- Node19 -->
<g id="Node000019" class="node">
<title>Node19</title>
<g id="a_Node000019"><a xlink:href="../../d8/ddb/classBinXlight.html#ab82c8668ec828a8c3ea349ff6c712b17" target="_top" xlink:title=" ">
<polygon fill="white" stroke="#666666" points="164.88,-24.5 25.88,-24.5 25.88,0 164.88,0 164.88,-24.5"/>
<text text-anchor="middle" x="95.38" y="-7.2" font-family="Helvetica,sans-Serif" font-size="14.00">BinXlight\checkPort</text>
</a>
</g>
</g>
<!-- Node1&#45;&gt;Node19 -->
<g id="edge18_Node000001_Node000019" class="edge">
<title>Node1&#45;&gt;Node19</title>
<g id="a_edge18_Node000001_Node000019"><a xlink:title=" ">
<path fill="none" stroke="#63b8ff" d="M276.58,-353.69C267.46,-283.8 237.26,-79.65 190.75,-34.25 183.53,-27.2 174.5,-22.24 164.92,-18.79"/>
<polygon fill="#63b8ff" stroke="#63b8ff" points="273.07,-353.79 277.81,-363.27 280.01,-352.9 273.07,-353.79"/>
</a>
</g>
</g>
</g>
</svg>

<g id="navigator" transform="translate(0 0)" fill="#404254">
  <rect fill="#f2f5e9" fill-opacity="0.5" stroke="#606060" stroke-width=".5" x="0" y="0" width="60" height="60"/>
  <use id="zoomplus" xlink:href="#zoomPlus" x="17" y="9" onmousedown="handleZoom(evt,'in')"/>
  <use id="zoomminus" xlink:href="#zoomMin" x="42" y="9" onmousedown="handleZoom(evt,'out')"/>
  <use id="reset" xlink:href="#resetDef" x="30" y="36" onmousedown="handleReset()"/>
   <use id="arrowup" xlink:href="#arrowUp" x="0" y="0" onmousedown="handlePan(0,-1)"/>
  <use id="arrowright" xlink:href="#arrowRight" x="0" y="0" onmousedown="handlePan(1,0)"/>
  <use id="arrowdown" xlink:href="#arrowDown" x="0" y="0" onmousedown="handlePan(0,1)"/>
  <use id="arrowleft" xlink:href="#arrowLeft" x="0" y="0" onmousedown="handlePan(-1,0)"/>
</g>
<svg viewBox="0 0 15 15" width="100%" height="30px" preserveAspectRatio="xMaxYMin meet">
 <g id="arrow_out" transform="scale(0.3 0.3)">
  <a xlink:href="classUtil_a58043e7c549efa1e36db98e6fd741c6a_icgraph_org.svg" target="_base">
   <rect id="button" ry="5" rx="5" y="6" x="6" height="38" width="38"
        fill="#f2f5e9" fill-opacity="0.5" stroke="#606060" stroke-width="1.0"/>
   <path id="arrow"
     d="M 11.500037,31.436501 C 11.940474,20.09759 22.043105,11.32322 32.158766,21.979434 L 37.068811,17.246167 C 37.068811,17.246167 37.088388,32 37.088388,32 L 22.160133,31.978069 C 22.160133,31.978069 26.997745,27.140456 26.997745,27.140456 C 18.528582,18.264221 13.291696,25.230495 11.500037,31.436501 z"
     style="fill:#404040;"/>
  </a>
 </g>
</svg>

<style type='text/css'>
<![CDATA[
[data-mouse-over-selected='false'] { opacity: 0.7; }
[data-mouse-over-selected='true']  { opacity: 1.0; }
]]>
</style>
<script type="application/ecmascript"><![CDATA[
document.addEventListener('DOMContentLoaded', (event) => {
  highlightEdges();
  highlightAdjacentNodes();
});
]]></script>
</svg>
