<?xml version="1.0" encoding="UTF-8" standalone="no"?>
<!--
  - Copyright (c) 2021-2024 Bearsampp
  - License:  GNU General Public License version 3 or later; see LICENSE.txt
  - Author: Bear
  - Website: https://bearsampp.com
  - Github: https://github.com/Bearsampp
  -->

<!DOCTYPE svg PUBLIC "-//W3C//DTD SVG 1.1//EN"
 "http://www.w3.org/Graphics/SVG/1.1/DTD/svg11.dtd">
<!-- Generated by graphviz version 11.0.0 (20240428.1522)
 -->
<!-- Title: Util\setAppBinsRegKey Pages: 1 -->
<svg width="673pt" height="92pt"
 viewBox="0.00 0.00 673.25 91.75" xmlns="http://www.w3.org/2000/svg" xmlns:xlink="http://www.w3.org/1999/xlink">
<g id="graph0" class="graph" transform="scale(1 1) rotate(0) translate(4 87.75)">
<title>Util\setAppBinsRegKey</title>
<!-- Node1 -->
<g id="Node000001" class="node">
<title>Node1</title>
<g id="a_Node000001"><a xlink:title=" ">
<polygon fill="#999999" stroke="#666666" points="665.25,-57.75 500.75,-57.75 500.75,-33.25 665.25,-33.25 665.25,-57.75"/>
<text text-anchor="middle" x="583" y="-40.45" font-family="Helvetica,sans-Serif" font-size="14.00">Util\setAppBinsRegKey</text>
</a>
</g>
</g>
<!-- Node2 -->
<g id="Node000002" class="node">
<title>Node2</title>
<g id="a_Node000002"><a xlink:href="../../d1/db8/classActionStartup.html#abe4d907f0d15217a1a5f1536c648a6d1" target="_top" xlink:title=" ">
<polygon fill="white" stroke="#666666" points="464.75,-83.75 243.25,-83.75 243.25,-59.25 464.75,-59.25 464.75,-83.75"/>
<text text-anchor="middle" x="354" y="-66.45" font-family="Helvetica,sans-Serif" font-size="14.00">ActionStartup\checkBinsRegKey</text>
</a>
</g>
</g>
<!-- Node1&#45;&gt;Node2 -->
<g id="edge1_Node000001_Node000002" class="edge">
<title>Node1&#45;&gt;Node2</title>
<g id="a_edge1_Node000001_Node000002"><a xlink:title=" ">
<path fill="none" stroke="#63b8ff" d="M488.97,-56.15C481.12,-57.05 473.13,-57.97 465.16,-58.88"/>
<polygon fill="#63b8ff" stroke="#63b8ff" points="489.33,-59.64 498.86,-55.02 488.53,-52.68 489.33,-59.64"/>
</a>
</g>
</g>
<!-- Node4 -->
<g id="Node000004" class="node">
<title>Node4</title>
<g id="a_Node000004"><a xlink:href="../../d6/dff/classActionSwitchVersion.html#a89f1ff41b1715ca23ea9f9d35f7ff643" target="_top" xlink:title=" ">
<polygon fill="white" stroke="#666666" points="426.88,-41 281.12,-41 281.12,0 426.88,0 426.88,-41"/>
<text text-anchor="start" x="289.12" y="-23.7" font-family="Helvetica,sans-Serif" font-size="14.00">ActionSwitchVersion</text>
<text text-anchor="middle" x="354" y="-7.2" font-family="Helvetica,sans-Serif" font-size="14.00">\processWindow</text>
</a>
</g>
</g>
<!-- Node1&#45;&gt;Node4 -->
<g id="edge3_Node000001_Node000004" class="edge">
<title>Node1&#45;&gt;Node4</title>
<g id="a_edge3_Node000001_Node000004"><a xlink:title=" ">
<path fill="none" stroke="#63b8ff" d="M489.04,-35.26C468.43,-32.99 446.89,-30.62 427.26,-28.46"/>
<polygon fill="#63b8ff" stroke="#63b8ff" points="488.54,-38.73 498.86,-36.34 489.31,-31.77 488.54,-38.73"/>
</a>
</g>
</g>
<!-- Node3 -->
<g id="Node000003" class="node">
<title>Node3</title>
<g id="a_Node000003"><a xlink:href="../../d1/db8/classActionStartup.html#a1234a0f2093a95140d6f86983514d28f" target="_top" xlink:title=" ">
<polygon fill="white" stroke="#666666" points="207.25,-83.75 0,-83.75 0,-59.25 207.25,-59.25 207.25,-83.75"/>
<text text-anchor="middle" x="103.63" y="-66.45" font-family="Helvetica,sans-Serif" font-size="14.00">ActionStartup\processWindow</text>
</a>
</g>
</g>
<!-- Node2&#45;&gt;Node3 -->
<g id="edge2_Node000002_Node000003" class="edge">
<title>Node2&#45;&gt;Node3</title>
<g id="a_edge2_Node000002_Node000003"><a xlink:title=" ">
<path fill="none" stroke="#63b8ff" d="M231.59,-71.5C223.52,-71.5 215.43,-71.5 207.47,-71.5"/>
<polygon fill="#63b8ff" stroke="#63b8ff" points="231.46,-75 241.46,-71.5 231.46,-68 231.46,-75"/>
</a>
</g>
</g>
</g>
</svg>
