<?xml version="1.0" encoding="UTF-8" standalone="no"?>
<!--
  - Copyright (c) 2021-2024 Bearsampp
  - License:  GNU General Public License version 3 or later; see LICENSE.txt
  - Author: Bear
  - Website: https://bearsampp.com
  - Github: https://github.com/Bearsampp
  -->

<!DOCTYPE svg PUBLIC "-//W3C//DTD SVG 1.1//EN"
 "http://www.w3.org/Graphics/SVG/1.1/DTD/svg11.dtd">
<!-- Generated by graphviz version 11.0.0 (20240428.1522)
 -->
<!-- Title: Util\logWarning Pages: 1 -->
<!--zoomable 678 -->

<svg id="main" version="1.1" xmlns="http://www.w3.org/2000/svg" xmlns:xlink="http://www.w3.org/1999/xlink" xml:space="preserve" onload="init(evt)">
<style type="text/css"><![CDATA[
.node, .edge {opacity: 0.7;}
.node.selected, .edge.selected {opacity: 1;}
.edge:hover path { stroke: red; }
.edge:hover polygon { stroke: red; fill: red; }
]]></style>

<defs>
  <circle id="rim" cx="0" cy="0" r="7"/>
  <circle id="rim2" cx="0" cy="0" r="3.5"/>
  <g id="zoomPlus">
    <use xlink:href="#rim" fill="#404040"><set attributeName="fill" to="#808080" begin="zoomplus.mouseover" end="zoomplus.mouseout"/></use>
    <path d="M-4,0h8M0,-4v8" fill="none" stroke="white" stroke-width="1.5" pointer-events="none"/>
  </g>
  <g id="zoomMin">
    <use xlink:href="#rim" fill="#404040"><set attributeName="fill" to="#808080" begin="zoomminus.mouseover" end="zoomminus.mouseout"/></use>
    <path d="M-4,0h8" fill="none" stroke="white" stroke-width="1.5" pointer-events="none"/>
  </g>
  <g id="arrowUp" transform="translate(30 24)">
    <use xlink:href="#rim"/>
    <path pointer-events="none" fill="none" stroke="white" stroke-width="1.5" d="M0,-3.0v7 M-2.5,-0.5L0,-3.0L2.5,-0.5"/>
  </g>
  <g id="arrowRight" transform="rotate(90) translate(36 -43)">
    <use xlink:href="#rim"/>
    <path pointer-events="none" fill="none" stroke="white" stroke-width="1.5" d="M0,-3.0v7 M-2.5,-0.5L0,-3.0L2.5,-0.5"/>
  </g>
  <g id="arrowDown" transform="rotate(180) translate(-30 -48)">
    <use xlink:href="#rim"/>
    <path pointer-events="none" fill="none" stroke="white" stroke-width="1.5" d="M0,-3.0v7 M-2.5,-0.5L0,-3.0L2.5,-0.5"/>
  </g>
  <g id="arrowLeft" transform="rotate(270) translate(-36 17)">
    <use xlink:href="#rim"/>
    <path pointer-events="none" fill="none" stroke="white" stroke-width="1.5" d="M0,-3.0v7 M-2.5,-0.5L0,-3.0L2.5,-0.5"/>
  </g>
  <g id="resetDef">
    <use xlink:href="#rim2" fill="#404040"><set attributeName="fill" to="#808080" begin="reset.mouseover" end="reset.mouseout"/></use>
  </g>
</defs>
<script type="application/ecmascript">
var viewWidth = 1010;
var viewHeight = 678;
var sectionId = 'dynsection-48';
</script>
<script type="application/ecmascript" xlink:href="../../svg.min.js"/>
<svg id="graph" class="graph">
<g id="viewport">
<title>Util\logWarning</title>
<!-- Node1 -->
<g id="Node000001" class="node">
<title>Node1</title>
<g id="a_Node000001"><a xlink:title=" ">
<polygon fill="#999999" stroke="#666666" points="1001.75,-389.5 890.5,-389.5 890.5,-365 1001.75,-365 1001.75,-389.5"/>
<text text-anchor="middle" x="946.12" y="-372.2" font-family="Helvetica,sans-Serif" font-size="14.00">Util\logWarning</text>
</a>
</g>
</g>
<!-- Node2 -->
<g id="Node000002" class="node">
<title>Node2</title>
<g id="a_Node000002"><a xlink:href="../../d6/de4/classUtil.html#a10bf269e4cb8a9381331f47598616032" target="_top" xlink:title=" ">
<polygon fill="white" stroke="#666666" points="845.88,-647.5 689.62,-647.5 689.62,-623 845.88,-623 845.88,-647.5"/>
<text text-anchor="middle" x="767.75" y="-630.2" font-family="Helvetica,sans-Serif" font-size="14.00">Util\getNssmEnvPaths</text>
</a>
</g>
</g>
<!-- Node1&#45;&gt;Node2 -->
<g id="edge1_Node000001_Node000002" class="edge">
<title>Node1&#45;&gt;Node2</title>
<g id="a_edge1_Node000001_Node000002"><a xlink:title=" ">
<path fill="none" stroke="#63b8ff" d="M940.75,-401.09C931.72,-444.2 907.29,-535.87 854.5,-592.25 841.75,-605.87 823.75,-615.8 807.52,-622.66"/>
<polygon fill="#63b8ff" stroke="#63b8ff" points="944.17,-401.8 942.69,-391.31 937.31,-400.43 944.17,-401.8"/>
</a>
</g>
</g>
<!-- Node5 -->
<g id="Node000005" class="node">
<title>Node5</title>
<g id="a_Node000005"><a xlink:href="../../da/dbb/classBatch.html#a9d061c7f97932cb3c817bb7dd5e96b23" target="_top" xlink:title=" ">
<polygon fill="white" stroke="#666666" points="838.38,-583.5 697.12,-583.5 697.12,-559 838.38,-559 838.38,-583.5"/>
<text text-anchor="middle" x="767.75" y="-566.2" font-family="Helvetica,sans-Serif" font-size="14.00">Batch\initializeMysql</text>
</a>
</g>
</g>
<!-- Node1&#45;&gt;Node5 -->
<g id="edge4_Node000001_Node000005" class="edge">
<title>Node1&#45;&gt;Node5</title>
<g id="a_edge4_Node000001_Node000005"><a xlink:title=" ">
<path fill="none" stroke="#63b8ff" d="M932.36,-399.62C916.3,-426.66 886.87,-472.68 854.5,-506.25 834.4,-527.09 807.2,-546.52 788.87,-558.61"/>
<polygon fill="#63b8ff" stroke="#63b8ff" points="935.23,-401.64 937.26,-391.24 929.19,-398.11 935.23,-401.64"/>
</a>
</g>
</g>
<!-- Node9 -->
<g id="Node000009" class="node">
<title>Node9</title>
<g id="a_Node000009"><a xlink:href="../../da/dbb/classBatch.html#a936c3d0ee3029cb9c595e0e41a489d0c" target="_top" xlink:title=" ">
<polygon fill="white" stroke="#666666" points="854.5,-497.5 681,-497.5 681,-473 854.5,-473 854.5,-497.5"/>
<text text-anchor="middle" x="767.75" y="-480.2" font-family="Helvetica,sans-Serif" font-size="14.00">Batch\initializePostgresql</text>
</a>
</g>
</g>
<!-- Node1&#45;&gt;Node9 -->
<g id="edge8_Node000001_Node000009" class="edge">
<title>Node1&#45;&gt;Node9</title>
<g id="a_edge8_Node000001_Node000009"><a xlink:title=" ">
<path fill="none" stroke="#63b8ff" d="M915.11,-395.63C879.35,-417.53 820.54,-453.54 789.47,-472.56"/>
<polygon fill="#63b8ff" stroke="#63b8ff" points="916.56,-398.85 923.26,-390.64 912.9,-392.88 916.56,-398.85"/>
</a>
</g>
</g>
<!-- Node13 -->
<g id="Node000013" class="node">
<title>Node13</title>
<g id="a_Node000013"><a xlink:href="../../d6/de4/classUtil.html#a884d8e779d6f76e7ade398b4e177c5de" target="_top" xlink:title=" ">
<polygon fill="white" stroke="#666666" points="829,-368.5 706.5,-368.5 706.5,-344 829,-344 829,-368.5"/>
<text text-anchor="middle" x="767.75" y="-351.2" font-family="Helvetica,sans-Serif" font-size="14.00">Util\installService</text>
</a>
</g>
</g>
<!-- Node1&#45;&gt;Node13 -->
<g id="edge12_Node000001_Node000013" class="edge">
<title>Node1&#45;&gt;Node13</title>
<g id="a_edge12_Node000001_Node000013"><a xlink:title=" ">
<path fill="none" stroke="#63b8ff" d="M879.19,-369.4C862.86,-367.46 845.45,-365.38 829.39,-363.47"/>
<polygon fill="#63b8ff" stroke="#63b8ff" points="878.44,-372.83 888.78,-370.54 879.27,-365.88 878.44,-372.83"/>
</a>
</g>
</g>
<!-- Node25 -->
<g id="Node000025" class="node">
<title>Node25</title>
<g id="a_Node000025"><a xlink:href="../../d3/dc0/classToolGit.html#af6a9258a0bc77c87bda2e34ae3fc1833" target="_top" xlink:title=" ">
<polygon fill="white" stroke="#666666" points="820.75,-67.5 714.75,-67.5 714.75,-43 820.75,-43 820.75,-67.5"/>
<text text-anchor="middle" x="767.75" y="-50.2" font-family="Helvetica,sans-Serif" font-size="14.00">ToolGit\reload</text>
</a>
</g>
</g>
<!-- Node1&#45;&gt;Node25 -->
<g id="edge24_Node000001_Node000025" class="edge">
<title>Node1&#45;&gt;Node25</title>
<g id="a_edge24_Node000001_Node000025"><a xlink:title=" ">
<path fill="none" stroke="#63b8ff" d="M932.69,-354.56C898.21,-291.6 802.15,-116.23 775.62,-67.79"/>
<polygon fill="#63b8ff" stroke="#63b8ff" points="929.61,-356.21 937.48,-363.3 935.75,-352.85 929.61,-356.21"/>
</a>
</g>
</g>
<!-- Node28 -->
<g id="Node000028" class="node">
<title>Node28</title>
<g id="a_Node000028"><a xlink:href="../../d6/de4/classUtil.html#aa1f32ffa07ee38ff62bec865b343da62" target="_top" xlink:title=" ">
<polygon fill="white" stroke="#666666" points="835.38,-325.5 700.12,-325.5 700.12,-301 835.38,-301 835.38,-325.5"/>
<text text-anchor="middle" x="767.75" y="-308.2" font-family="Helvetica,sans-Serif" font-size="14.00">Util\removeService</text>
</a>
</g>
</g>
<!-- Node1&#45;&gt;Node28 -->
<g id="edge27_Node000001_Node000028" class="edge">
<title>Node1&#45;&gt;Node28</title>
<g id="a_edge27_Node000001_Node000028"><a xlink:title=" ">
<path fill="none" stroke="#63b8ff" d="M911.14,-359.7C894.39,-351.52 873.71,-342.1 854.5,-335.25 844.95,-331.84 834.62,-328.73 824.55,-325.99"/>
<polygon fill="#63b8ff" stroke="#63b8ff" points="909.15,-362.62 919.66,-363.93 912.26,-356.35 909.15,-362.62"/>
</a>
</g>
</g>
<!-- Node3 -->
<g id="Node000003" class="node">
<title>Node3</title>
<g id="a_Node000003"><a xlink:href="../../df/d28/classWin32Service.html#a0d671863c8ed9869297400110daef2c1" target="_top" xlink:title=" ">
<polygon fill="white" stroke="#666666" points="628.5,-669.5 479.75,-669.5 479.75,-645 628.5,-645 628.5,-669.5"/>
<text text-anchor="middle" x="554.12" y="-652.2" font-family="Helvetica,sans-Serif" font-size="14.00">Win32Service\create</text>
</a>
</g>
</g>
<!-- Node2&#45;&gt;Node3 -->
<g id="edge2_Node000002_Node000003" class="edge">
<title>Node2&#45;&gt;Node3</title>
<g id="a_edge2_Node000002_Node000003"><a xlink:title=" ">
<path fill="none" stroke="#63b8ff" d="M677.94,-644.48C661.59,-646.18 644.69,-647.94 628.84,-649.59"/>
<polygon fill="#63b8ff" stroke="#63b8ff" points="678.06,-647.99 687.64,-643.47 677.34,-641.03 678.06,-647.99"/>
</a>
</g>
</g>
<!-- Node4 -->
<g id="Node000004" class="node">
<title>Node4</title>
<g id="a_Node000004"><a xlink:href="../../df/d28/classWin32Service.html#ab2bdb25f7405e3bb9e5230fca1980747" target="_top" xlink:title=" ">
<polygon fill="white" stroke="#666666" points="400.62,-669.5 259.38,-669.5 259.38,-645 400.62,-645 400.62,-669.5"/>
<text text-anchor="middle" x="330" y="-652.2" font-family="Helvetica,sans-Serif" font-size="14.00">Win32Service\reset</text>
</a>
</g>
</g>
<!-- Node3&#45;&gt;Node4 -->
<g id="edge3_Node000003_Node000004" class="edge">
<title>Node3&#45;&gt;Node4</title>
<g id="a_edge3_Node000003_Node000004"><a xlink:title=" ">
<path fill="none" stroke="#63b8ff" d="M468.05,-657.25C445.92,-657.25 422.33,-657.25 401.07,-657.25"/>
<polygon fill="#63b8ff" stroke="#63b8ff" points="467.96,-660.75 477.96,-657.25 467.96,-653.75 467.96,-660.75"/>
</a>
</g>
</g>
<!-- Node6 -->
<g id="Node000006" class="node">
<title>Node6</title>
<g id="a_Node000006"><a xlink:href="../../d6/d88/classBinMysql.html#ad0cb81bbc0f92f94aba2b89eb3396818" target="_top" xlink:title=" ">
<polygon fill="white" stroke="#666666" points="615.75,-626.5 492.5,-626.5 492.5,-602 615.75,-602 615.75,-626.5"/>
<text text-anchor="middle" x="554.12" y="-609.2" font-family="Helvetica,sans-Serif" font-size="14.00">BinMysql\initData</text>
</a>
</g>
</g>
<!-- Node5&#45;&gt;Node6 -->
<g id="edge5_Node000005_Node000006" class="edge">
<title>Node5&#45;&gt;Node6</title>
<g id="a_edge5_Node000005_Node000006"><a xlink:title=" ">
<path fill="none" stroke="#63b8ff" d="M693.15,-586.2C668.01,-591.31 640.18,-596.97 616.14,-601.85"/>
<polygon fill="#63b8ff" stroke="#63b8ff" points="693.53,-589.7 702.63,-584.28 692.13,-582.84 693.53,-589.7"/>
</a>
</g>
</g>
<!-- Node7 -->
<g id="Node000007" class="node">
<title>Node7</title>
<g id="a_Node000007"><a xlink:href="../../d6/d88/classBinMysql.html#ab584c3d562f8f0c12c94c16d571398fb" target="_top" xlink:title=" ">
<polygon fill="white" stroke="#666666" points="411.12,-626.5 248.88,-626.5 248.88,-602 411.12,-602 411.12,-626.5"/>
<text text-anchor="middle" x="330" y="-609.2" font-family="Helvetica,sans-Serif" font-size="14.00">BinMysql\updateConfig</text>
</a>
</g>
</g>
<!-- Node6&#45;&gt;Node7 -->
<g id="edge6_Node000006_Node000007" class="edge">
<title>Node6&#45;&gt;Node7</title>
<g id="a_edge6_Node000006_Node000007"><a xlink:title=" ">
<path fill="none" stroke="#63b8ff" d="M480.78,-614.25C458.62,-614.25 434.1,-614.25 411.43,-614.25"/>
<polygon fill="#63b8ff" stroke="#63b8ff" points="480.62,-617.75 490.62,-614.25 480.62,-610.75 480.62,-617.75"/>
</a>
</g>
</g>
<!-- Node8 -->
<g id="Node000008" class="node">
<title>Node8</title>
<g id="a_Node000008"><a xlink:href="../../d6/d88/classBinMysql.html#a6d31e31a0b68da6fbf5db4d4210849a9" target="_top" xlink:title=" ">
<polygon fill="white" stroke="#666666" points="180.62,-626.5 16.12,-626.5 16.12,-602 180.62,-602 180.62,-626.5"/>
<text text-anchor="middle" x="98.38" y="-609.2" font-family="Helvetica,sans-Serif" font-size="14.00">BinMysql\switchVersion</text>
</a>
</g>
</g>
<!-- Node7&#45;&gt;Node8 -->
<g id="edge7_Node000007_Node000008" class="edge">
<title>Node7&#45;&gt;Node8</title>
<g id="a_edge7_Node000007_Node000008"><a xlink:title=" ">
<path fill="none" stroke="#63b8ff" d="M237.21,-614.25C218.56,-614.25 199.07,-614.25 180.81,-614.25"/>
<polygon fill="#63b8ff" stroke="#63b8ff" points="237.17,-617.75 247.17,-614.25 237.17,-610.75 237.17,-617.75"/>
</a>
</g>
</g>
<!-- Node10 -->
<g id="Node000010" class="node">
<title>Node10</title>
<g id="a_Node000010"><a xlink:href="../../dc/db9/classBinPostgresql.html#a6a6817ca71ca5be4dfd3a6a282136b6e" target="_top" xlink:title=" ">
<polygon fill="white" stroke="#666666" points="631.88,-583.5 476.38,-583.5 476.38,-559 631.88,-559 631.88,-583.5"/>
<text text-anchor="middle" x="554.12" y="-566.2" font-family="Helvetica,sans-Serif" font-size="14.00">BinPostgresql\initData</text>
</a>
</g>
</g>
<!-- Node9&#45;&gt;Node10 -->
<g id="edge9_Node000009_Node000010" class="edge">
<title>Node9&#45;&gt;Node10</title>
<g id="a_edge9_Node000009_Node000010"><a xlink:title=" ">
<path fill="none" stroke="#63b8ff" d="M736.75,-503.67C712.68,-517.79 677.63,-536.89 645,-549.25 635.69,-552.78 625.61,-555.89 615.69,-558.57"/>
<polygon fill="#63b8ff" stroke="#63b8ff" points="738.25,-506.85 745.06,-498.73 734.67,-500.83 738.25,-506.85"/>
</a>
</g>
</g>
<!-- Node11 -->
<g id="Node000011" class="node">
<title>Node11</title>
<g id="a_Node000011"><a xlink:href="../../dc/db9/classBinPostgresql.html#ab9521e473ea9de96409472e01cd215a6" target="_top" xlink:title=" ">
<polygon fill="white" stroke="#666666" points="427.25,-583.5 232.75,-583.5 232.75,-559 427.25,-559 427.25,-583.5"/>
<text text-anchor="middle" x="330" y="-566.2" font-family="Helvetica,sans-Serif" font-size="14.00">BinPostgresql\updateConfig</text>
</a>
</g>
</g>
<!-- Node10&#45;&gt;Node11 -->
<g id="edge10_Node000010_Node000011" class="edge">
<title>Node10&#45;&gt;Node11</title>
<g id="a_edge10_Node000010_Node000011"><a xlink:title=" ">
<path fill="none" stroke="#63b8ff" d="M464.9,-571.25C452.61,-571.25 439.93,-571.25 427.5,-571.25"/>
<polygon fill="#63b8ff" stroke="#63b8ff" points="464.55,-574.75 474.55,-571.25 464.55,-567.75 464.55,-574.75"/>
</a>
</g>
</g>
<!-- Node12 -->
<g id="Node000012" class="node">
<title>Node12</title>
<g id="a_Node000012"><a xlink:href="../../dc/db9/classBinPostgresql.html#a79ac81202051d309f1cfa47f0545d2b2" target="_top" xlink:title=" ">
<polygon fill="white" stroke="#666666" points="196.75,-583.5 0,-583.5 0,-559 196.75,-559 196.75,-583.5"/>
<text text-anchor="middle" x="98.38" y="-566.2" font-family="Helvetica,sans-Serif" font-size="14.00">BinPostgresql\switchVersion</text>
</a>
</g>
</g>
<!-- Node11&#45;&gt;Node12 -->
<g id="edge11_Node000011_Node000012" class="edge">
<title>Node11&#45;&gt;Node12</title>
<g id="a_edge11_Node000011_Node000012"><a xlink:title=" ">
<path fill="none" stroke="#63b8ff" d="M221.03,-571.25C213.04,-571.25 205.01,-571.25 197.08,-571.25"/>
<polygon fill="#63b8ff" stroke="#63b8ff" points="220.77,-574.75 230.77,-571.25 220.77,-567.75 220.77,-574.75"/>
</a>
</g>
</g>
<!-- Node14 -->
<g id="Node000014" class="node">
<title>Node14</title>
<g id="a_Node000014"><a xlink:href="../../d7/d0e/classActionService.html#a0a1a0cd7ef10e75a7b29e39b2542b2b2" target="_top" xlink:title=" ">
<polygon fill="white" stroke="#666666" points="625.5,-540.5 482.75,-540.5 482.75,-516 625.5,-516 625.5,-540.5"/>
<text text-anchor="middle" x="554.12" y="-523.2" font-family="Helvetica,sans-Serif" font-size="14.00">ActionService\install</text>
</a>
</g>
</g>
<!-- Node13&#45;&gt;Node14 -->
<g id="edge13_Node000013_Node000014" class="edge">
<title>Node13&#45;&gt;Node14</title>
<g id="a_edge13_Node000013_Node000014"><a xlink:title=" ">
<path fill="none" stroke="#63b8ff" d="M749.6,-377.74C716.87,-418.69 648.44,-504.07 645,-506.25 639.03,-510.03 632.45,-513.16 625.66,-515.76"/>
<polygon fill="#63b8ff" stroke="#63b8ff" points="752.28,-379.99 755.79,-369.99 746.81,-375.62 752.28,-379.99"/>
</a>
</g>
</g>
<!-- Node16 -->
<g id="Node000016" class="node">
<title>Node16</title>
<g id="a_Node000016"><a xlink:href="../../d9/d6c/classBinApache.html#a54e8925c2f6dec1622cc8b4171810348" target="_top" xlink:title=" ">
<polygon fill="white" stroke="#666666" points="630.38,-497.5 477.88,-497.5 477.88,-473 630.38,-473 630.38,-497.5"/>
<text text-anchor="middle" x="554.12" y="-480.2" font-family="Helvetica,sans-Serif" font-size="14.00">BinApache\setEnable</text>
</a>
</g>
</g>
<!-- Node13&#45;&gt;Node16 -->
<g id="edge15_Node000013_Node000016" class="edge">
<title>Node13&#45;&gt;Node16</title>
<g id="a_edge15_Node000013_Node000016"><a xlink:title=" ">
<path fill="none" stroke="#63b8ff" d="M748.53,-377.53C726.48,-401.92 687.04,-441.33 645,-463.25 637.88,-466.96 630.11,-470.06 622.22,-472.65"/>
<polygon fill="#63b8ff" stroke="#63b8ff" points="751.08,-379.93 755.1,-370.12 745.84,-375.29 751.08,-379.93"/>
</a>
</g>
</g>
<!-- Node17 -->
<g id="Node000017" class="node">
<title>Node17</title>
<g id="a_Node000017"><a xlink:href="../../da/d23/classBinFilezilla.html#a00f53d4c8b7f101f056eded025c1f3c1" target="_top" xlink:title=" ">
<polygon fill="white" stroke="#666666" points="629.25,-454.5 479,-454.5 479,-430 629.25,-430 629.25,-454.5"/>
<text text-anchor="middle" x="554.12" y="-437.2" font-family="Helvetica,sans-Serif" font-size="14.00">BinFilezilla\setEnable</text>
</a>
</g>
</g>
<!-- Node13&#45;&gt;Node17 -->
<g id="edge16_Node000013_Node000017" class="edge">
<title>Node13&#45;&gt;Node17</title>
<g id="a_edge16_Node000013_Node000017"><a xlink:title=" ">
<path fill="none" stroke="#63b8ff" d="M736.75,-374.67C712.68,-388.79 677.63,-407.89 645,-420.25 635.69,-423.78 625.61,-426.89 615.69,-429.57"/>
<polygon fill="#63b8ff" stroke="#63b8ff" points="738.25,-377.85 745.06,-369.73 734.67,-371.83 738.25,-377.85"/>
</a>
</g>
</g>
<!-- Node18 -->
<g id="Node000018" class="node">
<title>Node18</title>
<g id="a_Node000018"><a xlink:href="../../db/df2/classBinMailhog.html#aecce319d43fb78f65b3a4ff9913c8be5" target="_top" xlink:title=" ">
<polygon fill="white" stroke="#666666" points="630.38,-411.5 477.88,-411.5 477.88,-387 630.38,-387 630.38,-411.5"/>
<text text-anchor="middle" x="554.12" y="-394.2" font-family="Helvetica,sans-Serif" font-size="14.00">BinMailhog\setEnable</text>
</a>
</g>
</g>
<!-- Node13&#45;&gt;Node18 -->
<g id="edge17_Node000013_Node000018" class="edge">
<title>Node13&#45;&gt;Node18</title>
<g id="a_edge17_Node000013_Node000018"><a xlink:title=" ">
<path fill="none" stroke="#63b8ff" d="M695.15,-370.8C670,-375.91 641.96,-381.61 617.62,-386.55"/>
<polygon fill="#63b8ff" stroke="#63b8ff" points="695.52,-374.29 704.62,-368.87 694.13,-367.43 695.52,-374.29"/>
</a>
</g>
</g>
<!-- Node19 -->
<g id="Node000019" class="node">
<title>Node19</title>
<g id="a_Node000019"><a xlink:href="../../d9/ddd/classBinMailpit.html#a32db6d32a46a58829c4535ad33e2202f" target="_top" xlink:title=" ">
<polygon fill="white" stroke="#666666" points="625.88,-368.5 482.38,-368.5 482.38,-344 625.88,-344 625.88,-368.5"/>
<text text-anchor="middle" x="554.12" y="-351.2" font-family="Helvetica,sans-Serif" font-size="14.00">BinMailpit\setEnable</text>
</a>
</g>
</g>
<!-- Node13&#45;&gt;Node19 -->
<g id="edge18_Node000013_Node000019" class="edge">
<title>Node13&#45;&gt;Node19</title>
<g id="a_edge18_Node000013_Node000019"><a xlink:title=" ">
<path fill="none" stroke="#63b8ff" d="M694.76,-356.25C672.64,-356.25 648.31,-356.25 626.25,-356.25"/>
<polygon fill="#63b8ff" stroke="#63b8ff" points="694.59,-359.75 704.59,-356.25 694.59,-352.75 694.59,-359.75"/>
</a>
</g>
</g>
<!-- Node20 -->
<g id="Node000020" class="node">
<title>Node20</title>
<g id="a_Node000020"><a xlink:href="../../d4/d8f/classBinMariadb.html#a976769ec002d6256882fc608f2a971c1" target="_top" xlink:title=" ">
<polygon fill="white" stroke="#666666" points="631.12,-325.5 477.12,-325.5 477.12,-301 631.12,-301 631.12,-325.5"/>
<text text-anchor="middle" x="554.12" y="-308.2" font-family="Helvetica,sans-Serif" font-size="14.00">BinMariadb\setEnable</text>
</a>
</g>
</g>
<!-- Node13&#45;&gt;Node20 -->
<g id="edge19_Node000013_Node000020" class="edge">
<title>Node13&#45;&gt;Node20</title>
<g id="a_edge19_Node000013_Node000020"><a xlink:title=" ">
<path fill="none" stroke="#63b8ff" d="M695.15,-341.7C670,-336.59 641.96,-330.89 617.62,-325.95"/>
<polygon fill="#63b8ff" stroke="#63b8ff" points="694.13,-345.07 704.62,-343.63 695.52,-338.21 694.13,-345.07"/>
</a>
</g>
</g>
<!-- Node21 -->
<g id="Node000021" class="node">
<title>Node21</title>
<g id="a_Node000021"><a xlink:href="../../da/d10/classBinMemcached.html#a6e34e322bae67fd3cb41528c12e62a4c" target="_top" xlink:title=" ">
<polygon fill="white" stroke="#666666" points="645,-282.5 463.25,-282.5 463.25,-258 645,-258 645,-282.5"/>
<text text-anchor="middle" x="554.12" y="-265.2" font-family="Helvetica,sans-Serif" font-size="14.00">BinMemcached\setEnable</text>
</a>
</g>
</g>
<!-- Node13&#45;&gt;Node21 -->
<g id="edge20_Node000013_Node000021" class="edge">
<title>Node13&#45;&gt;Node21</title>
<g id="a_edge20_Node000013_Node000021"><a xlink:title=" ">
<path fill="none" stroke="#63b8ff" d="M695.59,-341.73C690.5,-339.57 685.57,-337.09 681,-334.25 660.13,-321.26 665.95,-305.12 645,-292.25 638.98,-288.55 632.37,-285.47 625.56,-282.91"/>
<polygon fill="#63b8ff" stroke="#63b8ff" points="694.23,-344.96 704.82,-345.2 696.69,-338.41 694.23,-344.96"/>
</a>
</g>
</g>
<!-- Node22 -->
<g id="Node000022" class="node">
<title>Node22</title>
<g id="a_Node000022"><a xlink:href="../../d6/d88/classBinMysql.html#ae2f67df247c503657a59721431e74e5d" target="_top" xlink:title=" ">
<polygon fill="white" stroke="#666666" points="624.38,-239.5 483.88,-239.5 483.88,-215 624.38,-215 624.38,-239.5"/>
<text text-anchor="middle" x="554.12" y="-222.2" font-family="Helvetica,sans-Serif" font-size="14.00">BinMysql\setEnable</text>
</a>
</g>
</g>
<!-- Node13&#45;&gt;Node22 -->
<g id="edge21_Node000013_Node000022" class="edge">
<title>Node13&#45;&gt;Node22</title>
<g id="a_edge21_Node000013_Node000022"><a xlink:title=" ">
<path fill="none" stroke="#63b8ff" d="M695.65,-343.8C690.37,-341.19 685.4,-338.04 681,-334.25 649.9,-307.49 676.24,-275.84 645,-249.25 639.01,-244.15 632.01,-240.19 624.62,-237.13"/>
<polygon fill="#63b8ff" stroke="#63b8ff" points="694.13,-346.96 704.7,-347.62 696.84,-340.51 694.13,-346.96"/>
</a>
</g>
</g>
<!-- Node23 -->
<g id="Node000023" class="node">
<title>Node23</title>
<g id="a_Node000023"><a xlink:href="../../dc/db9/classBinPostgresql.html#a1dfaa8c453e59e1a9849bfd7b5a27bbb" target="_top" xlink:title=" ">
<polygon fill="white" stroke="#666666" points="640.5,-196.5 467.75,-196.5 467.75,-172 640.5,-172 640.5,-196.5"/>
<text text-anchor="middle" x="554.12" y="-179.2" font-family="Helvetica,sans-Serif" font-size="14.00">BinPostgresql\setEnable</text>
</a>
</g>
</g>
<!-- Node13&#45;&gt;Node23 -->
<g id="edge22_Node000013_Node000023" class="edge">
<title>Node13&#45;&gt;Node23</title>
<g id="a_edge22_Node000013_Node000023"><a xlink:title=" ">
<path fill="none" stroke="#63b8ff" d="M696.02,-344.87C690.51,-342.04 685.4,-338.55 681,-334.25 638.73,-292.95 687.49,-247.32 645,-206.25 641.19,-202.57 636.87,-199.47 632.23,-196.86"/>
<polygon fill="#63b8ff" stroke="#63b8ff" points="694.31,-347.95 704.88,-348.69 697.08,-341.52 694.31,-347.95"/>
</a>
</g>
</g>
<!-- Node24 -->
<g id="Node000024" class="node">
<title>Node24</title>
<g id="a_Node000024"><a xlink:href="../../d8/ddb/classBinXlight.html#af8a4eaf341f9faaf452ef20759623a1a" target="_top" xlink:title=" ">
<polygon fill="white" stroke="#666666" points="623.62,-153.5 484.62,-153.5 484.62,-129 623.62,-129 623.62,-153.5"/>
<text text-anchor="middle" x="554.12" y="-136.2" font-family="Helvetica,sans-Serif" font-size="14.00">BinXlight\setEnable</text>
</a>
</g>
</g>
<!-- Node13&#45;&gt;Node24 -->
<g id="edge23_Node000013_Node000024" class="edge">
<title>Node13&#45;&gt;Node24</title>
<g id="a_edge23_Node000013_Node000024"><a xlink:title=" ">
<path fill="none" stroke="#63b8ff" d="M695.96,-345.31C690.42,-342.39 685.32,-338.76 681,-334.25 627.29,-278.15 699.02,-219.06 645,-163.25 639.08,-157.13 631.76,-152.61 623.87,-149.27"/>
<polygon fill="#63b8ff" stroke="#63b8ff" points="694.36,-348.43 704.93,-349.23 697.16,-342.02 694.36,-348.43"/>
</a>
</g>
</g>
<!-- Node15 -->
<g id="Node000015" class="node">
<title>Node15</title>
<g id="a_Node000015"><a xlink:href="../../d7/d0e/classActionService.html#a4440ed18ce314e66ba30932864b5584b" target="_top" xlink:title=" ">
<polygon fill="white" stroke="#666666" points="420.88,-540.5 239.12,-540.5 239.12,-516 420.88,-516 420.88,-540.5"/>
<text text-anchor="middle" x="330" y="-523.2" font-family="Helvetica,sans-Serif" font-size="14.00">ActionService\__construct</text>
</a>
</g>
</g>
<!-- Node14&#45;&gt;Node15 -->
<g id="edge14_Node000014_Node000015" class="edge">
<title>Node14&#45;&gt;Node15</title>
<g id="a_edge14_Node000014_Node000015"><a xlink:title=" ">
<path fill="none" stroke="#63b8ff" d="M471.42,-528.25C455.13,-528.25 437.93,-528.25 421.36,-528.25"/>
<polygon fill="#63b8ff" stroke="#63b8ff" points="471.02,-531.75 481.02,-528.25 471.02,-524.75 471.02,-531.75"/>
</a>
</g>
</g>
<!-- Node26 -->
<g id="Node000026" class="node">
<title>Node26</title>
<g id="a_Node000026"><a xlink:href="../../d3/dc0/classToolGit.html#af65324d2b48326eaa85ead71a7db6c46" target="_top" xlink:title=" ">
<polygon fill="white" stroke="#666666" points="624.38,-67.5 483.88,-67.5 483.88,-43 624.38,-43 624.38,-67.5"/>
<text text-anchor="middle" x="554.12" y="-50.2" font-family="Helvetica,sans-Serif" font-size="14.00">ToolGit\__construct</text>
</a>
</g>
</g>
<!-- Node25&#45;&gt;Node26 -->
<g id="edge25_Node000025_Node000026" class="edge">
<title>Node25&#45;&gt;Node26</title>
<g id="a_edge25_Node000025_Node000026"><a xlink:title=" ">
<path fill="none" stroke="#63b8ff" d="M703.02,-55.25C678.34,-55.25 650.01,-55.25 624.8,-55.25"/>
<polygon fill="#63b8ff" stroke="#63b8ff" points="702.92,-58.75 712.92,-55.25 702.92,-51.75 702.92,-58.75"/>
</a>
</g>
</g>
<!-- Node27 -->
<g id="Node000027" class="node">
<title>Node27</title>
<g id="a_Node000027"><a xlink:href="../../d3/dc0/classToolGit.html#a97493fb6ac4a0fb5c0f882d6b02e37f1" target="_top" xlink:title=" ">
<polygon fill="white" stroke="#666666" points="621.38,-24.5 486.88,-24.5 486.88,0 621.38,0 621.38,-24.5"/>
<text text-anchor="middle" x="554.12" y="-7.2" font-family="Helvetica,sans-Serif" font-size="14.00">ToolGit\setVersion</text>
</a>
</g>
</g>
<!-- Node25&#45;&gt;Node27 -->
<g id="edge26_Node000025_Node000027" class="edge">
<title>Node25&#45;&gt;Node27</title>
<g id="a_edge26_Node000025_Node000027"><a xlink:title=" ">
<path fill="none" stroke="#63b8ff" d="M703.51,-42.4C676.39,-36.89 644.8,-30.47 617.75,-24.98"/>
<polygon fill="#63b8ff" stroke="#63b8ff" points="702.46,-45.76 712.95,-44.32 703.85,-38.9 702.46,-45.76"/>
</a>
</g>
</g>
<!-- Node28&#45;&gt;Node16 -->
<g id="edge29_Node000028_Node000016" class="edge">
<title>Node28&#45;&gt;Node16</title>
<g id="a_edge29_Node000028_Node000016"><a xlink:title=" ">
<path fill="none" stroke="#63b8ff" d="M689.81,-328.23C686.66,-330.29 683.69,-332.62 681,-335.25 638.73,-376.55 687.49,-422.18 645,-463.25 640.73,-467.38 635.81,-470.78 630.53,-473.56"/>
<polygon fill="#63b8ff" stroke="#63b8ff" points="691.34,-331.38 698.46,-323.54 688,-325.23 691.34,-331.38"/>
</a>
</g>
</g>
<!-- Node28&#45;&gt;Node17 -->
<g id="edge30_Node000028_Node000017" class="edge">
<title>Node28&#45;&gt;Node17</title>
<g id="a_edge30_Node000028_Node000017"><a xlink:title=" ">
<path fill="none" stroke="#63b8ff" d="M690.01,-328.78C686.82,-330.7 683.8,-332.84 681,-335.25 649.9,-362.01 676.24,-393.66 645,-420.25 640.35,-424.21 635.1,-427.47 629.53,-430.17"/>
<polygon fill="#63b8ff" stroke="#63b8ff" points="691.32,-332.04 698.64,-324.38 688.14,-325.8 691.32,-332.04"/>
</a>
</g>
</g>
<!-- Node28&#45;&gt;Node18 -->
<g id="edge31_Node000028_Node000018" class="edge">
<title>Node28&#45;&gt;Node18</title>
<g id="a_edge31_Node000028_Node000018"><a xlink:title=" ">
<path fill="none" stroke="#63b8ff" d="M690.11,-330.25C686.96,-331.78 683.91,-333.44 681,-335.25 660.13,-348.24 665.95,-364.38 645,-377.25 638.98,-380.95 632.37,-384.03 625.56,-386.59"/>
<polygon fill="#63b8ff" stroke="#63b8ff" points="691.22,-333.58 699.04,-326.43 688.47,-327.15 691.22,-333.58"/>
</a>
</g>
</g>
<!-- Node28&#45;&gt;Node19 -->
<g id="edge32_Node000028_Node000019" class="edge">
<title>Node28&#45;&gt;Node19</title>
<g id="a_edge32_Node000028_Node000019"><a xlink:title=" ">
<path fill="none" stroke="#63b8ff" d="M693.01,-328.23C668.41,-333.23 641.26,-338.75 617.6,-343.56"/>
<polygon fill="#63b8ff" stroke="#63b8ff" points="693.53,-331.7 702.63,-326.28 692.13,-324.84 693.53,-331.7"/>
</a>
</g>
</g>
<!-- Node28&#45;&gt;Node20 -->
<g id="edge33_Node000028_Node000020" class="edge">
<title>Node28&#45;&gt;Node20</title>
<g id="a_edge33_Node000028_Node000020"><a xlink:title=" ">
<path fill="none" stroke="#63b8ff" d="M688.41,-313.25C669.85,-313.25 650.08,-313.25 631.6,-313.25"/>
<polygon fill="#63b8ff" stroke="#63b8ff" points="688.28,-316.75 698.28,-313.25 688.28,-309.75 688.28,-316.75"/>
</a>
</g>
</g>
<!-- Node28&#45;&gt;Node21 -->
<g id="edge34_Node000028_Node000021" class="edge">
<title>Node28&#45;&gt;Node21</title>
<g id="a_edge34_Node000028_Node000021"><a xlink:title=" ">
<path fill="none" stroke="#63b8ff" d="M693.01,-298.27C668.41,-293.27 641.26,-287.75 617.6,-282.94"/>
<polygon fill="#63b8ff" stroke="#63b8ff" points="692.13,-301.66 702.63,-300.22 693.53,-294.8 692.13,-301.66"/>
</a>
</g>
</g>
<!-- Node28&#45;&gt;Node22 -->
<g id="edge35_Node000028_Node000022" class="edge">
<title>Node28&#45;&gt;Node22</title>
<g id="a_edge35_Node000028_Node000022"><a xlink:title=" ">
<path fill="none" stroke="#63b8ff" d="M736.75,-294.83C712.68,-280.71 677.63,-261.61 645,-249.25 635.69,-245.72 625.61,-242.61 615.69,-239.93"/>
<polygon fill="#63b8ff" stroke="#63b8ff" points="734.67,-297.67 745.06,-299.77 738.25,-291.65 734.67,-297.67"/>
</a>
</g>
</g>
<!-- Node28&#45;&gt;Node23 -->
<g id="edge36_Node000028_Node000023" class="edge">
<title>Node28&#45;&gt;Node23</title>
<g id="a_edge36_Node000028_Node000023"><a xlink:title=" ">
<path fill="none" stroke="#63b8ff" d="M748.53,-291.97C726.48,-267.58 687.04,-228.17 645,-206.25 637.88,-202.54 630.11,-199.44 622.22,-196.85"/>
<polygon fill="#63b8ff" stroke="#63b8ff" points="745.84,-294.21 755.1,-299.38 751.08,-289.57 745.84,-294.21"/>
</a>
</g>
</g>
<!-- Node28&#45;&gt;Node24 -->
<g id="edge37_Node000028_Node000024" class="edge">
<title>Node28&#45;&gt;Node24</title>
<g id="a_edge37_Node000028_Node000024"><a xlink:title=" ">
<path fill="none" stroke="#63b8ff" d="M754.88,-290.8C736.13,-257.59 696.43,-195.82 645,-163.25 638.49,-159.12 631.25,-155.77 623.8,-153.05"/>
<polygon fill="#63b8ff" stroke="#63b8ff" points="751.81,-292.48 759.69,-299.56 757.94,-289.11 751.81,-292.48"/>
</a>
</g>
</g>
<!-- Node29 -->
<g id="Node000029" class="node">
<title>Node29</title>
<g id="a_Node000029"><a xlink:href="../../d7/d0e/classActionService.html#aef966abecbb314d1534fb4d15ac1c2a4" target="_top" xlink:title=" ">
<polygon fill="white" stroke="#666666" points="631.88,-110.5 476.38,-110.5 476.38,-86 631.88,-86 631.88,-110.5"/>
<text text-anchor="middle" x="554.12" y="-93.2" font-family="Helvetica,sans-Serif" font-size="14.00">ActionService\remove</text>
</a>
</g>
</g>
<!-- Node28&#45;&gt;Node29 -->
<g id="edge28_Node000028_Node000029" class="edge">
<title>Node28&#45;&gt;Node29</title>
<g id="a_edge28_Node000028_Node000029"><a xlink:title=" ">
<path fill="none" stroke="#63b8ff" d="M758.66,-289.7C743.29,-248.63 705.86,-164.07 645,-120.25 639.92,-116.59 634.29,-113.53 628.42,-110.98"/>
<polygon fill="#63b8ff" stroke="#63b8ff" points="755.36,-290.88 762.05,-299.09 761.95,-288.5 755.36,-290.88"/>
</a>
</g>
</g>
</g>
</svg>

<g id="navigator" transform="translate(0 0)" fill="#404254">
  <rect fill="#f2f5e9" fill-opacity="0.5" stroke="#606060" stroke-width=".5" x="0" y="0" width="60" height="60"/>
  <use id="zoomplus" xlink:href="#zoomPlus" x="17" y="9" onmousedown="handleZoom(evt,'in')"/>
  <use id="zoomminus" xlink:href="#zoomMin" x="42" y="9" onmousedown="handleZoom(evt,'out')"/>
  <use id="reset" xlink:href="#resetDef" x="30" y="36" onmousedown="handleReset()"/>
   <use id="arrowup" xlink:href="#arrowUp" x="0" y="0" onmousedown="handlePan(0,-1)"/>
  <use id="arrowright" xlink:href="#arrowRight" x="0" y="0" onmousedown="handlePan(1,0)"/>
  <use id="arrowdown" xlink:href="#arrowDown" x="0" y="0" onmousedown="handlePan(0,1)"/>
  <use id="arrowleft" xlink:href="#arrowLeft" x="0" y="0" onmousedown="handlePan(-1,0)"/>
</g>
<svg viewBox="0 0 15 15" width="100%" height="30px" preserveAspectRatio="xMaxYMin meet">
 <g id="arrow_out" transform="scale(0.3 0.3)">
  <a xlink:href="classUtil_ac64c6c9351f7d06baeb7c31c4cd797d2_icgraph_org.svg" target="_base">
   <rect id="button" ry="5" rx="5" y="6" x="6" height="38" width="38"
        fill="#f2f5e9" fill-opacity="0.5" stroke="#606060" stroke-width="1.0"/>
   <path id="arrow"
     d="M 11.500037,31.436501 C 11.940474,20.09759 22.043105,11.32322 32.158766,21.979434 L 37.068811,17.246167 C 37.068811,17.246167 37.088388,32 37.088388,32 L 22.160133,31.978069 C 22.160133,31.978069 26.997745,27.140456 26.997745,27.140456 C 18.528582,18.264221 13.291696,25.230495 11.500037,31.436501 z"
     style="fill:#404040;"/>
  </a>
 </g>
</svg>

<style type='text/css'>
<![CDATA[
[data-mouse-over-selected='false'] { opacity: 0.7; }
[data-mouse-over-selected='true']  { opacity: 1.0; }
]]>
</style>
<script type="application/ecmascript"><![CDATA[
document.addEventListener('DOMContentLoaded', (event) => {
  highlightEdges();
  highlightAdjacentNodes();
});
]]></script>
</svg>
