<?xml version="1.0" encoding="UTF-8" standalone="no"?>
<!--
  - Copyright (c) 2021-2024 Bearsampp
  - License:  GNU General Public License version 3 or later; see LICENSE.txt
  - Author: Bear
  - Website: https://bearsampp.com
  - Github: https://github.com/Bearsampp
  -->

<!DOCTYPE svg PUBLIC "-//W3C//DTD SVG 1.1//EN"
 "http://www.w3.org/Graphics/SVG/1.1/DTD/svg11.dtd">
<!-- Generated by graphviz version 11.0.0 (20240428.1522)
 -->
<!-- Title: Util\getMicrotime Pages: 1 -->
<!--zoomable 172 -->

<svg id="main" version="1.1" xmlns="http://www.w3.org/2000/svg" xmlns:xlink="http://www.w3.org/1999/xlink" xml:space="preserve" onload="init(evt)">
<style type="text/css"><![CDATA[
.node, .edge {opacity: 0.7;}
.node.selected, .edge.selected {opacity: 1;}
.edge:hover path { stroke: red; }
.edge:hover polygon { stroke: red; fill: red; }
]]></style>

<defs>
  <circle id="rim" cx="0" cy="0" r="7"/>
  <circle id="rim2" cx="0" cy="0" r="3.5"/>
  <g id="zoomPlus">
    <use xlink:href="#rim" fill="#404040"><set attributeName="fill" to="#808080" begin="zoomplus.mouseover" end="zoomplus.mouseout"/></use>
    <path d="M-4,0h8M0,-4v8" fill="none" stroke="white" stroke-width="1.5" pointer-events="none"/>
  </g>
  <g id="zoomMin">
    <use xlink:href="#rim" fill="#404040"><set attributeName="fill" to="#808080" begin="zoomminus.mouseover" end="zoomminus.mouseout"/></use>
    <path d="M-4,0h8" fill="none" stroke="white" stroke-width="1.5" pointer-events="none"/>
  </g>
  <g id="arrowUp" transform="translate(30 24)">
    <use xlink:href="#rim"/>
    <path pointer-events="none" fill="none" stroke="white" stroke-width="1.5" d="M0,-3.0v7 M-2.5,-0.5L0,-3.0L2.5,-0.5"/>
  </g>
  <g id="arrowRight" transform="rotate(90) translate(36 -43)">
    <use xlink:href="#rim"/>
    <path pointer-events="none" fill="none" stroke="white" stroke-width="1.5" d="M0,-3.0v7 M-2.5,-0.5L0,-3.0L2.5,-0.5"/>
  </g>
  <g id="arrowDown" transform="rotate(180) translate(-30 -48)">
    <use xlink:href="#rim"/>
    <path pointer-events="none" fill="none" stroke="white" stroke-width="1.5" d="M0,-3.0v7 M-2.5,-0.5L0,-3.0L2.5,-0.5"/>
  </g>
  <g id="arrowLeft" transform="rotate(270) translate(-36 17)">
    <use xlink:href="#rim"/>
    <path pointer-events="none" fill="none" stroke="white" stroke-width="1.5" d="M0,-3.0v7 M-2.5,-0.5L0,-3.0L2.5,-0.5"/>
  </g>
  <g id="resetDef">
    <use xlink:href="#rim2" fill="#404040"><set attributeName="fill" to="#808080" begin="reset.mouseover" end="reset.mouseout"/></use>
  </g>
</defs>
<script type="application/ecmascript">
var viewWidth = 818;
var viewHeight = 172;
var sectionId = 'dynsection-27';
</script>
<script type="application/ecmascript" xlink:href="../../svg.min.js"/>
<svg id="graph" class="graph">
<g id="viewport">
<title>Util\getMicrotime</title>
<!-- Node1 -->
<g id="Node000001" class="node">
<title>Node1</title>
<g id="a_Node000001"><a xlink:title=" ">
<polygon fill="#999999" stroke="#666666" points="810.25,-84.5 689.25,-84.5 689.25,-60 810.25,-60 810.25,-84.5"/>
<text text-anchor="middle" x="749.75" y="-67.2" font-family="Helvetica,sans-Serif" font-size="14.00">Util\getMicrotime</text>
</a>
</g>
</g>
<!-- Node2 -->
<g id="Node000002" class="node">
<title>Node2</title>
<g id="a_Node000002"><a xlink:href="../../d1/db8/classActionStartup.html#a285cd2c8807b4ae4b622fe384ac98672" target="_top" xlink:title=" ">
<polygon fill="white" stroke="#666666" points="653.25,-147.5 474.5,-147.5 474.5,-123 653.25,-123 653.25,-147.5"/>
<text text-anchor="middle" x="563.88" y="-130.2" font-family="Helvetica,sans-Serif" font-size="14.00">ActionStartup\__construct</text>
</a>
</g>
</g>
<!-- Node1&#45;&gt;Node2 -->
<g id="edge1_Node000001_Node000002" class="edge">
<title>Node1&#45;&gt;Node2</title>
<g id="a_edge1_Node000001_Node000002"><a xlink:title=" ">
<path fill="none" stroke="#63b8ff" d="M712.07,-89.65C694.53,-97.54 673.08,-106.58 653.25,-113.25 643.21,-116.63 632.37,-119.75 621.84,-122.51"/>
<polygon fill="#63b8ff" stroke="#63b8ff" points="713.42,-92.88 721.06,-85.54 710.51,-86.51 713.42,-92.88"/>
</a>
</g>
</g>
<!-- Node3 -->
<g id="Node000003" class="node">
<title>Node3</title>
<g id="a_Node000003"><a xlink:href="../../d6/de4/classUtil.html#a55280bd0193da8aabb79ac6f6785ecf5" target="_top" xlink:title=" ">
<polygon fill="white" stroke="#666666" points="633.75,-104.5 494,-104.5 494,-80 633.75,-80 633.75,-104.5"/>
<text text-anchor="middle" x="563.88" y="-87.2" font-family="Helvetica,sans-Serif" font-size="14.00">Util\getFilesToScan</text>
</a>
</g>
</g>
<!-- Node1&#45;&gt;Node3 -->
<g id="edge2_Node000001_Node000003" class="edge">
<title>Node1&#45;&gt;Node3</title>
<g id="a_edge2_Node000001_Node000003"><a xlink:title=" ">
<path fill="none" stroke="#63b8ff" d="M677.51,-80C663.22,-81.55 648.23,-83.18 634.01,-84.73"/>
<polygon fill="#63b8ff" stroke="#63b8ff" points="677.73,-83.5 687.29,-78.93 676.97,-76.54 677.73,-83.5"/>
</a>
</g>
</g>
<!-- Node6 -->
<g id="Node000006" class="node">
<title>Node6</title>
<g id="a_Node000006"><a xlink:href="../../d1/db8/classActionStartup.html#a1234a0f2093a95140d6f86983514d28f" target="_top" xlink:title=" ">
<polygon fill="white" stroke="#666666" points="207.25,-64.5 0,-64.5 0,-40 207.25,-40 207.25,-64.5"/>
<text text-anchor="middle" x="103.63" y="-47.2" font-family="Helvetica,sans-Serif" font-size="14.00">ActionStartup\processWindow</text>
</a>
</g>
</g>
<!-- Node1&#45;&gt;Node6 -->
<g id="edge8_Node000001_Node000006" class="edge">
<title>Node1&#45;&gt;Node6</title>
<g id="a_edge8_Node000001_Node000006"><a xlink:title=" ">
<path fill="none" stroke="#63b8ff" d="M677.67,-70.04C563.64,-66.5 339.33,-59.54 207.71,-55.45"/>
<polygon fill="#63b8ff" stroke="#63b8ff" points="677.4,-73.54 687.51,-70.35 677.62,-66.54 677.4,-73.54"/>
</a>
</g>
</g>
<!-- Node7 -->
<g id="Node000007" class="node">
<title>Node7</title>
<g id="a_Node000007"><a xlink:href="../../d1/db8/classActionStartup.html#adef126078efed832ed35196e0e159144" target="_top" xlink:title=" ">
<polygon fill="white" stroke="#666666" points="438.5,-24.5 243.25,-24.5 243.25,0 438.5,0 438.5,-24.5"/>
<text text-anchor="middle" x="340.88" y="-7.2" font-family="Helvetica,sans-Serif" font-size="14.00">ActionStartup\installServices</text>
</a>
</g>
</g>
<!-- Node1&#45;&gt;Node7 -->
<g id="edge6_Node000001_Node000007" class="edge">
<title>Node1&#45;&gt;Node7</title>
<g id="a_edge6_Node000001_Node000007"><a xlink:title=" ">
<path fill="none" stroke="#63b8ff" d="M709.04,-55.52C692.14,-49.08 672.02,-42.3 653.25,-38.25 582.46,-22.96 500.83,-16.55 438.91,-13.91"/>
<polygon fill="#63b8ff" stroke="#63b8ff" points="707.64,-58.73 718.23,-59.12 710.2,-52.21 707.64,-58.73"/>
</a>
</g>
</g>
<!-- Node4 -->
<g id="Node000004" class="node">
<title>Node4</title>
<g id="a_Node000004"><a xlink:href="../../d6/dff/classActionSwitchVersion.html#a89f1ff41b1715ca23ea9f9d35f7ff643" target="_top" xlink:title=" ">
<polygon fill="white" stroke="#666666" points="413.75,-163.75 268,-163.75 268,-122.75 413.75,-122.75 413.75,-163.75"/>
<text text-anchor="start" x="276" y="-146.45" font-family="Helvetica,sans-Serif" font-size="14.00">ActionSwitchVersion</text>
<text text-anchor="middle" x="340.88" y="-129.95" font-family="Helvetica,sans-Serif" font-size="14.00">\processWindow</text>
</a>
</g>
</g>
<!-- Node3&#45;&gt;Node4 -->
<g id="edge3_Node000003_Node000004" class="edge">
<title>Node3&#45;&gt;Node4</title>
<g id="a_edge3_Node000003_Node000004"><a xlink:title=" ">
<path fill="none" stroke="#63b8ff" d="M496.75,-107.51C470.63,-113.54 440.54,-120.48 413.88,-126.63"/>
<polygon fill="#63b8ff" stroke="#63b8ff" points="497.25,-110.99 506.2,-105.33 495.67,-104.17 497.25,-110.99"/>
</a>
</g>
</g>
<!-- Node5 -->
<g id="Node000005" class="node">
<title>Node5</title>
<g id="a_Node000005"><a xlink:href="../../d1/db8/classActionStartup.html#ac821b68c4b5464e564fbd59fc51f9ceb" target="_top" xlink:title=" ">
<polygon fill="white" stroke="#666666" points="432.5,-104.5 249.25,-104.5 249.25,-80 432.5,-80 432.5,-104.5"/>
<text text-anchor="middle" x="340.88" y="-87.2" font-family="Helvetica,sans-Serif" font-size="14.00">ActionStartup\scanFolders</text>
</a>
</g>
</g>
<!-- Node3&#45;&gt;Node5 -->
<g id="edge4_Node000003_Node000005" class="edge">
<title>Node3&#45;&gt;Node5</title>
<g id="a_edge4_Node000003_Node000005"><a xlink:title=" ">
<path fill="none" stroke="#63b8ff" d="M482.08,-92.25C466.07,-92.25 449.17,-92.25 432.85,-92.25"/>
<polygon fill="#63b8ff" stroke="#63b8ff" points="482.04,-95.75 492.04,-92.25 482.04,-88.75 482.04,-95.75"/>
</a>
</g>
</g>
<!-- Node5&#45;&gt;Node6 -->
<g id="edge5_Node000005_Node000006" class="edge">
<title>Node5&#45;&gt;Node6</title>
<g id="a_edge5_Node000005_Node000006"><a xlink:title=" ">
<path fill="none" stroke="#63b8ff" d="M254.06,-77.66C229.66,-73.51 203.29,-69.03 179.59,-65"/>
<polygon fill="#63b8ff" stroke="#63b8ff" points="253.18,-81.06 263.63,-79.29 254.35,-74.16 253.18,-81.06"/>
</a>
</g>
</g>
<!-- Node7&#45;&gt;Node6 -->
<g id="edge7_Node000007_Node000006" class="edge">
<title>Node7&#45;&gt;Node6</title>
<g id="a_edge7_Node000007_Node000006"><a xlink:title=" ">
<path fill="none" stroke="#63b8ff" d="M254.06,-26.84C229.66,-30.99 203.29,-35.47 179.59,-39.5"/>
<polygon fill="#63b8ff" stroke="#63b8ff" points="254.35,-30.34 263.63,-25.21 253.18,-23.44 254.35,-30.34"/>
</a>
</g>
</g>
</g>
</svg>

<g id="navigator" transform="translate(0 0)" fill="#404254">
  <rect fill="#f2f5e9" fill-opacity="0.5" stroke="#606060" stroke-width=".5" x="0" y="0" width="60" height="60"/>
  <use id="zoomplus" xlink:href="#zoomPlus" x="17" y="9" onmousedown="handleZoom(evt,'in')"/>
  <use id="zoomminus" xlink:href="#zoomMin" x="42" y="9" onmousedown="handleZoom(evt,'out')"/>
  <use id="reset" xlink:href="#resetDef" x="30" y="36" onmousedown="handleReset()"/>
   <use id="arrowup" xlink:href="#arrowUp" x="0" y="0" onmousedown="handlePan(0,-1)"/>
  <use id="arrowright" xlink:href="#arrowRight" x="0" y="0" onmousedown="handlePan(1,0)"/>
  <use id="arrowdown" xlink:href="#arrowDown" x="0" y="0" onmousedown="handlePan(0,1)"/>
  <use id="arrowleft" xlink:href="#arrowLeft" x="0" y="0" onmousedown="handlePan(-1,0)"/>
</g>
<svg viewBox="0 0 15 15" width="100%" height="30px" preserveAspectRatio="xMaxYMin meet">
 <g id="arrow_out" transform="scale(0.3 0.3)">
  <a xlink:href="classUtil_ac1b7d6221cc2293da189c7fa373bb987_icgraph_org.svg" target="_base">
   <rect id="button" ry="5" rx="5" y="6" x="6" height="38" width="38"
        fill="#f2f5e9" fill-opacity="0.5" stroke="#606060" stroke-width="1.0"/>
   <path id="arrow"
     d="M 11.500037,31.436501 C 11.940474,20.09759 22.043105,11.32322 32.158766,21.979434 L 37.068811,17.246167 C 37.068811,17.246167 37.088388,32 37.088388,32 L 22.160133,31.978069 C 22.160133,31.978069 26.997745,27.140456 26.997745,27.140456 C 18.528582,18.264221 13.291696,25.230495 11.500037,31.436501 z"
     style="fill:#404040;"/>
  </a>
 </g>
</svg>

<style type='text/css'>
<![CDATA[
[data-mouse-over-selected='false'] { opacity: 0.7; }
[data-mouse-over-selected='true']  { opacity: 1.0; }
]]>
</style>
<script type="application/ecmascript"><![CDATA[
document.addEventListener('DOMContentLoaded', (event) => {
  highlightEdges();
  highlightAdjacentNodes();
});
]]></script>
</svg>
