<?xml version="1.0" encoding="UTF-8" standalone="no"?>
<!--
  - Copyright (c) 2021-2024 Bearsampp
  - License:  GNU General Public License version 3 or later; see LICENSE.txt
  - Author: Bear
  - Website: https://bearsampp.com
  - Github: https://github.com/Bearsampp
  -->

<!DOCTYPE svg PUBLIC "-//W3C//DTD SVG 1.1//EN"
 "http://www.w3.org/Graphics/SVG/1.1/DTD/svg11.dtd">
<!-- Generated by graphviz version 11.0.0 (20240428.1522)
 -->
<!-- Title: Util\endWith Pages: 1 -->
<svg width="972pt" height="1363pt"
 viewBox="0.00 0.00 972.25 1362.50" xmlns="http://www.w3.org/2000/svg" xmlns:xlink="http://www.w3.org/1999/xlink">
<g id="graph0" class="graph" transform="scale(1 1) rotate(0) translate(4 1358.5)">
<title>Util\endWith</title>
<!-- Node1 -->
<g id="Node000001" class="node">
<title>Node1</title>
<g id="a_Node000001"><a xlink:title=" ">
<polygon fill="#999999" stroke="#666666" points="964.25,-263.5 872.5,-263.5 872.5,-239 964.25,-239 964.25,-263.5"/>
<text text-anchor="middle" x="918.38" y="-246.2" font-family="Helvetica,sans-Serif" font-size="14.00">Util\endWith</text>
</a>
</g>
</g>
<!-- Node2 -->
<g id="Node000002" class="node">
<title>Node2</title>
<g id="a_Node000002"><a xlink:href="../../da/dbb/classBatch.html#a2d0ff5159c0c4b37485f3260892f0576" target="_top" xlink:title=" ">
<polygon fill="white" stroke="#666666" points="781.38,-877.5 694.88,-877.5 694.88,-853 781.38,-853 781.38,-877.5"/>
<text text-anchor="middle" x="738.12" y="-860.2" font-family="Helvetica,sans-Serif" font-size="14.00">Batch\exec</text>
</a>
</g>
</g>
<!-- Node1&#45;&gt;Node2 -->
<g id="edge1_Node000001_Node000002" class="edge">
<title>Node1&#45;&gt;Node2</title>
<g id="a_edge1_Node000001_Node000002"><a xlink:title=" ">
<path fill="none" stroke="#63b8ff" d="M910.58,-274.65C881.12,-376.14 764.85,-776.63 742.76,-852.73"/>
<polygon fill="#63b8ff" stroke="#63b8ff" points="913.88,-275.83 913.31,-265.25 907.16,-273.87 913.88,-275.83"/>
</a>
</g>
</g>
<!-- Node29 -->
<g id="Node000029" class="node">
<title>Node29</title>
<g id="a_Node000029"><a xlink:href="../../da/dbb/classBatch.html#ae9ac66c0009409f9f31a2edc8ad9ed8a" target="_top" xlink:title=" ">
<polygon fill="white" stroke="#666666" points="349.25,-420.5 157.75,-420.5 157.75,-396 349.25,-396 349.25,-420.5"/>
<text text-anchor="middle" x="253.5" y="-403.2" font-family="Helvetica,sans-Serif" font-size="14.00">Batch\getProcessUsingPort</text>
</a>
</g>
</g>
<!-- Node1&#45;&gt;Node29 -->
<g id="edge53_Node000001_Node000029" class="edge">
<title>Node1&#45;&gt;Node29</title>
<g id="a_edge53_Node000001_Node000029"><a xlink:title=" ">
<path fill="none" stroke="#63b8ff" d="M905.76,-273.97C892.47,-297.31 868.37,-332.53 836.5,-349.25 749.01,-395.16 491.62,-375.64 393.5,-387.25 373.75,-389.59 352.48,-392.56 332.67,-395.54"/>
<polygon fill="#63b8ff" stroke="#63b8ff" points="908.81,-275.68 910.52,-265.22 902.66,-272.33 908.81,-275.68"/>
</a>
</g>
</g>
<!-- Node83 -->
<g id="Node000083" class="node">
<title>Node83</title>
<g id="a_Node000083"><a xlink:href="../../d9/d6c/classBinApache.html#a363d9c9055242c726ed46c62467e713e" target="_top" xlink:title=" ">
<polygon fill="white" stroke="#666666" points="808,-340.5 668.25,-340.5 668.25,-316 808,-316 808,-340.5"/>
<text text-anchor="middle" x="738.12" y="-323.2" font-family="Helvetica,sans-Serif" font-size="14.00">BinApache\getAlias</text>
</a>
</g>
</g>
<!-- Node1&#45;&gt;Node83 -->
<g id="edge44_Node000001_Node000083" class="edge">
<title>Node1&#45;&gt;Node83</title>
<g id="a_edge44_Node000001_Node000083"><a xlink:title=" ">
<path fill="none" stroke="#63b8ff" d="M894.14,-271.04C878.72,-283.2 857.52,-298.14 836.5,-307.25 827.61,-311.1 817.96,-314.27 808.29,-316.88"/>
<polygon fill="#63b8ff" stroke="#63b8ff" points="896.2,-273.87 901.76,-264.86 891.79,-268.44 896.2,-273.87"/>
</a>
</g>
</g>
<!-- Node85 -->
<g id="Node000085" class="node">
<title>Node85</title>
<g id="a_Node000085"><a xlink:href="../../dc/db3/classBinPhp.html#a0f352ec713990b6844a9b8feb583cc40" target="_top" xlink:title=" ">
<polygon fill="white" stroke="#666666" points="832.75,-297.75 643.5,-297.75 643.5,-256.75 832.75,-256.75 832.75,-297.75"/>
<text text-anchor="start" x="651.5" y="-280.45" font-family="Helvetica,sans-Serif" font-size="14.00">BinPhp\getExtensionsFrom</text>
<text text-anchor="middle" x="738.12" y="-263.95" font-family="Helvetica,sans-Serif" font-size="14.00">Folder</text>
</a>
</g>
</g>
<!-- Node1&#45;&gt;Node85 -->
<g id="edge46_Node000001_Node000085" class="edge">
<title>Node1&#45;&gt;Node85</title>
<g id="a_edge46_Node000001_Node000085"><a xlink:title=" ">
<path fill="none" stroke="#63b8ff" d="M861.3,-259.43C852.29,-260.74 842.76,-262.13 833.15,-263.54"/>
<polygon fill="#63b8ff" stroke="#63b8ff" points="861.51,-262.94 870.9,-258.03 860.5,-256.01 861.51,-262.94"/>
</a>
</g>
</g>
<!-- Node87 -->
<g id="Node000087" class="node">
<title>Node87</title>
<g id="a_Node000087"><a xlink:href="../../da/df6/classLangProc.html#ab6cd1ca7428de1e84a9b4b181804ea36" target="_top" xlink:title=" ">
<polygon fill="white" stroke="#666666" points="800.12,-238.5 676.12,-238.5 676.12,-214 800.12,-214 800.12,-238.5"/>
<text text-anchor="middle" x="738.12" y="-221.2" font-family="Helvetica,sans-Serif" font-size="14.00">LangProc\getList</text>
</a>
</g>
</g>
<!-- Node1&#45;&gt;Node87 -->
<g id="edge48_Node000001_Node000087" class="edge">
<title>Node1&#45;&gt;Node87</title>
<g id="a_edge48_Node000001_Node000087"><a xlink:title=" ">
<path fill="none" stroke="#63b8ff" d="M861.07,-243.35C841.83,-240.65 820.21,-237.62 800.59,-234.87"/>
<polygon fill="#63b8ff" stroke="#63b8ff" points="860.51,-246.81 870.9,-244.73 861.48,-239.88 860.51,-246.81"/>
</a>
</g>
</g>
<!-- Node90 -->
<g id="Node000090" class="node">
<title>Node90</title>
<g id="a_Node000090"><a xlink:href="../../d2/d2a/classTplAppLogs.html#ad550f3529a4860bcf91ab334bac9ae80" target="_top" xlink:title=" ">
<polygon fill="white" stroke="#666666" points="830.88,-195.5 645.38,-195.5 645.38,-171 830.88,-171 830.88,-195.5"/>
<text text-anchor="middle" x="738.12" y="-178.2" font-family="Helvetica,sans-Serif" font-size="14.00">TplAppLogs\getMenuLogs</text>
</a>
</g>
</g>
<!-- Node1&#45;&gt;Node90 -->
<g id="edge50_Node000001_Node000090" class="edge">
<title>Node1&#45;&gt;Node90</title>
<g id="a_edge50_Node000001_Node000090"><a xlink:title=" ">
<path fill="none" stroke="#63b8ff" d="M889.59,-232.73C874.43,-223.34 855.03,-212.43 836.5,-205.25 827.29,-201.68 817.35,-198.61 807.47,-195.99"/>
<polygon fill="#63b8ff" stroke="#63b8ff" points="887.28,-235.41 897.6,-237.81 891.03,-229.5 887.28,-235.41"/>
</a>
</g>
</g>
<!-- Node91 -->
<g id="Node000091" class="node">
<title>Node91</title>
<g id="a_Node000091"><a xlink:href="../../d9/d6c/classBinApache.html#a5908c3b22e7c8a6d753b42fa39dbc91a" target="_top" xlink:title=" ">
<polygon fill="white" stroke="#666666" points="836.5,-152.75 639.75,-152.75 639.75,-111.75 836.5,-111.75 836.5,-152.75"/>
<text text-anchor="start" x="647.75" y="-135.45" font-family="Helvetica,sans-Serif" font-size="14.00">BinApache\getModulesFrom</text>
<text text-anchor="middle" x="738.12" y="-118.95" font-family="Helvetica,sans-Serif" font-size="14.00">Folder</text>
</a>
</g>
</g>
<!-- Node1&#45;&gt;Node91 -->
<g id="edge51_Node000001_Node000091" class="edge">
<title>Node1&#45;&gt;Node91</title>
<g id="a_edge51_Node000001_Node000091"><a xlink:title=" ">
<path fill="none" stroke="#63b8ff" d="M902.73,-229.33C888.18,-209.15 864.09,-179.78 836.5,-162.25 831.12,-158.83 825.34,-155.79 819.36,-153.07"/>
<polygon fill="#63b8ff" stroke="#63b8ff" points="899.8,-231.24 908.4,-237.42 905.53,-227.22 899.8,-231.24"/>
</a>
</g>
</g>
<!-- Node93 -->
<g id="Node000093" class="node">
<title>Node93</title>
<g id="a_Node000093"><a xlink:href="../../d9/d6c/classBinApache.html#ad5a6373946df76e051446852487ac2d5" target="_top" xlink:title=" ">
<polygon fill="white" stroke="#666666" points="814.75,-84.5 661.5,-84.5 661.5,-60 814.75,-60 814.75,-84.5"/>
<text text-anchor="middle" x="738.12" y="-67.2" font-family="Helvetica,sans-Serif" font-size="14.00">BinApache\getVhosts</text>
</a>
</g>
</g>
<!-- Node1&#45;&gt;Node93 -->
<g id="edge54_Node000001_Node000093" class="edge">
<title>Node1&#45;&gt;Node93</title>
<g id="a_edge54_Node000001_Node000093"><a xlink:title=" ">
<path fill="none" stroke="#63b8ff" d="M910.81,-228.19C900.37,-195.67 876.94,-136.59 836.5,-103.25 826.85,-95.29 815.13,-89.37 803.21,-84.96"/>
<polygon fill="#63b8ff" stroke="#63b8ff" points="907.36,-228.89 913.63,-237.43 914.05,-226.84 907.36,-228.89"/>
</a>
</g>
</g>
<!-- Node3 -->
<g id="Node000003" class="node">
<title>Node3</title>
<g id="a_Node000003"><a xlink:href="../../db/d46/classOpenSsl.html#a3058e0aefcf7801cc1cb49e1b28b6fd1" target="_top" xlink:title=" ">
<polygon fill="white" stroke="#666666" points="565.5,-646.5 431.75,-646.5 431.75,-622 565.5,-622 565.5,-646.5"/>
<text text-anchor="middle" x="498.62" y="-629.2" font-family="Helvetica,sans-Serif" font-size="14.00">OpenSsl\createCrt</text>
</a>
</g>
</g>
<!-- Node2&#45;&gt;Node3 -->
<g id="edge2_Node000002_Node000003" class="edge">
<title>Node2&#45;&gt;Node3</title>
<g id="a_edge2_Node000002_Node000003"><a xlink:title=" ">
<path fill="none" stroke="#63b8ff" d="M729.23,-841.98C713.1,-798.14 671.99,-703.49 603.75,-656.25 592.58,-648.52 579.25,-643.42 565.91,-640.07"/>
<polygon fill="#63b8ff" stroke="#63b8ff" points="725.88,-843 732.54,-851.25 732.48,-840.66 725.88,-843"/>
</a>
</g>
</g>
<!-- Node4 -->
<g id="Node000004" class="node">
<title>Node4</title>
<g id="a_Node000004"><a xlink:href="../../da/dbb/classBatch.html#a58a6ff2595312d947f1c63b76056d647" target="_top" xlink:title=" ">
<polygon fill="white" stroke="#666666" points="570.75,-791.5 426.5,-791.5 426.5,-767 570.75,-767 570.75,-791.5"/>
<text text-anchor="middle" x="498.62" y="-774.2" font-family="Helvetica,sans-Serif" font-size="14.00">Batch\createSymlink</text>
</a>
</g>
</g>
<!-- Node2&#45;&gt;Node4 -->
<g id="edge3_Node000002_Node000004" class="edge">
<title>Node2&#45;&gt;Node4</title>
<g id="a_edge3_Node000002_Node000004"><a xlink:title=" ">
<path fill="none" stroke="#63b8ff" d="M705.32,-847.31C678.86,-833.05 639.81,-813.51 603.75,-801.25 593.34,-797.71 582.15,-794.63 571.09,-791.98"/>
<polygon fill="#63b8ff" stroke="#63b8ff" points="703.38,-850.24 713.83,-851.96 706.73,-844.1 703.38,-850.24"/>
</a>
</g>
</g>
<!-- Node7 -->
<g id="Node000007" class="node">
<title>Node7</title>
<g id="a_Node000007"><a xlink:href="../../d3/d93/classNssm.html#a62814441adfea926dba2a7a6840ef6b8" target="_top" xlink:title=" ">
<polygon fill="white" stroke="#666666" points="542.25,-603.5 455,-603.5 455,-579 542.25,-579 542.25,-603.5"/>
<text text-anchor="middle" x="498.62" y="-586.2" font-family="Helvetica,sans-Serif" font-size="14.00">Nssm\exec</text>
</a>
</g>
</g>
<!-- Node2&#45;&gt;Node7 -->
<g id="edge5_Node000002_Node000007" class="edge">
<title>Node2&#45;&gt;Node7</title>
<g id="a_edge5_Node000002_Node000007"><a xlink:title=" ">
<path fill="none" stroke="#63b8ff" d="M731.77,-841.52C719.05,-790.93 682.07,-672.31 603.75,-613.25 586.34,-600.12 562.86,-594.42 542.6,-592.09"/>
<polygon fill="#63b8ff" stroke="#63b8ff" points="728.33,-842.19 734.08,-851.1 735.14,-840.56 728.33,-842.19"/>
</a>
</g>
</g>
<!-- Node19 -->
<g id="Node000019" class="node">
<title>Node19</title>
<g id="a_Node000019"><a xlink:href="../../da/dbb/classBatch.html#a2e8447ec91f80ae1b0f77960eb69f26b" target="_top" xlink:title=" ">
<polygon fill="white" stroke="#666666" points="577.5,-560.5 419.75,-560.5 419.75,-536 577.5,-536 577.5,-560.5"/>
<text text-anchor="middle" x="498.62" y="-543.2" font-family="Helvetica,sans-Serif" font-size="14.00">Batch\execStandalone</text>
</a>
</g>
</g>
<!-- Node2&#45;&gt;Node19 -->
<g id="edge12_Node000002_Node000019" class="edge">
<title>Node2&#45;&gt;Node19</title>
<g id="a_edge12_Node000002_Node000019"><a xlink:title=" ">
<path fill="none" stroke="#63b8ff" d="M733.73,-841.47C724.33,-784.89 692.53,-641.63 603.75,-570.25 596.12,-564.11 587.18,-559.58 577.81,-556.24"/>
<polygon fill="#63b8ff" stroke="#63b8ff" points="730.26,-841.92 735.26,-851.26 737.17,-840.84 730.26,-841.92"/>
</a>
</g>
</g>
<!-- Node28 -->
<g id="Node000028" class="node">
<title>Node28</title>
<g id="a_Node000028"><a xlink:href="../../da/dbb/classBatch.html#a13c8f8378c450ecc34b3c3d1f5803dbf" target="_top" xlink:title=" ">
<polygon fill="white" stroke="#666666" points="569.25,-420.5 428,-420.5 428,-396 569.25,-396 569.25,-420.5"/>
<text text-anchor="middle" x="498.62" y="-403.2" font-family="Helvetica,sans-Serif" font-size="14.00">Batch\findExeByPid</text>
</a>
</g>
</g>
<!-- Node2&#45;&gt;Node28 -->
<g id="edge15_Node000002_Node000028" class="edge">
<title>Node2&#45;&gt;Node28</title>
<g id="a_edge15_Node000002_Node000028"><a xlink:title=" ">
<path fill="none" stroke="#63b8ff" d="M737.61,-841.36C737.72,-767.89 727.46,-543.38 603.75,-430.25 594.21,-421.52 582.1,-415.92 569.54,-412.39"/>
<polygon fill="#63b8ff" stroke="#63b8ff" points="734.11,-841 737.52,-851.03 741.11,-841.07 734.11,-841"/>
</a>
</g>
</g>
<!-- Node2&#45;&gt;Node29 -->
<g id="edge26_Node000002_Node000029" class="edge">
<title>Node2&#45;&gt;Node29</title>
<g id="a_edge26_Node000002_Node000029"><a xlink:title=" ">
<path fill="none" stroke="#63b8ff" d="M735.37,-841.3C729.43,-778.77 704.37,-609.77 603.75,-527.25 530.33,-467.03 474.3,-539.13 393.5,-489.25 370.81,-475.24 379.22,-456.72 357.5,-441.25 345.03,-432.37 330.06,-425.81 315.45,-420.97"/>
<polygon fill="#63b8ff" stroke="#63b8ff" points="731.88,-841.47 736.22,-851.13 738.85,-840.87 731.88,-841.47"/>
</a>
</g>
</g>
<!-- Node54 -->
<g id="Node000054" class="node">
<title>Node54</title>
<g id="a_Node000054"><a xlink:href="../../d9/d6c/classBinApache.html#a4707d035e7beede6b5e8c0fb510fa205" target="_top" xlink:title=" ">
<polygon fill="white" stroke="#666666" points="603,-1311.5 394.25,-1311.5 394.25,-1287 603,-1287 603,-1311.5"/>
<text text-anchor="middle" x="498.62" y="-1294.2" font-family="Helvetica,sans-Serif" font-size="14.00">BinApache\getCmdLineOutput</text>
</a>
</g>
</g>
<!-- Node2&#45;&gt;Node54 -->
<g id="edge18_Node000002_Node000054" class="edge">
<title>Node2&#45;&gt;Node54</title>
<g id="a_edge18_Node000002_Node000054"><a xlink:title=" ">
<path fill="none" stroke="#63b8ff" d="M737.14,-888.81C735.85,-959.42 721.82,-1170.95 603.75,-1277.25 599.63,-1280.96 595.05,-1284.1 590.16,-1286.76"/>
<polygon fill="#63b8ff" stroke="#63b8ff" points="740.64,-889.22 737.25,-879.18 733.64,-889.15 740.64,-889.22"/>
</a>
</g>
</g>
<!-- Node55 -->
<g id="Node000055" class="node">
<title>Node55</title>
<g id="a_Node000055"><a xlink:href="../../d4/d8f/classBinMariadb.html#a55a27af701a06f75da01c8dd20a3ae3e" target="_top" xlink:title=" ">
<polygon fill="white" stroke="#666666" points="603.75,-1268.5 393.5,-1268.5 393.5,-1244 603.75,-1244 603.75,-1268.5"/>
<text text-anchor="middle" x="498.62" y="-1251.2" font-family="Helvetica,sans-Serif" font-size="14.00">BinMariadb\getCmdLineOutput</text>
</a>
</g>
</g>
<!-- Node2&#45;&gt;Node55 -->
<g id="edge19_Node000002_Node000055" class="edge">
<title>Node2&#45;&gt;Node55</title>
<g id="a_edge19_Node000002_Node000055"><a xlink:title=" ">
<path fill="none" stroke="#63b8ff" d="M736.12,-888.96C731.99,-954.78 710.92,-1140.99 603.75,-1234.25 599.57,-1237.89 594.94,-1240.98 590.02,-1243.59"/>
<polygon fill="#63b8ff" stroke="#63b8ff" points="739.6,-889.48 736.65,-879.31 732.61,-889.1 739.6,-889.48"/>
</a>
</g>
</g>
<!-- Node56 -->
<g id="Node000056" class="node">
<title>Node56</title>
<g id="a_Node000056"><a xlink:href="../../d6/d88/classBinMysql.html#a5f6e303f950b38251c2d069aa3d9ecf3" target="_top" xlink:title=" ">
<polygon fill="white" stroke="#666666" points="597,-1225.5 400.25,-1225.5 400.25,-1201 597,-1201 597,-1225.5"/>
<text text-anchor="middle" x="498.62" y="-1208.2" font-family="Helvetica,sans-Serif" font-size="14.00">BinMysql\getCmdLineOutput</text>
</a>
</g>
</g>
<!-- Node2&#45;&gt;Node56 -->
<g id="edge20_Node000002_Node000056" class="edge">
<title>Node2&#45;&gt;Node56</title>
<g id="a_edge20_Node000002_Node000056"><a xlink:title=" ">
<path fill="none" stroke="#63b8ff" d="M734.92,-889.12C727.96,-950.02 700.77,-1111.97 603.75,-1192.25 599.91,-1195.42 595.73,-1198.16 591.31,-1200.52"/>
<polygon fill="#63b8ff" stroke="#63b8ff" points="738.4,-889.55 735.96,-879.23 731.44,-888.81 738.4,-889.55"/>
</a>
</g>
</g>
<!-- Node57 -->
<g id="Node000057" class="node">
<title>Node57</title>
<g id="a_Node000057"><a xlink:href="../../dc/db9/classBinPostgresql.html#a7bdca809f2957b9abc697010bec33d43" target="_top" xlink:title=" ">
<polygon fill="white" stroke="#666666" points="592.12,-1182.75 405.12,-1182.75 405.12,-1141.75 592.12,-1141.75 592.12,-1182.75"/>
<text text-anchor="start" x="413.12" y="-1165.45" font-family="Helvetica,sans-Serif" font-size="14.00">BinPostgresql\getCmdLine</text>
<text text-anchor="middle" x="498.62" y="-1148.95" font-family="Helvetica,sans-Serif" font-size="14.00">Output</text>
</a>
</g>
</g>
<!-- Node2&#45;&gt;Node57 -->
<g id="edge21_Node000002_Node000057" class="edge">
<title>Node2&#45;&gt;Node57</title>
<g id="a_edge21_Node000002_Node000057"><a xlink:title=" ">
<path fill="none" stroke="#63b8ff" d="M732.12,-888.86C719.83,-940.91 683.21,-1066.13 603.75,-1132.25 599.7,-1135.62 595.29,-1138.61 590.65,-1141.27"/>
<polygon fill="#63b8ff" stroke="#63b8ff" points="735.49,-889.82 734.28,-879.3 728.66,-888.28 735.49,-889.82"/>
</a>
</g>
</g>
<!-- Node58 -->
<g id="Node000058" class="node">
<title>Node58</title>
<g id="a_Node000058"><a xlink:href="../../da/dbb/classBatch.html#ac7018f76e27376bc099cb9cdc55574bf" target="_top" xlink:title=" ">
<polygon fill="white" stroke="#666666" points="558.38,-1354.5 438.88,-1354.5 438.88,-1330 558.38,-1330 558.38,-1354.5"/>
<text text-anchor="middle" x="498.62" y="-1337.2" font-family="Helvetica,sans-Serif" font-size="14.00">Batch\getOsInfo</text>
</a>
</g>
</g>
<!-- Node2&#45;&gt;Node58 -->
<g id="edge22_Node000002_Node000058" class="edge">
<title>Node2&#45;&gt;Node58</title>
<g id="a_edge22_Node000002_Node000058"><a xlink:title=" ">
<path fill="none" stroke="#63b8ff" d="M737.99,-889.19C739.31,-964.87 732.51,-1201.03 603.75,-1320.25 591.55,-1331.55 575.06,-1337.62 558.8,-1340.75"/>
<polygon fill="#63b8ff" stroke="#63b8ff" points="741.49,-889.14 737.73,-879.23 734.49,-889.31 741.49,-889.14"/>
</a>
</g>
</g>
<!-- Node60 -->
<g id="Node000060" class="node">
<title>Node60</title>
<g id="a_Node000060"><a xlink:href="../../da/dbb/classBatch.html#a5e1a3c98e9ac0c51db4d8b62cc02db67" target="_top" xlink:title=" ">
<polygon fill="white" stroke="#666666" points="576,-1123.5 421.25,-1123.5 421.25,-1099 576,-1099 576,-1123.5"/>
<text text-anchor="middle" x="498.62" y="-1106.2" font-family="Helvetica,sans-Serif" font-size="14.00">Batch\getPearVersion</text>
</a>
</g>
</g>
<!-- Node2&#45;&gt;Node60 -->
<g id="edge24_Node000002_Node000060" class="edge">
<title>Node2&#45;&gt;Node60</title>
<g id="a_edge24_Node000002_Node000060"><a xlink:title=" ">
<path fill="none" stroke="#63b8ff" d="M730.25,-888.58C715.35,-934.78 675.54,-1037.89 603.75,-1089.25 595.56,-1095.11 586.14,-1099.47 576.38,-1102.71"/>
<polygon fill="#63b8ff" stroke="#63b8ff" points="733.5,-889.91 733.13,-879.32 726.81,-887.83 733.5,-889.91"/>
</a>
</g>
</g>
<!-- Node62 -->
<g id="Node000062" class="node">
<title>Node62</title>
<g id="a_Node000062"><a xlink:href="../../da/dbb/classBatch.html#a9d061c7f97932cb3c817bb7dd5e96b23" target="_top" xlink:title=" ">
<polygon fill="white" stroke="#666666" points="569.25,-1080.5 428,-1080.5 428,-1056 569.25,-1056 569.25,-1080.5"/>
<text text-anchor="middle" x="498.62" y="-1063.2" font-family="Helvetica,sans-Serif" font-size="14.00">Batch\initializeMysql</text>
</a>
</g>
</g>
<!-- Node2&#45;&gt;Node62 -->
<g id="edge27_Node000002_Node000062" class="edge">
<title>Node2&#45;&gt;Node62</title>
<g id="a_edge27_Node000002_Node000062"><a xlink:title=" ">
<path fill="none" stroke="#63b8ff" d="M727.07,-888.12C708.64,-927.19 665.58,-1006.44 603.75,-1046.25 593.5,-1052.85 581.61,-1057.51 569.61,-1060.79"/>
<polygon fill="#63b8ff" stroke="#63b8ff" points="730.19,-889.72 731.17,-879.17 723.82,-886.81 730.19,-889.72"/>
</a>
</g>
</g>
<!-- Node66 -->
<g id="Node000066" class="node">
<title>Node66</title>
<g id="a_Node000066"><a xlink:href="../../da/dbb/classBatch.html#a936c3d0ee3029cb9c595e0e41a489d0c" target="_top" xlink:title=" ">
<polygon fill="white" stroke="#666666" points="585.38,-1037.5 411.88,-1037.5 411.88,-1013 585.38,-1013 585.38,-1037.5"/>
<text text-anchor="middle" x="498.62" y="-1020.2" font-family="Helvetica,sans-Serif" font-size="14.00">Batch\initializePostgresql</text>
</a>
</g>
</g>
<!-- Node2&#45;&gt;Node66 -->
<g id="edge29_Node000002_Node000066" class="edge">
<title>Node2&#45;&gt;Node66</title>
<g id="a_edge29_Node000002_Node000066"><a xlink:title=" ">
<path fill="none" stroke="#63b8ff" d="M721.63,-887.01C699.14,-916.96 654.53,-970.43 603.75,-999.25 594.03,-1004.77 583.14,-1009.13 572.17,-1012.57"/>
<polygon fill="#63b8ff" stroke="#63b8ff" points="724.39,-889.18 727.5,-879.05 718.75,-885.03 724.39,-889.18"/>
</a>
</g>
</g>
<!-- Node70 -->
<g id="Node000070" class="node">
<title>Node70</title>
<g id="a_Node000070"><a xlink:href="../../da/dbb/classBatch.html#aff28ec745ddcf946dffc85a174ac8087" target="_top" xlink:title=" ">
<polygon fill="#fff0f0" stroke="red" points="346.25,-975.5 160.75,-975.5 160.75,-951 346.25,-951 346.25,-975.5"/>
<text text-anchor="middle" x="253.5" y="-958.2" font-family="Helvetica,sans-Serif" font-size="14.00">Batch\installFilezillaService</text>
</a>
</g>
</g>
<!-- Node2&#45;&gt;Node70 -->
<g id="edge31_Node000002_Node000070" class="edge">
<title>Node2&#45;&gt;Node70</title>
<g id="a_edge31_Node000002_Node000070"><a xlink:title=" ">
<path fill="none" stroke="#63b8ff" d="M718.35,-886.03C694.53,-910.68 650.83,-950.43 603.75,-966.25 508.33,-998.3 389.81,-987.52 318.27,-975.99"/>
<polygon fill="#63b8ff" stroke="#63b8ff" points="720.85,-888.48 725.16,-878.8 715.75,-883.68 720.85,-888.48"/>
</a>
</g>
</g>
<!-- Node73 -->
<g id="Node000073" class="node">
<title>Node73</title>
<g id="a_Node000073"><a xlink:href="../../da/dbb/classBatch.html#a6358c757bde643086342079312202c8d" target="_top" xlink:title=" ">
<polygon fill="#fff0f0" stroke="red" points="357.5,-897.5 149.5,-897.5 149.5,-873 357.5,-873 357.5,-897.5"/>
<text text-anchor="middle" x="253.5" y="-880.2" font-family="Helvetica,sans-Serif" font-size="14.00">Batch\installPostgresqlService</text>
</a>
</g>
</g>
<!-- Node2&#45;&gt;Node73 -->
<g id="edge32_Node000002_Node000073" class="edge">
<title>Node2&#45;&gt;Node73</title>
<g id="a_edge32_Node000002_Node000073"><a xlink:title=" ">
<path fill="none" stroke="#63b8ff" d="M683.27,-875.69C659.06,-879.88 630.08,-884.19 603.75,-886.25 521.24,-892.71 427.42,-891.99 357.82,-889.92"/>
<polygon fill="#63b8ff" stroke="#63b8ff" points="683.65,-879.18 692.89,-873.99 682.43,-872.29 683.65,-879.18"/>
</a>
</g>
</g>
<!-- Node74 -->
<g id="Node000074" class="node">
<title>Node74</title>
<g id="a_Node000074"><a xlink:href="../../da/dbb/classBatch.html#a5304bcc86b3f6f51cbc8b997a1c1e38f" target="_top" xlink:title=" ">
<polygon fill="#fff0f0" stroke="red" points="574.88,-748.5 422.38,-748.5 422.38,-724 574.88,-724 574.88,-748.5"/>
<text text-anchor="middle" x="498.62" y="-731.2" font-family="Helvetica,sans-Serif" font-size="14.00">Batch\removeSymlink</text>
</a>
</g>
</g>
<!-- Node2&#45;&gt;Node74 -->
<g id="edge33_Node000002_Node000074" class="edge">
<title>Node2&#45;&gt;Node74</title>
<g id="a_edge33_Node000002_Node000074"><a xlink:title=" ">
<path fill="none" stroke="#63b8ff" d="M717.89,-844.82C693.65,-820.35 649.59,-779.95 603.75,-758.25 594.82,-754.02 585.07,-750.6 575.24,-747.83"/>
<polygon fill="#63b8ff" stroke="#63b8ff" points="715.07,-846.94 724.55,-851.67 720.09,-842.06 715.07,-846.94"/>
</a>
</g>
</g>
<!-- Node77 -->
<g id="Node000077" class="node">
<title>Node77</title>
<g id="a_Node000077"><a xlink:href="../../da/dbb/classBatch.html#aa5bb89c89db4798d5c0c21a68c2b2a1f" target="_top" xlink:title=" ">
<polygon fill="white" stroke="#666666" points="596.25,-957.5 401,-957.5 401,-933 596.25,-933 596.25,-957.5"/>
<text text-anchor="middle" x="498.62" y="-940.2" font-family="Helvetica,sans-Serif" font-size="14.00">Batch\setServiceDescription</text>
</a>
</g>
</g>
<!-- Node2&#45;&gt;Node77 -->
<g id="edge35_Node000002_Node000077" class="edge">
<title>Node2&#45;&gt;Node77</title>
<g id="a_edge35_Node000002_Node000077"><a xlink:title=" ">
<path fill="none" stroke="#63b8ff" d="M698.87,-882.4C672.49,-893.82 636.42,-908.61 603.75,-919.25 588.69,-924.15 572.15,-928.67 556.78,-932.51"/>
<polygon fill="#63b8ff" stroke="#63b8ff" points="700.04,-885.71 707.8,-878.5 697.24,-879.3 700.04,-885.71"/>
</a>
</g>
</g>
<!-- Node78 -->
<g id="Node000078" class="node">
<title>Node78</title>
<g id="a_Node000078"><a xlink:href="../../da/dbb/classBatch.html#a44863c35e01b6f7610cc5a273f9ebb42" target="_top" xlink:title=" ">
<polygon fill="white" stroke="#666666" points="602.25,-877.5 395,-877.5 395,-853 602.25,-853 602.25,-877.5"/>
<text text-anchor="middle" x="498.62" y="-860.2" font-family="Helvetica,sans-Serif" font-size="14.00">Batch\setServiceDisplayName</text>
</a>
</g>
</g>
<!-- Node2&#45;&gt;Node78 -->
<g id="edge38_Node000002_Node000078" class="edge">
<title>Node2&#45;&gt;Node78</title>
<g id="a_edge38_Node000002_Node000078"><a xlink:title=" ">
<path fill="none" stroke="#63b8ff" d="M683.12,-865.25C659.27,-865.25 630.42,-865.25 602.72,-865.25"/>
<polygon fill="#63b8ff" stroke="#63b8ff" points="682.88,-868.75 692.88,-865.25 682.88,-861.75 682.88,-868.75"/>
</a>
</g>
</g>
<!-- Node79 -->
<g id="Node000079" class="node">
<title>Node79</title>
<g id="a_Node000079"><a xlink:href="../../da/dbb/classBatch.html#ac4a10ff0a1b3315aaa6004749046758c" target="_top" xlink:title=" ">
<polygon fill="white" stroke="#666666" points="591,-834.5 406.25,-834.5 406.25,-810 591,-810 591,-834.5"/>
<text text-anchor="middle" x="498.62" y="-817.2" font-family="Helvetica,sans-Serif" font-size="14.00">Batch\setServiceStartType</text>
</a>
</g>
</g>
<!-- Node2&#45;&gt;Node79 -->
<g id="edge40_Node000002_Node000079" class="edge">
<title>Node2&#45;&gt;Node79</title>
<g id="a_edge40_Node000002_Node000079"><a xlink:title=" ">
<path fill="none" stroke="#63b8ff" d="M683.42,-855.53C649.85,-849.45 606.26,-841.56 569.96,-834.98"/>
<polygon fill="#63b8ff" stroke="#63b8ff" points="682.44,-858.91 692.9,-857.24 683.68,-852.02 682.44,-858.91"/>
</a>
</g>
</g>
<!-- Node80 -->
<g id="Node000080" class="node">
<title>Node80</title>
<g id="a_Node000080"><a xlink:href="../../da/dbb/classBatch.html#a8cf4761e050a889328b1e5b25a185c62" target="_top" xlink:title=" ">
<polygon fill="#fff0f0" stroke="red" points="574.88,-705.75 422.38,-705.75 422.38,-664.75 574.88,-664.75 574.88,-705.75"/>
<text text-anchor="start" x="430.38" y="-688.45" font-family="Helvetica,sans-Serif" font-size="14.00">Batch\uninstallFilezilla</text>
<text text-anchor="middle" x="498.62" y="-671.95" font-family="Helvetica,sans-Serif" font-size="14.00">Service</text>
</a>
</g>
</g>
<!-- Node2&#45;&gt;Node80 -->
<g id="edge42_Node000002_Node000080" class="edge">
<title>Node2&#45;&gt;Node80</title>
<g id="a_edge42_Node000002_Node000080"><a xlink:title=" ">
<path fill="none" stroke="#63b8ff" d="M723.36,-843.03C701.87,-810.19 657.22,-748.94 603.75,-715.25 595,-709.73 585.2,-705.2 575.21,-701.49"/>
<polygon fill="#63b8ff" stroke="#63b8ff" points="720.35,-844.82 728.69,-851.35 726.25,-841.04 720.35,-844.82"/>
</a>
</g>
</g>
<!-- Node82 -->
<g id="Node000082" class="node">
<title>Node82</title>
<g id="a_Node000082"><a xlink:href="../../da/dbb/classBatch.html#aa4def941303390e6e957d2814023e17f" target="_top" xlink:title=" ">
<polygon fill="#fff0f0" stroke="red" points="586.12,-479.75 411.12,-479.75 411.12,-438.75 586.12,-438.75 586.12,-479.75"/>
<text text-anchor="start" x="419.12" y="-462.45" font-family="Helvetica,sans-Serif" font-size="14.00">Batch\uninstallPostgresql</text>
<text text-anchor="middle" x="498.62" y="-445.95" font-family="Helvetica,sans-Serif" font-size="14.00">Service</text>
</a>
</g>
</g>
<!-- Node2&#45;&gt;Node82 -->
<g id="edge43_Node000002_Node000082" class="edge">
<title>Node2&#45;&gt;Node82</title>
<g id="a_edge43_Node000002_Node000082"><a xlink:title=" ">
<path fill="none" stroke="#63b8ff" d="M735.52,-841.2C729.86,-775.92 705.29,-593.7 603.75,-494.25 598.1,-488.71 591.54,-484.05 584.52,-480.13"/>
<polygon fill="#63b8ff" stroke="#63b8ff" points="732.02,-841.43 736.29,-851.12 739,-840.88 732.02,-841.43"/>
</a>
</g>
</g>
<!-- Node5 -->
<g id="Node000005" class="node">
<title>Node5</title>
<g id="a_Node000005"><a xlink:href="../../d3/d9c/classModule.html#a070d1df222b1eb7876da52944d74cfea" target="_top" xlink:title=" ">
<polygon fill="#fff0f0" stroke="red" points="330.88,-780.5 176.12,-780.5 176.12,-756 330.88,-756 330.88,-780.5"/>
<text text-anchor="middle" x="253.5" y="-763.2" font-family="Helvetica,sans-Serif" font-size="14.00">Module\createSymlink</text>
</a>
</g>
</g>
<!-- Node4&#45;&gt;Node5 -->
<g id="edge4_Node000004_Node000005" class="edge">
<title>Node4&#45;&gt;Node5</title>
<g id="a_edge4_Node000004_Node000005"><a xlink:title=" ">
<path fill="none" stroke="#63b8ff" d="M414.92,-775.51C387.86,-774.28 357.93,-772.93 331.32,-771.73"/>
<polygon fill="#63b8ff" stroke="#63b8ff" points="414.66,-779 424.81,-775.96 414.98,-772.01 414.66,-779"/>
</a>
</g>
</g>
<!-- Node8 -->
<g id="Node000008" class="node">
<title>Node8</title>
<g id="a_Node000008"><a xlink:href="../../d3/d93/classNssm.html#ad7fa8b9a6d3705792e43c0301cec213e" target="_top" xlink:title=" ">
<polygon fill="white" stroke="#666666" points="301.62,-560.5 205.38,-560.5 205.38,-536 301.62,-536 301.62,-560.5"/>
<text text-anchor="middle" x="253.5" y="-543.2" font-family="Helvetica,sans-Serif" font-size="14.00">Nssm\create</text>
</a>
</g>
</g>
<!-- Node7&#45;&gt;Node8 -->
<g id="edge6_Node000007_Node000008" class="edge">
<title>Node7&#45;&gt;Node8</title>
<g id="a_edge6_Node000007_Node000008"><a xlink:title=" ">
<path fill="none" stroke="#63b8ff" d="M443.48,-581.67C401.04,-574.17 342.58,-563.83 301.97,-556.64"/>
<polygon fill="#63b8ff" stroke="#63b8ff" points="442.77,-585.1 453.23,-583.4 443.99,-578.21 442.77,-585.1"/>
</a>
</g>
</g>
<!-- Node9 -->
<g id="Node000009" class="node">
<title>Node9</title>
<g id="a_Node000009"><a xlink:href="../../d3/d93/classNssm.html#a231abdaa59bfc1a18058c63faf77b874" target="_top" xlink:title=" ">
<polygon fill="white" stroke="#666666" points="104.88,-709.5 8.62,-709.5 8.62,-685 104.88,-685 104.88,-709.5"/>
<text text-anchor="middle" x="56.75" y="-692.2" font-family="Helvetica,sans-Serif" font-size="14.00">Nssm\delete</text>
</a>
</g>
</g>
<!-- Node7&#45;&gt;Node9 -->
<g id="edge7_Node000007_Node000009" class="edge">
<title>Node7&#45;&gt;Node9</title>
<g id="a_edge7_Node000007_Node000009"><a xlink:title=" ">
<path fill="none" stroke="#63b8ff" d="M443.36,-592.92C425.86,-595.86 407.42,-601.78 393.5,-613.25 361.84,-639.34 391.7,-675.59 357.5,-698.25 277.67,-751.13 157.75,-727.48 96.6,-709.99"/>
<polygon fill="#63b8ff" stroke="#63b8ff" points="443.72,-596.41 453.16,-591.6 442.78,-589.47 443.72,-596.41"/>
</a>
</g>
</g>
<!-- Node10 -->
<g id="Node000010" class="node">
<title>Node10</title>
<g id="a_Node000010"><a xlink:href="../../d3/d93/classNssm.html#aa32df80b96119003df6133155b5a6610" target="_top" xlink:title=" ">
<polygon fill="#fff0f0" stroke="red" points="295.25,-646.5 211.75,-646.5 211.75,-622 295.25,-622 295.25,-646.5"/>
<text text-anchor="middle" x="253.5" y="-629.2" font-family="Helvetica,sans-Serif" font-size="14.00">Nssm\start</text>
</a>
</g>
</g>
<!-- Node7&#45;&gt;Node10 -->
<g id="edge8_Node000007_Node000010" class="edge">
<title>Node7&#45;&gt;Node10</title>
<g id="a_edge8_Node000007_Node000010"><a xlink:title=" ">
<path fill="none" stroke="#63b8ff" d="M443.45,-600.83C398.66,-608.75 336.02,-619.83 295.36,-627.02"/>
<polygon fill="#63b8ff" stroke="#63b8ff" points="443.99,-604.29 453.23,-599.1 442.77,-597.4 443.99,-604.29"/>
</a>
</g>
</g>
<!-- Node13 -->
<g id="Node000013" class="node">
<title>Node13</title>
<g id="a_Node000013"><a xlink:href="../../d3/d93/classNssm.html#a55fad2d59588fb1dd031e00fa0334fd4" target="_top" xlink:title=" ">
<polygon fill="#fff0f0" stroke="red" points="300.5,-603.5 206.5,-603.5 206.5,-579 300.5,-579 300.5,-603.5"/>
<text text-anchor="middle" x="253.5" y="-586.2" font-family="Helvetica,sans-Serif" font-size="14.00">Nssm\status</text>
</a>
</g>
</g>
<!-- Node7&#45;&gt;Node13 -->
<g id="edge9_Node000007_Node000013" class="edge">
<title>Node7&#45;&gt;Node13</title>
<g id="a_edge9_Node000007_Node000013"><a xlink:title=" ">
<path fill="none" stroke="#63b8ff" d="M443.37,-591.25C400.5,-591.25 341.33,-591.25 300.7,-591.25"/>
<polygon fill="#63b8ff" stroke="#63b8ff" points="443.21,-594.75 453.21,-591.25 443.21,-587.75 443.21,-594.75"/>
</a>
</g>
</g>
<!-- Node18 -->
<g id="Node000018" class="node">
<title>Node18</title>
<g id="a_Node000018"><a xlink:href="../../d3/d93/classNssm.html#a5c84c357e07c0abd8e5509e021c4360f" target="_top" xlink:title=" ">
<polygon fill="#fff0f0" stroke="red" points="295.62,-689.5 211.38,-689.5 211.38,-665 295.62,-665 295.62,-689.5"/>
<text text-anchor="middle" x="253.5" y="-672.2" font-family="Helvetica,sans-Serif" font-size="14.00">Nssm\stop</text>
</a>
</g>
</g>
<!-- Node7&#45;&gt;Node18 -->
<g id="edge10_Node000007_Node000018" class="edge">
<title>Node7&#45;&gt;Node18</title>
<g id="a_edge10_Node000007_Node000018"><a xlink:title=" ">
<path fill="none" stroke="#63b8ff" d="M443.65,-595.81C426.73,-598.99 408.56,-604.32 393.5,-613.25 372.35,-625.79 378.63,-642.69 357.5,-655.25 339.03,-666.23 315.82,-671.76 296.11,-674.54"/>
<polygon fill="#63b8ff" stroke="#63b8ff" points="443.75,-599.34 453.05,-594.27 442.62,-592.44 443.75,-599.34"/>
</a>
</g>
</g>
<!-- Node18&#45;&gt;Node9 -->
<g id="edge11_Node000018_Node000009" class="edge">
<title>Node18&#45;&gt;Node9</title>
<g id="a_edge11_Node000018_Node000009"><a xlink:title=" ">
<path fill="none" stroke="#63b8ff" d="M199.85,-682.66C170.32,-685.69 133.79,-689.44 105.16,-692.38"/>
<polygon fill="#63b8ff" stroke="#63b8ff" points="200.1,-686.15 209.69,-681.65 199.39,-679.19 200.1,-686.15"/>
</a>
</g>
</g>
<!-- Node20 -->
<g id="Node000020" class="node">
<title>Node20</title>
<g id="a_Node000020"><a xlink:href="../../da/dbb/classBatch.html#a60ded4c18eb060829639a955ec294ffc" target="_top" xlink:title=" ">
<polygon fill="#fff0f0" stroke="red" points="305.38,-517.5 201.62,-517.5 201.62,-493 305.38,-493 305.38,-517.5"/>
<text text-anchor="middle" x="253.5" y="-500.2" font-family="Helvetica,sans-Serif" font-size="14.00">Batch\exitApp</text>
</a>
</g>
</g>
<!-- Node19&#45;&gt;Node20 -->
<g id="edge13_Node000019_Node000020" class="edge">
<title>Node19&#45;&gt;Node20</title>
<g id="a_edge13_Node000019_Node000020"><a xlink:title=" ">
<path fill="none" stroke="#63b8ff" d="M414.64,-533.57C378.54,-527.19 337.37,-519.91 305.82,-514.33"/>
<polygon fill="#63b8ff" stroke="#63b8ff" points="413.72,-536.96 424.18,-535.26 414.94,-530.07 413.72,-536.96"/>
</a>
</g>
</g>
<!-- Node23 -->
<g id="Node000023" class="node">
<title>Node23</title>
<g id="a_Node000023"><a xlink:href="../../da/dbb/classBatch.html#a92689ecdadcb612ac89e5e5371200e19" target="_top" xlink:title=" ">
<polygon fill="#fff0f0" stroke="red" points="330.5,-474.5 176.5,-474.5 176.5,-450 330.5,-450 330.5,-474.5"/>
<text text-anchor="middle" x="253.5" y="-457.2" font-family="Helvetica,sans-Serif" font-size="14.00">Batch\refreshEnvVars</text>
</a>
</g>
</g>
<!-- Node19&#45;&gt;Node23 -->
<g id="edge14_Node000019_Node000023" class="edge">
<title>Node19&#45;&gt;Node23</title>
<g id="a_edge14_Node000019_Node000023"><a xlink:title=" ">
<path fill="none" stroke="#63b8ff" d="M413.7,-531.84C406.66,-529.12 399.82,-525.94 393.5,-522.25 373.41,-510.52 377.79,-495.64 357.5,-484.25 349.29,-479.64 340.21,-476 330.95,-473.11"/>
<polygon fill="#63b8ff" stroke="#63b8ff" points="412.11,-534.99 422.71,-535.01 414.44,-528.39 412.11,-534.99"/>
</a>
</g>
</g>
<!-- Node28&#45;&gt;Node29 -->
<g id="edge16_Node000028_Node000029" class="edge">
<title>Node28&#45;&gt;Node29</title>
<g id="a_edge16_Node000028_Node000029"><a xlink:title=" ">
<path fill="none" stroke="#63b8ff" d="M416.25,-408.25C394.79,-408.25 371.43,-408.25 349.32,-408.25"/>
<polygon fill="#63b8ff" stroke="#63b8ff" points="416.12,-411.75 426.12,-408.25 416.12,-404.75 416.12,-411.75"/>
</a>
</g>
</g>
<!-- Node30 -->
<g id="Node000030" class="node">
<title>Node30</title>
<g id="a_Node000030"><a xlink:href="../../d6/de4/classUtil.html#ab3b1743b2b25b68d4de4e6c50201ba6a" target="_top" xlink:title=" ">
<polygon fill="#fff0f0" stroke="red" points="113.5,-420.5 0,-420.5 0,-396 113.5,-396 113.5,-420.5"/>
<text text-anchor="middle" x="56.75" y="-403.2" font-family="Helvetica,sans-Serif" font-size="14.00">Util\isPortInUse</text>
</a>
</g>
</g>
<!-- Node29&#45;&gt;Node30 -->
<g id="edge17_Node000029_Node000030" class="edge">
<title>Node29&#45;&gt;Node30</title>
<g id="a_edge17_Node000029_Node000030"><a xlink:title=" ">
<path fill="none" stroke="#63b8ff" d="M145.92,-408.25C134.92,-408.25 124.08,-408.25 113.97,-408.25"/>
<polygon fill="#63b8ff" stroke="#63b8ff" points="145.89,-411.75 155.89,-408.25 145.89,-404.75 145.89,-411.75"/>
</a>
</g>
</g>
<!-- Node59 -->
<g id="Node000059" class="node">
<title>Node59</title>
<g id="a_Node000059"><a xlink:href="../../d1/db8/classActionStartup.html#a2e2b7096ab5febcc31b263711b77c2b9" target="_top" xlink:title=" ">
<polygon fill="#fff0f0" stroke="red" points="332.75,-1354.5 174.25,-1354.5 174.25,-1330 332.75,-1330 332.75,-1354.5"/>
<text text-anchor="middle" x="253.5" y="-1337.2" font-family="Helvetica,sans-Serif" font-size="14.00">ActionStartup\sysInfos</text>
</a>
</g>
</g>
<!-- Node58&#45;&gt;Node59 -->
<g id="edge23_Node000058_Node000059" class="edge">
<title>Node58&#45;&gt;Node59</title>
<g id="a_edge23_Node000058_Node000059"><a xlink:title=" ">
<path fill="none" stroke="#63b8ff" d="M426.99,-1342.25C397.49,-1342.25 363.11,-1342.25 332.84,-1342.25"/>
<polygon fill="#63b8ff" stroke="#63b8ff" points="426.95,-1345.75 436.95,-1342.25 426.95,-1338.75 426.95,-1345.75"/>
</a>
</g>
</g>
<!-- Node61 -->
<g id="Node000061" class="node">
<title>Node61</title>
<g id="a_Node000061"><a xlink:href="../../dc/db3/classBinPhp.html#a322601309f58ac85d7d430de001725da" target="_top" xlink:title=" ">
<polygon fill="white" stroke="#666666" points="335.75,-1123.5 171.25,-1123.5 171.25,-1099 335.75,-1099 335.75,-1123.5"/>
<text text-anchor="middle" x="253.5" y="-1106.2" font-family="Helvetica,sans-Serif" font-size="14.00">BinPhp\getPearVersion</text>
</a>
</g>
</g>
<!-- Node60&#45;&gt;Node61 -->
<g id="edge25_Node000060_Node000061" class="edge">
<title>Node60&#45;&gt;Node61</title>
<g id="a_edge25_Node000060_Node000061"><a xlink:title=" ">
<path fill="none" stroke="#63b8ff" d="M409.78,-1111.25C385.76,-1111.25 359.83,-1111.25 336.17,-1111.25"/>
<polygon fill="#63b8ff" stroke="#63b8ff" points="409.52,-1114.75 419.52,-1111.25 409.52,-1107.75 409.52,-1114.75"/>
</a>
</g>
</g>
<!-- Node63 -->
<g id="Node000063" class="node">
<title>Node63</title>
<g id="a_Node000063"><a xlink:href="../../d6/d88/classBinMysql.html#ad0cb81bbc0f92f94aba2b89eb3396818" target="_top" xlink:title=" ">
<polygon fill="#fff0f0" stroke="red" points="315.12,-1080.5 191.88,-1080.5 191.88,-1056 315.12,-1056 315.12,-1080.5"/>
<text text-anchor="middle" x="253.5" y="-1063.2" font-family="Helvetica,sans-Serif" font-size="14.00">BinMysql\initData</text>
</a>
</g>
</g>
<!-- Node62&#45;&gt;Node63 -->
<g id="edge28_Node000062_Node000063" class="edge">
<title>Node62&#45;&gt;Node63</title>
<g id="a_edge28_Node000062_Node000063"><a xlink:title=" ">
<path fill="none" stroke="#63b8ff" d="M416.18,-1068.25C383.23,-1068.25 345.85,-1068.25 315.34,-1068.25"/>
<polygon fill="#63b8ff" stroke="#63b8ff" points="416.12,-1071.75 426.12,-1068.25 416.12,-1064.75 416.12,-1071.75"/>
</a>
</g>
</g>
<!-- Node67 -->
<g id="Node000067" class="node">
<title>Node67</title>
<g id="a_Node000067"><a xlink:href="../../dc/db9/classBinPostgresql.html#a6a6817ca71ca5be4dfd3a6a282136b6e" target="_top" xlink:title=" ">
<polygon fill="#fff0f0" stroke="red" points="331.25,-1037.5 175.75,-1037.5 175.75,-1013 331.25,-1013 331.25,-1037.5"/>
<text text-anchor="middle" x="253.5" y="-1020.2" font-family="Helvetica,sans-Serif" font-size="14.00">BinPostgresql\initData</text>
</a>
</g>
</g>
<!-- Node66&#45;&gt;Node67 -->
<g id="edge30_Node000066_Node000067" class="edge">
<title>Node66&#45;&gt;Node67</title>
<g id="a_edge30_Node000066_Node000067"><a xlink:title=" ">
<path fill="none" stroke="#63b8ff" d="M400.12,-1025.25C377.31,-1025.25 353.31,-1025.25 331.53,-1025.25"/>
<polygon fill="#63b8ff" stroke="#63b8ff" points="400.05,-1028.75 410.05,-1025.25 400.05,-1021.75 400.05,-1028.75"/>
</a>
</g>
</g>
<!-- Node74&#45;&gt;Node5 -->
<g id="edge34_Node000074_Node000005" class="edge">
<title>Node74&#45;&gt;Node5</title>
<g id="a_edge34_Node000074_Node000005"><a xlink:title=" ">
<path fill="none" stroke="#63b8ff" d="M410.69,-747.69C384.76,-751.11 356.54,-754.82 331.3,-758.14"/>
<polygon fill="#63b8ff" stroke="#63b8ff" points="411.07,-751.17 420.53,-746.4 410.16,-744.23 411.07,-751.17"/>
</a>
</g>
</g>
<!-- Node77&#45;&gt;Node70 -->
<g id="edge36_Node000077_Node000070" class="edge">
<title>Node77&#45;&gt;Node70</title>
<g id="a_edge36_Node000077_Node000070"><a xlink:title=" ">
<path fill="none" stroke="#63b8ff" d="M389.44,-953.26C375.14,-954.32 360.6,-955.4 346.6,-956.43"/>
<polygon fill="#63b8ff" stroke="#63b8ff" points="389.61,-956.76 399.33,-952.53 389.1,-949.78 389.61,-956.76"/>
</a>
</g>
</g>
<!-- Node77&#45;&gt;Node73 -->
<g id="edge37_Node000077_Node000073" class="edge">
<title>Node77&#45;&gt;Node73</title>
<g id="a_edge37_Node000077_Node000073"><a xlink:title=" ">
<path fill="none" stroke="#63b8ff" d="M435.09,-929.82C395.03,-919.93 343.68,-907.26 305.99,-897.96"/>
<polygon fill="#63b8ff" stroke="#63b8ff" points="434.05,-933.16 444.59,-932.16 435.72,-926.37 434.05,-933.16"/>
</a>
</g>
</g>
<!-- Node78&#45;&gt;Node73 -->
<g id="edge39_Node000078_Node000073" class="edge">
<title>Node78&#45;&gt;Node73</title>
<g id="a_edge39_Node000078_Node000073"><a xlink:title=" ">
<path fill="none" stroke="#63b8ff" d="M383.05,-874.67C374.62,-875.37 366.13,-876.07 357.77,-876.76"/>
<polygon fill="#63b8ff" stroke="#63b8ff" points="383.33,-878.16 393.01,-873.86 382.76,-871.19 383.33,-878.16"/>
</a>
</g>
</g>
<!-- Node79&#45;&gt;Node73 -->
<g id="edge41_Node000079_Node000073" class="edge">
<title>Node79&#45;&gt;Node73</title>
<g id="a_edge41_Node000079_Node000073"><a xlink:title=" ">
<path fill="none" stroke="#63b8ff" d="M422.56,-837.37C412.76,-839.56 402.87,-841.88 393.5,-844.25 359.84,-852.76 322.08,-864.01 294.42,-872.57"/>
<polygon fill="#63b8ff" stroke="#63b8ff" points="423.07,-840.84 432.09,-835.28 421.57,-834.01 423.07,-840.84"/>
</a>
</g>
</g>
<!-- Node84 -->
<g id="Node000084" class="node">
<title>Node84</title>
<g id="a_Node000084"><a xlink:href="../../d9/d6c/classBinApache.html#a9e715eda066b0d564d23ce51f0fec684" target="_top" xlink:title=" ">
<polygon fill="white" stroke="#666666" points="580.88,-340.5 416.38,-340.5 416.38,-316 580.88,-316 580.88,-340.5"/>
<text text-anchor="middle" x="498.62" y="-323.2" font-family="Helvetica,sans-Serif" font-size="14.00">BinApache\refreshAlias</text>
</a>
</g>
</g>
<!-- Node83&#45;&gt;Node84 -->
<g id="edge45_Node000083_Node000084" class="edge">
<title>Node83&#45;&gt;Node84</title>
<g id="a_edge45_Node000083_Node000084"><a xlink:title=" ">
<path fill="none" stroke="#63b8ff" d="M656.46,-328.25C632.18,-328.25 605.54,-328.25 581.21,-328.25"/>
<polygon fill="#63b8ff" stroke="#63b8ff" points="656.28,-331.75 666.28,-328.25 656.28,-324.75 656.28,-331.75"/>
</a>
</g>
</g>
<!-- Node86 -->
<g id="Node000086" class="node">
<title>Node86</title>
<g id="a_Node000086"><a xlink:href="../../dc/db3/classBinPhp.html#ad33e2bf1e933c6e0e117df325313022a" target="_top" xlink:title=" ">
<polygon fill="white" stroke="#666666" points="576.38,-289.5 420.88,-289.5 420.88,-265 576.38,-265 576.38,-289.5"/>
<text text-anchor="middle" x="498.62" y="-272.2" font-family="Helvetica,sans-Serif" font-size="14.00">BinPhp\getExtensions</text>
</a>
</g>
</g>
<!-- Node85&#45;&gt;Node86 -->
<g id="edge47_Node000085_Node000086" class="edge">
<title>Node85&#45;&gt;Node86</title>
<g id="a_edge47_Node000085_Node000086"><a xlink:title=" ">
<path fill="none" stroke="#63b8ff" d="M631.8,-277.25C613.29,-277.25 594.33,-277.25 576.77,-277.25"/>
<polygon fill="#63b8ff" stroke="#63b8ff" points="631.75,-280.75 641.75,-277.25 631.75,-273.75 631.75,-280.75"/>
</a>
</g>
</g>
<!-- Node88 -->
<g id="Node000088" class="node">
<title>Node88</title>
<g id="a_Node000088"><a xlink:href="../../da/df6/classLangProc.html#aa397e9ef589b2d2ac31e70d105472fca" target="_top" xlink:title=" ">
<polygon fill="#fff0f0" stroke="red" points="552.75,-238.5 444.5,-238.5 444.5,-214 552.75,-214 552.75,-238.5"/>
<text text-anchor="middle" x="498.62" y="-221.2" font-family="Helvetica,sans-Serif" font-size="14.00">LangProc\load</text>
</a>
</g>
</g>
<!-- Node87&#45;&gt;Node88 -->
<g id="edge49_Node000087_Node000088" class="edge">
<title>Node87&#45;&gt;Node88</title>
<g id="a_edge49_Node000087_Node000088"><a xlink:title=" ">
<path fill="none" stroke="#63b8ff" d="M664.27,-226.25C628.42,-226.25 585.98,-226.25 553.17,-226.25"/>
<polygon fill="#63b8ff" stroke="#63b8ff" points="664.14,-229.75 674.14,-226.25 664.14,-222.75 664.14,-229.75"/>
</a>
</g>
</g>
<!-- Node92 -->
<g id="Node000092" class="node">
<title>Node92</title>
<g id="a_Node000092"><a xlink:href="../../d9/d6c/classBinApache.html#a9d1ca7f955cf69bd03aad20b85df6940" target="_top" xlink:title=" ">
<polygon fill="white" stroke="#666666" points="580.12,-153.5 417.12,-153.5 417.12,-129 580.12,-129 580.12,-153.5"/>
<text text-anchor="middle" x="498.62" y="-136.2" font-family="Helvetica,sans-Serif" font-size="14.00">BinApache\getModules</text>
</a>
</g>
</g>
<!-- Node91&#45;&gt;Node92 -->
<g id="edge52_Node000091_Node000092" class="edge">
<title>Node91&#45;&gt;Node92</title>
<g id="a_edge52_Node000091_Node000092"><a xlink:title=" ">
<path fill="none" stroke="#63b8ff" d="M628.42,-136.37C612.33,-136.98 596,-137.6 580.62,-138.18"/>
<polygon fill="#63b8ff" stroke="#63b8ff" points="628.12,-139.88 637.98,-136.01 627.86,-132.89 628.12,-139.88"/>
</a>
</g>
</g>
<!-- Node94 -->
<g id="Node000094" class="node">
<title>Node94</title>
<g id="a_Node000094"><a xlink:href="../../d9/d6c/classBinApache.html#a6a256ac0de5191633973e2dc80d8534c" target="_top" xlink:title=" ">
<polygon fill="white" stroke="#666666" points="583.88,-110.5 413.38,-110.5 413.38,-86 583.88,-86 583.88,-110.5"/>
<text text-anchor="middle" x="498.62" y="-93.2" font-family="Helvetica,sans-Serif" font-size="14.00">BinApache\getVhostsUrl</text>
</a>
</g>
</g>
<!-- Node93&#45;&gt;Node94 -->
<g id="edge55_Node000093_Node000094" class="edge">
<title>Node93&#45;&gt;Node94</title>
<g id="a_edge55_Node000093_Node000094"><a xlink:title=" ">
<path fill="none" stroke="#63b8ff" d="M649.92,-81.8C628.46,-84.15 605.51,-86.66 584.18,-88.99"/>
<polygon fill="#63b8ff" stroke="#63b8ff" points="650.26,-85.28 659.82,-80.71 649.5,-78.32 650.26,-85.28"/>
</a>
</g>
</g>
<!-- Node95 -->
<g id="Node000095" class="node">
<title>Node95</title>
<g id="a_Node000095"><a xlink:href="../../d9/d6c/classBinApache.html#a7547ed525ff649c090a3c1f1474afdab" target="_top" xlink:title=" ">
<polygon fill="white" stroke="#666666" points="587.62,-67.5 409.62,-67.5 409.62,-43 587.62,-43 587.62,-67.5"/>
<text text-anchor="middle" x="498.62" y="-50.2" font-family="Helvetica,sans-Serif" font-size="14.00">BinApache\refreshVhosts</text>
</a>
</g>
</g>
<!-- Node93&#45;&gt;Node95 -->
<g id="edge56_Node000093_Node000095" class="edge">
<title>Node93&#45;&gt;Node95</title>
<g id="a_edge56_Node000093_Node000095"><a xlink:title=" ">
<path fill="none" stroke="#63b8ff" d="M649.93,-66.01C629.72,-64.56 608.2,-63.02 587.95,-61.57"/>
<polygon fill="#63b8ff" stroke="#63b8ff" points="649.59,-69.49 659.82,-66.72 650.09,-62.51 649.59,-69.49"/>
</a>
</g>
</g>
<!-- Node96 -->
<g id="Node000096" class="node">
<title>Node96</title>
<g id="a_Node000096"><a xlink:href="../../d9/d6c/classBinApache.html#a568adc920f3c2722c4fec4c86df88b54" target="_top" xlink:title=" ">
<polygon fill="#fff0f0" stroke="red" points="585.75,-24.5 411.5,-24.5 411.5,0 585.75,0 585.75,-24.5"/>
<text text-anchor="middle" x="498.62" y="-7.2" font-family="Helvetica,sans-Serif" font-size="14.00">BinApache\updateConfig</text>
</a>
</g>
</g>
<!-- Node93&#45;&gt;Node96 -->
<g id="edge57_Node000093_Node000096" class="edge">
<title>Node93&#45;&gt;Node96</title>
<g id="a_edge57_Node000093_Node000096"><a xlink:title=" ">
<path fill="none" stroke="#63b8ff" d="M684.43,-56.33C660,-49.18 630.5,-40.88 603.75,-34.25 590.75,-31.03 576.76,-27.87 563.39,-24.99"/>
<polygon fill="#63b8ff" stroke="#63b8ff" points="683.24,-59.62 693.82,-59.09 685.22,-52.91 683.24,-59.62"/>
</a>
</g>
</g>
</g>
</svg>
