<?xml version="1.0" encoding="UTF-8" standalone="no"?>
<!--
  - Copyright (c) 2021-2024 Bearsampp
  - License:  GNU General Public License version 3 or later; see LICENSE.txt
  - Author: Bear
  - Website: https://bearsampp.com
  - Github: https://github.com/Bearsampp
  -->

<!DOCTYPE svg PUBLIC "-//W3C//DTD SVG 1.1//EN"
 "http://www.w3.org/Graphics/SVG/1.1/DTD/svg11.dtd">
<!-- Generated by graphviz version 11.0.0 (20240428.1522)
 -->
<!-- Title: Util\removeService Pages: 1 -->
<svg width="361pt" height="420pt"
 viewBox="0.00 0.00 361.00 419.50" xmlns="http://www.w3.org/2000/svg" xmlns:xlink="http://www.w3.org/1999/xlink">

<svg id="main" version="1.1" xmlns="http://www.w3.org/2000/svg" xmlns:xlink="http://www.w3.org/1999/xlink" xml:space="preserve" onload="init(evt)">
<style type="text/css"><![CDATA[
.node, .edge {opacity: 0.7;}
.node.selected, .edge.selected {opacity: 1;}
.edge:hover path { stroke: red; }
.edge:hover polygon { stroke: red; fill: red; }
]]></style>
<script type="application/ecmascript" xlink:href="../../svg.min.js"/>
<svg id="graph" class="graph">
<g id="graph0" class="graph" transform="scale(1 1) rotate(0) translate(4 415.5)">
<title>Util\removeService</title>
<!-- Node1 -->
<g id="Node000001" class="node">
<title>Node1</title>
<g id="a_Node000001"><a xlink:title=" ">
<polygon fill="#999999" stroke="#666666" points="353,-217.5 217.75,-217.5 217.75,-193 353,-193 353,-217.5"/>
<text text-anchor="middle" x="285.38" y="-200.2" font-family="Helvetica,sans-Serif" font-size="14.00">Util\removeService</text>
</a>
</g>
</g>
<!-- Node2 -->
<g id="Node000002" class="node">
<title>Node2</title>
<g id="a_Node000002"><a xlink:href="../../d7/d0e/classActionService.html#aef966abecbb314d1534fb4d15ac1c2a4" target="_top" xlink:title=" ">
<polygon fill="white" stroke="#666666" points="168.62,-411.5 13.12,-411.5 13.12,-387 168.62,-387 168.62,-411.5"/>
<text text-anchor="middle" x="90.88" y="-394.2" font-family="Helvetica,sans-Serif" font-size="14.00">ActionService\remove</text>
</a>
</g>
</g>
<!-- Node1&#45;&gt;Node2 -->
<g id="edge1_Node000001_Node000002" class="edge">
<title>Node1&#45;&gt;Node2</title>
<g id="a_edge1_Node000001_Node000002"><a xlink:title=" ">
<path fill="none" stroke="#63b8ff" d="M277.01,-228.79C264.03,-266.23 233.48,-339.02 181.75,-377.25 176.71,-380.97 171.12,-384.07 165.27,-386.65"/>
<polygon fill="#63b8ff" stroke="#63b8ff" points="280.29,-229.99 280.13,-219.4 273.65,-227.79 280.29,-229.99"/>
</a>
</g>
</g>
<!-- Node3 -->
<g id="Node000003" class="node">
<title>Node3</title>
<g id="a_Node000003"><a xlink:href="../../d9/d6c/classBinApache.html#a54e8925c2f6dec1622cc8b4171810348" target="_top" xlink:title=" ">
<polygon fill="white" stroke="#666666" points="167.12,-368.5 14.62,-368.5 14.62,-344 167.12,-344 167.12,-368.5"/>
<text text-anchor="middle" x="90.88" y="-351.2" font-family="Helvetica,sans-Serif" font-size="14.00">BinApache\setEnable</text>
</a>
</g>
</g>
<!-- Node1&#45;&gt;Node3 -->
<g id="edge2_Node000001_Node000003" class="edge">
<title>Node1&#45;&gt;Node3</title>
<g id="a_edge2_Node000001_Node000003"><a xlink:title=" ">
<path fill="none" stroke="#63b8ff" d="M272.63,-227.87C256.28,-257.06 223.85,-307.3 181.75,-334.25 175.93,-337.97 169.53,-341.07 162.91,-343.64"/>
<polygon fill="#63b8ff" stroke="#63b8ff" points="275.68,-229.59 277.38,-219.13 269.53,-226.25 275.68,-229.59"/>
</a>
</g>
</g>
<!-- Node4 -->
<g id="Node000004" class="node">
<title>Node4</title>
<g id="a_Node000004"><a xlink:href="../../da/d23/classBinFilezilla.html#a00f53d4c8b7f101f056eded025c1f3c1" target="_top" xlink:title=" ">
<polygon fill="white" stroke="#666666" points="166,-325.5 15.75,-325.5 15.75,-301 166,-301 166,-325.5"/>
<text text-anchor="middle" x="90.88" y="-308.2" font-family="Helvetica,sans-Serif" font-size="14.00">BinFilezilla\setEnable</text>
</a>
</g>
</g>
<!-- Node1&#45;&gt;Node4 -->
<g id="edge3_Node000001_Node000004" class="edge">
<title>Node1&#45;&gt;Node4</title>
<g id="a_edge3_Node000001_Node000004"><a xlink:title=" ">
<path fill="none" stroke="#63b8ff" d="M265.11,-226.18C245.86,-245.85 214.48,-274.67 181.75,-291.25 174.44,-294.95 166.48,-298.05 158.41,-300.64"/>
<polygon fill="#63b8ff" stroke="#63b8ff" points="267.64,-228.6 272.02,-218.96 262.58,-223.76 267.64,-228.6"/>
</a>
</g>
</g>
<!-- Node5 -->
<g id="Node000005" class="node">
<title>Node5</title>
<g id="a_Node000005"><a xlink:href="../../db/df2/classBinMailhog.html#aecce319d43fb78f65b3a4ff9913c8be5" target="_top" xlink:title=" ">
<polygon fill="white" stroke="#666666" points="167.12,-282.5 14.62,-282.5 14.62,-258 167.12,-258 167.12,-282.5"/>
<text text-anchor="middle" x="90.88" y="-265.2" font-family="Helvetica,sans-Serif" font-size="14.00">BinMailhog\setEnable</text>
</a>
</g>
</g>
<!-- Node1&#45;&gt;Node5 -->
<g id="edge4_Node000001_Node000005" class="edge">
<title>Node1&#45;&gt;Node5</title>
<g id="a_edge4_Node000001_Node000005"><a xlink:title=" ">
<path fill="none" stroke="#63b8ff" d="M246.95,-222.6C227.73,-231.07 203.78,-240.99 181.75,-248.25 171.38,-251.67 160.17,-254.83 149.31,-257.62"/>
<polygon fill="#63b8ff" stroke="#63b8ff" points="248.29,-225.83 255.99,-218.55 245.44,-219.44 248.29,-225.83"/>
</a>
</g>
</g>
<!-- Node6 -->
<g id="Node000006" class="node">
<title>Node6</title>
<g id="a_Node000006"><a xlink:href="../../d9/ddd/classBinMailpit.html#a32db6d32a46a58829c4535ad33e2202f" target="_top" xlink:title=" ">
<polygon fill="white" stroke="#666666" points="162.62,-239.5 19.12,-239.5 19.12,-215 162.62,-215 162.62,-239.5"/>
<text text-anchor="middle" x="90.88" y="-222.2" font-family="Helvetica,sans-Serif" font-size="14.00">BinMailpit\setEnable</text>
</a>
</g>
</g>
<!-- Node1&#45;&gt;Node6 -->
<g id="edge5_Node000001_Node000006" class="edge">
<title>Node1&#45;&gt;Node6</title>
<g id="a_edge5_Node000001_Node000006"><a xlink:title=" ">
<path fill="none" stroke="#63b8ff" d="M206.03,-214.2C191.77,-215.83 176.98,-217.52 162.95,-219.13"/>
<polygon fill="#63b8ff" stroke="#63b8ff" points="206.28,-217.7 215.81,-213.09 205.48,-210.74 206.28,-217.7"/>
</a>
</g>
</g>
<!-- Node7 -->
<g id="Node000007" class="node">
<title>Node7</title>
<g id="a_Node000007"><a xlink:href="../../d4/d8f/classBinMariadb.html#a976769ec002d6256882fc608f2a971c1" target="_top" xlink:title=" ">
<polygon fill="white" stroke="#666666" points="167.88,-196.5 13.88,-196.5 13.88,-172 167.88,-172 167.88,-196.5"/>
<text text-anchor="middle" x="90.88" y="-179.2" font-family="Helvetica,sans-Serif" font-size="14.00">BinMariadb\setEnable</text>
</a>
</g>
</g>
<!-- Node1&#45;&gt;Node7 -->
<g id="edge6_Node000001_Node000007" class="edge">
<title>Node1&#45;&gt;Node7</title>
<g id="a_edge6_Node000001_Node000007"><a xlink:title=" ">
<path fill="none" stroke="#63b8ff" d="M206.01,-196.7C193.55,-195.34 180.67,-193.94 168.25,-192.58"/>
<polygon fill="#63b8ff" stroke="#63b8ff" points="205.49,-200.17 215.81,-197.77 206.25,-193.21 205.49,-200.17"/>
</a>
</g>
</g>
<!-- Node8 -->
<g id="Node000008" class="node">
<title>Node8</title>
<g id="a_Node000008"><a xlink:href="../../da/d10/classBinMemcached.html#a6e34e322bae67fd3cb41528c12e62a4c" target="_top" xlink:title=" ">
<polygon fill="white" stroke="#666666" points="181.75,-153.5 0,-153.5 0,-129 181.75,-129 181.75,-153.5"/>
<text text-anchor="middle" x="90.88" y="-136.2" font-family="Helvetica,sans-Serif" font-size="14.00">BinMemcached\setEnable</text>
</a>
</g>
</g>
<!-- Node1&#45;&gt;Node8 -->
<g id="edge7_Node000001_Node000008" class="edge">
<title>Node1&#45;&gt;Node8</title>
<g id="a_edge7_Node000001_Node000008"><a xlink:title=" ">
<path fill="none" stroke="#63b8ff" d="M246.1,-188C227.01,-179.81 203.43,-170.3 181.75,-163.25 171.36,-159.87 160.15,-156.74 149.29,-153.95"/>
<polygon fill="#63b8ff" stroke="#63b8ff" points="244.53,-191.14 255.09,-191.91 247.32,-184.72 244.53,-191.14"/>
</a>
</g>
</g>
<!-- Node9 -->
<g id="Node000009" class="node">
<title>Node9</title>
<g id="a_Node000009"><a xlink:href="../../d6/d88/classBinMysql.html#ae2f67df247c503657a59721431e74e5d" target="_top" xlink:title=" ">
<polygon fill="white" stroke="#666666" points="161.12,-110.5 20.62,-110.5 20.62,-86 161.12,-86 161.12,-110.5"/>
<text text-anchor="middle" x="90.88" y="-93.2" font-family="Helvetica,sans-Serif" font-size="14.00">BinMysql\setEnable</text>
</a>
</g>
</g>
<!-- Node1&#45;&gt;Node9 -->
<g id="edge8_Node000001_Node000009" class="edge">
<title>Node1&#45;&gt;Node9</title>
<g id="a_edge8_Node000001_Node000009"><a xlink:title=" ">
<path fill="none" stroke="#63b8ff" d="M265.07,-184.57C245.78,-165.14 214.37,-136.65 181.75,-120.25 174.43,-116.57 166.46,-113.48 158.39,-110.9"/>
<polygon fill="#63b8ff" stroke="#63b8ff" points="262.51,-186.96 271.98,-191.7 267.53,-182.09 262.51,-186.96"/>
</a>
</g>
</g>
<!-- Node10 -->
<g id="Node000010" class="node">
<title>Node10</title>
<g id="a_Node000010"><a xlink:href="../../dc/db9/classBinPostgresql.html#a1dfaa8c453e59e1a9849bfd7b5a27bbb" target="_top" xlink:title=" ">
<polygon fill="white" stroke="#666666" points="177.25,-67.5 4.5,-67.5 4.5,-43 177.25,-43 177.25,-67.5"/>
<text text-anchor="middle" x="90.88" y="-50.2" font-family="Helvetica,sans-Serif" font-size="14.00">BinPostgresql\setEnable</text>
</a>
</g>
</g>
<!-- Node1&#45;&gt;Node10 -->
<g id="edge9_Node000001_Node000010" class="edge">
<title>Node1&#45;&gt;Node10</title>
<g id="a_edge9_Node000001_Node000010"><a xlink:title=" ">
<path fill="none" stroke="#63b8ff" d="M272.59,-182.81C256.19,-153.84 223.7,-104 181.75,-77.25 175.93,-73.54 169.52,-70.45 162.9,-67.88"/>
<polygon fill="#63b8ff" stroke="#63b8ff" points="269.46,-184.39 277.35,-191.47 275.6,-181.02 269.46,-184.39"/>
</a>
</g>
</g>
<!-- Node11 -->
<g id="Node000011" class="node">
<title>Node11</title>
<g id="a_Node000011"><a xlink:href="../../d8/ddb/classBinXlight.html#af8a4eaf341f9faaf452ef20759623a1a" target="_top" xlink:title=" ">
<polygon fill="white" stroke="#666666" points="160.38,-24.5 21.38,-24.5 21.38,0 160.38,0 160.38,-24.5"/>
<text text-anchor="middle" x="90.88" y="-7.2" font-family="Helvetica,sans-Serif" font-size="14.00">BinXlight\setEnable</text>
</a>
</g>
</g>
<!-- Node1&#45;&gt;Node11 -->
<g id="edge10_Node000001_Node000011" class="edge">
<title>Node1&#45;&gt;Node11</title>
<g id="a_edge10_Node000001_Node000011"><a xlink:title=" ">
<path fill="none" stroke="#63b8ff" d="M276.97,-181.84C263.94,-144.62 233.31,-72.25 181.75,-34.25 175.41,-29.58 168.21,-25.89 160.7,-22.98"/>
<polygon fill="#63b8ff" stroke="#63b8ff" points="273.6,-182.81 280.1,-191.17 280.23,-180.58 273.6,-182.81"/>
</a>
</g>
</g>
</g>
</svg>
</svg>

<style type='text/css'>
<![CDATA[
[data-mouse-over-selected='false'] { opacity: 0.7; }
[data-mouse-over-selected='true']  { opacity: 1.0; }
]]>
</style>
<script type="application/ecmascript"><![CDATA[
document.addEventListener('DOMContentLoaded', (event) => {
  highlightEdges();
  highlightAdjacentNodes();
});
]]></script>
</svg>
