<?xml version="1.0" encoding="UTF-8" standalone="no"?>
<!--
  - Copyright (c) 2021-2024 Bearsampp
  - License:  GNU General Public License version 3 or later; see LICENSE.txt
  - Author: Bear
  - Website: https://bearsampp.com
  - Github: https://github.com/Bearsampp
  -->

<!DOCTYPE svg PUBLIC "-//W3C//DTD SVG 1.1//EN"
 "http://www.w3.org/Graphics/SVG/1.1/DTD/svg11.dtd">
<!-- Generated by graphviz version 11.0.0 (20240428.1522)
 -->
<!-- Title: Util\setSysPathRegKey Pages: 1 -->
<svg width="640pt" height="49pt"
 viewBox="0.00 0.00 640.25 49.00" xmlns="http://www.w3.org/2000/svg" xmlns:xlink="http://www.w3.org/1999/xlink">
<g id="graph0" class="graph" transform="scale(1 1) rotate(0) translate(4 45)">
<title>Util\setSysPathRegKey</title>
<!-- Node1 -->
<g id="Node000001" class="node">
<title>Node1</title>
<g id="a_Node000001"><a xlink:title=" ">
<polygon fill="#999999" stroke="#666666" points="632.25,-32.75 469.25,-32.75 469.25,-8.25 632.25,-8.25 632.25,-32.75"/>
<text text-anchor="middle" x="550.75" y="-15.45" font-family="Helvetica,sans-Serif" font-size="14.00">Util\setSysPathRegKey</text>
</a>
</g>
</g>
<!-- Node2 -->
<g id="Node000002" class="node">
<title>Node2</title>
<g id="a_Node000002"><a xlink:href="../../d1/db8/classActionStartup.html#a61f94962e7c517030d942e10b3ab1a30" target="_top" xlink:title=" ">
<polygon fill="white" stroke="#666666" points="433.25,-41 243.25,-41 243.25,0 433.25,0 433.25,-41"/>
<text text-anchor="start" x="251.25" y="-23.7" font-family="Helvetica,sans-Serif" font-size="14.00">ActionStartup\checkSystem</text>
<text text-anchor="middle" x="338.25" y="-7.2" font-family="Helvetica,sans-Serif" font-size="14.00">PathRegKey</text>
</a>
</g>
</g>
<!-- Node1&#45;&gt;Node2 -->
<g id="edge1_Node000001_Node000002" class="edge">
<title>Node1&#45;&gt;Node2</title>
<g id="a_edge1_Node000001_Node000002"><a xlink:title=" ">
<path fill="none" stroke="#63b8ff" d="M457.72,-20.5C449.7,-20.5 441.57,-20.5 433.53,-20.5"/>
<polygon fill="#63b8ff" stroke="#63b8ff" points="457.45,-24 467.45,-20.5 457.45,-17 457.45,-24"/>
</a>
</g>
</g>
<!-- Node3 -->
<g id="Node000003" class="node">
<title>Node3</title>
<g id="a_Node000003"><a xlink:href="../../d1/db8/classActionStartup.html#a1234a0f2093a95140d6f86983514d28f" target="_top" xlink:title=" ">
<polygon fill="white" stroke="#666666" points="207.25,-32.75 0,-32.75 0,-8.25 207.25,-8.25 207.25,-32.75"/>
<text text-anchor="middle" x="103.63" y="-15.45" font-family="Helvetica,sans-Serif" font-size="14.00">ActionStartup\processWindow</text>
</a>
</g>
</g>
<!-- Node2&#45;&gt;Node3 -->
<g id="edge2_Node000002_Node000003" class="edge">
<title>Node2&#45;&gt;Node3</title>
<g id="a_edge2_Node000002_Node000003"><a xlink:title=" ">
<path fill="none" stroke="#63b8ff" d="M231.63,-20.5C223.57,-20.5 215.44,-20.5 207.4,-20.5"/>
<polygon fill="#63b8ff" stroke="#63b8ff" points="231.45,-24 241.45,-20.5 231.45,-17 231.45,-24"/>
</a>
</g>
</g>
</g>
</svg>
