<?xml version="1.0" encoding="UTF-8" standalone="no"?>
<!--
  - Copyright (c) 2021-2024 Bearsampp
  - License:  GNU General Public License version 3 or later; see LICENSE.txt
  - Author: Bear
  - Website: https://bearsampp.com
  - Github: https://github.com/Bearsampp
  -->

<!DOCTYPE svg PUBLIC "-//W3C//DTD SVG 1.1//EN"
 "http://www.w3.org/Graphics/SVG/1.1/DTD/svg11.dtd">
<!-- Generated by graphviz version 11.0.0 (20240428.1522)
 -->
<!-- Title: Util\startLoading Pages: 1 -->
<svg width="369pt" height="457pt"
 viewBox="0.00 0.00 368.50 456.75" xmlns="http://www.w3.org/2000/svg" xmlns:xlink="http://www.w3.org/1999/xlink">
<g id="graph0" class="graph" transform="scale(1 1) rotate(0) translate(4 452.75)">
<title>Util\startLoading</title>
<!-- Node1 -->
<g id="Node000001" class="node">
<title>Node1</title>
<g id="a_Node000001"><a xlink:title=" ">
<polygon fill="#999999" stroke="#666666" points="360.5,-220.5 243.25,-220.5 243.25,-196 360.5,-196 360.5,-220.5"/>
<text text-anchor="middle" x="301.88" y="-203.2" font-family="Helvetica,sans-Serif" font-size="14.00">Util\startLoading</text>
</a>
</g>
</g>
<!-- Node2 -->
<g id="Node000002" class="node">
<title>Node2</title>
<g id="a_Node000002"><a xlink:href="../../da/d27/classActionCheckVersion.html#a28bc17b27165f0051d6daa9b4db830d3" target="_top" xlink:title=" ">
<polygon fill="white" stroke="#666666" points="176.12,-448.75 31.13,-448.75 31.13,-407.75 176.12,-407.75 176.12,-448.75"/>
<text text-anchor="start" x="39.13" y="-431.45" font-family="Helvetica,sans-Serif" font-size="14.00">ActionCheckVersion</text>
<text text-anchor="middle" x="103.63" y="-414.95" font-family="Helvetica,sans-Serif" font-size="14.00">\__construct</text>
</a>
</g>
</g>
<!-- Node1&#45;&gt;Node2 -->
<g id="edge1_Node000001_Node000002" class="edge">
<title>Node1&#45;&gt;Node2</title>
<g id="a_edge1_Node000001_Node000002"><a xlink:title=" ">
<path fill="none" stroke="#63b8ff" d="M295.85,-231.61C286,-271.72 260.33,-353.66 207.25,-398.25 198.3,-405.77 187.53,-411.41 176.4,-415.63"/>
<polygon fill="#63b8ff" stroke="#63b8ff" points="299.21,-232.6 298.07,-222.07 292.4,-231.02 299.21,-232.6"/>
</a>
</g>
</g>
<!-- Node3 -->
<g id="Node000003" class="node">
<title>Node3</title>
<g id="a_Node000003"><a xlink:href="../../d8/d65/classActionEnable.html#aff89eb7a9b90b065fd938c5bbb0112e6" target="_top" xlink:title=" ">
<polygon fill="white" stroke="#666666" points="192.62,-389.5 14.63,-389.5 14.63,-365 192.62,-365 192.62,-389.5"/>
<text text-anchor="middle" x="103.63" y="-372.2" font-family="Helvetica,sans-Serif" font-size="14.00">ActionEnable\__construct</text>
</a>
</g>
</g>
<!-- Node1&#45;&gt;Node3 -->
<g id="edge2_Node000001_Node000003" class="edge">
<title>Node1&#45;&gt;Node3</title>
<g id="a_edge2_Node000001_Node000003"><a xlink:title=" ">
<path fill="none" stroke="#63b8ff" d="M293.07,-231.03C280.49,-264.15 252.46,-325.03 207.25,-356.25 202.61,-359.45 197.59,-362.19 192.35,-364.52"/>
<polygon fill="#63b8ff" stroke="#63b8ff" points="296.23,-232.59 296.36,-221.99 289.65,-230.19 296.23,-232.59"/>
</a>
</g>
</g>
<!-- Node4 -->
<g id="Node000004" class="node">
<title>Node4</title>
<g id="a_Node000004"><a xlink:href="../../d7/d5e/classActionLaunchStartup.html#ac73132d2feaecbc33b08f312c698e035" target="_top" xlink:title=" ">
<polygon fill="white" stroke="#666666" points="176.88,-346.75 30.38,-346.75 30.38,-305.75 176.88,-305.75 176.88,-346.75"/>
<text text-anchor="start" x="38.38" y="-329.45" font-family="Helvetica,sans-Serif" font-size="14.00">ActionLaunchStartup</text>
<text text-anchor="middle" x="103.63" y="-312.95" font-family="Helvetica,sans-Serif" font-size="14.00">\__construct</text>
</a>
</g>
</g>
<!-- Node1&#45;&gt;Node4 -->
<g id="edge3_Node000001_Node000004" class="edge">
<title>Node1&#45;&gt;Node4</title>
<g id="a_edge3_Node000001_Node000004"><a xlink:title=" ">
<path fill="none" stroke="#63b8ff" d="M283.75,-229.69C266.48,-249.93 238.04,-279.72 207.25,-297.25 198,-302.52 187.73,-306.88 177.36,-310.49"/>
<polygon fill="#63b8ff" stroke="#63b8ff" points="286.41,-231.97 290.11,-222.04 281.02,-227.49 286.41,-231.97"/>
</a>
</g>
</g>
<!-- Node5 -->
<g id="Node000005" class="node">
<title>Node5</title>
<g id="a_Node000005"><a xlink:href="../../d0/d9f/classActionManualRestart.html#a229630778cbd92fef95f4e99e872fdca" target="_top" xlink:title=" ">
<polygon fill="white" stroke="#666666" points="176.5,-287.75 30.75,-287.75 30.75,-246.75 176.5,-246.75 176.5,-287.75"/>
<text text-anchor="start" x="38.75" y="-270.45" font-family="Helvetica,sans-Serif" font-size="14.00">ActionManualRestart</text>
<text text-anchor="middle" x="103.63" y="-253.95" font-family="Helvetica,sans-Serif" font-size="14.00">\__construct</text>
</a>
</g>
</g>
<!-- Node1&#45;&gt;Node5 -->
<g id="edge4_Node000001_Node000005" class="edge">
<title>Node1&#45;&gt;Node5</title>
<g id="a_edge4_Node000001_Node000005"><a xlink:title=" ">
<path fill="none" stroke="#63b8ff" d="M251.63,-224.38C237.35,-228.97 221.71,-233.89 207.25,-238.25 197.41,-241.22 187.02,-244.26 176.77,-247.2"/>
<polygon fill="#63b8ff" stroke="#63b8ff" points="252.37,-227.82 260.81,-221.42 250.22,-221.16 252.37,-227.82"/>
</a>
</g>
</g>
<!-- Node6 -->
<g id="Node000006" class="node">
<title>Node6</title>
<g id="a_Node000006"><a xlink:href="../../d8/d75/classActionRefreshRepos.html#af1efc3416dac6015926af8357a6ff7e6" target="_top" xlink:title=" ">
<polygon fill="white" stroke="#666666" points="178.38,-228.75 28.88,-228.75 28.88,-187.75 178.38,-187.75 178.38,-228.75"/>
<text text-anchor="start" x="36.88" y="-211.45" font-family="Helvetica,sans-Serif" font-size="14.00">ActionRefreshRepos</text>
<text text-anchor="middle" x="103.63" y="-194.95" font-family="Helvetica,sans-Serif" font-size="14.00">\__construct</text>
</a>
</g>
</g>
<!-- Node1&#45;&gt;Node6 -->
<g id="edge5_Node000001_Node000006" class="edge">
<title>Node1&#45;&gt;Node6</title>
<g id="a_edge5_Node000001_Node000006"><a xlink:title=" ">
<path fill="none" stroke="#63b8ff" d="M231.71,-208.25C214.52,-208.25 196.03,-208.25 178.62,-208.25"/>
<polygon fill="#63b8ff" stroke="#63b8ff" points="231.28,-211.75 241.28,-208.25 231.28,-204.75 231.28,-211.75"/>
</a>
</g>
</g>
<!-- Node7 -->
<g id="Node000007" class="node">
<title>Node7</title>
<g id="a_Node000007"><a xlink:href="../../dd/dea/classActionReload.html#a9caf3b20c05475876e5dc72cdcdf6024" target="_top" xlink:title=" ">
<polygon fill="white" stroke="#666666" points="193.38,-169.5 13.88,-169.5 13.88,-145 193.38,-145 193.38,-169.5"/>
<text text-anchor="middle" x="103.63" y="-152.2" font-family="Helvetica,sans-Serif" font-size="14.00">ActionReload\__construct</text>
</a>
</g>
</g>
<!-- Node1&#45;&gt;Node7 -->
<g id="edge6_Node000001_Node000007" class="edge">
<title>Node1&#45;&gt;Node7</title>
<g id="a_edge6_Node000001_Node000007"><a xlink:title=" ">
<path fill="none" stroke="#63b8ff" d="M252.16,-192.26C237.77,-187.78 221.94,-183.09 207.25,-179.25 194.73,-175.98 181.27,-172.83 168.34,-169.98"/>
<polygon fill="#63b8ff" stroke="#63b8ff" points="250.8,-195.5 261.39,-195.17 252.9,-188.82 250.8,-195.5"/>
</a>
</g>
</g>
<!-- Node8 -->
<g id="Node000008" class="node">
<title>Node8</title>
<g id="a_Node000008"><a xlink:href="../../d7/d0e/classActionService.html#a4440ed18ce314e66ba30932864b5584b" target="_top" xlink:title=" ">
<polygon fill="white" stroke="#666666" points="194.5,-126.5 12.75,-126.5 12.75,-102 194.5,-102 194.5,-126.5"/>
<text text-anchor="middle" x="103.63" y="-109.2" font-family="Helvetica,sans-Serif" font-size="14.00">ActionService\__construct</text>
</a>
</g>
</g>
<!-- Node1&#45;&gt;Node8 -->
<g id="edge7_Node000001_Node000008" class="edge">
<title>Node1&#45;&gt;Node8</title>
<g id="a_edge7_Node000001_Node000008"><a xlink:title=" ">
<path fill="none" stroke="#63b8ff" d="M280.51,-188.21C262.65,-171.78 235.24,-149.2 207.25,-136.25 199.31,-132.58 190.74,-129.51 182.06,-126.95"/>
<polygon fill="#63b8ff" stroke="#63b8ff" points="277.69,-190.36 287.37,-194.67 282.49,-185.27 277.69,-190.36"/>
</a>
</g>
</g>
<!-- Node9 -->
<g id="Node000009" class="node">
<title>Node9</title>
<g id="a_Node000009"><a xlink:href="../../df/d7b/classActionSwitchOnline.html#a01990938d61622ee216f8d269ae3dbfb" target="_top" xlink:title=" ">
<polygon fill="white" stroke="#666666" points="172.38,-83.75 34.88,-83.75 34.88,-42.75 172.38,-42.75 172.38,-83.75"/>
<text text-anchor="start" x="42.88" y="-66.45" font-family="Helvetica,sans-Serif" font-size="14.00">ActionSwitchOnline</text>
<text text-anchor="middle" x="103.63" y="-49.95" font-family="Helvetica,sans-Serif" font-size="14.00">\__construct</text>
</a>
</g>
</g>
<!-- Node1&#45;&gt;Node9 -->
<g id="edge8_Node000001_Node000009" class="edge">
<title>Node1&#45;&gt;Node9</title>
<g id="a_edge8_Node000001_Node000009"><a xlink:title=" ">
<path fill="none" stroke="#63b8ff" d="M288.52,-186.06C272.91,-160.04 243.64,-117.4 207.25,-93.25 196.81,-86.32 184.74,-80.96 172.63,-76.82"/>
<polygon fill="#63b8ff" stroke="#63b8ff" points="285.36,-187.59 293.42,-194.47 291.41,-184.07 285.36,-187.59"/>
</a>
</g>
</g>
<!-- Node10 -->
<g id="Node000010" class="node">
<title>Node10</title>
<g id="a_Node000010"><a xlink:href="../../d1/db8/classActionStartup.html#a1234a0f2093a95140d6f86983514d28f" target="_top" xlink:title=" ">
<polygon fill="white" stroke="#666666" points="207.25,-24.5 0,-24.5 0,0 207.25,0 207.25,-24.5"/>
<text text-anchor="middle" x="103.63" y="-7.2" font-family="Helvetica,sans-Serif" font-size="14.00">ActionStartup\processWindow</text>
</a>
</g>
</g>
<!-- Node1&#45;&gt;Node10 -->
<g id="edge9_Node000001_Node000010" class="edge">
<title>Node1&#45;&gt;Node10</title>
<g id="a_edge9_Node000001_Node000010"><a xlink:title=" ">
<path fill="none" stroke="#63b8ff" d="M295.13,-184.86C284.54,-146.96 258.24,-72.54 207.25,-34.25 202.37,-30.58 197.01,-27.5 191.38,-24.91"/>
<polygon fill="#63b8ff" stroke="#63b8ff" points="291.69,-185.55 297.63,-194.32 298.46,-183.76 291.69,-185.55"/>
</a>
</g>
</g>
</g>
</svg>
