<?xml version="1.0" encoding="UTF-8" standalone="no"?>
<!--
  - Copyright (c) 2021-2024 Bearsampp
  - License:  GNU General Public License version 3 or later; see LICENSE.txt
  - Author: Bear
  - Website: https://bearsampp.com
  - Github: https://github.com/Bearsampp
  -->

<!DOCTYPE svg PUBLIC "-//W3C//DTD SVG 1.1//EN"
 "http://www.w3.org/Graphics/SVG/1.1/DTD/svg11.dtd">
<!-- Generated by graphviz version 11.0.0 (20240428.1522)
 -->
<!-- Title: Util\clearFolder Pages: 1 -->
<svg width="789pt" height="147pt"
 viewBox="0.00 0.00 789.00 147.24" xmlns="http://www.w3.org/2000/svg" xmlns:xlink="http://www.w3.org/1999/xlink">
<g id="graph0" class="graph" transform="scale(1 1) rotate(0) translate(4 143.24)">
<title>Util\clearFolder</title>
<!-- Node1 -->
<g id="Node000001" class="node">
<title>Node1</title>
<g id="a_Node000001"><a xlink:title=" ">
<polygon fill="#999999" stroke="#666666" points="781,-61.99 669.75,-61.99 669.75,-37.49 781,-37.49 781,-61.99"/>
<text text-anchor="middle" x="725.38" y="-44.69" font-family="Helvetica,sans-Serif" font-size="14.00">Util\clearFolder</text>
</a>
</g>
</g>
<!-- Node1&#45;&gt;Node1 -->
<g id="edge4_Node000001_Node000001" class="edge">
<title>Node1&#45;&gt;Node1</title>
<g id="a_edge4_Node000001_Node000001"><a xlink:title=" ">
<path fill="none" stroke="#63b8ff" d="M752.75,-73.92C748.51,-77.54 739.39,-79.99 725.38,-79.99 699,-79.99 689.94,-71.31 698.18,-62.49"/>
<polygon fill="#63b8ff" stroke="#63b8ff" points="756.25,-73.94 752.6,-64 749.26,-74.05 756.25,-73.94"/>
</a>
</g>
</g>
<!-- Node2 -->
<g id="Node000002" class="node">
<title>Node2</title>
<g id="a_Node000002"><a xlink:href="../../d6/dd4/classActionClearFolders.html#af84d6fd8f2c5092beb191169d836cc5f" target="_top" xlink:title=" ">
<polygon fill="white" stroke="#666666" points="633.75,-139.24 495.5,-139.24 495.5,-98.24 633.75,-98.24 633.75,-139.24"/>
<text text-anchor="start" x="503.5" y="-121.94" font-family="Helvetica,sans-Serif" font-size="14.00">ActionClearFolders</text>
<text text-anchor="middle" x="564.62" y="-105.44" font-family="Helvetica,sans-Serif" font-size="14.00">\__construct</text>
</a>
</g>
</g>
<!-- Node1&#45;&gt;Node2 -->
<g id="edge1_Node000001_Node000002" class="edge">
<title>Node1&#45;&gt;Node2</title>
<g id="a_edge1_Node000001_Node000002"><a xlink:title=" ">
<path fill="none" stroke="#63b8ff" d="M684.86,-66.92C663.36,-76.26 636.6,-87.89 613.88,-97.77"/>
<polygon fill="#63b8ff" stroke="#63b8ff" points="686.09,-70.2 693.87,-63 683.3,-63.78 686.09,-70.2"/>
</a>
</g>
</g>
<!-- Node3 -->
<g id="Node000003" class="node">
<title>Node3</title>
<g id="a_Node000003"><a xlink:href="../../d1/db8/classActionStartup.html#af9393b14a8b30d4ba7ef910d0fb9faf0" target="_top" xlink:title=" ">
<polygon fill="white" stroke="#666666" points="459.5,-81.99 243.25,-81.99 243.25,-57.49 459.5,-57.49 459.5,-81.99"/>
<text text-anchor="middle" x="351.38" y="-64.69" font-family="Helvetica,sans-Serif" font-size="14.00">ActionStartup\cleanTmpFolders</text>
</a>
</g>
</g>
<!-- Node1&#45;&gt;Node3 -->
<g id="edge2_Node000001_Node000003" class="edge">
<title>Node1&#45;&gt;Node3</title>
<g id="a_edge2_Node000001_Node000003"><a xlink:title=" ">
<path fill="none" stroke="#63b8ff" d="M658.14,-53.3C603.16,-56.26 523.9,-60.52 459.85,-63.96"/>
<polygon fill="#63b8ff" stroke="#63b8ff" points="658.18,-56.81 667.97,-52.77 657.8,-49.82 658.18,-56.81"/>
</a>
</g>
</g>
<!-- Node5 -->
<g id="Node000005" class="node">
<title>Node5</title>
<g id="a_Node000005"><a xlink:href="../../d6/de4/classUtil.html#a59daf303804cdfdbd563173f3c62f8d1" target="_top" xlink:title=" ">
<polygon fill="white" stroke="#666666" points="624,-41.99 505.25,-41.99 505.25,-17.49 624,-17.49 624,-41.99"/>
<text text-anchor="middle" x="564.62" y="-24.69" font-family="Helvetica,sans-Serif" font-size="14.00">Util\clearFolders</text>
</a>
</g>
</g>
<!-- Node1&#45;&gt;Node5 -->
<g id="edge5_Node000001_Node000005" class="edge">
<title>Node1&#45;&gt;Node5</title>
<g id="a_edge5_Node000001_Node000005"><a xlink:title=" ">
<path fill="none" stroke="#63b8ff" d="M657.88,-41.36C646.76,-39.96 635.3,-38.52 624.39,-37.15"/>
<polygon fill="#63b8ff" stroke="#63b8ff" points="657.44,-44.84 667.8,-42.61 658.31,-37.89 657.44,-44.84"/>
</a>
</g>
</g>
<!-- Node6 -->
<g id="Node000006" class="node">
<title>Node6</title>
<g id="a_Node000006"><a xlink:href="../../d1/db8/classActionStartup.html#ad4d4783daf62ff6ae52a390e058ce0e3" target="_top" xlink:title=" ">
<polygon fill="white" stroke="#666666" points="443,-38.99 259.75,-38.99 259.75,-14.49 443,-14.49 443,-38.99"/>
<text text-anchor="middle" x="351.38" y="-21.69" font-family="Helvetica,sans-Serif" font-size="14.00">ActionStartup\rotationLogs</text>
</a>
</g>
</g>
<!-- Node1&#45;&gt;Node6 -->
<g id="edge8_Node000001_Node000006" class="edge">
<title>Node1&#45;&gt;Node6</title>
<g id="a_edge8_Node000001_Node000006"><a xlink:title=" ">
<path fill="none" stroke="#63b8ff" d="M693.38,-31.75C676.38,-22.92 654.58,-13.23 633.75,-8.74 557.31,7.75 466.7,-3.35 409.37,-14.03"/>
<polygon fill="#63b8ff" stroke="#63b8ff" points="691.5,-34.71 701.96,-36.37 694.81,-28.55 691.5,-34.71"/>
</a>
</g>
</g>
<!-- Node4 -->
<g id="Node000004" class="node">
<title>Node4</title>
<g id="a_Node000004"><a xlink:href="../../d1/db8/classActionStartup.html#a1234a0f2093a95140d6f86983514d28f" target="_top" xlink:title=" ">
<polygon fill="white" stroke="#666666" points="207.25,-59.99 0,-59.99 0,-35.49 207.25,-35.49 207.25,-59.99"/>
<text text-anchor="middle" x="103.63" y="-42.69" font-family="Helvetica,sans-Serif" font-size="14.00">ActionStartup\processWindow</text>
</a>
</g>
</g>
<!-- Node3&#45;&gt;Node4 -->
<g id="edge3_Node000003_Node000004" class="edge">
<title>Node3&#45;&gt;Node4</title>
<g id="a_edge3_Node000003_Node000004"><a xlink:title=" ">
<path fill="none" stroke="#63b8ff" d="M231.6,-59.11C223.56,-58.39 215.5,-57.67 207.55,-56.96"/>
<polygon fill="#63b8ff" stroke="#63b8ff" points="231.16,-62.58 241.44,-59.99 231.79,-55.61 231.16,-62.58"/>
</a>
</g>
</g>
<!-- Node5&#45;&gt;Node6 -->
<g id="edge6_Node000005_Node000006" class="edge">
<title>Node5&#45;&gt;Node6</title>
<g id="a_edge6_Node000005_Node000006"><a xlink:title=" ">
<path fill="none" stroke="#63b8ff" d="M493.35,-28.74C477.33,-28.52 460.08,-28.27 443.33,-28.03"/>
<polygon fill="#63b8ff" stroke="#63b8ff" points="493.22,-32.24 503.27,-28.88 493.32,-25.24 493.22,-32.24"/>
</a>
</g>
</g>
<!-- Node6&#45;&gt;Node4 -->
<g id="edge7_Node000006_Node000004" class="edge">
<title>Node6&#45;&gt;Node4</title>
<g id="a_edge7_Node000006_Node000004"><a xlink:title=" ">
<path fill="none" stroke="#63b8ff" d="M248.33,-35.46C234.84,-36.61 221,-37.8 207.49,-38.95"/>
<polygon fill="#63b8ff" stroke="#63b8ff" points="248.39,-38.97 258.06,-34.63 247.8,-31.99 248.39,-38.97"/>
</a>
</g>
</g>
</g>
</svg>
