<?xml version="1.0" encoding="UTF-8" standalone="no"?>
<!--
  - Copyright (c) 2021-2024 Bearsampp
  - License:  GNU General Public License version 3 or later; see LICENSE.txt
  - Author: Bear
  - Website: https://bearsampp.com
  - Github: https://github.com/Bearsampp
  -->

<!DOCTYPE svg PUBLIC "-//W3C//DTD SVG 1.1//EN"
 "http://www.w3.org/Graphics/SVG/1.1/DTD/svg11.dtd">
<!-- Generated by graphviz version 11.0.0 (20240428.1522)
 -->
<!-- Title: Util\deleteFolder Pages: 1 -->
<svg width="591pt" height="51pt"
 viewBox="0.00 0.00 590.75 50.50" xmlns="http://www.w3.org/2000/svg" xmlns:xlink="http://www.w3.org/1999/xlink">
<g id="graph0" class="graph" transform="scale(1 1) rotate(0) translate(4 46.5)">
<title>Util\deleteFolder</title>
<!-- Node1 -->
<g id="Node000001" class="node">
<title>Node1</title>
<g id="a_Node000001"><a xlink:title=" ">
<polygon fill="#999999" stroke="#666666" points="582.75,-24.5 462.5,-24.5 462.5,0 582.75,0 582.75,-24.5"/>
<text text-anchor="middle" x="522.62" y="-7.2" font-family="Helvetica,sans-Serif" font-size="14.00">Util\deleteFolder</text>
</a>
</g>
</g>
<!-- Node1&#45;&gt;Node1 -->
<g id="edge1_Node000001_Node000001" class="edge">
<title>Node1&#45;&gt;Node1</title>
<g id="a_edge1_Node000001_Node000001"><a xlink:title=" ">
<path fill="none" stroke="#63b8ff" d="M554.6,-36.43C549.65,-40.05 538.99,-42.5 522.62,-42.5 491.82,-42.5 481.23,-33.81 490.86,-24.99"/>
<polygon fill="#63b8ff" stroke="#63b8ff" points="558.1,-36.44 554.42,-26.51 551.1,-36.57 558.1,-36.44"/>
</a>
</g>
</g>
<!-- Node2 -->
<g id="Node000002" class="node">
<title>Node2</title>
<g id="a_Node000002"><a xlink:href="../../d1/db8/classActionStartup.html#ad4d4783daf62ff6ae52a390e058ce0e3" target="_top" xlink:title=" ">
<polygon fill="white" stroke="#666666" points="426.5,-24.5 243.25,-24.5 243.25,0 426.5,0 426.5,-24.5"/>
<text text-anchor="middle" x="334.88" y="-7.2" font-family="Helvetica,sans-Serif" font-size="14.00">ActionStartup\rotationLogs</text>
</a>
</g>
</g>
<!-- Node1&#45;&gt;Node2 -->
<g id="edge2_Node000001_Node000002" class="edge">
<title>Node1&#45;&gt;Node2</title>
<g id="a_edge2_Node000001_Node000002"><a xlink:title=" ">
<path fill="none" stroke="#63b8ff" d="M450.8,-12.25C442.97,-12.25 434.91,-12.25 426.88,-12.25"/>
<polygon fill="#63b8ff" stroke="#63b8ff" points="450.57,-15.75 460.57,-12.25 450.57,-8.75 450.57,-15.75"/>
</a>
</g>
</g>
<!-- Node3 -->
<g id="Node000003" class="node">
<title>Node3</title>
<g id="a_Node000003"><a xlink:href="../../d1/db8/classActionStartup.html#a1234a0f2093a95140d6f86983514d28f" target="_top" xlink:title=" ">
<polygon fill="white" stroke="#666666" points="207.25,-24.5 0,-24.5 0,0 207.25,0 207.25,-24.5"/>
<text text-anchor="middle" x="103.63" y="-7.2" font-family="Helvetica,sans-Serif" font-size="14.00">ActionStartup\processWindow</text>
</a>
</g>
</g>
<!-- Node2&#45;&gt;Node3 -->
<g id="edge3_Node000002_Node000003" class="edge">
<title>Node2&#45;&gt;Node3</title>
<g id="a_edge3_Node000002_Node000003"><a xlink:title=" ">
<path fill="none" stroke="#63b8ff" d="M231.68,-12.25C223.67,-12.25 215.57,-12.25 207.55,-12.25"/>
<polygon fill="#63b8ff" stroke="#63b8ff" points="231.43,-15.75 241.43,-12.25 231.43,-8.75 231.43,-15.75"/>
</a>
</g>
</g>
</g>
</svg>
