<?xml version="1.0" encoding="UTF-8" standalone="no"?>
<!--
  - Copyright (c) 2021-2024 Bearsampp
  - License:  GNU General Public License version 3 or later; see LICENSE.txt
  - Author: Bear
  - Website: https://bearsampp.com
  - Github: https://github.com/Bearsampp
  -->

<!DOCTYPE svg PUBLIC "-//W3C//DTD SVG 1.1//EN"
 "http://www.w3.org/Graphics/SVG/1.1/DTD/svg11.dtd">
<!-- Generated by graphviz version 11.0.0 (20240428.1522)
 -->
<!-- Title: Util\installService Pages: 1 -->
<svg width="566pt" height="420pt"
 viewBox="0.00 0.00 566.00 419.50" xmlns="http://www.w3.org/2000/svg" xmlns:xlink="http://www.w3.org/1999/xlink">
<g id="graph0" class="graph" transform="scale(1 1) rotate(0) translate(4 415.5)">
<title>Util\installService</title>
<!-- Node1 -->
<g id="Node000001" class="node">
<title>Node1</title>
<g id="a_Node000001"><a xlink:title=" ">
<polygon fill="#999999" stroke="#666666" points="558,-217.5 435.5,-217.5 435.5,-193 558,-193 558,-217.5"/>
<text text-anchor="middle" x="496.75" y="-200.2" font-family="Helvetica,sans-Serif" font-size="14.00">Util\installService</text>
</a>
</g>
</g>
<!-- Node2 -->
<g id="Node000002" class="node">
<title>Node2</title>
<g id="a_Node000002"><a xlink:href="../../d7/d0e/classActionService.html#a0a1a0cd7ef10e75a7b29e39b2542b2b2" target="_top" xlink:title=" ">
<polygon fill="white" stroke="#666666" points="380,-411.5 237.25,-411.5 237.25,-387 380,-387 380,-411.5"/>
<text text-anchor="middle" x="308.62" y="-394.2" font-family="Helvetica,sans-Serif" font-size="14.00">ActionService\install</text>
</a>
</g>
</g>
<!-- Node1&#45;&gt;Node2 -->
<g id="edge1_Node000001_Node000002" class="edge">
<title>Node1&#45;&gt;Node2</title>
<g id="a_edge1_Node000001_Node000002"><a xlink:title=" ">
<path fill="none" stroke="#63b8ff" d="M489.27,-228.77C477.71,-266.18 449.88,-338.93 399.5,-377.25 393.75,-381.63 387.24,-385.14 380.42,-387.97"/>
<polygon fill="#63b8ff" stroke="#63b8ff" points="492.56,-229.99 492.03,-219.4 485.84,-228.01 492.56,-229.99"/>
</a>
</g>
</g>
<!-- Node4 -->
<g id="Node000004" class="node">
<title>Node4</title>
<g id="a_Node000004"><a xlink:href="../../d9/d6c/classBinApache.html#a54e8925c2f6dec1622cc8b4171810348" target="_top" xlink:title=" ">
<polygon fill="white" stroke="#666666" points="384.88,-368.5 232.38,-368.5 232.38,-344 384.88,-344 384.88,-368.5"/>
<text text-anchor="middle" x="308.62" y="-351.2" font-family="Helvetica,sans-Serif" font-size="14.00">BinApache\setEnable</text>
</a>
</g>
</g>
<!-- Node1&#45;&gt;Node4 -->
<g id="edge3_Node000001_Node000004" class="edge">
<title>Node1&#45;&gt;Node4</title>
<g id="a_edge3_Node000001_Node000004"><a xlink:title=" ">
<path fill="none" stroke="#63b8ff" d="M485.1,-227.87C470.17,-257.06 440.2,-307.3 399.5,-334.25 393.87,-337.98 387.68,-341.07 381.24,-343.64"/>
<polygon fill="#63b8ff" stroke="#63b8ff" points="488.12,-229.68 489.41,-219.16 481.84,-226.57 488.12,-229.68"/>
</a>
</g>
</g>
<!-- Node5 -->
<g id="Node000005" class="node">
<title>Node5</title>
<g id="a_Node000005"><a xlink:href="../../da/d23/classBinFilezilla.html#a00f53d4c8b7f101f056eded025c1f3c1" target="_top" xlink:title=" ">
<polygon fill="white" stroke="#666666" points="383.75,-325.5 233.5,-325.5 233.5,-301 383.75,-301 383.75,-325.5"/>
<text text-anchor="middle" x="308.62" y="-308.2" font-family="Helvetica,sans-Serif" font-size="14.00">BinFilezilla\setEnable</text>
</a>
</g>
</g>
<!-- Node1&#45;&gt;Node5 -->
<g id="edge4_Node000001_Node000005" class="edge">
<title>Node1&#45;&gt;Node5</title>
<g id="a_edge4_Node000001_Node000005"><a xlink:title=" ">
<path fill="none" stroke="#63b8ff" d="M477.71,-226.49C459.82,-246.18 430.65,-274.85 399.5,-291.25 392.54,-294.92 384.94,-297.99 377.22,-300.55"/>
<polygon fill="#63b8ff" stroke="#63b8ff" points="480.31,-228.83 484.32,-219.02 475.07,-224.19 480.31,-228.83"/>
</a>
</g>
</g>
<!-- Node6 -->
<g id="Node000006" class="node">
<title>Node6</title>
<g id="a_Node000006"><a xlink:href="../../db/df2/classBinMailhog.html#aecce319d43fb78f65b3a4ff9913c8be5" target="_top" xlink:title=" ">
<polygon fill="white" stroke="#666666" points="384.88,-282.5 232.38,-282.5 232.38,-258 384.88,-258 384.88,-282.5"/>
<text text-anchor="middle" x="308.62" y="-265.2" font-family="Helvetica,sans-Serif" font-size="14.00">BinMailhog\setEnable</text>
</a>
</g>
</g>
<!-- Node1&#45;&gt;Node6 -->
<g id="edge5_Node000001_Node000006" class="edge">
<title>Node1&#45;&gt;Node6</title>
<g id="a_edge5_Node000001_Node000006"><a xlink:title=" ">
<path fill="none" stroke="#63b8ff" d="M460.63,-222.78C442.65,-231.27 420.24,-241.14 399.5,-248.25 389.47,-251.69 378.64,-254.81 368.08,-257.56"/>
<polygon fill="#63b8ff" stroke="#63b8ff" points="462.05,-225.97 469.55,-218.49 459.02,-219.66 462.05,-225.97"/>
</a>
</g>
</g>
<!-- Node7 -->
<g id="Node000007" class="node">
<title>Node7</title>
<g id="a_Node000007"><a xlink:href="../../d9/ddd/classBinMailpit.html#a32db6d32a46a58829c4535ad33e2202f" target="_top" xlink:title=" ">
<polygon fill="white" stroke="#666666" points="380.38,-239.5 236.88,-239.5 236.88,-215 380.38,-215 380.38,-239.5"/>
<text text-anchor="middle" x="308.62" y="-222.2" font-family="Helvetica,sans-Serif" font-size="14.00">BinMailpit\setEnable</text>
</a>
</g>
</g>
<!-- Node1&#45;&gt;Node7 -->
<g id="edge6_Node000001_Node000007" class="edge">
<title>Node1&#45;&gt;Node7</title>
<g id="a_edge6_Node000001_Node000007"><a xlink:title=" ">
<path fill="none" stroke="#63b8ff" d="M423.85,-213.75C409.65,-215.43 394.76,-217.19 380.59,-218.86"/>
<polygon fill="#63b8ff" stroke="#63b8ff" points="424.04,-217.25 433.56,-212.6 423.22,-210.3 424.04,-217.25"/>
</a>
</g>
</g>
<!-- Node8 -->
<g id="Node000008" class="node">
<title>Node8</title>
<g id="a_Node000008"><a xlink:href="../../d4/d8f/classBinMariadb.html#a976769ec002d6256882fc608f2a971c1" target="_top" xlink:title=" ">
<polygon fill="white" stroke="#666666" points="385.62,-196.5 231.62,-196.5 231.62,-172 385.62,-172 385.62,-196.5"/>
<text text-anchor="middle" x="308.62" y="-179.2" font-family="Helvetica,sans-Serif" font-size="14.00">BinMariadb\setEnable</text>
</a>
</g>
</g>
<!-- Node1&#45;&gt;Node8 -->
<g id="edge7_Node000001_Node000008" class="edge">
<title>Node1&#45;&gt;Node8</title>
<g id="a_edge7_Node000001_Node000008"><a xlink:title=" ">
<path fill="none" stroke="#63b8ff" d="M423.82,-197.13C411.38,-195.73 398.42,-194.27 385.87,-192.85"/>
<polygon fill="#63b8ff" stroke="#63b8ff" points="423.23,-200.59 433.56,-198.23 424.01,-193.63 423.23,-200.59"/>
</a>
</g>
</g>
<!-- Node9 -->
<g id="Node000009" class="node">
<title>Node9</title>
<g id="a_Node000009"><a xlink:href="../../da/d10/classBinMemcached.html#a6e34e322bae67fd3cb41528c12e62a4c" target="_top" xlink:title=" ">
<polygon fill="white" stroke="#666666" points="399.5,-153.5 217.75,-153.5 217.75,-129 399.5,-129 399.5,-153.5"/>
<text text-anchor="middle" x="308.62" y="-136.2" font-family="Helvetica,sans-Serif" font-size="14.00">BinMemcached\setEnable</text>
</a>
</g>
</g>
<!-- Node1&#45;&gt;Node9 -->
<g id="edge8_Node000001_Node000009" class="edge">
<title>Node1&#45;&gt;Node9</title>
<g id="a_edge8_Node000001_Node000009"><a xlink:title=" ">
<path fill="none" stroke="#63b8ff" d="M459.83,-187.83C441.98,-179.62 419.91,-170.14 399.5,-163.25 389.3,-159.81 378.29,-156.66 367.58,-153.89"/>
<polygon fill="#63b8ff" stroke="#63b8ff" points="458.17,-190.91 468.71,-191.97 461.13,-184.57 458.17,-190.91"/>
</a>
</g>
</g>
<!-- Node10 -->
<g id="Node000010" class="node">
<title>Node10</title>
<g id="a_Node000010"><a xlink:href="../../d6/d88/classBinMysql.html#ae2f67df247c503657a59721431e74e5d" target="_top" xlink:title=" ">
<polygon fill="white" stroke="#666666" points="378.88,-110.5 238.38,-110.5 238.38,-86 378.88,-86 378.88,-110.5"/>
<text text-anchor="middle" x="308.62" y="-93.2" font-family="Helvetica,sans-Serif" font-size="14.00">BinMysql\setEnable</text>
</a>
</g>
</g>
<!-- Node1&#45;&gt;Node10 -->
<g id="edge9_Node000001_Node000010" class="edge">
<title>Node1&#45;&gt;Node10</title>
<g id="a_edge9_Node000001_Node000010"><a xlink:title=" ">
<path fill="none" stroke="#63b8ff" d="M477.66,-184.27C459.73,-164.8 430.54,-136.48 399.5,-120.25 392.52,-116.6 384.93,-113.55 377.2,-110.99"/>
<polygon fill="#63b8ff" stroke="#63b8ff" points="474.99,-186.53 484.27,-191.64 480.2,-181.86 474.99,-186.53"/>
</a>
</g>
</g>
<!-- Node11 -->
<g id="Node000011" class="node">
<title>Node11</title>
<g id="a_Node000011"><a xlink:href="../../dc/db9/classBinPostgresql.html#a1dfaa8c453e59e1a9849bfd7b5a27bbb" target="_top" xlink:title=" ">
<polygon fill="white" stroke="#666666" points="395,-67.5 222.25,-67.5 222.25,-43 395,-43 395,-67.5"/>
<text text-anchor="middle" x="308.62" y="-50.2" font-family="Helvetica,sans-Serif" font-size="14.00">BinPostgresql\setEnable</text>
</a>
</g>
</g>
<!-- Node1&#45;&gt;Node11 -->
<g id="edge10_Node000001_Node000011" class="edge">
<title>Node1&#45;&gt;Node11</title>
<g id="a_edge10_Node000001_Node000011"><a xlink:title=" ">
<path fill="none" stroke="#63b8ff" d="M485.06,-182.8C470.07,-153.84 440.04,-103.99 399.5,-77.25 393.87,-73.54 387.66,-70.45 381.23,-67.88"/>
<polygon fill="#63b8ff" stroke="#63b8ff" points="481.77,-184.06 489.38,-191.44 488.03,-180.93 481.77,-184.06"/>
</a>
</g>
</g>
<!-- Node12 -->
<g id="Node000012" class="node">
<title>Node12</title>
<g id="a_Node000012"><a xlink:href="../../d8/ddb/classBinXlight.html#af8a4eaf341f9faaf452ef20759623a1a" target="_top" xlink:title=" ">
<polygon fill="white" stroke="#666666" points="378.12,-24.5 239.12,-24.5 239.12,0 378.12,0 378.12,-24.5"/>
<text text-anchor="middle" x="308.62" y="-7.2" font-family="Helvetica,sans-Serif" font-size="14.00">BinXlight\setEnable</text>
</a>
</g>
</g>
<!-- Node1&#45;&gt;Node12 -->
<g id="edge11_Node000001_Node000012" class="edge">
<title>Node1&#45;&gt;Node12</title>
<g id="a_edge11_Node000001_Node000012"><a xlink:title=" ">
<path fill="none" stroke="#63b8ff" d="M489.23,-181.87C477.61,-144.67 449.7,-72.34 399.5,-34.25 393.23,-29.49 386.07,-25.75 378.58,-22.81"/>
<polygon fill="#63b8ff" stroke="#63b8ff" points="485.79,-182.59 492,-191.17 492.5,-180.59 485.79,-182.59"/>
</a>
</g>
</g>
<!-- Node3 -->
<g id="Node000003" class="node">
<title>Node3</title>
<g id="a_Node000003"><a xlink:href="../../d7/d0e/classActionService.html#a4440ed18ce314e66ba30932864b5584b" target="_top" xlink:title=" ">
<polygon fill="white" stroke="#666666" points="181.75,-411.5 0,-411.5 0,-387 181.75,-387 181.75,-411.5"/>
<text text-anchor="middle" x="90.88" y="-394.2" font-family="Helvetica,sans-Serif" font-size="14.00">ActionService\__construct</text>
</a>
</g>
</g>
<!-- Node2&#45;&gt;Node3 -->
<g id="edge2_Node000002_Node000003" class="edge">
<title>Node2&#45;&gt;Node3</title>
<g id="a_edge2_Node000002_Node000003"><a xlink:title=" ">
<path fill="none" stroke="#63b8ff" d="M225.68,-399.25C211.39,-399.25 196.46,-399.25 181.96,-399.25"/>
<polygon fill="#63b8ff" stroke="#63b8ff" points="225.47,-402.75 235.47,-399.25 225.47,-395.75 225.47,-402.75"/>
</a>
</g>
</g>
</g>
</svg>
