<?xml version="1.0" encoding="UTF-8" standalone="no"?>
<!--
  - Copyright (c) 2021-2024 Bearsampp
  - License:  GNU General Public License version 3 or later; see LICENSE.txt
  - Author: Bear
  - Website: https://bearsampp.com
  - Github: https://github.com/Bearsampp
  -->

<!DOCTYPE svg PUBLIC "-//W3C//DTD SVG 1.1//EN"
 "http://www.w3.org/Graphics/SVG/1.1/DTD/svg11.dtd">
<!-- Generated by graphviz version 11.0.0 (20240428.1522)
 -->
<!-- Title: Util\checkInternetState Pages: 1 -->
<svg width="608pt" height="76pt"
 viewBox="0.00 0.00 608.00 75.50" xmlns="http://www.w3.org/2000/svg" xmlns:xlink="http://www.w3.org/1999/xlink">
<g id="graph0" class="graph" transform="scale(1 1) rotate(0) translate(4 71.5)">
<title>Util\checkInternetState</title>
<!-- Node1 -->
<g id="Node000001" class="node">
<title>Node1</title>
<g id="a_Node000001"><a xlink:title=" ">
<polygon fill="#999999" stroke="#666666" points="600,-45.5 442.25,-45.5 442.25,-21 600,-21 600,-45.5"/>
<text text-anchor="middle" x="521.12" y="-28.2" font-family="Helvetica,sans-Serif" font-size="14.00">Util\checkInternetState</text>
</a>
</g>
</g>
<!-- Node2 -->
<g id="Node000002" class="node">
<title>Node2</title>
<g id="a_Node000002"><a xlink:href="../../d7/dcf/classQuickPick.html#a1ce22bffccae06cf6e817842c9dc829f" target="_top" xlink:title=" ">
<polygon fill="white" stroke="#666666" points="406.25,-67.5 207.25,-67.5 207.25,-43 406.25,-43 406.25,-67.5"/>
<text text-anchor="middle" x="306.75" y="-50.2" font-family="Helvetica,sans-Serif" font-size="14.00">QuickPick\getQuickpickMenu</text>
</a>
</g>
</g>
<!-- Node1&#45;&gt;Node2 -->
<g id="edge1_Node000001_Node000002" class="edge">
<title>Node1&#45;&gt;Node2</title>
<g id="a_edge1_Node000001_Node000002"><a xlink:title=" ">
<path fill="none" stroke="#63b8ff" d="M430.53,-42.53C422.65,-43.35 414.66,-44.18 406.71,-45"/>
<polygon fill="#63b8ff" stroke="#63b8ff" points="430.86,-46.02 440.44,-41.5 430.14,-39.05 430.86,-46.02"/>
</a>
</g>
</g>
<!-- Node4 -->
<g id="Node000004" class="node">
<title>Node4</title>
<g id="a_Node000004"><a xlink:href="../../d7/dcf/classQuickPick.html#aaefd30a9def8c06626fa59f72a87ae51" target="_top" xlink:title=" ">
<polygon fill="white" stroke="#666666" points="389,-24.5 224.5,-24.5 224.5,0 389,0 389,-24.5"/>
<text text-anchor="middle" x="306.75" y="-7.2" font-family="Helvetica,sans-Serif" font-size="14.00">QuickPick\installModule</text>
</a>
</g>
</g>
<!-- Node1&#45;&gt;Node4 -->
<g id="edge3_Node000001_Node000004" class="edge">
<title>Node1&#45;&gt;Node4</title>
<g id="a_edge3_Node000001_Node000004"><a xlink:title=" ">
<path fill="none" stroke="#63b8ff" d="M430.56,-24.39C416.88,-23.04 402.82,-21.65 389.32,-20.32"/>
<polygon fill="#63b8ff" stroke="#63b8ff" points="430.15,-27.87 440.44,-25.37 430.84,-20.9 430.15,-27.87"/>
</a>
</g>
</g>
<!-- Node3 -->
<g id="Node000003" class="node">
<title>Node3</title>
<g id="a_Node000003"><a xlink:href="../../d7/dcf/classQuickPick.html#ad084d8cf90355606b57515aee3b1a8ec" target="_top" xlink:title=" ">
<polygon fill="white" stroke="#666666" points="171.25,-67.5 0,-67.5 0,-43 171.25,-43 171.25,-67.5"/>
<text text-anchor="middle" x="85.62" y="-50.2" font-family="Helvetica,sans-Serif" font-size="14.00">QuickPick\loadQuickpick</text>
</a>
</g>
</g>
<!-- Node2&#45;&gt;Node3 -->
<g id="edge2_Node000002_Node000003" class="edge">
<title>Node2&#45;&gt;Node3</title>
<g id="a_edge2_Node000002_Node000003"><a xlink:title=" ">
<path fill="none" stroke="#63b8ff" d="M195.4,-55.25C187.35,-55.25 179.3,-55.25 171.44,-55.25"/>
<polygon fill="#63b8ff" stroke="#63b8ff" points="195.25,-58.75 205.25,-55.25 195.25,-51.75 195.25,-58.75"/>
</a>
</g>
</g>
</g>
</svg>
