<?xml version="1.0" encoding="UTF-8" standalone="no"?>
<!--
  - Copyright (c) 2021-2024 Bearsampp
  - License:  GNU General Public License version 3 or later; see LICENSE.txt
  - Author: Bear
  - Website: https://bearsampp.com
  - Github: https://github.com/Bearsampp
  -->

<!DOCTYPE svg PUBLIC "-//W3C//DTD SVG 1.1//EN"
 "http://www.w3.org/Graphics/SVG/1.1/DTD/svg11.dtd">
<!-- Generated by graphviz version 11.0.0 (20240428.1522)
 -->
<!-- Title: BinPostgresql\getConf Pages: 1 -->
<svg width="631pt" height="33pt"
 viewBox="0.00 0.00 631.25 32.50" xmlns="http://www.w3.org/2000/svg" xmlns:xlink="http://www.w3.org/1999/xlink">
<g id="graph0" class="graph" transform="scale(1 1) rotate(0) translate(4 28.5)">
<title>BinPostgresql\getConf</title>
<!-- Node1 -->
<g id="Node000001" class="node">
<title>Node1</title>
<g id="a_Node000001"><a xlink:title=" ">
<polygon fill="#999999" stroke="#666666" points="623.25,-24.5 463.25,-24.5 463.25,0 623.25,0 623.25,-24.5"/>
<text text-anchor="middle" x="543.25" y="-7.2" font-family="Helvetica,sans-Serif" font-size="14.00">BinPostgresql\getConf</text>
</a>
</g>
</g>
<!-- Node2 -->
<g id="Node000002" class="node">
<title>Node2</title>
<g id="a_Node000002"><a xlink:href="../../dc/db9/classBinPostgresql.html#ab9521e473ea9de96409472e01cd215a6" target="_top" xlink:title=" ">
<polygon fill="white" stroke="#666666" points="427.25,-24.5 232.75,-24.5 232.75,0 427.25,0 427.25,-24.5"/>
<text text-anchor="middle" x="330" y="-7.2" font-family="Helvetica,sans-Serif" font-size="14.00">BinPostgresql\updateConfig</text>
</a>
</g>
</g>
<!-- Node1&#45;&gt;Node2 -->
<g id="edge1_Node000001_Node000002" class="edge">
<title>Node1&#45;&gt;Node2</title>
<g id="a_edge1_Node000001_Node000002"><a xlink:title=" ">
<path fill="none" stroke="#63b8ff" d="M451.73,-12.25C443.7,-12.25 435.55,-12.25 427.47,-12.25"/>
<polygon fill="#63b8ff" stroke="#63b8ff" points="451.47,-15.75 461.47,-12.25 451.47,-8.75 451.47,-15.75"/>
</a>
</g>
</g>
<!-- Node3 -->
<g id="Node000003" class="node">
<title>Node3</title>
<g id="a_Node000003"><a xlink:href="../../dc/db9/classBinPostgresql.html#a79ac81202051d309f1cfa47f0545d2b2" target="_top" xlink:title=" ">
<polygon fill="white" stroke="#666666" points="196.75,-24.5 0,-24.5 0,0 196.75,0 196.75,-24.5"/>
<text text-anchor="middle" x="98.38" y="-7.2" font-family="Helvetica,sans-Serif" font-size="14.00">BinPostgresql\switchVersion</text>
</a>
</g>
</g>
<!-- Node2&#45;&gt;Node3 -->
<g id="edge2_Node000002_Node000003" class="edge">
<title>Node2&#45;&gt;Node3</title>
<g id="a_edge2_Node000002_Node000003"><a xlink:title=" ">
<path fill="none" stroke="#63b8ff" d="M221.03,-12.25C213.04,-12.25 205.01,-12.25 197.08,-12.25"/>
<polygon fill="#63b8ff" stroke="#63b8ff" points="220.77,-15.75 230.77,-12.25 220.77,-8.75 220.77,-15.75"/>
</a>
</g>
</g>
</g>
</svg>
