<?xml version="1.0" encoding="UTF-8" standalone="no"?>
<!--
  - Copyright (c) 2021-2024 Bearsampp
  - License:  GNU General Public License version 3 or later; see LICENSE.txt
  - Author: Bear
  - Website: https://bearsampp.com
  - Github: https://github.com/Bearsampp
  -->

<!DOCTYPE svg PUBLIC "-//W3C//DTD SVG 1.1//EN"
 "http://www.w3.org/Graphics/SVG/1.1/DTD/svg11.dtd">
<!-- Generated by graphviz version 11.0.0 (20240428.1522)
 -->
<!-- Title: BinPostgresql\reload Pages: 1 -->
<svg width="839pt" height="119pt"
 viewBox="0.00 0.00 839.25 118.50" xmlns="http://www.w3.org/2000/svg" xmlns:xlink="http://www.w3.org/1999/xlink">
<g id="graph0" class="graph" transform="scale(1 1) rotate(0) translate(4 114.5)">
<title>BinPostgresql\reload</title>
<!-- Node1 -->
<g id="Node000001" class="node">
<title>Node1</title>
<g id="a_Node000001"><a xlink:title=" ">
<polygon fill="#999999" stroke="#666666" points="831.25,-67.5 682.5,-67.5 682.5,-43 831.25,-43 831.25,-67.5"/>
<text text-anchor="middle" x="756.88" y="-50.2" font-family="Helvetica,sans-Serif" font-size="14.00">BinPostgresql\reload</text>
</a>
</g>
</g>
<!-- Node2 -->
<g id="Node000002" class="node">
<title>Node2</title>
<g id="a_Node000002"><a xlink:href="../../dc/db9/classBinPostgresql.html#a620692613a6f9a4fe40eee7340eec915" target="_top" xlink:title=" ">
<polygon fill="white" stroke="#666666" points="646.5,-110.5 463.25,-110.5 463.25,-86 646.5,-86 646.5,-110.5"/>
<text text-anchor="middle" x="554.88" y="-93.2" font-family="Helvetica,sans-Serif" font-size="14.00">BinPostgresql\__construct</text>
</a>
</g>
</g>
<!-- Node1&#45;&gt;Node2 -->
<g id="edge1_Node000001_Node000002" class="edge">
<title>Node1&#45;&gt;Node2</title>
<g id="a_edge1_Node000001_Node000002"><a xlink:title=" ">
<path fill="none" stroke="#63b8ff" d="M685.56,-70.37C662.48,-75.33 637.08,-80.79 614.92,-85.56"/>
<polygon fill="#63b8ff" stroke="#63b8ff" points="686.16,-73.82 695.2,-68.3 684.69,-66.98 686.16,-73.82"/>
</a>
</g>
</g>
<!-- Node3 -->
<g id="Node000003" class="node">
<title>Node3</title>
<g id="a_Node000003"><a xlink:href="../../dc/db9/classBinPostgresql.html#a1dfaa8c453e59e1a9849bfd7b5a27bbb" target="_top" xlink:title=" ">
<polygon fill="white" stroke="#666666" points="641.25,-67.5 468.5,-67.5 468.5,-43 641.25,-43 641.25,-67.5"/>
<text text-anchor="middle" x="554.88" y="-50.2" font-family="Helvetica,sans-Serif" font-size="14.00">BinPostgresql\setEnable</text>
</a>
</g>
</g>
<!-- Node1&#45;&gt;Node3 -->
<g id="edge2_Node000001_Node000003" class="edge">
<title>Node1&#45;&gt;Node3</title>
<g id="a_edge2_Node000001_Node000003"><a xlink:title=" ">
<path fill="none" stroke="#63b8ff" d="M670.94,-55.25C661.2,-55.25 651.27,-55.25 641.52,-55.25"/>
<polygon fill="#63b8ff" stroke="#63b8ff" points="670.74,-58.75 680.74,-55.25 670.74,-51.75 670.74,-58.75"/>
</a>
</g>
</g>
<!-- Node4 -->
<g id="Node000004" class="node">
<title>Node4</title>
<g id="a_Node000004"><a xlink:href="../../dc/db9/classBinPostgresql.html#aa42c69532f092e14c0e1905570c5e1e8" target="_top" xlink:title=" ">
<polygon fill="white" stroke="#666666" points="643.5,-24.5 466.25,-24.5 466.25,0 643.5,0 643.5,-24.5"/>
<text text-anchor="middle" x="554.88" y="-7.2" font-family="Helvetica,sans-Serif" font-size="14.00">BinPostgresql\setVersion</text>
</a>
</g>
</g>
<!-- Node1&#45;&gt;Node4 -->
<g id="edge3_Node000001_Node000004" class="edge">
<title>Node1&#45;&gt;Node4</title>
<g id="a_edge3_Node000001_Node000004"><a xlink:title=" ">
<path fill="none" stroke="#63b8ff" d="M685.56,-40.13C662.48,-35.17 637.08,-29.71 614.92,-24.94"/>
<polygon fill="#63b8ff" stroke="#63b8ff" points="684.69,-43.52 695.2,-42.2 686.16,-36.68 684.69,-43.52"/>
</a>
</g>
</g>
<!-- Node5 -->
<g id="Node000005" class="node">
<title>Node5</title>
<g id="a_Node000005"><a xlink:href="../../dc/db9/classBinPostgresql.html#ab9521e473ea9de96409472e01cd215a6" target="_top" xlink:title=" ">
<polygon fill="white" stroke="#666666" points="427.25,-24.5 232.75,-24.5 232.75,0 427.25,0 427.25,-24.5"/>
<text text-anchor="middle" x="330" y="-7.2" font-family="Helvetica,sans-Serif" font-size="14.00">BinPostgresql\updateConfig</text>
</a>
</g>
</g>
<!-- Node4&#45;&gt;Node5 -->
<g id="edge4_Node000004_Node000005" class="edge">
<title>Node4&#45;&gt;Node5</title>
<g id="a_edge4_Node000004_Node000005"><a xlink:title=" ">
<path fill="none" stroke="#63b8ff" d="M454.54,-12.25C445.59,-12.25 436.55,-12.25 427.63,-12.25"/>
<polygon fill="#63b8ff" stroke="#63b8ff" points="454.28,-15.75 464.28,-12.25 454.28,-8.75 454.28,-15.75"/>
</a>
</g>
</g>
<!-- Node6 -->
<g id="Node000006" class="node">
<title>Node6</title>
<g id="a_Node000006"><a xlink:href="../../dc/db9/classBinPostgresql.html#a79ac81202051d309f1cfa47f0545d2b2" target="_top" xlink:title=" ">
<polygon fill="white" stroke="#666666" points="196.75,-24.5 0,-24.5 0,0 196.75,0 196.75,-24.5"/>
<text text-anchor="middle" x="98.38" y="-7.2" font-family="Helvetica,sans-Serif" font-size="14.00">BinPostgresql\switchVersion</text>
</a>
</g>
</g>
<!-- Node5&#45;&gt;Node6 -->
<g id="edge5_Node000005_Node000006" class="edge">
<title>Node5&#45;&gt;Node6</title>
<g id="a_edge5_Node000005_Node000006"><a xlink:title=" ">
<path fill="none" stroke="#63b8ff" d="M221.03,-12.25C213.04,-12.25 205.01,-12.25 197.08,-12.25"/>
<polygon fill="#63b8ff" stroke="#63b8ff" points="220.77,-15.75 230.77,-12.25 220.77,-8.75 220.77,-15.75"/>
</a>
</g>
</g>
</g>
</svg>
