<?xml version="1.0" encoding="UTF-8" standalone="no"?>
<!--
  - Copyright (c) 2021-2024 Bearsampp
  - License:  GNU General Public License version 3 or later; see LICENSE.txt
  - Author: Bear
  - Website: https://bearsampp.com
  - Github: https://github.com/Bearsampp
  -->

<!DOCTYPE svg PUBLIC "-//W3C//DTD SVG 1.1//EN"
 "http://www.w3.org/Graphics/SVG/1.1/DTD/svg11.dtd">
<!-- Generated by graphviz version 11.0.0 (20240428.1522)
 -->
<!-- Title: Batch\removeSymlink Pages: 1 -->
<svg width="639pt" height="76pt"
 viewBox="0.00 0.00 638.75 75.50" xmlns="http://www.w3.org/2000/svg" xmlns:xlink="http://www.w3.org/1999/xlink">
<g id="graph0" class="graph" transform="scale(1 1) rotate(0) translate(4 71.5)">
<title>Batch\removeSymlink</title>
<!-- Node1 -->
<g id="Node000001" class="node">
<title>Node1</title>
<g id="a_Node000001"><a xlink:title=" ">
<polygon fill="#999999" stroke="#666666" points="630.75,-45.5 478.25,-45.5 478.25,-21 630.75,-21 630.75,-45.5"/>
<text text-anchor="middle" x="554.5" y="-28.2" font-family="Helvetica,sans-Serif" font-size="14.00">Batch\removeSymlink</text>
</a>
</g>
</g>
<!-- Node2 -->
<g id="Node000002" class="node">
<title>Node2</title>
<g id="a_Node000002"><a xlink:href="../../d3/d9c/classModule.html#a070d1df222b1eb7876da52944d74cfea" target="_top" xlink:title=" ">
<polygon fill="white" stroke="#666666" points="410.38,-67.5 255.62,-67.5 255.62,-43 410.38,-43 410.38,-67.5"/>
<text text-anchor="middle" x="333" y="-50.2" font-family="Helvetica,sans-Serif" font-size="14.00">Module\createSymlink</text>
</a>
</g>
</g>
<!-- Node1&#45;&gt;Node2 -->
<g id="edge1_Node000001_Node000002" class="edge">
<title>Node1&#45;&gt;Node2</title>
<g id="a_edge1_Node000001_Node000002"><a xlink:title=" ">
<path fill="none" stroke="#63b8ff" d="M466.61,-41.96C448.17,-43.81 428.83,-45.75 410.8,-47.55"/>
<polygon fill="#63b8ff" stroke="#63b8ff" points="466.85,-45.45 476.45,-40.97 466.16,-38.49 466.85,-45.45"/>
</a>
</g>
</g>
<!-- Node4 -->
<g id="Node000004" class="node">
<title>Node4</title>
<g id="a_Node000004"><a xlink:href="../../de/db3/classSymlinks.html#a413d85d62113556873ce86c67808782d" target="_top" xlink:title=" ">
<polygon fill="white" stroke="#666666" points="442.25,-24.5 223.75,-24.5 223.75,0 442.25,0 442.25,-24.5"/>
<text text-anchor="middle" x="333" y="-7.2" font-family="Helvetica,sans-Serif" font-size="14.00">Symlinks\deleteCurrentSymlinks</text>
</a>
</g>
</g>
<!-- Node1&#45;&gt;Node4 -->
<g id="edge3_Node000001_Node000004" class="edge">
<title>Node1&#45;&gt;Node4</title>
<g id="a_edge3_Node000001_Node000004"><a xlink:title=" ">
<path fill="none" stroke="#63b8ff" d="M466.57,-24.93C458.71,-24.18 450.68,-23.41 442.65,-22.65"/>
<polygon fill="#63b8ff" stroke="#63b8ff" points="466.17,-28.41 476.45,-25.88 466.83,-21.44 466.17,-28.41"/>
</a>
</g>
</g>
<!-- Node3 -->
<g id="Node000003" class="node">
<title>Node3</title>
<g id="a_Node000003"><a xlink:href="../../d3/d9c/classModule.html#a3697b7a9b8437458ecbdf3de9e345d01" target="_top" xlink:title=" ">
<polygon fill="white" stroke="#666666" points="146.88,-67.5 40.88,-67.5 40.88,-43 146.88,-43 146.88,-67.5"/>
<text text-anchor="middle" x="93.88" y="-50.2" font-family="Helvetica,sans-Serif" font-size="14.00">Module\reload</text>
</a>
</g>
</g>
<!-- Node2&#45;&gt;Node3 -->
<g id="edge2_Node000002_Node000003" class="edge">
<title>Node2&#45;&gt;Node3</title>
<g id="a_edge2_Node000002_Node000003"><a xlink:title=" ">
<path fill="none" stroke="#63b8ff" d="M243.99,-55.25C211.48,-55.25 175.67,-55.25 147.29,-55.25"/>
<polygon fill="#63b8ff" stroke="#63b8ff" points="243.83,-58.75 253.83,-55.25 243.83,-51.75 243.83,-58.75"/>
</a>
</g>
</g>
<!-- Node5 -->
<g id="Node000005" class="node">
<title>Node5</title>
<g id="a_Node000005"><a xlink:href="../../de/d86/classActionQuit.html#a2331cc6725be5a9283c65d462bfb5f5b" target="_top" xlink:title=" ">
<polygon fill="white" stroke="#666666" points="187.75,-24.5 0,-24.5 0,0 187.75,0 187.75,-24.5"/>
<text text-anchor="middle" x="93.88" y="-7.2" font-family="Helvetica,sans-Serif" font-size="14.00">ActionQuit\processWindow</text>
</a>
</g>
</g>
<!-- Node4&#45;&gt;Node5 -->
<g id="edge4_Node000004_Node000005" class="edge">
<title>Node4&#45;&gt;Node5</title>
<g id="a_edge4_Node000004_Node000005"><a xlink:title=" ">
<path fill="none" stroke="#63b8ff" d="M212.11,-12.25C204.04,-12.25 195.98,-12.25 188.08,-12.25"/>
<polygon fill="#63b8ff" stroke="#63b8ff" points="211.99,-15.75 221.99,-12.25 211.99,-8.75 211.99,-15.75"/>
</a>
</g>
</g>
</g>
</svg>
