<?xml version="1.0" encoding="UTF-8" standalone="no"?>
<!--
  - Copyright (c) 2021-2024 Bearsampp
  - License:  GNU General Public License version 3 or later; see LICENSE.txt
  - Author: Bear
  - Website: https://bearsampp.com
  - Github: https://github.com/Bearsampp
  -->

<!DOCTYPE svg PUBLIC "-//W3C//DTD SVG 1.1//EN"
 "http://www.w3.org/Graphics/SVG/1.1/DTD/svg11.dtd">
<!-- Generated by graphviz version 11.0.0 (20240428.1522)
 -->
<!-- Title: Batch\setServiceDisplayName Pages: 1 -->
<svg width="821pt" height="33pt"
 viewBox="0.00 0.00 821.25 32.50" xmlns="http://www.w3.org/2000/svg" xmlns:xlink="http://www.w3.org/1999/xlink">
<g id="graph0" class="graph" transform="scale(1 1) rotate(0) translate(4 28.5)">
<title>Batch\setServiceDisplayName</title>
<!-- Node1 -->
<g id="Node000001" class="node">
<title>Node1</title>
<g id="a_Node000001"><a xlink:title=" ">
<polygon fill="#999999" stroke="#666666" points="813.25,-24.5 606,-24.5 606,0 813.25,0 813.25,-24.5"/>
<text text-anchor="middle" x="709.62" y="-7.2" font-family="Helvetica,sans-Serif" font-size="14.00">Batch\setServiceDisplayName</text>
</a>
</g>
</g>
<!-- Node2 -->
<g id="Node000002" class="node">
<title>Node2</title>
<g id="a_Node000002"><a xlink:href="../../da/dbb/classBatch.html#a6358c757bde643086342079312202c8d" target="_top" xlink:title=" ">
<polygon fill="white" stroke="#666666" points="570,-24.5 362,-24.5 362,0 570,0 570,-24.5"/>
<text text-anchor="middle" x="466" y="-7.2" font-family="Helvetica,sans-Serif" font-size="14.00">Batch\installPostgresqlService</text>
</a>
</g>
</g>
<!-- Node1&#45;&gt;Node2 -->
<g id="edge1_Node000001_Node000002" class="edge">
<title>Node1&#45;&gt;Node2</title>
<g id="a_edge1_Node000001_Node000002"><a xlink:title=" ">
<path fill="none" stroke="#63b8ff" d="M594.52,-12.25C586.5,-12.25 578.45,-12.25 570.5,-12.25"/>
<polygon fill="#63b8ff" stroke="#63b8ff" points="594.29,-15.75 604.29,-12.25 594.29,-8.75 594.29,-15.75"/>
</a>
</g>
</g>
<!-- Node3 -->
<g id="Node000003" class="node">
<title>Node3</title>
<g id="a_Node000003"><a xlink:href="../../df/d28/classWin32Service.html#a0d671863c8ed9869297400110daef2c1" target="_top" xlink:title=" ">
<polygon fill="white" stroke="#666666" points="326,-24.5 177.25,-24.5 177.25,0 326,0 326,-24.5"/>
<text text-anchor="middle" x="251.62" y="-7.2" font-family="Helvetica,sans-Serif" font-size="14.00">Win32Service\create</text>
</a>
</g>
</g>
<!-- Node2&#45;&gt;Node3 -->
<g id="edge2_Node000002_Node000003" class="edge">
<title>Node2&#45;&gt;Node3</title>
<g id="a_edge2_Node000002_Node000003"><a xlink:title=" ">
<path fill="none" stroke="#63b8ff" d="M350.16,-12.25C342.08,-12.25 334.07,-12.25 326.31,-12.25"/>
<polygon fill="#63b8ff" stroke="#63b8ff" points="350.1,-15.75 360.1,-12.25 350.1,-8.75 350.1,-15.75"/>
</a>
</g>
</g>
<!-- Node4 -->
<g id="Node000004" class="node">
<title>Node4</title>
<g id="a_Node000004"><a xlink:href="../../df/d28/classWin32Service.html#ab2bdb25f7405e3bb9e5230fca1980747" target="_top" xlink:title=" ">
<polygon fill="white" stroke="#666666" points="141.25,-24.5 0,-24.5 0,0 141.25,0 141.25,-24.5"/>
<text text-anchor="middle" x="70.62" y="-7.2" font-family="Helvetica,sans-Serif" font-size="14.00">Win32Service\reset</text>
</a>
</g>
</g>
<!-- Node3&#45;&gt;Node4 -->
<g id="edge3_Node000003_Node000004" class="edge">
<title>Node3&#45;&gt;Node4</title>
<g id="a_edge3_Node000003_Node000004"><a xlink:title=" ">
<path fill="none" stroke="#63b8ff" d="M165.5,-12.25C157.48,-12.25 149.41,-12.25 141.55,-12.25"/>
<polygon fill="#63b8ff" stroke="#63b8ff" points="165.27,-15.75 175.27,-12.25 165.27,-8.75 165.27,-15.75"/>
</a>
</g>
</g>
</g>
</svg>
