<?xml version="1.0" encoding="UTF-8" standalone="no"?>
<!--
  - Copyright (c) 2021-2024 Bearsampp
  - License:  GNU General Public License version 3 or later; see LICENSE.txt
  - Author: Bear
  - Website: https://bearsampp.com
  - Github: https://github.com/Bearsampp
  -->

<!DOCTYPE svg PUBLIC "-//W3C//DTD SVG 1.1//EN"
 "http://www.w3.org/Graphics/SVG/1.1/DTD/svg11.dtd">
<!-- Generated by graphviz version 11.0.0 (20240428.1522)
 -->
<!-- Title: Batch\getProcessUsingPort Pages: 1 -->
<!--zoomable 635 -->

<svg id="main" version="1.1" xmlns="http://www.w3.org/2000/svg" xmlns:xlink="http://www.w3.org/1999/xlink" xml:space="preserve" onload="init(evt)">
<style type="text/css"><![CDATA[
.node, .edge {opacity: 0.7;}
.node.selected, .edge.selected {opacity: 1;}
.edge:hover path { stroke: red; }
.edge:hover polygon { stroke: red; fill: red; }
]]></style>

<defs>
  <circle id="rim" cx="0" cy="0" r="7"/>
  <circle id="rim2" cx="0" cy="0" r="3.5"/>
  <g id="zoomPlus">
    <use xlink:href="#rim" fill="#404040"><set attributeName="fill" to="#808080" begin="zoomplus.mouseover" end="zoomplus.mouseout"/></use>
    <path d="M-4,0h8M0,-4v8" fill="none" stroke="white" stroke-width="1.5" pointer-events="none"/>
  </g>
  <g id="zoomMin">
    <use xlink:href="#rim" fill="#404040"><set attributeName="fill" to="#808080" begin="zoomminus.mouseover" end="zoomminus.mouseout"/></use>
    <path d="M-4,0h8" fill="none" stroke="white" stroke-width="1.5" pointer-events="none"/>
  </g>
  <g id="arrowUp" transform="translate(30 24)">
    <use xlink:href="#rim"/>
    <path pointer-events="none" fill="none" stroke="white" stroke-width="1.5" d="M0,-3.0v7 M-2.5,-0.5L0,-3.0L2.5,-0.5"/>
  </g>
  <g id="arrowRight" transform="rotate(90) translate(36 -43)">
    <use xlink:href="#rim"/>
    <path pointer-events="none" fill="none" stroke="white" stroke-width="1.5" d="M0,-3.0v7 M-2.5,-0.5L0,-3.0L2.5,-0.5"/>
  </g>
  <g id="arrowDown" transform="rotate(180) translate(-30 -48)">
    <use xlink:href="#rim"/>
    <path pointer-events="none" fill="none" stroke="white" stroke-width="1.5" d="M0,-3.0v7 M-2.5,-0.5L0,-3.0L2.5,-0.5"/>
  </g>
  <g id="arrowLeft" transform="rotate(270) translate(-36 17)">
    <use xlink:href="#rim"/>
    <path pointer-events="none" fill="none" stroke="white" stroke-width="1.5" d="M0,-3.0v7 M-2.5,-0.5L0,-3.0L2.5,-0.5"/>
  </g>
  <g id="resetDef">
    <use xlink:href="#rim2" fill="#404040"><set attributeName="fill" to="#808080" begin="reset.mouseover" end="reset.mouseout"/></use>
  </g>
</defs>
<script type="application/ecmascript">
var viewWidth = 1041;
var viewHeight = 635;
var sectionId = 'dynsection-7';
</script>
<script type="application/ecmascript" xlink:href="../../svg.min.js"/>
<svg id="graph" class="graph">
<g id="viewport">
<title>Batch\getProcessUsingPort</title>
<!-- Node1 -->
<g id="Node000001" class="node">
<title>Node1</title>
<g id="a_Node000001"><a xlink:title=" ">
<polygon fill="#999999" stroke="#666666" points="1033.25,-411.5 841.75,-411.5 841.75,-387 1033.25,-387 1033.25,-411.5"/>
<text text-anchor="middle" x="937.5" y="-394.2" font-family="Helvetica,sans-Serif" font-size="14.00">Batch\getProcessUsingPort</text>
</a>
</g>
</g>
<!-- Node2 -->
<g id="Node000002" class="node">
<title>Node2</title>
<g id="a_Node000002"><a xlink:href="../../d6/de4/classUtil.html#ab3b1743b2b25b68d4de4e6c50201ba6a" target="_top" xlink:title=" ">
<polygon fill="white" stroke="#666666" points="805.75,-411.5 692.25,-411.5 692.25,-387 805.75,-387 805.75,-411.5"/>
<text text-anchor="middle" x="749" y="-394.2" font-family="Helvetica,sans-Serif" font-size="14.00">Util\isPortInUse</text>
</a>
</g>
</g>
<!-- Node1&#45;&gt;Node2 -->
<g id="edge1_Node000001_Node000002" class="edge">
<title>Node1&#45;&gt;Node2</title>
<g id="a_edge1_Node000001_Node000002"><a xlink:title=" ">
<path fill="none" stroke="#63b8ff" d="M830.09,-399.25C821.89,-399.25 813.83,-399.25 806.17,-399.25"/>
<polygon fill="#63b8ff" stroke="#63b8ff" points="829.82,-402.75 839.82,-399.25 829.82,-395.75 829.82,-402.75"/>
</a>
</g>
</g>
<!-- Node3 -->
<g id="Node000003" class="node">
<title>Node3</title>
<g id="a_Node000003"><a xlink:href="../../d9/d6c/classBinApache.html#a083bd533269b323aa962c71e3ed67b91" target="_top" xlink:title=" ">
<polygon fill="white" stroke="#666666" points="639.38,-626.5 477.88,-626.5 477.88,-602 639.38,-602 639.38,-626.5"/>
<text text-anchor="middle" x="558.62" y="-609.2" font-family="Helvetica,sans-Serif" font-size="14.00">BinApache\changePort</text>
</a>
</g>
</g>
<!-- Node2&#45;&gt;Node3 -->
<g id="edge2_Node000002_Node000003" class="edge">
<title>Node2&#45;&gt;Node3</title>
<g id="a_edge2_Node000002_Node000003"><a xlink:title=" ">
<path fill="none" stroke="#63b8ff" d="M743.67,-423.04C734.88,-464.19 710.95,-548.43 656.25,-592.25 651.28,-596.23 645.73,-599.52 639.87,-602.23"/>
<polygon fill="#63b8ff" stroke="#63b8ff" points="747.06,-423.95 745.59,-413.46 740.19,-422.57 747.06,-423.95"/>
</a>
</g>
</g>
<!-- Node4 -->
<g id="Node000004" class="node">
<title>Node4</title>
<g id="a_Node000004"><a xlink:href="../../da/d23/classBinFilezilla.html#a0b76d07f5ea8d1e0710869134b39f86e" target="_top" xlink:title=" ">
<polygon fill="white" stroke="#666666" points="638.25,-583.5 479,-583.5 479,-559 638.25,-559 638.25,-583.5"/>
<text text-anchor="middle" x="558.62" y="-566.2" font-family="Helvetica,sans-Serif" font-size="14.00">BinFilezilla\changePort</text>
</a>
</g>
</g>
<!-- Node2&#45;&gt;Node4 -->
<g id="edge3_Node000002_Node000004" class="edge">
<title>Node2&#45;&gt;Node4</title>
<g id="a_edge3_Node000002_Node000004"><a xlink:title=" ">
<path fill="none" stroke="#63b8ff" d="M740.48,-422.2C728.32,-455.59 701.05,-517.07 656.25,-549.25 650.8,-553.16 644.77,-556.4 638.46,-559.06"/>
<polygon fill="#63b8ff" stroke="#63b8ff" points="743.67,-423.68 743.66,-413.08 737.06,-421.37 743.67,-423.68"/>
</a>
</g>
</g>
<!-- Node5 -->
<g id="Node000005" class="node">
<title>Node5</title>
<g id="a_Node000005"><a xlink:href="../../db/df2/classBinMailhog.html#a7ac4063e736338217b6af943cd6b51e7" target="_top" xlink:title=" ">
<polygon fill="white" stroke="#666666" points="639.38,-540.5 477.88,-540.5 477.88,-516 639.38,-516 639.38,-540.5"/>
<text text-anchor="middle" x="558.62" y="-523.2" font-family="Helvetica,sans-Serif" font-size="14.00">BinMailhog\changePort</text>
</a>
</g>
</g>
<!-- Node2&#45;&gt;Node5 -->
<g id="edge4_Node000002_Node000005" class="edge">
<title>Node2&#45;&gt;Node5</title>
<g id="a_edge4_Node000002_Node000005"><a xlink:title=" ">
<path fill="none" stroke="#63b8ff" d="M735.16,-421.34C719.67,-445.98 691.27,-485.12 656.25,-506.25 650.06,-509.98 643.31,-513.08 636.33,-515.66"/>
<polygon fill="#63b8ff" stroke="#63b8ff" points="738,-423.42 740.21,-413.06 732.02,-419.78 738,-423.42"/>
</a>
</g>
</g>
<!-- Node6 -->
<g id="Node000006" class="node">
<title>Node6</title>
<g id="a_Node000006"><a xlink:href="../../d9/ddd/classBinMailpit.html#abbd708edd17dce9e2f937fd691761395" target="_top" xlink:title=" ">
<polygon fill="white" stroke="#666666" points="634.88,-497.5 482.38,-497.5 482.38,-473 634.88,-473 634.88,-497.5"/>
<text text-anchor="middle" x="558.62" y="-480.2" font-family="Helvetica,sans-Serif" font-size="14.00">BinMailpit\changePort</text>
</a>
</g>
</g>
<!-- Node2&#45;&gt;Node6 -->
<g id="edge5_Node000002_Node000006" class="edge">
<title>Node2&#45;&gt;Node6</title>
<g id="a_edge5_Node000002_Node000006"><a xlink:title=" ">
<path fill="none" stroke="#63b8ff" d="M725.34,-418.81C707.63,-433.12 681.81,-451.94 656.25,-463.25 647.99,-466.9 639.05,-469.98 630.07,-472.57"/>
<polygon fill="#63b8ff" stroke="#63b8ff" points="727.17,-421.84 732.65,-412.76 722.71,-416.44 727.17,-421.84"/>
</a>
</g>
</g>
<!-- Node7 -->
<g id="Node000007" class="node">
<title>Node7</title>
<g id="a_Node000007"><a xlink:href="../../d4/d8f/classBinMariadb.html#adbe680fe241ced84ce0dc5e62203536e" target="_top" xlink:title=" ">
<polygon fill="white" stroke="#666666" points="640.12,-454.5 477.12,-454.5 477.12,-430 640.12,-430 640.12,-454.5"/>
<text text-anchor="middle" x="558.62" y="-437.2" font-family="Helvetica,sans-Serif" font-size="14.00">BinMariadb\changePort</text>
</a>
</g>
</g>
<!-- Node2&#45;&gt;Node7 -->
<g id="edge6_Node000002_Node000007" class="edge">
<title>Node2&#45;&gt;Node7</title>
<g id="a_edge6_Node000002_Node000007"><a xlink:title=" ">
<path fill="none" stroke="#63b8ff" d="M681.58,-414.46C673.06,-416.41 664.45,-418.38 656.25,-420.25 643.08,-423.26 628.91,-426.49 615.58,-429.52"/>
<polygon fill="#63b8ff" stroke="#63b8ff" points="682.25,-417.9 691.22,-412.26 680.69,-411.08 682.25,-417.9"/>
</a>
</g>
</g>
<!-- Node8 -->
<g id="Node000008" class="node">
<title>Node8</title>
<g id="a_Node000008"><a xlink:href="../../da/d10/classBinMemcached.html#a74251cd69f82fc40a87ede6e34f48701" target="_top" xlink:title=" ">
<polygon fill="white" stroke="#666666" points="654,-411.5 463.25,-411.5 463.25,-387 654,-387 654,-411.5"/>
<text text-anchor="middle" x="558.62" y="-394.2" font-family="Helvetica,sans-Serif" font-size="14.00">BinMemcached\changePort</text>
</a>
</g>
</g>
<!-- Node2&#45;&gt;Node8 -->
<g id="edge7_Node000002_Node000008" class="edge">
<title>Node2&#45;&gt;Node8</title>
<g id="a_edge7_Node000002_Node000008"><a xlink:title=" ">
<path fill="none" stroke="#63b8ff" d="M680.55,-399.25C671.99,-399.25 663.11,-399.25 654.22,-399.25"/>
<polygon fill="#63b8ff" stroke="#63b8ff" points="680.48,-402.75 690.48,-399.25 680.48,-395.75 680.48,-402.75"/>
</a>
</g>
</g>
<!-- Node9 -->
<g id="Node000009" class="node">
<title>Node9</title>
<g id="a_Node000009"><a xlink:href="../../d6/d88/classBinMysql.html#afbd9de6ff63b3f2640f1b8c521fe397c" target="_top" xlink:title=" ">
<polygon fill="white" stroke="#666666" points="633.38,-368.5 483.88,-368.5 483.88,-344 633.38,-344 633.38,-368.5"/>
<text text-anchor="middle" x="558.62" y="-351.2" font-family="Helvetica,sans-Serif" font-size="14.00">BinMysql\changePort</text>
</a>
</g>
</g>
<!-- Node2&#45;&gt;Node9 -->
<g id="edge8_Node000002_Node000009" class="edge">
<title>Node2&#45;&gt;Node9</title>
<g id="a_edge8_Node000002_Node000009"><a xlink:title=" ">
<path fill="none" stroke="#63b8ff" d="M681.58,-384.04C673.06,-382.09 664.45,-380.12 656.25,-378.25 643.08,-375.24 628.91,-372.01 615.58,-368.98"/>
<polygon fill="#63b8ff" stroke="#63b8ff" points="680.69,-387.42 691.22,-386.24 682.25,-380.6 680.69,-387.42"/>
</a>
</g>
</g>
<!-- Node10 -->
<g id="Node000010" class="node">
<title>Node10</title>
<g id="a_Node000010"><a xlink:href="../../dc/db9/classBinPostgresql.html#a0bc7538679a08420fd5f02832bcb31e9" target="_top" xlink:title=" ">
<polygon fill="white" stroke="#666666" points="649.5,-325.5 467.75,-325.5 467.75,-301 649.5,-301 649.5,-325.5"/>
<text text-anchor="middle" x="558.62" y="-308.2" font-family="Helvetica,sans-Serif" font-size="14.00">BinPostgresql\changePort</text>
</a>
</g>
</g>
<!-- Node2&#45;&gt;Node10 -->
<g id="edge9_Node000002_Node000010" class="edge">
<title>Node2&#45;&gt;Node10</title>
<g id="a_edge9_Node000002_Node000010"><a xlink:title=" ">
<path fill="none" stroke="#63b8ff" d="M725.34,-379.69C707.63,-365.38 681.81,-346.56 656.25,-335.25 647.99,-331.6 639.05,-328.52 630.07,-325.93"/>
<polygon fill="#63b8ff" stroke="#63b8ff" points="722.71,-382.06 732.65,-385.74 727.17,-376.66 722.71,-382.06"/>
</a>
</g>
</g>
<!-- Node11 -->
<g id="Node000011" class="node">
<title>Node11</title>
<g id="a_Node000011"><a xlink:href="../../d8/ddb/classBinXlight.html#a7c63ec12bf829df33995c2ed75a400c9" target="_top" xlink:title=" ">
<polygon fill="white" stroke="#666666" points="632.62,-282.5 484.62,-282.5 484.62,-258 632.62,-258 632.62,-282.5"/>
<text text-anchor="middle" x="558.62" y="-265.2" font-family="Helvetica,sans-Serif" font-size="14.00">BinXlight\changePort</text>
</a>
</g>
</g>
<!-- Node2&#45;&gt;Node11 -->
<g id="edge10_Node000002_Node000011" class="edge">
<title>Node2&#45;&gt;Node11</title>
<g id="a_edge10_Node000002_Node000011"><a xlink:title=" ">
<path fill="none" stroke="#63b8ff" d="M735.16,-377.16C719.67,-352.52 691.27,-313.38 656.25,-292.25 649.11,-287.94 641.2,-284.47 633.08,-281.68"/>
<polygon fill="#63b8ff" stroke="#63b8ff" points="732.02,-378.72 740.21,-385.44 738,-375.08 732.02,-378.72"/>
</a>
</g>
</g>
<!-- Node12 -->
<g id="Node000012" class="node">
<title>Node12</title>
<g id="a_Node000012"><a xlink:href="../../d6/de4/classUtil.html#a884d8e779d6f76e7ade398b4e177c5de" target="_top" xlink:title=" ">
<polygon fill="white" stroke="#666666" points="619.88,-239.5 497.38,-239.5 497.38,-215 619.88,-215 619.88,-239.5"/>
<text text-anchor="middle" x="558.62" y="-222.2" font-family="Helvetica,sans-Serif" font-size="14.00">Util\installService</text>
</a>
</g>
</g>
<!-- Node2&#45;&gt;Node12 -->
<g id="edge11_Node000002_Node000012" class="edge">
<title>Node2&#45;&gt;Node12</title>
<g id="a_edge11_Node000002_Node000012"><a xlink:title=" ">
<path fill="none" stroke="#63b8ff" d="M740.48,-376.3C728.32,-342.91 701.05,-281.43 656.25,-249.25 645.7,-241.67 632.97,-236.65 620.26,-233.34"/>
<polygon fill="#63b8ff" stroke="#63b8ff" points="737.06,-377.13 743.66,-385.42 743.67,-374.82 737.06,-377.13"/>
</a>
</g>
</g>
<!-- Node24 -->
<g id="Node000024" class="node">
<title>Node24</title>
<g id="a_Node000024"><a xlink:href="../../d1/db8/classActionStartup.html#adef126078efed832ed35196e0e159144" target="_top" xlink:title=" ">
<polygon fill="white" stroke="#666666" points="656.25,-110.5 461,-110.5 461,-86 656.25,-86 656.25,-110.5"/>
<text text-anchor="middle" x="558.62" y="-93.2" font-family="Helvetica,sans-Serif" font-size="14.00">ActionStartup\installServices</text>
</a>
</g>
</g>
<!-- Node2&#45;&gt;Node24 -->
<g id="edge23_Node000002_Node000024" class="edge">
<title>Node2&#45;&gt;Node24</title>
<g id="a_edge23_Node000002_Node000024"><a xlink:title=" ">
<path fill="none" stroke="#63b8ff" d="M739.51,-376.13C725.24,-338.73 694.25,-263.4 656.25,-206.25 631.04,-168.33 593.17,-130.04 573.15,-110.86"/>
<polygon fill="#63b8ff" stroke="#63b8ff" points="736.22,-377.32 743.01,-385.45 742.77,-374.85 736.22,-377.32"/>
</a>
</g>
</g>
<!-- Node13 -->
<g id="Node000013" class="node">
<title>Node13</title>
<g id="a_Node000013"><a xlink:href="../../d7/d0e/classActionService.html#a0a1a0cd7ef10e75a7b29e39b2542b2b2" target="_top" xlink:title=" ">
<polygon fill="white" stroke="#666666" points="392.75,-454.5 250,-454.5 250,-430 392.75,-430 392.75,-454.5"/>
<text text-anchor="middle" x="321.38" y="-437.2" font-family="Helvetica,sans-Serif" font-size="14.00">ActionService\install</text>
</a>
</g>
</g>
<!-- Node12&#45;&gt;Node13 -->
<g id="edge12_Node000012_Node000013" class="edge">
<title>Node12&#45;&gt;Node13</title>
<g id="a_edge12_Node000012_Node000013"><a xlink:title=" ">
<path fill="none" stroke="#63b8ff" d="M486.25,-233.59C476.82,-237.1 468.01,-242.12 461,-249.25 406.53,-304.62 479.82,-365.23 425,-420.25 416.32,-428.96 405.08,-434.61 393.24,-438.2"/>
<polygon fill="#63b8ff" stroke="#63b8ff" points="487.13,-236.98 495.65,-230.68 485.06,-230.29 487.13,-236.98"/>
</a>
</g>
</g>
<!-- Node15 -->
<g id="Node000015" class="node">
<title>Node15</title>
<g id="a_Node000015"><a xlink:href="../../d9/d6c/classBinApache.html#a54e8925c2f6dec1622cc8b4171810348" target="_top" xlink:title=" ">
<polygon fill="white" stroke="#666666" points="397.62,-411.5 245.12,-411.5 245.12,-387 397.62,-387 397.62,-411.5"/>
<text text-anchor="middle" x="321.38" y="-394.2" font-family="Helvetica,sans-Serif" font-size="14.00">BinApache\setEnable</text>
</a>
</g>
</g>
<!-- Node12&#45;&gt;Node15 -->
<g id="edge14_Node000012_Node000015" class="edge">
<title>Node12&#45;&gt;Node15</title>
<g id="a_edge14_Node000012_Node000015"><a xlink:title=" ">
<path fill="none" stroke="#63b8ff" d="M486.31,-234.14C476.96,-237.59 468.16,-242.45 461,-249.25 418.18,-289.97 468.08,-336.8 425,-377.25 417.36,-384.42 407.98,-389.48 398.02,-393.02"/>
<polygon fill="#63b8ff" stroke="#63b8ff" points="487.08,-237.57 495.6,-231.27 485.02,-230.88 487.08,-237.57"/>
</a>
</g>
</g>
<!-- Node16 -->
<g id="Node000016" class="node">
<title>Node16</title>
<g id="a_Node000016"><a xlink:href="../../da/d23/classBinFilezilla.html#a00f53d4c8b7f101f056eded025c1f3c1" target="_top" xlink:title=" ">
<polygon fill="white" stroke="#666666" points="396.5,-368.5 246.25,-368.5 246.25,-344 396.5,-344 396.5,-368.5"/>
<text text-anchor="middle" x="321.38" y="-351.2" font-family="Helvetica,sans-Serif" font-size="14.00">BinFilezilla\setEnable</text>
</a>
</g>
</g>
<!-- Node12&#45;&gt;Node16 -->
<g id="edge15_Node000012_Node000016" class="edge">
<title>Node12&#45;&gt;Node16</title>
<g id="a_edge15_Node000012_Node000016"><a xlink:title=" ">
<path fill="none" stroke="#63b8ff" d="M486.23,-235.28C477.07,-238.58 468.35,-243.1 461,-249.25 429.54,-275.59 456.62,-308.11 425,-334.25 416.85,-340.98 407.13,-345.79 396.96,-349.21"/>
<polygon fill="#63b8ff" stroke="#63b8ff" points="487.14,-238.66 495.67,-232.38 485.08,-231.97 487.14,-238.66"/>
</a>
</g>
</g>
<!-- Node17 -->
<g id="Node000017" class="node">
<title>Node17</title>
<g id="a_Node000017"><a xlink:href="../../db/df2/classBinMailhog.html#aecce319d43fb78f65b3a4ff9913c8be5" target="_top" xlink:title=" ">
<polygon fill="white" stroke="#666666" points="397.62,-325.5 245.12,-325.5 245.12,-301 397.62,-301 397.62,-325.5"/>
<text text-anchor="middle" x="321.38" y="-308.2" font-family="Helvetica,sans-Serif" font-size="14.00">BinMailhog\setEnable</text>
</a>
</g>
</g>
<!-- Node12&#45;&gt;Node17 -->
<g id="edge16_Node000012_Node000017" class="edge">
<title>Node12&#45;&gt;Node17</title>
<g id="a_edge16_Node000012_Node000017"><a xlink:title=" ">
<path fill="none" stroke="#63b8ff" d="M486.24,-237.99C477.39,-240.89 468.75,-244.57 461,-249.25 439.95,-261.95 446.13,-278.68 425,-291.25 416.7,-296.19 407.44,-300.02 397.97,-303"/>
<polygon fill="#63b8ff" stroke="#63b8ff" points="487.01,-241.41 495.63,-235.25 485.05,-234.69 487.01,-241.41"/>
</a>
</g>
</g>
<!-- Node18 -->
<g id="Node000018" class="node">
<title>Node18</title>
<g id="a_Node000018"><a xlink:href="../../d9/ddd/classBinMailpit.html#a32db6d32a46a58829c4535ad33e2202f" target="_top" xlink:title=" ">
<polygon fill="white" stroke="#666666" points="393.12,-282.5 249.62,-282.5 249.62,-258 393.12,-258 393.12,-282.5"/>
<text text-anchor="middle" x="321.38" y="-265.2" font-family="Helvetica,sans-Serif" font-size="14.00">BinMailpit\setEnable</text>
</a>
</g>
</g>
<!-- Node12&#45;&gt;Node18 -->
<g id="edge17_Node000012_Node000018" class="edge">
<title>Node12&#45;&gt;Node18</title>
<g id="a_edge17_Node000012_Node000018"><a xlink:title=" ">
<path fill="none" stroke="#63b8ff" d="M485.86,-240.37C456.02,-245.82 421.51,-252.13 391.91,-257.54"/>
<polygon fill="#63b8ff" stroke="#63b8ff" points="486.35,-243.84 495.55,-238.6 485.09,-236.95 486.35,-243.84"/>
</a>
</g>
</g>
<!-- Node19 -->
<g id="Node000019" class="node">
<title>Node19</title>
<g id="a_Node000019"><a xlink:href="../../d4/d8f/classBinMariadb.html#a976769ec002d6256882fc608f2a971c1" target="_top" xlink:title=" ">
<polygon fill="white" stroke="#666666" points="398.38,-239.5 244.38,-239.5 244.38,-215 398.38,-215 398.38,-239.5"/>
<text text-anchor="middle" x="321.38" y="-222.2" font-family="Helvetica,sans-Serif" font-size="14.00">BinMariadb\setEnable</text>
</a>
</g>
</g>
<!-- Node12&#45;&gt;Node19 -->
<g id="edge18_Node000012_Node000019" class="edge">
<title>Node12&#45;&gt;Node19</title>
<g id="a_edge18_Node000012_Node000019"><a xlink:title=" ">
<path fill="none" stroke="#63b8ff" d="M485.9,-227.25C458.33,-227.25 426.77,-227.25 398.78,-227.25"/>
<polygon fill="#63b8ff" stroke="#63b8ff" points="485.53,-230.75 495.53,-227.25 485.53,-223.75 485.53,-230.75"/>
</a>
</g>
</g>
<!-- Node20 -->
<g id="Node000020" class="node">
<title>Node20</title>
<g id="a_Node000020"><a xlink:href="../../da/d10/classBinMemcached.html#a6e34e322bae67fd3cb41528c12e62a4c" target="_top" xlink:title=" ">
<polygon fill="white" stroke="#666666" points="412.25,-196.5 230.5,-196.5 230.5,-172 412.25,-172 412.25,-196.5"/>
<text text-anchor="middle" x="321.38" y="-179.2" font-family="Helvetica,sans-Serif" font-size="14.00">BinMemcached\setEnable</text>
</a>
</g>
</g>
<!-- Node12&#45;&gt;Node20 -->
<g id="edge19_Node000012_Node000020" class="edge">
<title>Node12&#45;&gt;Node20</title>
<g id="a_edge19_Node000012_Node000020"><a xlink:title=" ">
<path fill="none" stroke="#63b8ff" d="M485.86,-214.13C456.02,-208.68 421.51,-202.37 391.91,-196.96"/>
<polygon fill="#63b8ff" stroke="#63b8ff" points="485.09,-217.55 495.55,-215.9 486.35,-210.66 485.09,-217.55"/>
</a>
</g>
</g>
<!-- Node21 -->
<g id="Node000021" class="node">
<title>Node21</title>
<g id="a_Node000021"><a xlink:href="../../d6/d88/classBinMysql.html#ae2f67df247c503657a59721431e74e5d" target="_top" xlink:title=" ">
<polygon fill="white" stroke="#666666" points="391.62,-153.5 251.12,-153.5 251.12,-129 391.62,-129 391.62,-153.5"/>
<text text-anchor="middle" x="321.38" y="-136.2" font-family="Helvetica,sans-Serif" font-size="14.00">BinMysql\setEnable</text>
</a>
</g>
</g>
<!-- Node12&#45;&gt;Node21 -->
<g id="edge20_Node000012_Node000021" class="edge">
<title>Node12&#45;&gt;Node21</title>
<g id="a_edge20_Node000012_Node000021"><a xlink:title=" ">
<path fill="none" stroke="#63b8ff" d="M526,-209.33C499.69,-195.08 460.87,-175.55 425,-163.25 414.49,-159.64 403.16,-156.51 392,-153.82"/>
<polygon fill="#63b8ff" stroke="#63b8ff" points="524.01,-212.23 534.46,-213.97 527.38,-206.09 524.01,-212.23"/>
</a>
</g>
</g>
<!-- Node22 -->
<g id="Node000022" class="node">
<title>Node22</title>
<g id="a_Node000022"><a xlink:href="../../dc/db9/classBinPostgresql.html#a1dfaa8c453e59e1a9849bfd7b5a27bbb" target="_top" xlink:title=" ">
<polygon fill="white" stroke="#666666" points="407.75,-110.5 235,-110.5 235,-86 407.75,-86 407.75,-110.5"/>
<text text-anchor="middle" x="321.38" y="-93.2" font-family="Helvetica,sans-Serif" font-size="14.00">BinPostgresql\setEnable</text>
</a>
</g>
</g>
<!-- Node12&#45;&gt;Node22 -->
<g id="edge21_Node000012_Node000022" class="edge">
<title>Node12&#45;&gt;Node22</title>
<g id="a_edge21_Node000012_Node000022"><a xlink:title=" ">
<path fill="none" stroke="#63b8ff" d="M538.2,-206.51C514.04,-182.03 470.42,-141.91 425,-120.25 417.27,-116.56 408.92,-113.49 400.44,-110.93"/>
<polygon fill="#63b8ff" stroke="#63b8ff" points="535.66,-208.93 545.13,-213.68 540.69,-204.06 535.66,-208.93"/>
</a>
</g>
</g>
<!-- Node23 -->
<g id="Node000023" class="node">
<title>Node23</title>
<g id="a_Node000023"><a xlink:href="../../d8/ddb/classBinXlight.html#af8a4eaf341f9faaf452ef20759623a1a" target="_top" xlink:title=" ">
<polygon fill="white" stroke="#666666" points="390.88,-67.5 251.88,-67.5 251.88,-43 390.88,-43 390.88,-67.5"/>
<text text-anchor="middle" x="321.38" y="-50.2" font-family="Helvetica,sans-Serif" font-size="14.00">BinXlight\setEnable</text>
</a>
</g>
</g>
<!-- Node12&#45;&gt;Node23 -->
<g id="edge22_Node000012_Node000023" class="edge">
<title>Node12&#45;&gt;Node23</title>
<g id="a_edge22_Node000012_Node000023"><a xlink:title=" ">
<path fill="none" stroke="#63b8ff" d="M538.61,-206.26C519.02,-184.58 487.69,-149.72 461,-119.25 444.8,-100.75 446.13,-89.82 425,-77.25 414.74,-71.15 403.02,-66.73 391.24,-63.53"/>
<polygon fill="#63b8ff" stroke="#63b8ff" points="535.91,-208.5 545.22,-213.57 541.11,-203.8 535.91,-208.5"/>
</a>
</g>
</g>
<!-- Node14 -->
<g id="Node000014" class="node">
<title>Node14</title>
<g id="a_Node000014"><a xlink:href="../../d7/d0e/classActionService.html#a4440ed18ce314e66ba30932864b5584b" target="_top" xlink:title=" ">
<polygon fill="white" stroke="#666666" points="181.75,-454.5 0,-454.5 0,-430 181.75,-430 181.75,-454.5"/>
<text text-anchor="middle" x="90.88" y="-437.2" font-family="Helvetica,sans-Serif" font-size="14.00">ActionService\__construct</text>
</a>
</g>
</g>
<!-- Node13&#45;&gt;Node14 -->
<g id="edge13_Node000013_Node000014" class="edge">
<title>Node13&#45;&gt;Node14</title>
<g id="a_edge13_Node000013_Node000014"><a xlink:title=" ">
<path fill="none" stroke="#63b8ff" d="M238.17,-442.25C219.97,-442.25 200.58,-442.25 182.07,-442.25"/>
<polygon fill="#63b8ff" stroke="#63b8ff" points="238.13,-445.75 248.13,-442.25 238.13,-438.75 238.13,-445.75"/>
</a>
</g>
</g>
<!-- Node25 -->
<g id="Node000025" class="node">
<title>Node25</title>
<g id="a_Node000025"><a xlink:href="../../d1/db8/classActionStartup.html#a1234a0f2093a95140d6f86983514d28f" target="_top" xlink:title=" ">
<polygon fill="white" stroke="#666666" points="425,-24.5 217.75,-24.5 217.75,0 425,0 425,-24.5"/>
<text text-anchor="middle" x="321.38" y="-7.2" font-family="Helvetica,sans-Serif" font-size="14.00">ActionStartup\processWindow</text>
</a>
</g>
</g>
<!-- Node24&#45;&gt;Node25 -->
<g id="edge24_Node000024_Node000025" class="edge">
<title>Node24&#45;&gt;Node25</title>
<g id="a_edge24_Node000024_Node000025"><a xlink:title=" ">
<path fill="none" stroke="#63b8ff" d="M526,-80.33C499.69,-66.08 460.87,-46.55 425,-34.25 414.66,-30.7 403.53,-27.61 392.54,-24.95"/>
<polygon fill="#63b8ff" stroke="#63b8ff" points="524.01,-83.23 534.46,-84.97 527.38,-77.09 524.01,-83.23"/>
</a>
</g>
</g>
</g>
</svg>

<g id="navigator" transform="translate(0 0)" fill="#404254">
  <rect fill="#f2f5e9" fill-opacity="0.5" stroke="#606060" stroke-width=".5" x="0" y="0" width="60" height="60"/>
  <use id="zoomplus" xlink:href="#zoomPlus" x="17" y="9" onmousedown="handleZoom(evt,'in')"/>
  <use id="zoomminus" xlink:href="#zoomMin" x="42" y="9" onmousedown="handleZoom(evt,'out')"/>
  <use id="reset" xlink:href="#resetDef" x="30" y="36" onmousedown="handleReset()"/>
   <use id="arrowup" xlink:href="#arrowUp" x="0" y="0" onmousedown="handlePan(0,-1)"/>
  <use id="arrowright" xlink:href="#arrowRight" x="0" y="0" onmousedown="handlePan(1,0)"/>
  <use id="arrowdown" xlink:href="#arrowDown" x="0" y="0" onmousedown="handlePan(0,1)"/>
  <use id="arrowleft" xlink:href="#arrowLeft" x="0" y="0" onmousedown="handlePan(-1,0)"/>
</g>
<svg viewBox="0 0 15 15" width="100%" height="30px" preserveAspectRatio="xMaxYMin meet">
 <g id="arrow_out" transform="scale(0.3 0.3)">
  <a xlink:href="classBatch_ae9ac66c0009409f9f31a2edc8ad9ed8a_icgraph_org.svg" target="_base">
   <rect id="button" ry="5" rx="5" y="6" x="6" height="38" width="38"
        fill="#f2f5e9" fill-opacity="0.5" stroke="#606060" stroke-width="1.0"/>
   <path id="arrow"
     d="M 11.500037,31.436501 C 11.940474,20.09759 22.043105,11.32322 32.158766,21.979434 L 37.068811,17.246167 C 37.068811,17.246167 37.088388,32 37.088388,32 L 22.160133,31.978069 C 22.160133,31.978069 26.997745,27.140456 26.997745,27.140456 C 18.528582,18.264221 13.291696,25.230495 11.500037,31.436501 z"
     style="fill:#404040;"/>
  </a>
 </g>
</svg>

<style type='text/css'>
<![CDATA[
[data-mouse-over-selected='false'] { opacity: 0.7; }
[data-mouse-over-selected='true']  { opacity: 1.0; }
]]>
</style>
<script type="application/ecmascript"><![CDATA[
document.addEventListener('DOMContentLoaded', (event) => {
  highlightEdges();
  highlightAdjacentNodes();
});
]]></script>
</svg>
