<?xml version="1.0" encoding="UTF-8" standalone="no"?>
<!--
  - Copyright (c) 2021-2024 Bearsampp
  - License:  GNU General Public License version 3 or later; see LICENSE.txt
  - Author: Bear
  - Website: https://bearsampp.com
  - Github: https://github.com/Bearsampp
  -->

<!DOCTYPE svg PUBLIC "-//W3C//DTD SVG 1.1//EN"
 "http://www.w3.org/Graphics/SVG/1.1/DTD/svg11.dtd">
<!-- Generated by graphviz version 11.0.0 (20240428.1522)
 -->
<!-- Title: Batch\setServiceDescription Pages: 1 -->
<svg width="809pt" height="76pt"
 viewBox="0.00 0.00 809.25 75.50" xmlns="http://www.w3.org/2000/svg" xmlns:xlink="http://www.w3.org/1999/xlink">
<g id="graph0" class="graph" transform="scale(1 1) rotate(0) translate(4 71.5)">
<title>Batch\setServiceDescription</title>
<!-- Node1 -->
<g id="Node000001" class="node">
<title>Node1</title>
<g id="a_Node000001"><a xlink:title=" ">
<polygon fill="#999999" stroke="#666666" points="801.25,-45.5 606,-45.5 606,-21 801.25,-21 801.25,-45.5"/>
<text text-anchor="middle" x="703.62" y="-28.2" font-family="Helvetica,sans-Serif" font-size="14.00">Batch\setServiceDescription</text>
</a>
</g>
</g>
<!-- Node2 -->
<g id="Node000002" class="node">
<title>Node2</title>
<g id="a_Node000002"><a xlink:href="../../da/dbb/classBatch.html#aff28ec745ddcf946dffc85a174ac8087" target="_top" xlink:title=" ">
<polygon fill="white" stroke="#666666" points="558.75,-67.5 373.25,-67.5 373.25,-43 558.75,-43 558.75,-67.5"/>
<text text-anchor="middle" x="466" y="-50.2" font-family="Helvetica,sans-Serif" font-size="14.00">Batch\installFilezillaService</text>
</a>
</g>
</g>
<!-- Node1&#45;&gt;Node2 -->
<g id="edge1_Node000001_Node000002" class="edge">
<title>Node1&#45;&gt;Node2</title>
<g id="a_edge1_Node000001_Node000002"><a xlink:title=" ">
<path fill="none" stroke="#63b8ff" d="M594.44,-43.35C582.58,-44.46 570.58,-45.58 558.93,-46.67"/>
<polygon fill="#63b8ff" stroke="#63b8ff" points="594.63,-46.85 604.26,-42.43 593.98,-39.88 594.63,-46.85"/>
</a>
</g>
</g>
<!-- Node5 -->
<g id="Node000005" class="node">
<title>Node5</title>
<g id="a_Node000005"><a xlink:href="../../da/dbb/classBatch.html#a6358c757bde643086342079312202c8d" target="_top" xlink:title=" ">
<polygon fill="white" stroke="#666666" points="570,-24.5 362,-24.5 362,0 570,0 570,-24.5"/>
<text text-anchor="middle" x="466" y="-7.2" font-family="Helvetica,sans-Serif" font-size="14.00">Batch\installPostgresqlService</text>
</a>
</g>
</g>
<!-- Node1&#45;&gt;Node5 -->
<g id="edge4_Node000001_Node000005" class="edge">
<title>Node1&#45;&gt;Node5</title>
<g id="a_edge4_Node000001_Node000005"><a xlink:title=" ">
<path fill="none" stroke="#63b8ff" d="M594.47,-23.61C586.45,-22.9 578.36,-22.17 570.36,-21.46"/>
<polygon fill="#63b8ff" stroke="#63b8ff" points="593.99,-27.08 604.26,-24.48 594.61,-20.11 593.99,-27.08"/>
</a>
</g>
</g>
<!-- Node3 -->
<g id="Node000003" class="node">
<title>Node3</title>
<g id="a_Node000003"><a xlink:href="../../df/d28/classWin32Service.html#a0d671863c8ed9869297400110daef2c1" target="_top" xlink:title=" ">
<polygon fill="white" stroke="#666666" points="326,-45.5 177.25,-45.5 177.25,-21 326,-21 326,-45.5"/>
<text text-anchor="middle" x="251.62" y="-28.2" font-family="Helvetica,sans-Serif" font-size="14.00">Win32Service\create</text>
</a>
</g>
</g>
<!-- Node2&#45;&gt;Node3 -->
<g id="edge2_Node000002_Node000003" class="edge">
<title>Node2&#45;&gt;Node3</title>
<g id="a_edge2_Node000002_Node000003"><a xlink:title=" ">
<path fill="none" stroke="#63b8ff" d="M361.42,-44.52C349.54,-43.29 337.61,-42.05 326.24,-40.88"/>
<polygon fill="#63b8ff" stroke="#63b8ff" points="360.96,-47.99 371.27,-45.54 361.68,-41.03 360.96,-47.99"/>
</a>
</g>
</g>
<!-- Node4 -->
<g id="Node000004" class="node">
<title>Node4</title>
<g id="a_Node000004"><a xlink:href="../../df/d28/classWin32Service.html#ab2bdb25f7405e3bb9e5230fca1980747" target="_top" xlink:title=" ">
<polygon fill="white" stroke="#666666" points="141.25,-45.5 0,-45.5 0,-21 141.25,-21 141.25,-45.5"/>
<text text-anchor="middle" x="70.62" y="-28.2" font-family="Helvetica,sans-Serif" font-size="14.00">Win32Service\reset</text>
</a>
</g>
</g>
<!-- Node3&#45;&gt;Node4 -->
<g id="edge3_Node000003_Node000004" class="edge">
<title>Node3&#45;&gt;Node4</title>
<g id="a_edge3_Node000003_Node000004"><a xlink:title=" ">
<path fill="none" stroke="#63b8ff" d="M165.5,-33.25C157.48,-33.25 149.41,-33.25 141.55,-33.25"/>
<polygon fill="#63b8ff" stroke="#63b8ff" points="165.27,-36.75 175.27,-33.25 165.27,-29.75 165.27,-36.75"/>
</a>
</g>
</g>
<!-- Node5&#45;&gt;Node3 -->
<g id="edge5_Node000005_Node000003" class="edge">
<title>Node5&#45;&gt;Node3</title>
<g id="a_edge5_Node000005_Node000003"><a xlink:title=" ">
<path fill="none" stroke="#63b8ff" d="M350.16,-23.61C342.08,-24.4 334.07,-25.2 326.31,-25.96"/>
<polygon fill="#63b8ff" stroke="#63b8ff" points="350.5,-27.09 360.11,-22.62 349.81,-20.12 350.5,-27.09"/>
</a>
</g>
</g>
</g>
</svg>
