<?xml version="1.0" encoding="UTF-8" standalone="no"?>
<!--
  - Copyright (c) 2021-2024 Bearsampp
  - License:  GNU General Public License version 3 or later; see LICENSE.txt
  - Author: Bear
  - Website: https://bearsampp.com
  - Github: https://github.com/Bearsampp
  -->

<!DOCTYPE svg PUBLIC "-//W3C//DTD SVG 1.1//EN"
 "http://www.w3.org/Graphics/SVG/1.1/DTD/svg11.dtd">
<!-- Generated by graphviz version 11.0.0 (20240428.1522)
 -->
<!-- Title: Batch\execStandalone Pages: 1 -->
<svg width="732pt" height="178pt"
 viewBox="0.00 0.00 732.00 177.50" xmlns="http://www.w3.org/2000/svg" xmlns:xlink="http://www.w3.org/1999/xlink">
<g id="graph0" class="graph" transform="scale(1 1) rotate(0) translate(4 173.5)">
<title>Batch\execStandalone</title>
<!-- Node1 -->
<g id="Node000001" class="node">
<title>Node1</title>
<g id="a_Node000001"><a xlink:title=" ">
<polygon fill="#999999" stroke="#666666" points="724,-107.5 566.25,-107.5 566.25,-83 724,-83 724,-107.5"/>
<text text-anchor="middle" x="645.12" y="-90.2" font-family="Helvetica,sans-Serif" font-size="14.00">Batch\execStandalone</text>
</a>
</g>
</g>
<!-- Node2 -->
<g id="Node000002" class="node">
<title>Node2</title>
<g id="a_Node000002"><a xlink:href="../../da/dbb/classBatch.html#a60ded4c18eb060829639a955ec294ffc" target="_top" xlink:title=" ">
<polygon fill="white" stroke="#666666" points="505.12,-129.5 401.38,-129.5 401.38,-105 505.12,-105 505.12,-129.5"/>
<text text-anchor="middle" x="453.25" y="-112.2" font-family="Helvetica,sans-Serif" font-size="14.00">Batch\exitApp</text>
</a>
</g>
</g>
<!-- Node1&#45;&gt;Node2 -->
<g id="edge1_Node000001_Node000002" class="edge">
<title>Node1&#45;&gt;Node2</title>
<g id="a_edge1_Node000001_Node000002"><a xlink:title=" ">
<path fill="none" stroke="#63b8ff" d="M554.76,-105.6C537.88,-107.56 520.76,-109.54 505.55,-111.31"/>
<polygon fill="#63b8ff" stroke="#63b8ff" points="554.77,-109.13 564.3,-104.5 553.96,-102.17 554.77,-109.13"/>
</a>
</g>
</g>
<!-- Node5 -->
<g id="Node000005" class="node">
<title>Node5</title>
<g id="a_Node000005"><a xlink:href="../../da/dbb/classBatch.html#a92689ecdadcb612ac89e5e5371200e19" target="_top" xlink:title=" ">
<polygon fill="white" stroke="#666666" points="530.25,-86.5 376.25,-86.5 376.25,-62 530.25,-62 530.25,-86.5"/>
<text text-anchor="middle" x="453.25" y="-69.2" font-family="Helvetica,sans-Serif" font-size="14.00">Batch\refreshEnvVars</text>
</a>
</g>
</g>
<!-- Node1&#45;&gt;Node5 -->
<g id="edge5_Node000001_Node000005" class="edge">
<title>Node1&#45;&gt;Node5</title>
<g id="a_edge5_Node000001_Node000005"><a xlink:title=" ">
<path fill="none" stroke="#63b8ff" d="M554.53,-85.34C546.51,-84.45 538.45,-83.56 530.56,-82.69"/>
<polygon fill="#63b8ff" stroke="#63b8ff" points="553.97,-88.8 564.29,-86.42 554.74,-81.84 553.97,-88.8"/>
</a>
</g>
</g>
<!-- Node3 -->
<g id="Node000003" class="node">
<title>Node3</title>
<g id="a_Node000003"><a xlink:href="../../db/d8f/classActionExec.html#a8228382d8a7768239c559563a8d58994" target="_top" xlink:title=" ">
<polygon fill="white" stroke="#666666" points="171.25,-169.5 5.25,-169.5 5.25,-145 171.25,-145 171.25,-169.5"/>
<text text-anchor="middle" x="88.25" y="-152.2" font-family="Helvetica,sans-Serif" font-size="14.00">ActionExec\__construct</text>
</a>
</g>
</g>
<!-- Node2&#45;&gt;Node3 -->
<g id="edge2_Node000002_Node000003" class="edge">
<title>Node2&#45;&gt;Node3</title>
<g id="a_edge2_Node000002_Node000003"><a xlink:title=" ">
<path fill="none" stroke="#63b8ff" d="M390.17,-130.15C373.97,-133.16 356.51,-136.12 340.25,-138.25 284.25,-145.6 220.81,-150.37 171.73,-153.29"/>
<polygon fill="#63b8ff" stroke="#63b8ff" points="390.49,-133.65 399.66,-128.34 389.18,-126.77 390.49,-133.65"/>
</a>
</g>
</g>
<!-- Node4 -->
<g id="Node000004" class="node">
<title>Node4</title>
<g id="a_Node000004"><a xlink:href="../../da/dbb/classBatch.html#ac5c8b3c31fa2a76d1cb2b1a10ff6d4d5" target="_top" xlink:title=" ">
<polygon fill="white" stroke="#666666" points="337.25,-129.5 215.5,-129.5 215.5,-105 337.25,-105 337.25,-129.5"/>
<text text-anchor="middle" x="276.38" y="-112.2" font-family="Helvetica,sans-Serif" font-size="14.00">Batch\restartApp</text>
</a>
</g>
</g>
<!-- Node2&#45;&gt;Node4 -->
<g id="edge3_Node000002_Node000004" class="edge">
<title>Node2&#45;&gt;Node4</title>
<g id="a_edge3_Node000002_Node000004"><a xlink:title=" ">
<path fill="none" stroke="#63b8ff" d="M390.17,-117.25C373.03,-117.25 354.47,-117.25 337.44,-117.25"/>
<polygon fill="#63b8ff" stroke="#63b8ff" points="389.69,-120.75 399.69,-117.25 389.69,-113.75 389.69,-120.75"/>
</a>
</g>
</g>
<!-- Node4&#45;&gt;Node3 -->
<g id="edge4_Node000004_Node000003" class="edge">
<title>Node4&#45;&gt;Node3</title>
<g id="a_edge4_Node000004_Node000003"><a xlink:title=" ">
<path fill="none" stroke="#63b8ff" d="M205.13,-132.35C186.49,-136.35 166.55,-140.64 148.56,-144.5"/>
<polygon fill="#63b8ff" stroke="#63b8ff" points="205.71,-135.8 214.75,-130.28 204.24,-128.96 205.71,-135.8"/>
</a>
</g>
</g>
<!-- Node6 -->
<g id="Node000006" class="node">
<title>Node6</title>
<g id="a_Node000006"><a xlink:href="../../db/d0d/classRegistry.html#a190f76a5541f724f564124ea4df49313" target="_top" xlink:title=" ">
<polygon fill="white" stroke="#666666" points="340.25,-81.5 212.5,-81.5 212.5,-57 340.25,-57 340.25,-81.5"/>
<text text-anchor="middle" x="276.38" y="-64.2" font-family="Helvetica,sans-Serif" font-size="14.00">Registry\setValue</text>
</a>
</g>
</g>
<!-- Node5&#45;&gt;Node6 -->
<g id="edge6_Node000005_Node000006" class="edge">
<title>Node5&#45;&gt;Node6</title>
<g id="a_edge6_Node000005_Node000006"><a xlink:title=" ">
<path fill="none" stroke="#63b8ff" d="M364.44,-71.74C356.39,-71.51 348.34,-71.28 340.57,-71.06"/>
<polygon fill="#63b8ff" stroke="#63b8ff" points="364.19,-75.23 374.29,-72.02 364.39,-68.24 364.19,-75.23"/>
</a>
</g>
</g>
<!-- Node7 -->
<g id="Node000007" class="node">
<title>Node7</title>
<g id="a_Node000007"><a xlink:href="../../db/d0d/classRegistry.html#ae63a1ff65a73f45574727e442d0afa22" target="_top" xlink:title=" ">
<polygon fill="white" stroke="#666666" points="162.25,-126.5 14.25,-126.5 14.25,-102 162.25,-102 162.25,-126.5"/>
<text text-anchor="middle" x="88.25" y="-109.2" font-family="Helvetica,sans-Serif" font-size="14.00">Registry\deleteValue</text>
</a>
</g>
</g>
<!-- Node6&#45;&gt;Node7 -->
<g id="edge7_Node000006_Node000007" class="edge">
<title>Node6&#45;&gt;Node7</title>
<g id="a_edge7_Node000006_Node000007"><a xlink:title=" ">
<path fill="none" stroke="#63b8ff" d="M211.92,-84.67C200.14,-87.53 187.95,-90.48 176.5,-93.25 165.29,-95.96 153.28,-98.86 141.85,-101.61"/>
<polygon fill="#63b8ff" stroke="#63b8ff" points="212.68,-88.09 221.57,-82.33 211.03,-81.29 212.68,-88.09"/>
</a>
</g>
</g>
<!-- Node8 -->
<g id="Node000008" class="node">
<title>Node8</title>
<g id="a_Node000008"><a xlink:href="../../db/d0d/classRegistry.html#aa22ce26a46610799e48d929d9a9afcfd" target="_top" xlink:title=" ">
<polygon fill="white" stroke="#666666" points="176.5,-83.75 0,-83.75 0,-42.75 176.5,-42.75 176.5,-83.75"/>
<text text-anchor="start" x="8" y="-66.45" font-family="Helvetica,sans-Serif" font-size="14.00">Registry\setExpandString</text>
<text text-anchor="middle" x="88.25" y="-49.95" font-family="Helvetica,sans-Serif" font-size="14.00">Value</text>
</a>
</g>
</g>
<!-- Node6&#45;&gt;Node8 -->
<g id="edge8_Node000006_Node000008" class="edge">
<title>Node6&#45;&gt;Node8</title>
<g id="a_edge8_Node000006_Node000008"><a xlink:title=" ">
<path fill="none" stroke="#63b8ff" d="M200.71,-66.84C192.83,-66.59 184.76,-66.33 176.75,-66.07"/>
<polygon fill="#63b8ff" stroke="#63b8ff" points="200.48,-70.34 210.59,-67.16 200.71,-63.34 200.48,-70.34"/>
</a>
</g>
</g>
<!-- Node9 -->
<g id="Node000009" class="node">
<title>Node9</title>
<g id="a_Node000009"><a xlink:href="../../db/d0d/classRegistry.html#a598ce170cfd231fec55bb30d4cbd8c9b" target="_top" xlink:title=" ">
<polygon fill="white" stroke="#666666" points="170.5,-24.5 6,-24.5 6,0 170.5,0 170.5,-24.5"/>
<text text-anchor="middle" x="88.25" y="-7.2" font-family="Helvetica,sans-Serif" font-size="14.00">Registry\setStringValue</text>
</a>
</g>
</g>
<!-- Node6&#45;&gt;Node9 -->
<g id="edge9_Node000006_Node000009" class="edge">
<title>Node6&#45;&gt;Node9</title>
<g id="a_edge9_Node000006_Node000009"><a xlink:title=" ">
<path fill="none" stroke="#63b8ff" d="M231.46,-52.71C214.41,-46.56 194.66,-39.74 176.5,-34.25 165.73,-30.99 154.12,-27.83 142.99,-24.96"/>
<polygon fill="#63b8ff" stroke="#63b8ff" points="230.21,-55.98 240.8,-56.12 232.61,-49.41 230.21,-55.98"/>
</a>
</g>
</g>
</g>
</svg>
