<?xml version="1.0" encoding="UTF-8" standalone="no"?>
<!--
  - Copyright (c) 2021-2024 Bearsampp
  - License:  GNU General Public License version 3 or later; see LICENSE.txt
  - Author: Bear
  - Website: https://bearsampp.com
  - Github: https://github.com/Bearsampp
  -->

<!DOCTYPE svg PUBLIC "-//W3C//DTD SVG 1.1//EN"
 "http://www.w3.org/Graphics/SVG/1.1/DTD/svg11.dtd">
<!-- Generated by graphviz version 11.0.0 (20240428.1522)
 -->
<!-- Title: Batch\getOsInfo Pages: 1 -->
<svg width="565pt" height="33pt"
 viewBox="0.00 0.00 565.25 32.50" xmlns="http://www.w3.org/2000/svg" xmlns:xlink="http://www.w3.org/1999/xlink">
<g id="graph0" class="graph" transform="scale(1 1) rotate(0) translate(4 28.5)">
<title>Batch\getOsInfo</title>
<!-- Node1 -->
<g id="Node000001" class="node">
<title>Node1</title>
<g id="a_Node000001"><a xlink:title=" ">
<polygon fill="#999999" stroke="#666666" points="557.25,-24.5 437.75,-24.5 437.75,0 557.25,0 557.25,-24.5"/>
<text text-anchor="middle" x="497.5" y="-7.2" font-family="Helvetica,sans-Serif" font-size="14.00">Batch\getOsInfo</text>
</a>
</g>
</g>
<!-- Node2 -->
<g id="Node000002" class="node">
<title>Node2</title>
<g id="a_Node000002"><a xlink:href="../../d1/db8/classActionStartup.html#a2e2b7096ab5febcc31b263711b77c2b9" target="_top" xlink:title=" ">
<polygon fill="white" stroke="#666666" points="401.75,-24.5 243.25,-24.5 243.25,0 401.75,0 401.75,-24.5"/>
<text text-anchor="middle" x="322.5" y="-7.2" font-family="Helvetica,sans-Serif" font-size="14.00">ActionStartup\sysInfos</text>
</a>
</g>
</g>
<!-- Node1&#45;&gt;Node2 -->
<g id="edge1_Node000001_Node000002" class="edge">
<title>Node1&#45;&gt;Node2</title>
<g id="a_edge1_Node000001_Node000002"><a xlink:title=" ">
<path fill="none" stroke="#63b8ff" d="M426.07,-12.25C418.2,-12.25 410.14,-12.25 402.17,-12.25"/>
<polygon fill="#63b8ff" stroke="#63b8ff" points="425.93,-15.75 435.93,-12.25 425.93,-8.75 425.93,-15.75"/>
</a>
</g>
</g>
<!-- Node3 -->
<g id="Node000003" class="node">
<title>Node3</title>
<g id="a_Node000003"><a xlink:href="../../d1/db8/classActionStartup.html#a1234a0f2093a95140d6f86983514d28f" target="_top" xlink:title=" ">
<polygon fill="white" stroke="#666666" points="207.25,-24.5 0,-24.5 0,0 207.25,0 207.25,-24.5"/>
<text text-anchor="middle" x="103.63" y="-7.2" font-family="Helvetica,sans-Serif" font-size="14.00">ActionStartup\processWindow</text>
</a>
</g>
</g>
<!-- Node2&#45;&gt;Node3 -->
<g id="edge2_Node000002_Node000003" class="edge">
<title>Node2&#45;&gt;Node3</title>
<g id="a_edge2_Node000002_Node000003"><a xlink:title=" ">
<path fill="none" stroke="#63b8ff" d="M231.42,-12.25C223.51,-12.25 215.47,-12.25 207.46,-12.25"/>
<polygon fill="#63b8ff" stroke="#63b8ff" points="231.38,-15.75 241.38,-12.25 231.38,-8.75 231.38,-15.75"/>
</a>
</g>
</g>
</g>
</svg>
