<?xml version="1.0" encoding="UTF-8" standalone="no"?>
<!--
  - Copyright (c) 2021-2024 Bearsampp
  - License:  GNU General Public License version 3 or later; see LICENSE.txt
  - Author: Bear
  - Website: https://bearsampp.com
  - Github: https://github.com/Bearsampp
  -->

<!DOCTYPE svg PUBLIC "-//W3C//DTD SVG 1.1//EN"
 "http://www.w3.org/Graphics/SVG/1.1/DTD/svg11.dtd">
<!-- Generated by graphviz version 11.0.0 (20240428.1522)
 -->
<!-- Title: TplAppServices\process Pages: 1 -->
<svg width="781pt" height="33pt"
 viewBox="0.00 0.00 780.75 32.50" xmlns="http://www.w3.org/2000/svg" xmlns:xlink="http://www.w3.org/1999/xlink">
<g id="graph0" class="graph" transform="scale(1 1) rotate(0) translate(4 28.5)">
<title>TplAppServices\process</title>
<!-- Node1 -->
<g id="Node000001" class="node">
<title>Node1</title>
<g id="a_Node000001"><a xlink:title=" ">
<polygon fill="#999999" stroke="#666666" points="772.75,-24.5 599.25,-24.5 599.25,0 772.75,0 772.75,-24.5"/>
<text text-anchor="middle" x="686" y="-7.2" font-family="Helvetica,sans-Serif" font-size="14.00">TplAppServices\process</text>
</a>
</g>
</g>
<!-- Node2 -->
<g id="Node000002" class="node">
<title>Node2</title>
<g id="a_Node000002"><a xlink:href="../../d1/d65/classTplApp.html#a7548fa52341ab60cfa061827d44cf43c" target="_top" xlink:title=" ">
<polygon fill="white" stroke="#666666" points="563.25,-24.5 369.5,-24.5 369.5,0 563.25,0 563.25,-24.5"/>
<text text-anchor="middle" x="466.38" y="-7.2" font-family="Helvetica,sans-Serif" font-size="14.00">TplApp\getSectionMenuLeft</text>
</a>
</g>
</g>
<!-- Node1&#45;&gt;Node2 -->
<g id="edge1_Node000001_Node000002" class="edge">
<title>Node1&#45;&gt;Node2</title>
<g id="a_edge1_Node000001_Node000002"><a xlink:title=" ">
<path fill="none" stroke="#63b8ff" d="M587.71,-12.25C579.67,-12.25 571.56,-12.25 563.53,-12.25"/>
<polygon fill="#63b8ff" stroke="#63b8ff" points="587.48,-15.75 597.48,-12.25 587.48,-8.75 587.48,-15.75"/>
</a>
</g>
</g>
<!-- Node3 -->
<g id="Node000003" class="node">
<title>Node3</title>
<g id="a_Node000003"><a xlink:href="../../d1/d65/classTplApp.html#a57b270c79fbb8b220ad02af08368e367" target="_top" xlink:title=" ">
<polygon fill="white" stroke="#666666" points="333.5,-24.5 215.5,-24.5 215.5,0 333.5,0 333.5,-24.5"/>
<text text-anchor="middle" x="274.5" y="-7.2" font-family="Helvetica,sans-Serif" font-size="14.00">TplApp\process</text>
</a>
</g>
</g>
<!-- Node2&#45;&gt;Node3 -->
<g id="edge2_Node000002_Node000003" class="edge">
<title>Node2&#45;&gt;Node3</title>
<g id="a_edge2_Node000002_Node000003"><a xlink:title=" ">
<path fill="none" stroke="#63b8ff" d="M357.81,-12.25C349.6,-12.25 341.53,-12.25 333.83,-12.25"/>
<polygon fill="#63b8ff" stroke="#63b8ff" points="357.53,-15.75 367.53,-12.25 357.53,-8.75 357.53,-15.75"/>
</a>
</g>
</g>
<!-- Node4 -->
<g id="Node000004" class="node">
<title>Node4</title>
<g id="a_Node000004"><a xlink:href="../../dd/dea/classActionReload.html#a9caf3b20c05475876e5dc72cdcdf6024" target="_top" xlink:title=" ">
<polygon fill="white" stroke="#666666" points="179.5,-24.5 0,-24.5 0,0 179.5,0 179.5,-24.5"/>
<text text-anchor="middle" x="89.75" y="-7.2" font-family="Helvetica,sans-Serif" font-size="14.00">ActionReload\__construct</text>
</a>
</g>
</g>
<!-- Node3&#45;&gt;Node4 -->
<g id="edge3_Node000003_Node000004" class="edge">
<title>Node3&#45;&gt;Node4</title>
<g id="a_edge3_Node000003_Node000004"><a xlink:title=" ">
<path fill="none" stroke="#63b8ff" d="M203.85,-12.25C195.99,-12.25 187.9,-12.25 179.83,-12.25"/>
<polygon fill="#63b8ff" stroke="#63b8ff" points="203.66,-15.75 213.66,-12.25 203.66,-8.75 203.66,-15.75"/>
</a>
</g>
</g>
</g>
</svg>
