<?xml version="1.0" encoding="UTF-8" standalone="no"?>
<!--
  - Copyright (c) 2021-2024 Bearsampp
  - License:  GNU General Public License version 3 or later; see LICENSE.txt
  - Author: Bear
  - Website: https://bearsampp.com
  - Github: https://github.com/Bearsampp
  -->

<!DOCTYPE svg PUBLIC "-//W3C//DTD SVG 1.1//EN"
 "http://www.w3.org/Graphics/SVG/1.1/DTD/svg11.dtd">
<!-- Generated by graphviz version 11.0.0 (20240428.1522)
 -->
<!-- Title: Vbs\getResultFile Pages: 1 -->
<!--zoomable 641 -->

<svg id="main" version="1.1" xmlns="http://www.w3.org/2000/svg" xmlns:xlink="http://www.w3.org/1999/xlink" xml:space="preserve" onload="init(evt)">
<style type="text/css"><![CDATA[
.node, .edge {opacity: 0.7;}
.node.selected, .edge.selected {opacity: 1;}
.edge:hover path { stroke: red; }
.edge:hover polygon { stroke: red; fill: red; }
]]></style>

<defs>
  <circle id="rim" cx="0" cy="0" r="7"/>
  <circle id="rim2" cx="0" cy="0" r="3.5"/>
  <g id="zoomPlus">
    <use xlink:href="#rim" fill="#404040"><set attributeName="fill" to="#808080" begin="zoomplus.mouseover" end="zoomplus.mouseout"/></use>
    <path d="M-4,0h8M0,-4v8" fill="none" stroke="white" stroke-width="1.5" pointer-events="none"/>
  </g>
  <g id="zoomMin">
    <use xlink:href="#rim" fill="#404040"><set attributeName="fill" to="#808080" begin="zoomminus.mouseover" end="zoomminus.mouseout"/></use>
    <path d="M-4,0h8" fill="none" stroke="white" stroke-width="1.5" pointer-events="none"/>
  </g>
  <g id="arrowUp" transform="translate(30 24)">
    <use xlink:href="#rim"/>
    <path pointer-events="none" fill="none" stroke="white" stroke-width="1.5" d="M0,-3.0v7 M-2.5,-0.5L0,-3.0L2.5,-0.5"/>
  </g>
  <g id="arrowRight" transform="rotate(90) translate(36 -43)">
    <use xlink:href="#rim"/>
    <path pointer-events="none" fill="none" stroke="white" stroke-width="1.5" d="M0,-3.0v7 M-2.5,-0.5L0,-3.0L2.5,-0.5"/>
  </g>
  <g id="arrowDown" transform="rotate(180) translate(-30 -48)">
    <use xlink:href="#rim"/>
    <path pointer-events="none" fill="none" stroke="white" stroke-width="1.5" d="M0,-3.0v7 M-2.5,-0.5L0,-3.0L2.5,-0.5"/>
  </g>
  <g id="arrowLeft" transform="rotate(270) translate(-36 17)">
    <use xlink:href="#rim"/>
    <path pointer-events="none" fill="none" stroke="white" stroke-width="1.5" d="M0,-3.0v7 M-2.5,-0.5L0,-3.0L2.5,-0.5"/>
  </g>
  <g id="resetDef">
    <use xlink:href="#rim2" fill="#404040"><set attributeName="fill" to="#808080" begin="reset.mouseover" end="reset.mouseout"/></use>
  </g>
</defs>
<script type="application/ecmascript">
var viewWidth = 1502;
var viewHeight = 641;
var sectionId = 'dynsection-5';
</script>
<script type="application/ecmascript" xlink:href="../../svg.min.js"/>
<svg id="graph" class="graph">
<g id="viewport">
<title>Vbs\getResultFile</title>
<!-- Node1 -->
<g id="Node000001" class="node">
<title>Node1</title>
<g id="a_Node000001"><a xlink:title=" ">
<polygon fill="#999999" stroke="#666666" points="1494.25,-326.5 1365,-326.5 1365,-302 1494.25,-302 1494.25,-326.5"/>
<text text-anchor="middle" x="1429.62" y="-309.2" font-family="Helvetica,sans-Serif" font-size="14.00">Vbs\getResultFile</text>
</a>
</g>
</g>
<!-- Node2 -->
<g id="Node000002" class="node">
<title>Node2</title>
<g id="a_Node000002"><a xlink:href="../../dd/de9/classVbs.html#a640cefad4fc0c28bcd23a41c7ae82451" target="_top" xlink:title=" ">
<polygon fill="white" stroke="#666666" points="1319.25,-541.5 1160,-541.5 1160,-517 1319.25,-517 1319.25,-541.5"/>
<text text-anchor="middle" x="1239.62" y="-524.2" font-family="Helvetica,sans-Serif" font-size="14.00">Vbs\countFilesFolders</text>
</a>
</g>
</g>
<!-- Node1&#45;&gt;Node2 -->
<g id="edge1_Node000001_Node000002" class="edge">
<title>Node1&#45;&gt;Node2</title>
<g id="a_edge1_Node000001_Node000002"><a xlink:title=" ">
<path fill="none" stroke="#63b8ff" d="M1423.2,-337.97C1412.53,-379 1384.87,-463.06 1329,-507.25 1324.29,-510.98 1319.03,-514.08 1313.48,-516.67"/>
<polygon fill="#63b8ff" stroke="#63b8ff" points="1426.56,-338.95 1425.56,-328.4 1419.76,-337.27 1426.56,-338.95"/>
</a>
</g>
</g>
<!-- Node3 -->
<g id="Node000003" class="node">
<title>Node3</title>
<g id="a_Node000003"><a xlink:href="../../dd/de9/classVbs.html#ac49556d381f31a45a6103d83b0336329" target="_top" xlink:title=" ">
<polygon fill="white" stroke="#666666" points="1308.38,-498.5 1170.88,-498.5 1170.88,-474 1308.38,-474 1308.38,-498.5"/>
<text text-anchor="middle" x="1239.62" y="-481.2" font-family="Helvetica,sans-Serif" font-size="14.00">Vbs\createShortcut</text>
</a>
</g>
</g>
<!-- Node1&#45;&gt;Node3 -->
<g id="edge2_Node000001_Node000003" class="edge">
<title>Node1&#45;&gt;Node3</title>
<g id="a_edge2_Node000001_Node000003"><a xlink:title=" ">
<path fill="none" stroke="#63b8ff" d="M1419.82,-337.1C1405.79,-370.36 1375.16,-431.69 1329,-464.25 1322.8,-468.62 1315.81,-472.13 1308.56,-474.94"/>
<polygon fill="#63b8ff" stroke="#63b8ff" points="1422.99,-338.58 1423.52,-328 1416.51,-335.95 1422.99,-338.58"/>
</a>
</g>
</g>
<!-- Node8 -->
<g id="Node000008" class="node">
<title>Node8</title>
<g id="a_Node000008"><a xlink:href="../../db/d0d/classRegistry.html#a08f9ad8c7f3e0d8eb42ca68d23dc9a3c" target="_top" xlink:title=" ">
<polygon fill="white" stroke="#666666" points="1294.12,-326.5 1185.12,-326.5 1185.12,-302 1294.12,-302 1294.12,-326.5"/>
<text text-anchor="middle" x="1239.62" y="-309.2" font-family="Helvetica,sans-Serif" font-size="14.00">Registry\exists</text>
</a>
</g>
</g>
<!-- Node1&#45;&gt;Node8 -->
<g id="edge7_Node000001_Node000008" class="edge">
<title>Node1&#45;&gt;Node8</title>
<g id="a_edge7_Node000001_Node000008"><a xlink:title=" ">
<path fill="none" stroke="#63b8ff" d="M1353.26,-314.25C1333.54,-314.25 1312.68,-314.25 1294.34,-314.25"/>
<polygon fill="#63b8ff" stroke="#63b8ff" points="1353.2,-317.75 1363.2,-314.25 1353.2,-310.75 1353.2,-317.75"/>
</a>
</g>
</g>
<!-- Node9 -->
<g id="Node000009" class="node">
<title>Node9</title>
<g id="a_Node000009"><a xlink:href="../../dd/de9/classVbs.html#a69142d090a5ad67d1ceb1e61e4aabf8c" target="_top" xlink:title=" ">
<polygon fill="white" stroke="#666666" points="1321.12,-455.5 1158.12,-455.5 1158.12,-431 1321.12,-431 1321.12,-455.5"/>
<text text-anchor="middle" x="1239.62" y="-438.2" font-family="Helvetica,sans-Serif" font-size="14.00">Vbs\getDefaultBrowser</text>
</a>
</g>
</g>
<!-- Node1&#45;&gt;Node9 -->
<g id="edge8_Node000001_Node000009" class="edge">
<title>Node1&#45;&gt;Node9</title>
<g id="a_edge8_Node000001_Node000009"><a xlink:title=" ">
<path fill="none" stroke="#63b8ff" d="M1414.39,-335.87C1397.11,-360.35 1365.71,-399.62 1329,-421.25 1322.73,-424.94 1315.87,-428.02 1308.82,-430.58"/>
<polygon fill="#63b8ff" stroke="#63b8ff" points="1417.06,-338.15 1419.84,-327.93 1411.29,-334.19 1417.06,-338.15"/>
</a>
</g>
</g>
<!-- Node12 -->
<g id="Node000012" class="node">
<title>Node12</title>
<g id="a_Node000012"><a xlink:href="../../dd/de9/classVbs.html#a100363cb22a264f99b1913de37a23acc" target="_top" xlink:title=" ">
<polygon fill="white" stroke="#666666" points="1329,-283.5 1150.25,-283.5 1150.25,-259 1329,-259 1329,-283.5"/>
<text text-anchor="middle" x="1239.62" y="-266.2" font-family="Helvetica,sans-Serif" font-size="14.00">Vbs\getInstalledBrowsers</text>
</a>
</g>
</g>
<!-- Node1&#45;&gt;Node12 -->
<g id="edge12_Node000001_Node000012" class="edge">
<title>Node1&#45;&gt;Node12</title>
<g id="a_edge12_Node000001_Node000012"><a xlink:title=" ">
<path fill="none" stroke="#63b8ff" d="M1361.94,-299C1340.4,-294.07 1316.76,-288.66 1296.13,-283.94"/>
<polygon fill="#63b8ff" stroke="#63b8ff" points="1360.98,-302.37 1371.51,-301.19 1362.54,-295.54 1360.98,-302.37"/>
</a>
</g>
</g>
<!-- Node14 -->
<g id="Node000014" class="node">
<title>Node14</title>
<g id="a_Node000014"><a xlink:href="../../dd/de9/classVbs.html#afbbfb279335ab8f60360ac25454de193" target="_top" xlink:title=" ">
<polygon fill="white" stroke="#666666" points="1302.38,-412.5 1176.88,-412.5 1176.88,-388 1302.38,-388 1302.38,-412.5"/>
<text text-anchor="middle" x="1239.62" y="-395.2" font-family="Helvetica,sans-Serif" font-size="14.00">Vbs\getListProcs</text>
</a>
</g>
</g>
<!-- Node1&#45;&gt;Node14 -->
<g id="edge14_Node000001_Node000014" class="edge">
<title>Node1&#45;&gt;Node14</title>
<g id="a_edge14_Node000001_Node000014"><a xlink:title=" ">
<path fill="none" stroke="#63b8ff" d="M1403.6,-333.63C1384.19,-347.81 1356.13,-366.54 1329,-378.25 1320.73,-381.82 1311.75,-384.89 1302.81,-387.51"/>
<polygon fill="#63b8ff" stroke="#63b8ff" points="1405.5,-336.57 1411.43,-327.79 1401.32,-330.96 1405.5,-336.57"/>
</a>
</g>
</g>
<!-- Node28 -->
<g id="Node000028" class="node">
<title>Node28</title>
<g id="a_Node000028"><a xlink:href="../../dd/de9/classVbs.html#a0caaf59e2ff4129acd1dfe1ab03aa67d" target="_top" xlink:title=" ">
<polygon fill="white" stroke="#666666" points="1312.5,-240.5 1166.75,-240.5 1166.75,-216 1312.5,-216 1312.5,-240.5"/>
<text text-anchor="middle" x="1239.62" y="-223.2" font-family="Helvetica,sans-Serif" font-size="14.00">Vbs\getServiceInfos</text>
</a>
</g>
</g>
<!-- Node1&#45;&gt;Node28 -->
<g id="edge30_Node000001_Node000028" class="edge">
<title>Node1&#45;&gt;Node28</title>
<g id="a_edge30_Node000001_Node000028"><a xlink:title=" ">
<path fill="none" stroke="#63b8ff" d="M1403.6,-294.87C1384.19,-280.69 1356.13,-261.96 1329,-250.25 1320.73,-246.68 1311.75,-243.61 1302.81,-240.99"/>
<polygon fill="#63b8ff" stroke="#63b8ff" points="1401.32,-297.54 1411.43,-300.71 1405.5,-291.93 1401.32,-297.54"/>
</a>
</g>
</g>
<!-- Node31 -->
<g id="Node000031" class="node">
<title>Node31</title>
<g id="a_Node000031"><a xlink:href="../../dd/de9/classVbs.html#a659e3763b0d13a6e60c1068bcdcb6e81" target="_top" xlink:title=" ">
<polygon fill="white" stroke="#666666" points="1310.25,-197.5 1169,-197.5 1169,-173 1310.25,-173 1310.25,-197.5"/>
<text text-anchor="middle" x="1239.62" y="-180.2" font-family="Helvetica,sans-Serif" font-size="14.00">Vbs\getSpecialPath</text>
</a>
</g>
</g>
<!-- Node1&#45;&gt;Node31 -->
<g id="edge33_Node000001_Node000031" class="edge">
<title>Node1&#45;&gt;Node31</title>
<g id="a_edge33_Node000001_Node000031"><a xlink:title=" ">
<path fill="none" stroke="#63b8ff" d="M1414.39,-292.63C1397.11,-268.15 1365.71,-228.88 1329,-207.25 1322.73,-203.56 1315.87,-200.48 1308.82,-197.92"/>
<polygon fill="#63b8ff" stroke="#63b8ff" points="1411.29,-294.31 1419.84,-300.57 1417.06,-290.35 1411.29,-294.31"/>
</a>
</g>
</g>
<!-- Node34 -->
<g id="Node000034" class="node">
<title>Node34</title>
<g id="a_Node000034"><a xlink:href="../../db/d0d/classRegistry.html#a5936f182b778b24d86ff9f02d676d39d" target="_top" xlink:title=" ">
<polygon fill="white" stroke="#666666" points="1303.88,-154.5 1175.38,-154.5 1175.38,-130 1303.88,-130 1303.88,-154.5"/>
<text text-anchor="middle" x="1239.62" y="-137.2" font-family="Helvetica,sans-Serif" font-size="14.00">Registry\getValue</text>
</a>
</g>
</g>
<!-- Node1&#45;&gt;Node34 -->
<g id="edge36_Node000001_Node000034" class="edge">
<title>Node1&#45;&gt;Node34</title>
<g id="a_edge36_Node000001_Node000034"><a xlink:title=" ">
<path fill="none" stroke="#63b8ff" d="M1419.82,-291.4C1405.79,-258.14 1375.16,-196.81 1329,-164.25 1321.51,-158.96 1312.87,-154.94 1304,-151.89"/>
<polygon fill="#63b8ff" stroke="#63b8ff" points="1416.51,-292.55 1423.52,-300.5 1422.99,-289.92 1416.51,-292.55"/>
</a>
</g>
</g>
<!-- Node35 -->
<g id="Node000035" class="node">
<title>Node35</title>
<g id="a_Node000035"><a xlink:href="../../dd/de9/classVbs.html#a986c247220459b9cc3cd7c5ba77d7fcb" target="_top" xlink:title=" ">
<polygon fill="white" stroke="#666666" points="1285.12,-369.5 1194.12,-369.5 1194.12,-345 1285.12,-345 1285.12,-369.5"/>
<text text-anchor="middle" x="1239.62" y="-352.2" font-family="Helvetica,sans-Serif" font-size="14.00">Vbs\killProc</text>
</a>
</g>
</g>
<!-- Node1&#45;&gt;Node35 -->
<g id="edge37_Node000001_Node000035" class="edge">
<title>Node1&#45;&gt;Node35</title>
<g id="a_edge37_Node000001_Node000035"><a xlink:title=" ">
<path fill="none" stroke="#63b8ff" d="M1361.93,-329.5C1336.56,-335.31 1308.27,-341.78 1285.4,-347.01"/>
<polygon fill="#63b8ff" stroke="#63b8ff" points="1362.54,-332.96 1371.51,-327.31 1360.98,-326.13 1362.54,-332.96"/>
</a>
</g>
</g>
<!-- Node43 -->
<g id="Node000043" class="node">
<title>Node43</title>
<g id="a_Node000043"><a xlink:href="../../db/d0d/classRegistry.html#a190f76a5541f724f564124ea4df49313" target="_top" xlink:title=" ">
<polygon fill="white" stroke="#666666" points="1303.5,-97.5 1175.75,-97.5 1175.75,-73 1303.5,-73 1303.5,-97.5"/>
<text text-anchor="middle" x="1239.62" y="-80.2" font-family="Helvetica,sans-Serif" font-size="14.00">Registry\setValue</text>
</a>
</g>
</g>
<!-- Node1&#45;&gt;Node43 -->
<g id="edge48_Node000001_Node000043" class="edge">
<title>Node1&#45;&gt;Node43</title>
<g id="a_edge48_Node000001_Node000043"><a xlink:title=" ">
<path fill="none" stroke="#63b8ff" d="M1422.27,-290.5C1410.4,-250.39 1381.21,-168.98 1329,-121.25 1317.75,-110.97 1303.17,-103.42 1289.11,-97.98"/>
<polygon fill="#63b8ff" stroke="#63b8ff" points="1418.89,-291.41 1424.99,-300.08 1425.63,-289.5 1418.89,-291.41"/>
</a>
</g>
</g>
<!-- Node4 -->
<g id="Node000004" class="node">
<title>Node4</title>
<g id="a_Node000004"><a xlink:href="../../d6/de4/classUtil.html#a9b64e35b8dd40090371f1710d3e3e22b" target="_top" xlink:title=" ">
<polygon fill="white" stroke="#666666" points="1110.88,-575.5 938.12,-575.5 938.12,-551 1110.88,-551 1110.88,-575.5"/>
<text text-anchor="middle" x="1024.5" y="-558.2" font-family="Helvetica,sans-Serif" font-size="14.00">Util\enableLaunchStartup</text>
</a>
</g>
</g>
<!-- Node3&#45;&gt;Node4 -->
<g id="edge3_Node000003_Node000004" class="edge">
<title>Node3&#45;&gt;Node4</title>
<g id="a_edge3_Node000003_Node000004"><a xlink:title=" ">
<path fill="none" stroke="#63b8ff" d="M1170.71,-501.9C1163.75,-503.87 1156.83,-506 1150.25,-508.25 1114.87,-520.35 1075.64,-538.47 1050.79,-550.56"/>
<polygon fill="#63b8ff" stroke="#63b8ff" points="1171.45,-505.32 1180.17,-499.31 1169.6,-498.57 1171.45,-505.32"/>
</a>
</g>
</g>
<!-- Node5 -->
<g id="Node000005" class="node">
<title>Node5</title>
<g id="a_Node000005"><a xlink:href="../../d7/d5e/classActionLaunchStartup.html#ac73132d2feaecbc33b08f312c698e035" target="_top" xlink:title=" ">
<polygon fill="white" stroke="#666666" points="865.38,-632.75 718.88,-632.75 718.88,-591.75 865.38,-591.75 865.38,-632.75"/>
<text text-anchor="start" x="726.88" y="-615.45" font-family="Helvetica,sans-Serif" font-size="14.00">ActionLaunchStartup</text>
<text text-anchor="middle" x="792.12" y="-598.95" font-family="Helvetica,sans-Serif" font-size="14.00">\__construct</text>
</a>
</g>
</g>
<!-- Node4&#45;&gt;Node5 -->
<g id="edge4_Node000004_Node000005" class="edge">
<title>Node4&#45;&gt;Node5</title>
<g id="a_edge4_Node000004_Node000005"><a xlink:title=" ">
<path fill="none" stroke="#63b8ff" d="M952.41,-578.37C924.8,-584.24 893.21,-590.96 865.48,-596.86"/>
<polygon fill="#63b8ff" stroke="#63b8ff" points="953.04,-581.82 962.09,-576.31 951.58,-574.97 953.04,-581.82"/>
</a>
</g>
</g>
<!-- Node6 -->
<g id="Node000006" class="node">
<title>Node6</title>
<g id="a_Node000006"><a xlink:href="../../d1/db8/classActionStartup.html#a8bce5b2ec99fc47b5e454fd09f926e10" target="_top" xlink:title=" ">
<polygon fill="white" stroke="#666666" points="641.25,-587.75 453.5,-587.75 453.5,-546.75 641.25,-546.75 641.25,-587.75"/>
<text text-anchor="start" x="461.5" y="-570.45" font-family="Helvetica,sans-Serif" font-size="14.00">ActionStartup\checkLaunch</text>
<text text-anchor="middle" x="547.38" y="-553.95" font-family="Helvetica,sans-Serif" font-size="14.00">Startup</text>
</a>
</g>
</g>
<!-- Node4&#45;&gt;Node6 -->
<g id="edge5_Node000004_Node000006" class="edge">
<title>Node4&#45;&gt;Node6</title>
<g id="a_edge5_Node000004_Node000006"><a xlink:title=" ">
<path fill="none" stroke="#63b8ff" d="M926.22,-564.07C842.91,-564.77 723.73,-565.77 641.61,-566.47"/>
<polygon fill="#63b8ff" stroke="#63b8ff" points="926.25,-567.57 936.22,-563.98 926.19,-560.57 926.25,-567.57"/>
</a>
</g>
</g>
<!-- Node7 -->
<g id="Node000007" class="node">
<title>Node7</title>
<g id="a_Node000007"><a xlink:href="../../d1/db8/classActionStartup.html#a1234a0f2093a95140d6f86983514d28f" target="_top" xlink:title=" ">
<polygon fill="white" stroke="#666666" points="409.25,-530.5 202,-530.5 202,-506 409.25,-506 409.25,-530.5"/>
<text text-anchor="middle" x="305.62" y="-513.2" font-family="Helvetica,sans-Serif" font-size="14.00">ActionStartup\processWindow</text>
</a>
</g>
</g>
<!-- Node6&#45;&gt;Node7 -->
<g id="edge6_Node000006_Node000007" class="edge">
<title>Node6&#45;&gt;Node7</title>
<g id="a_edge6_Node000006_Node000007"><a xlink:title=" ">
<path fill="none" stroke="#63b8ff" d="M442.3,-545.98C417.28,-540.87 391.32,-535.56 368.89,-530.97"/>
<polygon fill="#63b8ff" stroke="#63b8ff" points="441.36,-549.36 451.86,-547.93 442.76,-542.5 441.36,-549.36"/>
</a>
</g>
</g>
<!-- Node10 -->
<g id="Node000010" class="node">
<title>Node10</title>
<g id="a_Node000010"><a xlink:href="../../dd/dea/classActionReload.html#a9caf3b20c05475876e5dc72cdcdf6024" target="_top" xlink:title=" ">
<polygon fill="white" stroke="#666666" points="1114.25,-455.5 934.75,-455.5 934.75,-431 1114.25,-431 1114.25,-455.5"/>
<text text-anchor="middle" x="1024.5" y="-438.2" font-family="Helvetica,sans-Serif" font-size="14.00">ActionReload\__construct</text>
</a>
</g>
</g>
<!-- Node9&#45;&gt;Node10 -->
<g id="edge9_Node000009_Node000010" class="edge">
<title>Node9&#45;&gt;Node10</title>
<g id="a_edge9_Node000009_Node000010"><a xlink:title=" ">
<path fill="none" stroke="#63b8ff" d="M1146.37,-443.25C1135.8,-443.25 1125.04,-443.25 1114.51,-443.25"/>
<polygon fill="#63b8ff" stroke="#63b8ff" points="1146.23,-446.75 1156.23,-443.25 1146.23,-439.75 1146.23,-446.75"/>
</a>
</g>
</g>
<!-- Node11 -->
<g id="Node000011" class="node">
<title>Node11</title>
<g id="a_Node000011"><a xlink:href="../../d1/db8/classActionStartup.html#a289894c6870f166c625cd42db62f624b" target="_top" xlink:title=" ">
<polygon fill="white" stroke="#666666" points="889.38,-531.5 694.88,-531.5 694.88,-507 889.38,-507 889.38,-531.5"/>
<text text-anchor="middle" x="792.12" y="-514.2" font-family="Helvetica,sans-Serif" font-size="14.00">ActionStartup\checkBrowser</text>
</a>
</g>
</g>
<!-- Node9&#45;&gt;Node11 -->
<g id="edge10_Node000009_Node000011" class="edge">
<title>Node9&#45;&gt;Node11</title>
<g id="a_edge10_Node000009_Node000011"><a xlink:title=" ">
<path fill="none" stroke="#63b8ff" d="M1152.92,-457.87C1070.21,-471.98 946.26,-493.13 867.56,-506.55"/>
<polygon fill="#63b8ff" stroke="#63b8ff" points="1153.3,-461.36 1162.57,-456.23 1152.12,-454.46 1153.3,-461.36"/>
</a>
</g>
</g>
<!-- Node11&#45;&gt;Node7 -->
<g id="edge11_Node000011_Node000007" class="edge">
<title>Node11&#45;&gt;Node7</title>
<g id="a_edge11_Node000011_Node000007"><a xlink:title=" ">
<path fill="none" stroke="#63b8ff" d="M683.22,-519.03C601.58,-518.86 490.18,-518.63 409.74,-518.46"/>
<polygon fill="#63b8ff" stroke="#63b8ff" points="683.01,-522.53 693.02,-519.05 683.03,-515.53 683.01,-522.53"/>
</a>
</g>
</g>
<!-- Node13 -->
<g id="Node000013" class="node">
<title>Node13</title>
<g id="a_Node000013"><a xlink:href="../../db/d91/classActionChangeBrowser.html#af9e69c72b691978f51e2ae5de05faa5d" target="_top" xlink:title=" ">
<polygon fill="white" stroke="#666666" points="1103.38,-314.75 945.62,-314.75 945.62,-273.75 1103.38,-273.75 1103.38,-314.75"/>
<text text-anchor="start" x="953.62" y="-297.45" font-family="Helvetica,sans-Serif" font-size="14.00">ActionChangeBrowser</text>
<text text-anchor="middle" x="1024.5" y="-280.95" font-family="Helvetica,sans-Serif" font-size="14.00">\__construct</text>
</a>
</g>
</g>
<!-- Node12&#45;&gt;Node13 -->
<g id="edge13_Node000012_Node000013" class="edge">
<title>Node12&#45;&gt;Node13</title>
<g id="a_edge13_Node000012_Node000013"><a xlink:title=" ">
<path fill="none" stroke="#63b8ff" d="M1138.59,-282.05C1126.87,-283.31 1115.04,-284.59 1103.67,-285.81"/>
<polygon fill="#63b8ff" stroke="#63b8ff" points="1138.71,-285.55 1148.28,-281 1137.96,-278.59 1138.71,-285.55"/>
</a>
</g>
</g>
<!-- Node15 -->
<g id="Node000015" class="node">
<title>Node15</title>
<g id="a_Node000015"><a xlink:href="../../dc/ddb/classWin32Ps.html#afea33a59c09d4c9e2fe1bdf0d5b1d406" target="_top" xlink:title=" ">
<polygon fill="white" stroke="#666666" points="1103.75,-412.5 945.25,-412.5 945.25,-388 1103.75,-388 1103.75,-412.5"/>
<text text-anchor="middle" x="1024.5" y="-395.2" font-family="Helvetica,sans-Serif" font-size="14.00">Win32Ps\getListProcs</text>
</a>
</g>
</g>
<!-- Node14&#45;&gt;Node15 -->
<g id="edge15_Node000014_Node000015" class="edge">
<title>Node14&#45;&gt;Node15</title>
<g id="a_edge15_Node000014_Node000015"><a xlink:title=" ">
<path fill="none" stroke="#63b8ff" d="M1165.04,-400.25C1145.37,-400.25 1124.04,-400.25 1104.11,-400.25"/>
<polygon fill="#63b8ff" stroke="#63b8ff" points="1164.89,-403.75 1174.89,-400.25 1164.89,-396.75 1164.89,-403.75"/>
</a>
</g>
</g>
<!-- Node16 -->
<g id="Node000016" class="node">
<title>Node16</title>
<g id="a_Node000016"><a xlink:href="../../dc/ddb/classWin32Ps.html#ac0804222f21d96f2404bd798c5805576" target="_top" xlink:title=" ">
<polygon fill="white" stroke="#666666" points="865.38,-445.5 718.88,-445.5 718.88,-421 865.38,-421 865.38,-445.5"/>
<text text-anchor="middle" x="792.12" y="-428.2" font-family="Helvetica,sans-Serif" font-size="14.00">Win32Ps\findByPath</text>
</a>
</g>
</g>
<!-- Node15&#45;&gt;Node16 -->
<g id="edge16_Node000015_Node000016" class="edge">
<title>Node15&#45;&gt;Node16</title>
<g id="a_edge16_Node000015_Node000016"><a xlink:title=" ">
<path fill="none" stroke="#63b8ff" d="M933.58,-413.13C911.05,-416.36 887.16,-419.78 865.6,-422.87"/>
<polygon fill="#63b8ff" stroke="#63b8ff" points="933.96,-416.61 943.36,-411.73 932.97,-409.68 933.96,-416.61"/>
</a>
</g>
</g>
<!-- Node17 -->
<g id="Node000017" class="node">
<title>Node17</title>
<g id="a_Node000017"><a xlink:href="../../dc/ddb/classWin32Ps.html#a055648012f53f02dc744387e07e25f0a" target="_top" xlink:title=" ">
<polygon fill="white" stroke="#666666" points="861.62,-402.5 722.62,-402.5 722.62,-378 861.62,-378 861.62,-402.5"/>
<text text-anchor="middle" x="792.12" y="-385.2" font-family="Helvetica,sans-Serif" font-size="14.00">Win32Ps\findByPid</text>
</a>
</g>
</g>
<!-- Node15&#45;&gt;Node17 -->
<g id="edge17_Node000015_Node000017" class="edge">
<title>Node15&#45;&gt;Node17</title>
<g id="a_edge17_Node000015_Node000017"><a xlink:title=" ">
<path fill="none" stroke="#63b8ff" d="M933.65,-396.35C909.76,-395.31 884.34,-394.21 861.79,-393.23"/>
<polygon fill="#63b8ff" stroke="#63b8ff" points="933.21,-399.83 943.35,-396.77 933.51,-392.84 933.21,-399.83"/>
</a>
</g>
</g>
<!-- Node19 -->
<g id="Node000019" class="node">
<title>Node19</title>
<g id="a_Node000019"><a xlink:href="../../dc/ddb/classWin32Ps.html#aa522ce4696d00af3e499932fff26a2da" target="_top" xlink:title=" ">
<polygon fill="white" stroke="#666666" points="853,-359.5 731.25,-359.5 731.25,-335 853,-335 853,-359.5"/>
<text text-anchor="middle" x="792.12" y="-342.2" font-family="Helvetica,sans-Serif" font-size="14.00">Win32Ps\killBins</text>
</a>
</g>
</g>
<!-- Node15&#45;&gt;Node19 -->
<g id="edge19_Node000015_Node000019" class="edge">
<title>Node15&#45;&gt;Node19</title>
<g id="a_edge19_Node000015_Node000019"><a xlink:title=" ">
<path fill="none" stroke="#63b8ff" d="M963.08,-384.74C942.69,-379.64 919.77,-374.05 898.75,-369.25 884.05,-365.89 868.15,-362.47 853.26,-359.36"/>
<polygon fill="#63b8ff" stroke="#63b8ff" points="962.11,-388.11 972.66,-387.15 963.81,-381.32 962.11,-388.11"/>
</a>
</g>
</g>
<!-- Node27 -->
<g id="Node000027" class="node">
<title>Node27</title>
<g id="a_Node000027"><a xlink:href="../../d8/d73/classRoot.html#a5822729d482ed44e43363b12af6c4695" target="_top" xlink:title=" ">
<polygon fill="white" stroke="#666666" points="841.38,-488.5 742.88,-488.5 742.88,-464 841.38,-464 841.38,-488.5"/>
<text text-anchor="middle" x="792.12" y="-471.2" font-family="Helvetica,sans-Serif" font-size="14.00">Root\register</text>
</a>
</g>
</g>
<!-- Node15&#45;&gt;Node27 -->
<g id="edge29_Node000015_Node000027" class="edge">
<title>Node15&#45;&gt;Node27</title>
<g id="a_edge29_Node000015_Node000027"><a xlink:title=" ">
<path fill="none" stroke="#63b8ff" d="M946.76,-416.71C942.62,-418.39 938.59,-420.23 934.75,-422.25 915.81,-432.23 917.87,-444.63 898.75,-454.25 881.18,-463.09 860.25,-468.38 841.68,-471.54"/>
<polygon fill="#63b8ff" stroke="#63b8ff" points="947.62,-420.12 955.8,-413.4 945.21,-413.55 947.62,-420.12"/>
</a>
</g>
</g>
<!-- Node18 -->
<g id="Node000018" class="node">
<title>Node18</title>
<g id="a_Node000018"><a xlink:href="../../dc/ddb/classWin32Ps.html#a9cb77db1e38839997bdd92489c47245a" target="_top" xlink:title=" ">
<polygon fill="white" stroke="#666666" points="604.88,-490.5 489.88,-490.5 489.88,-466 604.88,-466 604.88,-490.5"/>
<text text-anchor="middle" x="547.38" y="-473.2" font-family="Helvetica,sans-Serif" font-size="14.00">Win32Ps\exists</text>
</a>
</g>
</g>
<!-- Node17&#45;&gt;Node18 -->
<g id="edge18_Node000017_Node000018" class="edge">
<title>Node17&#45;&gt;Node18</title>
<g id="a_edge18_Node000017_Node000018"><a xlink:title=" ">
<path fill="none" stroke="#63b8ff" d="M711.54,-400.63C702.4,-403.6 693.5,-407.4 685.5,-412.25 663.9,-425.35 671.05,-443.05 649.5,-456.25 636.25,-464.37 620.41,-469.51 605.24,-472.77"/>
<polygon fill="#63b8ff" stroke="#63b8ff" points="712.26,-404.07 720.9,-397.94 710.32,-397.34 712.26,-404.07"/>
</a>
</g>
</g>
<!-- Node20 -->
<g id="Node000020" class="node">
<title>Node20</title>
<g id="a_Node000020"><a xlink:href="../../d0/d9f/classActionManualRestart.html#a229630778cbd92fef95f4e99e872fdca" target="_top" xlink:title=" ">
<polygon fill="white" stroke="#666666" points="620.25,-275.75 474.5,-275.75 474.5,-234.75 620.25,-234.75 620.25,-275.75"/>
<text text-anchor="start" x="482.5" y="-258.45" font-family="Helvetica,sans-Serif" font-size="14.00">ActionManualRestart</text>
<text text-anchor="middle" x="547.38" y="-241.95" font-family="Helvetica,sans-Serif" font-size="14.00">\__construct</text>
</a>
</g>
</g>
<!-- Node19&#45;&gt;Node20 -->
<g id="edge20_Node000019_Node000020" class="edge">
<title>Node19&#45;&gt;Node20</title>
<g id="a_edge20_Node000019_Node000020"><a xlink:title=" ">
<path fill="none" stroke="#63b8ff" d="M719.93,-338.87C707.95,-335.68 696.01,-331.29 685.5,-325.25 664.76,-313.33 669.72,-298.02 649.5,-285.25 640.67,-279.68 630.76,-275.1 620.69,-271.35"/>
<polygon fill="#63b8ff" stroke="#63b8ff" points="718.89,-342.22 729.43,-341.13 720.51,-335.41 718.89,-342.22"/>
</a>
</g>
</g>
<!-- Node21 -->
<g id="Node000021" class="node">
<title>Node21</title>
<g id="a_Node000021"><a xlink:href="../../da/dbb/classBatch.html#a60ded4c18eb060829639a955ec294ffc" target="_top" xlink:title=" ">
<polygon fill="white" stroke="#666666" points="599.25,-318.5 495.5,-318.5 495.5,-294 599.25,-294 599.25,-318.5"/>
<text text-anchor="middle" x="547.38" y="-301.2" font-family="Helvetica,sans-Serif" font-size="14.00">Batch\exitApp</text>
</a>
</g>
</g>
<!-- Node19&#45;&gt;Node21 -->
<g id="edge21_Node000019_Node000021" class="edge">
<title>Node19&#45;&gt;Node21</title>
<g id="a_edge21_Node000019_Node000021"><a xlink:title=" ">
<path fill="none" stroke="#63b8ff" d="M719.63,-335.17C681.02,-328.65 634.25,-320.75 599.36,-314.86"/>
<polygon fill="#63b8ff" stroke="#63b8ff" points="718.87,-338.6 729.32,-336.81 720.04,-331.69 718.87,-338.6"/>
</a>
</g>
</g>
<!-- Node24 -->
<g id="Node000024" class="node">
<title>Node24</title>
<g id="a_Node000024"><a xlink:href="../../d1/db8/classActionStartup.html#a7a49b348e0daf7c1afc440479e15335a" target="_top" xlink:title=" ">
<polygon fill="white" stroke="#666666" points="649.5,-361.5 445.25,-361.5 445.25,-337 649.5,-337 649.5,-361.5"/>
<text text-anchor="middle" x="547.38" y="-344.2" font-family="Helvetica,sans-Serif" font-size="14.00">ActionStartup\killOldInstances</text>
</a>
</g>
</g>
<!-- Node19&#45;&gt;Node24 -->
<g id="edge25_Node000019_Node000024" class="edge">
<title>Node19&#45;&gt;Node24</title>
<g id="a_edge25_Node000019_Node000024"><a xlink:title=" ">
<path fill="none" stroke="#63b8ff" d="M719.35,-347.84C697.6,-348.02 673.29,-348.22 649.98,-348.41"/>
<polygon fill="#63b8ff" stroke="#63b8ff" points="719.32,-351.34 729.29,-347.76 719.27,-344.34 719.32,-351.34"/>
</a>
</g>
</g>
<!-- Node25 -->
<g id="Node000025" class="node">
<title>Node25</title>
<g id="a_Node000025"><a xlink:href="../../de/d86/classActionQuit.html#a2331cc6725be5a9283c65d462bfb5f5b" target="_top" xlink:title=" ">
<polygon fill="white" stroke="#666666" points="641.25,-447.5 453.5,-447.5 453.5,-423 641.25,-423 641.25,-447.5"/>
<text text-anchor="middle" x="547.38" y="-430.2" font-family="Helvetica,sans-Serif" font-size="14.00">ActionQuit\processWindow</text>
</a>
</g>
</g>
<!-- Node19&#45;&gt;Node25 -->
<g id="edge27_Node000019_Node000025" class="edge">
<title>Node19&#45;&gt;Node25</title>
<g id="a_edge27_Node000019_Node000025"><a xlink:title=" ">
<path fill="none" stroke="#63b8ff" d="M719.9,-355.16C707.87,-358.4 695.92,-362.93 685.5,-369.25 663.9,-382.35 671.05,-400.05 649.5,-413.25 643.52,-416.91 637.02,-419.97 630.29,-422.52"/>
<polygon fill="#63b8ff" stroke="#63b8ff" points="720.53,-358.61 729.45,-352.88 718.91,-351.8 720.53,-358.61"/>
</a>
</g>
</g>
<!-- Node26 -->
<g id="Node000026" class="node">
<title>Node26</title>
<g id="a_Node000026"><a xlink:href="../../d1/d42/classActionExt.html#a773acee7f7d11b500400d4c897323076" target="_top" xlink:title=" ">
<polygon fill="white" stroke="#666666" points="624.38,-404.5 470.38,-404.5 470.38,-380 624.38,-380 624.38,-404.5"/>
<text text-anchor="middle" x="547.38" y="-387.2" font-family="Helvetica,sans-Serif" font-size="14.00">ActionExt\procReload</text>
</a>
</g>
</g>
<!-- Node19&#45;&gt;Node26 -->
<g id="edge28_Node000019_Node000026" class="edge">
<title>Node19&#45;&gt;Node26</title>
<g id="a_edge28_Node000019_Node000026"><a xlink:title=" ">
<path fill="none" stroke="#63b8ff" d="M719.6,-360.51C687.18,-366.52 649.02,-373.59 616.96,-379.54"/>
<polygon fill="#63b8ff" stroke="#63b8ff" points="720.12,-363.97 729.32,-358.71 718.85,-357.09 720.12,-363.97"/>
</a>
</g>
</g>
<!-- Node22 -->
<g id="Node000022" class="node">
<title>Node22</title>
<g id="a_Node000022"><a xlink:href="../../db/d8f/classActionExec.html#a8228382d8a7768239c559563a8d58994" target="_top" xlink:title=" ">
<polygon fill="white" stroke="#666666" points="166,-318.5 0,-318.5 0,-294 166,-294 166,-318.5"/>
<text text-anchor="middle" x="83" y="-301.2" font-family="Helvetica,sans-Serif" font-size="14.00">ActionExec\__construct</text>
</a>
</g>
</g>
<!-- Node21&#45;&gt;Node22 -->
<g id="edge22_Node000021_Node000022" class="edge">
<title>Node21&#45;&gt;Node22</title>
<g id="a_edge22_Node000021_Node000022"><a xlink:title=" ">
<path fill="none" stroke="#63b8ff" d="M484.05,-306.8C460.6,-306.98 433.7,-307.16 409.25,-307.25 317.14,-307.59 294.11,-307.64 202,-307.25 190.43,-307.2 178.21,-307.12 166.21,-307.04"/>
<polygon fill="#63b8ff" stroke="#63b8ff" points="483.77,-310.3 493.74,-306.72 483.72,-303.3 483.77,-310.3"/>
</a>
</g>
</g>
<!-- Node23 -->
<g id="Node000023" class="node">
<title>Node23</title>
<g id="a_Node000023"><a xlink:href="../../da/dbb/classBatch.html#ac5c8b3c31fa2a76d1cb2b1a10ff6d4d5" target="_top" xlink:title=" ">
<polygon fill="white" stroke="#666666" points="366.5,-298.5 244.75,-298.5 244.75,-274 366.5,-274 366.5,-298.5"/>
<text text-anchor="middle" x="305.62" y="-281.2" font-family="Helvetica,sans-Serif" font-size="14.00">Batch\restartApp</text>
</a>
</g>
</g>
<!-- Node21&#45;&gt;Node23 -->
<g id="edge23_Node000021_Node000023" class="edge">
<title>Node21&#45;&gt;Node23</title>
<g id="a_edge23_Node000021_Node000023"><a xlink:title=" ">
<path fill="none" stroke="#63b8ff" d="M483.83,-301.03C447.63,-298.01 402.32,-294.23 366.57,-291.25"/>
<polygon fill="#63b8ff" stroke="#63b8ff" points="483.47,-304.51 493.73,-301.86 484.05,-297.54 483.47,-304.51"/>
</a>
</g>
</g>
<!-- Node23&#45;&gt;Node22 -->
<g id="edge24_Node000023_Node000022" class="edge">
<title>Node23&#45;&gt;Node22</title>
<g id="a_edge24_Node000023_Node000022"><a xlink:title=" ">
<path fill="none" stroke="#63b8ff" d="M233.06,-292.74C211.7,-294.67 188.11,-296.81 166.13,-298.8"/>
<polygon fill="#63b8ff" stroke="#63b8ff" points="233.19,-296.24 242.83,-291.85 232.56,-289.27 233.19,-296.24"/>
</a>
</g>
</g>
<!-- Node24&#45;&gt;Node7 -->
<g id="edge26_Node000024_Node000007" class="edge">
<title>Node24&#45;&gt;Node7</title>
<g id="a_edge26_Node000024_Node000007"><a xlink:title=" ">
<path fill="none" stroke="#63b8ff" d="M455.36,-366.19C451.88,-367.73 448.5,-369.42 445.25,-371.25 383.87,-405.94 333.42,-476.78 314.57,-505.61"/>
<polygon fill="#63b8ff" stroke="#63b8ff" points="456.61,-369.46 464.62,-362.53 454.04,-362.95 456.61,-369.46"/>
</a>
</g>
</g>
<!-- Node29 -->
<g id="Node000029" class="node">
<title>Node29</title>
<g id="a_Node000029"><a xlink:href="../../d3/d93/classNssm.html#a185739880ce0854f69b2d53a1e25b4ec" target="_top" xlink:title=" ">
<polygon fill="white" stroke="#666666" points="1068.12,-255.5 980.88,-255.5 980.88,-231 1068.12,-231 1068.12,-255.5"/>
<text text-anchor="middle" x="1024.5" y="-238.2" font-family="Helvetica,sans-Serif" font-size="14.00">Nssm\infos</text>
</a>
</g>
</g>
<!-- Node28&#45;&gt;Node29 -->
<g id="edge31_Node000028_Node000029" class="edge">
<title>Node28&#45;&gt;Node29</title>
<g id="a_edge31_Node000028_Node000029"><a xlink:title=" ">
<path fill="none" stroke="#63b8ff" d="M1155.23,-234.12C1125.51,-236.21 1093.26,-238.48 1068.36,-240.23"/>
<polygon fill="#63b8ff" stroke="#63b8ff" points="1155.23,-237.63 1164.96,-233.43 1154.74,-230.65 1155.23,-237.63"/>
</a>
</g>
</g>
<!-- Node30 -->
<g id="Node000030" class="node">
<title>Node30</title>
<g id="a_Node000030"><a xlink:href="../../df/d28/classWin32Service.html#ab26c776c199da5736886440b68a9953c" target="_top" xlink:title=" ">
<polygon fill="white" stroke="#666666" points="1094.38,-212.5 954.62,-212.5 954.62,-188 1094.38,-188 1094.38,-212.5"/>
<text text-anchor="middle" x="1024.5" y="-195.2" font-family="Helvetica,sans-Serif" font-size="14.00">Win32Service\infos</text>
</a>
</g>
</g>
<!-- Node28&#45;&gt;Node30 -->
<g id="edge32_Node000028_Node000030" class="edge">
<title>Node28&#45;&gt;Node30</title>
<g id="a_edge32_Node000028_Node000030"><a xlink:title=" ">
<path fill="none" stroke="#63b8ff" d="M1155.16,-217.29C1135.15,-214.66 1113.99,-211.88 1094.7,-209.34"/>
<polygon fill="#63b8ff" stroke="#63b8ff" points="1154.6,-220.74 1164.97,-218.57 1155.51,-213.8 1154.6,-220.74"/>
</a>
</g>
</g>
<!-- Node32 -->
<g id="Node000032" class="node">
<title>Node32</title>
<g id="a_Node000032"><a xlink:href="../../dd/de9/classVbs.html#a8371d4f8e7e1dd4bfa6f9f300293df36" target="_top" xlink:title=" ">
<polygon fill="white" stroke="#666666" points="1094,-169.5 955,-169.5 955,-145 1094,-145 1094,-169.5"/>
<text text-anchor="middle" x="1024.5" y="-152.2" font-family="Helvetica,sans-Serif" font-size="14.00">Vbs\getStartupPath</text>
</a>
</g>
</g>
<!-- Node31&#45;&gt;Node32 -->
<g id="edge34_Node000031_Node000032" class="edge">
<title>Node31&#45;&gt;Node32</title>
<g id="a_edge34_Node000031_Node000032"><a xlink:title=" ">
<path fill="none" stroke="#63b8ff" d="M1157.16,-174.55C1136.38,-171.82 1114.24,-168.91 1094.17,-166.27"/>
<polygon fill="#63b8ff" stroke="#63b8ff" points="1156.67,-178.01 1167.04,-175.85 1157.59,-171.07 1156.67,-178.01"/>
</a>
</g>
</g>
<!-- Node33 -->
<g id="Node000033" class="node">
<title>Node33</title>
<g id="a_Node000033"><a xlink:href="../../d6/de4/classUtil.html#a7ac5c068ccb6891fc8cfdf8141994df2" target="_top" xlink:title=" ">
<polygon fill="white" stroke="#666666" points="869.88,-168.5 714.38,-168.5 714.38,-144 869.88,-144 869.88,-168.5"/>
<text text-anchor="middle" x="792.12" y="-151.2" font-family="Helvetica,sans-Serif" font-size="14.00">Util\getStartupLnkPath</text>
</a>
</g>
</g>
<!-- Node32&#45;&gt;Node33 -->
<g id="edge35_Node000032_Node000033" class="edge">
<title>Node32&#45;&gt;Node33</title>
<g id="a_edge35_Node000032_Node000033"><a xlink:title=" ">
<path fill="none" stroke="#63b8ff" d="M943.23,-156.9C919.49,-156.8 893.57,-156.69 870.04,-156.58"/>
<polygon fill="#63b8ff" stroke="#63b8ff" points="943.16,-160.4 953.18,-156.94 943.19,-153.4 943.16,-160.4"/>
</a>
</g>
</g>
<!-- Node36 -->
<g id="Node000036" class="node">
<title>Node36</title>
<g id="a_Node000036"><a xlink:href="../../dc/ddb/classWin32Ps.html#a8c0952657a6a635ab2da52ac4d3c0f2b" target="_top" xlink:title=" ">
<polygon fill="white" stroke="#666666" points="1071.5,-358.5 977.5,-358.5 977.5,-334 1071.5,-334 1071.5,-358.5"/>
<text text-anchor="middle" x="1024.5" y="-341.2" font-family="Helvetica,sans-Serif" font-size="14.00">Win32Ps\kill</text>
</a>
</g>
</g>
<!-- Node35&#45;&gt;Node36 -->
<g id="edge38_Node000035_Node000036" class="edge">
<title>Node35&#45;&gt;Node36</title>
<g id="a_edge38_Node000035_Node000036"><a xlink:title=" ">
<path fill="none" stroke="#63b8ff" d="M1182.38,-354.35C1147.91,-352.57 1104.33,-350.32 1071.85,-348.64"/>
<polygon fill="#63b8ff" stroke="#63b8ff" points="1182.01,-357.83 1192.18,-354.85 1182.37,-350.84 1182.01,-357.83"/>
</a>
</g>
</g>
<!-- Node36&#45;&gt;Node19 -->
<g id="edge39_Node000036_Node000019" class="edge">
<title>Node36&#45;&gt;Node19</title>
<g id="a_edge39_Node000036_Node000019"><a xlink:title=" ">
<path fill="none" stroke="#63b8ff" d="M965.9,-346.5C931.61,-346.65 888.15,-346.84 853.4,-346.99"/>
<polygon fill="#63b8ff" stroke="#63b8ff" points="965.66,-350 975.64,-346.46 965.63,-343 965.66,-350"/>
</a>
</g>
</g>
<!-- Node37 -->
<g id="Node000037" class="node">
<title>Node37</title>
<g id="a_Node000037"><a xlink:href="../../df/d6b/classActionLoading.html#a8c4708dceac210a2a1b740937261a3e4" target="_top" xlink:title=" ">
<polygon fill="white" stroke="#666666" points="898.75,-316.5 685.5,-316.5 685.5,-292 898.75,-292 898.75,-316.5"/>
<text text-anchor="middle" x="792.12" y="-299.2" font-family="Helvetica,sans-Serif" font-size="14.00">ActionLoading\processLoading</text>
</a>
</g>
</g>
<!-- Node36&#45;&gt;Node37 -->
<g id="edge40_Node000036_Node000037" class="edge">
<title>Node36&#45;&gt;Node37</title>
<g id="a_edge40_Node000036_Node000037"><a xlink:title=" ">
<path fill="none" stroke="#63b8ff" d="M966.03,-335.77C934.81,-330.08 895.97,-323 863.02,-316.99"/>
<polygon fill="#63b8ff" stroke="#63b8ff" points="965.2,-339.18 975.67,-337.53 966.46,-332.29 965.2,-339.18"/>
</a>
</g>
</g>
<!-- Node38 -->
<g id="Node000038" class="node">
<title>Node38</title>
<g id="a_Node000038"><a xlink:href="../../d6/de4/classUtil.html#a22e3fecf41a2ea24086a6493947c4de9" target="_top" xlink:title=" ">
<polygon fill="white" stroke="#666666" points="851.12,-211.5 733.12,-211.5 733.12,-187 851.12,-187 851.12,-211.5"/>
<text text-anchor="middle" x="792.12" y="-194.2" font-family="Helvetica,sans-Serif" font-size="14.00">Util\stopLoading</text>
</a>
</g>
</g>
<!-- Node36&#45;&gt;Node38 -->
<g id="edge41_Node000036_Node000038" class="edge">
<title>Node36&#45;&gt;Node38</title>
<g id="a_edge41_Node000036_Node000038"><a xlink:title=" ">
<path fill="none" stroke="#63b8ff" d="M966.29,-337.5C955.34,-334.35 944.31,-330.07 934.75,-324.25 914.03,-311.65 916.31,-299.97 898.75,-283.25 869.74,-255.62 832.36,-227.42 810.73,-211.74"/>
<polygon fill="#63b8ff" stroke="#63b8ff" points="965.15,-340.82 975.71,-339.91 966.89,-334.04 965.15,-340.82"/>
</a>
</g>
</g>
<!-- Node38&#45;&gt;Node20 -->
<g id="edge42_Node000038_Node000020" class="edge">
<title>Node38&#45;&gt;Node20</title>
<g id="a_edge42_Node000038_Node000020"><a xlink:title=" ">
<path fill="none" stroke="#63b8ff" d="M724.93,-214.52C692.66,-221.96 653.79,-230.93 620.75,-238.55"/>
<polygon fill="#63b8ff" stroke="#63b8ff" points="725.61,-217.96 734.57,-212.3 724.04,-211.14 725.61,-217.96"/>
</a>
</g>
</g>
<!-- Node39 -->
<g id="Node000039" class="node">
<title>Node39</title>
<g id="a_Node000039"><a xlink:href="../../d7/d0e/classActionService.html#a4440ed18ce314e66ba30932864b5584b" target="_top" xlink:title=" ">
<polygon fill="white" stroke="#666666" points="638.25,-98.5 456.5,-98.5 456.5,-74 638.25,-74 638.25,-98.5"/>
<text text-anchor="middle" x="547.38" y="-81.2" font-family="Helvetica,sans-Serif" font-size="14.00">ActionService\__construct</text>
</a>
</g>
</g>
<!-- Node38&#45;&gt;Node39 -->
<g id="edge43_Node000038_Node000039" class="edge">
<title>Node38&#45;&gt;Node39</title>
<g id="a_edge43_Node000038_Node000039"><a xlink:title=" ">
<path fill="none" stroke="#63b8ff" d="M721.78,-193.96C708.81,-190.54 696.04,-185.27 685.5,-177.25 657.66,-156.06 677.34,-128.43 649.5,-107.25 645.22,-103.99 640.55,-101.21 635.65,-98.84"/>
<polygon fill="#63b8ff" stroke="#63b8ff" points="720.68,-197.3 731.2,-196.09 722.22,-190.47 720.68,-197.3"/>
</a>
</g>
</g>
<!-- Node40 -->
<g id="Node000040" class="node">
<title>Node40</title>
<g id="a_Node000040"><a xlink:href="../../da/d27/classActionCheckVersion.html#a5db3fb58d6b4b8f1dbce5d428be47380" target="_top" xlink:title=" ">
<polygon fill="white" stroke="#666666" points="648.75,-157.75 446,-157.75 446,-116.75 648.75,-116.75 648.75,-157.75"/>
<text text-anchor="start" x="454" y="-140.45" font-family="Helvetica,sans-Serif" font-size="14.00">ActionCheckVersion</text>
<text text-anchor="middle" x="547.38" y="-123.95" font-family="Helvetica,sans-Serif" font-size="14.00">\showVersionOkMessageBox</text>
</a>
</g>
</g>
<!-- Node38&#45;&gt;Node40 -->
<g id="edge44_Node000038_Node000040" class="edge">
<title>Node38&#45;&gt;Node40</title>
<g id="a_edge44_Node000038_Node000040"><a xlink:title=" ">
<path fill="none" stroke="#63b8ff" d="M721.81,-185.62C709.67,-183.01 697.19,-180.17 685.5,-177.25 678.43,-175.49 648.96,-166.91 619.15,-158.16"/>
<polygon fill="#63b8ff" stroke="#63b8ff" points="720.84,-189 731.35,-187.65 722.29,-182.15 720.84,-189"/>
</a>
</g>
</g>
<!-- Node42 -->
<g id="Node000042" class="node">
<title>Node42</title>
<g id="a_Node000042"><a xlink:href="../../da/d27/classActionCheckVersion.html#a6e8a2ddb662d0e6077f7320e9df49c07" target="_top" xlink:title=" ">
<polygon fill="white" stroke="#666666" points="646.5,-216.75 448.25,-216.75 448.25,-175.75 646.5,-175.75 646.5,-216.75"/>
<text text-anchor="start" x="456.25" y="-199.45" font-family="Helvetica,sans-Serif" font-size="14.00">ActionCheckVersion</text>
<text text-anchor="middle" x="547.38" y="-182.95" font-family="Helvetica,sans-Serif" font-size="14.00">\showVersionUpdateWindow</text>
</a>
</g>
</g>
<!-- Node38&#45;&gt;Node42 -->
<g id="edge46_Node000038_Node000042" class="edge">
<title>Node38&#45;&gt;Node42</title>
<g id="a_edge46_Node000038_Node000042"><a xlink:title=" ">
<path fill="none" stroke="#63b8ff" d="M721.17,-198.39C697.92,-198.1 671.57,-197.77 646.59,-197.46"/>
<polygon fill="#63b8ff" stroke="#63b8ff" points="721.12,-201.88 731.16,-198.51 721.2,-194.89 721.12,-201.88"/>
</a>
</g>
</g>
<!-- Node41 -->
<g id="Node000041" class="node">
<title>Node41</title>
<g id="a_Node000041"><a xlink:href="../../da/d27/classActionCheckVersion.html#a28bc17b27165f0051d6daa9b4db830d3" target="_top" xlink:title=" ">
<polygon fill="white" stroke="#666666" points="378.12,-187.75 233.12,-187.75 233.12,-146.75 378.12,-146.75 378.12,-187.75"/>
<text text-anchor="start" x="241.12" y="-170.45" font-family="Helvetica,sans-Serif" font-size="14.00">ActionCheckVersion</text>
<text text-anchor="middle" x="305.62" y="-153.95" font-family="Helvetica,sans-Serif" font-size="14.00">\__construct</text>
</a>
</g>
</g>
<!-- Node40&#45;&gt;Node41 -->
<g id="edge45_Node000040_Node000041" class="edge">
<title>Node40&#45;&gt;Node41</title>
<g id="a_edge45_Node000040_Node000041"><a xlink:title=" ">
<path fill="none" stroke="#63b8ff" d="M434.58,-151.24C415.55,-153.62 396.24,-156.04 378.59,-158.25"/>
<polygon fill="#63b8ff" stroke="#63b8ff" points="434.75,-154.74 444.24,-150.03 433.88,-147.8 434.75,-154.74"/>
</a>
</g>
</g>
<!-- Node42&#45;&gt;Node41 -->
<g id="edge47_Node000042_Node000041" class="edge">
<title>Node42&#45;&gt;Node41</title>
<g id="a_edge47_Node000042_Node000041"><a xlink:title=" ">
<path fill="none" stroke="#63b8ff" d="M436.58,-182.97C416.84,-180.58 396.73,-178.15 378.41,-175.93"/>
<polygon fill="#63b8ff" stroke="#63b8ff" points="435.97,-186.42 446.32,-184.15 436.81,-179.47 435.97,-186.42"/>
</a>
</g>
</g>
<!-- Node44 -->
<g id="Node000044" class="node">
<title>Node44</title>
<g id="a_Node000044"><a xlink:href="../../db/d0d/classRegistry.html#ae63a1ff65a73f45574727e442d0afa22" target="_top" xlink:title=" ">
<polygon fill="white" stroke="#666666" points="1098.5,-126.5 950.5,-126.5 950.5,-102 1098.5,-102 1098.5,-126.5"/>
<text text-anchor="middle" x="1024.5" y="-109.2" font-family="Helvetica,sans-Serif" font-size="14.00">Registry\deleteValue</text>
</a>
</g>
</g>
<!-- Node43&#45;&gt;Node44 -->
<g id="edge49_Node000043_Node000044" class="edge">
<title>Node43&#45;&gt;Node44</title>
<g id="a_edge49_Node000043_Node000044"><a xlink:title=" ">
<path fill="none" stroke="#63b8ff" d="M1164.04,-95.4C1142.87,-98.28 1119.83,-101.41 1098.74,-104.28"/>
<polygon fill="#63b8ff" stroke="#63b8ff" points="1164.32,-98.89 1173.76,-94.08 1163.38,-91.96 1164.32,-98.89"/>
</a>
</g>
</g>
<!-- Node45 -->
<g id="Node000045" class="node">
<title>Node45</title>
<g id="a_Node000045"><a xlink:href="../../db/d0d/classRegistry.html#aa22ce26a46610799e48d929d9a9afcfd" target="_top" xlink:title=" ">
<polygon fill="white" stroke="#666666" points="1112.75,-83.75 936.25,-83.75 936.25,-42.75 1112.75,-42.75 1112.75,-83.75"/>
<text text-anchor="start" x="944.25" y="-66.45" font-family="Helvetica,sans-Serif" font-size="14.00">Registry\setExpandString</text>
<text text-anchor="middle" x="1024.5" y="-49.95" font-family="Helvetica,sans-Serif" font-size="14.00">Value</text>
</a>
</g>
</g>
<!-- Node43&#45;&gt;Node45 -->
<g id="edge50_Node000043_Node000045" class="edge">
<title>Node43&#45;&gt;Node45</title>
<g id="a_edge50_Node000043_Node000045"><a xlink:title=" ">
<path fill="none" stroke="#63b8ff" d="M1164.06,-77.55C1147.59,-75.85 1130.01,-74.04 1113.08,-72.29"/>
<polygon fill="#63b8ff" stroke="#63b8ff" points="1163.45,-81.01 1173.75,-78.55 1164.16,-74.05 1163.45,-81.01"/>
</a>
</g>
</g>
<!-- Node46 -->
<g id="Node000046" class="node">
<title>Node46</title>
<g id="a_Node000046"><a xlink:href="../../db/d0d/classRegistry.html#a598ce170cfd231fec55bb30d4cbd8c9b" target="_top" xlink:title=" ">
<polygon fill="white" stroke="#666666" points="1106.75,-24.5 942.25,-24.5 942.25,0 1106.75,0 1106.75,-24.5"/>
<text text-anchor="middle" x="1024.5" y="-7.2" font-family="Helvetica,sans-Serif" font-size="14.00">Registry\setStringValue</text>
</a>
</g>
</g>
<!-- Node43&#45;&gt;Node46 -->
<g id="edge51_Node000043_Node000046" class="edge">
<title>Node43&#45;&gt;Node46</title>
<g id="a_edge51_Node000043_Node000046"><a xlink:title=" ">
<path fill="none" stroke="#63b8ff" d="M1201.68,-67.93C1177.25,-56.94 1144.3,-43.02 1114.25,-33.25 1104.91,-30.22 1094.89,-27.42 1085.07,-24.92"/>
<polygon fill="#63b8ff" stroke="#63b8ff" points="1200,-71.01 1210.55,-71.96 1202.9,-64.64 1200,-71.01"/>
</a>
</g>
</g>
</g>
</svg>

<g id="navigator" transform="translate(0 0)" fill="#404254">
  <rect fill="#f2f5e9" fill-opacity="0.5" stroke="#606060" stroke-width=".5" x="0" y="0" width="60" height="60"/>
  <use id="zoomplus" xlink:href="#zoomPlus" x="17" y="9" onmousedown="handleZoom(evt,'in')"/>
  <use id="zoomminus" xlink:href="#zoomMin" x="42" y="9" onmousedown="handleZoom(evt,'out')"/>
  <use id="reset" xlink:href="#resetDef" x="30" y="36" onmousedown="handleReset()"/>
   <use id="arrowup" xlink:href="#arrowUp" x="0" y="0" onmousedown="handlePan(0,-1)"/>
  <use id="arrowright" xlink:href="#arrowRight" x="0" y="0" onmousedown="handlePan(1,0)"/>
  <use id="arrowdown" xlink:href="#arrowDown" x="0" y="0" onmousedown="handlePan(0,1)"/>
  <use id="arrowleft" xlink:href="#arrowLeft" x="0" y="0" onmousedown="handlePan(-1,0)"/>
</g>
<svg viewBox="0 0 15 15" width="100%" height="30px" preserveAspectRatio="xMaxYMin meet">
 <g id="arrow_out" transform="scale(0.3 0.3)">
  <a xlink:href="classVbs_abbe5092e5ae604ae3e448813464d2914_icgraph_org.svg" target="_base">
   <rect id="button" ry="5" rx="5" y="6" x="6" height="38" width="38"
        fill="#f2f5e9" fill-opacity="0.5" stroke="#606060" stroke-width="1.0"/>
   <path id="arrow"
     d="M 11.500037,31.436501 C 11.940474,20.09759 22.043105,11.32322 32.158766,21.979434 L 37.068811,17.246167 C 37.068811,17.246167 37.088388,32 37.088388,32 L 22.160133,31.978069 C 22.160133,31.978069 26.997745,27.140456 26.997745,27.140456 C 18.528582,18.264221 13.291696,25.230495 11.500037,31.436501 z"
     style="fill:#404040;"/>
  </a>
 </g>
</svg>

<style type='text/css'>
<![CDATA[
[data-mouse-over-selected='false'] { opacity: 0.7; }
[data-mouse-over-selected='true']  { opacity: 1.0; }
]]>
</style>
<script type="application/ecmascript"><![CDATA[
document.addEventListener('DOMContentLoaded', (event) => {
  highlightEdges();
  highlightAdjacentNodes();
});
]]></script>
</svg>
