<?xml version="1.0" encoding="UTF-8" standalone="no"?>
<!--
  - Copyright (c) 2021-2024 Bearsampp
  - License:  GNU General Public License version 3 or later; see LICENSE.txt
  - Author: Bear
  - Website: https://bearsampp.com
  - Github: https://github.com/Bearsampp
  -->

<!DOCTYPE svg PUBLIC "-//W3C//DTD SVG 1.1//EN"
 "http://www.w3.org/Graphics/SVG/1.1/DTD/svg11.dtd">
<!-- Generated by graphviz version 11.0.0 (20240428.1522)
 -->
<!-- Title: Vbs\getSpecialPath Pages: 1 -->
<svg width="516pt" height="33pt"
 viewBox="0.00 0.00 515.75 32.50" xmlns="http://www.w3.org/2000/svg" xmlns:xlink="http://www.w3.org/1999/xlink">
<g id="graph0" class="graph" transform="scale(1 1) rotate(0) translate(4 28.5)">
<title>Vbs\getSpecialPath</title>
<!-- Node1 -->
<g id="Node000001" class="node">
<title>Node1</title>
<g id="a_Node000001"><a xlink:title=" ">
<polygon fill="#999999" stroke="#666666" points="507.75,-24.5 366.5,-24.5 366.5,0 507.75,0 507.75,-24.5"/>
<text text-anchor="middle" x="437.12" y="-7.2" font-family="Helvetica,sans-Serif" font-size="14.00">Vbs\getSpecialPath</text>
</a>
</g>
</g>
<!-- Node2 -->
<g id="Node000002" class="node">
<title>Node2</title>
<g id="a_Node000002"><a xlink:href="../../dd/de9/classVbs.html#a8371d4f8e7e1dd4bfa6f9f300293df36" target="_top" xlink:title=" ">
<polygon fill="white" stroke="#666666" points="330.5,-24.5 191.5,-24.5 191.5,0 330.5,0 330.5,-24.5"/>
<text text-anchor="middle" x="261" y="-7.2" font-family="Helvetica,sans-Serif" font-size="14.00">Vbs\getStartupPath</text>
</a>
</g>
</g>
<!-- Node1&#45;&gt;Node2 -->
<g id="edge1_Node000001_Node000002" class="edge">
<title>Node1&#45;&gt;Node2</title>
<g id="a_edge1_Node000001_Node000002"><a xlink:title=" ">
<path fill="none" stroke="#63b8ff" d="M354.78,-12.25C346.76,-12.25 338.67,-12.25 330.79,-12.25"/>
<polygon fill="#63b8ff" stroke="#63b8ff" points="354.54,-15.75 364.54,-12.25 354.54,-8.75 354.54,-15.75"/>
</a>
</g>
</g>
<!-- Node3 -->
<g id="Node000003" class="node">
<title>Node3</title>
<g id="a_Node000003"><a xlink:href="../../d6/de4/classUtil.html#a7ac5c068ccb6891fc8cfdf8141994df2" target="_top" xlink:title=" ">
<polygon fill="white" stroke="#666666" points="155.5,-24.5 0,-24.5 0,0 155.5,0 155.5,-24.5"/>
<text text-anchor="middle" x="77.75" y="-7.2" font-family="Helvetica,sans-Serif" font-size="14.00">Util\getStartupLnkPath</text>
</a>
</g>
</g>
<!-- Node2&#45;&gt;Node3 -->
<g id="edge2_Node000002_Node000003" class="edge">
<title>Node2&#45;&gt;Node3</title>
<g id="a_edge2_Node000002_Node000003"><a xlink:title=" ">
<path fill="none" stroke="#63b8ff" d="M179.75,-12.25C171.85,-12.25 163.84,-12.25 155.97,-12.25"/>
<polygon fill="#63b8ff" stroke="#63b8ff" points="179.71,-15.75 189.71,-12.25 179.71,-8.75 179.71,-15.75"/>
</a>
</g>
</g>
</g>
</svg>
