<?xml version="1.0" encoding="UTF-8" standalone="no"?>
<!--
  - Copyright (c) 2021-2024 Bearsampp
  - License:  GNU General Public License version 3 or later; see LICENSE.txt
  - Author: Bear
  - Website: https://bearsampp.com
  - Github: https://github.com/Bearsampp
  -->

<!DOCTYPE svg PUBLIC "-//W3C//DTD SVG 1.1//EN"
 "http://www.w3.org/Graphics/SVG/1.1/DTD/svg11.dtd">
<!-- Generated by graphviz version 11.0.0 (20240428.1522)
 -->
<!-- Title: Vbs\getDefaultBrowser Pages: 1 -->
<svg width="645pt" height="76pt"
 viewBox="0.00 0.00 644.75 75.50" xmlns="http://www.w3.org/2000/svg" xmlns:xlink="http://www.w3.org/1999/xlink">
<g id="graph0" class="graph" transform="scale(1 1) rotate(0) translate(4 71.5)">
<title>Vbs\getDefaultBrowser</title>
<!-- Node1 -->
<g id="Node000001" class="node">
<title>Node1</title>
<g id="a_Node000001"><a xlink:title=" ">
<polygon fill="#999999" stroke="#666666" points="636.75,-45.5 473.75,-45.5 473.75,-21 636.75,-21 636.75,-45.5"/>
<text text-anchor="middle" x="555.25" y="-28.2" font-family="Helvetica,sans-Serif" font-size="14.00">Vbs\getDefaultBrowser</text>
</a>
</g>
</g>
<!-- Node2 -->
<g id="Node000002" class="node">
<title>Node2</title>
<g id="a_Node000002"><a xlink:href="../../dd/dea/classActionReload.html#a9caf3b20c05475876e5dc72cdcdf6024" target="_top" xlink:title=" ">
<polygon fill="white" stroke="#666666" points="430.25,-67.5 250.75,-67.5 250.75,-43 430.25,-43 430.25,-67.5"/>
<text text-anchor="middle" x="340.5" y="-50.2" font-family="Helvetica,sans-Serif" font-size="14.00">ActionReload\__construct</text>
</a>
</g>
</g>
<!-- Node1&#45;&gt;Node2 -->
<g id="edge1_Node000001_Node000002" class="edge">
<title>Node1&#45;&gt;Node2</title>
<g id="a_edge1_Node000001_Node000002"><a xlink:title=" ">
<path fill="none" stroke="#63b8ff" d="M462.25,-42.76C451.79,-43.85 441.14,-44.95 430.71,-46.02"/>
<polygon fill="#63b8ff" stroke="#63b8ff" points="462.42,-46.26 472.01,-41.75 461.7,-39.3 462.42,-46.26"/>
</a>
</g>
</g>
<!-- Node3 -->
<g id="Node000003" class="node">
<title>Node3</title>
<g id="a_Node000003"><a xlink:href="../../d1/db8/classActionStartup.html#a289894c6870f166c625cd42db62f624b" target="_top" xlink:title=" ">
<polygon fill="white" stroke="#666666" points="437.75,-24.5 243.25,-24.5 243.25,0 437.75,0 437.75,-24.5"/>
<text text-anchor="middle" x="340.5" y="-7.2" font-family="Helvetica,sans-Serif" font-size="14.00">ActionStartup\checkBrowser</text>
</a>
</g>
</g>
<!-- Node1&#45;&gt;Node3 -->
<g id="edge2_Node000001_Node000003" class="edge">
<title>Node1&#45;&gt;Node3</title>
<g id="a_edge2_Node000001_Node000003"><a xlink:title=" ">
<path fill="none" stroke="#63b8ff" d="M462.22,-24.17C454.16,-23.37 445.99,-22.56 437.9,-21.77"/>
<polygon fill="#63b8ff" stroke="#63b8ff" points="461.71,-27.63 472.01,-25.13 462.4,-20.67 461.71,-27.63"/>
</a>
</g>
</g>
<!-- Node4 -->
<g id="Node000004" class="node">
<title>Node4</title>
<g id="a_Node000004"><a xlink:href="../../d1/db8/classActionStartup.html#a1234a0f2093a95140d6f86983514d28f" target="_top" xlink:title=" ">
<polygon fill="white" stroke="#666666" points="207.25,-24.5 0,-24.5 0,0 207.25,0 207.25,-24.5"/>
<text text-anchor="middle" x="103.63" y="-7.2" font-family="Helvetica,sans-Serif" font-size="14.00">ActionStartup\processWindow</text>
</a>
</g>
</g>
<!-- Node3&#45;&gt;Node4 -->
<g id="edge3_Node000003_Node000004" class="edge">
<title>Node3&#45;&gt;Node4</title>
<g id="a_edge3_Node000003_Node000004"><a xlink:title=" ">
<path fill="none" stroke="#63b8ff" d="M231.69,-12.25C223.69,-12.25 215.63,-12.25 207.66,-12.25"/>
<polygon fill="#63b8ff" stroke="#63b8ff" points="231.44,-15.75 241.44,-12.25 231.44,-8.75 231.44,-15.75"/>
</a>
</g>
</g>
</g>
</svg>
