<?xml version="1.0" encoding="UTF-8" standalone="no"?>
<!--
  - Copyright (c) 2021-2024 Bearsampp
  - License:  GNU General Public License version 3 or later; see LICENSE.txt
  - Author: Bear
  - Website: https://bearsampp.com
  - Github: https://github.com/Bearsampp
  -->

<!DOCTYPE svg PUBLIC "-//W3C//DTD SVG 1.1//EN"
 "http://www.w3.org/Graphics/SVG/1.1/DTD/svg11.dtd">
<!-- Generated by graphviz version 11.0.0 (20240428.1522)
 -->
<!-- Title: Vbs\killProc Pages: 1 -->
<svg width="1164pt" height="402pt"
 viewBox="0.00 0.00 1163.75 401.75" xmlns="http://www.w3.org/2000/svg" xmlns:xlink="http://www.w3.org/1999/xlink">
<g id="graph0" class="graph" transform="scale(1 1) rotate(0) translate(4 397.75)">
<title>Vbs\killProc</title>
<!-- Node1 -->
<g id="Node000001" class="node">
<title>Node1</title>
<g id="a_Node000001"><a xlink:title=" ">
<polygon fill="#999999" stroke="#666666" points="1155.75,-193.75 1064.75,-193.75 1064.75,-169.25 1155.75,-169.25 1155.75,-193.75"/>
<text text-anchor="middle" x="1110.25" y="-176.45" font-family="Helvetica,sans-Serif" font-size="14.00">Vbs\killProc</text>
</a>
</g>
</g>
<!-- Node2 -->
<g id="Node000002" class="node">
<title>Node2</title>
<g id="a_Node000002"><a xlink:href="../../dc/ddb/classWin32Ps.html#a8c0952657a6a635ab2da52ac4d3c0f2b" target="_top" xlink:title=" ">
<polygon fill="white" stroke="#666666" points="1028.75,-193.75 934.75,-193.75 934.75,-169.25 1028.75,-169.25 1028.75,-193.75"/>
<text text-anchor="middle" x="981.75" y="-176.45" font-family="Helvetica,sans-Serif" font-size="14.00">Win32Ps\kill</text>
</a>
</g>
</g>
<!-- Node1&#45;&gt;Node2 -->
<g id="edge1_Node000001_Node000002" class="edge">
<title>Node1&#45;&gt;Node2</title>
<g id="a_edge1_Node000001_Node000002"><a xlink:title=" ">
<path fill="none" stroke="#63b8ff" d="M1053.02,-181.5C1044.94,-181.5 1036.7,-181.5 1028.84,-181.5"/>
<polygon fill="#63b8ff" stroke="#63b8ff" points="1052.78,-185 1062.78,-181.5 1052.78,-178 1052.78,-185"/>
</a>
</g>
</g>
<!-- Node3 -->
<g id="Node000003" class="node">
<title>Node3</title>
<g id="a_Node000003"><a xlink:href="../../dc/ddb/classWin32Ps.html#aa522ce4696d00af3e499932fff26a2da" target="_top" xlink:title=" ">
<polygon fill="white" stroke="#666666" points="853,-265.75 731.25,-265.75 731.25,-241.25 853,-241.25 853,-265.75"/>
<text text-anchor="middle" x="792.12" y="-248.45" font-family="Helvetica,sans-Serif" font-size="14.00">Win32Ps\killBins</text>
</a>
</g>
</g>
<!-- Node2&#45;&gt;Node3 -->
<g id="edge2_Node000002_Node000003" class="edge">
<title>Node2&#45;&gt;Node3</title>
<g id="a_edge2_Node000002_Node000003"><a xlink:title=" ">
<path fill="none" stroke="#63b8ff" d="M937.12,-198.24C903.27,-211.23 857.07,-228.96 826.22,-240.8"/>
<polygon fill="#63b8ff" stroke="#63b8ff" points="938.14,-201.6 946.23,-194.75 935.64,-195.06 938.14,-201.6"/>
</a>
</g>
</g>
<!-- Node12 -->
<g id="Node000012" class="node">
<title>Node12</title>
<g id="a_Node000012"><a xlink:href="../../df/d6b/classActionLoading.html#a8c4708dceac210a2a1b740937261a3e4" target="_top" xlink:title=" ">
<polygon fill="white" stroke="#666666" points="898.75,-193.75 685.5,-193.75 685.5,-169.25 898.75,-169.25 898.75,-193.75"/>
<text text-anchor="middle" x="792.12" y="-176.45" font-family="Helvetica,sans-Serif" font-size="14.00">ActionLoading\processLoading</text>
</a>
</g>
</g>
<!-- Node2&#45;&gt;Node12 -->
<g id="edge12_Node000002_Node000012" class="edge">
<title>Node2&#45;&gt;Node12</title>
<g id="a_edge12_Node000002_Node000012"><a xlink:title=" ">
<path fill="none" stroke="#63b8ff" d="M923.08,-181.5C915.42,-181.5 907.39,-181.5 899.23,-181.5"/>
<polygon fill="#63b8ff" stroke="#63b8ff" points="922.86,-185 932.86,-181.5 922.86,-178 922.86,-185"/>
</a>
</g>
</g>
<!-- Node13 -->
<g id="Node000013" class="node">
<title>Node13</title>
<g id="a_Node000013"><a xlink:href="../../d6/de4/classUtil.html#a22e3fecf41a2ea24086a6493947c4de9" target="_top" xlink:title=" ">
<polygon fill="white" stroke="#666666" points="851.12,-142.75 733.12,-142.75 733.12,-118.25 851.12,-118.25 851.12,-142.75"/>
<text text-anchor="middle" x="792.12" y="-125.45" font-family="Helvetica,sans-Serif" font-size="14.00">Util\stopLoading</text>
</a>
</g>
</g>
<!-- Node2&#45;&gt;Node13 -->
<g id="edge13_Node000002_Node000013" class="edge">
<title>Node2&#45;&gt;Node13</title>
<g id="a_edge13_Node000002_Node000013"><a xlink:title=" ">
<path fill="none" stroke="#63b8ff" d="M923.6,-165.96C896.81,-158.68 865.29,-150.12 839.95,-143.23"/>
<polygon fill="#63b8ff" stroke="#63b8ff" points="922.34,-169.25 932.91,-168.5 924.18,-162.5 922.34,-169.25"/>
</a>
</g>
</g>
<!-- Node4 -->
<g id="Node000004" class="node">
<title>Node4</title>
<g id="a_Node000004"><a xlink:href="../../d0/d9f/classActionManualRestart.html#a229630778cbd92fef95f4e99e872fdca" target="_top" xlink:title=" ">
<polygon fill="white" stroke="#666666" points="620.25,-202 474.5,-202 474.5,-161 620.25,-161 620.25,-202"/>
<text text-anchor="start" x="482.5" y="-184.7" font-family="Helvetica,sans-Serif" font-size="14.00">ActionManualRestart</text>
<text text-anchor="middle" x="547.38" y="-168.2" font-family="Helvetica,sans-Serif" font-size="14.00">\__construct</text>
</a>
</g>
</g>
<!-- Node3&#45;&gt;Node4 -->
<g id="edge3_Node000003_Node000004" class="edge">
<title>Node3&#45;&gt;Node4</title>
<g id="a_edge3_Node000003_Node000004"><a xlink:title=" ">
<path fill="none" stroke="#63b8ff" d="M737.36,-237.55C702.47,-227.21 656.63,-213.61 618.83,-202.4"/>
<polygon fill="#63b8ff" stroke="#63b8ff" points="736.25,-240.88 746.83,-240.36 738.24,-234.16 736.25,-240.88"/>
</a>
</g>
</g>
<!-- Node5 -->
<g id="Node000005" class="node">
<title>Node5</title>
<g id="a_Node000005"><a xlink:href="../../da/dbb/classBatch.html#a60ded4c18eb060829639a955ec294ffc" target="_top" xlink:title=" ">
<polygon fill="white" stroke="#666666" points="599.25,-373.75 495.5,-373.75 495.5,-349.25 599.25,-349.25 599.25,-373.75"/>
<text text-anchor="middle" x="547.38" y="-356.45" font-family="Helvetica,sans-Serif" font-size="14.00">Batch\exitApp</text>
</a>
</g>
</g>
<!-- Node3&#45;&gt;Node5 -->
<g id="edge4_Node000003_Node000005" class="edge">
<title>Node3&#45;&gt;Node5</title>
<g id="a_edge4_Node000003_Node000005"><a xlink:title=" ">
<path fill="none" stroke="#63b8ff" d="M765.42,-272.75C738.05,-292.33 692.8,-322.21 649.5,-339.5 633.73,-345.8 615.83,-350.44 599.51,-353.8"/>
<polygon fill="#63b8ff" stroke="#63b8ff" points="767.39,-275.63 773.43,-266.93 763.28,-269.97 767.39,-275.63"/>
</a>
</g>
</g>
<!-- Node8 -->
<g id="Node000008" class="node">
<title>Node8</title>
<g id="a_Node000008"><a xlink:href="../../d1/db8/classActionStartup.html#a7a49b348e0daf7c1afc440479e15335a" target="_top" xlink:title=" ">
<polygon fill="white" stroke="#666666" points="649.5,-330.75 445.25,-330.75 445.25,-306.25 649.5,-306.25 649.5,-330.75"/>
<text text-anchor="middle" x="547.38" y="-313.45" font-family="Helvetica,sans-Serif" font-size="14.00">ActionStartup\killOldInstances</text>
</a>
</g>
</g>
<!-- Node3&#45;&gt;Node8 -->
<g id="edge8_Node000003_Node000008" class="edge">
<title>Node3&#45;&gt;Node8</title>
<g id="a_edge8_Node000003_Node000008"><a xlink:title=" ">
<path fill="none" stroke="#63b8ff" d="M741.54,-269.62C714.49,-278.15 680.32,-288.48 649.5,-296.5 636.98,-299.76 623.5,-302.92 610.6,-305.79"/>
<polygon fill="#63b8ff" stroke="#63b8ff" points="742.38,-273.03 750.85,-266.67 740.26,-266.36 742.38,-273.03"/>
</a>
</g>
</g>
<!-- Node10 -->
<g id="Node000010" class="node">
<title>Node10</title>
<g id="a_Node000010"><a xlink:href="../../de/d86/classActionQuit.html#a2331cc6725be5a9283c65d462bfb5f5b" target="_top" xlink:title=" ">
<polygon fill="white" stroke="#666666" points="641.25,-287.75 453.5,-287.75 453.5,-263.25 641.25,-263.25 641.25,-287.75"/>
<text text-anchor="middle" x="547.38" y="-270.45" font-family="Helvetica,sans-Serif" font-size="14.00">ActionQuit\processWindow</text>
</a>
</g>
</g>
<!-- Node3&#45;&gt;Node10 -->
<g id="edge10_Node000003_Node000010" class="edge">
<title>Node3&#45;&gt;Node10</title>
<g id="a_edge10_Node000003_Node000010"><a xlink:title=" ">
<path fill="none" stroke="#63b8ff" d="M719.47,-259.99C695.03,-262.21 667.36,-264.72 641.49,-267.06"/>
<polygon fill="#63b8ff" stroke="#63b8ff" points="719.66,-263.49 729.3,-259.1 719.03,-256.52 719.66,-263.49"/>
</a>
</g>
</g>
<!-- Node11 -->
<g id="Node000011" class="node">
<title>Node11</title>
<g id="a_Node000011"><a xlink:href="../../d1/d42/classActionExt.html#a773acee7f7d11b500400d4c897323076" target="_top" xlink:title=" ">
<polygon fill="white" stroke="#666666" points="624.38,-244.75 470.38,-244.75 470.38,-220.25 624.38,-220.25 624.38,-244.75"/>
<text text-anchor="middle" x="547.38" y="-227.45" font-family="Helvetica,sans-Serif" font-size="14.00">ActionExt\procReload</text>
</a>
</g>
</g>
<!-- Node3&#45;&gt;Node11 -->
<g id="edge11_Node000003_Node000011" class="edge">
<title>Node3&#45;&gt;Node11</title>
<g id="a_edge11_Node000003_Node000011"><a xlink:title=" ">
<path fill="none" stroke="#63b8ff" d="M719.6,-247.31C689.69,-244.72 654.88,-241.71 624.5,-239.09"/>
<polygon fill="#63b8ff" stroke="#63b8ff" points="719.04,-250.78 729.3,-248.15 719.64,-243.8 719.04,-250.78"/>
</a>
</g>
</g>
<!-- Node6 -->
<g id="Node000006" class="node">
<title>Node6</title>
<g id="a_Node000006"><a xlink:href="../../db/d8f/classActionExec.html#a8228382d8a7768239c559563a8d58994" target="_top" xlink:title=" ">
<polygon fill="white" stroke="#666666" points="166,-393.75 0,-393.75 0,-369.25 166,-369.25 166,-393.75"/>
<text text-anchor="middle" x="83" y="-376.45" font-family="Helvetica,sans-Serif" font-size="14.00">ActionExec\__construct</text>
</a>
</g>
</g>
<!-- Node5&#45;&gt;Node6 -->
<g id="edge5_Node000005_Node000006" class="edge">
<title>Node5&#45;&gt;Node6</title>
<g id="a_edge5_Node000005_Node000006"><a xlink:title=" ">
<path fill="none" stroke="#63b8ff" d="M483.98,-373.1C460.63,-376.9 433.81,-380.63 409.25,-382.5 317.4,-389.49 294.11,-382.89 202,-382.5 190.43,-382.45 178.21,-382.37 166.21,-382.29"/>
<polygon fill="#63b8ff" stroke="#63b8ff" points="484.37,-376.59 493.65,-371.49 483.21,-369.68 484.37,-376.59"/>
</a>
</g>
</g>
<!-- Node7 -->
<g id="Node000007" class="node">
<title>Node7</title>
<g id="a_Node000007"><a xlink:href="../../da/dbb/classBatch.html#ac5c8b3c31fa2a76d1cb2b1a10ff6d4d5" target="_top" xlink:title=" ">
<polygon fill="white" stroke="#666666" points="366.5,-373.75 244.75,-373.75 244.75,-349.25 366.5,-349.25 366.5,-373.75"/>
<text text-anchor="middle" x="305.62" y="-356.45" font-family="Helvetica,sans-Serif" font-size="14.00">Batch\restartApp</text>
</a>
</g>
</g>
<!-- Node5&#45;&gt;Node7 -->
<g id="edge6_Node000005_Node000007" class="edge">
<title>Node5&#45;&gt;Node7</title>
<g id="a_edge6_Node000005_Node000007"><a xlink:title=" ">
<path fill="none" stroke="#63b8ff" d="M483.83,-361.5C447.63,-361.5 402.32,-361.5 366.57,-361.5"/>
<polygon fill="#63b8ff" stroke="#63b8ff" points="483.72,-365 493.72,-361.5 483.72,-358 483.72,-365"/>
</a>
</g>
</g>
<!-- Node7&#45;&gt;Node6 -->
<g id="edge7_Node000007_Node000006" class="edge">
<title>Node7&#45;&gt;Node6</title>
<g id="a_edge7_Node000007_Node000006"><a xlink:title=" ">
<path fill="none" stroke="#63b8ff" d="M233.06,-367.99C211.7,-369.92 188.11,-372.06 166.13,-374.05"/>
<polygon fill="#63b8ff" stroke="#63b8ff" points="233.19,-371.49 242.83,-367.1 232.56,-364.52 233.19,-371.49"/>
</a>
</g>
</g>
<!-- Node9 -->
<g id="Node000009" class="node">
<title>Node9</title>
<g id="a_Node000009"><a xlink:href="../../d1/db8/classActionStartup.html#a1234a0f2093a95140d6f86983514d28f" target="_top" xlink:title=" ">
<polygon fill="white" stroke="#666666" points="409.25,-330.75 202,-330.75 202,-306.25 409.25,-306.25 409.25,-330.75"/>
<text text-anchor="middle" x="305.62" y="-313.45" font-family="Helvetica,sans-Serif" font-size="14.00">ActionStartup\processWindow</text>
</a>
</g>
</g>
<!-- Node8&#45;&gt;Node9 -->
<g id="edge9_Node000008_Node000009" class="edge">
<title>Node8&#45;&gt;Node9</title>
<g id="a_edge9_Node000008_Node000009"><a xlink:title=" ">
<path fill="none" stroke="#63b8ff" d="M433.69,-318.5C425.62,-318.5 417.52,-318.5 409.51,-318.5"/>
<polygon fill="#63b8ff" stroke="#63b8ff" points="433.53,-322 443.53,-318.5 433.53,-315 433.53,-322"/>
</a>
</g>
</g>
<!-- Node13&#45;&gt;Node4 -->
<g id="edge14_Node000013_Node000004" class="edge">
<title>Node13&#45;&gt;Node4</title>
<g id="a_edge14_Node000013_Node000004"><a xlink:title=" ">
<path fill="none" stroke="#63b8ff" d="M721.74,-145.08C690.09,-151.73 652.63,-159.6 620.64,-166.32"/>
<polygon fill="#63b8ff" stroke="#63b8ff" points="722.12,-148.57 731.19,-143.09 720.68,-141.72 722.12,-148.57"/>
</a>
</g>
</g>
<!-- Node14 -->
<g id="Node000014" class="node">
<title>Node14</title>
<g id="a_Node000014"><a xlink:href="../../d7/d0e/classActionService.html#a4440ed18ce314e66ba30932864b5584b" target="_top" xlink:title=" ">
<polygon fill="white" stroke="#666666" points="638.25,-142.75 456.5,-142.75 456.5,-118.25 638.25,-118.25 638.25,-142.75"/>
<text text-anchor="middle" x="547.38" y="-125.45" font-family="Helvetica,sans-Serif" font-size="14.00">ActionService\__construct</text>
</a>
</g>
</g>
<!-- Node13&#45;&gt;Node14 -->
<g id="edge15_Node000013_Node000014" class="edge">
<title>Node13&#45;&gt;Node14</title>
<g id="a_edge15_Node000013_Node000014"><a xlink:title=" ">
<path fill="none" stroke="#63b8ff" d="M721.47,-130.5C695.64,-130.5 665.96,-130.5 638.55,-130.5"/>
<polygon fill="#63b8ff" stroke="#63b8ff" points="721.16,-134 731.16,-130.5 721.16,-127 721.16,-134"/>
</a>
</g>
</g>
<!-- Node15 -->
<g id="Node000015" class="node">
<title>Node15</title>
<g id="a_Node000015"><a xlink:href="../../da/d27/classActionCheckVersion.html#a5db3fb58d6b4b8f1dbce5d428be47380" target="_top" xlink:title=" ">
<polygon fill="white" stroke="#666666" points="648.75,-100 446,-100 446,-59 648.75,-59 648.75,-100"/>
<text text-anchor="start" x="454" y="-82.7" font-family="Helvetica,sans-Serif" font-size="14.00">ActionCheckVersion</text>
<text text-anchor="middle" x="547.38" y="-66.2" font-family="Helvetica,sans-Serif" font-size="14.00">\showVersionOkMessageBox</text>
</a>
</g>
</g>
<!-- Node13&#45;&gt;Node15 -->
<g id="edge16_Node000013_Node000015" class="edge">
<title>Node13&#45;&gt;Node15</title>
<g id="a_edge16_Node000013_Node000015"><a xlink:title=" ">
<path fill="none" stroke="#63b8ff" d="M721.68,-115.91C698.74,-111.09 672.76,-105.63 648.02,-100.43"/>
<polygon fill="#63b8ff" stroke="#63b8ff" points="720.68,-119.28 731.19,-117.91 722.12,-112.43 720.68,-119.28"/>
</a>
</g>
</g>
<!-- Node17 -->
<g id="Node000017" class="node">
<title>Node17</title>
<g id="a_Node000017"><a xlink:href="../../da/d27/classActionCheckVersion.html#a6e8a2ddb662d0e6077f7320e9df49c07" target="_top" xlink:title=" ">
<polygon fill="white" stroke="#666666" points="646.5,-41 448.25,-41 448.25,0 646.5,0 646.5,-41"/>
<text text-anchor="start" x="456.25" y="-23.7" font-family="Helvetica,sans-Serif" font-size="14.00">ActionCheckVersion</text>
<text text-anchor="middle" x="547.38" y="-7.2" font-family="Helvetica,sans-Serif" font-size="14.00">\showVersionUpdateWindow</text>
</a>
</g>
</g>
<!-- Node13&#45;&gt;Node17 -->
<g id="edge18_Node000013_Node000017" class="edge">
<title>Node13&#45;&gt;Node17</title>
<g id="a_edge18_Node000013_Node000017"><a xlink:title=" ">
<path fill="none" stroke="#63b8ff" d="M763.16,-111.81C735.31,-93.86 690.87,-66.96 649.5,-49.5 642.69,-46.62 635.5,-43.93 628.22,-41.44"/>
<polygon fill="#63b8ff" stroke="#63b8ff" points="761.07,-114.63 771.36,-117.16 764.9,-108.76 761.07,-114.63"/>
</a>
</g>
</g>
<!-- Node16 -->
<g id="Node000016" class="node">
<title>Node16</title>
<g id="a_Node000016"><a xlink:href="../../da/d27/classActionCheckVersion.html#a28bc17b27165f0051d6daa9b4db830d3" target="_top" xlink:title=" ">
<polygon fill="white" stroke="#666666" points="378.12,-71 233.12,-71 233.12,-30 378.12,-30 378.12,-71"/>
<text text-anchor="start" x="241.12" y="-53.7" font-family="Helvetica,sans-Serif" font-size="14.00">ActionCheckVersion</text>
<text text-anchor="middle" x="305.62" y="-37.2" font-family="Helvetica,sans-Serif" font-size="14.00">\__construct</text>
</a>
</g>
</g>
<!-- Node15&#45;&gt;Node16 -->
<g id="edge17_Node000015_Node000016" class="edge">
<title>Node15&#45;&gt;Node16</title>
<g id="a_edge17_Node000015_Node000016"><a xlink:title=" ">
<path fill="none" stroke="#63b8ff" d="M434.31,-65.95C415.36,-63.65 396.16,-61.33 378.59,-59.2"/>
<polygon fill="#63b8ff" stroke="#63b8ff" points="433.89,-69.42 444.24,-67.15 434.73,-62.47 433.89,-69.42"/>
</a>
</g>
</g>
<!-- Node17&#45;&gt;Node16 -->
<g id="edge19_Node000017_Node000016" class="edge">
<title>Node17&#45;&gt;Node16</title>
<g id="a_edge19_Node000017_Node000016"><a xlink:title=" ">
<path fill="none" stroke="#63b8ff" d="M436.58,-34.24C416.84,-36.71 396.73,-39.23 378.41,-41.52"/>
<polygon fill="#63b8ff" stroke="#63b8ff" points="436.83,-37.73 446.32,-33.02 435.96,-30.79 436.83,-37.73"/>
</a>
</g>
</g>
</g>
</svg>
