<?xml version="1.0" encoding="UTF-8" standalone="no"?>
<!--
  - Copyright (c) 2021-2024 Bearsampp
  - License:  GNU General Public License version 3 or later; see LICENSE.txt
  - Author: Bear
  - Website: https://bearsampp.com
  - Github: https://github.com/Bearsampp
  -->

<!DOCTYPE svg PUBLIC "-//W3C//DTD SVG 1.1//EN"
 "http://www.w3.org/Graphics/SVG/1.1/DTD/svg11.dtd">
<!-- Generated by graphviz version 11.0.0 (20240428.1522)
 -->
<!-- Title: Vbs\exec Pages: 1 -->
<svg width="1449pt" height="573pt"
 viewBox="0.00 0.00 1449.00 573.00" xmlns="http://www.w3.org/2000/svg" xmlns:xlink="http://www.w3.org/1999/xlink">
<g id="graph0" class="graph" transform="scale(1 1) rotate(0) translate(4 569)">
<title>Vbs\exec</title>
<!-- Node1 -->
<g id="Node000001" class="node">
<title>Node1</title>
<g id="a_Node000001"><a xlink:title=" ">
<polygon fill="#999999" stroke="#666666" points="1441,-280.75 1365,-280.75 1365,-256.25 1441,-256.25 1441,-280.75"/>
<text text-anchor="middle" x="1403" y="-263.45" font-family="Helvetica,sans-Serif" font-size="14.00">Vbs\exec</text>
</a>
</g>
</g>
<!-- Node2 -->
<g id="Node000002" class="node">
<title>Node2</title>
<g id="a_Node000002"><a xlink:href="../../dd/de9/classVbs.html#a640cefad4fc0c28bcd23a41c7ae82451" target="_top" xlink:title=" ">
<polygon fill="white" stroke="#666666" points="1319.25,-474.75 1160,-474.75 1160,-450.25 1319.25,-450.25 1319.25,-474.75"/>
<text text-anchor="middle" x="1239.62" y="-457.45" font-family="Helvetica,sans-Serif" font-size="14.00">Vbs\countFilesFolders</text>
</a>
</g>
</g>
<!-- Node1&#45;&gt;Node2 -->
<g id="edge1_Node000001_Node000002" class="edge">
<title>Node1&#45;&gt;Node2</title>
<g id="a_edge1_Node000001_Node000002"><a xlink:title=" ">
<path fill="none" stroke="#63b8ff" d="M1398.72,-292.36C1392.28,-329.7 1374.44,-401.7 1329,-440.5 1324.67,-444.2 1319.81,-447.29 1314.66,-449.87"/>
<polygon fill="#63b8ff" stroke="#63b8ff" points="1402.15,-293.04 1400.25,-282.61 1395.24,-291.95 1402.15,-293.04"/>
</a>
</g>
</g>
<!-- Node3 -->
<g id="Node000003" class="node">
<title>Node3</title>
<g id="a_Node000003"><a xlink:href="../../dd/de9/classVbs.html#ac49556d381f31a45a6103d83b0336329" target="_top" xlink:title=" ">
<polygon fill="white" stroke="#666666" points="1308.38,-431.75 1170.88,-431.75 1170.88,-407.25 1308.38,-407.25 1308.38,-431.75"/>
<text text-anchor="middle" x="1239.62" y="-414.45" font-family="Helvetica,sans-Serif" font-size="14.00">Vbs\createShortcut</text>
</a>
</g>
</g>
<!-- Node1&#45;&gt;Node3 -->
<g id="edge2_Node000001_Node000003" class="edge">
<title>Node1&#45;&gt;Node3</title>
<g id="a_edge2_Node000001_Node000003"><a xlink:title=" ">
<path fill="none" stroke="#63b8ff" d="M1395.16,-291.82C1385.35,-321.04 1364.47,-370.54 1329,-397.5 1322.83,-402.19 1315.79,-405.89 1308.43,-408.8"/>
<polygon fill="#63b8ff" stroke="#63b8ff" points="1398.44,-293.04 1398.13,-282.45 1391.77,-290.93 1398.44,-293.04"/>
</a>
</g>
</g>
<!-- Node8 -->
<g id="Node000008" class="node">
<title>Node8</title>
<g id="a_Node000008"><a xlink:href="../../db/d0d/classRegistry.html#a08f9ad8c7f3e0d8eb42ca68d23dc9a3c" target="_top" xlink:title=" ">
<polygon fill="white" stroke="#666666" points="1294.12,-259.75 1185.12,-259.75 1185.12,-235.25 1294.12,-235.25 1294.12,-259.75"/>
<text text-anchor="middle" x="1239.62" y="-242.45" font-family="Helvetica,sans-Serif" font-size="14.00">Registry\exists</text>
</a>
</g>
</g>
<!-- Node1&#45;&gt;Node8 -->
<g id="edge7_Node000001_Node000008" class="edge">
<title>Node1&#45;&gt;Node8</title>
<g id="a_edge7_Node000001_Node000008"><a xlink:title=" ">
<path fill="none" stroke="#63b8ff" d="M1353.38,-262.17C1334.76,-259.75 1313.43,-256.97 1294.36,-254.49"/>
<polygon fill="#63b8ff" stroke="#63b8ff" points="1352.7,-265.61 1363.07,-263.43 1353.61,-258.67 1352.7,-265.61"/>
</a>
</g>
</g>
<!-- Node9 -->
<g id="Node000009" class="node">
<title>Node9</title>
<g id="a_Node000009"><a xlink:href="../../dd/de9/classVbs.html#a69142d090a5ad67d1ceb1e61e4aabf8c" target="_top" xlink:title=" ">
<polygon fill="white" stroke="#666666" points="1321.12,-388.75 1158.12,-388.75 1158.12,-364.25 1321.12,-364.25 1321.12,-388.75"/>
<text text-anchor="middle" x="1239.62" y="-371.45" font-family="Helvetica,sans-Serif" font-size="14.00">Vbs\getDefaultBrowser</text>
</a>
</g>
</g>
<!-- Node1&#45;&gt;Node9 -->
<g id="edge8_Node000001_Node000009" class="edge">
<title>Node1&#45;&gt;Node9</title>
<g id="a_edge8_Node000001_Node000009"><a xlink:title=" ">
<path fill="none" stroke="#63b8ff" d="M1388.74,-290.9C1375.91,-310.61 1354.67,-338.57 1329,-354.5 1323.09,-358.17 1316.6,-361.23 1309.9,-363.77"/>
<polygon fill="#63b8ff" stroke="#63b8ff" points="1391.68,-292.81 1394.02,-282.47 1385.74,-289.09 1391.68,-292.81"/>
</a>
</g>
</g>
<!-- Node12 -->
<g id="Node000012" class="node">
<title>Node12</title>
<g id="a_Node000012"><a xlink:href="../../dd/de9/classVbs.html#a100363cb22a264f99b1913de37a23acc" target="_top" xlink:title=" ">
<polygon fill="white" stroke="#666666" points="1329,-216.75 1150.25,-216.75 1150.25,-192.25 1329,-192.25 1329,-216.75"/>
<text text-anchor="middle" x="1239.62" y="-199.45" font-family="Helvetica,sans-Serif" font-size="14.00">Vbs\getInstalledBrowsers</text>
</a>
</g>
</g>
<!-- Node1&#45;&gt;Node12 -->
<g id="edge12_Node000001_Node000012" class="edge">
<title>Node1&#45;&gt;Node12</title>
<g id="a_edge12_Node000001_Node000012"><a xlink:title=" ">
<path fill="none" stroke="#63b8ff" d="M1374.07,-249.98C1360.84,-241.86 1344.56,-232.77 1329,-226.5 1320.2,-222.95 1310.67,-219.86 1301.24,-217.21"/>
<polygon fill="#63b8ff" stroke="#63b8ff" points="1371.92,-252.76 1382.24,-255.13 1375.65,-246.84 1371.92,-252.76"/>
</a>
</g>
</g>
<!-- Node14 -->
<g id="Node000014" class="node">
<title>Node14</title>
<g id="a_Node000014"><a xlink:href="../../dd/de9/classVbs.html#afbbfb279335ab8f60360ac25454de193" target="_top" xlink:title=" ">
<polygon fill="white" stroke="#666666" points="1302.38,-345.75 1176.88,-345.75 1176.88,-321.25 1302.38,-321.25 1302.38,-345.75"/>
<text text-anchor="middle" x="1239.62" y="-328.45" font-family="Helvetica,sans-Serif" font-size="14.00">Vbs\getListProcs</text>
</a>
</g>
</g>
<!-- Node1&#45;&gt;Node14 -->
<g id="edge14_Node000001_Node000014" class="edge">
<title>Node1&#45;&gt;Node14</title>
<g id="a_edge14_Node000001_Node000014"><a xlink:title=" ">
<path fill="none" stroke="#63b8ff" d="M1374.4,-287.32C1361.13,-295.68 1344.73,-305.07 1329,-311.5 1320.22,-315.09 1310.7,-318.21 1301.27,-320.87"/>
<polygon fill="#63b8ff" stroke="#63b8ff" points="1376.1,-290.38 1382.59,-282.01 1372.3,-284.51 1376.1,-290.38"/>
</a>
</g>
</g>
<!-- Node28 -->
<g id="Node000028" class="node">
<title>Node28</title>
<g id="a_Node000028"><a xlink:href="../../dd/de9/classVbs.html#a659e3763b0d13a6e60c1068bcdcb6e81" target="_top" xlink:title=" ">
<polygon fill="white" stroke="#666666" points="1310.25,-173.75 1169,-173.75 1169,-149.25 1310.25,-149.25 1310.25,-173.75"/>
<text text-anchor="middle" x="1239.62" y="-156.45" font-family="Helvetica,sans-Serif" font-size="14.00">Vbs\getSpecialPath</text>
</a>
</g>
</g>
<!-- Node1&#45;&gt;Node28 -->
<g id="edge30_Node000001_Node000028" class="edge">
<title>Node1&#45;&gt;Node28</title>
<g id="a_edge30_Node000001_Node000028"><a xlink:title=" ">
<path fill="none" stroke="#63b8ff" d="M1388.68,-246.36C1375.81,-226.89 1354.54,-199.25 1329,-183.5 1322.94,-179.77 1316.29,-176.66 1309.43,-174.09"/>
<polygon fill="#63b8ff" stroke="#63b8ff" points="1385.65,-248.12 1393.97,-254.68 1391.56,-244.36 1385.65,-248.12"/>
</a>
</g>
</g>
<!-- Node31 -->
<g id="Node000031" class="node">
<title>Node31</title>
<g id="a_Node000031"><a xlink:href="../../db/d0d/classRegistry.html#a5936f182b778b24d86ff9f02d676d39d" target="_top" xlink:title=" ">
<polygon fill="white" stroke="#666666" points="1303.88,-130.75 1175.38,-130.75 1175.38,-106.25 1303.88,-106.25 1303.88,-130.75"/>
<text text-anchor="middle" x="1239.62" y="-113.45" font-family="Helvetica,sans-Serif" font-size="14.00">Registry\getValue</text>
</a>
</g>
</g>
<!-- Node1&#45;&gt;Node31 -->
<g id="edge33_Node000001_Node000031" class="edge">
<title>Node1&#45;&gt;Node31</title>
<g id="a_edge33_Node000001_Node000031"><a xlink:title=" ">
<path fill="none" stroke="#63b8ff" d="M1395.11,-245.36C1385.25,-216.36 1364.31,-167.24 1329,-140.5 1321.69,-134.96 1313.16,-130.81 1304.33,-127.69"/>
<polygon fill="#63b8ff" stroke="#63b8ff" points="1391.7,-246.2 1398.09,-254.65 1398.36,-244.05 1391.7,-246.2"/>
</a>
</g>
</g>
<!-- Node32 -->
<g id="Node000032" class="node">
<title>Node32</title>
<g id="a_Node000032"><a xlink:href="../../dd/de9/classVbs.html#a986c247220459b9cc3cd7c5ba77d7fcb" target="_top" xlink:title=" ">
<polygon fill="white" stroke="#666666" points="1285.12,-302.75 1194.12,-302.75 1194.12,-278.25 1285.12,-278.25 1285.12,-302.75"/>
<text text-anchor="middle" x="1239.62" y="-285.45" font-family="Helvetica,sans-Serif" font-size="14.00">Vbs\killProc</text>
</a>
</g>
</g>
<!-- Node1&#45;&gt;Node32 -->
<g id="edge34_Node000001_Node000032" class="edge">
<title>Node1&#45;&gt;Node32</title>
<g id="a_edge34_Node000001_Node000032"><a xlink:title=" ">
<path fill="none" stroke="#63b8ff" d="M1353.36,-275.13C1331.84,-278.06 1306.69,-281.49 1285.6,-284.37"/>
<polygon fill="#63b8ff" stroke="#63b8ff" points="1353.64,-278.63 1363.07,-273.81 1352.69,-271.69 1353.64,-278.63"/>
</a>
</g>
</g>
<!-- Node40 -->
<g id="Node000040" class="node">
<title>Node40</title>
<g id="a_Node000040"><a xlink:href="../../db/d0d/classRegistry.html#a190f76a5541f724f564124ea4df49313" target="_top" xlink:title=" ">
<polygon fill="white" stroke="#666666" points="1303.5,-87.75 1175.75,-87.75 1175.75,-63.25 1303.5,-63.25 1303.5,-87.75"/>
<text text-anchor="middle" x="1239.62" y="-70.45" font-family="Helvetica,sans-Serif" font-size="14.00">Registry\setValue</text>
</a>
</g>
</g>
<!-- Node1&#45;&gt;Node40 -->
<g id="edge45_Node000001_Node000040" class="edge">
<title>Node1&#45;&gt;Node40</title>
<g id="a_edge45_Node000001_Node000040"><a xlink:title=" ">
<path fill="none" stroke="#63b8ff" d="M1398.67,-244.78C1392.18,-207.65 1374.25,-136.06 1329,-97.5 1321.66,-91.25 1312.8,-86.72 1303.56,-83.46"/>
<polygon fill="#63b8ff" stroke="#63b8ff" points="1395.19,-245.14 1400.22,-254.46 1402.1,-244.03 1395.19,-245.14"/>
</a>
</g>
</g>
<!-- Node4 -->
<g id="Node000004" class="node">
<title>Node4</title>
<g id="a_Node000004"><a xlink:href="../../d6/de4/classUtil.html#a9b64e35b8dd40090371f1710d3e3e22b" target="_top" xlink:title=" ">
<polygon fill="white" stroke="#666666" points="1110.88,-507.75 938.12,-507.75 938.12,-483.25 1110.88,-483.25 1110.88,-507.75"/>
<text text-anchor="middle" x="1024.5" y="-490.45" font-family="Helvetica,sans-Serif" font-size="14.00">Util\enableLaunchStartup</text>
</a>
</g>
</g>
<!-- Node3&#45;&gt;Node4 -->
<g id="edge3_Node000003_Node000004" class="edge">
<title>Node3&#45;&gt;Node4</title>
<g id="a_edge3_Node000003_Node000004"><a xlink:title=" ">
<path fill="none" stroke="#63b8ff" d="M1170.73,-435.19C1163.77,-437.16 1156.84,-439.27 1150.25,-441.5 1115.15,-453.37 1076.18,-470.99 1051.29,-482.85"/>
<polygon fill="#63b8ff" stroke="#63b8ff" points="1171.46,-438.62 1180.19,-432.61 1169.62,-431.86 1171.46,-438.62"/>
</a>
</g>
</g>
<!-- Node5 -->
<g id="Node000005" class="node">
<title>Node5</title>
<g id="a_Node000005"><a xlink:href="../../d7/d5e/classActionLaunchStartup.html#ac73132d2feaecbc33b08f312c698e035" target="_top" xlink:title=" ">
<polygon fill="white" stroke="#666666" points="865.38,-565 718.88,-565 718.88,-524 865.38,-524 865.38,-565"/>
<text text-anchor="start" x="726.88" y="-547.7" font-family="Helvetica,sans-Serif" font-size="14.00">ActionLaunchStartup</text>
<text text-anchor="middle" x="792.12" y="-531.2" font-family="Helvetica,sans-Serif" font-size="14.00">\__construct</text>
</a>
</g>
</g>
<!-- Node4&#45;&gt;Node5 -->
<g id="edge4_Node000004_Node000005" class="edge">
<title>Node4&#45;&gt;Node5</title>
<g id="a_edge4_Node000004_Node000005"><a xlink:title=" ">
<path fill="none" stroke="#63b8ff" d="M952.41,-510.62C924.8,-516.49 893.21,-523.21 865.48,-529.11"/>
<polygon fill="#63b8ff" stroke="#63b8ff" points="953.04,-514.07 962.09,-508.56 951.58,-507.22 953.04,-514.07"/>
</a>
</g>
</g>
<!-- Node6 -->
<g id="Node000006" class="node">
<title>Node6</title>
<g id="a_Node000006"><a xlink:href="../../d1/db8/classActionStartup.html#a8bce5b2ec99fc47b5e454fd09f926e10" target="_top" xlink:title=" ">
<polygon fill="white" stroke="#666666" points="641.25,-520 453.5,-520 453.5,-479 641.25,-479 641.25,-520"/>
<text text-anchor="start" x="461.5" y="-502.7" font-family="Helvetica,sans-Serif" font-size="14.00">ActionStartup\checkLaunch</text>
<text text-anchor="middle" x="547.38" y="-486.2" font-family="Helvetica,sans-Serif" font-size="14.00">Startup</text>
</a>
</g>
</g>
<!-- Node4&#45;&gt;Node6 -->
<g id="edge5_Node000004_Node000006" class="edge">
<title>Node4&#45;&gt;Node6</title>
<g id="a_edge5_Node000004_Node000006"><a xlink:title=" ">
<path fill="none" stroke="#63b8ff" d="M926.22,-496.32C842.91,-497.02 723.73,-498.02 641.61,-498.72"/>
<polygon fill="#63b8ff" stroke="#63b8ff" points="926.25,-499.82 936.22,-496.23 926.19,-492.82 926.25,-499.82"/>
</a>
</g>
</g>
<!-- Node7 -->
<g id="Node000007" class="node">
<title>Node7</title>
<g id="a_Node000007"><a xlink:href="../../d1/db8/classActionStartup.html#a1234a0f2093a95140d6f86983514d28f" target="_top" xlink:title=" ">
<polygon fill="white" stroke="#666666" points="409.25,-462.75 202,-462.75 202,-438.25 409.25,-438.25 409.25,-462.75"/>
<text text-anchor="middle" x="305.62" y="-445.45" font-family="Helvetica,sans-Serif" font-size="14.00">ActionStartup\processWindow</text>
</a>
</g>
</g>
<!-- Node6&#45;&gt;Node7 -->
<g id="edge6_Node000006_Node000007" class="edge">
<title>Node6&#45;&gt;Node7</title>
<g id="a_edge6_Node000006_Node000007"><a xlink:title=" ">
<path fill="none" stroke="#63b8ff" d="M442.3,-478.23C417.28,-473.12 391.32,-467.81 368.89,-463.22"/>
<polygon fill="#63b8ff" stroke="#63b8ff" points="441.36,-481.61 451.86,-480.18 442.76,-474.75 441.36,-481.61"/>
</a>
</g>
</g>
<!-- Node10 -->
<g id="Node000010" class="node">
<title>Node10</title>
<g id="a_Node000010"><a xlink:href="../../dd/dea/classActionReload.html#a9caf3b20c05475876e5dc72cdcdf6024" target="_top" xlink:title=" ">
<polygon fill="white" stroke="#666666" points="1114.25,-388.75 934.75,-388.75 934.75,-364.25 1114.25,-364.25 1114.25,-388.75"/>
<text text-anchor="middle" x="1024.5" y="-371.45" font-family="Helvetica,sans-Serif" font-size="14.00">ActionReload\__construct</text>
</a>
</g>
</g>
<!-- Node9&#45;&gt;Node10 -->
<g id="edge9_Node000009_Node000010" class="edge">
<title>Node9&#45;&gt;Node10</title>
<g id="a_edge9_Node000009_Node000010"><a xlink:title=" ">
<path fill="none" stroke="#63b8ff" d="M1146.37,-376.5C1135.8,-376.5 1125.04,-376.5 1114.51,-376.5"/>
<polygon fill="#63b8ff" stroke="#63b8ff" points="1146.23,-380 1156.23,-376.5 1146.23,-373 1146.23,-380"/>
</a>
</g>
</g>
<!-- Node11 -->
<g id="Node000011" class="node">
<title>Node11</title>
<g id="a_Node000011"><a xlink:href="../../d1/db8/classActionStartup.html#a289894c6870f166c625cd42db62f624b" target="_top" xlink:title=" ">
<polygon fill="white" stroke="#666666" points="889.38,-463.75 694.88,-463.75 694.88,-439.25 889.38,-439.25 889.38,-463.75"/>
<text text-anchor="middle" x="792.12" y="-446.45" font-family="Helvetica,sans-Serif" font-size="14.00">ActionStartup\checkBrowser</text>
</a>
</g>
</g>
<!-- Node9&#45;&gt;Node11 -->
<g id="edge10_Node000009_Node000011" class="edge">
<title>Node9&#45;&gt;Node11</title>
<g id="a_edge10_Node000009_Node000011"><a xlink:title=" ">
<path fill="none" stroke="#63b8ff" d="M1152.21,-391.1C1139.48,-393.25 1126.53,-395.43 1114.25,-397.5 1030.21,-411.66 933.79,-427.87 868.72,-438.8"/>
<polygon fill="#63b8ff" stroke="#63b8ff" points="1152.55,-394.59 1161.83,-389.48 1151.38,-387.69 1152.55,-394.59"/>
</a>
</g>
</g>
<!-- Node11&#45;&gt;Node7 -->
<g id="edge11_Node000011_Node000007" class="edge">
<title>Node11&#45;&gt;Node7</title>
<g id="a_edge11_Node000011_Node000007"><a xlink:title=" ">
<path fill="none" stroke="#63b8ff" d="M683.22,-451.28C601.58,-451.11 490.18,-450.88 409.74,-450.71"/>
<polygon fill="#63b8ff" stroke="#63b8ff" points="683.01,-454.78 693.02,-451.3 683.03,-447.78 683.01,-454.78"/>
</a>
</g>
</g>
<!-- Node13 -->
<g id="Node000013" class="node">
<title>Node13</title>
<g id="a_Node000013"><a xlink:href="../../db/d91/classActionChangeBrowser.html#af9e69c72b691978f51e2ae5de05faa5d" target="_top" xlink:title=" ">
<polygon fill="white" stroke="#666666" points="1103.38,-229 945.62,-229 945.62,-188 1103.38,-188 1103.38,-229"/>
<text text-anchor="start" x="953.62" y="-211.7" font-family="Helvetica,sans-Serif" font-size="14.00">ActionChangeBrowser</text>
<text text-anchor="middle" x="1024.5" y="-195.2" font-family="Helvetica,sans-Serif" font-size="14.00">\__construct</text>
</a>
</g>
</g>
<!-- Node12&#45;&gt;Node13 -->
<g id="edge13_Node000012_Node000013" class="edge">
<title>Node12&#45;&gt;Node13</title>
<g id="a_edge13_Node000012_Node000013"><a xlink:title=" ">
<path fill="none" stroke="#63b8ff" d="M1138.59,-206.38C1126.87,-206.6 1115.04,-206.82 1103.67,-207.03"/>
<polygon fill="#63b8ff" stroke="#63b8ff" points="1138.34,-209.88 1148.27,-206.2 1138.21,-202.88 1138.34,-209.88"/>
</a>
</g>
</g>
<!-- Node15 -->
<g id="Node000015" class="node">
<title>Node15</title>
<g id="a_Node000015"><a xlink:href="../../dc/ddb/classWin32Ps.html#afea33a59c09d4c9e2fe1bdf0d5b1d406" target="_top" xlink:title=" ">
<polygon fill="white" stroke="#666666" points="1103.75,-345.75 945.25,-345.75 945.25,-321.25 1103.75,-321.25 1103.75,-345.75"/>
<text text-anchor="middle" x="1024.5" y="-328.45" font-family="Helvetica,sans-Serif" font-size="14.00">Win32Ps\getListProcs</text>
</a>
</g>
</g>
<!-- Node14&#45;&gt;Node15 -->
<g id="edge15_Node000014_Node000015" class="edge">
<title>Node14&#45;&gt;Node15</title>
<g id="a_edge15_Node000014_Node000015"><a xlink:title=" ">
<path fill="none" stroke="#63b8ff" d="M1165.04,-333.5C1145.37,-333.5 1124.04,-333.5 1104.11,-333.5"/>
<polygon fill="#63b8ff" stroke="#63b8ff" points="1164.89,-337 1174.89,-333.5 1164.89,-330 1164.89,-337"/>
</a>
</g>
</g>
<!-- Node16 -->
<g id="Node000016" class="node">
<title>Node16</title>
<g id="a_Node000016"><a xlink:href="../../dc/ddb/classWin32Ps.html#ac0804222f21d96f2404bd798c5805576" target="_top" xlink:title=" ">
<polygon fill="white" stroke="#666666" points="865.38,-377.75 718.88,-377.75 718.88,-353.25 865.38,-353.25 865.38,-377.75"/>
<text text-anchor="middle" x="792.12" y="-360.45" font-family="Helvetica,sans-Serif" font-size="14.00">Win32Ps\findByPath</text>
</a>
</g>
</g>
<!-- Node15&#45;&gt;Node16 -->
<g id="edge16_Node000015_Node000016" class="edge">
<title>Node15&#45;&gt;Node16</title>
<g id="a_edge16_Node000015_Node000016"><a xlink:title=" ">
<path fill="none" stroke="#63b8ff" d="M933.58,-345.99C911.05,-349.12 887.16,-352.44 865.6,-355.43"/>
<polygon fill="#63b8ff" stroke="#63b8ff" points="933.94,-349.47 943.36,-344.63 932.98,-342.54 933.94,-349.47"/>
</a>
</g>
</g>
<!-- Node17 -->
<g id="Node000017" class="node">
<title>Node17</title>
<g id="a_Node000017"><a xlink:href="../../dc/ddb/classWin32Ps.html#a055648012f53f02dc744387e07e25f0a" target="_top" xlink:title=" ">
<polygon fill="white" stroke="#666666" points="861.62,-334.75 722.62,-334.75 722.62,-310.25 861.62,-310.25 861.62,-334.75"/>
<text text-anchor="middle" x="792.12" y="-317.45" font-family="Helvetica,sans-Serif" font-size="14.00">Win32Ps\findByPid</text>
</a>
</g>
</g>
<!-- Node15&#45;&gt;Node17 -->
<g id="edge17_Node000015_Node000017" class="edge">
<title>Node15&#45;&gt;Node17</title>
<g id="a_edge17_Node000015_Node000017"><a xlink:title=" ">
<path fill="none" stroke="#63b8ff" d="M933.65,-329.21C909.76,-328.07 884.34,-326.86 861.79,-325.78"/>
<polygon fill="#63b8ff" stroke="#63b8ff" points="933.19,-332.69 943.35,-329.67 933.53,-325.7 933.19,-332.69"/>
</a>
</g>
</g>
<!-- Node19 -->
<g id="Node000019" class="node">
<title>Node19</title>
<g id="a_Node000019"><a xlink:href="../../dc/ddb/classWin32Ps.html#aa522ce4696d00af3e499932fff26a2da" target="_top" xlink:title=" ">
<polygon fill="white" stroke="#666666" points="853,-291.75 731.25,-291.75 731.25,-267.25 853,-267.25 853,-291.75"/>
<text text-anchor="middle" x="792.12" y="-274.45" font-family="Helvetica,sans-Serif" font-size="14.00">Win32Ps\killBins</text>
</a>
</g>
</g>
<!-- Node15&#45;&gt;Node19 -->
<g id="edge19_Node000015_Node000019" class="edge">
<title>Node15&#45;&gt;Node19</title>
<g id="a_edge19_Node000015_Node000019"><a xlink:title=" ">
<path fill="none" stroke="#63b8ff" d="M965,-317.9C944.14,-312.5 920.44,-306.54 898.75,-301.5 884.06,-298.09 868.17,-294.65 853.28,-291.53"/>
<polygon fill="#63b8ff" stroke="#63b8ff" points="963.91,-321.24 974.47,-320.37 965.68,-314.47 963.91,-321.24"/>
</a>
</g>
</g>
<!-- Node27 -->
<g id="Node000027" class="node">
<title>Node27</title>
<g id="a_Node000027"><a xlink:href="../../d8/d73/classRoot.html#a5822729d482ed44e43363b12af6c4695" target="_top" xlink:title=" ">
<polygon fill="white" stroke="#666666" points="841.38,-420.75 742.88,-420.75 742.88,-396.25 841.38,-396.25 841.38,-420.75"/>
<text text-anchor="middle" x="792.12" y="-403.45" font-family="Helvetica,sans-Serif" font-size="14.00">Root\register</text>
</a>
</g>
</g>
<!-- Node15&#45;&gt;Node27 -->
<g id="edge29_Node000015_Node000027" class="edge">
<title>Node15&#45;&gt;Node27</title>
<g id="a_edge29_Node000015_Node000027"><a xlink:title=" ">
<path fill="none" stroke="#63b8ff" d="M946.8,-350.03C942.65,-351.69 938.61,-353.51 934.75,-355.5 915.99,-365.19 917.69,-377.16 898.75,-386.5 881.19,-395.16 860.37,-400.41 841.87,-403.6"/>
<polygon fill="#63b8ff" stroke="#63b8ff" points="947.65,-353.45 955.86,-346.75 945.26,-346.87 947.65,-353.45"/>
</a>
</g>
</g>
<!-- Node18 -->
<g id="Node000018" class="node">
<title>Node18</title>
<g id="a_Node000018"><a xlink:href="../../dc/ddb/classWin32Ps.html#a9cb77db1e38839997bdd92489c47245a" target="_top" xlink:title=" ">
<polygon fill="white" stroke="#666666" points="604.88,-422.75 489.88,-422.75 489.88,-398.25 604.88,-398.25 604.88,-422.75"/>
<text text-anchor="middle" x="547.38" y="-405.45" font-family="Helvetica,sans-Serif" font-size="14.00">Win32Ps\exists</text>
</a>
</g>
</g>
<!-- Node17&#45;&gt;Node18 -->
<g id="edge18_Node000017_Node000018" class="edge">
<title>Node17&#45;&gt;Node18</title>
<g id="a_edge18_Node000017_Node000018"><a xlink:title=" ">
<path fill="none" stroke="#63b8ff" d="M711.54,-332.88C702.4,-335.85 693.5,-339.65 685.5,-344.5 663.9,-357.6 671.05,-375.3 649.5,-388.5 636.25,-396.62 620.41,-401.76 605.24,-405.02"/>
<polygon fill="#63b8ff" stroke="#63b8ff" points="712.26,-336.32 720.9,-330.19 710.32,-329.59 712.26,-336.32"/>
</a>
</g>
</g>
<!-- Node20 -->
<g id="Node000020" class="node">
<title>Node20</title>
<g id="a_Node000020"><a xlink:href="../../d0/d9f/classActionManualRestart.html#a229630778cbd92fef95f4e99e872fdca" target="_top" xlink:title=" ">
<polygon fill="white" stroke="#666666" points="620.25,-208 474.5,-208 474.5,-167 620.25,-167 620.25,-208"/>
<text text-anchor="start" x="482.5" y="-190.7" font-family="Helvetica,sans-Serif" font-size="14.00">ActionManualRestart</text>
<text text-anchor="middle" x="547.38" y="-174.2" font-family="Helvetica,sans-Serif" font-size="14.00">\__construct</text>
</a>
</g>
</g>
<!-- Node19&#45;&gt;Node20 -->
<g id="edge20_Node000019_Node000020" class="edge">
<title>Node19&#45;&gt;Node20</title>
<g id="a_edge20_Node000019_Node000020"><a xlink:title=" ">
<path fill="none" stroke="#63b8ff" d="M719.93,-271.12C707.95,-267.93 696.01,-263.54 685.5,-257.5 664.76,-245.58 669.72,-230.27 649.5,-217.5 640.67,-211.93 630.76,-207.35 620.69,-203.6"/>
<polygon fill="#63b8ff" stroke="#63b8ff" points="718.89,-274.47 729.43,-273.38 720.51,-267.66 718.89,-274.47"/>
</a>
</g>
</g>
<!-- Node21 -->
<g id="Node000021" class="node">
<title>Node21</title>
<g id="a_Node000021"><a xlink:href="../../da/dbb/classBatch.html#a60ded4c18eb060829639a955ec294ffc" target="_top" xlink:title=" ">
<polygon fill="white" stroke="#666666" points="599.25,-250.75 495.5,-250.75 495.5,-226.25 599.25,-226.25 599.25,-250.75"/>
<text text-anchor="middle" x="547.38" y="-233.45" font-family="Helvetica,sans-Serif" font-size="14.00">Batch\exitApp</text>
</a>
</g>
</g>
<!-- Node19&#45;&gt;Node21 -->
<g id="edge21_Node000019_Node000021" class="edge">
<title>Node19&#45;&gt;Node21</title>
<g id="a_edge21_Node000019_Node000021"><a xlink:title=" ">
<path fill="none" stroke="#63b8ff" d="M719.63,-267.42C681.02,-260.9 634.25,-253 599.36,-247.11"/>
<polygon fill="#63b8ff" stroke="#63b8ff" points="718.87,-270.85 729.32,-269.06 720.04,-263.94 718.87,-270.85"/>
</a>
</g>
</g>
<!-- Node24 -->
<g id="Node000024" class="node">
<title>Node24</title>
<g id="a_Node000024"><a xlink:href="../../d1/db8/classActionStartup.html#a7a49b348e0daf7c1afc440479e15335a" target="_top" xlink:title=" ">
<polygon fill="white" stroke="#666666" points="649.5,-293.75 445.25,-293.75 445.25,-269.25 649.5,-269.25 649.5,-293.75"/>
<text text-anchor="middle" x="547.38" y="-276.45" font-family="Helvetica,sans-Serif" font-size="14.00">ActionStartup\killOldInstances</text>
</a>
</g>
</g>
<!-- Node19&#45;&gt;Node24 -->
<g id="edge25_Node000019_Node000024" class="edge">
<title>Node19&#45;&gt;Node24</title>
<g id="a_edge25_Node000019_Node000024"><a xlink:title=" ">
<path fill="none" stroke="#63b8ff" d="M719.35,-280.09C697.6,-280.27 673.29,-280.47 649.98,-280.66"/>
<polygon fill="#63b8ff" stroke="#63b8ff" points="719.32,-283.59 729.29,-280.01 719.27,-276.59 719.32,-283.59"/>
</a>
</g>
</g>
<!-- Node25 -->
<g id="Node000025" class="node">
<title>Node25</title>
<g id="a_Node000025"><a xlink:href="../../de/d86/classActionQuit.html#a2331cc6725be5a9283c65d462bfb5f5b" target="_top" xlink:title=" ">
<polygon fill="white" stroke="#666666" points="641.25,-379.75 453.5,-379.75 453.5,-355.25 641.25,-355.25 641.25,-379.75"/>
<text text-anchor="middle" x="547.38" y="-362.45" font-family="Helvetica,sans-Serif" font-size="14.00">ActionQuit\processWindow</text>
</a>
</g>
</g>
<!-- Node19&#45;&gt;Node25 -->
<g id="edge27_Node000019_Node000025" class="edge">
<title>Node19&#45;&gt;Node25</title>
<g id="a_edge27_Node000019_Node000025"><a xlink:title=" ">
<path fill="none" stroke="#63b8ff" d="M719.9,-287.41C707.87,-290.65 695.92,-295.18 685.5,-301.5 663.9,-314.6 671.05,-332.3 649.5,-345.5 643.52,-349.16 637.02,-352.22 630.29,-354.77"/>
<polygon fill="#63b8ff" stroke="#63b8ff" points="720.53,-290.86 729.45,-285.13 718.91,-284.05 720.53,-290.86"/>
</a>
</g>
</g>
<!-- Node26 -->
<g id="Node000026" class="node">
<title>Node26</title>
<g id="a_Node000026"><a xlink:href="../../d1/d42/classActionExt.html#a773acee7f7d11b500400d4c897323076" target="_top" xlink:title=" ">
<polygon fill="white" stroke="#666666" points="624.38,-336.75 470.38,-336.75 470.38,-312.25 624.38,-312.25 624.38,-336.75"/>
<text text-anchor="middle" x="547.38" y="-319.45" font-family="Helvetica,sans-Serif" font-size="14.00">ActionExt\procReload</text>
</a>
</g>
</g>
<!-- Node19&#45;&gt;Node26 -->
<g id="edge28_Node000019_Node000026" class="edge">
<title>Node19&#45;&gt;Node26</title>
<g id="a_edge28_Node000019_Node000026"><a xlink:title=" ">
<path fill="none" stroke="#63b8ff" d="M719.6,-292.76C687.18,-298.77 649.02,-305.84 616.96,-311.79"/>
<polygon fill="#63b8ff" stroke="#63b8ff" points="720.12,-296.22 729.32,-290.96 718.85,-289.34 720.12,-296.22"/>
</a>
</g>
</g>
<!-- Node22 -->
<g id="Node000022" class="node">
<title>Node22</title>
<g id="a_Node000022"><a xlink:href="../../db/d8f/classActionExec.html#a8228382d8a7768239c559563a8d58994" target="_top" xlink:title=" ">
<polygon fill="white" stroke="#666666" points="166,-250.75 0,-250.75 0,-226.25 166,-226.25 166,-250.75"/>
<text text-anchor="middle" x="83" y="-233.45" font-family="Helvetica,sans-Serif" font-size="14.00">ActionExec\__construct</text>
</a>
</g>
</g>
<!-- Node21&#45;&gt;Node22 -->
<g id="edge22_Node000021_Node000022" class="edge">
<title>Node21&#45;&gt;Node22</title>
<g id="a_edge22_Node000021_Node000022"><a xlink:title=" ">
<path fill="none" stroke="#63b8ff" d="M484.05,-239.05C460.6,-239.23 433.7,-239.41 409.25,-239.5 317.14,-239.84 294.11,-239.89 202,-239.5 190.43,-239.45 178.21,-239.37 166.21,-239.29"/>
<polygon fill="#63b8ff" stroke="#63b8ff" points="483.77,-242.55 493.74,-238.97 483.72,-235.55 483.77,-242.55"/>
</a>
</g>
</g>
<!-- Node23 -->
<g id="Node000023" class="node">
<title>Node23</title>
<g id="a_Node000023"><a xlink:href="../../da/dbb/classBatch.html#ac5c8b3c31fa2a76d1cb2b1a10ff6d4d5" target="_top" xlink:title=" ">
<polygon fill="white" stroke="#666666" points="366.5,-230.75 244.75,-230.75 244.75,-206.25 366.5,-206.25 366.5,-230.75"/>
<text text-anchor="middle" x="305.62" y="-213.45" font-family="Helvetica,sans-Serif" font-size="14.00">Batch\restartApp</text>
</a>
</g>
</g>
<!-- Node21&#45;&gt;Node23 -->
<g id="edge23_Node000021_Node000023" class="edge">
<title>Node21&#45;&gt;Node23</title>
<g id="a_edge23_Node000021_Node000023"><a xlink:title=" ">
<path fill="none" stroke="#63b8ff" d="M483.83,-233.28C447.63,-230.26 402.32,-226.48 366.57,-223.5"/>
<polygon fill="#63b8ff" stroke="#63b8ff" points="483.47,-236.76 493.73,-234.11 484.05,-229.79 483.47,-236.76"/>
</a>
</g>
</g>
<!-- Node23&#45;&gt;Node22 -->
<g id="edge24_Node000023_Node000022" class="edge">
<title>Node23&#45;&gt;Node22</title>
<g id="a_edge24_Node000023_Node000022"><a xlink:title=" ">
<path fill="none" stroke="#63b8ff" d="M233.06,-224.99C211.7,-226.92 188.11,-229.06 166.13,-231.05"/>
<polygon fill="#63b8ff" stroke="#63b8ff" points="233.19,-228.49 242.83,-224.1 232.56,-221.52 233.19,-228.49"/>
</a>
</g>
</g>
<!-- Node24&#45;&gt;Node7 -->
<g id="edge26_Node000024_Node000007" class="edge">
<title>Node24&#45;&gt;Node7</title>
<g id="a_edge26_Node000024_Node000007"><a xlink:title=" ">
<path fill="none" stroke="#63b8ff" d="M455.36,-298.44C451.88,-299.98 448.5,-301.67 445.25,-303.5 383.87,-338.19 333.42,-409.03 314.57,-437.86"/>
<polygon fill="#63b8ff" stroke="#63b8ff" points="456.61,-301.71 464.62,-294.78 454.04,-295.2 456.61,-301.71"/>
</a>
</g>
</g>
<!-- Node29 -->
<g id="Node000029" class="node">
<title>Node29</title>
<g id="a_Node000029"><a xlink:href="../../dd/de9/classVbs.html#a8371d4f8e7e1dd4bfa6f9f300293df36" target="_top" xlink:title=" ">
<polygon fill="white" stroke="#666666" points="1094,-169.75 955,-169.75 955,-145.25 1094,-145.25 1094,-169.75"/>
<text text-anchor="middle" x="1024.5" y="-152.45" font-family="Helvetica,sans-Serif" font-size="14.00">Vbs\getStartupPath</text>
</a>
</g>
</g>
<!-- Node28&#45;&gt;Node29 -->
<g id="edge31_Node000028_Node000029" class="edge">
<title>Node28&#45;&gt;Node29</title>
<g id="a_edge31_Node000028_Node000029"><a xlink:title=" ">
<path fill="none" stroke="#63b8ff" d="M1157.16,-159.97C1136.38,-159.58 1114.24,-159.17 1094.17,-158.79"/>
<polygon fill="#63b8ff" stroke="#63b8ff" points="1156.97,-163.47 1167.03,-160.16 1157.1,-156.47 1156.97,-163.47"/>
</a>
</g>
</g>
<!-- Node30 -->
<g id="Node000030" class="node">
<title>Node30</title>
<g id="a_Node000030"><a xlink:href="../../d6/de4/classUtil.html#a7ac5c068ccb6891fc8cfdf8141994df2" target="_top" xlink:title=" ">
<polygon fill="white" stroke="#666666" points="869.88,-126.75 714.38,-126.75 714.38,-102.25 869.88,-102.25 869.88,-126.75"/>
<text text-anchor="middle" x="792.12" y="-109.45" font-family="Helvetica,sans-Serif" font-size="14.00">Util\getStartupLnkPath</text>
</a>
</g>
</g>
<!-- Node29&#45;&gt;Node30 -->
<g id="edge32_Node000029_Node000030" class="edge">
<title>Node29&#45;&gt;Node30</title>
<g id="a_edge32_Node000029_Node000030"><a xlink:title=" ">
<path fill="none" stroke="#63b8ff" d="M944.31,-142.72C917.25,-137.67 887.24,-132.07 861.14,-127.19"/>
<polygon fill="#63b8ff" stroke="#63b8ff" points="943.35,-146.1 953.83,-144.5 944.64,-139.22 943.35,-146.1"/>
</a>
</g>
</g>
<!-- Node33 -->
<g id="Node000033" class="node">
<title>Node33</title>
<g id="a_Node000033"><a xlink:href="../../dc/ddb/classWin32Ps.html#a8c0952657a6a635ab2da52ac4d3c0f2b" target="_top" xlink:title=" ">
<polygon fill="white" stroke="#666666" points="1071.5,-284.75 977.5,-284.75 977.5,-260.25 1071.5,-260.25 1071.5,-284.75"/>
<text text-anchor="middle" x="1024.5" y="-267.45" font-family="Helvetica,sans-Serif" font-size="14.00">Win32Ps\kill</text>
</a>
</g>
</g>
<!-- Node32&#45;&gt;Node33 -->
<g id="edge35_Node000032_Node000033" class="edge">
<title>Node32&#45;&gt;Node33</title>
<g id="a_edge35_Node000032_Node000033"><a xlink:title=" ">
<path fill="none" stroke="#63b8ff" d="M1182.38,-285.75C1147.91,-282.84 1104.33,-279.16 1071.85,-276.41"/>
<polygon fill="#63b8ff" stroke="#63b8ff" points="1181.92,-289.22 1192.18,-286.58 1182.51,-282.25 1181.92,-289.22"/>
</a>
</g>
</g>
<!-- Node33&#45;&gt;Node19 -->
<g id="edge36_Node000033_Node000019" class="edge">
<title>Node33&#45;&gt;Node19</title>
<g id="a_edge36_Node000033_Node000019"><a xlink:title=" ">
<path fill="none" stroke="#63b8ff" d="M965.9,-274.25C931.61,-275.29 888.15,-276.61 853.4,-277.67"/>
<polygon fill="#63b8ff" stroke="#63b8ff" points="965.76,-277.76 975.64,-273.95 965.54,-270.76 965.76,-277.76"/>
</a>
</g>
</g>
<!-- Node34 -->
<g id="Node000034" class="node">
<title>Node34</title>
<g id="a_Node000034"><a xlink:href="../../df/d6b/classActionLoading.html#a8c4708dceac210a2a1b740937261a3e4" target="_top" xlink:title=" ">
<polygon fill="white" stroke="#666666" points="898.75,-248.75 685.5,-248.75 685.5,-224.25 898.75,-224.25 898.75,-248.75"/>
<text text-anchor="middle" x="792.12" y="-231.45" font-family="Helvetica,sans-Serif" font-size="14.00">ActionLoading\processLoading</text>
</a>
</g>
</g>
<!-- Node33&#45;&gt;Node34 -->
<g id="edge37_Node000033_Node000034" class="edge">
<title>Node33&#45;&gt;Node34</title>
<g id="a_edge37_Node000033_Node000034"><a xlink:title=" ">
<path fill="none" stroke="#63b8ff" d="M966.07,-263.53C938.37,-259.2 904.65,-253.93 874.37,-249.2"/>
<polygon fill="#63b8ff" stroke="#63b8ff" points="965.24,-266.94 975.66,-265.02 966.32,-260.02 965.24,-266.94"/>
</a>
</g>
</g>
<!-- Node35 -->
<g id="Node000035" class="node">
<title>Node35</title>
<g id="a_Node000035"><a xlink:href="../../d6/de4/classUtil.html#a22e3fecf41a2ea24086a6493947c4de9" target="_top" xlink:title=" ">
<polygon fill="white" stroke="#666666" points="851.12,-169.75 733.12,-169.75 733.12,-145.25 851.12,-145.25 851.12,-169.75"/>
<text text-anchor="middle" x="792.12" y="-152.45" font-family="Helvetica,sans-Serif" font-size="14.00">Util\stopLoading</text>
</a>
</g>
</g>
<!-- Node33&#45;&gt;Node35 -->
<g id="edge38_Node000033_Node000035" class="edge">
<title>Node33&#45;&gt;Node35</title>
<g id="a_edge38_Node000033_Node000035"><a xlink:title=" ">
<path fill="none" stroke="#63b8ff" d="M974.44,-255.74C961.31,-250.71 947.3,-244.83 934.75,-238.5 917.8,-229.95 915.08,-225.19 898.75,-215.5 871.22,-199.17 838.87,-181.64 817.29,-170.18"/>
<polygon fill="#63b8ff" stroke="#63b8ff" points="973.19,-259.01 983.78,-259.23 975.64,-252.45 973.19,-259.01"/>
</a>
</g>
</g>
<!-- Node35&#45;&gt;Node20 -->
<g id="edge39_Node000035_Node000020" class="edge">
<title>Node35&#45;&gt;Node20</title>
<g id="a_edge39_Node000035_Node000020"><a xlink:title=" ">
<path fill="none" stroke="#63b8ff" d="M721.32,-166.13C689.76,-170.03 652.49,-174.63 620.64,-178.57"/>
<polygon fill="#63b8ff" stroke="#63b8ff" points="721.67,-169.61 731.17,-164.91 720.82,-162.66 721.67,-169.61"/>
</a>
</g>
</g>
<!-- Node36 -->
<g id="Node000036" class="node">
<title>Node36</title>
<g id="a_Node000036"><a xlink:href="../../d7/d0e/classActionService.html#a4440ed18ce314e66ba30932864b5584b" target="_top" xlink:title=" ">
<polygon fill="white" stroke="#666666" points="638.25,-30.75 456.5,-30.75 456.5,-6.25 638.25,-6.25 638.25,-30.75"/>
<text text-anchor="middle" x="547.38" y="-13.45" font-family="Helvetica,sans-Serif" font-size="14.00">ActionService\__construct</text>
</a>
</g>
</g>
<!-- Node35&#45;&gt;Node36 -->
<g id="edge40_Node000035_Node000036" class="edge">
<title>Node35&#45;&gt;Node36</title>
<g id="a_edge40_Node000035_Node000036"><a xlink:title=" ">
<path fill="none" stroke="#63b8ff" d="M721.67,-153.33C708.53,-149.84 695.72,-144.26 685.5,-135.5 650.9,-105.84 684.1,-69.15 649.5,-39.5 645.69,-36.23 641.5,-33.43 637.06,-31.03"/>
<polygon fill="#63b8ff" stroke="#63b8ff" points="720.73,-156.7 731.25,-155.46 722.25,-149.87 720.73,-156.7"/>
</a>
</g>
</g>
<!-- Node37 -->
<g id="Node000037" class="node">
<title>Node37</title>
<g id="a_Node000037"><a xlink:href="../../da/d27/classActionCheckVersion.html#a5db3fb58d6b4b8f1dbce5d428be47380" target="_top" xlink:title=" ">
<polygon fill="white" stroke="#666666" points="648.75,-90 446,-90 446,-49 648.75,-49 648.75,-90"/>
<text text-anchor="start" x="454" y="-72.7" font-family="Helvetica,sans-Serif" font-size="14.00">ActionCheckVersion</text>
<text text-anchor="middle" x="547.38" y="-56.2" font-family="Helvetica,sans-Serif" font-size="14.00">\showVersionOkMessageBox</text>
</a>
</g>
</g>
<!-- Node35&#45;&gt;Node37 -->
<g id="edge41_Node000035_Node000037" class="edge">
<title>Node35&#45;&gt;Node37</title>
<g id="a_edge41_Node000035_Node000037"><a xlink:title=" ">
<path fill="none" stroke="#63b8ff" d="M721.85,-149.08C709.29,-145.9 696.65,-141.53 685.5,-135.5 665.59,-124.74 668.94,-111.07 649.5,-99.5 643.83,-96.13 637.76,-93.11 631.51,-90.42"/>
<polygon fill="#63b8ff" stroke="#63b8ff" points="720.82,-152.44 731.35,-151.24 722.37,-145.61 720.82,-152.44"/>
</a>
</g>
</g>
<!-- Node39 -->
<g id="Node000039" class="node">
<title>Node39</title>
<g id="a_Node000039"><a xlink:href="../../da/d27/classActionCheckVersion.html#a6e8a2ddb662d0e6077f7320e9df49c07" target="_top" xlink:title=" ">
<polygon fill="white" stroke="#666666" points="646.5,-149 448.25,-149 448.25,-108 646.5,-108 646.5,-149"/>
<text text-anchor="start" x="456.25" y="-131.7" font-family="Helvetica,sans-Serif" font-size="14.00">ActionCheckVersion</text>
<text text-anchor="middle" x="547.38" y="-115.2" font-family="Helvetica,sans-Serif" font-size="14.00">\showVersionUpdateWindow</text>
</a>
</g>
</g>
<!-- Node35&#45;&gt;Node39 -->
<g id="edge43_Node000035_Node000039" class="edge">
<title>Node35&#45;&gt;Node39</title>
<g id="a_edge43_Node000035_Node000039"><a xlink:title=" ">
<path fill="none" stroke="#63b8ff" d="M721.49,-149.18C698.16,-146.39 671.69,-143.23 646.59,-140.23"/>
<polygon fill="#63b8ff" stroke="#63b8ff" points="720.82,-152.63 731.17,-150.34 721.65,-145.68 720.82,-152.63"/>
</a>
</g>
</g>
<!-- Node38 -->
<g id="Node000038" class="node">
<title>Node38</title>
<g id="a_Node000038"><a xlink:href="../../da/d27/classActionCheckVersion.html#a28bc17b27165f0051d6daa9b4db830d3" target="_top" xlink:title=" ">
<polygon fill="white" stroke="#666666" points="378.12,-120 233.12,-120 233.12,-79 378.12,-79 378.12,-120"/>
<text text-anchor="start" x="241.12" y="-102.7" font-family="Helvetica,sans-Serif" font-size="14.00">ActionCheckVersion</text>
<text text-anchor="middle" x="305.62" y="-86.2" font-family="Helvetica,sans-Serif" font-size="14.00">\__construct</text>
</a>
</g>
</g>
<!-- Node37&#45;&gt;Node38 -->
<g id="edge42_Node000037_Node000038" class="edge">
<title>Node37&#45;&gt;Node38</title>
<g id="a_edge42_Node000037_Node000038"><a xlink:title=" ">
<path fill="none" stroke="#63b8ff" d="M434.58,-83.49C415.55,-85.87 396.24,-88.29 378.59,-90.5"/>
<polygon fill="#63b8ff" stroke="#63b8ff" points="434.75,-86.99 444.24,-82.28 433.88,-80.05 434.75,-86.99"/>
</a>
</g>
</g>
<!-- Node39&#45;&gt;Node38 -->
<g id="edge44_Node000039_Node000038" class="edge">
<title>Node39&#45;&gt;Node38</title>
<g id="a_edge44_Node000039_Node000038"><a xlink:title=" ">
<path fill="none" stroke="#63b8ff" d="M436.58,-115.22C416.84,-112.83 396.73,-110.4 378.41,-108.18"/>
<polygon fill="#63b8ff" stroke="#63b8ff" points="435.97,-118.67 446.32,-116.4 436.81,-111.72 435.97,-118.67"/>
</a>
</g>
</g>
<!-- Node41 -->
<g id="Node000041" class="node">
<title>Node41</title>
<g id="a_Node000041"><a xlink:href="../../db/d0d/classRegistry.html#ae63a1ff65a73f45574727e442d0afa22" target="_top" xlink:title=" ">
<polygon fill="white" stroke="#666666" points="1098.5,-83.75 950.5,-83.75 950.5,-59.25 1098.5,-59.25 1098.5,-83.75"/>
<text text-anchor="middle" x="1024.5" y="-66.45" font-family="Helvetica,sans-Serif" font-size="14.00">Registry\deleteValue</text>
</a>
</g>
</g>
<!-- Node40&#45;&gt;Node41 -->
<g id="edge46_Node000040_Node000041" class="edge">
<title>Node40&#45;&gt;Node41</title>
<g id="a_edge46_Node000040_Node000041"><a xlink:title=" ">
<path fill="none" stroke="#63b8ff" d="M1163.75,-74.09C1142.65,-73.7 1119.74,-73.27 1098.74,-72.87"/>
<polygon fill="#63b8ff" stroke="#63b8ff" points="1163.68,-77.59 1173.74,-74.28 1163.81,-70.6 1163.68,-77.59"/>
</a>
</g>
</g>
<!-- Node42 -->
<g id="Node000042" class="node">
<title>Node42</title>
<g id="a_Node000042"><a xlink:href="../../db/d0d/classRegistry.html#aa22ce26a46610799e48d929d9a9afcfd" target="_top" xlink:title=" ">
<polygon fill="white" stroke="#666666" points="1112.75,-41 936.25,-41 936.25,0 1112.75,0 1112.75,-41"/>
<text text-anchor="start" x="944.25" y="-23.7" font-family="Helvetica,sans-Serif" font-size="14.00">Registry\setExpandString</text>
<text text-anchor="middle" x="1024.5" y="-7.2" font-family="Helvetica,sans-Serif" font-size="14.00">Value</text>
</a>
</g>
</g>
<!-- Node40&#45;&gt;Node42 -->
<g id="edge47_Node000040_Node000042" class="edge">
<title>Node40&#45;&gt;Node42</title>
<g id="a_edge47_Node000040_Node000042"><a xlink:title=" ">
<path fill="none" stroke="#63b8ff" d="M1178.46,-59.97C1156.14,-54.21 1130.44,-47.58 1106.56,-41.42"/>
<polygon fill="#63b8ff" stroke="#63b8ff" points="1177.44,-63.32 1188,-62.43 1179.19,-56.55 1177.44,-63.32"/>
</a>
</g>
</g>
<!-- Node43 -->
<g id="Node000043" class="node">
<title>Node43</title>
<g id="a_Node000043"><a xlink:href="../../db/d0d/classRegistry.html#a598ce170cfd231fec55bb30d4cbd8c9b" target="_top" xlink:title=" ">
<polygon fill="white" stroke="#666666" points="1106.75,-126.75 942.25,-126.75 942.25,-102.25 1106.75,-102.25 1106.75,-126.75"/>
<text text-anchor="middle" x="1024.5" y="-109.45" font-family="Helvetica,sans-Serif" font-size="14.00">Registry\setStringValue</text>
</a>
</g>
</g>
<!-- Node40&#45;&gt;Node43 -->
<g id="edge48_Node000040_Node000043" class="edge">
<title>Node40&#45;&gt;Node43</title>
<g id="a_edge48_Node000040_Node000043"><a xlink:title=" ">
<path fill="none" stroke="#63b8ff" d="M1164.07,-89.14C1141.62,-93.25 1117.07,-97.74 1094.95,-101.79"/>
<polygon fill="#63b8ff" stroke="#63b8ff" points="1164.56,-92.61 1173.77,-87.37 1163.3,-85.73 1164.56,-92.61"/>
</a>
</g>
</g>
</g>
</svg>
