<?xml version="1.0" encoding="UTF-8" standalone="no"?>
<!--
  - Copyright (c) 2021-2024 Bearsampp
  - License:  GNU General Public License version 3 or later; see LICENSE.txt
  - Author: Bear
  - Website: https://bearsampp.com
  - Github: https://github.com/Bearsampp
  -->

<!DOCTYPE svg PUBLIC "-//W3C//DTD SVG 1.1//EN"
 "http://www.w3.org/Graphics/SVG/1.1/DTD/svg11.dtd">
<!-- Generated by graphviz version 11.0.0 (20240428.1522)
 -->
<!-- Title: BinMailpit\reload Pages: 1 -->
<svg width="722pt" height="119pt"
 viewBox="0.00 0.00 722.25 118.50" xmlns="http://www.w3.org/2000/svg" xmlns:xlink="http://www.w3.org/1999/xlink">
<g id="graph0" class="graph" transform="scale(1 1) rotate(0) translate(4 114.5)">
<title>BinMailpit\reload</title>
<!-- Node1 -->
<g id="Node000001" class="node">
<title>Node1</title>
<g id="a_Node000001"><a xlink:title=" ">
<polygon fill="#999999" stroke="#666666" points="714.25,-67.5 594.75,-67.5 594.75,-43 714.25,-43 714.25,-67.5"/>
<text text-anchor="middle" x="654.5" y="-50.2" font-family="Helvetica,sans-Serif" font-size="14.00">BinMailpit\reload</text>
</a>
</g>
</g>
<!-- Node2 -->
<g id="Node000002" class="node">
<title>Node2</title>
<g id="a_Node000002"><a xlink:href="../../d9/ddd/classBinMailpit.html#a82f1643d6bb2a9fcdf6e064d76017ebb" target="_top" xlink:title=" ">
<polygon fill="white" stroke="#666666" points="558.75,-110.5 404.75,-110.5 404.75,-86 558.75,-86 558.75,-110.5"/>
<text text-anchor="middle" x="481.75" y="-93.2" font-family="Helvetica,sans-Serif" font-size="14.00">BinMailpit\__construct</text>
</a>
</g>
</g>
<!-- Node1&#45;&gt;Node2 -->
<g id="edge1_Node000001_Node000002" class="edge">
<title>Node1&#45;&gt;Node2</title>
<g id="a_edge1_Node000001_Node000002"><a xlink:title=" ">
<path fill="none" stroke="#63b8ff" d="M592.08,-70.72C572.79,-75.58 551.73,-80.88 533.29,-85.52"/>
<polygon fill="#63b8ff" stroke="#63b8ff" points="592.88,-74.12 601.73,-68.29 591.17,-67.34 592.88,-74.12"/>
</a>
</g>
</g>
<!-- Node3 -->
<g id="Node000003" class="node">
<title>Node3</title>
<g id="a_Node000003"><a xlink:href="../../d9/ddd/classBinMailpit.html#a32db6d32a46a58829c4535ad33e2202f" target="_top" xlink:title=" ">
<polygon fill="white" stroke="#666666" points="553.5,-67.5 410,-67.5 410,-43 553.5,-43 553.5,-67.5"/>
<text text-anchor="middle" x="481.75" y="-50.2" font-family="Helvetica,sans-Serif" font-size="14.00">BinMailpit\setEnable</text>
</a>
</g>
</g>
<!-- Node1&#45;&gt;Node3 -->
<g id="edge2_Node000001_Node000003" class="edge">
<title>Node1&#45;&gt;Node3</title>
<g id="a_edge2_Node000001_Node000003"><a xlink:title=" ">
<path fill="none" stroke="#63b8ff" d="M582.79,-55.25C573.26,-55.25 563.48,-55.25 553.94,-55.25"/>
<polygon fill="#63b8ff" stroke="#63b8ff" points="582.75,-58.75 592.75,-55.25 582.75,-51.75 582.75,-58.75"/>
</a>
</g>
</g>
<!-- Node4 -->
<g id="Node000004" class="node">
<title>Node4</title>
<g id="a_Node000004"><a xlink:href="../../d9/ddd/classBinMailpit.html#aeedbb2df36654949b24826bb0b55f2b5" target="_top" xlink:title=" ">
<polygon fill="white" stroke="#666666" points="555.75,-24.5 407.75,-24.5 407.75,0 555.75,0 555.75,-24.5"/>
<text text-anchor="middle" x="481.75" y="-7.2" font-family="Helvetica,sans-Serif" font-size="14.00">BinMailpit\setVersion</text>
</a>
</g>
</g>
<!-- Node1&#45;&gt;Node4 -->
<g id="edge3_Node000001_Node000004" class="edge">
<title>Node1&#45;&gt;Node4</title>
<g id="a_edge3_Node000001_Node000004"><a xlink:title=" ">
<path fill="none" stroke="#63b8ff" d="M592.08,-39.78C572.79,-34.92 551.73,-29.62 533.29,-24.98"/>
<polygon fill="#63b8ff" stroke="#63b8ff" points="591.17,-43.16 601.73,-42.21 592.88,-36.38 591.17,-43.16"/>
</a>
</g>
</g>
<!-- Node5 -->
<g id="Node000005" class="node">
<title>Node5</title>
<g id="a_Node000005"><a xlink:href="../../d9/ddd/classBinMailpit.html#a9c590e2101f6ee220c101ebed2feed76" target="_top" xlink:title=" ">
<polygon fill="white" stroke="#666666" points="368.75,-24.5 203.5,-24.5 203.5,0 368.75,0 368.75,-24.5"/>
<text text-anchor="middle" x="286.12" y="-7.2" font-family="Helvetica,sans-Serif" font-size="14.00">BinMailpit\updateConfig</text>
</a>
</g>
</g>
<!-- Node4&#45;&gt;Node5 -->
<g id="edge4_Node000004_Node000005" class="edge">
<title>Node4&#45;&gt;Node5</title>
<g id="a_edge4_Node000004_Node000005"><a xlink:title=" ">
<path fill="none" stroke="#63b8ff" d="M396,-12.25C387.03,-12.25 377.91,-12.25 368.97,-12.25"/>
<polygon fill="#63b8ff" stroke="#63b8ff" points="395.76,-15.75 405.76,-12.25 395.76,-8.75 395.76,-15.75"/>
</a>
</g>
</g>
<!-- Node6 -->
<g id="Node000006" class="node">
<title>Node6</title>
<g id="a_Node000006"><a xlink:href="../../d9/ddd/classBinMailpit.html#a979d18bf9a9bdc22d98655d12307d467" target="_top" xlink:title=" ">
<polygon fill="white" stroke="#666666" points="167.5,-24.5 0,-24.5 0,0 167.5,0 167.5,-24.5"/>
<text text-anchor="middle" x="83.75" y="-7.2" font-family="Helvetica,sans-Serif" font-size="14.00">BinMailpit\switchVersion</text>
</a>
</g>
</g>
<!-- Node5&#45;&gt;Node6 -->
<g id="edge5_Node000005_Node000006" class="edge">
<title>Node5&#45;&gt;Node6</title>
<g id="a_edge5_Node000005_Node000006"><a xlink:title=" ">
<path fill="none" stroke="#63b8ff" d="M191.58,-12.25C183.71,-12.25 175.78,-12.25 168,-12.25"/>
<polygon fill="#63b8ff" stroke="#63b8ff" points="191.53,-15.75 201.53,-12.25 191.53,-8.75 191.53,-15.75"/>
</a>
</g>
</g>
</g>
</svg>
