<?xml version="1.0" encoding="UTF-8" standalone="no"?>
<!--
  - Copyright (c) 2021-2024 Bearsampp
  - License:  GNU General Public License version 3 or later; see LICENSE.txt
  - Author: Bear
  - Website: https://bearsampp.com
  - Github: https://github.com/Bearsampp
  -->

<!DOCTYPE svg PUBLIC "-//W3C//DTD SVG 1.1//EN"
 "http://www.w3.org/Graphics/SVG/1.1/DTD/svg11.dtd">
<!-- Generated by graphviz version 11.0.0 (20240428.1522)
 -->
<!-- Title: BinMailpit\setVersion Pages: 1 -->
<svg width="561pt" height="33pt"
 viewBox="0.00 0.00 560.75 32.50" xmlns="http://www.w3.org/2000/svg" xmlns:xlink="http://www.w3.org/1999/xlink">
<g id="graph0" class="graph" transform="scale(1 1) rotate(0) translate(4 28.5)">
<title>BinMailpit\setVersion</title>
<!-- Node1 -->
<g id="Node000001" class="node">
<title>Node1</title>
<g id="a_Node000001"><a xlink:title=" ">
<polygon fill="#999999" stroke="#666666" points="552.75,-24.5 404.75,-24.5 404.75,0 552.75,0 552.75,-24.5"/>
<text text-anchor="middle" x="478.75" y="-7.2" font-family="Helvetica,sans-Serif" font-size="14.00">BinMailpit\setVersion</text>
</a>
</g>
</g>
<!-- Node2 -->
<g id="Node000002" class="node">
<title>Node2</title>
<g id="a_Node000002"><a xlink:href="../../d9/ddd/classBinMailpit.html#a9c590e2101f6ee220c101ebed2feed76" target="_top" xlink:title=" ">
<polygon fill="white" stroke="#666666" points="368.75,-24.5 203.5,-24.5 203.5,0 368.75,0 368.75,-24.5"/>
<text text-anchor="middle" x="286.12" y="-7.2" font-family="Helvetica,sans-Serif" font-size="14.00">BinMailpit\updateConfig</text>
</a>
</g>
</g>
<!-- Node1&#45;&gt;Node2 -->
<g id="edge1_Node000001_Node000002" class="edge">
<title>Node1&#45;&gt;Node2</title>
<g id="a_edge1_Node000001_Node000002"><a xlink:title=" ">
<path fill="none" stroke="#63b8ff" d="M392.84,-12.25C384.95,-12.25 376.95,-12.25 369.08,-12.25"/>
<polygon fill="#63b8ff" stroke="#63b8ff" points="392.81,-15.75 402.81,-12.25 392.81,-8.75 392.81,-15.75"/>
</a>
</g>
</g>
<!-- Node3 -->
<g id="Node000003" class="node">
<title>Node3</title>
<g id="a_Node000003"><a xlink:href="../../d9/ddd/classBinMailpit.html#a979d18bf9a9bdc22d98655d12307d467" target="_top" xlink:title=" ">
<polygon fill="white" stroke="#666666" points="167.5,-24.5 0,-24.5 0,0 167.5,0 167.5,-24.5"/>
<text text-anchor="middle" x="83.75" y="-7.2" font-family="Helvetica,sans-Serif" font-size="14.00">BinMailpit\switchVersion</text>
</a>
</g>
</g>
<!-- Node2&#45;&gt;Node3 -->
<g id="edge2_Node000002_Node000003" class="edge">
<title>Node2&#45;&gt;Node3</title>
<g id="a_edge2_Node000002_Node000003"><a xlink:title=" ">
<path fill="none" stroke="#63b8ff" d="M191.58,-12.25C183.71,-12.25 175.78,-12.25 168,-12.25"/>
<polygon fill="#63b8ff" stroke="#63b8ff" points="191.53,-15.75 201.53,-12.25 191.53,-8.75 191.53,-15.75"/>
</a>
</g>
</g>
</g>
</svg>
