<?xml version="1.0" encoding="UTF-8" standalone="no"?>
<!--
  - Copyright (c) 2021-2024 Bearsampp
  - License:  GNU General Public License version 3 or later; see LICENSE.txt
  - Author: Bear
  - Website: https://bearsampp.com
  - Github: https://github.com/Bearsampp
  -->

<!DOCTYPE svg PUBLIC "-//W3C//DTD SVG 1.1//EN"
 "http://www.w3.org/Graphics/SVG/1.1/DTD/svg11.dtd">
<!-- Generated by graphviz version 11.0.0 (20240428.1522)
 -->
<!-- Title: BinMariadb\reload Pages: 1 -->
<svg width="764pt" height="119pt"
 viewBox="0.00 0.00 764.25 118.50" xmlns="http://www.w3.org/2000/svg" xmlns:xlink="http://www.w3.org/1999/xlink">
<g id="graph0" class="graph" transform="scale(1 1) rotate(0) translate(4 114.5)">
<title>BinMariadb\reload</title>
<!-- Node1 -->
<g id="Node000001" class="node">
<title>Node1</title>
<g id="a_Node000001"><a xlink:title=" ">
<polygon fill="#999999" stroke="#666666" points="756.25,-67.5 626.25,-67.5 626.25,-43 756.25,-43 756.25,-67.5"/>
<text text-anchor="middle" x="691.25" y="-50.2" font-family="Helvetica,sans-Serif" font-size="14.00">BinMariadb\reload</text>
</a>
</g>
</g>
<!-- Node2 -->
<g id="Node000002" class="node">
<title>Node2</title>
<g id="a_Node000002"><a xlink:href="../../d4/d8f/classBinMariadb.html#a556e8ccea62d307894e335d1b332850d" target="_top" xlink:title=" ">
<polygon fill="white" stroke="#666666" points="590.25,-110.5 425.75,-110.5 425.75,-86 590.25,-86 590.25,-110.5"/>
<text text-anchor="middle" x="508" y="-93.2" font-family="Helvetica,sans-Serif" font-size="14.00">BinMariadb\__construct</text>
</a>
</g>
</g>
<!-- Node1&#45;&gt;Node2 -->
<g id="edge1_Node000001_Node000002" class="edge">
<title>Node1&#45;&gt;Node2</title>
<g id="a_edge1_Node000001_Node000002"><a xlink:title=" ">
<path fill="none" stroke="#63b8ff" d="M625.91,-70.51C605.2,-75.43 582.5,-80.81 562.65,-85.52"/>
<polygon fill="#63b8ff" stroke="#63b8ff" points="626.45,-73.98 635.38,-68.27 624.84,-67.17 626.45,-73.98"/>
</a>
</g>
</g>
<!-- Node3 -->
<g id="Node000003" class="node">
<title>Node3</title>
<g id="a_Node000003"><a xlink:href="../../d4/d8f/classBinMariadb.html#a976769ec002d6256882fc608f2a971c1" target="_top" xlink:title=" ">
<polygon fill="white" stroke="#666666" points="585,-67.5 431,-67.5 431,-43 585,-43 585,-67.5"/>
<text text-anchor="middle" x="508" y="-50.2" font-family="Helvetica,sans-Serif" font-size="14.00">BinMariadb\setEnable</text>
</a>
</g>
</g>
<!-- Node1&#45;&gt;Node3 -->
<g id="edge2_Node000001_Node000003" class="edge">
<title>Node1&#45;&gt;Node3</title>
<g id="a_edge2_Node000001_Node000003"><a xlink:title=" ">
<path fill="none" stroke="#63b8ff" d="M614.6,-55.25C604.91,-55.25 594.99,-55.25 585.29,-55.25"/>
<polygon fill="#63b8ff" stroke="#63b8ff" points="614.32,-58.75 624.32,-55.25 614.32,-51.75 614.32,-58.75"/>
</a>
</g>
</g>
<!-- Node4 -->
<g id="Node000004" class="node">
<title>Node4</title>
<g id="a_Node000004"><a xlink:href="../../d4/d8f/classBinMariadb.html#a292fb8b1d860c646727ac417d240df56" target="_top" xlink:title=" ">
<polygon fill="white" stroke="#666666" points="587.25,-24.5 428.75,-24.5 428.75,0 587.25,0 587.25,-24.5"/>
<text text-anchor="middle" x="508" y="-7.2" font-family="Helvetica,sans-Serif" font-size="14.00">BinMariadb\setVersion</text>
</a>
</g>
</g>
<!-- Node1&#45;&gt;Node4 -->
<g id="edge3_Node000001_Node000004" class="edge">
<title>Node1&#45;&gt;Node4</title>
<g id="a_edge3_Node000001_Node000004"><a xlink:title=" ">
<path fill="none" stroke="#63b8ff" d="M625.91,-39.99C605.2,-35.07 582.5,-29.69 562.65,-24.98"/>
<polygon fill="#63b8ff" stroke="#63b8ff" points="624.84,-43.33 635.38,-42.23 626.45,-36.52 624.84,-43.33"/>
</a>
</g>
</g>
<!-- Node5 -->
<g id="Node000005" class="node">
<title>Node5</title>
<g id="a_Node000005"><a xlink:href="../../d4/d8f/classBinMariadb.html#a5761bf237034a02d4f7b11d048c44a3c" target="_top" xlink:title=" ">
<polygon fill="white" stroke="#666666" points="389.75,-24.5 214,-24.5 214,0 389.75,0 389.75,-24.5"/>
<text text-anchor="middle" x="301.88" y="-7.2" font-family="Helvetica,sans-Serif" font-size="14.00">BinMariadb\updateConfig</text>
</a>
</g>
</g>
<!-- Node4&#45;&gt;Node5 -->
<g id="edge4_Node000004_Node000005" class="edge">
<title>Node4&#45;&gt;Node5</title>
<g id="a_edge4_Node000004_Node000005"><a xlink:title=" ">
<path fill="none" stroke="#63b8ff" d="M417.06,-12.25C408.05,-12.25 398.92,-12.25 389.95,-12.25"/>
<polygon fill="#63b8ff" stroke="#63b8ff" points="416.86,-15.75 426.86,-12.25 416.86,-8.75 416.86,-15.75"/>
</a>
</g>
</g>
<!-- Node6 -->
<g id="Node000006" class="node">
<title>Node6</title>
<g id="a_Node000006"><a xlink:href="../../d4/d8f/classBinMariadb.html#ab2c7ba60f8e003f75502fa7112e2e31f" target="_top" xlink:title=" ">
<polygon fill="white" stroke="#666666" points="178,-24.5 0,-24.5 0,0 178,0 178,-24.5"/>
<text text-anchor="middle" x="89" y="-7.2" font-family="Helvetica,sans-Serif" font-size="14.00">BinMariadb\switchVersion</text>
</a>
</g>
</g>
<!-- Node5&#45;&gt;Node6 -->
<g id="edge5_Node000005_Node000006" class="edge">
<title>Node5&#45;&gt;Node6</title>
<g id="a_edge5_Node000005_Node000006"><a xlink:title=" ">
<path fill="none" stroke="#63b8ff" d="M202.29,-12.25C194.27,-12.25 186.19,-12.25 178.25,-12.25"/>
<polygon fill="#63b8ff" stroke="#63b8ff" points="202.07,-15.75 212.07,-12.25 202.07,-8.75 202.07,-15.75"/>
</a>
</g>
</g>
</g>
</svg>
