<?xml version="1.0" encoding="UTF-8" standalone="no"?>
<!--
  - Copyright (c) 2021-2024 Bearsampp
  - License:  GNU General Public License version 3 or later; see LICENSE.txt
  - Author: Bear
  - Website: https://bearsampp.com
  - Github: https://github.com/Bearsampp
  -->

<!DOCTYPE svg PUBLIC "-//W3C//DTD SVG 1.1//EN"
 "http://www.w3.org/Graphics/SVG/1.1/DTD/svg11.dtd">
<!-- Generated by graphviz version 11.0.0 (20240428.1522)
 -->
<!-- Title: ActionStartup\writeLog Pages: 1 -->
<!--zoomable 935 -->

<svg id="main" version="1.1" xmlns="http://www.w3.org/2000/svg" xmlns:xlink="http://www.w3.org/1999/xlink" xml:space="preserve" onload="init(evt)">
<style type="text/css"><![CDATA[
.node, .edge {opacity: 0.7;}
.node.selected, .edge.selected {opacity: 1;}
.edge:hover path { stroke: red; }
.edge:hover polygon { stroke: red; fill: red; }
]]></style>

<defs>
  <circle id="rim" cx="0" cy="0" r="7"/>
  <circle id="rim2" cx="0" cy="0" r="3.5"/>
  <g id="zoomPlus">
    <use xlink:href="#rim" fill="#404040"><set attributeName="fill" to="#808080" begin="zoomplus.mouseover" end="zoomplus.mouseout"/></use>
    <path d="M-4,0h8M0,-4v8" fill="none" stroke="white" stroke-width="1.5" pointer-events="none"/>
  </g>
  <g id="zoomMin">
    <use xlink:href="#rim" fill="#404040"><set attributeName="fill" to="#808080" begin="zoomminus.mouseover" end="zoomminus.mouseout"/></use>
    <path d="M-4,0h8" fill="none" stroke="white" stroke-width="1.5" pointer-events="none"/>
  </g>
  <g id="arrowUp" transform="translate(30 24)">
    <use xlink:href="#rim"/>
    <path pointer-events="none" fill="none" stroke="white" stroke-width="1.5" d="M0,-3.0v7 M-2.5,-0.5L0,-3.0L2.5,-0.5"/>
  </g>
  <g id="arrowRight" transform="rotate(90) translate(36 -43)">
    <use xlink:href="#rim"/>
    <path pointer-events="none" fill="none" stroke="white" stroke-width="1.5" d="M0,-3.0v7 M-2.5,-0.5L0,-3.0L2.5,-0.5"/>
  </g>
  <g id="arrowDown" transform="rotate(180) translate(-30 -48)">
    <use xlink:href="#rim"/>
    <path pointer-events="none" fill="none" stroke="white" stroke-width="1.5" d="M0,-3.0v7 M-2.5,-0.5L0,-3.0L2.5,-0.5"/>
  </g>
  <g id="arrowLeft" transform="rotate(270) translate(-36 17)">
    <use xlink:href="#rim"/>
    <path pointer-events="none" fill="none" stroke="white" stroke-width="1.5" d="M0,-3.0v7 M-2.5,-0.5L0,-3.0L2.5,-0.5"/>
  </g>
  <g id="resetDef">
    <use xlink:href="#rim2" fill="#404040"><set attributeName="fill" to="#808080" begin="reset.mouseover" end="reset.mouseout"/></use>
  </g>
</defs>
<script type="application/ecmascript">
var viewWidth = 670;
var viewHeight = 935;
var sectionId = 'dynsection-21';
</script>
<script type="application/ecmascript" xlink:href="../../svg.min.js"/>
<svg id="graph" class="graph">
<g id="viewport">
<title>ActionStartup\writeLog</title>
<!-- Node1 -->
<g id="Node000001" class="node">
<title>Node1</title>
<g id="a_Node000001"><a xlink:title=" ">
<polygon fill="#999999" stroke="#666666" points="661.5,-470.5 503,-470.5 503,-446 661.5,-446 661.5,-470.5"/>
<text text-anchor="middle" x="582.25" y="-453.2" font-family="Helvetica,sans-Serif" font-size="14.00">ActionStartup\writeLog</text>
</a>
</g>
</g>
<!-- Node2 -->
<g id="Node000002" class="node">
<title>Node2</title>
<g id="a_Node000002"><a xlink:href="../../d1/db8/classActionStartup.html#a285cd2c8807b4ae4b622fe384ac98672" target="_top" xlink:title=" ">
<polygon fill="white" stroke="#666666" points="444.5,-926.5 265.75,-926.5 265.75,-902 444.5,-902 444.5,-926.5"/>
<text text-anchor="middle" x="355.12" y="-909.2" font-family="Helvetica,sans-Serif" font-size="14.00">ActionStartup\__construct</text>
</a>
</g>
</g>
<!-- Node1&#45;&gt;Node2 -->
<g id="edge1_Node000001_Node000002" class="edge">
<title>Node1&#45;&gt;Node2</title>
<g id="a_edge1_Node000001_Node000002"><a xlink:title=" ">
<path fill="none" stroke="#63b8ff" d="M578.27,-482.31C567.55,-564.84 528.35,-834.56 467,-892.25 460.57,-898.3 452.97,-902.9 444.81,-906.38"/>
<polygon fill="#63b8ff" stroke="#63b8ff" points="581.74,-482.8 579.53,-472.43 574.79,-481.91 581.74,-482.8"/>
</a>
</g>
</g>
<!-- Node3 -->
<g id="Node000003" class="node">
<title>Node3</title>
<g id="a_Node000003"><a xlink:href="../../d1/db8/classActionStartup.html#a3ad5368c4a2382783daf1f3e8350cabb" target="_top" xlink:title=" ">
<polygon fill="white" stroke="#666666" points="444.88,-883.5 265.38,-883.5 265.38,-859 444.88,-859 444.88,-883.5"/>
<text text-anchor="middle" x="355.12" y="-866.2" font-family="Helvetica,sans-Serif" font-size="14.00">ActionStartup\changePath</text>
</a>
</g>
</g>
<!-- Node1&#45;&gt;Node3 -->
<g id="edge2_Node000001_Node000003" class="edge">
<title>Node1&#45;&gt;Node3</title>
<g id="a_edge2_Node000001_Node000003"><a xlink:title=" ">
<path fill="none" stroke="#63b8ff" d="M581.87,-482.4C582.23,-550.33 573.44,-744.68 467,-845.25 460.68,-851.22 453.25,-855.91 445.29,-859.58"/>
<polygon fill="#63b8ff" stroke="#63b8ff" points="585.37,-482.36 581.73,-472.41 578.37,-482.46 585.37,-482.36"/>
</a>
</g>
</g>
<!-- Node4 -->
<g id="Node000004" class="node">
<title>Node4</title>
<g id="a_Node000004"><a xlink:href="../../d1/db8/classActionStartup.html#a1234a0f2093a95140d6f86983514d28f" target="_top" xlink:title=" ">
<polygon fill="white" stroke="#666666" points="207.25,-448.5 0,-448.5 0,-424 207.25,-424 207.25,-448.5"/>
<text text-anchor="middle" x="103.63" y="-431.2" font-family="Helvetica,sans-Serif" font-size="14.00">ActionStartup\processWindow</text>
</a>
</g>
</g>
<!-- Node1&#45;&gt;Node4 -->
<g id="edge24_Node000001_Node000004" class="edge">
<title>Node1&#45;&gt;Node4</title>
<g id="a_edge24_Node000001_Node000004"><a xlink:title=" ">
<path fill="none" stroke="#63b8ff" d="M582.15,-482.05C583.19,-547.92 575.89,-732.98 467,-812.25 426.8,-841.52 284.04,-840.68 243.25,-812.25 115.98,-723.53 105.25,-504.07 104.6,-448.96"/>
<polygon fill="#63b8ff" stroke="#63b8ff" points="585.66,-482.28 581.91,-472.37 578.66,-482.46 585.66,-482.28"/>
</a>
</g>
</g>
<!-- Node5 -->
<g id="Node000005" class="node">
<title>Node5</title>
<g id="a_Node000005"><a xlink:href="../../d1/db8/classActionStartup.html#abe4d907f0d15217a1a5f1536c648a6d1" target="_top" xlink:title=" ">
<polygon fill="white" stroke="#666666" points="465.88,-803.5 244.38,-803.5 244.38,-779 465.88,-779 465.88,-803.5"/>
<text text-anchor="middle" x="355.12" y="-786.2" font-family="Helvetica,sans-Serif" font-size="14.00">ActionStartup\checkBinsRegKey</text>
</a>
</g>
</g>
<!-- Node1&#45;&gt;Node5 -->
<g id="edge4_Node000001_Node000005" class="edge">
<title>Node1&#45;&gt;Node5</title>
<g id="a_edge4_Node000001_Node000005"><a xlink:title=" ">
<path fill="none" stroke="#63b8ff" d="M580.07,-482.07C575.79,-540.74 556.21,-692.99 467,-769.25 462.75,-772.88 458.07,-775.98 453.11,-778.62"/>
<polygon fill="#63b8ff" stroke="#63b8ff" points="583.55,-482.44 580.69,-472.24 576.56,-482 583.55,-482.44"/>
</a>
</g>
</g>
<!-- Node6 -->
<g id="Node000006" class="node">
<title>Node6</title>
<g id="a_Node000006"><a xlink:href="../../d1/db8/classActionStartup.html#a289894c6870f166c625cd42db62f624b" target="_top" xlink:title=" ">
<polygon fill="white" stroke="#666666" points="452.38,-760.5 257.88,-760.5 257.88,-736 452.38,-736 452.38,-760.5"/>
<text text-anchor="middle" x="355.12" y="-743.2" font-family="Helvetica,sans-Serif" font-size="14.00">ActionStartup\checkBrowser</text>
</a>
</g>
</g>
<!-- Node1&#45;&gt;Node6 -->
<g id="edge6_Node000001_Node000006" class="edge">
<title>Node1&#45;&gt;Node6</title>
<g id="a_edge6_Node000001_Node000006"><a xlink:title=" ">
<path fill="none" stroke="#63b8ff" d="M578.58,-482.12C571.3,-535.25 546.01,-663.6 467,-727.25 462.58,-730.81 457.73,-733.84 452.62,-736.41"/>
<polygon fill="#63b8ff" stroke="#63b8ff" points="582.03,-482.73 579.81,-472.37 575.09,-481.85 582.03,-482.73"/>
</a>
</g>
</g>
<!-- Node7 -->
<g id="Node000007" class="node">
<title>Node7</title>
<g id="a_Node000007"><a xlink:href="../../d1/db8/classActionStartup.html#a8bce5b2ec99fc47b5e454fd09f926e10" target="_top" xlink:title=" ">
<polygon fill="white" stroke="#666666" points="449,-717.75 261.25,-717.75 261.25,-676.75 449,-676.75 449,-717.75"/>
<text text-anchor="start" x="269.25" y="-700.45" font-family="Helvetica,sans-Serif" font-size="14.00">ActionStartup\checkLaunch</text>
<text text-anchor="middle" x="355.12" y="-683.95" font-family="Helvetica,sans-Serif" font-size="14.00">Startup</text>
</a>
</g>
</g>
<!-- Node1&#45;&gt;Node7 -->
<g id="edge8_Node000001_Node000007" class="edge">
<title>Node1&#45;&gt;Node7</title>
<g id="a_edge8_Node000001_Node000007"><a xlink:title=" ">
<path fill="none" stroke="#63b8ff" d="M575.08,-481.72C562.43,-525.16 529.35,-618.12 467,-667.25 461.6,-671.51 455.64,-675.16 449.37,-678.3"/>
<polygon fill="#63b8ff" stroke="#63b8ff" points="578.39,-482.89 577.71,-472.32 571.65,-481.01 578.39,-482.89"/>
</a>
</g>
</g>
<!-- Node8 -->
<g id="Node000008" class="node">
<title>Node8</title>
<g id="a_Node000008"><a xlink:href="../../d1/db8/classActionStartup.html#a198e31dd1b8ae7457eb18959a04a2748" target="_top" xlink:title=" ">
<polygon fill="white" stroke="#666666" points="440.38,-658.5 269.88,-658.5 269.88,-634 440.38,-634 440.38,-658.5"/>
<text text-anchor="middle" x="355.12" y="-641.2" font-family="Helvetica,sans-Serif" font-size="14.00">ActionStartup\checkPath</text>
</a>
</g>
</g>
<!-- Node1&#45;&gt;Node8 -->
<g id="edge10_Node000001_Node000008" class="edge">
<title>Node1&#45;&gt;Node8</title>
<g id="a_edge10_Node000001_Node000008"><a xlink:title=" ">
<path fill="none" stroke="#63b8ff" d="M572.23,-481.28C556.65,-517.84 521.06,-588.68 467,-624.25 458.97,-629.54 449.95,-633.6 440.61,-636.73"/>
<polygon fill="#63b8ff" stroke="#63b8ff" points="575.44,-482.68 576.01,-472.1 568.97,-480.01 575.44,-482.68"/>
</a>
</g>
</g>
<!-- Node9 -->
<g id="Node000009" class="node">
<title>Node9</title>
<g id="a_Node000009"><a xlink:href="../../d1/db8/classActionStartup.html#a35c15a92432c3feae9bddbd05e290a54" target="_top" xlink:title=" ">
<polygon fill="white" stroke="#666666" points="466.25,-615.5 244,-615.5 244,-591 466.25,-591 466.25,-615.5"/>
<text text-anchor="middle" x="355.12" y="-598.2" font-family="Helvetica,sans-Serif" font-size="14.00">ActionStartup\checkPathRegKey</text>
</a>
</g>
</g>
<!-- Node1&#45;&gt;Node9 -->
<g id="edge12_Node000001_Node000009" class="edge">
<title>Node1&#45;&gt;Node9</title>
<g id="a_edge12_Node000001_Node000009"><a xlink:title=" ">
<path fill="none" stroke="#63b8ff" d="M567.48,-480.38C548.55,-508.82 511.68,-557.45 467,-582.25 461.18,-585.48 454.94,-588.23 448.51,-590.56"/>
<polygon fill="#63b8ff" stroke="#63b8ff" points="570.3,-482.47 572.81,-472.17 564.43,-478.66 570.3,-482.47"/>
</a>
</g>
</g>
<!-- Node10 -->
<g id="Node000010" class="node">
<title>Node10</title>
<g id="a_Node000010"><a xlink:href="../../d1/db8/classActionStartup.html#a61f94962e7c517030d942e10b3ab1a30" target="_top" xlink:title=" ">
<polygon fill="white" stroke="#666666" points="450.12,-572.75 260.12,-572.75 260.12,-531.75 450.12,-531.75 450.12,-572.75"/>
<text text-anchor="start" x="268.12" y="-555.45" font-family="Helvetica,sans-Serif" font-size="14.00">ActionStartup\checkSystem</text>
<text text-anchor="middle" x="355.12" y="-538.95" font-family="Helvetica,sans-Serif" font-size="14.00">PathRegKey</text>
</a>
</g>
</g>
<!-- Node1&#45;&gt;Node10 -->
<g id="edge14_Node000001_Node000010" class="edge">
<title>Node1&#45;&gt;Node10</title>
<g id="a_edge14_Node000001_Node000010"><a xlink:title=" ">
<path fill="none" stroke="#63b8ff" d="M552.57,-476.94C530.04,-490.96 497.48,-509.81 467,-522.25 458.97,-525.53 450.47,-528.56 441.88,-531.33"/>
<polygon fill="#63b8ff" stroke="#63b8ff" points="554.31,-479.98 560.89,-471.68 550.57,-474.06 554.31,-479.98"/>
</a>
</g>
</g>
<!-- Node11 -->
<g id="Node000011" class="node">
<title>Node11</title>
<g id="a_Node000011"><a xlink:href="../../d1/db8/classActionStartup.html#a503046027e744d4d407cd5de2be199f2" target="_top" xlink:title=" ">
<polygon fill="white" stroke="#666666" points="467,-513.5 243.25,-513.5 243.25,-489 467,-489 467,-513.5"/>
<text text-anchor="middle" x="355.12" y="-496.2" font-family="Helvetica,sans-Serif" font-size="14.00">ActionStartup\cleanOldBehaviors</text>
</a>
</g>
</g>
<!-- Node1&#45;&gt;Node11 -->
<g id="edge16_Node000001_Node000011" class="edge">
<title>Node1&#45;&gt;Node11</title>
<g id="a_edge16_Node000001_Node000011"><a xlink:title=" ">
<path fill="none" stroke="#63b8ff" d="M503.52,-473.1C477.16,-478.13 447.98,-483.71 422.59,-488.56"/>
<polygon fill="#63b8ff" stroke="#63b8ff" points="503.97,-476.57 513.13,-471.26 502.65,-469.7 503.97,-476.57"/>
</a>
</g>
</g>
<!-- Node12 -->
<g id="Node000012" class="node">
<title>Node12</title>
<g id="a_Node000012"><a xlink:href="../../d1/db8/classActionStartup.html#af9393b14a8b30d4ba7ef910d0fb9faf0" target="_top" xlink:title=" ">
<polygon fill="white" stroke="#666666" points="463.25,-470.5 247,-470.5 247,-446 463.25,-446 463.25,-470.5"/>
<text text-anchor="middle" x="355.12" y="-453.2" font-family="Helvetica,sans-Serif" font-size="14.00">ActionStartup\cleanTmpFolders</text>
</a>
</g>
</g>
<!-- Node1&#45;&gt;Node12 -->
<g id="edge18_Node000001_Node000012" class="edge">
<title>Node1&#45;&gt;Node12</title>
<g id="a_edge18_Node000001_Node000012"><a xlink:title=" ">
<path fill="none" stroke="#63b8ff" d="M491.19,-458.25C482.15,-458.25 472.9,-458.25 463.71,-458.25"/>
<polygon fill="#63b8ff" stroke="#63b8ff" points="491,-461.75 501,-458.25 491,-454.75 491,-461.75"/>
</a>
</g>
</g>
<!-- Node13 -->
<g id="Node000013" class="node">
<title>Node13</title>
<g id="a_Node000013"><a xlink:href="../../d1/db8/classActionStartup.html#adef126078efed832ed35196e0e159144" target="_top" xlink:title=" ">
<polygon fill="white" stroke="#666666" points="452.75,-427.5 257.5,-427.5 257.5,-403 452.75,-403 452.75,-427.5"/>
<text text-anchor="middle" x="355.12" y="-410.2" font-family="Helvetica,sans-Serif" font-size="14.00">ActionStartup\installServices</text>
</a>
</g>
</g>
<!-- Node1&#45;&gt;Node13 -->
<g id="edge20_Node000001_Node000013" class="edge">
<title>Node1&#45;&gt;Node13</title>
<g id="a_edge20_Node000001_Node000013"><a xlink:title=" ">
<path fill="none" stroke="#63b8ff" d="M503.52,-443.4C477.16,-438.37 447.98,-432.79 422.59,-427.94"/>
<polygon fill="#63b8ff" stroke="#63b8ff" points="502.65,-446.8 513.13,-445.24 503.97,-439.93 502.65,-446.8"/>
</a>
</g>
</g>
<!-- Node14 -->
<g id="Node000014" class="node">
<title>Node14</title>
<g id="a_Node000014"><a xlink:href="../../d1/db8/classActionStartup.html#a7a49b348e0daf7c1afc440479e15335a" target="_top" xlink:title=" ">
<polygon fill="white" stroke="#666666" points="457.25,-384.5 253,-384.5 253,-360 457.25,-360 457.25,-384.5"/>
<text text-anchor="middle" x="355.12" y="-367.2" font-family="Helvetica,sans-Serif" font-size="14.00">ActionStartup\killOldInstances</text>
</a>
</g>
</g>
<!-- Node1&#45;&gt;Node14 -->
<g id="edge22_Node000001_Node000014" class="edge">
<title>Node1&#45;&gt;Node14</title>
<g id="a_edge22_Node000001_Node000014"><a xlink:title=" ">
<path fill="none" stroke="#63b8ff" d="M553.6,-439.48C531.17,-425.08 498.26,-405.78 467,-394.25 457.15,-390.62 446.57,-387.54 436.01,-384.95"/>
<polygon fill="#63b8ff" stroke="#63b8ff" points="551.57,-442.33 561.86,-444.88 555.4,-436.48 551.57,-442.33"/>
</a>
</g>
</g>
<!-- Node15 -->
<g id="Node000015" class="node">
<title>Node15</title>
<g id="a_Node000015"><a xlink:href="../../d1/db8/classActionStartup.html#a4c43b5324eadba7224731ae6ddf0c658" target="_top" xlink:title=" ">
<polygon fill="white" stroke="#666666" points="453.12,-341.5 257.12,-341.5 257.12,-317 453.12,-317 453.12,-341.5"/>
<text text-anchor="middle" x="355.12" y="-324.2" font-family="Helvetica,sans-Serif" font-size="14.00">ActionStartup\refreshAliases</text>
</a>
</g>
</g>
<!-- Node1&#45;&gt;Node15 -->
<g id="edge25_Node000001_Node000015" class="edge">
<title>Node1&#45;&gt;Node15</title>
<g id="a_edge25_Node000001_Node000015"><a xlink:title=" ">
<path fill="none" stroke="#63b8ff" d="M564.65,-436.67C544.4,-411.96 507.77,-372.18 467,-351.25 459.84,-347.58 452.13,-344.51 444.23,-341.96"/>
<polygon fill="#63b8ff" stroke="#63b8ff" points="561.9,-438.84 570.88,-444.46 567.37,-434.47 561.9,-438.84"/>
</a>
</g>
</g>
<!-- Node16 -->
<g id="Node000016" class="node">
<title>Node16</title>
<g id="a_Node000016"><a xlink:href="../../d1/db8/classActionStartup.html#a6d7b825add269ff2d3e8aacaefb00900" target="_top" xlink:title=" ">
<polygon fill="white" stroke="#666666" points="438.88,-298.75 271.38,-298.75 271.38,-257.75 438.88,-257.75 438.88,-298.75"/>
<text text-anchor="start" x="279.38" y="-281.45" font-family="Helvetica,sans-Serif" font-size="14.00">ActionStartup\refreshGit</text>
<text text-anchor="middle" x="355.12" y="-264.95" font-family="Helvetica,sans-Serif" font-size="14.00">Repos</text>
</a>
</g>
</g>
<!-- Node1&#45;&gt;Node16 -->
<g id="edge27_Node000001_Node000016" class="edge">
<title>Node1&#45;&gt;Node16</title>
<g id="a_edge27_Node000001_Node000016"><a xlink:title=" ">
<path fill="none" stroke="#63b8ff" d="M570.12,-435.46C552.75,-402.33 516.05,-341.24 467,-308.25 458.56,-302.57 449.08,-297.97 439.32,-294.23"/>
<polygon fill="#63b8ff" stroke="#63b8ff" points="566.91,-436.87 574.57,-444.19 573.15,-433.69 566.91,-436.87"/>
</a>
</g>
</g>
<!-- Node17 -->
<g id="Node000017" class="node">
<title>Node17</title>
<g id="a_Node000017"><a xlink:href="../../d1/db8/classActionStartup.html#a375f4535f965cc900c3b4a2cc31e5ad5" target="_top" xlink:title=" ">
<polygon fill="white" stroke="#666666" points="462.12,-239.5 248.12,-239.5 248.12,-215 462.12,-215 462.12,-239.5"/>
<text text-anchor="middle" x="355.12" y="-222.2" font-family="Helvetica,sans-Serif" font-size="14.00">ActionStartup\refreshHostname</text>
</a>
</g>
</g>
<!-- Node1&#45;&gt;Node17 -->
<g id="edge29_Node000001_Node000017" class="edge">
<title>Node1&#45;&gt;Node17</title>
<g id="a_edge29_Node000001_Node000017"><a xlink:title=" ">
<path fill="none" stroke="#63b8ff" d="M575.48,-434.68C563.41,-390.71 531.14,-296.33 467,-249.25 462.02,-245.59 456.58,-242.5 450.88,-239.89"/>
<polygon fill="#63b8ff" stroke="#63b8ff" points="572.05,-435.42 577.97,-444.21 578.82,-433.65 572.05,-435.42"/>
</a>
</g>
</g>
<!-- Node18 -->
<g id="Node000018" class="node">
<title>Node18</title>
<g id="a_Node000018"><a xlink:href="../../d1/db8/classActionStartup.html#abb0d87db7ca81662b67ab8d4c75e76b7" target="_top" xlink:title=" ">
<polygon fill="white" stroke="#666666" points="452,-196.5 258.25,-196.5 258.25,-172 452,-172 452,-196.5"/>
<text text-anchor="middle" x="355.12" y="-179.2" font-family="Helvetica,sans-Serif" font-size="14.00">ActionStartup\refreshVhosts</text>
</a>
</g>
</g>
<!-- Node1&#45;&gt;Node18 -->
<g id="edge31_Node000001_Node000018" class="edge">
<title>Node1&#45;&gt;Node18</title>
<g id="a_edge31_Node000001_Node000018"><a xlink:title=" ">
<path fill="none" stroke="#63b8ff" d="M577.81,-434.53C569.16,-383.97 541.58,-265.4 467,-206.25 462.46,-202.65 457.5,-199.59 452.27,-196.99"/>
<polygon fill="#63b8ff" stroke="#63b8ff" points="574.3,-434.76 579.34,-444.08 581.21,-433.66 574.3,-434.76"/>
</a>
</g>
</g>
<!-- Node19 -->
<g id="Node000019" class="node">
<title>Node19</title>
<g id="a_Node000019"><a xlink:href="../../d1/db8/classActionStartup.html#aad04cc485baf72c8fff49a1c39c7f7c8" target="_top" xlink:title=" ">
<polygon fill="white" stroke="#666666" points="436.62,-153.5 273.62,-153.5 273.62,-129 436.62,-129 436.62,-153.5"/>
<text text-anchor="middle" x="355.12" y="-136.2" font-family="Helvetica,sans-Serif" font-size="14.00">ActionStartup\savePath</text>
</a>
</g>
</g>
<!-- Node1&#45;&gt;Node19 -->
<g id="edge33_Node000001_Node000019" class="edge">
<title>Node1&#45;&gt;Node19</title>
<g id="a_edge33_Node000001_Node000019"><a xlink:title=" ">
<path fill="none" stroke="#63b8ff" d="M579.54,-434.5C574.12,-377.97 552.24,-234.84 467,-163.25 458.28,-155.93 447.83,-150.8 436.86,-147.24"/>
<polygon fill="#63b8ff" stroke="#63b8ff" points="576.03,-434.6 580.38,-444.26 583.01,-434 576.03,-434.6"/>
</a>
</g>
</g>
<!-- Node20 -->
<g id="Node000020" class="node">
<title>Node20</title>
<g id="a_Node000020"><a xlink:href="../../d1/db8/classActionStartup.html#ac821b68c4b5464e564fbd59fc51f9ceb" target="_top" xlink:title=" ">
<polygon fill="white" stroke="#666666" points="446.75,-110.5 263.5,-110.5 263.5,-86 446.75,-86 446.75,-110.5"/>
<text text-anchor="middle" x="355.12" y="-93.2" font-family="Helvetica,sans-Serif" font-size="14.00">ActionStartup\scanFolders</text>
</a>
</g>
</g>
<!-- Node1&#45;&gt;Node20 -->
<g id="edge35_Node000001_Node000020" class="edge">
<title>Node1&#45;&gt;Node20</title>
<g id="a_edge35_Node000001_Node000020"><a xlink:title=" ">
<path fill="none" stroke="#63b8ff" d="M580.86,-434.5C578.48,-372.46 563.04,-204.54 467,-120.25 461.1,-115.07 454.34,-110.97 447.13,-107.75"/>
<polygon fill="#63b8ff" stroke="#63b8ff" points="577.36,-434.34 581.15,-444.24 584.35,-434.14 577.36,-434.34"/>
</a>
</g>
</g>
<!-- Node21 -->
<g id="Node000021" class="node">
<title>Node21</title>
<g id="a_Node000021"><a xlink:href="../../d1/db8/classActionStartup.html#a2e2b7096ab5febcc31b263711b77c2b9" target="_top" xlink:title=" ">
<polygon fill="white" stroke="#666666" points="434.38,-67.5 275.88,-67.5 275.88,-43 434.38,-43 434.38,-67.5"/>
<text text-anchor="middle" x="355.12" y="-50.2" font-family="Helvetica,sans-Serif" font-size="14.00">ActionStartup\sysInfos</text>
</a>
</g>
</g>
<!-- Node1&#45;&gt;Node21 -->
<g id="edge37_Node000001_Node000021" class="edge">
<title>Node1&#45;&gt;Node21</title>
<g id="a_edge37_Node000001_Node000021"><a xlink:title=" ">
<path fill="none" stroke="#63b8ff" d="M581.91,-434.28C582.37,-366.89 573.82,-174.33 467,-77.25 457.92,-69 446.67,-63.47 434.84,-59.82"/>
<polygon fill="#63b8ff" stroke="#63b8ff" points="578.41,-434.13 581.76,-444.18 585.41,-434.24 578.41,-434.13"/>
</a>
</g>
</g>
<!-- Node22 -->
<g id="Node000022" class="node">
<title>Node22</title>
<g id="a_Node000022"><a xlink:href="../../d1/db8/classActionStartup.html#abed5064974e386885e590b8e568b7203" target="_top" xlink:title=" ">
<polygon fill="white" stroke="#666666" points="450.12,-24.5 260.12,-24.5 260.12,0 450.12,0 450.12,-24.5"/>
<text text-anchor="middle" x="355.12" y="-7.2" font-family="Helvetica,sans-Serif" font-size="14.00">ActionStartup\updateConfig</text>
</a>
</g>
</g>
<!-- Node1&#45;&gt;Node22 -->
<g id="edge39_Node000001_Node000022" class="edge">
<title>Node1&#45;&gt;Node22</title>
<g id="a_edge39_Node000001_Node000022"><a xlink:title=" ">
<path fill="none" stroke="#63b8ff" d="M578.15,-434.49C567.11,-353.54 527.13,-90.46 467,-34.25 462.05,-29.63 456.43,-25.85 450.39,-22.77"/>
<polygon fill="#63b8ff" stroke="#63b8ff" points="574.68,-434.91 579.47,-444.36 581.61,-433.98 574.68,-434.91"/>
</a>
</g>
</g>
<!-- Node3&#45;&gt;Node4 -->
<g id="edge3_Node000003_Node000004" class="edge">
<title>Node3&#45;&gt;Node4</title>
<g id="a_edge3_Node000003_Node000004"><a xlink:title=" ">
<path fill="none" stroke="#63b8ff" d="M254.88,-853.9C250.74,-851.37 246.83,-848.5 243.25,-845.25 119.19,-732.61 106.09,-504.91 104.76,-448.91"/>
<polygon fill="#63b8ff" stroke="#63b8ff" points="253.11,-856.92 263.59,-858.49 256.38,-850.73 253.11,-856.92"/>
</a>
</g>
</g>
<!-- Node5&#45;&gt;Node4 -->
<g id="edge5_Node000005_Node000004" class="edge">
<title>Node5&#45;&gt;Node4</title>
<g id="a_edge5_Node000005_Node000004"><a xlink:title=" ">
<path fill="none" stroke="#63b8ff" d="M247.94,-772.78C246.33,-771.67 244.76,-770.49 243.25,-769.25 136.66,-681.97 110.89,-498.77 105.75,-448.98"/>
<polygon fill="#63b8ff" stroke="#63b8ff" points="245.9,-775.64 256.28,-777.76 249.49,-769.63 245.9,-775.64"/>
</a>
</g>
</g>
<!-- Node6&#45;&gt;Node4 -->
<g id="edge7_Node000006_Node000004" class="edge">
<title>Node6&#45;&gt;Node4</title>
<g id="a_edge7_Node000006_Node000004"><a xlink:title=" ">
<path fill="none" stroke="#63b8ff" d="M247.94,-730.59C246.34,-729.53 244.77,-728.42 243.25,-727.25 146.85,-652.94 114.19,-494.85 106.55,-448.97"/>
<polygon fill="#63b8ff" stroke="#63b8ff" points="245.8,-733.4 256.23,-735.3 249.26,-727.32 245.8,-733.4"/>
</a>
</g>
</g>
<!-- Node7&#45;&gt;Node4 -->
<g id="edge9_Node000007_Node000004" class="edge">
<title>Node7&#45;&gt;Node4</title>
<g id="a_edge9_Node000007_Node000004"><a xlink:title=" ">
<path fill="none" stroke="#63b8ff" d="M250.9,-672.47C248.26,-670.84 245.7,-669.1 243.25,-667.25 163.96,-607.32 120.79,-487.72 108.4,-448.8"/>
<polygon fill="#63b8ff" stroke="#63b8ff" points="249.03,-675.43 259.47,-677.19 252.4,-669.3 249.03,-675.43"/>
</a>
</g>
</g>
<!-- Node8&#45;&gt;Node4 -->
<g id="edge11_Node000008_Node000004" class="edge">
<title>Node8&#45;&gt;Node4</title>
<g id="a_edge11_Node000008_Node000004"><a xlink:title=" ">
<path fill="none" stroke="#63b8ff" d="M258.84,-632.36C253.39,-630.04 248.15,-627.36 243.25,-624.25 172.04,-579.04 125.03,-483.19 109.91,-448.83"/>
<polygon fill="#63b8ff" stroke="#63b8ff" points="257.51,-635.6 268.1,-635.84 259.97,-629.05 257.51,-635.6"/>
</a>
</g>
</g>
<!-- Node9&#45;&gt;Node4 -->
<g id="edge13_Node000009_Node000004" class="edge">
<title>Node9&#45;&gt;Node4</title>
<g id="a_edge13_Node000009_Node000004"><a xlink:title=" ">
<path fill="none" stroke="#63b8ff" d="M251.55,-586.35C248.71,-585.08 245.94,-583.72 243.25,-582.25 181.57,-548.61 131.29,-477.79 112.53,-448.91"/>
<polygon fill="#63b8ff" stroke="#63b8ff" points="250.09,-589.54 260.67,-590 252.68,-583.04 250.09,-589.54"/>
</a>
</g>
</g>
<!-- Node10&#45;&gt;Node4 -->
<g id="edge15_Node000010_Node000004" class="edge">
<title>Node10&#45;&gt;Node4</title>
<g id="a_edge15_Node000010_Node000004"><a xlink:title=" ">
<path fill="none" stroke="#63b8ff" d="M256.43,-527.55C251.93,-525.87 247.52,-524.1 243.25,-522.25 196.23,-501.83 146.4,-467.29 121.24,-448.81"/>
<polygon fill="#63b8ff" stroke="#63b8ff" points="255.01,-530.76 265.61,-530.8 257.35,-524.16 255.01,-530.76"/>
</a>
</g>
</g>
<!-- Node11&#45;&gt;Node4 -->
<g id="edge17_Node000011_Node000004" class="edge">
<title>Node11&#45;&gt;Node4</title>
<g id="a_edge17_Node000011_Node000004"><a xlink:title=" ">
<path fill="none" stroke="#63b8ff" d="M272.84,-486.14C262.84,-483.98 252.79,-481.67 243.25,-479.25 208.44,-470.42 169.43,-458.1 141.69,-448.91"/>
<polygon fill="#63b8ff" stroke="#63b8ff" points="272.1,-489.56 282.6,-488.2 273.54,-482.71 272.1,-489.56"/>
</a>
</g>
</g>
<!-- Node12&#45;&gt;Node4 -->
<g id="edge19_Node000012_Node000004" class="edge">
<title>Node12&#45;&gt;Node4</title>
<g id="a_edge19_Node000012_Node000004"><a xlink:title=" ">
<path fill="none" stroke="#63b8ff" d="M235.25,-447.77C225.99,-446.95 216.69,-446.13 207.55,-445.33"/>
<polygon fill="#63b8ff" stroke="#63b8ff" points="234.73,-451.24 245,-448.63 235.34,-444.26 234.73,-451.24"/>
</a>
</g>
</g>
<!-- Node13&#45;&gt;Node4 -->
<g id="edge21_Node000013_Node000004" class="edge">
<title>Node13&#45;&gt;Node4</title>
<g id="a_edge21_Node000013_Node000004"><a xlink:title=" ">
<path fill="none" stroke="#63b8ff" d="M246.14,-424.34C233.34,-425.42 220.31,-426.51 207.58,-427.58"/>
<polygon fill="#63b8ff" stroke="#63b8ff" points="246.13,-427.85 255.8,-423.53 245.54,-420.88 246.13,-427.85"/>
</a>
</g>
</g>
<!-- Node14&#45;&gt;Node4 -->
<g id="edge23_Node000014_Node000004" class="edge">
<title>Node14&#45;&gt;Node4</title>
<g id="a_edge23_Node000014_Node000004"><a xlink:title=" ">
<path fill="none" stroke="#63b8ff" d="M273.4,-387.3C263.22,-389.48 252.97,-391.82 243.25,-394.25 208.97,-402.82 170.57,-414.63 142.89,-423.55"/>
<polygon fill="#63b8ff" stroke="#63b8ff" points="273.85,-390.79 282.91,-385.31 272.41,-383.93 273.85,-390.79"/>
</a>
</g>
</g>
<!-- Node15&#45;&gt;Node4 -->
<g id="edge26_Node000015_Node000004" class="edge">
<title>Node15&#45;&gt;Node4</title>
<g id="a_edge26_Node000015_Node000004"><a xlink:title=" ">
<path fill="none" stroke="#63b8ff" d="M261.84,-344.93C255.47,-346.82 249.22,-348.91 243.25,-351.25 195.4,-369.97 145.52,-405.04 120.68,-423.74"/>
<polygon fill="#63b8ff" stroke="#63b8ff" points="262.46,-348.39 271.17,-342.36 260.6,-341.64 262.46,-348.39"/>
</a>
</g>
</g>
<!-- Node16&#45;&gt;Node4 -->
<g id="edge28_Node000016_Node000004" class="edge">
<title>Node16&#45;&gt;Node4</title>
<g id="a_edge28_Node000016_Node000004"><a xlink:title=" ">
<path fill="none" stroke="#63b8ff" d="M260.24,-300.12C254.36,-302.56 248.65,-305.27 243.25,-308.25 187.06,-339.31 135.65,-397.84 114.64,-423.57"/>
<polygon fill="#63b8ff" stroke="#63b8ff" points="261.46,-303.4 269.53,-296.54 258.94,-296.87 261.46,-303.4"/>
</a>
</g>
</g>
<!-- Node17&#45;&gt;Node4 -->
<g id="edge30_Node000017_Node000004" class="edge">
<title>Node17&#45;&gt;Node4</title>
<g id="a_edge30_Node000017_Node000004"><a xlink:title=" ">
<path fill="none" stroke="#63b8ff" d="M251.42,-244.61C248.61,-246.04 245.88,-247.59 243.25,-249.25 172.23,-294.21 125.1,-389.56 109.93,-423.73"/>
<polygon fill="#63b8ff" stroke="#63b8ff" points="252.81,-247.82 260.5,-240.53 249.94,-241.44 252.81,-247.82"/>
</a>
</g>
</g>
<!-- Node18&#45;&gt;Node4 -->
<g id="edge32_Node000018_Node000004" class="edge">
<title>Node18&#45;&gt;Node4</title>
<g id="a_edge32_Node000018_Node000004"><a xlink:title=" ">
<path fill="none" stroke="#63b8ff" d="M249.83,-202.06C247.57,-203.37 245.37,-204.76 243.25,-206.25 162.17,-263.18 120.18,-384.07 108.25,-423.52"/>
<polygon fill="#63b8ff" stroke="#63b8ff" points="251.38,-205.2 258.74,-197.58 248.24,-198.95 251.38,-205.2"/>
</a>
</g>
</g>
<!-- Node19&#45;&gt;Node4 -->
<g id="edge34_Node000019_Node000004" class="edge">
<title>Node19&#45;&gt;Node4</title>
<g id="a_edge34_Node000019_Node000004"><a xlink:title=" ">
<path fill="none" stroke="#63b8ff" d="M262.76,-152.15C255.8,-155.1 249.19,-158.75 243.25,-163.25 151.52,-232.75 115.8,-379.95 106.96,-423.72"/>
<polygon fill="#63b8ff" stroke="#63b8ff" points="263.58,-155.58 271.75,-148.83 261.16,-149.01 263.58,-155.58"/>
</a>
</g>
</g>
<!-- Node20&#45;&gt;Node4 -->
<g id="edge36_Node000020_Node000004" class="edge">
<title>Node20&#45;&gt;Node4</title>
<g id="a_edge36_Node000020_Node000004"><a xlink:title=" ">
<path fill="none" stroke="#63b8ff" d="M253.03,-113.57C249.6,-115.56 246.33,-117.78 243.25,-120.25 140.96,-202.4 112.23,-375.25 106.06,-423.5"/>
<polygon fill="#63b8ff" stroke="#63b8ff" points="254.33,-116.84 261.7,-109.22 251.19,-110.58 254.33,-116.84"/>
</a>
</g>
</g>
<!-- Node21&#45;&gt;Node4 -->
<g id="edge38_Node000021_Node000004" class="edge">
<title>Node21&#45;&gt;Node4</title>
<g id="a_edge38_Node000021_Node000004"><a xlink:title=" ">
<path fill="none" stroke="#63b8ff" d="M265.06,-64.29C257.16,-67.57 249.73,-71.81 243.25,-77.25 129.98,-172.48 108.94,-371.68 105.33,-423.64"/>
<polygon fill="#63b8ff" stroke="#63b8ff" points="265.99,-67.68 274.23,-61.02 263.63,-61.09 265.99,-67.68"/>
</a>
</g>
</g>
<!-- Node22&#45;&gt;Node4 -->
<g id="edge40_Node000022_Node000004" class="edge">
<title>Node22&#45;&gt;Node4</title>
<g id="a_edge40_Node000022_Node000004"><a xlink:title=" ">
<path fill="none" stroke="#63b8ff" d="M249.82,-29.17C247.54,-30.74 245.34,-32.43 243.25,-34.25 118.91,-142.71 106.02,-368.2 104.75,-423.7"/>
<polygon fill="#63b8ff" stroke="#63b8ff" points="251.5,-32.25 258.37,-24.19 247.97,-26.2 251.5,-32.25"/>
</a>
</g>
</g>
</g>
</svg>

<g id="navigator" transform="translate(0 0)" fill="#404254">
  <rect fill="#f2f5e9" fill-opacity="0.5" stroke="#606060" stroke-width=".5" x="0" y="0" width="60" height="60"/>
  <use id="zoomplus" xlink:href="#zoomPlus" x="17" y="9" onmousedown="handleZoom(evt,'in')"/>
  <use id="zoomminus" xlink:href="#zoomMin" x="42" y="9" onmousedown="handleZoom(evt,'out')"/>
  <use id="reset" xlink:href="#resetDef" x="30" y="36" onmousedown="handleReset()"/>
   <use id="arrowup" xlink:href="#arrowUp" x="0" y="0" onmousedown="handlePan(0,-1)"/>
  <use id="arrowright" xlink:href="#arrowRight" x="0" y="0" onmousedown="handlePan(1,0)"/>
  <use id="arrowdown" xlink:href="#arrowDown" x="0" y="0" onmousedown="handlePan(0,1)"/>
  <use id="arrowleft" xlink:href="#arrowLeft" x="0" y="0" onmousedown="handlePan(-1,0)"/>
</g>
<svg viewBox="0 0 15 15" width="100%" height="30px" preserveAspectRatio="xMaxYMin meet">
 <g id="arrow_out" transform="scale(0.3 0.3)">
  <a xlink:href="classActionStartup_a8e19b9f42c8dbd7e51769f196ad68579_icgraph_org.svg" target="_base">
   <rect id="button" ry="5" rx="5" y="6" x="6" height="38" width="38"
        fill="#f2f5e9" fill-opacity="0.5" stroke="#606060" stroke-width="1.0"/>
   <path id="arrow"
     d="M 11.500037,31.436501 C 11.940474,20.09759 22.043105,11.32322 32.158766,21.979434 L 37.068811,17.246167 C 37.068811,17.246167 37.088388,32 37.088388,32 L 22.160133,31.978069 C 22.160133,31.978069 26.997745,27.140456 26.997745,27.140456 C 18.528582,18.264221 13.291696,25.230495 11.500037,31.436501 z"
     style="fill:#404040;"/>
  </a>
 </g>
</svg>

<style type='text/css'>
<![CDATA[
[data-mouse-over-selected='false'] { opacity: 0.7; }
[data-mouse-over-selected='true']  { opacity: 1.0; }
]]>
</style>
<script type="application/ecmascript"><![CDATA[
document.addEventListener('DOMContentLoaded', (event) => {
  highlightEdges();
  highlightAdjacentNodes();
});
]]></script>
</svg>
