<?xml version="1.0" encoding="UTF-8" standalone="no"?>
<!--
  - Copyright (c) 2021-2024 Bearsampp
  - License:  GNU General Public License version 3 or later; see LICENSE.txt
  - Author: Bear
  - Website: https://bearsampp.com
  - Github: https://github.com/Bearsampp
  -->

<!DOCTYPE svg PUBLIC "-//W3C//DTD SVG 1.1//EN"
 "http://www.w3.org/Graphics/SVG/1.1/DTD/svg11.dtd">
<!-- Generated by graphviz version 11.0.0 (20240428.1522)
 -->
<!-- Title: Core\getLibsPath Pages: 1 -->
<svg width="552pt" height="366pt"
 viewBox="0.00 0.00 551.75 365.50" xmlns="http://www.w3.org/2000/svg" xmlns:xlink="http://www.w3.org/1999/xlink">
<g id="graph0" class="graph" transform="scale(1 1) rotate(0) translate(4 361.5)">
<title>Core\getLibsPath</title>
<!-- Node1 -->
<g id="Node000001" class="node">
<title>Node1</title>
<g id="a_Node000001"><a xlink:title=" ">
<polygon fill="#999999" stroke="#666666" points="543.75,-206.5 416.75,-206.5 416.75,-182 543.75,-182 543.75,-206.5"/>
<text text-anchor="middle" x="480.25" y="-189.2" font-family="Helvetica,sans-Serif" font-size="14.00">Core\getLibsPath</text>
</a>
</g>
</g>
<!-- Node2 -->
<g id="Node000002" class="node">
<title>Node2</title>
<g id="a_Node000002"><a xlink:href="../../db/d6d/classCore.html#a9351a0947d0307728d3b199a0269fc03" target="_top" xlink:title=" ">
<polygon fill="white" stroke="#666666" points="356.38,-357.5 230.88,-357.5 230.88,-333 356.38,-333 356.38,-357.5"/>
<text text-anchor="middle" x="293.62" y="-340.2" font-family="Helvetica,sans-Serif" font-size="14.00">Core\__construct</text>
</a>
</g>
</g>
<!-- Node1&#45;&gt;Node2 -->
<g id="edge1_Node000001_Node000002" class="edge">
<title>Node1&#45;&gt;Node2</title>
<g id="a_edge1_Node000001_Node000002"><a xlink:title=" ">
<path fill="none" stroke="#63b8ff" d="M468.18,-216.81C452.69,-245.93 421.8,-296.09 380.75,-323.25 373.41,-328.1 365.07,-331.89 356.54,-334.83"/>
<polygon fill="#63b8ff" stroke="#63b8ff" points="471.19,-218.61 472.65,-208.11 464.96,-215.4 471.19,-218.61"/>
</a>
</g>
</g>
<!-- Node3 -->
<g id="Node000003" class="node">
<title>Node3</title>
<g id="a_Node000003"><a xlink:href="../../db/d6d/classCore.html#aaa8a3765bbcfad435d6cd026fd42e433" target="_top" xlink:title=" ">
<polygon fill="white" stroke="#666666" points="380.75,-314.5 206.5,-314.5 206.5,-290 380.75,-290 380.75,-314.5"/>
<text text-anchor="middle" x="293.62" y="-297.2" font-family="Helvetica,sans-Serif" font-size="14.00">Core\getHostsEditorPath</text>
</a>
</g>
</g>
<!-- Node1&#45;&gt;Node3 -->
<g id="edge2_Node000001_Node000003" class="edge">
<title>Node1&#45;&gt;Node3</title>
<g id="a_edge2_Node000001_Node000003"><a xlink:title=" ">
<path fill="none" stroke="#63b8ff" d="M460.9,-215.14C442.51,-234.78 412.47,-263.58 380.75,-280.25 373.78,-283.91 366.17,-286.99 358.46,-289.57"/>
<polygon fill="#63b8ff" stroke="#63b8ff" points="463.3,-217.69 467.46,-207.95 458.13,-212.97 463.3,-217.69"/>
</a>
</g>
</g>
<!-- Node5 -->
<g id="Node000005" class="node">
<title>Node5</title>
<g id="a_Node000005"><a xlink:href="../../db/d6d/classCore.html#a0e65076ea5645b04226abd296e098945" target="_top" xlink:title=" ">
<polygon fill="white" stroke="#666666" points="351.5,-271.5 235.75,-271.5 235.75,-247 351.5,-247 351.5,-271.5"/>
<text text-anchor="middle" x="293.62" y="-254.2" font-family="Helvetica,sans-Serif" font-size="14.00">Core\getLnPath</text>
</a>
</g>
</g>
<!-- Node1&#45;&gt;Node5 -->
<g id="edge4_Node000001_Node000005" class="edge">
<title>Node1&#45;&gt;Node5</title>
<g id="a_edge4_Node000001_Node000005"><a xlink:title=" ">
<path fill="none" stroke="#63b8ff" d="M443.11,-211.7C424.72,-220.15 401.85,-230 380.75,-237.25 370.83,-240.66 360.1,-243.81 349.69,-246.6"/>
<polygon fill="#63b8ff" stroke="#63b8ff" points="444.41,-214.96 452,-207.56 441.45,-208.61 444.41,-214.96"/>
</a>
</g>
</g>
<!-- Node7 -->
<g id="Node000007" class="node">
<title>Node7</title>
<g id="a_Node000007"><a xlink:href="../../db/d6d/classCore.html#a11ba156aab2ab9b28b3f0632d8712a47" target="_top" xlink:title=" ">
<polygon fill="white" stroke="#666666" points="362,-228.5 225.25,-228.5 225.25,-204 362,-204 362,-228.5"/>
<text text-anchor="middle" x="293.62" y="-211.2" font-family="Helvetica,sans-Serif" font-size="14.00">Core\getNssmPath</text>
</a>
</g>
</g>
<!-- Node1&#45;&gt;Node7 -->
<g id="edge6_Node000001_Node000007" class="edge">
<title>Node1&#45;&gt;Node7</title>
<g id="a_edge6_Node000001_Node000007"><a xlink:title=" ">
<path fill="none" stroke="#63b8ff" d="M405.26,-203.07C391.06,-204.76 376.26,-206.52 362.27,-208.19"/>
<polygon fill="#63b8ff" stroke="#63b8ff" points="405.47,-206.57 414.98,-201.91 404.64,-199.62 405.47,-206.57"/>
</a>
</g>
</g>
<!-- Node9 -->
<g id="Node000009" class="node">
<title>Node9</title>
<g id="a_Node000009"><a xlink:href="../../db/d6d/classCore.html#a3d4a3c8cf947d0141ab5a514674e3b02" target="_top" xlink:title=" ">
<polygon fill="white" stroke="#666666" points="371.38,-185.5 215.88,-185.5 215.88,-161 371.38,-161 371.38,-185.5"/>
<text text-anchor="middle" x="293.62" y="-168.2" font-family="Helvetica,sans-Serif" font-size="14.00">Core\getOpenSslPath</text>
</a>
</g>
</g>
<!-- Node1&#45;&gt;Node9 -->
<g id="edge8_Node000001_Node000009" class="edge">
<title>Node1&#45;&gt;Node9</title>
<g id="a_edge8_Node000001_Node000009"><a xlink:title=" ">
<path fill="none" stroke="#63b8ff" d="M405.14,-185.82C394.1,-184.57 382.7,-183.27 371.61,-182.01"/>
<polygon fill="#63b8ff" stroke="#63b8ff" points="404.65,-189.29 414.98,-186.94 405.44,-182.33 404.65,-189.29"/>
</a>
</g>
</g>
<!-- Node12 -->
<g id="Node000012" class="node">
<title>Node12</title>
<g id="a_Node000012"><a xlink:href="../../db/d6d/classCore.html#a3d5b01fdc9a92330b3caf1b1c0656cef" target="_top" xlink:title=" ">
<polygon fill="white" stroke="#666666" points="356.38,-121.5 230.88,-121.5 230.88,-97 356.38,-97 356.38,-121.5"/>
<text text-anchor="middle" x="293.62" y="-104.2" font-family="Helvetica,sans-Serif" font-size="14.00">Core\getPhpPath</text>
</a>
</g>
</g>
<!-- Node1&#45;&gt;Node12 -->
<g id="edge11_Node000001_Node000012" class="edge">
<title>Node1&#45;&gt;Node12</title>
<g id="a_edge11_Node000001_Node000012"><a xlink:title=" ">
<path fill="none" stroke="#63b8ff" d="M441.18,-176.72C405.73,-160.4 353.74,-136.46 322.15,-121.92"/>
<polygon fill="#63b8ff" stroke="#63b8ff" points="439.69,-179.89 450.23,-180.89 442.62,-173.53 439.69,-179.89"/>
</a>
</g>
</g>
<!-- Node14 -->
<g id="Node000014" class="node">
<title>Node14</title>
<g id="a_Node000014"><a xlink:href="../../db/d6d/classCore.html#a50fd822467d3ba49c43c6cec584f4217" target="_top" xlink:title=" ">
<polygon fill="white" stroke="#666666" points="365.38,-67.5 221.88,-67.5 221.88,-43 365.38,-43 365.38,-67.5"/>
<text text-anchor="middle" x="293.62" y="-50.2" font-family="Helvetica,sans-Serif" font-size="14.00">Core\getPwgenPath</text>
</a>
</g>
</g>
<!-- Node1&#45;&gt;Node14 -->
<g id="edge13_Node000001_Node000014" class="edge">
<title>Node1&#45;&gt;Node14</title>
<g id="a_edge13_Node000001_Node000014"><a xlink:title=" ">
<path fill="none" stroke="#63b8ff" d="M463.9,-172.55C446.23,-148.95 415.18,-111.5 380.75,-88.25 368.14,-79.74 353.03,-73 339.01,-67.89"/>
<polygon fill="#63b8ff" stroke="#63b8ff" points="461,-174.51 469.73,-180.51 466.65,-170.37 461,-174.51"/>
</a>
</g>
</g>
<!-- Node16 -->
<g id="Node000016" class="node">
<title>Node16</title>
<g id="a_Node000016"><a xlink:href="../../db/d6d/classCore.html#a74322acdd9baf46c21f141e7d945fb4b" target="_top" xlink:title=" ">
<polygon fill="white" stroke="#666666" points="366.5,-24.5 220.75,-24.5 220.75,0 366.5,0 366.5,-24.5"/>
<text text-anchor="middle" x="293.62" y="-7.2" font-family="Helvetica,sans-Serif" font-size="14.00">Core\getSetEnvPath</text>
</a>
</g>
</g>
<!-- Node1&#45;&gt;Node16 -->
<g id="edge15_Node000001_Node000016" class="edge">
<title>Node1&#45;&gt;Node16</title>
<g id="a_edge15_Node000001_Node000016"><a xlink:title=" ">
<path fill="none" stroke="#63b8ff" d="M471.38,-170.92C458.3,-135.74 428.66,-69.52 380.75,-34.25 375.78,-30.59 370.26,-27.54 364.48,-24.99"/>
<polygon fill="#63b8ff" stroke="#63b8ff" points="468.02,-171.9 474.68,-180.14 474.61,-169.54 468.02,-171.9"/>
</a>
</g>
</g>
<!-- Node4 -->
<g id="Node000004" class="node">
<title>Node4</title>
<g id="a_Node000004"><a xlink:href="../../db/d6d/classCore.html#a50b7a8e5f672fd8fb5ac55be442a68f6" target="_top" xlink:title=" ">
<polygon fill="white" stroke="#666666" points="170.5,-325.5 0,-325.5 0,-301 170.5,-301 170.5,-325.5"/>
<text text-anchor="middle" x="85.25" y="-308.2" font-family="Helvetica,sans-Serif" font-size="14.00">Core\getHostsEditorExe</text>
</a>
</g>
</g>
<!-- Node3&#45;&gt;Node4 -->
<g id="edge3_Node000003_Node000004" class="edge">
<title>Node3&#45;&gt;Node4</title>
<g id="a_edge3_Node000003_Node000004"><a xlink:title=" ">
<path fill="none" stroke="#63b8ff" d="M194.7,-307.47C186.66,-307.9 178.59,-308.33 170.67,-308.75"/>
<polygon fill="#63b8ff" stroke="#63b8ff" points="194.69,-310.98 204.49,-306.95 194.32,-303.99 194.69,-310.98"/>
</a>
</g>
</g>
<!-- Node6 -->
<g id="Node000006" class="node">
<title>Node6</title>
<g id="a_Node000006"><a xlink:href="../../db/d6d/classCore.html#acebfa205121665e9d188ea31edf0538b" target="_top" xlink:title=" ">
<polygon fill="white" stroke="#666666" points="141.25,-282.5 29.25,-282.5 29.25,-258 141.25,-258 141.25,-282.5"/>
<text text-anchor="middle" x="85.25" y="-265.2" font-family="Helvetica,sans-Serif" font-size="14.00">Core\getLnExe</text>
</a>
</g>
</g>
<!-- Node5&#45;&gt;Node6 -->
<g id="edge5_Node000005_Node000006" class="edge">
<title>Node5&#45;&gt;Node6</title>
<g id="a_edge5_Node000005_Node000006"><a xlink:title=" ">
<path fill="none" stroke="#63b8ff" d="M224.14,-262.9C197.27,-264.33 166.86,-265.95 141.44,-267.31"/>
<polygon fill="#63b8ff" stroke="#63b8ff" points="224.1,-266.41 233.9,-262.38 223.73,-259.42 224.1,-266.41"/>
</a>
</g>
</g>
<!-- Node8 -->
<g id="Node000008" class="node">
<title>Node8</title>
<g id="a_Node000008"><a xlink:href="../../db/d6d/classCore.html#aa808400fffba4c5068bb1d5a12a0ce91" target="_top" xlink:title=" ">
<polygon fill="white" stroke="#666666" points="151.75,-239.5 18.75,-239.5 18.75,-215 151.75,-215 151.75,-239.5"/>
<text text-anchor="middle" x="85.25" y="-222.2" font-family="Helvetica,sans-Serif" font-size="14.00">Core\getNssmExe</text>
</a>
</g>
</g>
<!-- Node7&#45;&gt;Node8 -->
<g id="edge7_Node000007_Node000008" class="edge">
<title>Node7&#45;&gt;Node8</title>
<g id="a_edge7_Node000007_Node000008"><a xlink:title=" ">
<path fill="none" stroke="#63b8ff" d="M213.34,-220.48C193.09,-221.56 171.54,-222.7 152.04,-223.74"/>
<polygon fill="#63b8ff" stroke="#63b8ff" points="213.45,-223.97 223.25,-219.95 213.08,-216.98 213.45,-223.97"/>
</a>
</g>
</g>
<!-- Node10 -->
<g id="Node000010" class="node">
<title>Node10</title>
<g id="a_Node000010"><a xlink:href="../../db/d6d/classCore.html#aefa0a11e108f7a641c033d21ce1274ef" target="_top" xlink:title=" ">
<polygon fill="white" stroke="#666666" points="164.12,-196.5 6.38,-196.5 6.38,-172 164.12,-172 164.12,-196.5"/>
<text text-anchor="middle" x="85.25" y="-179.2" font-family="Helvetica,sans-Serif" font-size="14.00">Core\getOpenSslConf</text>
</a>
</g>
</g>
<!-- Node9&#45;&gt;Node10 -->
<g id="edge9_Node000009_Node000010" class="edge">
<title>Node9&#45;&gt;Node10</title>
<g id="a_edge9_Node000009_Node000010"><a xlink:title=" ">
<path fill="none" stroke="#63b8ff" d="M204,-177.97C190.8,-178.68 177.28,-179.4 164.33,-180.09"/>
<polygon fill="#63b8ff" stroke="#63b8ff" points="204.17,-181.47 213.97,-177.44 203.8,-174.48 204.17,-181.47"/>
</a>
</g>
</g>
<!-- Node11 -->
<g id="Node000011" class="node">
<title>Node11</title>
<g id="a_Node000011"><a xlink:href="../../db/d6d/classCore.html#ad5e3289810096c94cfd7aec7acf62aa1" target="_top" xlink:title=" ">
<polygon fill="white" stroke="#666666" points="161.12,-153.5 9.38,-153.5 9.38,-129 161.12,-129 161.12,-153.5"/>
<text text-anchor="middle" x="85.25" y="-136.2" font-family="Helvetica,sans-Serif" font-size="14.00">Core\getOpenSslExe</text>
</a>
</g>
</g>
<!-- Node9&#45;&gt;Node11 -->
<g id="edge10_Node000009_Node000011" class="edge">
<title>Node9&#45;&gt;Node11</title>
<g id="a_edge10_Node000009_Node000011"><a xlink:title=" ">
<path fill="none" stroke="#63b8ff" d="M204.2,-159.54C190.01,-157.34 175.43,-155.08 161.58,-152.93"/>
<polygon fill="#63b8ff" stroke="#63b8ff" points="203.57,-162.98 213.99,-161.06 204.64,-156.07 203.57,-162.98"/>
</a>
</g>
</g>
<!-- Node13 -->
<g id="Node000013" class="node">
<title>Node13</title>
<g id="a_Node000013"><a xlink:href="../../db/d6d/classCore.html#ae1876a4693544ef821510bc8a7ae45eb" target="_top" xlink:title=" ">
<polygon fill="white" stroke="#666666" points="146.12,-110.5 24.37,-110.5 24.37,-86 146.12,-86 146.12,-110.5"/>
<text text-anchor="middle" x="85.25" y="-93.2" font-family="Helvetica,sans-Serif" font-size="14.00">Core\getPhpExe</text>
</a>
</g>
</g>
<!-- Node12&#45;&gt;Node13 -->
<g id="edge12_Node000012_Node000013" class="edge">
<title>Node12&#45;&gt;Node13</title>
<g id="a_edge12_Node000012_Node000013"><a xlink:title=" ">
<path fill="none" stroke="#63b8ff" d="M218.98,-105.32C195.23,-104.06 169.21,-102.67 146.55,-101.46"/>
<polygon fill="#63b8ff" stroke="#63b8ff" points="218.74,-108.82 228.91,-105.85 219.11,-101.83 218.74,-108.82"/>
</a>
</g>
</g>
<!-- Node15 -->
<g id="Node000015" class="node">
<title>Node15</title>
<g id="a_Node000015"><a xlink:href="../../db/d6d/classCore.html#a3c0be1de9d562ac8cbeb1ea608acff2d" target="_top" xlink:title=" ">
<polygon fill="white" stroke="#666666" points="155.12,-67.5 15.38,-67.5 15.38,-43 155.12,-43 155.12,-67.5"/>
<text text-anchor="middle" x="85.25" y="-50.2" font-family="Helvetica,sans-Serif" font-size="14.00">Core\getPwgenExe</text>
</a>
</g>
</g>
<!-- Node14&#45;&gt;Node15 -->
<g id="edge14_Node000014_Node000015" class="edge">
<title>Node14&#45;&gt;Node15</title>
<g id="a_edge14_Node000014_Node000015"><a xlink:title=" ">
<path fill="none" stroke="#63b8ff" d="M210.12,-55.25C191.95,-55.25 172.89,-55.25 155.31,-55.25"/>
<polygon fill="#63b8ff" stroke="#63b8ff" points="210.09,-58.75 220.09,-55.25 210.09,-51.75 210.09,-58.75"/>
</a>
</g>
</g>
<!-- Node17 -->
<g id="Node000017" class="node">
<title>Node17</title>
<g id="a_Node000017"><a xlink:href="../../db/d6d/classCore.html#a35ccb71639023558ecf1502005a9edad" target="_top" xlink:title=" ">
<polygon fill="white" stroke="#666666" points="156.25,-24.5 14.25,-24.5 14.25,0 156.25,0 156.25,-24.5"/>
<text text-anchor="middle" x="85.25" y="-7.2" font-family="Helvetica,sans-Serif" font-size="14.00">Core\getSetEnvExe</text>
</a>
</g>
</g>
<!-- Node16&#45;&gt;Node17 -->
<g id="edge16_Node000016_Node000017" class="edge">
<title>Node16&#45;&gt;Node17</title>
<g id="a_edge16_Node000016_Node000017"><a xlink:title=" ">
<path fill="none" stroke="#63b8ff" d="M209.14,-12.25C191.72,-12.25 173.53,-12.25 156.65,-12.25"/>
<polygon fill="#63b8ff" stroke="#63b8ff" points="208.93,-15.75 218.93,-12.25 208.93,-8.75 208.93,-15.75"/>
</a>
</g>
</g>
</g>
</svg>
