<?xml version="1.0" encoding="UTF-8" standalone="no"?>
<!--
  - Copyright (c) 2021-2024 Bearsampp
  - License:  GNU General Public License version 3 or later; see LICENSE.txt
  - Author: Bear
  - Website: https://bearsampp.com
  - Github: https://github.com/Bearsampp
  -->

<!DOCTYPE svg PUBLIC "-//W3C//DTD SVG 1.1//EN"
 "http://www.w3.org/Graphics/SVG/1.1/DTD/svg11.dtd">
<!-- Generated by graphviz version 11.0.0 (20240428.1522)
 -->
<!-- Title: Core\getResourcesPath Pages: 1 -->
<svg width="573pt" height="119pt"
 viewBox="0.00 0.00 572.75 118.50" xmlns="http://www.w3.org/2000/svg" xmlns:xlink="http://www.w3.org/1999/xlink">
<g id="graph0" class="graph" transform="scale(1 1) rotate(0) translate(4 114.5)">
<title>Core\getResourcesPath</title>
<!-- Node1 -->
<g id="Node000001" class="node">
<title>Node1</title>
<g id="a_Node000001"><a xlink:title=" ">
<polygon fill="#999999" stroke="#666666" points="564.75,-67.5 395,-67.5 395,-43 564.75,-43 564.75,-67.5"/>
<text text-anchor="middle" x="479.88" y="-50.2" font-family="Helvetica,sans-Serif" font-size="14.00">Core\getResourcesPath</text>
</a>
</g>
</g>
<!-- Node2 -->
<g id="Node000002" class="node">
<title>Node2</title>
<g id="a_Node000002"><a xlink:href="../../db/d6d/classCore.html#ab3f4be1cf69ef79c68aeba7947bb4d43" target="_top" xlink:title=" ">
<polygon fill="white" stroke="#666666" points="359,-110.5 212.5,-110.5 212.5,-86 359,-86 359,-110.5"/>
<text text-anchor="middle" x="285.75" y="-93.2" font-family="Helvetica,sans-Serif" font-size="14.00">Core\getAppVersion</text>
</a>
</g>
</g>
<!-- Node1&#45;&gt;Node2 -->
<g id="edge1_Node000001_Node000002" class="edge">
<title>Node1&#45;&gt;Node2</title>
<g id="a_edge1_Node000001_Node000002"><a xlink:title=" ">
<path fill="none" stroke="#63b8ff" d="M411.03,-70.44C388.93,-75.38 364.66,-80.81 343.47,-85.56"/>
<polygon fill="#63b8ff" stroke="#63b8ff" points="411.54,-73.91 420.53,-68.31 410.01,-67.08 411.54,-73.91"/>
</a>
</g>
</g>
<!-- Node3 -->
<g id="Node000003" class="node">
<title>Node3</title>
<g id="a_Node000003"><a xlink:href="../../db/d6d/classCore.html#ae78e2773ef603481b161e172c407181f" target="_top" xlink:title=" ">
<polygon fill="white" stroke="#666666" points="349.25,-67.5 222.25,-67.5 222.25,-43 349.25,-43 349.25,-67.5"/>
<text text-anchor="middle" x="285.75" y="-50.2" font-family="Helvetica,sans-Serif" font-size="14.00">Core\getLastPath</text>
</a>
</g>
</g>
<!-- Node1&#45;&gt;Node3 -->
<g id="edge2_Node000001_Node000003" class="edge">
<title>Node1&#45;&gt;Node3</title>
<g id="a_edge2_Node000001_Node000003"><a xlink:title=" ">
<path fill="none" stroke="#63b8ff" d="M383.21,-55.25C371.79,-55.25 360.37,-55.25 349.58,-55.25"/>
<polygon fill="#63b8ff" stroke="#63b8ff" points="383.09,-58.75 393.09,-55.25 383.09,-51.75 383.09,-58.75"/>
</a>
</g>
</g>
<!-- Node5 -->
<g id="Node000005" class="node">
<title>Node5</title>
<g id="a_Node000005"><a xlink:href="../../db/d6d/classCore.html#ab6c5b72e1161c2c3aa93365b2679071f" target="_top" xlink:title=" ">
<polygon fill="white" stroke="#666666" points="357.5,-24.5 214,-24.5 214,0 357.5,0 357.5,-24.5"/>
<text text-anchor="middle" x="285.75" y="-7.2" font-family="Helvetica,sans-Serif" font-size="14.00">Core\getLoadingPid</text>
</a>
</g>
</g>
<!-- Node1&#45;&gt;Node5 -->
<g id="edge4_Node000001_Node000005" class="edge">
<title>Node1&#45;&gt;Node5</title>
<g id="a_edge4_Node000001_Node000005"><a xlink:title=" ">
<path fill="none" stroke="#63b8ff" d="M411.03,-40.06C388.93,-35.12 364.66,-29.69 343.47,-24.94"/>
<polygon fill="#63b8ff" stroke="#63b8ff" points="410.01,-43.42 420.53,-42.19 411.54,-36.59 410.01,-43.42"/>
</a>
</g>
</g>
<!-- Node4 -->
<g id="Node000004" class="node">
<title>Node4</title>
<g id="a_Node000004"><a xlink:href="../../db/d6d/classCore.html#ade670dab81262582130310eeb5edc694" target="_top" xlink:title=" ">
<polygon fill="white" stroke="#666666" points="176.5,-67.5 0,-67.5 0,-43 176.5,-43 176.5,-67.5"/>
<text text-anchor="middle" x="88.25" y="-50.2" font-family="Helvetica,sans-Serif" font-size="14.00">Core\getLastPathContent</text>
</a>
</g>
</g>
<!-- Node3&#45;&gt;Node4 -->
<g id="edge3_Node000003_Node000004" class="edge">
<title>Node3&#45;&gt;Node4</title>
<g id="a_edge3_Node000003_Node000004"><a xlink:title=" ">
<path fill="none" stroke="#63b8ff" d="M210.56,-55.25C199.59,-55.25 188.2,-55.25 176.99,-55.25"/>
<polygon fill="#63b8ff" stroke="#63b8ff" points="210.3,-58.75 220.3,-55.25 210.3,-51.75 210.3,-58.75"/>
</a>
</g>
</g>
<!-- Node6 -->
<g id="Node000006" class="node">
<title>Node6</title>
<g id="a_Node000006"><a xlink:href="../../db/d6d/classCore.html#a02955a6ecc7a47aec50da90fd4de366f" target="_top" xlink:title=" ">
<polygon fill="white" stroke="#666666" points="161.88,-24.5 14.62,-24.5 14.62,0 161.88,0 161.88,-24.5"/>
<text text-anchor="middle" x="88.25" y="-7.2" font-family="Helvetica,sans-Serif" font-size="14.00">Core\addLoadingPid</text>
</a>
</g>
</g>
<!-- Node5&#45;&gt;Node6 -->
<g id="edge5_Node000005_Node000006" class="edge">
<title>Node5&#45;&gt;Node6</title>
<g id="a_edge5_Node000005_Node000006"><a xlink:title=" ">
<path fill="none" stroke="#63b8ff" d="M202.12,-12.25C188.89,-12.25 175.28,-12.25 162.3,-12.25"/>
<polygon fill="#63b8ff" stroke="#63b8ff" points="202.1,-15.75 212.1,-12.25 202.1,-8.75 202.1,-15.75"/>
</a>
</g>
</g>
</g>
</svg>
