<?xml version="1.0" encoding="UTF-8" standalone="no"?>
<!--
  - Copyright (c) 2021-2024 Bearsampp
  - License:  GNU General Public License version 3 or later; see LICENSE.txt
  - Author: Bear
  - Website: https://bearsampp.com
  - Github: https://github.com/Bearsampp
  -->

<!DOCTYPE svg PUBLIC "-//W3C//DTD SVG 1.1//EN"
 "http://www.w3.org/Graphics/SVG/1.1/DTD/svg11.dtd">
<!-- Generated by graphviz version 11.0.0 (20240428.1522)
 -->
<!-- Title: Core\getOpenSslPath Pages: 1 -->
<svg width="357pt" height="76pt"
 viewBox="0.00 0.00 357.25 75.50" xmlns="http://www.w3.org/2000/svg" xmlns:xlink="http://www.w3.org/1999/xlink">
<g id="graph0" class="graph" transform="scale(1 1) rotate(0) translate(4 71.5)">
<title>Core\getOpenSslPath</title>
<!-- Node1 -->
<g id="Node000001" class="node">
<title>Node1</title>
<g id="a_Node000001"><a xlink:title=" ">
<polygon fill="#999999" stroke="#666666" points="349.25,-45.5 193.75,-45.5 193.75,-21 349.25,-21 349.25,-45.5"/>
<text text-anchor="middle" x="271.5" y="-28.2" font-family="Helvetica,sans-Serif" font-size="14.00">Core\getOpenSslPath</text>
</a>
</g>
</g>
<!-- Node2 -->
<g id="Node000002" class="node">
<title>Node2</title>
<g id="a_Node000002"><a xlink:href="../../db/d6d/classCore.html#aefa0a11e108f7a641c033d21ce1274ef" target="_top" xlink:title=" ">
<polygon fill="white" stroke="#666666" points="157.75,-67.5 0,-67.5 0,-43 157.75,-43 157.75,-67.5"/>
<text text-anchor="middle" x="78.88" y="-50.2" font-family="Helvetica,sans-Serif" font-size="14.00">Core\getOpenSslConf</text>
</a>
</g>
</g>
<!-- Node1&#45;&gt;Node2 -->
<g id="edge1_Node000001_Node000002" class="edge">
<title>Node1&#45;&gt;Node2</title>
<g id="a_edge1_Node000001_Node000002"><a xlink:title=" ">
<path fill="none" stroke="#63b8ff" d="M182.2,-43.44C174.15,-44.37 166.03,-45.31 158.08,-46.22"/>
<polygon fill="#63b8ff" stroke="#63b8ff" points="182.48,-46.93 192.01,-42.31 181.68,-39.98 182.48,-46.93"/>
</a>
</g>
</g>
<!-- Node3 -->
<g id="Node000003" class="node">
<title>Node3</title>
<g id="a_Node000003"><a xlink:href="../../db/d6d/classCore.html#ad5e3289810096c94cfd7aec7acf62aa1" target="_top" xlink:title=" ">
<polygon fill="white" stroke="#666666" points="154.75,-24.5 3,-24.5 3,0 154.75,0 154.75,-24.5"/>
<text text-anchor="middle" x="78.88" y="-7.2" font-family="Helvetica,sans-Serif" font-size="14.00">Core\getOpenSslExe</text>
</a>
</g>
</g>
<!-- Node1&#45;&gt;Node3 -->
<g id="edge2_Node000001_Node000003" class="edge">
<title>Node1&#45;&gt;Node3</title>
<g id="a_edge2_Node000001_Node000003"><a xlink:title=" ">
<path fill="none" stroke="#63b8ff" d="M182.1,-23.51C173.03,-22.51 163.88,-21.5 154.98,-20.52"/>
<polygon fill="#63b8ff" stroke="#63b8ff" points="181.69,-26.99 192.01,-24.6 182.45,-20.03 181.69,-26.99"/>
</a>
</g>
</g>
</g>
</svg>
