<?xml version="1.0" encoding="UTF-8" standalone="no"?>
<!DOCTYPE svg PUBLIC "-//W3C//DTD SVG 1.1//EN"
 "http://www.w3.org/Graphics/SVG/1.1/DTD/svg11.dtd">
<!-- Generated by graphviz version 11.0.0 (20240428.1522)
 -->
<!-- Title: Core\getLibsPath Pages: 1 -->
<svg width="552pt" height="377pt"
 viewBox="0.00 0.00 551.75 376.50" xmlns="http://www.w3.org/2000/svg" xmlns:xlink="http://www.w3.org/1999/xlink">
<g id="graph0" class="graph" transform="scale(1 1) rotate(0) translate(4 372.5)">
<title>Core\getLibsPath</title>
<!-- Node1 -->
<g id="Node000001" class="node">
<title>Node1</title>
<g id="a_Node000001"><a xlink:title=" ">
<polygon fill="#999999" stroke="#666666" points="543.75,-196.5 416.75,-196.5 416.75,-172 543.75,-172 543.75,-196.5"/>
<text text-anchor="middle" x="480.25" y="-179.2" font-family="Helvetica,sans-Serif" font-size="14.00">Core\getLibsPath</text>
</a>
</g>
</g>
<!-- Node2 -->
<g id="Node000002" class="node">
<title>Node2</title>
<g id="a_Node000002"><a xlink:href="../../db/d6d/classCore.html#a9351a0947d0307728d3b199a0269fc03" target="_top" xlink:title=" ">
<polygon fill="white" stroke="#666666" points="356.38,-368.5 230.88,-368.5 230.88,-344 356.38,-344 356.38,-368.5"/>
<text text-anchor="middle" x="293.62" y="-351.2" font-family="Helvetica,sans-Serif" font-size="14.00">Core\__construct</text>
</a>
</g>
</g>
<!-- Node1&#45;&gt;Node2 -->
<g id="edge1_Node000001_Node000002" class="edge">
<title>Node1&#45;&gt;Node2</title>
<g id="a_edge1_Node000001_Node000002"><a xlink:title=" ">
<path fill="none" stroke="#63b8ff" d="M470.59,-207.06C456.78,-240.28 426.57,-301.54 380.75,-334.25 373.59,-339.36 365.35,-343.29 356.86,-346.3"/>
<polygon fill="#63b8ff" stroke="#63b8ff" points="473.76,-208.57 474.23,-197.98 467.26,-205.96 473.76,-208.57"/>
</a>
</g>
</g>
<!-- Node3 -->
<g id="Node000003" class="node">
<title>Node3</title>
<g id="a_Node000003"><a xlink:href="../../db/d6d/classCore.html#aaa8a3765bbcfad435d6cd026fd42e433" target="_top" xlink:title=" ">
<polygon fill="white" stroke="#666666" points="380.75,-325.5 206.5,-325.5 206.5,-301 380.75,-301 380.75,-325.5"/>
<text text-anchor="middle" x="293.62" y="-308.2" font-family="Helvetica,sans-Serif" font-size="14.00">Core\getHostsEditorPath</text>
</a>
</g>
</g>
<!-- Node1&#45;&gt;Node3 -->
<g id="edge2_Node000001_Node000003" class="edge">
<title>Node1&#45;&gt;Node3</title>
<g id="a_edge2_Node000001_Node000003"><a xlink:title=" ">
<path fill="none" stroke="#63b8ff" d="M464.98,-206.16C447.88,-230.62 416.98,-269.61 380.75,-291.25 374.52,-294.97 367.68,-298.06 360.66,-300.64"/>
<polygon fill="#63b8ff" stroke="#63b8ff" points="467.86,-208.15 470.58,-197.91 462.07,-204.22 467.86,-208.15"/>
</a>
</g>
</g>
<!-- Node5 -->
<g id="Node000005" class="node">
<title>Node5</title>
<g id="a_Node000005"><a xlink:href="../../db/d6d/classCore.html#a0e65076ea5645b04226abd296e098945" target="_top" xlink:title=" ">
<polygon fill="white" stroke="#666666" points="351.5,-282.5 235.75,-282.5 235.75,-258 351.5,-258 351.5,-282.5"/>
<text text-anchor="middle" x="293.62" y="-265.2" font-family="Helvetica,sans-Serif" font-size="14.00">Core\getLnPath</text>
</a>
</g>
</g>
<!-- Node1&#45;&gt;Node5 -->
<g id="edge4_Node000001_Node000005" class="edge">
<title>Node1&#45;&gt;Node5</title>
<g id="a_edge4_Node000001_Node000005"><a xlink:title=" ">
<path fill="none" stroke="#63b8ff" d="M454.52,-203.59C435.34,-217.76 407.59,-236.48 380.75,-248.25 371.56,-252.28 361.49,-255.68 351.57,-258.51"/>
<polygon fill="#63b8ff" stroke="#63b8ff" points="456.37,-206.58 462.25,-197.77 452.15,-200.99 456.37,-206.58"/>
</a>
</g>
</g>
<!-- Node7 -->
<g id="Node000007" class="node">
<title>Node7</title>
<g id="a_Node000007"><a xlink:href="../../db/d6d/classCore.html#a11ba156aab2ab9b28b3f0632d8712a47" target="_top" xlink:title=" ">
<polygon fill="white" stroke="#666666" points="362,-239.5 225.25,-239.5 225.25,-215 362,-215 362,-239.5"/>
<text text-anchor="middle" x="293.62" y="-222.2" font-family="Helvetica,sans-Serif" font-size="14.00">Core\getNssmPath</text>
</a>
</g>
</g>
<!-- Node1&#45;&gt;Node7 -->
<g id="edge6_Node000001_Node000007" class="edge">
<title>Node1&#45;&gt;Node7</title>
<g id="a_edge6_Node000001_Node000007"><a xlink:title=" ">
<path fill="none" stroke="#63b8ff" d="M413.71,-199.51C392.62,-204.43 369.49,-209.81 349.27,-214.52"/>
<polygon fill="#63b8ff" stroke="#63b8ff" points="414.44,-202.94 423.38,-197.26 412.85,-196.12 414.44,-202.94"/>
</a>
</g>
</g>
<!-- Node9 -->
<g id="Node000009" class="node">
<title>Node9</title>
<g id="a_Node000009"><a xlink:href="../../db/d6d/classCore.html#a3d4a3c8cf947d0141ab5a514674e3b02" target="_top" xlink:title=" ">
<polygon fill="white" stroke="#666666" points="371.38,-196.5 215.88,-196.5 215.88,-172 371.38,-172 371.38,-196.5"/>
<text text-anchor="middle" x="293.62" y="-179.2" font-family="Helvetica,sans-Serif" font-size="14.00">Core\getOpenSslPath</text>
</a>
</g>
</g>
<!-- Node1&#45;&gt;Node9 -->
<g id="edge8_Node000001_Node000009" class="edge">
<title>Node1&#45;&gt;Node9</title>
<g id="a_edge8_Node000001_Node000009"><a xlink:title=" ">
<path fill="none" stroke="#63b8ff" d="M405.14,-184.25C394.1,-184.25 382.7,-184.25 371.61,-184.25"/>
<polygon fill="#63b8ff" stroke="#63b8ff" points="404.97,-187.75 414.97,-184.25 404.97,-180.75 404.97,-187.75"/>
</a>
</g>
</g>
<!-- Node12 -->
<g id="Node000012" class="node">
<title>Node12</title>
<g id="a_Node000012"><a xlink:href="../../db/d6d/classCore.html#a3d5b01fdc9a92330b3caf1b1c0656cef" target="_top" xlink:title=" ">
<polygon fill="white" stroke="#666666" points="356.38,-153.5 230.88,-153.5 230.88,-129 356.38,-129 356.38,-153.5"/>
<text text-anchor="middle" x="293.62" y="-136.2" font-family="Helvetica,sans-Serif" font-size="14.00">Core\getPhpPath</text>
</a>
</g>
</g>
<!-- Node1&#45;&gt;Node12 -->
<g id="edge11_Node000001_Node000012" class="edge">
<title>Node1&#45;&gt;Node12</title>
<g id="a_edge11_Node000001_Node000012"><a xlink:title=" ">
<path fill="none" stroke="#63b8ff" d="M413.71,-168.99C392.62,-164.07 369.49,-158.69 349.27,-153.98"/>
<polygon fill="#63b8ff" stroke="#63b8ff" points="412.85,-172.38 423.38,-171.24 414.44,-165.56 412.85,-172.38"/>
</a>
</g>
</g>
<!-- Node14 -->
<g id="Node000014" class="node">
<title>Node14</title>
<g id="a_Node000014"><a xlink:href="../../db/d6d/classCore.html#a50fd822467d3ba49c43c6cec584f4217" target="_top" xlink:title=" ">
<polygon fill="white" stroke="#666666" points="365.38,-110.5 221.88,-110.5 221.88,-86 365.38,-86 365.38,-110.5"/>
<text text-anchor="middle" x="293.62" y="-93.2" font-family="Helvetica,sans-Serif" font-size="14.00">Core\getPwgenPath</text>
</a>
</g>
</g>
<!-- Node1&#45;&gt;Node14 -->
<g id="edge13_Node000001_Node000014" class="edge">
<title>Node1&#45;&gt;Node14</title>
<g id="a_edge13_Node000001_Node000014"><a xlink:title=" ">
<path fill="none" stroke="#63b8ff" d="M454.52,-164.91C435.34,-150.74 407.59,-132.02 380.75,-120.25 372.55,-116.66 363.65,-113.56 354.78,-110.92"/>
<polygon fill="#63b8ff" stroke="#63b8ff" points="452.15,-167.51 462.25,-170.73 456.37,-161.92 452.15,-167.51"/>
</a>
</g>
</g>
<!-- Node16 -->
<g id="Node000016" class="node">
<title>Node16</title>
<g id="a_Node000016"><a xlink:href="../../db/d6d/classCore.html#a74322acdd9baf46c21f141e7d945fb4b" target="_top" xlink:title=" ">
<polygon fill="white" stroke="#666666" points="366.5,-67.5 220.75,-67.5 220.75,-43 366.5,-43 366.5,-67.5"/>
<text text-anchor="middle" x="293.62" y="-50.2" font-family="Helvetica,sans-Serif" font-size="14.00">Core\getSetEnvPath</text>
</a>
</g>
</g>
<!-- Node1&#45;&gt;Node16 -->
<g id="edge15_Node000001_Node000016" class="edge">
<title>Node1&#45;&gt;Node16</title>
<g id="a_edge15_Node000001_Node000016"><a xlink:title=" ">
<path fill="none" stroke="#63b8ff" d="M464.98,-162.34C447.88,-137.88 416.98,-98.89 380.75,-77.25 374.52,-73.53 367.68,-70.44 360.66,-67.86"/>
<polygon fill="#63b8ff" stroke="#63b8ff" points="462.07,-164.28 470.58,-170.59 467.86,-160.35 462.07,-164.28"/>
</a>
</g>
</g>
<!-- Node18 -->
<g id="Node000018" class="node">
<title>Node18</title>
<g id="a_Node000018"><a xlink:href="../../db/d6d/classCore.html#a840b79980f468e326e9f64b996cc41f0" target="_top" xlink:title=" ">
<polygon fill="white" stroke="#666666" points="347.38,-24.5 239.88,-24.5 239.88,0 347.38,0 347.38,-24.5"/>
<text text-anchor="middle" x="293.62" y="-7.2" font-family="Helvetica,sans-Serif" font-size="14.00">Core\unzipFile</text>
</a>
</g>
</g>
<!-- Node1&#45;&gt;Node18 -->
<g id="edge17_Node000001_Node000018" class="edge">
<title>Node1&#45;&gt;Node18</title>
<g id="a_edge17_Node000001_Node000018"><a xlink:title=" ">
<path fill="none" stroke="#63b8ff" d="M470.59,-161.44C456.78,-128.22 426.57,-66.96 380.75,-34.25 370.95,-27.26 359.13,-22.48 347.43,-19.22"/>
<polygon fill="#63b8ff" stroke="#63b8ff" points="467.26,-162.54 474.23,-170.52 473.76,-159.93 467.26,-162.54"/>
</a>
</g>
</g>
<!-- Node4 -->
<g id="Node000004" class="node">
<title>Node4</title>
<g id="a_Node000004"><a xlink:href="../../db/d6d/classCore.html#a50b7a8e5f672fd8fb5ac55be442a68f6" target="_top" xlink:title=" ">
<polygon fill="white" stroke="#666666" points="170.5,-346.5 0,-346.5 0,-322 170.5,-322 170.5,-346.5"/>
<text text-anchor="middle" x="85.25" y="-329.2" font-family="Helvetica,sans-Serif" font-size="14.00">Core\getHostsEditorExe</text>
</a>
</g>
</g>
<!-- Node3&#45;&gt;Node4 -->
<g id="edge3_Node000003_Node000004" class="edge">
<title>Node3&#45;&gt;Node4</title>
<g id="a_edge3_Node000003_Node000004"><a xlink:title=" ">
<path fill="none" stroke="#63b8ff" d="M194.7,-323.21C186.66,-324.03 178.59,-324.85 170.67,-325.66"/>
<polygon fill="#63b8ff" stroke="#63b8ff" points="194.9,-326.71 204.49,-322.22 194.19,-319.75 194.9,-326.71"/>
</a>
</g>
</g>
<!-- Node6 -->
<g id="Node000006" class="node">
<title>Node6</title>
<g id="a_Node000006"><a xlink:href="../../db/d6d/classCore.html#acebfa205121665e9d188ea31edf0538b" target="_top" xlink:title=" ">
<polygon fill="white" stroke="#666666" points="141.25,-303.5 29.25,-303.5 29.25,-279 141.25,-279 141.25,-303.5"/>
<text text-anchor="middle" x="85.25" y="-286.2" font-family="Helvetica,sans-Serif" font-size="14.00">Core\getLnExe</text>
</a>
</g>
</g>
<!-- Node5&#45;&gt;Node6 -->
<g id="edge5_Node000005_Node000006" class="edge">
<title>Node5&#45;&gt;Node6</title>
<g id="a_edge5_Node000005_Node000006"><a xlink:title=" ">
<path fill="none" stroke="#63b8ff" d="M224.14,-277.22C197.27,-279.95 166.86,-283.05 141.44,-285.63"/>
<polygon fill="#63b8ff" stroke="#63b8ff" points="224.31,-280.72 233.91,-276.23 223.6,-273.76 224.31,-280.72"/>
</a>
</g>
</g>
<!-- Node8 -->
<g id="Node000008" class="node">
<title>Node8</title>
<g id="a_Node000008"><a xlink:href="../../db/d6d/classCore.html#aa808400fffba4c5068bb1d5a12a0ce91" target="_top" xlink:title=" ">
<polygon fill="white" stroke="#666666" points="151.75,-260.5 18.75,-260.5 18.75,-236 151.75,-236 151.75,-260.5"/>
<text text-anchor="middle" x="85.25" y="-243.2" font-family="Helvetica,sans-Serif" font-size="14.00">Core\getNssmExe</text>
</a>
</g>
</g>
<!-- Node7&#45;&gt;Node8 -->
<g id="edge7_Node000007_Node000008" class="edge">
<title>Node7&#45;&gt;Node8</title>
<g id="a_edge7_Node000007_Node000008"><a xlink:title=" ">
<path fill="none" stroke="#63b8ff" d="M213.34,-235.32C193.09,-237.38 171.54,-239.57 152.04,-241.56"/>
<polygon fill="#63b8ff" stroke="#63b8ff" points="213.66,-238.8 223.26,-234.31 212.96,-231.84 213.66,-238.8"/>
</a>
</g>
</g>
<!-- Node10 -->
<g id="Node000010" class="node">
<title>Node10</title>
<g id="a_Node000010"><a xlink:href="../../db/d6d/classCore.html#aefa0a11e108f7a641c033d21ce1274ef" target="_top" xlink:title=" ">
<polygon fill="white" stroke="#666666" points="164.12,-217.5 6.38,-217.5 6.38,-193 164.12,-193 164.12,-217.5"/>
<text text-anchor="middle" x="85.25" y="-200.2" font-family="Helvetica,sans-Serif" font-size="14.00">Core\getOpenSslConf</text>
</a>
</g>
</g>
<!-- Node9&#45;&gt;Node10 -->
<g id="edge9_Node000009_Node000010" class="edge">
<title>Node9&#45;&gt;Node10</title>
<g id="a_edge9_Node000009_Node000010"><a xlink:title=" ">
<path fill="none" stroke="#63b8ff" d="M204.4,-193.23C191.08,-194.58 177.41,-195.97 164.33,-197.31"/>
<polygon fill="#63b8ff" stroke="#63b8ff" points="204.39,-196.75 213.98,-192.25 203.68,-189.78 204.39,-196.75"/>
</a>
</g>
</g>
<!-- Node11 -->
<g id="Node000011" class="node">
<title>Node11</title>
<g id="a_Node000011"><a xlink:href="../../db/d6d/classCore.html#ad5e3289810096c94cfd7aec7acf62aa1" target="_top" xlink:title=" ">
<polygon fill="white" stroke="#666666" points="161.12,-174.5 9.38,-174.5 9.38,-150 161.12,-150 161.12,-174.5"/>
<text text-anchor="middle" x="85.25" y="-157.2" font-family="Helvetica,sans-Serif" font-size="14.00">Core\getOpenSslExe</text>
</a>
</g>
</g>
<!-- Node9&#45;&gt;Node11 -->
<g id="edge10_Node000009_Node000011" class="edge">
<title>Node9&#45;&gt;Node11</title>
<g id="a_edge10_Node000009_Node000011"><a xlink:title=" ">
<path fill="none" stroke="#63b8ff" d="M204.2,-174.82C190.01,-173.31 175.43,-171.76 161.58,-170.28"/>
<polygon fill="#63b8ff" stroke="#63b8ff" points="203.67,-178.29 213.98,-175.87 204.41,-171.33 203.67,-178.29"/>
</a>
</g>
</g>
<!-- Node13 -->
<g id="Node000013" class="node">
<title>Node13</title>
<g id="a_Node000013"><a xlink:href="../../db/d6d/classCore.html#ae1876a4693544ef821510bc8a7ae45eb" target="_top" xlink:title=" ">
<polygon fill="white" stroke="#666666" points="146.12,-131.5 24.37,-131.5 24.37,-107 146.12,-107 146.12,-131.5"/>
<text text-anchor="middle" x="85.25" y="-114.2" font-family="Helvetica,sans-Serif" font-size="14.00">Core\getPhpExe</text>
</a>
</g>
</g>
<!-- Node12&#45;&gt;Node13 -->
<g id="edge12_Node000012_Node000013" class="edge">
<title>Node12&#45;&gt;Node13</title>
<g id="a_edge12_Node000012_Node000013"><a xlink:title=" ">
<path fill="none" stroke="#63b8ff" d="M218.98,-133.4C195.23,-130.87 169.21,-128.09 146.55,-125.68"/>
<polygon fill="#63b8ff" stroke="#63b8ff" points="218.61,-136.88 228.92,-134.46 219.35,-129.92 218.61,-136.88"/>
</a>
</g>
</g>
<!-- Node15 -->
<g id="Node000015" class="node">
<title>Node15</title>
<g id="a_Node000015"><a xlink:href="../../db/d6d/classCore.html#a3c0be1de9d562ac8cbeb1ea608acff2d" target="_top" xlink:title=" ">
<polygon fill="white" stroke="#666666" points="155.12,-88.5 15.38,-88.5 15.38,-64 155.12,-64 155.12,-88.5"/>
<text text-anchor="middle" x="85.25" y="-71.2" font-family="Helvetica,sans-Serif" font-size="14.00">Core\getPwgenExe</text>
</a>
</g>
</g>
<!-- Node14&#45;&gt;Node15 -->
<g id="edge14_Node000014_Node000015" class="edge">
<title>Node14&#45;&gt;Node15</title>
<g id="a_edge14_Node000014_Node000015"><a xlink:title=" ">
<path fill="none" stroke="#63b8ff" d="M210.38,-89.48C192.13,-87.54 172.97,-85.49 155.31,-83.61"/>
<polygon fill="#63b8ff" stroke="#63b8ff" points="209.78,-92.94 220.1,-90.52 210.52,-85.98 209.78,-92.94"/>
</a>
</g>
</g>
<!-- Node17 -->
<g id="Node000017" class="node">
<title>Node17</title>
<g id="a_Node000017"><a xlink:href="../../db/d6d/classCore.html#a35ccb71639023558ecf1502005a9edad" target="_top" xlink:title=" ">
<polygon fill="white" stroke="#666666" points="156.25,-45.5 14.25,-45.5 14.25,-21 156.25,-21 156.25,-45.5"/>
<text text-anchor="middle" x="85.25" y="-28.2" font-family="Helvetica,sans-Serif" font-size="14.00">Core\getSetEnvExe</text>
</a>
</g>
</g>
<!-- Node16&#45;&gt;Node17 -->
<g id="edge16_Node000016_Node000017" class="edge">
<title>Node16&#45;&gt;Node17</title>
<g id="a_edge16_Node000016_Node000017"><a xlink:title=" ">
<path fill="none" stroke="#63b8ff" d="M209.14,-46.35C191.72,-44.49 173.53,-42.55 156.65,-40.75"/>
<polygon fill="#63b8ff" stroke="#63b8ff" points="208.63,-49.82 218.94,-47.4 209.37,-42.85 208.63,-49.82"/>
</a>
</g>
</g>
</g>
</svg>
