<?xml version="1.0" encoding="UTF-8" standalone="no"?>
<!--
  - Copyright (c) 2021-2024 Bearsampp
  - License:  GNU General Public License version 3 or later; see LICENSE.txt
  - Author: Bear
  - Website: https://bearsampp.com
  - Github: https://github.com/Bearsampp
  -->

<!DOCTYPE svg PUBLIC "-//W3C//DTD SVG 1.1//EN"
 "http://www.w3.org/Graphics/SVG/1.1/DTD/svg11.dtd">
<!-- Generated by graphviz version 11.0.0 (20240428.1522)
 -->
<!-- Title: Core\getResourcesPath Pages: 1 -->
<svg width="597pt" height="162pt"
 viewBox="0.00 0.00 596.75 161.50" xmlns="http://www.w3.org/2000/svg" xmlns:xlink="http://www.w3.org/1999/xlink">
<g id="graph0" class="graph" transform="scale(1 1) rotate(0) translate(4 157.5)">
<title>Core\getResourcesPath</title>
<!-- Node1 -->
<g id="Node000001" class="node">
<title>Node1</title>
<g id="a_Node000001"><a xlink:title=" ">
<polygon fill="#999999" stroke="#666666" points="588.75,-88.5 419,-88.5 419,-64 588.75,-64 588.75,-88.5"/>
<text text-anchor="middle" x="503.88" y="-71.2" font-family="Helvetica,sans-Serif" font-size="14.00">Core\getResourcesPath</text>
</a>
</g>
</g>
<!-- Node2 -->
<g id="Node000002" class="node">
<title>Node2</title>
<g id="a_Node000002"><a xlink:href="../../db/d6d/classCore.html#ab3f4be1cf69ef79c68aeba7947bb4d43" target="_top" xlink:title=" ">
<polygon fill="white" stroke="#666666" points="371,-153.5 224.5,-153.5 224.5,-129 371,-129 371,-153.5"/>
<text text-anchor="middle" x="297.75" y="-136.2" font-family="Helvetica,sans-Serif" font-size="14.00">Core\getAppVersion</text>
</a>
</g>
</g>
<!-- Node1&#45;&gt;Node2 -->
<g id="edge1_Node000001_Node000002" class="edge">
<title>Node1&#45;&gt;Node2</title>
<g id="a_edge1_Node000001_Node000002"><a xlink:title=" ">
<path fill="none" stroke="#63b8ff" d="M459.45,-92.88C436.82,-101.28 408.6,-111.33 383,-119.25 372.46,-122.51 361.08,-125.7 350.19,-128.59"/>
<polygon fill="#63b8ff" stroke="#63b8ff" points="460.51,-96.22 468.65,-89.44 458.06,-89.66 460.51,-96.22"/>
</a>
</g>
</g>
<!-- Node3 -->
<g id="Node000003" class="node">
<title>Node3</title>
<g id="a_Node000003"><a xlink:href="../../db/d6d/classCore.html#aa78db47fcf947d17c16a8b06dc226228" target="_top" xlink:title=" ">
<polygon fill="white" stroke="#666666" points="383,-110.5 212.5,-110.5 212.5,-86 383,-86 383,-110.5"/>
<text text-anchor="middle" x="297.75" y="-93.2" font-family="Helvetica,sans-Serif" font-size="14.00">Core\getHomepagePath</text>
</a>
</g>
</g>
<!-- Node1&#45;&gt;Node3 -->
<g id="edge2_Node000001_Node000003" class="edge">
<title>Node1&#45;&gt;Node3</title>
<g id="a_edge2_Node000001_Node000003"><a xlink:title=" ">
<path fill="none" stroke="#63b8ff" d="M407.41,-86.54C399.4,-87.4 391.34,-88.27 383.42,-89.12"/>
<polygon fill="#63b8ff" stroke="#63b8ff" points="407.6,-90.04 417.17,-85.49 406.85,-83.08 407.6,-90.04"/>
</a>
</g>
</g>
<!-- Node5 -->
<g id="Node000005" class="node">
<title>Node5</title>
<g id="a_Node000005"><a xlink:href="../../db/d6d/classCore.html#ae78e2773ef603481b161e172c407181f" target="_top" xlink:title=" ">
<polygon fill="white" stroke="#666666" points="361.25,-67.5 234.25,-67.5 234.25,-43 361.25,-43 361.25,-67.5"/>
<text text-anchor="middle" x="297.75" y="-50.2" font-family="Helvetica,sans-Serif" font-size="14.00">Core\getLastPath</text>
</a>
</g>
</g>
<!-- Node1&#45;&gt;Node5 -->
<g id="edge4_Node000001_Node000005" class="edge">
<title>Node1&#45;&gt;Node5</title>
<g id="a_edge4_Node000001_Node000005"><a xlink:title=" ">
<path fill="none" stroke="#63b8ff" d="M407.4,-66.43C391.83,-64.83 376.07,-63.2 361.55,-61.71"/>
<polygon fill="#63b8ff" stroke="#63b8ff" points="406.86,-69.89 417.17,-67.43 407.58,-62.93 406.86,-69.89"/>
</a>
</g>
</g>
<!-- Node7 -->
<g id="Node000007" class="node">
<title>Node7</title>
<g id="a_Node000007"><a xlink:href="../../db/d6d/classCore.html#ab6c5b72e1161c2c3aa93365b2679071f" target="_top" xlink:title=" ">
<polygon fill="white" stroke="#666666" points="369.5,-24.5 226,-24.5 226,0 369.5,0 369.5,-24.5"/>
<text text-anchor="middle" x="297.75" y="-7.2" font-family="Helvetica,sans-Serif" font-size="14.00">Core\getLoadingPid</text>
</a>
</g>
</g>
<!-- Node1&#45;&gt;Node7 -->
<g id="edge6_Node000001_Node000007" class="edge">
<title>Node1&#45;&gt;Node7</title>
<g id="a_edge6_Node000001_Node000007"><a xlink:title=" ">
<path fill="none" stroke="#63b8ff" d="M458.45,-59.71C435.98,-51.6 408.19,-41.94 383,-34.25 372.45,-31.03 361.06,-27.86 350.17,-24.97"/>
<polygon fill="#63b8ff" stroke="#63b8ff" points="457,-62.91 467.59,-63.04 459.39,-56.33 457,-62.91"/>
</a>
</g>
</g>
<!-- Node4 -->
<g id="Node000004" class="node">
<title>Node4</title>
<g id="a_Node000004"><a xlink:href="../../db/d6d/classCore.html#a1047255590baf0e0fbae7261805cf93a" target="_top" xlink:title=" ">
<polygon fill="white" stroke="#666666" points="151.75,-110.5 24.75,-110.5 24.75,-86 151.75,-86 151.75,-110.5"/>
<text text-anchor="middle" x="88.25" y="-93.2" font-family="Helvetica,sans-Serif" font-size="14.00">Core\getAjaxPath</text>
</a>
</g>
</g>
<!-- Node3&#45;&gt;Node4 -->
<g id="edge3_Node000003_Node000004" class="edge">
<title>Node3&#45;&gt;Node4</title>
<g id="a_edge3_Node000003_Node000004"><a xlink:title=" ">
<path fill="none" stroke="#63b8ff" d="M200.69,-98.25C184.18,-98.25 167.41,-98.25 152.06,-98.25"/>
<polygon fill="#63b8ff" stroke="#63b8ff" points="200.54,-101.75 210.54,-98.25 200.54,-94.75 200.54,-101.75"/>
</a>
</g>
</g>
<!-- Node6 -->
<g id="Node000006" class="node">
<title>Node6</title>
<g id="a_Node000006"><a xlink:href="../../db/d6d/classCore.html#ade670dab81262582130310eeb5edc694" target="_top" xlink:title=" ">
<polygon fill="white" stroke="#666666" points="176.5,-67.5 0,-67.5 0,-43 176.5,-43 176.5,-67.5"/>
<text text-anchor="middle" x="88.25" y="-50.2" font-family="Helvetica,sans-Serif" font-size="14.00">Core\getLastPathContent</text>
</a>
</g>
</g>
<!-- Node5&#45;&gt;Node6 -->
<g id="edge5_Node000005_Node000006" class="edge">
<title>Node5&#45;&gt;Node6</title>
<g id="a_edge5_Node000005_Node000006"><a xlink:title=" ">
<path fill="none" stroke="#63b8ff" d="M222.73,-55.25C207.84,-55.25 192.04,-55.25 176.74,-55.25"/>
<polygon fill="#63b8ff" stroke="#63b8ff" points="222.42,-58.75 232.42,-55.25 222.42,-51.75 222.42,-58.75"/>
</a>
</g>
</g>
<!-- Node8 -->
<g id="Node000008" class="node">
<title>Node8</title>
<g id="a_Node000008"><a xlink:href="../../db/d6d/classCore.html#a02955a6ecc7a47aec50da90fd4de366f" target="_top" xlink:title=" ">
<polygon fill="white" stroke="#666666" points="161.88,-24.5 14.62,-24.5 14.62,0 161.88,0 161.88,-24.5"/>
<text text-anchor="middle" x="88.25" y="-7.2" font-family="Helvetica,sans-Serif" font-size="14.00">Core\addLoadingPid</text>
</a>
</g>
</g>
<!-- Node7&#45;&gt;Node8 -->
<g id="edge7_Node000007_Node000008" class="edge">
<title>Node7&#45;&gt;Node8</title>
<g id="a_edge7_Node000007_Node000008"><a xlink:title=" ">
<path fill="none" stroke="#63b8ff" d="M214.4,-12.25C197.1,-12.25 178.96,-12.25 162.04,-12.25"/>
<polygon fill="#63b8ff" stroke="#63b8ff" points="214.12,-15.75 224.12,-12.25 214.12,-8.75 214.12,-15.75"/>
</a>
</g>
</g>
</g>
</svg>
