<?xml version="1.0" encoding="UTF-8" standalone="no"?>
<!--
  - Copyright (c) 2021-2024 Bearsampp
  - License:  GNU General Public License version 3 or later; see LICENSE.txt
  - Author: Bear
  - Website: https://bearsampp.com
  - Github: https://github.com/Bearsampp
  -->

<!DOCTYPE svg PUBLIC "-//W3C//DTD SVG 1.1//EN"
 "http://www.w3.org/Graphics/SVG/1.1/DTD/svg11.dtd">
<!-- Generated by graphviz version 11.0.0 (20240428.1522)
 -->
<!-- Title: BinXlight\reload Pages: 1 -->
<svg width="704pt" height="119pt"
 viewBox="0.00 0.00 704.25 118.50" xmlns="http://www.w3.org/2000/svg" xmlns:xlink="http://www.w3.org/1999/xlink">
<g id="graph0" class="graph" transform="scale(1 1) rotate(0) translate(4 114.5)">
<title>BinXlight\reload</title>
<!-- Node1 -->
<g id="Node000001" class="node">
<title>Node1</title>
<g id="a_Node000001"><a xlink:title=" ">
<polygon fill="#999999" stroke="#666666" points="696.25,-67.5 581.25,-67.5 581.25,-43 696.25,-43 696.25,-67.5"/>
<text text-anchor="middle" x="638.75" y="-50.2" font-family="Helvetica,sans-Serif" font-size="14.00">BinXlight\reload</text>
</a>
</g>
</g>
<!-- Node2 -->
<g id="Node000002" class="node">
<title>Node2</title>
<g id="a_Node000002"><a xlink:href="../../d8/ddb/classBinXlight.html#a7d1fe161525c9b467d8966faa5bf3c1e" target="_top" xlink:title=" ">
<polygon fill="white" stroke="#666666" points="545.25,-110.5 395.75,-110.5 395.75,-86 545.25,-86 545.25,-110.5"/>
<text text-anchor="middle" x="470.5" y="-93.2" font-family="Helvetica,sans-Serif" font-size="14.00">BinXlight\__construct</text>
</a>
</g>
</g>
<!-- Node1&#45;&gt;Node2 -->
<g id="edge1_Node000001_Node000002" class="edge">
<title>Node1&#45;&gt;Node2</title>
<g id="a_edge1_Node000001_Node000002"><a xlink:title=" ">
<path fill="none" stroke="#63b8ff" d="M577.68,-70.79C558.98,-75.62 538.58,-80.9 520.71,-85.52"/>
<polygon fill="#63b8ff" stroke="#63b8ff" points="578.5,-74.19 587.3,-68.3 576.75,-67.41 578.5,-74.19"/>
</a>
</g>
</g>
<!-- Node3 -->
<g id="Node000003" class="node">
<title>Node3</title>
<g id="a_Node000003"><a xlink:href="../../d8/ddb/classBinXlight.html#af8a4eaf341f9faaf452ef20759623a1a" target="_top" xlink:title=" ">
<polygon fill="white" stroke="#666666" points="540,-67.5 401,-67.5 401,-43 540,-43 540,-67.5"/>
<text text-anchor="middle" x="470.5" y="-50.2" font-family="Helvetica,sans-Serif" font-size="14.00">BinXlight\setEnable</text>
</a>
</g>
</g>
<!-- Node1&#45;&gt;Node3 -->
<g id="edge2_Node000001_Node000003" class="edge">
<title>Node1&#45;&gt;Node3</title>
<g id="a_edge2_Node000001_Node000003"><a xlink:title=" ">
<path fill="none" stroke="#63b8ff" d="M569.77,-55.25C560.07,-55.25 550.08,-55.25 540.35,-55.25"/>
<polygon fill="#63b8ff" stroke="#63b8ff" points="569.49,-58.75 579.49,-55.25 569.49,-51.75 569.49,-58.75"/>
</a>
</g>
</g>
<!-- Node4 -->
<g id="Node000004" class="node">
<title>Node4</title>
<g id="a_Node000004"><a xlink:href="../../d8/ddb/classBinXlight.html#a46fd85f59132046206244962b68d5ae5" target="_top" xlink:title=" ">
<polygon fill="white" stroke="#666666" points="542.25,-24.5 398.75,-24.5 398.75,0 542.25,0 542.25,-24.5"/>
<text text-anchor="middle" x="470.5" y="-7.2" font-family="Helvetica,sans-Serif" font-size="14.00">BinXlight\setVersion</text>
</a>
</g>
</g>
<!-- Node1&#45;&gt;Node4 -->
<g id="edge3_Node000001_Node000004" class="edge">
<title>Node1&#45;&gt;Node4</title>
<g id="a_edge3_Node000001_Node000004"><a xlink:title=" ">
<path fill="none" stroke="#63b8ff" d="M577.68,-39.71C558.98,-34.88 538.58,-29.6 520.71,-24.98"/>
<polygon fill="#63b8ff" stroke="#63b8ff" points="576.75,-43.09 587.3,-42.2 578.5,-36.31 576.75,-43.09"/>
</a>
</g>
</g>
<!-- Node5 -->
<g id="Node000005" class="node">
<title>Node5</title>
<g id="a_Node000005"><a xlink:href="../../d8/ddb/classBinXlight.html#a1dde5a86a2d03cb7e9eee7b0061fe183" target="_top" xlink:title=" ">
<polygon fill="white" stroke="#666666" points="359.75,-24.5 199,-24.5 199,0 359.75,0 359.75,-24.5"/>
<text text-anchor="middle" x="279.38" y="-7.2" font-family="Helvetica,sans-Serif" font-size="14.00">BinXlight\updateConfig</text>
</a>
</g>
</g>
<!-- Node4&#45;&gt;Node5 -->
<g id="edge4_Node000004_Node000005" class="edge">
<title>Node4&#45;&gt;Node5</title>
<g id="a_edge4_Node000004_Node000005"><a xlink:title=" ">
<path fill="none" stroke="#63b8ff" d="M387.04,-12.25C378.1,-12.25 369.01,-12.25 360.1,-12.25"/>
<polygon fill="#63b8ff" stroke="#63b8ff" points="386.76,-15.75 396.76,-12.25 386.76,-8.75 386.76,-15.75"/>
</a>
</g>
</g>
<!-- Node6 -->
<g id="Node000006" class="node">
<title>Node6</title>
<g id="a_Node000006"><a xlink:href="../../d8/ddb/classBinXlight.html#af4ac3343dcb90d9f76311cc3036747ff" target="_top" xlink:title=" ">
<polygon fill="white" stroke="#666666" points="163,-24.5 0,-24.5 0,0 163,0 163,-24.5"/>
<text text-anchor="middle" x="81.5" y="-7.2" font-family="Helvetica,sans-Serif" font-size="14.00">BinXlight\switchVersion</text>
</a>
</g>
</g>
<!-- Node5&#45;&gt;Node6 -->
<g id="edge5_Node000005_Node000006" class="edge">
<title>Node5&#45;&gt;Node6</title>
<g id="a_edge5_Node000005_Node000006"><a xlink:title=" ">
<path fill="none" stroke="#63b8ff" d="M187.42,-12.25C179.4,-12.25 171.31,-12.25 163.37,-12.25"/>
<polygon fill="#63b8ff" stroke="#63b8ff" points="187.19,-15.75 197.19,-12.25 187.19,-8.75 187.19,-15.75"/>
</a>
</g>
</g>
</g>
</svg>
