<?xml version="1.0" encoding="UTF-8" standalone="no"?>
<!--
  - Copyright (c) 2021-2024 Bearsampp
  - License:  GNU General Public License version 3 or later; see LICENSE.txt
  - Author: Bear
  - Website: https://bearsampp.com
  - Github: https://github.com/Bearsampp
  -->

<!DOCTYPE svg PUBLIC "-//W3C//DTD SVG 1.1//EN"
 "http://www.w3.org/Graphics/SVG/1.1/DTD/svg11.dtd">
<!-- Generated by graphviz version 11.0.0 (20240428.1522)
 -->
<!-- Title: BinFilezilla\getConf Pages: 1 -->
<svg width="564pt" height="33pt"
 viewBox="0.00 0.00 563.75 32.50" xmlns="http://www.w3.org/2000/svg" xmlns:xlink="http://www.w3.org/1999/xlink">
<g id="graph0" class="graph" transform="scale(1 1) rotate(0) translate(4 28.5)">
<title>BinFilezilla\getConf</title>
<!-- Node1 -->
<g id="Node000001" class="node">
<title>Node1</title>
<g id="a_Node000001"><a xlink:title=" ">
<polygon fill="#999999" stroke="#666666" points="555.75,-24.5 418.25,-24.5 418.25,0 555.75,0 555.75,-24.5"/>
<text text-anchor="middle" x="487" y="-7.2" font-family="Helvetica,sans-Serif" font-size="14.00">BinFilezilla\getConf</text>
</a>
</g>
</g>
<!-- Node2 -->
<g id="Node000002" class="node">
<title>Node2</title>
<g id="a_Node000002"><a xlink:href="../../da/d23/classBinFilezilla.html#a66353a5a6f70047b44e22789823082bf" target="_top" xlink:title=" ">
<polygon fill="white" stroke="#666666" points="382.25,-24.5 210.25,-24.5 210.25,0 382.25,0 382.25,-24.5"/>
<text text-anchor="middle" x="296.25" y="-7.2" font-family="Helvetica,sans-Serif" font-size="14.00">BinFilezilla\updateConfig</text>
</a>
</g>
</g>
<!-- Node1&#45;&gt;Node2 -->
<g id="edge1_Node000001_Node000002" class="edge">
<title>Node1&#45;&gt;Node2</title>
<g id="a_edge1_Node000001_Node000002"><a xlink:title=" ">
<path fill="none" stroke="#63b8ff" d="M406.48,-12.25C398.62,-12.25 390.63,-12.25 382.72,-12.25"/>
<polygon fill="#63b8ff" stroke="#63b8ff" points="406.34,-15.75 416.34,-12.25 406.34,-8.75 406.34,-15.75"/>
</a>
</g>
</g>
<!-- Node3 -->
<g id="Node000003" class="node">
<title>Node3</title>
<g id="a_Node000003"><a xlink:href="../../da/d23/classBinFilezilla.html#a252ac578876f5e66642b8bf9e69393c0" target="_top" xlink:title=" ">
<polygon fill="white" stroke="#666666" points="174.25,-24.5 0,-24.5 0,0 174.25,0 174.25,-24.5"/>
<text text-anchor="middle" x="87.12" y="-7.2" font-family="Helvetica,sans-Serif" font-size="14.00">BinFilezilla\switchVersion</text>
</a>
</g>
</g>
<!-- Node2&#45;&gt;Node3 -->
<g id="edge2_Node000002_Node000003" class="edge">
<title>Node2&#45;&gt;Node3</title>
<g id="a_edge2_Node000002_Node000003"><a xlink:title=" ">
<path fill="none" stroke="#63b8ff" d="M198.32,-12.25C190.44,-12.25 182.51,-12.25 174.71,-12.25"/>
<polygon fill="#63b8ff" stroke="#63b8ff" points="198.29,-15.75 208.29,-12.25 198.29,-8.75 198.29,-15.75"/>
</a>
</g>
</g>
</g>
</svg>
