<?xml version="1.0" encoding="UTF-8" standalone="no"?>
<!--
  - Copyright (c) 2021-2024 Bearsampp
  - License:  GNU General Public License version 3 or later; see LICENSE.txt
  - Author: Bear
  - Website: https://bearsampp.com
  - Github: https://github.com/Bearsampp
  -->

<!DOCTYPE svg PUBLIC "-//W3C//DTD SVG 1.1//EN"
 "http://www.w3.org/Graphics/SVG/1.1/DTD/svg11.dtd">
<!-- Generated by graphviz version 11.0.0 (20240428.1522)
 -->
<!-- Title: BinFilezilla\reload Pages: 1 -->
<svg width="749pt" height="119pt"
 viewBox="0.00 0.00 749.25 118.50" xmlns="http://www.w3.org/2000/svg" xmlns:xlink="http://www.w3.org/1999/xlink">
<g id="graph0" class="graph" transform="scale(1 1) rotate(0) translate(4 114.5)">
<title>BinFilezilla\reload</title>
<!-- Node1 -->
<g id="Node000001" class="node">
<title>Node1</title>
<g id="a_Node000001"><a xlink:title=" ">
<polygon fill="#999999" stroke="#666666" points="741.25,-67.5 615,-67.5 615,-43 741.25,-43 741.25,-67.5"/>
<text text-anchor="middle" x="678.12" y="-50.2" font-family="Helvetica,sans-Serif" font-size="14.00">BinFilezilla\reload</text>
</a>
</g>
</g>
<!-- Node2 -->
<g id="Node000002" class="node">
<title>Node2</title>
<g id="a_Node000002"><a xlink:href="../../da/d23/classBinFilezilla.html#ac14fbb45ee0e664fe93a00a0699194b4" target="_top" xlink:title=" ">
<polygon fill="white" stroke="#666666" points="579,-110.5 418.25,-110.5 418.25,-86 579,-86 579,-110.5"/>
<text text-anchor="middle" x="498.62" y="-93.2" font-family="Helvetica,sans-Serif" font-size="14.00">BinFilezilla\__construct</text>
</a>
</g>
</g>
<!-- Node1&#45;&gt;Node2 -->
<g id="edge1_Node000001_Node000002" class="edge">
<title>Node1&#45;&gt;Node2</title>
<g id="a_edge1_Node000001_Node000002"><a xlink:title=" ">
<path fill="none" stroke="#63b8ff" d="M613.83,-70.58C593.63,-75.48 571.51,-80.84 552.16,-85.52"/>
<polygon fill="#63b8ff" stroke="#63b8ff" points="614.46,-74.03 623.36,-68.28 612.82,-67.23 614.46,-74.03"/>
</a>
</g>
</g>
<!-- Node3 -->
<g id="Node000003" class="node">
<title>Node3</title>
<g id="a_Node000003"><a xlink:href="../../da/d23/classBinFilezilla.html#a00f53d4c8b7f101f056eded025c1f3c1" target="_top" xlink:title=" ">
<polygon fill="white" stroke="#666666" points="573.75,-67.5 423.5,-67.5 423.5,-43 573.75,-43 573.75,-67.5"/>
<text text-anchor="middle" x="498.62" y="-50.2" font-family="Helvetica,sans-Serif" font-size="14.00">BinFilezilla\setEnable</text>
</a>
</g>
</g>
<!-- Node1&#45;&gt;Node3 -->
<g id="edge2_Node000001_Node000003" class="edge">
<title>Node1&#45;&gt;Node3</title>
<g id="a_edge2_Node000001_Node000003"><a xlink:title=" ">
<path fill="none" stroke="#63b8ff" d="M603.34,-55.25C593.68,-55.25 583.78,-55.25 574.1,-55.25"/>
<polygon fill="#63b8ff" stroke="#63b8ff" points="603.03,-58.75 613.03,-55.25 603.03,-51.75 603.03,-58.75"/>
</a>
</g>
</g>
<!-- Node4 -->
<g id="Node000004" class="node">
<title>Node4</title>
<g id="a_Node000004"><a xlink:href="../../da/d23/classBinFilezilla.html#a822a1e90caee57831190434f0451f2d8" target="_top" xlink:title=" ">
<polygon fill="white" stroke="#666666" points="576,-24.5 421.25,-24.5 421.25,0 576,0 576,-24.5"/>
<text text-anchor="middle" x="498.62" y="-7.2" font-family="Helvetica,sans-Serif" font-size="14.00">BinFilezilla\setVersion</text>
</a>
</g>
</g>
<!-- Node1&#45;&gt;Node4 -->
<g id="edge3_Node000001_Node000004" class="edge">
<title>Node1&#45;&gt;Node4</title>
<g id="a_edge3_Node000001_Node000004"><a xlink:title=" ">
<path fill="none" stroke="#63b8ff" d="M613.83,-39.92C593.63,-35.02 571.51,-29.66 552.16,-24.98"/>
<polygon fill="#63b8ff" stroke="#63b8ff" points="612.82,-43.27 623.36,-42.22 614.46,-36.47 612.82,-43.27"/>
</a>
</g>
</g>
<!-- Node5 -->
<g id="Node000005" class="node">
<title>Node5</title>
<g id="a_Node000005"><a xlink:href="../../da/d23/classBinFilezilla.html#a66353a5a6f70047b44e22789823082bf" target="_top" xlink:title=" ">
<polygon fill="white" stroke="#666666" points="382.25,-24.5 210.25,-24.5 210.25,0 382.25,0 382.25,-24.5"/>
<text text-anchor="middle" x="296.25" y="-7.2" font-family="Helvetica,sans-Serif" font-size="14.00">BinFilezilla\updateConfig</text>
</a>
</g>
</g>
<!-- Node4&#45;&gt;Node5 -->
<g id="edge4_Node000004_Node000005" class="edge">
<title>Node4&#45;&gt;Node5</title>
<g id="a_edge4_Node000004_Node000005"><a xlink:title=" ">
<path fill="none" stroke="#63b8ff" d="M409.68,-12.25C400.66,-12.25 391.5,-12.25 382.51,-12.25"/>
<polygon fill="#63b8ff" stroke="#63b8ff" points="409.5,-15.75 419.5,-12.25 409.5,-8.75 409.5,-15.75"/>
</a>
</g>
</g>
<!-- Node6 -->
<g id="Node000006" class="node">
<title>Node6</title>
<g id="a_Node000006"><a xlink:href="../../da/d23/classBinFilezilla.html#a252ac578876f5e66642b8bf9e69393c0" target="_top" xlink:title=" ">
<polygon fill="white" stroke="#666666" points="174.25,-24.5 0,-24.5 0,0 174.25,0 174.25,-24.5"/>
<text text-anchor="middle" x="87.12" y="-7.2" font-family="Helvetica,sans-Serif" font-size="14.00">BinFilezilla\switchVersion</text>
</a>
</g>
</g>
<!-- Node5&#45;&gt;Node6 -->
<g id="edge5_Node000005_Node000006" class="edge">
<title>Node5&#45;&gt;Node6</title>
<g id="a_edge5_Node000005_Node000006"><a xlink:title=" ">
<path fill="none" stroke="#63b8ff" d="M198.32,-12.25C190.44,-12.25 182.51,-12.25 174.71,-12.25"/>
<polygon fill="#63b8ff" stroke="#63b8ff" points="198.29,-15.75 208.29,-12.25 198.29,-8.75 198.29,-15.75"/>
</a>
</g>
</g>
</g>
</svg>
