<?xml version="1.0" encoding="UTF-8" standalone="no"?>
<!--
  - Copyright (c) 2021-2024 Bearsampp
  - License:  GNU General Public License version 3 or later; see LICENSE.txt
  - Author: Bear
  - Website: https://bearsampp.com
  - Github: https://github.com/Bearsampp
  -->

<!DOCTYPE svg PUBLIC "-//W3C//DTD SVG 1.1//EN"
 "http://www.w3.org/Graphics/SVG/1.1/DTD/svg11.dtd">
<!-- Generated by graphviz version 11.0.0 (20240428.1522)
 -->
<!-- Title: ActionService\start Pages: 1 -->
<svg width="544pt" height="53pt"
 viewBox="0.00 0.00 543.50 52.50" xmlns="http://www.w3.org/2000/svg" xmlns:xlink="http://www.w3.org/1999/xlink">
<g id="graph0" class="graph" transform="scale(1 1) rotate(0) translate(4 48.5)">
<title>ActionService\start</title>
<!-- Node1 -->
<g id="Node000001" class="node">
<title>Node1</title>
<g id="a_Node000001"><a xlink:title=" ">
<polygon fill="#999999" stroke="#666666" points="535.5,-44.5 401,-44.5 401,-20 535.5,-20 535.5,-44.5"/>
<text text-anchor="middle" x="468.25" y="-27.2" font-family="Helvetica,sans-Serif" font-size="14.00">ActionService\start</text>
</a>
</g>
</g>
<!-- Node2 -->
<g id="Node000002" class="node">
<title>Node2</title>
<g id="a_Node000002"><a xlink:href="../../d7/d0e/classActionService.html#a4440ed18ce314e66ba30932864b5584b" target="_top" xlink:title=" ">
<polygon fill="white" stroke="#666666" points="181.75,-44.5 0,-44.5 0,-20 181.75,-20 181.75,-44.5"/>
<text text-anchor="middle" x="90.88" y="-27.2" font-family="Helvetica,sans-Serif" font-size="14.00">ActionService\__construct</text>
</a>
</g>
</g>
<!-- Node1&#45;&gt;Node2 -->
<g id="edge1_Node000001_Node000002" class="edge">
<title>Node1&#45;&gt;Node2</title>
<g id="a_edge1_Node000001_Node000002"><a xlink:title=" ">
<path fill="none" stroke="#63b8ff" d="M389.19,-33.09C381.02,-33.16 372.84,-33.21 365,-33.25 299.56,-33.57 283.19,-33.51 217.75,-33.25 206.17,-33.2 193.99,-33.13 181.95,-33.05"/>
<polygon fill="#63b8ff" stroke="#63b8ff" points="389.21,-36.59 399.18,-33.01 389.16,-29.59 389.21,-36.59"/>
</a>
</g>
</g>
<!-- Node3 -->
<g id="Node000003" class="node">
<title>Node3</title>
<g id="a_Node000003"><a xlink:href="../../d7/d0e/classActionService.html#a66abcafad5706de7894580c0dab1ca0a" target="_top" xlink:title=" ">
<polygon fill="white" stroke="#666666" points="365,-24.5 217.75,-24.5 217.75,0 365,0 365,-24.5"/>
<text text-anchor="middle" x="291.38" y="-7.2" font-family="Helvetica,sans-Serif" font-size="14.00">ActionService\restart</text>
</a>
</g>
</g>
<!-- Node1&#45;&gt;Node3 -->
<g id="edge2_Node000001_Node000003" class="edge">
<title>Node1&#45;&gt;Node3</title>
<g id="a_edge2_Node000001_Node000003"><a xlink:title=" ">
<path fill="none" stroke="#63b8ff" d="M389.38,-23.34C381.34,-22.42 373.2,-21.49 365.22,-20.58"/>
<polygon fill="#63b8ff" stroke="#63b8ff" points="388.8,-26.8 399.13,-24.46 389.6,-19.85 388.8,-26.8"/>
</a>
</g>
</g>
<!-- Node3&#45;&gt;Node2 -->
<g id="edge3_Node000003_Node000002" class="edge">
<title>Node3&#45;&gt;Node2</title>
<g id="a_edge3_Node000003_Node000002"><a xlink:title=" ">
<path fill="none" stroke="#63b8ff" d="M206.13,-20.74C198.14,-21.54 190.02,-22.36 181.98,-23.17"/>
<polygon fill="#63b8ff" stroke="#63b8ff" points="206.2,-24.25 215.8,-19.76 205.5,-17.28 206.2,-24.25"/>
</a>
</g>
</g>
</g>
</svg>
