<?xml version="1.0" encoding="UTF-8" standalone="no"?>
<!--
  - Copyright (c) 2021-2024 Bearsampp
  - License:  GNU General Public License version 3 or later; see LICENSE.txt
  - Author: Bear
  - Website: https://bearsampp.com
  - Github: https://github.com/Bearsampp
  -->

<!DOCTYPE svg PUBLIC "-//W3C//DTD SVG 1.1//EN"
 "http://www.w3.org/Graphics/SVG/1.1/DTD/svg11.dtd">
<!-- Generated by graphviz version 11.0.0 (20240428.1522)
 -->
<!-- Title: __alter_table Pages: 1 -->
<svg width="300pt" height="205pt"
 viewBox="0.00 0.00 300.25 204.50" xmlns="http://www.w3.org/2000/svg" xmlns:xlink="http://www.w3.org/1999/xlink">
<g id="graph0" class="graph" transform="scale(1 1) rotate(0) translate(4 200.5)">
<title>__alter_table</title>
<!-- Node1 -->
<g id="Node000001" class="node">
<title>Node1</title>
<g id="a_Node000001"><a xlink:title=" ">
<polygon fill="#999999" stroke="#666666" points="292.25,-110.5 193.75,-110.5 193.75,-86 292.25,-86 292.25,-110.5"/>
<text text-anchor="middle" x="243" y="-93.2" font-family="Helvetica,sans-Serif" font-size="14.00">__alter_table</text>
</a>
</g>
</g>
<!-- Node2 -->
<g id="Node000002" class="node">
<title>Node2</title>
<g id="a_Node000002"><a xlink:href="../../d3/d41/db__sqlite_8inc_8php.html#a8830a30e6c172d83e056d695c1430385" target="_top" xlink:title=" ">
<polygon fill="white" stroke="#666666" points="151.75,-196.5 6,-196.5 6,-172 151.75,-172 151.75,-196.5"/>
<text text-anchor="middle" x="78.88" y="-179.2" font-family="Helvetica,sans-Serif" font-size="14.00">raw_db_create_field</text>
</a>
</g>
</g>
<!-- Node1&#45;&gt;Node2 -->
<g id="edge1_Node000001_Node000002" class="edge">
<title>Node1&#45;&gt;Node2</title>
<g id="a_edge1_Node000001_Node000002"><a xlink:title=" ">
<path fill="none" stroke="#63b8ff" d="M220.56,-118.17C204.38,-132.26 181.05,-150.63 157.75,-162.25 150.58,-165.82 142.75,-168.9 134.9,-171.51"/>
<polygon fill="#63b8ff" stroke="#63b8ff" points="222.5,-121.13 227.64,-111.86 217.84,-115.9 222.5,-121.13"/>
</a>
</g>
</g>
<!-- Node3 -->
<g id="Node000003" class="node">
<title>Node3</title>
<g id="a_Node000003"><a xlink:href="../../d3/d41/db__sqlite_8inc_8php.html#a479dd493b8d56b4da99e67c6deabe6f0" target="_top" xlink:title=" ">
<polygon fill="white" stroke="#666666" points="151.75,-153.5 6,-153.5 6,-129 151.75,-129 151.75,-153.5"/>
<text text-anchor="middle" x="78.88" y="-136.2" font-family="Helvetica,sans-Serif" font-size="14.00">raw_db_delete_field</text>
</a>
</g>
</g>
<!-- Node1&#45;&gt;Node3 -->
<g id="edge2_Node000001_Node000003" class="edge">
<title>Node1&#45;&gt;Node3</title>
<g id="a_edge2_Node000001_Node000003"><a xlink:title=" ">
<path fill="none" stroke="#63b8ff" d="M183.16,-113.85C164.99,-118.67 145.21,-123.92 127.86,-128.52"/>
<polygon fill="#63b8ff" stroke="#63b8ff" points="184,-117.25 192.77,-111.31 182.21,-110.49 184,-117.25"/>
</a>
</g>
</g>
<!-- Node4 -->
<g id="Node000004" class="node">
<title>Node4</title>
<g id="a_Node000004"><a xlink:href="../../d3/d41/db__sqlite_8inc_8php.html#a247a7a72746c7336fbecb92437663f5c" target="_top" xlink:title=" ">
<polygon fill="white" stroke="#666666" points="143.5,-110.5 14.25,-110.5 14.25,-86 143.5,-86 143.5,-110.5"/>
<text text-anchor="middle" x="78.88" y="-93.2" font-family="Helvetica,sans-Serif" font-size="14.00">raw_db_edit_field</text>
</a>
</g>
</g>
<!-- Node1&#45;&gt;Node4 -->
<g id="edge3_Node000001_Node000004" class="edge">
<title>Node1&#45;&gt;Node4</title>
<g id="a_edge3_Node000001_Node000004"><a xlink:title=" ">
<path fill="none" stroke="#63b8ff" d="M182.13,-98.25C169.64,-98.25 156.43,-98.25 143.8,-98.25"/>
<polygon fill="#63b8ff" stroke="#63b8ff" points="181.84,-101.75 191.84,-98.25 181.84,-94.75 181.84,-101.75"/>
</a>
</g>
</g>
<!-- Node5 -->
<g id="Node000005" class="node">
<title>Node5</title>
<g id="a_Node000005"><a xlink:href="../../d3/d41/db__sqlite_8inc_8php.html#a6d20c54228781a3699407d3061dce1e6" target="_top" xlink:title=" ">
<polygon fill="white" stroke="#666666" points="155.88,-67.5 1.88,-67.5 1.88,-43 155.88,-43 155.88,-67.5"/>
<text text-anchor="middle" x="78.88" y="-50.2" font-family="Helvetica,sans-Serif" font-size="14.00">raw_db_rename_field</text>
</a>
</g>
</g>
<!-- Node1&#45;&gt;Node5 -->
<g id="edge4_Node000001_Node000005" class="edge">
<title>Node1&#45;&gt;Node5</title>
<g id="a_edge4_Node000001_Node000005"><a xlink:title=" ">
<path fill="none" stroke="#63b8ff" d="M183.16,-82.65C164.99,-77.83 145.21,-72.58 127.86,-67.98"/>
<polygon fill="#63b8ff" stroke="#63b8ff" points="182.21,-86.01 192.77,-85.19 184,-79.25 182.21,-86.01"/>
</a>
</g>
</g>
<!-- Node6 -->
<g id="Node000006" class="node">
<title>Node6</title>
<g id="a_Node000006"><a xlink:href="../../d3/d41/db__sqlite_8inc_8php.html#add40311d1c1024feafdbeca9bcd4c78f" target="_top" xlink:title=" ">
<polygon fill="white" stroke="#666666" points="157.75,-24.5 0,-24.5 0,0 157.75,0 157.75,-24.5"/>
<text text-anchor="middle" x="78.88" y="-7.2" font-family="Helvetica,sans-Serif" font-size="14.00">raw_db_rename_table</text>
</a>
</g>
</g>
<!-- Node1&#45;&gt;Node6 -->
<g id="edge5_Node000001_Node000006" class="edge">
<title>Node1&#45;&gt;Node6</title>
<g id="a_edge5_Node000001_Node000006"><a xlink:title=" ">
<path fill="none" stroke="#63b8ff" d="M220.56,-78.33C204.38,-64.24 181.05,-45.87 157.75,-34.25 150.58,-30.68 142.75,-27.6 134.9,-24.99"/>
<polygon fill="#63b8ff" stroke="#63b8ff" points="217.84,-80.6 227.64,-84.64 222.5,-75.37 217.84,-80.6"/>
</a>
</g>
</g>
</g>
</svg>
