<?xml version="1.0" encoding="UTF-8" standalone="no"?>
<!--
  - Copyright (c) 2021-2024 Bearsampp
  - License:  GNU General Public License version 3 or later; see LICENSE.txt
  - Author: Bear
  - Website: https://bearsampp.com
  - Github: https://github.com/Bearsampp
  -->

<!DOCTYPE svg PUBLIC "-//W3C//DTD SVG 1.1//EN"
 "http://www.w3.org/Graphics/SVG/1.1/DTD/svg11.dtd">
<!-- Generated by graphviz version 11.0.0 (20240428.1522)
 -->
<!-- Title: ToolRuby\reload Pages: 1 -->
<svg width="321pt" height="76pt"
 viewBox="0.00 0.00 320.50 75.50" xmlns="http://www.w3.org/2000/svg" xmlns:xlink="http://www.w3.org/1999/xlink">
<g id="graph0" class="graph" transform="scale(1 1) rotate(0) translate(4 71.5)">
<title>ToolRuby\reload</title>
<!-- Node1 -->
<g id="Node000001" class="node">
<title>Node1</title>
<g id="a_Node000001"><a xlink:title=" ">
<polygon fill="#999999" stroke="#666666" points="312.5,-45.5 191.5,-45.5 191.5,-21 312.5,-21 312.5,-45.5"/>
<text text-anchor="middle" x="252" y="-28.2" font-family="Helvetica,sans-Serif" font-size="14.00">ToolRuby\reload</text>
</a>
</g>
</g>
<!-- Node2 -->
<g id="Node000002" class="node">
<title>Node2</title>
<g id="a_Node000002"><a xlink:href="../../de/d39/classToolRuby.html#a3035496f2c7a72f97d692ec809599f4f" target="_top" xlink:title=" ">
<polygon fill="white" stroke="#666666" points="155.5,-67.5 0,-67.5 0,-43 155.5,-43 155.5,-67.5"/>
<text text-anchor="middle" x="77.75" y="-50.2" font-family="Helvetica,sans-Serif" font-size="14.00">ToolRuby\__construct</text>
</a>
</g>
</g>
<!-- Node1&#45;&gt;Node2 -->
<g id="edge1_Node000001_Node000002" class="edge">
<title>Node1&#45;&gt;Node2</title>
<g id="a_edge1_Node000001_Node000002"><a xlink:title=" ">
<path fill="none" stroke="#63b8ff" d="M180.04,-42.31C172.01,-43.34 163.8,-44.39 155.7,-45.42"/>
<polygon fill="#63b8ff" stroke="#63b8ff" points="180.26,-45.81 189.74,-41.07 179.37,-38.87 180.26,-45.81"/>
</a>
</g>
</g>
<!-- Node3 -->
<g id="Node000003" class="node">
<title>Node3</title>
<g id="a_Node000003"><a xlink:href="../../de/d39/classToolRuby.html#a4ea0e5c667d8527e5a2417564a2ff66d" target="_top" xlink:title=" ">
<polygon fill="white" stroke="#666666" points="152.5,-24.5 3,-24.5 3,0 152.5,0 152.5,-24.5"/>
<text text-anchor="middle" x="77.75" y="-7.2" font-family="Helvetica,sans-Serif" font-size="14.00">ToolRuby\setVersion</text>
</a>
</g>
</g>
<!-- Node1&#45;&gt;Node3 -->
<g id="edge2_Node000001_Node000003" class="edge">
<title>Node1&#45;&gt;Node3</title>
<g id="a_edge2_Node000001_Node000003"><a xlink:title=" ">
<path fill="none" stroke="#63b8ff" d="M180.07,-24.6C171.13,-23.51 161.96,-22.4 152.98,-21.3"/>
<polygon fill="#63b8ff" stroke="#63b8ff" points="179.39,-28.04 189.74,-25.78 180.23,-21.1 179.39,-28.04"/>
</a>
</g>
</g>
</g>
</svg>
