<?xml version="1.0" encoding="UTF-8" standalone="no"?>
<!--
  - Copyright (c) 2021-2024 Bearsampp
  - License:  GNU General Public License version 3 or later; see LICENSE.txt
  - Author: Bear
  - Website: https://bearsampp.com
  - Github: https://github.com/Bearsampp
  -->

<!DOCTYPE svg PUBLIC "-//W3C//DTD SVG 1.1//EN"
 "http://www.w3.org/Graphics/SVG/1.1/DTD/svg11.dtd">
<!-- Generated by graphviz version 11.0.0 (20240428.1522)
 -->
<!-- Title: Apps\getWebgrind Pages: 1 -->
<svg width="403pt" height="33pt"
 viewBox="0.00 0.00 402.50 32.50" xmlns="http://www.w3.org/2000/svg" xmlns:xlink="http://www.w3.org/1999/xlink">
<g id="graph0" class="graph" transform="scale(1 1) rotate(0) translate(4 28.5)">
<title>Apps\getWebgrind</title>
<!-- Node1 -->
<g id="Node000001" class="node">
<title>Node1</title>
<g id="a_Node000001"><a xlink:title=" ">
<polygon fill="#999999" stroke="#666666" points="394.5,-24.5 258.5,-24.5 258.5,0 394.5,0 394.5,-24.5"/>
<text text-anchor="middle" x="326.5" y="-7.2" font-family="Helvetica,sans-Serif" font-size="14.00">Apps\getWebgrind</text>
</a>
</g>
</g>
<!-- Node2 -->
<g id="Node000002" class="node">
<title>Node2</title>
<g id="a_Node000002"><a xlink:href="../../d1/d0e/classApps.html#a9703160e7ebf7f21c1fb791c93274b73" target="_top" xlink:title=" ">
<polygon fill="white" stroke="#666666" points="222.5,-24.5 133,-24.5 133,0 222.5,0 222.5,-24.5"/>
<text text-anchor="middle" x="177.75" y="-7.2" font-family="Helvetica,sans-Serif" font-size="14.00">Apps\getAll</text>
</a>
</g>
</g>
<!-- Node1&#45;&gt;Node2 -->
<g id="edge1_Node000001_Node000002" class="edge">
<title>Node1&#45;&gt;Node2</title>
<g id="a_edge1_Node000001_Node000002"><a xlink:title=" ">
<path fill="none" stroke="#63b8ff" d="M246.81,-12.25C238.52,-12.25 230.32,-12.25 222.63,-12.25"/>
<polygon fill="#63b8ff" stroke="#63b8ff" points="246.62,-15.75 256.62,-12.25 246.62,-8.75 246.62,-15.75"/>
</a>
</g>
</g>
<!-- Node3 -->
<g id="Node000003" class="node">
<title>Node3</title>
<g id="a_Node000003"><a xlink:href="../../d1/d0e/classApps.html#afb30387c12a07775919a22a9ba587a7e" target="_top" xlink:title=" ">
<polygon fill="white" stroke="#666666" points="97,-24.5 0,-24.5 0,0 97,0 97,-24.5"/>
<text text-anchor="middle" x="48.5" y="-7.2" font-family="Helvetica,sans-Serif" font-size="14.00">Apps\update</text>
</a>
</g>
</g>
<!-- Node2&#45;&gt;Node3 -->
<g id="edge2_Node000002_Node000003" class="edge">
<title>Node2&#45;&gt;Node3</title>
<g id="a_edge2_Node000002_Node000003"><a xlink:title=" ">
<path fill="none" stroke="#63b8ff" d="M121.2,-12.25C113.3,-12.25 105.22,-12.25 97.48,-12.25"/>
<polygon fill="#63b8ff" stroke="#63b8ff" points="121.09,-15.75 131.09,-12.25 121.09,-8.75 121.09,-15.75"/>
</a>
</g>
</g>
</g>
</svg>
