<?xml version="1.0" encoding="UTF-8" standalone="no"?>
<!--
  - Copyright (c) 2021-2024 Bearsampp
  - License:  GNU General Public License version 3 or later; see LICENSE.txt
  - Author: Bear
  - Website: https://bearsampp.com
  - Github: https://github.com/Bearsampp
  -->

<!DOCTYPE svg PUBLIC "-//W3C//DTD SVG 1.1//EN"
 "http://www.w3.org/Graphics/SVG/1.1/DTD/svg11.dtd">
<!-- Generated by graphviz version 11.0.0 (20240428.1522)
 -->
<!-- Title: ToolConsoleZ\reload Pages: 1 -->
<svg width="379pt" height="76pt"
 viewBox="0.00 0.00 379.00 75.50" xmlns="http://www.w3.org/2000/svg" xmlns:xlink="http://www.w3.org/1999/xlink">
<g id="graph0" class="graph" transform="scale(1 1) rotate(0) translate(4 71.5)">
<title>ToolConsoleZ\reload</title>
<!-- Node1 -->
<g id="Node000001" class="node">
<title>Node1</title>
<g id="a_Node000001"><a xlink:title=" ">
<polygon fill="#999999" stroke="#666666" points="371,-45.5 220.75,-45.5 220.75,-21 371,-21 371,-45.5"/>
<text text-anchor="middle" x="295.88" y="-28.2" font-family="Helvetica,sans-Serif" font-size="14.00">ToolConsoleZ\reload</text>
</a>
</g>
</g>
<!-- Node2 -->
<g id="Node000002" class="node">
<title>Node2</title>
<g id="a_Node000002"><a xlink:href="../../d6/d0c/classToolConsoleZ.html#afbdd86039bed79d20d190ab12ffde7a6" target="_top" xlink:title=" ">
<polygon fill="white" stroke="#666666" points="184.75,-67.5 0,-67.5 0,-43 184.75,-43 184.75,-67.5"/>
<text text-anchor="middle" x="92.38" y="-50.2" font-family="Helvetica,sans-Serif" font-size="14.00">ToolConsoleZ\__construct</text>
</a>
</g>
</g>
<!-- Node1&#45;&gt;Node2 -->
<g id="edge1_Node000001_Node000002" class="edge">
<title>Node1&#45;&gt;Node2</title>
<g id="a_edge1_Node000001_Node000002"><a xlink:title=" ">
<path fill="none" stroke="#63b8ff" d="M209.19,-42.61C201.17,-43.48 193.02,-44.37 184.96,-45.25"/>
<polygon fill="#63b8ff" stroke="#63b8ff" points="209.35,-46.11 218.91,-41.54 208.59,-39.15 209.35,-46.11"/>
</a>
</g>
</g>
<!-- Node3 -->
<g id="Node000003" class="node">
<title>Node3</title>
<g id="a_Node000003"><a xlink:href="../../d6/d0c/classToolConsoleZ.html#ad0a72c0c0b5af381dd555769a3fd9526" target="_top" xlink:title=" ">
<polygon fill="white" stroke="#666666" points="181.75,-24.5 3,-24.5 3,0 181.75,0 181.75,-24.5"/>
<text text-anchor="middle" x="92.38" y="-7.2" font-family="Helvetica,sans-Serif" font-size="14.00">ToolConsoleZ\setVersion</text>
</a>
</g>
</g>
<!-- Node1&#45;&gt;Node3 -->
<g id="edge2_Node000001_Node000003" class="edge">
<title>Node1&#45;&gt;Node3</title>
<g id="a_edge2_Node000001_Node000003"><a xlink:title=" ">
<path fill="none" stroke="#63b8ff" d="M209.2,-24.32C200.26,-23.39 191.16,-22.44 182.19,-21.51"/>
<polygon fill="#63b8ff" stroke="#63b8ff" points="208.6,-27.78 218.91,-25.33 209.33,-20.82 208.6,-27.78"/>
</a>
</g>
</g>
</g>
</svg>
