<?xml version="1.0" encoding="UTF-8" standalone="no"?>
<!--
  - Copyright (c) 2021-2024 Bearsampp
  - License:  GNU General Public License version 3 or later; see LICENSE.txt
  - Author: Bear
  - Website: https://bearsampp.com
  - Github: https://github.com/Bearsampp
  -->

<!DOCTYPE svg PUBLIC "-//W3C//DTD SVG 1.1//EN"
 "http://www.w3.org/Graphics/SVG/1.1/DTD/svg11.dtd">
<!-- Generated by graphviz version 11.0.0 (20240428.1522)
 -->
<!-- Title: TplAppPhp\getSubmenuPhpSettings Pages: 1 -->
<svg width="518pt" height="51pt"
 viewBox="0.00 0.00 517.75 50.50" xmlns="http://www.w3.org/2000/svg" xmlns:xlink="http://www.w3.org/1999/xlink">
<g id="graph0" class="graph" transform="scale(1 1) rotate(0) translate(4 46.5)">
<title>TplAppPhp\getSubmenuPhpSettings</title>
<!-- Node1 -->
<g id="Node000001" class="node">
<title>Node1</title>
<g id="a_Node000001"><a xlink:title=" ">
<polygon fill="#999999" stroke="#666666" points="509.75,-24.5 259.75,-24.5 259.75,0 509.75,0 509.75,-24.5"/>
<text text-anchor="middle" x="384.75" y="-7.2" font-family="Helvetica,sans-Serif" font-size="14.00">TplAppPhp\getSubmenuPhpSettings</text>
</a>
</g>
</g>
<!-- Node1&#45;&gt;Node1 -->
<g id="edge2_Node000001_Node000001" class="edge">
<title>Node1&#45;&gt;Node1</title>
<g id="a_edge2_Node000001_Node000001"><a xlink:title=" ">
<path fill="none" stroke="#63b8ff" d="M431.22,-36.43C424.02,-40.05 408.53,-42.5 384.75,-42.5 339.98,-42.5 324.59,-33.81 338.58,-24.99"/>
<polygon fill="#63b8ff" stroke="#63b8ff" points="434.73,-36.41 430.96,-26.51 427.73,-36.6 434.73,-36.41"/>
</a>
</g>
</g>
<!-- Node2 -->
<g id="Node000002" class="node">
<title>Node2</title>
<g id="a_Node000002"><a xlink:href="../../d0/d1a/classTplAppPhp.html#a1deb734c40f32eaca5e1fc914d5f9e6e" target="_top" xlink:title=" ">
<polygon fill="white" stroke="#666666" points="223.75,-24.5 0,-24.5 0,0 223.75,0 223.75,-24.5"/>
<text text-anchor="middle" x="111.88" y="-7.2" font-family="Helvetica,sans-Serif" font-size="14.00">TplAppPhp\getMenuPhpSettings</text>
</a>
</g>
</g>
<!-- Node1&#45;&gt;Node2 -->
<g id="edge1_Node000001_Node000002" class="edge">
<title>Node1&#45;&gt;Node2</title>
<g id="a_edge1_Node000001_Node000002"><a xlink:title=" ">
<path fill="none" stroke="#63b8ff" d="M248.03,-12.25C239.97,-12.25 231.91,-12.25 223.97,-12.25"/>
<polygon fill="#63b8ff" stroke="#63b8ff" points="247.9,-15.75 257.9,-12.25 247.9,-8.75 247.9,-15.75"/>
</a>
</g>
</g>
</g>
</svg>
