<?xml version="1.0" encoding="UTF-8" standalone="no"?>
<!--
  - Copyright (c) 2021-2024 Bearsampp
  - License:  GNU General Public License version 3 or later; see LICENSE.txt
  - Author: Bear
  - Website: https://bearsampp.com
  - Github: https://github.com/Bearsampp
  -->

<!DOCTYPE svg PUBLIC "-//W3C//DTD SVG 1.1//EN"
 "http://www.w3.org/Graphics/SVG/1.1/DTD/svg11.dtd">
<!-- Generated by graphviz version 11.0.0 (20240428.1522)
 -->
<!-- Title: Registry\writeLog Pages: 1 -->
<svg width="511pt" height="161pt"
 viewBox="0.00 0.00 511.25 161.30" xmlns="http://www.w3.org/2000/svg" xmlns:xlink="http://www.w3.org/1999/xlink">
<g id="graph0" class="graph" transform="scale(1 1) rotate(0) translate(4 157.3)">
<title>Registry\writeLog</title>
<!-- Node1 -->
<g id="Node000001" class="node">
<title>Node1</title>
<g id="a_Node000001"><a xlink:title=" ">
<polygon fill="#999999" stroke="#666666" points="503.25,-113.5 377,-113.5 377,-89 503.25,-89 503.25,-113.5"/>
<text text-anchor="middle" x="440.12" y="-96.2" font-family="Helvetica,sans-Serif" font-size="14.00">Registry\writeLog</text>
</a>
</g>
</g>
<!-- Node2 -->
<g id="Node000002" class="node">
<title>Node2</title>
<g id="a_Node000002"><a xlink:href="../../db/d0d/classRegistry.html#ae63a1ff65a73f45574727e442d0afa22" target="_top" xlink:title=" ">
<polygon fill="white" stroke="#666666" points="162.25,-150.5 14.25,-150.5 14.25,-126 162.25,-126 162.25,-150.5"/>
<text text-anchor="middle" x="88.25" y="-133.2" font-family="Helvetica,sans-Serif" font-size="14.00">Registry\deleteValue</text>
</a>
</g>
</g>
<!-- Node1&#45;&gt;Node2 -->
<g id="edge1_Node000001_Node000002" class="edge">
<title>Node1&#45;&gt;Node2</title>
<g id="a_edge1_Node000001_Node000002"><a xlink:title=" ">
<path fill="none" stroke="#63b8ff" d="M407.39,-119.17C388.7,-128.68 364.24,-139.38 341,-144.25 281.84,-156.64 213.16,-153.9 162.49,-148.76"/>
<polygon fill="#63b8ff" stroke="#63b8ff" points="408.84,-122.36 416.06,-114.61 405.58,-116.16 408.84,-122.36"/>
</a>
</g>
</g>
<!-- Node3 -->
<g id="Node000003" class="node">
<title>Node3</title>
<g id="a_Node000003"><a xlink:href="../../db/d0d/classRegistry.html#a08f9ad8c7f3e0d8eb42ca68d23dc9a3c" target="_top" xlink:title=" ">
<polygon fill="white" stroke="#666666" points="331.25,-135.5 222.25,-135.5 222.25,-111 331.25,-111 331.25,-135.5"/>
<text text-anchor="middle" x="276.75" y="-118.2" font-family="Helvetica,sans-Serif" font-size="14.00">Registry\exists</text>
</a>
</g>
</g>
<!-- Node1&#45;&gt;Node3 -->
<g id="edge2_Node000001_Node000003" class="edge">
<title>Node1&#45;&gt;Node3</title>
<g id="a_edge2_Node000001_Node000003"><a xlink:title=" ">
<path fill="none" stroke="#63b8ff" d="M365.43,-111.3C354.02,-112.85 342.43,-114.43 331.58,-115.91"/>
<polygon fill="#63b8ff" stroke="#63b8ff" points="365.8,-114.78 375.23,-109.96 364.85,-107.84 365.8,-114.78"/>
</a>
</g>
</g>
<!-- Node4 -->
<g id="Node000004" class="node">
<title>Node4</title>
<g id="a_Node000004"><a xlink:href="../../db/d0d/classRegistry.html#a5936f182b778b24d86ff9f02d676d39d" target="_top" xlink:title=" ">
<polygon fill="white" stroke="#666666" points="341,-92.5 212.5,-92.5 212.5,-68 341,-68 341,-92.5"/>
<text text-anchor="middle" x="276.75" y="-75.2" font-family="Helvetica,sans-Serif" font-size="14.00">Registry\getValue</text>
</a>
</g>
</g>
<!-- Node1&#45;&gt;Node4 -->
<g id="edge3_Node000001_Node000004" class="edge">
<title>Node1&#45;&gt;Node4</title>
<g id="a_edge3_Node000001_Node000004"><a xlink:title=" ">
<path fill="none" stroke="#63b8ff" d="M365.44,-91.66C357.38,-90.61 349.23,-89.55 341.31,-88.52"/>
<polygon fill="#63b8ff" stroke="#63b8ff" points="364.86,-95.12 375.23,-92.94 365.77,-88.17 364.86,-95.12"/>
</a>
</g>
</g>
<!-- Node5 -->
<g id="Node000005" class="node">
<title>Node5</title>
<g id="a_Node000005"><a xlink:href="../../db/d0d/classRegistry.html#a190f76a5541f724f564124ea4df49313" target="_top" xlink:title=" ">
<polygon fill="white" stroke="#666666" points="340.62,-49.5 212.88,-49.5 212.88,-25 340.62,-25 340.62,-49.5"/>
<text text-anchor="middle" x="276.75" y="-32.2" font-family="Helvetica,sans-Serif" font-size="14.00">Registry\setValue</text>
</a>
</g>
</g>
<!-- Node1&#45;&gt;Node5 -->
<g id="edge4_Node000001_Node000005" class="edge">
<title>Node1&#45;&gt;Node5</title>
<g id="a_edge4_Node000001_Node000005"><a xlink:title=" ">
<path fill="none" stroke="#63b8ff" d="M400.61,-84.03C382.62,-76.18 360.84,-66.94 341,-59.25 332.87,-56.1 324.07,-52.91 315.7,-49.97"/>
<polygon fill="#63b8ff" stroke="#63b8ff" points="399.05,-87.17 409.61,-87.98 401.87,-80.76 399.05,-87.17"/>
</a>
</g>
</g>
<!-- Node5&#45;&gt;Node2 -->
<g id="edge5_Node000005_Node000002" class="edge">
<title>Node5&#45;&gt;Node2</title>
<g id="a_edge5_Node000005_Node000002"><a xlink:title=" ">
<path fill="none" stroke="#63b8ff" d="M221.11,-54.55C218.14,-56.02 215.25,-57.58 212.5,-59.25 193.69,-70.67 194.46,-80.53 176.5,-93.25 158.42,-106.06 136.21,-117.46 118.71,-125.59"/>
<polygon fill="#63b8ff" stroke="#63b8ff" points="222.35,-57.83 230.06,-50.57 219.5,-51.44 222.35,-57.83"/>
</a>
</g>
</g>
<!-- Node6 -->
<g id="Node000006" class="node">
<title>Node6</title>
<g id="a_Node000006"><a xlink:href="../../db/d0d/classRegistry.html#aa22ce26a46610799e48d929d9a9afcfd" target="_top" xlink:title=" ">
<polygon fill="white" stroke="#666666" points="176.5,-83.75 0,-83.75 0,-42.75 176.5,-42.75 176.5,-83.75"/>
<text text-anchor="start" x="8" y="-66.45" font-family="Helvetica,sans-Serif" font-size="14.00">Registry\setExpandString</text>
<text text-anchor="middle" x="88.25" y="-49.95" font-family="Helvetica,sans-Serif" font-size="14.00">Value</text>
</a>
</g>
</g>
<!-- Node5&#45;&gt;Node6 -->
<g id="edge6_Node000005_Node000006" class="edge">
<title>Node5&#45;&gt;Node6</title>
<g id="a_edge6_Node000005_Node000006"><a xlink:title=" ">
<path fill="none" stroke="#63b8ff" d="M201.36,-47.62C193.29,-48.75 185.02,-49.9 176.81,-51.04"/>
<polygon fill="#63b8ff" stroke="#63b8ff" points="201.69,-51.11 211.11,-46.26 200.72,-44.18 201.69,-51.11"/>
</a>
</g>
</g>
<!-- Node7 -->
<g id="Node000007" class="node">
<title>Node7</title>
<g id="a_Node000007"><a xlink:href="../../db/d0d/classRegistry.html#a598ce170cfd231fec55bb30d4cbd8c9b" target="_top" xlink:title=" ">
<polygon fill="white" stroke="#666666" points="170.5,-24.5 6,-24.5 6,0 170.5,0 170.5,-24.5"/>
<text text-anchor="middle" x="88.25" y="-7.2" font-family="Helvetica,sans-Serif" font-size="14.00">Registry\setStringValue</text>
</a>
</g>
</g>
<!-- Node5&#45;&gt;Node7 -->
<g id="edge7_Node000005_Node000007" class="edge">
<title>Node5&#45;&gt;Node7</title>
<g id="a_edge7_Node000005_Node000007"><a xlink:title=" ">
<path fill="none" stroke="#63b8ff" d="M201.42,-27.29C191.37,-25.94 181.01,-24.55 170.84,-23.19"/>
<polygon fill="#63b8ff" stroke="#63b8ff" points="200.73,-30.73 211.11,-28.59 201.66,-23.79 200.73,-30.73"/>
</a>
</g>
</g>
</g>
</svg>
