<?xml version="1.0" encoding="UTF-8" standalone="no"?>
<!--
  - Copyright (c) 2021-2024 Bearsampp
  - License:  GNU General Public License version 3 or later; see LICENSE.txt
  - Author: Bear
  - Website: https://bearsampp.com
  - Github: https://github.com/Bearsampp
  -->

<!DOCTYPE svg PUBLIC "-//W3C//DTD SVG 1.1//EN"
 "http://www.w3.org/Graphics/SVG/1.1/DTD/svg11.dtd">
<!-- Generated by graphviz version 11.0.0 (20240428.1522)
 -->
<!-- Title: Module Pages: 1 -->
<svg width="231pt" height="1065pt"
 viewBox="0.00 0.00 231.25 1064.50" xmlns="http://www.w3.org/2000/svg" xmlns:xlink="http://www.w3.org/1999/xlink">
<g id="graph0" class="graph" transform="scale(1 1) rotate(0) translate(4 1060.5)">
<title>Module</title>
<!-- Node1 -->
<g id="Node000001" class="node">
<title>Node1</title>
<g id="a_Node000001"><a xlink:title=" ">
<polygon fill="#999999" stroke="#666666" points="62.5,-540.5 0,-540.5 0,-516 62.5,-516 62.5,-540.5"/>
<text text-anchor="middle" x="31.25" y="-523.2" font-family="Helvetica,sans-Serif" font-size="14.00">Module</text>
</a>
</g>
</g>
<!-- Node2 -->
<g id="Node000002" class="node">
<title>Node2</title>
<g id="a_Node000002"><a xlink:href="../../df/d54/classAppAdminer.html" target="_top" xlink:title=" ">
<polygon fill="white" stroke="#666666" points="208.62,-1056.5 113.12,-1056.5 113.12,-1032 208.62,-1032 208.62,-1056.5"/>
<text text-anchor="middle" x="160.88" y="-1039.2" font-family="Helvetica,sans-Serif" font-size="14.00">AppAdminer</text>
</a>
</g>
</g>
<!-- Node1&#45;&gt;Node2 -->
<g id="edge1_Node000001_Node000002" class="edge">
<title>Node1&#45;&gt;Node2</title>
<g id="a_edge1_Node000001_Node000002"><a xlink:title=" ">
<path fill="none" stroke="#63b8ff" d="M32.27,-551.92C32.81,-640.16 38.99,-948.66 98.5,-1022.25 102.34,-1027 107.3,-1030.73 112.72,-1033.65"/>
<polygon fill="#63b8ff" stroke="#63b8ff" points="35.77,-552.05 32.23,-542.07 28.77,-552.08 35.77,-552.05"/>
</a>
</g>
</g>
<!-- Node3 -->
<g id="Node000003" class="node">
<title>Node3</title>
<g id="a_Node000003"><a xlink:href="../../dd/dec/classAppPhpmyadmin.html" target="_top" xlink:title=" ">
<polygon fill="white" stroke="#666666" points="223.25,-1013.5 98.5,-1013.5 98.5,-989 223.25,-989 223.25,-1013.5"/>
<text text-anchor="middle" x="160.88" y="-996.2" font-family="Helvetica,sans-Serif" font-size="14.00">AppPhpmyadmin</text>
</a>
</g>
</g>
<!-- Node1&#45;&gt;Node3 -->
<g id="edge2_Node000001_Node000003" class="edge">
<title>Node1&#45;&gt;Node3</title>
<g id="a_edge2_Node000001_Node000003"><a xlink:title=" ">
<path fill="none" stroke="#63b8ff" d="M32.61,-552.25C34.35,-635.87 44.18,-912.93 98.5,-979.25 101.51,-982.93 105.19,-985.99 109.23,-988.54"/>
<polygon fill="#63b8ff" stroke="#63b8ff" points="36.11,-552.2 32.43,-542.26 29.12,-552.33 36.11,-552.2"/>
</a>
</g>
</g>
<!-- Node4 -->
<g id="Node000004" class="node">
<title>Node4</title>
<g id="a_Node000004"><a xlink:href="../../dc/d53/classAppPhppgadmin.html" target="_top" xlink:title=" ">
<polygon fill="white" stroke="#666666" points="222.12,-970.5 99.62,-970.5 99.62,-946 222.12,-946 222.12,-970.5"/>
<text text-anchor="middle" x="160.88" y="-953.2" font-family="Helvetica,sans-Serif" font-size="14.00">AppPhppgadmin</text>
</a>
</g>
</g>
<!-- Node1&#45;&gt;Node4 -->
<g id="edge3_Node000001_Node000004" class="edge">
<title>Node1&#45;&gt;Node4</title>
<g id="a_edge3_Node000001_Node000004"><a xlink:title=" ">
<path fill="none" stroke="#63b8ff" d="M33.03,-552.21C36.03,-630.5 49.27,-877.06 98.5,-936.25 101.61,-939.99 105.41,-943.1 109.58,-945.68"/>
<polygon fill="#63b8ff" stroke="#63b8ff" points="36.53,-552.15 32.67,-542.28 29.53,-552.4 36.53,-552.15"/>
</a>
</g>
</g>
<!-- Node5 -->
<g id="Node000005" class="node">
<title>Node5</title>
<g id="a_Node000005"><a xlink:href="../../dc/df4/classAppWebgrind.html" target="_top" xlink:title=" ">
<polygon fill="white" stroke="#666666" points="213.12,-927.5 108.62,-927.5 108.62,-903 213.12,-903 213.12,-927.5"/>
<text text-anchor="middle" x="160.88" y="-910.2" font-family="Helvetica,sans-Serif" font-size="14.00">AppWebgrind</text>
</a>
</g>
</g>
<!-- Node1&#45;&gt;Node5 -->
<g id="edge4_Node000001_Node000005" class="edge">
<title>Node1&#45;&gt;Node5</title>
<g id="a_edge4_Node000001_Node000005"><a xlink:title=" ">
<path fill="none" stroke="#63b8ff" d="M33.52,-552.05C37.86,-624.58 54.31,-841.12 98.5,-893.25 101.65,-896.96 105.47,-900.05 109.65,-902.61"/>
<polygon fill="#63b8ff" stroke="#63b8ff" points="37.04,-552.26 32.98,-542.48 30.05,-552.66 37.04,-552.26"/>
</a>
</g>
</g>
<!-- Node6 -->
<g id="Node000006" class="node">
<title>Node6</title>
<g id="a_Node000006"><a xlink:href="../../d9/d6c/classBinApache.html" target="_top" xlink:title=" ">
<polygon fill="white" stroke="#666666" points="203.38,-884.5 118.38,-884.5 118.38,-860 203.38,-860 203.38,-884.5"/>
<text text-anchor="middle" x="160.88" y="-867.2" font-family="Helvetica,sans-Serif" font-size="14.00">BinApache</text>
</a>
</g>
</g>
<!-- Node1&#45;&gt;Node6 -->
<g id="edge5_Node000001_Node000006" class="edge">
<title>Node1&#45;&gt;Node6</title>
<g id="a_edge5_Node000001_Node000006"><a xlink:title=" ">
<path fill="none" stroke="#63b8ff" d="M34.17,-552.24C39.98,-619.04 59.4,-805.2 98.5,-850.25 103.69,-856.23 110.64,-860.59 117.98,-863.76"/>
<polygon fill="#63b8ff" stroke="#63b8ff" points="37.67,-552.06 33.35,-542.39 30.7,-552.65 37.67,-552.06"/>
</a>
</g>
</g>
<!-- Node7 -->
<g id="Node000007" class="node">
<title>Node7</title>
<g id="a_Node000007"><a xlink:href="../../da/d23/classBinFilezilla.html" target="_top" xlink:title=" ">
<polygon fill="white" stroke="#666666" points="202.25,-841.5 119.5,-841.5 119.5,-817 202.25,-817 202.25,-841.5"/>
<text text-anchor="middle" x="160.88" y="-824.2" font-family="Helvetica,sans-Serif" font-size="14.00">BinFilezilla</text>
</a>
</g>
</g>
<!-- Node1&#45;&gt;Node7 -->
<g id="edge6_Node000001_Node000007" class="edge">
<title>Node1&#45;&gt;Node7</title>
<g id="a_edge6_Node000001_Node000007"><a xlink:title=" ">
<path fill="none" stroke="#63b8ff" d="M35,-552.18C42.38,-612.59 64.41,-769.15 98.5,-807.25 104.01,-813.41 111.37,-817.84 119.07,-821.04"/>
<polygon fill="#63b8ff" stroke="#63b8ff" points="38.48,-551.85 33.82,-542.33 31.53,-552.68 38.48,-551.85"/>
</a>
</g>
</g>
<!-- Node8 -->
<g id="Node000008" class="node">
<title>Node8</title>
<g id="a_Node000008"><a xlink:href="../../db/df2/classBinMailhog.html" target="_top" xlink:title=" ">
<polygon fill="white" stroke="#666666" points="203.38,-798.5 118.38,-798.5 118.38,-774 203.38,-774 203.38,-798.5"/>
<text text-anchor="middle" x="160.88" y="-781.2" font-family="Helvetica,sans-Serif" font-size="14.00">BinMailhog</text>
</a>
</g>
</g>
<!-- Node1&#45;&gt;Node8 -->
<g id="edge7_Node000001_Node000008" class="edge">
<title>Node1&#45;&gt;Node8</title>
<g id="a_edge7_Node000001_Node000008"><a xlink:title=" ">
<path fill="none" stroke="#63b8ff" d="M32.12,-552.3C33.17,-599.25 42.16,-703.79 98.5,-764.25 103.82,-769.96 110.74,-774.2 118,-777.33"/>
<polygon fill="#63b8ff" stroke="#63b8ff" points="35.62,-552.39 32.01,-542.43 28.62,-552.47 35.62,-552.39"/>
</a>
</g>
</g>
<!-- Node9 -->
<g id="Node000009" class="node">
<title>Node9</title>
<g id="a_Node000009"><a xlink:href="../../d9/ddd/classBinMailpit.html" target="_top" xlink:title=" ">
<polygon fill="white" stroke="#666666" points="198.88,-755.5 122.88,-755.5 122.88,-731 198.88,-731 198.88,-755.5"/>
<text text-anchor="middle" x="160.88" y="-738.2" font-family="Helvetica,sans-Serif" font-size="14.00">BinMailpit</text>
</a>
</g>
</g>
<!-- Node1&#45;&gt;Node9 -->
<g id="edge8_Node000001_Node000009" class="edge">
<title>Node1&#45;&gt;Node9</title>
<g id="a_edge8_Node000001_Node000009"><a xlink:title=" ">
<path fill="none" stroke="#63b8ff" d="M33.88,-551.77C37.91,-591.89 51.7,-673.82 98.5,-721.25 105.02,-727.86 113.66,-732.49 122.39,-735.73"/>
<polygon fill="#63b8ff" stroke="#63b8ff" points="37.39,-551.7 33.04,-542.04 30.42,-552.3 37.39,-551.7"/>
</a>
</g>
</g>
<!-- Node10 -->
<g id="Node000010" class="node">
<title>Node10</title>
<g id="a_Node000010"><a xlink:href="../../d4/d8f/classBinMariadb.html" target="_top" xlink:title=" ">
<polygon fill="white" stroke="#666666" points="204.12,-712.5 117.62,-712.5 117.62,-688 204.12,-688 204.12,-712.5"/>
<text text-anchor="middle" x="160.88" y="-695.2" font-family="Helvetica,sans-Serif" font-size="14.00">BinMariadb</text>
</a>
</g>
</g>
<!-- Node1&#45;&gt;Node10 -->
<g id="edge9_Node000001_Node000010" class="edge">
<title>Node1&#45;&gt;Node10</title>
<g id="a_edge9_Node000001_Node000010"><a xlink:title=" ">
<path fill="none" stroke="#63b8ff" d="M36.59,-551.8C43.82,-584.54 61.36,-643.68 98.5,-678.25 103.89,-683.26 110.49,-687.15 117.35,-690.16"/>
<polygon fill="#63b8ff" stroke="#63b8ff" points="40.05,-551.22 34.61,-542.13 33.19,-552.63 40.05,-551.22"/>
</a>
</g>
</g>
<!-- Node11 -->
<g id="Node000011" class="node">
<title>Node11</title>
<g id="a_Node000011"><a xlink:href="../../da/d10/classBinMemcached.html" target="_top" xlink:title=" ">
<polygon fill="white" stroke="#666666" points="218,-669.5 103.75,-669.5 103.75,-645 218,-645 218,-669.5"/>
<text text-anchor="middle" x="160.88" y="-652.2" font-family="Helvetica,sans-Serif" font-size="14.00">BinMemcached</text>
</a>
</g>
</g>
<!-- Node1&#45;&gt;Node11 -->
<g id="edge10_Node000001_Node000011" class="edge">
<title>Node1&#45;&gt;Node11</title>
<g id="a_edge10_Node000001_Node000011"><a xlink:title=" ">
<path fill="none" stroke="#63b8ff" d="M41.11,-551.36C51.46,-575.47 70.77,-612.81 98.5,-635.25 102.99,-638.88 108.12,-641.94 113.47,-644.51"/>
<polygon fill="#63b8ff" stroke="#63b8ff" points="44.36,-550.04 37.33,-542.11 37.88,-552.69 44.36,-550.04"/>
</a>
</g>
</g>
<!-- Node12 -->
<g id="Node000012" class="node">
<title>Node12</title>
<g id="a_Node000012"><a xlink:href="../../d6/d88/classBinMysql.html" target="_top" xlink:title=" ">
<polygon fill="white" stroke="#666666" points="197.38,-626.5 124.38,-626.5 124.38,-602 197.38,-602 197.38,-626.5"/>
<text text-anchor="middle" x="160.88" y="-609.2" font-family="Helvetica,sans-Serif" font-size="14.00">BinMysql</text>
</a>
</g>
</g>
<!-- Node1&#45;&gt;Node12 -->
<g id="edge11_Node000001_Node000012" class="edge">
<title>Node1&#45;&gt;Node12</title>
<g id="a_edge11_Node000001_Node000012"><a xlink:title=" ">
<path fill="none" stroke="#63b8ff" d="M49.83,-549.39C62.23,-563.17 79.89,-580.68 98.5,-592.25 106.29,-597.09 115.29,-601.07 123.96,-604.25"/>
<polygon fill="#63b8ff" stroke="#63b8ff" points="52.69,-547.34 43.48,-542.11 47.41,-551.94 52.69,-547.34"/>
</a>
</g>
</g>
<!-- Node13 -->
<g id="Node000013" class="node">
<title>Node13</title>
<g id="a_Node000013"><a xlink:href="../../d8/d9c/classBinNodejs.html" target="_top" xlink:title=" ">
<polygon fill="white" stroke="#666666" points="201.5,-583.5 120.25,-583.5 120.25,-559 201.5,-559 201.5,-583.5"/>
<text text-anchor="middle" x="160.88" y="-566.2" font-family="Helvetica,sans-Serif" font-size="14.00">BinNodejs</text>
</a>
</g>
</g>
<!-- Node1&#45;&gt;Node13 -->
<g id="edge12_Node000001_Node000013" class="edge">
<title>Node1&#45;&gt;Node13</title>
<g id="a_edge12_Node000001_Node000013"><a xlink:title=" ">
<path fill="none" stroke="#63b8ff" d="M73.31,-542.08C89.03,-547.38 106.87,-553.39 122.26,-558.58"/>
<polygon fill="#63b8ff" stroke="#63b8ff" points="74.85,-538.91 64.25,-539.03 72.61,-545.54 74.85,-538.91"/>
</a>
</g>
</g>
<!-- Node14 -->
<g id="Node000014" class="node">
<title>Node14</title>
<g id="a_Node000014"><a xlink:href="../../dc/db3/classBinPhp.html" target="_top" xlink:title=" ">
<polygon fill="white" stroke="#666666" points="191.75,-540.5 130,-540.5 130,-516 191.75,-516 191.75,-540.5"/>
<text text-anchor="middle" x="160.88" y="-523.2" font-family="Helvetica,sans-Serif" font-size="14.00">BinPhp</text>
</a>
</g>
</g>
<!-- Node1&#45;&gt;Node14 -->
<g id="edge13_Node000001_Node000014" class="edge">
<title>Node1&#45;&gt;Node14</title>
<g id="a_edge13_Node000001_Node000014"><a xlink:title=" ">
<path fill="none" stroke="#63b8ff" d="M74.24,-528.25C92.3,-528.25 113.02,-528.25 129.56,-528.25"/>
<polygon fill="#63b8ff" stroke="#63b8ff" points="74.33,-524.75 64.33,-528.25 74.33,-531.75 74.33,-524.75"/>
</a>
</g>
</g>
<!-- Node15 -->
<g id="Node000015" class="node">
<title>Node15</title>
<g id="a_Node000015"><a xlink:href="../../dc/db9/classBinPostgresql.html" target="_top" xlink:title=" ">
<polygon fill="white" stroke="#666666" points="213.5,-497.5 108.25,-497.5 108.25,-473 213.5,-473 213.5,-497.5"/>
<text text-anchor="middle" x="160.88" y="-480.2" font-family="Helvetica,sans-Serif" font-size="14.00">BinPostgresql</text>
</a>
</g>
</g>
<!-- Node1&#45;&gt;Node15 -->
<g id="edge14_Node000001_Node000015" class="edge">
<title>Node1&#45;&gt;Node15</title>
<g id="a_edge14_Node000001_Node000015"><a xlink:title=" ">
<path fill="none" stroke="#63b8ff" d="M73.31,-514.42C89.03,-509.12 106.87,-503.11 122.26,-497.92"/>
<polygon fill="#63b8ff" stroke="#63b8ff" points="72.61,-510.96 64.25,-517.47 74.85,-517.59 72.61,-510.96"/>
</a>
</g>
</g>
<!-- Node16 -->
<g id="Node000016" class="node">
<title>Node16</title>
<g id="a_Node000016"><a xlink:href="../../d8/ddb/classBinXlight.html" target="_top" xlink:title=" ">
<polygon fill="white" stroke="#666666" points="196.62,-454.5 125.12,-454.5 125.12,-430 196.62,-430 196.62,-454.5"/>
<text text-anchor="middle" x="160.88" y="-437.2" font-family="Helvetica,sans-Serif" font-size="14.00">BinXlight</text>
</a>
</g>
</g>
<!-- Node1&#45;&gt;Node16 -->
<g id="edge15_Node000001_Node000016" class="edge">
<title>Node1&#45;&gt;Node16</title>
<g id="a_edge15_Node000001_Node000016"><a xlink:title=" ">
<path fill="none" stroke="#63b8ff" d="M49.83,-507.11C62.23,-493.33 79.89,-475.82 98.5,-464.25 106.58,-459.23 115.96,-455.14 124.92,-451.9"/>
<polygon fill="#63b8ff" stroke="#63b8ff" points="47.41,-504.56 43.48,-514.39 52.69,-509.16 47.41,-504.56"/>
</a>
</g>
</g>
<!-- Node17 -->
<g id="Node000017" class="node">
<title>Node17</title>
<g id="a_Node000017"><a xlink:href="../../d7/d6f/classToolComposer.html" target="_top" xlink:title=" ">
<polygon fill="white" stroke="#666666" points="216.88,-411.5 104.88,-411.5 104.88,-387 216.88,-387 216.88,-411.5"/>
<text text-anchor="middle" x="160.88" y="-394.2" font-family="Helvetica,sans-Serif" font-size="14.00">ToolComposer</text>
</a>
</g>
</g>
<!-- Node1&#45;&gt;Node17 -->
<g id="edge16_Node000001_Node000017" class="edge">
<title>Node1&#45;&gt;Node17</title>
<g id="a_edge16_Node000001_Node000017"><a xlink:title=" ">
<path fill="none" stroke="#63b8ff" d="M41.11,-505.14C51.46,-481.03 70.77,-443.69 98.5,-421.25 102.99,-417.62 108.12,-414.56 113.47,-411.99"/>
<polygon fill="#63b8ff" stroke="#63b8ff" points="37.88,-503.81 37.33,-514.39 44.36,-506.46 37.88,-503.81"/>
</a>
</g>
</g>
<!-- Node18 -->
<g id="Node000018" class="node">
<title>Node18</title>
<g id="a_Node000018"><a xlink:href="../../d6/d0c/classToolConsoleZ.html" target="_top" xlink:title=" ">
<polygon fill="white" stroke="#666666" points="214.25,-368.5 107.5,-368.5 107.5,-344 214.25,-344 214.25,-368.5"/>
<text text-anchor="middle" x="160.88" y="-351.2" font-family="Helvetica,sans-Serif" font-size="14.00">ToolConsoleZ</text>
</a>
</g>
</g>
<!-- Node1&#45;&gt;Node18 -->
<g id="edge17_Node000001_Node000018" class="edge">
<title>Node1&#45;&gt;Node18</title>
<g id="a_edge17_Node000001_Node000018"><a xlink:title=" ">
<path fill="none" stroke="#63b8ff" d="M36.59,-504.7C43.82,-471.96 61.36,-412.82 98.5,-378.25 102.48,-374.55 107.12,-371.46 112.04,-368.89"/>
<polygon fill="#63b8ff" stroke="#63b8ff" points="33.19,-503.87 34.61,-514.37 40.05,-505.28 33.19,-503.87"/>
</a>
</g>
</g>
<!-- Node19 -->
<g id="Node000019" class="node">
<title>Node19</title>
<g id="a_Node000019"><a xlink:href="../../d3/df9/classToolGhostscript.html" target="_top" xlink:title=" ">
<polygon fill="white" stroke="#666666" points="219.5,-325.5 102.25,-325.5 102.25,-301 219.5,-301 219.5,-325.5"/>
<text text-anchor="middle" x="160.88" y="-308.2" font-family="Helvetica,sans-Serif" font-size="14.00">ToolGhostscript</text>
</a>
</g>
</g>
<!-- Node1&#45;&gt;Node19 -->
<g id="edge18_Node000001_Node000019" class="edge">
<title>Node1&#45;&gt;Node19</title>
<g id="a_edge18_Node000001_Node000019"><a xlink:title=" ">
<path fill="none" stroke="#63b8ff" d="M33.88,-504.73C37.91,-464.61 51.7,-382.68 98.5,-335.25 102.16,-331.54 106.48,-328.46 111.11,-325.89"/>
<polygon fill="#63b8ff" stroke="#63b8ff" points="30.42,-504.2 33.04,-514.46 37.39,-504.8 30.42,-504.2"/>
</a>
</g>
</g>
<!-- Node20 -->
<g id="Node000020" class="node">
<title>Node20</title>
<g id="a_Node000020"><a xlink:href="../../d3/dc0/classToolGit.html" target="_top" xlink:title=" ">
<polygon fill="white" stroke="#666666" points="192.12,-282.5 129.62,-282.5 129.62,-258 192.12,-258 192.12,-282.5"/>
<text text-anchor="middle" x="160.88" y="-265.2" font-family="Helvetica,sans-Serif" font-size="14.00">ToolGit</text>
</a>
</g>
</g>
<!-- Node1&#45;&gt;Node20 -->
<g id="edge19_Node000001_Node000020" class="edge">
<title>Node1&#45;&gt;Node20</title>
<g id="a_edge19_Node000001_Node000020"><a xlink:title=" ">
<path fill="none" stroke="#63b8ff" d="M32.12,-504.2C33.17,-457.25 42.16,-352.71 98.5,-292.25 106.53,-283.64 118.16,-278.39 129.15,-275.2"/>
<polygon fill="#63b8ff" stroke="#63b8ff" points="28.62,-504.03 32.01,-514.07 35.62,-504.11 28.62,-504.03"/>
</a>
</g>
</g>
<!-- Node21 -->
<g id="Node000021" class="node">
<title>Node21</title>
<g id="a_Node000021"><a xlink:href="../../dc/d8f/classToolNgrok.html" target="_top" xlink:title=" ">
<polygon fill="white" stroke="#666666" points="201.88,-239.5 119.88,-239.5 119.88,-215 201.88,-215 201.88,-239.5"/>
<text text-anchor="middle" x="160.88" y="-222.2" font-family="Helvetica,sans-Serif" font-size="14.00">ToolNgrok</text>
</a>
</g>
</g>
<!-- Node1&#45;&gt;Node21 -->
<g id="edge20_Node000001_Node000021" class="edge">
<title>Node1&#45;&gt;Node21</title>
<g id="a_edge20_Node000001_Node000021"><a xlink:title=" ">
<path fill="none" stroke="#63b8ff" d="M35,-504.32C42.38,-443.91 64.41,-287.35 98.5,-249.25 104.09,-243.01 111.57,-238.54 119.39,-235.33"/>
<polygon fill="#63b8ff" stroke="#63b8ff" points="31.53,-503.82 33.82,-514.17 38.48,-504.65 31.53,-503.82"/>
</a>
</g>
</g>
<!-- Node22 -->
<g id="Node000022" class="node">
<title>Node22</title>
<g id="a_Node000022"><a xlink:href="../../d0/dd5/classToolPerl.html" target="_top" xlink:title=" ">
<polygon fill="white" stroke="#666666" points="195.88,-196.5 125.88,-196.5 125.88,-172 195.88,-172 195.88,-196.5"/>
<text text-anchor="middle" x="160.88" y="-179.2" font-family="Helvetica,sans-Serif" font-size="14.00">ToolPerl</text>
</a>
</g>
</g>
<!-- Node1&#45;&gt;Node22 -->
<g id="edge21_Node000001_Node000022" class="edge">
<title>Node1&#45;&gt;Node22</title>
<g id="a_edge21_Node000001_Node000022"><a xlink:title=" ">
<path fill="none" stroke="#63b8ff" d="M34.17,-504.26C39.98,-437.46 59.4,-251.3 98.5,-206.25 105.47,-198.21 115.6,-193.11 125.63,-189.88"/>
<polygon fill="#63b8ff" stroke="#63b8ff" points="30.7,-503.85 33.35,-514.11 37.67,-504.44 30.7,-503.85"/>
</a>
</g>
</g>
<!-- Node23 -->
<g id="Node000023" class="node">
<title>Node23</title>
<g id="a_Node000023"><a xlink:href="../../d4/d34/classToolPython.html" target="_top" xlink:title=" ">
<polygon fill="white" stroke="#666666" points="204.88,-153.5 116.88,-153.5 116.88,-129 204.88,-129 204.88,-153.5"/>
<text text-anchor="middle" x="160.88" y="-136.2" font-family="Helvetica,sans-Serif" font-size="14.00">ToolPython</text>
</a>
</g>
</g>
<!-- Node1&#45;&gt;Node23 -->
<g id="edge22_Node000001_Node000023" class="edge">
<title>Node1&#45;&gt;Node23</title>
<g id="a_edge22_Node000001_Node000023"><a xlink:title=" ">
<path fill="none" stroke="#63b8ff" d="M33.52,-504.45C37.86,-431.92 54.31,-215.38 98.5,-163.25 103.33,-157.55 109.75,-153.33 116.62,-150.2"/>
<polygon fill="#63b8ff" stroke="#63b8ff" points="30.05,-503.84 32.98,-514.02 37.04,-504.24 30.05,-503.84"/>
</a>
</g>
</g>
<!-- Node24 -->
<g id="Node000024" class="node">
<title>Node24</title>
<g id="a_Node000024"><a xlink:href="../../de/d39/classToolRuby.html" target="_top" xlink:title=" ">
<polygon fill="white" stroke="#666666" points="199.62,-110.5 122.12,-110.5 122.12,-86 199.62,-86 199.62,-110.5"/>
<text text-anchor="middle" x="160.88" y="-93.2" font-family="Helvetica,sans-Serif" font-size="14.00">ToolRuby</text>
</a>
</g>
</g>
<!-- Node1&#45;&gt;Node24 -->
<g id="edge23_Node000001_Node000024" class="edge">
<title>Node1&#45;&gt;Node24</title>
<g id="a_edge23_Node000001_Node000024"><a xlink:title=" ">
<path fill="none" stroke="#63b8ff" d="M33.03,-504.29C36.03,-426 49.27,-179.44 98.5,-120.25 104.51,-113.03 113.07,-108.17 121.9,-104.92"/>
<polygon fill="#63b8ff" stroke="#63b8ff" points="29.53,-504.1 32.67,-514.22 36.53,-504.35 29.53,-504.1"/>
</a>
</g>
</g>
<!-- Node25 -->
<g id="Node000025" class="node">
<title>Node25</title>
<g id="a_Node000025"><a xlink:href="../../df/d1b/classToolXdc.html" target="_top" xlink:title=" ">
<polygon fill="white" stroke="#666666" points="195.88,-67.5 125.88,-67.5 125.88,-43 195.88,-43 195.88,-67.5"/>
<text text-anchor="middle" x="160.88" y="-50.2" font-family="Helvetica,sans-Serif" font-size="14.00">ToolXdc</text>
</a>
</g>
</g>
<!-- Node1&#45;&gt;Node25 -->
<g id="edge24_Node000001_Node000025" class="edge">
<title>Node1&#45;&gt;Node25</title>
<g id="a_edge24_Node000001_Node000025"><a xlink:title=" ">
<path fill="none" stroke="#63b8ff" d="M32.61,-504.25C34.35,-420.63 44.18,-143.57 98.5,-77.25 105.31,-68.93 115.52,-63.76 125.67,-60.54"/>
<polygon fill="#63b8ff" stroke="#63b8ff" points="29.12,-504.17 32.43,-514.24 36.11,-504.3 29.12,-504.17"/>
</a>
</g>
</g>
<!-- Node26 -->
<g id="Node000026" class="node">
<title>Node26</title>
<g id="a_Node000026"><a xlink:href="../../d7/d8e/classToolYarn.html" target="_top" xlink:title=" ">
<polygon fill="white" stroke="#666666" points="197.38,-24.5 124.38,-24.5 124.38,0 197.38,0 197.38,-24.5"/>
<text text-anchor="middle" x="160.88" y="-7.2" font-family="Helvetica,sans-Serif" font-size="14.00">ToolYarn</text>
</a>
</g>
</g>
<!-- Node1&#45;&gt;Node26 -->
<g id="edge25_Node000001_Node000026" class="edge">
<title>Node1&#45;&gt;Node26</title>
<g id="a_edge25_Node000001_Node000026"><a xlink:title=" ">
<path fill="none" stroke="#63b8ff" d="M32.27,-504.58C32.81,-416.34 38.99,-107.84 98.5,-34.25 104.91,-26.33 114.39,-21.26 124,-18.01"/>
<polygon fill="#63b8ff" stroke="#63b8ff" points="28.77,-504.42 32.23,-514.43 35.77,-504.45 28.77,-504.42"/>
</a>
</g>
</g>
</g>
</svg>
