<?xml version="1.0" encoding="UTF-8" standalone="no"?>
<!--
  - Copyright (c) 2021-2024 Bearsampp
  - License:  GNU General Public License version 3 or later; see LICENSE.txt
  - Author: Bear
  - Website: https://bearsampp.com
  - Github: https://github.com/Bearsampp
  -->

<!DOCTYPE svg PUBLIC "-//W3C//DTD SVG 1.1//EN"
 "http://www.w3.org/Graphics/SVG/1.1/DTD/svg11.dtd">
<!-- Generated by graphviz version 11.0.0 (20240428.1522)
 -->
<!-- Title: BinApache\getModulesPath Pages: 1 -->
<svg width="631pt" height="49pt"
 viewBox="0.00 0.00 631.25 49.00" xmlns="http://www.w3.org/2000/svg" xmlns:xlink="http://www.w3.org/1999/xlink">
<g id="graph0" class="graph" transform="scale(1 1) rotate(0) translate(4 45)">
<title>BinApache\getModulesPath</title>
<!-- Node1 -->
<g id="Node000001" class="node">
<title>Node1</title>
<g id="a_Node000001"><a xlink:title=" ">
<polygon fill="#999999" stroke="#666666" points="623.25,-32.75 431.75,-32.75 431.75,-8.25 623.25,-8.25 623.25,-32.75"/>
<text text-anchor="middle" x="527.5" y="-15.45" font-family="Helvetica,sans-Serif" font-size="14.00">BinApache\getModulesPath</text>
</a>
</g>
</g>
<!-- Node2 -->
<g id="Node000002" class="node">
<title>Node2</title>
<g id="a_Node000002"><a xlink:href="../../d9/d6c/classBinApache.html#a5908c3b22e7c8a6d753b42fa39dbc91a" target="_top" xlink:title=" ">
<polygon fill="white" stroke="#666666" points="395.75,-41 199,-41 199,0 395.75,0 395.75,-41"/>
<text text-anchor="start" x="207" y="-23.7" font-family="Helvetica,sans-Serif" font-size="14.00">BinApache\getModulesFrom</text>
<text text-anchor="middle" x="297.38" y="-7.2" font-family="Helvetica,sans-Serif" font-size="14.00">Folder</text>
</a>
</g>
</g>
<!-- Node1&#45;&gt;Node2 -->
<g id="edge1_Node000001_Node000002" class="edge">
<title>Node1&#45;&gt;Node2</title>
<g id="a_edge1_Node000001_Node000002"><a xlink:title=" ">
<path fill="none" stroke="#63b8ff" d="M420.06,-20.5C412,-20.5 403.89,-20.5 395.89,-20.5"/>
<polygon fill="#63b8ff" stroke="#63b8ff" points="419.89,-24 429.89,-20.5 419.89,-17 419.89,-24"/>
</a>
</g>
</g>
<!-- Node3 -->
<g id="Node000003" class="node">
<title>Node3</title>
<g id="a_Node000003"><a xlink:href="../../d9/d6c/classBinApache.html#a9d1ca7f955cf69bd03aad20b85df6940" target="_top" xlink:title=" ">
<polygon fill="white" stroke="#666666" points="163,-32.75 0,-32.75 0,-8.25 163,-8.25 163,-32.75"/>
<text text-anchor="middle" x="81.5" y="-15.45" font-family="Helvetica,sans-Serif" font-size="14.00">BinApache\getModules</text>
</a>
</g>
</g>
<!-- Node2&#45;&gt;Node3 -->
<g id="edge2_Node000002_Node000003" class="edge">
<title>Node2&#45;&gt;Node3</title>
<g id="a_edge2_Node000002_Node000003"><a xlink:title=" ">
<path fill="none" stroke="#63b8ff" d="M187.18,-20.5C179.15,-20.5 171.15,-20.5 163.34,-20.5"/>
<polygon fill="#63b8ff" stroke="#63b8ff" points="187,-24 197,-20.5 187,-17 187,-24"/>
</a>
</g>
</g>
</g>
</svg>
