<?xml version="1.0" encoding="UTF-8" standalone="no"?>
<!--
  - Copyright (c) 2021-2024 Bearsampp
  - License:  GNU General Public License version 3 or later; see LICENSE.txt
  - Author: Bear
  - Website: https://bearsampp.com
  - Github: https://github.com/Bearsampp
  -->

<!DOCTYPE svg PUBLIC "-//W3C//DTD SVG 1.1//EN"
 "http://www.w3.org/Graphics/SVG/1.1/DTD/svg11.dtd">
<!-- Generated by graphviz version 11.0.0 (20240428.1522)
 -->
<!-- Title: BinApache\getVhosts Pages: 1 -->
<svg width="588pt" height="119pt"
 viewBox="0.00 0.00 587.75 118.50" xmlns="http://www.w3.org/2000/svg" xmlns:xlink="http://www.w3.org/1999/xlink">
<g id="graph0" class="graph" transform="scale(1 1) rotate(0) translate(4 114.5)">
<title>BinApache\getVhosts</title>
<!-- Node1 -->
<g id="Node000001" class="node">
<title>Node1</title>
<g id="a_Node000001"><a xlink:title=" ">
<polygon fill="#999999" stroke="#666666" points="579.75,-67.5 426.5,-67.5 426.5,-43 579.75,-43 579.75,-67.5"/>
<text text-anchor="middle" x="503.12" y="-50.2" font-family="Helvetica,sans-Serif" font-size="14.00">BinApache\getVhosts</text>
</a>
</g>
</g>
<!-- Node2 -->
<g id="Node000002" class="node">
<title>Node2</title>
<g id="a_Node000002"><a xlink:href="../../d9/d6c/classBinApache.html#a6a256ac0de5191633973e2dc80d8534c" target="_top" xlink:title=" ">
<polygon fill="white" stroke="#666666" points="386.75,-110.5 216.25,-110.5 216.25,-86 386.75,-86 386.75,-110.5"/>
<text text-anchor="middle" x="301.5" y="-93.2" font-family="Helvetica,sans-Serif" font-size="14.00">BinApache\getVhostsUrl</text>
</a>
</g>
</g>
<!-- Node1&#45;&gt;Node2 -->
<g id="edge1_Node000001_Node000002" class="edge">
<title>Node1&#45;&gt;Node2</title>
<g id="a_edge1_Node000001_Node000002"><a xlink:title=" ">
<path fill="none" stroke="#63b8ff" d="M431.94,-70.37C408.9,-75.33 383.55,-80.79 361.43,-85.56"/>
<polygon fill="#63b8ff" stroke="#63b8ff" points="432.52,-73.82 441.56,-68.3 431.05,-66.98 432.52,-73.82"/>
</a>
</g>
</g>
<!-- Node3 -->
<g id="Node000003" class="node">
<title>Node3</title>
<g id="a_Node000003"><a xlink:href="../../d9/d6c/classBinApache.html#a7547ed525ff649c090a3c1f1474afdab" target="_top" xlink:title=" ">
<polygon fill="white" stroke="#666666" points="390.5,-67.5 212.5,-67.5 212.5,-43 390.5,-43 390.5,-67.5"/>
<text text-anchor="middle" x="301.5" y="-50.2" font-family="Helvetica,sans-Serif" font-size="14.00">BinApache\refreshVhosts</text>
</a>
</g>
</g>
<!-- Node1&#45;&gt;Node3 -->
<g id="edge2_Node000001_Node000003" class="edge">
<title>Node1&#45;&gt;Node3</title>
<g id="a_edge2_Node000001_Node000003"><a xlink:title=" ">
<path fill="none" stroke="#63b8ff" d="M414.57,-55.25C406.65,-55.25 398.62,-55.25 390.69,-55.25"/>
<polygon fill="#63b8ff" stroke="#63b8ff" points="414.57,-58.75 424.57,-55.25 414.57,-51.75 414.57,-58.75"/>
</a>
</g>
</g>
<!-- Node4 -->
<g id="Node000004" class="node">
<title>Node4</title>
<g id="a_Node000004"><a xlink:href="../../d9/d6c/classBinApache.html#a568adc920f3c2722c4fec4c86df88b54" target="_top" xlink:title=" ">
<polygon fill="white" stroke="#666666" points="388.62,-24.5 214.38,-24.5 214.38,0 388.62,0 388.62,-24.5"/>
<text text-anchor="middle" x="301.5" y="-7.2" font-family="Helvetica,sans-Serif" font-size="14.00">BinApache\updateConfig</text>
</a>
</g>
</g>
<!-- Node1&#45;&gt;Node4 -->
<g id="edge3_Node000001_Node000004" class="edge">
<title>Node1&#45;&gt;Node4</title>
<g id="a_edge3_Node000001_Node000004"><a xlink:title=" ">
<path fill="none" stroke="#63b8ff" d="M431.94,-40.13C408.9,-35.17 383.55,-29.71 361.43,-24.94"/>
<polygon fill="#63b8ff" stroke="#63b8ff" points="431.05,-43.52 441.56,-42.2 432.52,-36.68 431.05,-43.52"/>
</a>
</g>
</g>
<!-- Node5 -->
<g id="Node000005" class="node">
<title>Node5</title>
<g id="a_Node000005"><a xlink:href="../../d9/d6c/classBinApache.html#a12cfa333889d6aa34dfaaa182b2786f4" target="_top" xlink:title=" ">
<polygon fill="white" stroke="#666666" points="176.5,-24.5 0,-24.5 0,0 176.5,0 176.5,-24.5"/>
<text text-anchor="middle" x="88.25" y="-7.2" font-family="Helvetica,sans-Serif" font-size="14.00">BinApache\switchVersion</text>
</a>
</g>
</g>
<!-- Node4&#45;&gt;Node5 -->
<g id="edge4_Node000004_Node000005" class="edge">
<title>Node4&#45;&gt;Node5</title>
<g id="a_edge4_Node000004_Node000005"><a xlink:title=" ">
<path fill="none" stroke="#63b8ff" d="M202.64,-12.25C193.98,-12.25 185.24,-12.25 176.67,-12.25"/>
<polygon fill="#63b8ff" stroke="#63b8ff" points="202.45,-15.75 212.45,-12.25 202.45,-8.75 202.45,-15.75"/>
</a>
</g>
</g>
</g>
</svg>
