<?xml version="1.0" encoding="UTF-8" standalone="no"?>
<!--
  - Copyright (c) 2021-2024 Bearsampp
  - License:  GNU General Public License version 3 or later; see LICENSE.txt
  - Author: Bear
  - Website: https://bearsampp.com
  - Github: https://github.com/Bearsampp
  -->

<!DOCTYPE svg PUBLIC "-//W3C//DTD SVG 1.1//EN"
 "http://www.w3.org/Graphics/SVG/1.1/DTD/svg11.dtd">
<!-- Generated by graphviz version 11.0.0 (20240428.1522)
 -->
<!-- Title: BinApache\getConf Pages: 1 -->
<svg width="659pt" height="140pt"
 viewBox="0.00 0.00 659.00 139.50" xmlns="http://www.w3.org/2000/svg" xmlns:xlink="http://www.w3.org/1999/xlink">
<g id="graph0" class="graph" transform="scale(1 1) rotate(0) translate(4 135.5)">
<title>BinApache\getConf</title>
<!-- Node1 -->
<g id="Node000001" class="node">
<title>Node1</title>
<g id="a_Node000001"><a xlink:title=" ">
<polygon fill="#999999" stroke="#666666" points="651,-67.5 511.25,-67.5 511.25,-43 651,-43 651,-67.5"/>
<text text-anchor="middle" x="581.12" y="-50.2" font-family="Helvetica,sans-Serif" font-size="14.00">BinApache\getConf</text>
</a>
</g>
</g>
<!-- Node2 -->
<g id="Node000002" class="node">
<title>Node2</title>
<g id="a_Node000002"><a xlink:href="../../d9/d6c/classBinApache.html#aee9e83fdb7da53206d85dd787e4f22af" target="_top" xlink:title=" ">
<polygon fill="white" stroke="#666666" points="475.25,-110.5 247.75,-110.5 247.75,-86 475.25,-86 475.25,-110.5"/>
<text text-anchor="middle" x="361.5" y="-93.2" font-family="Helvetica,sans-Serif" font-size="14.00">BinApache\getModulesFromConf</text>
</a>
</g>
</g>
<!-- Node1&#45;&gt;Node2 -->
<g id="edge1_Node000001_Node000002" class="edge">
<title>Node1&#45;&gt;Node2</title>
<g id="a_edge1_Node000001_Node000002"><a xlink:title=" ">
<path fill="none" stroke="#63b8ff" d="M505.85,-70.17C495.57,-72.22 485.15,-74.29 475.25,-76.25 459.99,-79.27 443.56,-82.49 428.09,-85.51"/>
<polygon fill="#63b8ff" stroke="#63b8ff" points="506.31,-73.65 515.43,-68.26 504.94,-66.78 506.31,-73.65"/>
</a>
</g>
</g>
<!-- Node5 -->
<g id="Node000005" class="node">
<title>Node5</title>
<g id="a_Node000005"><a xlink:href="../../d9/d6c/classBinApache.html#a562c609c726922caf740b22ea9d4c537" target="_top" xlink:title=" ">
<polygon fill="white" stroke="#666666" points="443.75,-67.5 279.25,-67.5 279.25,-43 443.75,-43 443.75,-67.5"/>
<text text-anchor="middle" x="361.5" y="-50.2" font-family="Helvetica,sans-Serif" font-size="14.00">BinApache\refreshConf</text>
</a>
</g>
</g>
<!-- Node1&#45;&gt;Node5 -->
<g id="edge4_Node000001_Node000005" class="edge">
<title>Node1&#45;&gt;Node5</title>
<g id="a_edge4_Node000001_Node000005"><a xlink:title=" ">
<path fill="none" stroke="#63b8ff" d="M499.55,-55.25C481.43,-55.25 462.19,-55.25 444.03,-55.25"/>
<polygon fill="#63b8ff" stroke="#63b8ff" points="499.45,-58.75 509.45,-55.25 499.45,-51.75 499.45,-58.75"/>
</a>
</g>
</g>
<!-- Node6 -->
<g id="Node000006" class="node">
<title>Node6</title>
<g id="a_Node000006"><a xlink:href="../../d9/d6c/classBinApache.html#a568adc920f3c2722c4fec4c86df88b54" target="_top" xlink:title=" ">
<polygon fill="white" stroke="#666666" points="448.62,-24.5 274.38,-24.5 274.38,0 448.62,0 448.62,-24.5"/>
<text text-anchor="middle" x="361.5" y="-7.2" font-family="Helvetica,sans-Serif" font-size="14.00">BinApache\updateConfig</text>
</a>
</g>
</g>
<!-- Node1&#45;&gt;Node6 -->
<g id="edge5_Node000001_Node000006" class="edge">
<title>Node1&#45;&gt;Node6</title>
<g id="a_edge5_Node000001_Node000006"><a xlink:title=" ">
<path fill="none" stroke="#63b8ff" d="M505.85,-40.33C495.57,-38.28 485.15,-36.21 475.25,-34.25 459.99,-31.23 443.56,-28.01 428.09,-24.99"/>
<polygon fill="#63b8ff" stroke="#63b8ff" points="504.94,-43.72 515.43,-42.24 506.31,-36.85 504.94,-43.72"/>
</a>
</g>
</g>
<!-- Node3 -->
<g id="Node000003" class="node">
<title>Node3</title>
<g id="a_Node000003"><a xlink:href="../../d9/d6c/classBinApache.html#a9d1ca7f955cf69bd03aad20b85df6940" target="_top" xlink:title=" ">
<polygon fill="white" stroke="#666666" points="187.38,-131.5 24.38,-131.5 24.38,-107 187.38,-107 187.38,-131.5"/>
<text text-anchor="middle" x="105.88" y="-114.2" font-family="Helvetica,sans-Serif" font-size="14.00">BinApache\getModules</text>
</a>
</g>
</g>
<!-- Node2&#45;&gt;Node3 -->
<g id="edge2_Node000002_Node000003" class="edge">
<title>Node2&#45;&gt;Node3</title>
<g id="a_edge2_Node000002_Node000003"><a xlink:title=" ">
<path fill="none" stroke="#63b8ff" d="M236.08,-108.55C219.68,-109.91 203.23,-111.27 187.83,-112.55"/>
<polygon fill="#63b8ff" stroke="#63b8ff" points="236.22,-112.05 245.9,-107.74 235.65,-105.08 236.22,-112.05"/>
</a>
</g>
</g>
<!-- Node4 -->
<g id="Node000004" class="node">
<title>Node4</title>
<g id="a_Node000004"><a xlink:href="../../d9/d6c/classBinApache.html#aa69ba84baf38b7ea7f25239862386cbc" target="_top" xlink:title=" ">
<polygon fill="white" stroke="#666666" points="211.75,-88.5 0,-88.5 0,-64 211.75,-64 211.75,-88.5"/>
<text text-anchor="middle" x="105.88" y="-71.2" font-family="Helvetica,sans-Serif" font-size="14.00">BinApache\getModulesLoaded</text>
</a>
</g>
</g>
<!-- Node2&#45;&gt;Node4 -->
<g id="edge3_Node000002_Node000004" class="edge">
<title>Node2&#45;&gt;Node4</title>
<g id="a_edge3_Node000002_Node000004"><a xlink:title=" ">
<path fill="none" stroke="#63b8ff" d="M236.08,-87.46C228.05,-86.76 220,-86.06 212.07,-85.38"/>
<polygon fill="#63b8ff" stroke="#63b8ff" points="235.64,-90.93 245.9,-88.31 236.24,-83.96 235.64,-90.93"/>
</a>
</g>
</g>
<!-- Node7 -->
<g id="Node000007" class="node">
<title>Node7</title>
<g id="a_Node000007"><a xlink:href="../../d9/d6c/classBinApache.html#a12cfa333889d6aa34dfaaa182b2786f4" target="_top" xlink:title=" ">
<polygon fill="white" stroke="#666666" points="194.12,-24.5 17.62,-24.5 17.62,0 194.12,0 194.12,-24.5"/>
<text text-anchor="middle" x="105.88" y="-7.2" font-family="Helvetica,sans-Serif" font-size="14.00">BinApache\switchVersion</text>
</a>
</g>
</g>
<!-- Node6&#45;&gt;Node7 -->
<g id="edge6_Node000006_Node000007" class="edge">
<title>Node6&#45;&gt;Node7</title>
<g id="a_edge6_Node000006_Node000007"><a xlink:title=" ">
<path fill="none" stroke="#63b8ff" d="M262.65,-12.25C240.15,-12.25 216.37,-12.25 194.35,-12.25"/>
<polygon fill="#63b8ff" stroke="#63b8ff" points="262.41,-15.75 272.41,-12.25 262.41,-8.75 262.41,-15.75"/>
</a>
</g>
</g>
</g>
</svg>
