<?xml version="1.0" encoding="UTF-8" standalone="no"?>
<!--
  - Copyright (c) 2021-2024 Bearsampp
  - License:  GNU General Public License version 3 or later; see LICENSE.txt
  - Author: Bear
  - Website: https://bearsampp.com
  - Github: https://github.com/Bearsampp
  -->

<!DOCTYPE svg PUBLIC "-//W3C//DTD SVG 1.1//EN"
 "http://www.w3.org/Graphics/SVG/1.1/DTD/svg11.dtd">
<!-- Generated by graphviz version 11.0.0 (20240428.1522)
 -->
<!-- Title: BinApache\getModulesFromConf Pages: 1 -->
<svg width="483pt" height="76pt"
 viewBox="0.00 0.00 483.25 75.50" xmlns="http://www.w3.org/2000/svg" xmlns:xlink="http://www.w3.org/1999/xlink">
<g id="graph0" class="graph" transform="scale(1 1) rotate(0) translate(4 71.5)">
<title>BinApache\getModulesFromConf</title>
<!-- Node1 -->
<g id="Node000001" class="node">
<title>Node1</title>
<g id="a_Node000001"><a xlink:title=" ">
<polygon fill="#999999" stroke="#666666" points="475.25,-45.5 247.75,-45.5 247.75,-21 475.25,-21 475.25,-45.5"/>
<text text-anchor="middle" x="361.5" y="-28.2" font-family="Helvetica,sans-Serif" font-size="14.00">BinApache\getModulesFromConf</text>
</a>
</g>
</g>
<!-- Node2 -->
<g id="Node000002" class="node">
<title>Node2</title>
<g id="a_Node000002"><a xlink:href="../../d9/d6c/classBinApache.html#a9d1ca7f955cf69bd03aad20b85df6940" target="_top" xlink:title=" ">
<polygon fill="white" stroke="#666666" points="187.38,-67.5 24.38,-67.5 24.38,-43 187.38,-43 187.38,-67.5"/>
<text text-anchor="middle" x="105.88" y="-50.2" font-family="Helvetica,sans-Serif" font-size="14.00">BinApache\getModules</text>
</a>
</g>
</g>
<!-- Node1&#45;&gt;Node2 -->
<g id="edge1_Node000001_Node000002" class="edge">
<title>Node1&#45;&gt;Node2</title>
<g id="a_edge1_Node000001_Node000002"><a xlink:title=" ">
<path fill="none" stroke="#63b8ff" d="M236.08,-44.04C219.68,-45.46 203.23,-46.89 187.83,-48.23"/>
<polygon fill="#63b8ff" stroke="#63b8ff" points="236.24,-47.54 245.9,-43.19 235.64,-40.57 236.24,-47.54"/>
</a>
</g>
</g>
<!-- Node3 -->
<g id="Node000003" class="node">
<title>Node3</title>
<g id="a_Node000003"><a xlink:href="../../d9/d6c/classBinApache.html#aa69ba84baf38b7ea7f25239862386cbc" target="_top" xlink:title=" ">
<polygon fill="white" stroke="#666666" points="211.75,-24.5 0,-24.5 0,0 211.75,0 211.75,-24.5"/>
<text text-anchor="middle" x="105.88" y="-7.2" font-family="Helvetica,sans-Serif" font-size="14.00">BinApache\getModulesLoaded</text>
</a>
</g>
</g>
<!-- Node1&#45;&gt;Node3 -->
<g id="edge2_Node000001_Node000003" class="edge">
<title>Node1&#45;&gt;Node3</title>
<g id="a_edge2_Node000001_Node000003"><a xlink:title=" ">
<path fill="none" stroke="#63b8ff" d="M236.08,-22.95C228.05,-22.28 220,-21.62 212.07,-20.96"/>
<polygon fill="#63b8ff" stroke="#63b8ff" points="235.65,-26.42 245.9,-23.76 236.22,-19.45 235.65,-26.42"/>
</a>
</g>
</g>
</g>
</svg>
