<?xml version="1.0" encoding="UTF-8" standalone="no"?>
<!--
  - Copyright (c) 2021-2024 Bearsampp
  - License:  GNU General Public License version 3 or later; see LICENSE.txt
  - Author: Bear
  - Website: https://bearsampp.com
  - Github: https://github.com/Bearsampp
  -->

<!DOCTYPE svg PUBLIC "-//W3C//DTD SVG 1.1//EN"
 "http://www.w3.org/Graphics/SVG/1.1/DTD/svg11.dtd">
<!-- Generated by graphviz version 11.0.0 (20240428.1522)
 -->
<!-- Title: BinApache\getRequiredContent Pages: 1 -->
<svg width="456pt" height="76pt"
 viewBox="0.00 0.00 456.25 75.50" xmlns="http://www.w3.org/2000/svg" xmlns:xlink="http://www.w3.org/1999/xlink">
<g id="graph0" class="graph" transform="scale(1 1) rotate(0) translate(4 71.5)">
<title>BinApache\getRequiredContent</title>
<!-- Node1 -->
<g id="Node000001" class="node">
<title>Node1</title>
<g id="a_Node000001"><a xlink:title=" ">
<polygon fill="#999999" stroke="#666666" points="448.25,-45.5 231.25,-45.5 231.25,-21 448.25,-21 448.25,-45.5"/>
<text text-anchor="middle" x="339.75" y="-28.2" font-family="Helvetica,sans-Serif" font-size="14.00">BinApache\getRequiredContent</text>
</a>
</g>
</g>
<!-- Node2 -->
<g id="Node000002" class="node">
<title>Node2</title>
<g id="a_Node000002"><a xlink:href="../../d9/d6c/classBinApache.html#a47a45966871479aa2dc4a851c5107a96" target="_top" xlink:title=" ">
<polygon fill="white" stroke="#666666" points="192.25,-67.5 3,-67.5 3,-43 192.25,-43 192.25,-67.5"/>
<text text-anchor="middle" x="97.62" y="-50.2" font-family="Helvetica,sans-Serif" font-size="14.00">BinApache\getAliasContent</text>
</a>
</g>
</g>
<!-- Node1&#45;&gt;Node2 -->
<g id="edge1_Node000001_Node000002" class="edge">
<title>Node1&#45;&gt;Node2</title>
<g id="a_edge1_Node000001_Node000002"><a xlink:title=" ">
<path fill="none" stroke="#63b8ff" d="M219.81,-44.15C210.64,-44.99 201.46,-45.83 192.48,-46.65"/>
<polygon fill="#63b8ff" stroke="#63b8ff" points="219.83,-47.66 229.47,-43.26 219.19,-40.69 219.83,-47.66"/>
</a>
</g>
</g>
<!-- Node3 -->
<g id="Node000003" class="node">
<title>Node3</title>
<g id="a_Node000003"><a xlink:href="../../d9/d6c/classBinApache.html#a68c6240da8b11ea8f1c32b79dac57979" target="_top" xlink:title=" ">
<polygon fill="white" stroke="#666666" points="195.25,-24.5 0,-24.5 0,0 195.25,0 195.25,-24.5"/>
<text text-anchor="middle" x="97.62" y="-7.2" font-family="Helvetica,sans-Serif" font-size="14.00">BinApache\getVhostContent</text>
</a>
</g>
</g>
<!-- Node1&#45;&gt;Node3 -->
<g id="edge2_Node000001_Node000003" class="edge">
<title>Node1&#45;&gt;Node3</title>
<g id="a_edge2_Node000001_Node000003"><a xlink:title=" ">
<path fill="none" stroke="#63b8ff" d="M219.56,-22.83C211.48,-22.12 203.38,-21.41 195.43,-20.72"/>
<polygon fill="#63b8ff" stroke="#63b8ff" points="219.2,-26.31 229.47,-23.69 219.81,-19.34 219.2,-26.31"/>
</a>
</g>
</g>
</g>
</svg>
