<?xml version="1.0" encoding="UTF-8" standalone="no"?>
<!--
  - Copyright (c) 2021-2024 Bearsampp
  - License:  GNU General Public License version 3 or later; see LICENSE.txt
  - Author: Bear
  - Website: https://bearsampp.com
  - Github: https://github.com/Bearsampp
  -->

<!DOCTYPE svg PUBLIC "-//W3C//DTD SVG 1.1//EN"
 "http://www.w3.org/Graphics/SVG/1.1/DTD/svg11.dtd">
<!-- Generated by graphviz version 11.0.0 (20240428.1522)
 -->
<!-- Title: BinApache\reload Pages: 1 -->
<svg width="758pt" height="119pt"
 viewBox="0.00 0.00 758.25 118.50" xmlns="http://www.w3.org/2000/svg" xmlns:xlink="http://www.w3.org/1999/xlink">
<g id="graph0" class="graph" transform="scale(1 1) rotate(0) translate(4 114.5)">
<title>BinApache\reload</title>
<!-- Node1 -->
<g id="Node000001" class="node">
<title>Node1</title>
<g id="a_Node000001"><a xlink:title=" ">
<polygon fill="#999999" stroke="#666666" points="750.25,-67.5 621.75,-67.5 621.75,-43 750.25,-43 750.25,-67.5"/>
<text text-anchor="middle" x="686" y="-50.2" font-family="Helvetica,sans-Serif" font-size="14.00">BinApache\reload</text>
</a>
</g>
</g>
<!-- Node2 -->
<g id="Node000002" class="node">
<title>Node2</title>
<g id="a_Node000002"><a xlink:href="../../d9/d6c/classBinApache.html#ad151c63555c4aa954d051c51e601512f" target="_top" xlink:title=" ">
<polygon fill="white" stroke="#666666" points="585.75,-110.5 422.75,-110.5 422.75,-86 585.75,-86 585.75,-110.5"/>
<text text-anchor="middle" x="504.25" y="-93.2" font-family="Helvetica,sans-Serif" font-size="14.00">BinApache\__construct</text>
</a>
</g>
</g>
<!-- Node1&#45;&gt;Node2 -->
<g id="edge1_Node000001_Node000002" class="edge">
<title>Node1&#45;&gt;Node2</title>
<g id="a_edge1_Node000001_Node000002"><a xlink:title=" ">
<path fill="none" stroke="#63b8ff" d="M620.91,-70.58C600.45,-75.48 578.05,-80.84 558.45,-85.52"/>
<polygon fill="#63b8ff" stroke="#63b8ff" points="621.66,-74 630.57,-68.27 620.03,-67.19 621.66,-74"/>
</a>
</g>
</g>
<!-- Node3 -->
<g id="Node000003" class="node">
<title>Node3</title>
<g id="a_Node000003"><a xlink:href="../../d9/d6c/classBinApache.html#a54e8925c2f6dec1622cc8b4171810348" target="_top" xlink:title=" ">
<polygon fill="white" stroke="#666666" points="580.5,-67.5 428,-67.5 428,-43 580.5,-43 580.5,-67.5"/>
<text text-anchor="middle" x="504.25" y="-50.2" font-family="Helvetica,sans-Serif" font-size="14.00">BinApache\setEnable</text>
</a>
</g>
</g>
<!-- Node1&#45;&gt;Node3 -->
<g id="edge2_Node000001_Node000003" class="edge">
<title>Node1&#45;&gt;Node3</title>
<g id="a_edge2_Node000001_Node000003"><a xlink:title=" ">
<path fill="none" stroke="#63b8ff" d="M610.13,-55.25C600.43,-55.25 590.5,-55.25 580.79,-55.25"/>
<polygon fill="#63b8ff" stroke="#63b8ff" points="609.86,-58.75 619.86,-55.25 609.86,-51.75 609.86,-58.75"/>
</a>
</g>
</g>
<!-- Node4 -->
<g id="Node000004" class="node">
<title>Node4</title>
<g id="a_Node000004"><a xlink:href="../../d9/d6c/classBinApache.html#abbb805e3d22db2dd1af6180de7e84070" target="_top" xlink:title=" ">
<polygon fill="white" stroke="#666666" points="582.75,-24.5 425.75,-24.5 425.75,0 582.75,0 582.75,-24.5"/>
<text text-anchor="middle" x="504.25" y="-7.2" font-family="Helvetica,sans-Serif" font-size="14.00">BinApache\setVersion</text>
</a>
</g>
</g>
<!-- Node1&#45;&gt;Node4 -->
<g id="edge3_Node000001_Node000004" class="edge">
<title>Node1&#45;&gt;Node4</title>
<g id="a_edge3_Node000001_Node000004"><a xlink:title=" ">
<path fill="none" stroke="#63b8ff" d="M620.91,-39.92C600.45,-35.02 578.05,-29.66 558.45,-24.98"/>
<polygon fill="#63b8ff" stroke="#63b8ff" points="620.03,-43.31 630.57,-42.23 621.66,-36.5 620.03,-43.31"/>
</a>
</g>
</g>
<!-- Node5 -->
<g id="Node000005" class="node">
<title>Node5</title>
<g id="a_Node000005"><a xlink:href="../../d9/d6c/classBinApache.html#a568adc920f3c2722c4fec4c86df88b54" target="_top" xlink:title=" ">
<polygon fill="white" stroke="#666666" points="386.75,-24.5 212.5,-24.5 212.5,0 386.75,0 386.75,-24.5"/>
<text text-anchor="middle" x="299.62" y="-7.2" font-family="Helvetica,sans-Serif" font-size="14.00">BinApache\updateConfig</text>
</a>
</g>
</g>
<!-- Node4&#45;&gt;Node5 -->
<g id="edge4_Node000004_Node000005" class="edge">
<title>Node4&#45;&gt;Node5</title>
<g id="a_edge4_Node000004_Node000005"><a xlink:title=" ">
<path fill="none" stroke="#63b8ff" d="M414.14,-12.25C405.11,-12.25 395.95,-12.25 386.95,-12.25"/>
<polygon fill="#63b8ff" stroke="#63b8ff" points="413.98,-15.75 423.98,-12.25 413.98,-8.75 413.98,-15.75"/>
</a>
</g>
</g>
<!-- Node6 -->
<g id="Node000006" class="node">
<title>Node6</title>
<g id="a_Node000006"><a xlink:href="../../d9/d6c/classBinApache.html#a12cfa333889d6aa34dfaaa182b2786f4" target="_top" xlink:title=" ">
<polygon fill="white" stroke="#666666" points="176.5,-24.5 0,-24.5 0,0 176.5,0 176.5,-24.5"/>
<text text-anchor="middle" x="88.25" y="-7.2" font-family="Helvetica,sans-Serif" font-size="14.00">BinApache\switchVersion</text>
</a>
</g>
</g>
<!-- Node5&#45;&gt;Node6 -->
<g id="edge5_Node000005_Node000006" class="edge">
<title>Node5&#45;&gt;Node6</title>
<g id="a_edge5_Node000005_Node000006"><a xlink:title=" ">
<path fill="none" stroke="#63b8ff" d="M200.92,-12.25C192.86,-12.25 184.75,-12.25 176.77,-12.25"/>
<polygon fill="#63b8ff" stroke="#63b8ff" points="200.74,-15.75 210.74,-12.25 200.74,-8.75 200.74,-15.75"/>
</a>
</g>
</g>
</g>
</svg>
