<?xml version="1.0" encoding="UTF-8" standalone="no"?>
<!--
  - Copyright (c) 2021-2024 Bearsampp
  - License:  GNU General Public License version 3 or later; see LICENSE.txt
  - Author: Bear
  - Website: https://bearsampp.com
  - Github: https://github.com/Bearsampp
  -->

<!DOCTYPE svg PUBLIC "-//W3C//DTD SVG 1.1//EN"
 "http://www.w3.org/Graphics/SVG/1.1/DTD/svg11.dtd">
<!-- Generated by graphviz version 11.0.0 (20240428.1522)
 -->
<!-- Title: BinApache\getOnlineContent Pages: 1 -->
<svg width="691pt" height="183pt"
 viewBox="0.00 0.00 691.25 182.50" xmlns="http://www.w3.org/2000/svg" xmlns:xlink="http://www.w3.org/1999/xlink">
<g id="graph0" class="graph" transform="scale(1 1) rotate(0) translate(4 178.5)">
<title>BinApache\getOnlineContent</title>
<!-- Node1 -->
<g id="Node000001" class="node">
<title>Node1</title>
<g id="a_Node000001"><a xlink:title=" ">
<polygon fill="#999999" stroke="#666666" points="683.25,-88.5 484.25,-88.5 484.25,-64 683.25,-64 683.25,-88.5"/>
<text text-anchor="middle" x="583.75" y="-71.2" font-family="Helvetica,sans-Serif" font-size="14.00">BinApache\getOnlineContent</text>
</a>
</g>
</g>
<!-- Node2 -->
<g id="Node000002" class="node">
<title>Node2</title>
<g id="a_Node000002"><a xlink:href="../../d9/d6c/classBinApache.html#a88e65e5df8d5a98fd51f045f1360ecfd" target="_top" xlink:title=" ">
<polygon fill="white" stroke="#666666" points="448.25,-153.5 231.25,-153.5 231.25,-129 448.25,-129 448.25,-153.5"/>
<text text-anchor="middle" x="339.75" y="-136.2" font-family="Helvetica,sans-Serif" font-size="14.00">BinApache\getRequiredContent</text>
</a>
</g>
</g>
<!-- Node1&#45;&gt;Node2 -->
<g id="edge1_Node000001_Node000002" class="edge">
<title>Node1&#45;&gt;Node2</title>
<g id="a_edge1_Node000001_Node000002"><a xlink:title=" ">
<path fill="none" stroke="#63b8ff" d="M535.96,-92.57C510.27,-101.19 477.72,-111.55 448.25,-119.25 435.53,-122.57 421.86,-125.7 408.67,-128.5"/>
<polygon fill="#63b8ff" stroke="#63b8ff" points="536.74,-96.01 545.09,-89.48 534.5,-89.37 536.74,-96.01"/>
</a>
</g>
</g>
<!-- Node5 -->
<g id="Node000005" class="node">
<title>Node5</title>
<g id="a_Node000005"><a xlink:href="../../d9/d6c/classBinApache.html#a9e715eda066b0d564d23ce51f0fec684" target="_top" xlink:title=" ">
<polygon fill="white" stroke="#666666" points="422,-110.5 257.5,-110.5 257.5,-86 422,-86 422,-110.5"/>
<text text-anchor="middle" x="339.75" y="-93.2" font-family="Helvetica,sans-Serif" font-size="14.00">BinApache\refreshAlias</text>
</a>
</g>
</g>
<!-- Node1&#45;&gt;Node5 -->
<g id="edge4_Node000001_Node000005" class="edge">
<title>Node1&#45;&gt;Node5</title>
<g id="a_edge4_Node000001_Node000005"><a xlink:title=" ">
<path fill="none" stroke="#63b8ff" d="M472.84,-86.24C455.81,-87.79 438.49,-89.36 422.24,-90.84"/>
<polygon fill="#63b8ff" stroke="#63b8ff" points="472.82,-89.76 482.46,-85.37 472.19,-82.79 472.82,-89.76"/>
</a>
</g>
</g>
<!-- Node6 -->
<g id="Node000006" class="node">
<title>Node6</title>
<g id="a_Node000006"><a xlink:href="../../d9/d6c/classBinApache.html#a562c609c726922caf740b22ea9d4c537" target="_top" xlink:title=" ">
<polygon fill="white" stroke="#666666" points="422,-67.5 257.5,-67.5 257.5,-43 422,-43 422,-67.5"/>
<text text-anchor="middle" x="339.75" y="-50.2" font-family="Helvetica,sans-Serif" font-size="14.00">BinApache\refreshConf</text>
</a>
</g>
</g>
<!-- Node1&#45;&gt;Node6 -->
<g id="edge5_Node000001_Node000006" class="edge">
<title>Node1&#45;&gt;Node6</title>
<g id="a_edge5_Node000001_Node000006"><a xlink:title=" ">
<path fill="none" stroke="#63b8ff" d="M472.84,-66.71C455.81,-65.23 438.49,-63.73 422.24,-62.32"/>
<polygon fill="#63b8ff" stroke="#63b8ff" points="472.2,-70.17 482.46,-67.55 472.8,-63.2 472.2,-70.17"/>
</a>
</g>
</g>
<!-- Node7 -->
<g id="Node000007" class="node">
<title>Node7</title>
<g id="a_Node000007"><a xlink:href="../../d9/d6c/classBinApache.html#a7547ed525ff649c090a3c1f1474afdab" target="_top" xlink:title=" ">
<polygon fill="white" stroke="#666666" points="428.75,-24.5 250.75,-24.5 250.75,0 428.75,0 428.75,-24.5"/>
<text text-anchor="middle" x="339.75" y="-7.2" font-family="Helvetica,sans-Serif" font-size="14.00">BinApache\refreshVhosts</text>
</a>
</g>
</g>
<!-- Node1&#45;&gt;Node7 -->
<g id="edge6_Node000001_Node000007" class="edge">
<title>Node1&#45;&gt;Node7</title>
<g id="a_edge6_Node000001_Node000007"><a xlink:title=" ">
<path fill="none" stroke="#63b8ff" d="M534.77,-59.98C509.25,-51.65 477.24,-41.72 448.25,-34.25 435.34,-30.92 421.45,-27.77 408.08,-24.94"/>
<polygon fill="#63b8ff" stroke="#63b8ff" points="533.61,-63.28 544.21,-63.08 535.8,-56.63 533.61,-63.28"/>
</a>
</g>
</g>
<!-- Node3 -->
<g id="Node000003" class="node">
<title>Node3</title>
<g id="a_Node000003"><a xlink:href="../../d9/d6c/classBinApache.html#a47a45966871479aa2dc4a851c5107a96" target="_top" xlink:title=" ">
<polygon fill="white" stroke="#666666" points="192.25,-174.5 3,-174.5 3,-150 192.25,-150 192.25,-174.5"/>
<text text-anchor="middle" x="97.62" y="-157.2" font-family="Helvetica,sans-Serif" font-size="14.00">BinApache\getAliasContent</text>
</a>
</g>
</g>
<!-- Node2&#45;&gt;Node3 -->
<g id="edge2_Node000002_Node000003" class="edge">
<title>Node2&#45;&gt;Node3</title>
<g id="a_edge2_Node000002_Node000003"><a xlink:title=" ">
<path fill="none" stroke="#63b8ff" d="M219.81,-151.65C210.64,-152.45 201.46,-153.26 192.48,-154.04"/>
<polygon fill="#63b8ff" stroke="#63b8ff" points="219.81,-155.16 229.47,-150.81 219.2,-148.19 219.81,-155.16"/>
</a>
</g>
</g>
<!-- Node4 -->
<g id="Node000004" class="node">
<title>Node4</title>
<g id="a_Node000004"><a xlink:href="../../d9/d6c/classBinApache.html#a68c6240da8b11ea8f1c32b79dac57979" target="_top" xlink:title=" ">
<polygon fill="white" stroke="#666666" points="195.25,-131.5 0,-131.5 0,-107 195.25,-107 195.25,-131.5"/>
<text text-anchor="middle" x="97.62" y="-114.2" font-family="Helvetica,sans-Serif" font-size="14.00">BinApache\getVhostContent</text>
</a>
</g>
</g>
<!-- Node2&#45;&gt;Node4 -->
<g id="edge3_Node000002_Node000004" class="edge">
<title>Node2&#45;&gt;Node4</title>
<g id="a_edge3_Node000002_Node000004"><a xlink:title=" ">
<path fill="none" stroke="#63b8ff" d="M219.56,-130.33C211.48,-129.59 203.38,-128.85 195.43,-128.12"/>
<polygon fill="#63b8ff" stroke="#63b8ff" points="219.19,-133.81 229.47,-131.24 219.83,-126.84 219.19,-133.81"/>
</a>
</g>
</g>
</g>
</svg>
