<?xml version="1.0" encoding="UTF-8" standalone="no"?>
<!--
  - Copyright (c) 2021-2024 Bearsampp
  - License:  GNU General Public License version 3 or later; see LICENSE.txt
  - Author: Bear
  - Website: https://bearsampp.com
  - Github: https://github.com/Bearsampp
  -->

<!DOCTYPE svg PUBLIC "-//W3C//DTD SVG 1.1//EN"
 "http://www.w3.org/Graphics/SVG/1.1/DTD/svg11.dtd">
<!-- Generated by graphviz version 11.0.0 (20240428.1522)
 -->
<!-- Title: BinNodejs\getConf Pages: 1 -->
<svg width="559pt" height="33pt"
 viewBox="0.00 0.00 559.25 32.50" xmlns="http://www.w3.org/2000/svg" xmlns:xlink="http://www.w3.org/1999/xlink">
<g id="graph0" class="graph" transform="scale(1 1) rotate(0) translate(4 28.5)">
<title>BinNodejs\getConf</title>
<!-- Node1 -->
<g id="Node000001" class="node">
<title>Node1</title>
<g id="a_Node000001"><a xlink:title=" ">
<polygon fill="#999999" stroke="#666666" points="551.25,-24.5 415.25,-24.5 415.25,0 551.25,0 551.25,-24.5"/>
<text text-anchor="middle" x="483.25" y="-7.2" font-family="Helvetica,sans-Serif" font-size="14.00">BinNodejs\getConf</text>
</a>
</g>
</g>
<!-- Node2 -->
<g id="Node000002" class="node">
<title>Node2</title>
<g id="a_Node000002"><a xlink:href="../../d8/d9c/classBinNodejs.html#a7e05048d9ec4cee6fa7b07fcf8461474" target="_top" xlink:title=" ">
<polygon fill="white" stroke="#666666" points="379.25,-24.5 208.75,-24.5 208.75,0 379.25,0 379.25,-24.5"/>
<text text-anchor="middle" x="294" y="-7.2" font-family="Helvetica,sans-Serif" font-size="14.00">BinNodejs\updateConfig</text>
</a>
</g>
</g>
<!-- Node1&#45;&gt;Node2 -->
<g id="edge1_Node000001_Node000002" class="edge">
<title>Node1&#45;&gt;Node2</title>
<g id="a_edge1_Node000001_Node000002"><a xlink:title=" ">
<path fill="none" stroke="#63b8ff" d="M403.51,-12.25C395.63,-12.25 387.61,-12.25 379.68,-12.25"/>
<polygon fill="#63b8ff" stroke="#63b8ff" points="403.4,-15.75 413.4,-12.25 403.4,-8.75 403.4,-15.75"/>
</a>
</g>
</g>
<!-- Node3 -->
<g id="Node000003" class="node">
<title>Node3</title>
<g id="a_Node000003"><a xlink:href="../../d8/d9c/classBinNodejs.html#a13a10227cebce8b72fa3408bf946a988" target="_top" xlink:title=" ">
<polygon fill="white" stroke="#666666" points="172.75,-24.5 0,-24.5 0,0 172.75,0 172.75,-24.5"/>
<text text-anchor="middle" x="86.38" y="-7.2" font-family="Helvetica,sans-Serif" font-size="14.00">BinNodejs\switchVersion</text>
</a>
</g>
</g>
<!-- Node2&#45;&gt;Node3 -->
<g id="edge2_Node000002_Node000003" class="edge">
<title>Node2&#45;&gt;Node3</title>
<g id="a_edge2_Node000002_Node000003"><a xlink:title=" ">
<path fill="none" stroke="#63b8ff" d="M197.22,-12.25C189.22,-12.25 181.16,-12.25 173.24,-12.25"/>
<polygon fill="#63b8ff" stroke="#63b8ff" points="196.96,-15.75 206.96,-12.25 196.96,-8.75 196.96,-15.75"/>
</a>
</g>
</g>
</g>
</svg>
