<?xml version="1.0" encoding="UTF-8" standalone="no"?>
<!--
  - Copyright (c) 2021-2024 Bearsampp
  - License:  GNU General Public License version 3 or later; see LICENSE.txt
  - Author: Bear
  - Website: https://bearsampp.com
  - Github: https://github.com/Bearsampp
  -->

<!DOCTYPE svg PUBLIC "-//W3C//DTD SVG 1.1//EN"
 "http://www.w3.org/Graphics/SVG/1.1/DTD/svg11.dtd">
<!-- Generated by graphviz version 11.0.0 (20240428.1522)
 -->
<!-- Title: BinNodejs\reload Pages: 1 -->
<svg width="743pt" height="76pt"
 viewBox="0.00 0.00 743.25 75.50" xmlns="http://www.w3.org/2000/svg" xmlns:xlink="http://www.w3.org/1999/xlink">
<g id="graph0" class="graph" transform="scale(1 1) rotate(0) translate(4 71.5)">
<title>BinNodejs\reload</title>
<!-- Node1 -->
<g id="Node000001" class="node">
<title>Node1</title>
<g id="a_Node000001"><a xlink:title=" ">
<polygon fill="#999999" stroke="#666666" points="735.25,-45.5 610.5,-45.5 610.5,-21 735.25,-21 735.25,-45.5"/>
<text text-anchor="middle" x="672.88" y="-28.2" font-family="Helvetica,sans-Serif" font-size="14.00">BinNodejs\reload</text>
</a>
</g>
</g>
<!-- Node2 -->
<g id="Node000002" class="node">
<title>Node2</title>
<g id="a_Node000002"><a xlink:href="../../d8/d9c/classBinNodejs.html#a6b318e5149cf52b3a6bdaca425d162f0" target="_top" xlink:title=" ">
<polygon fill="white" stroke="#666666" points="574.5,-67.5 415.25,-67.5 415.25,-43 574.5,-43 574.5,-67.5"/>
<text text-anchor="middle" x="494.88" y="-50.2" font-family="Helvetica,sans-Serif" font-size="14.00">BinNodejs\__construct</text>
</a>
</g>
</g>
<!-- Node1&#45;&gt;Node2 -->
<g id="edge1_Node000001_Node000002" class="edge">
<title>Node1&#45;&gt;Node2</title>
<g id="a_edge1_Node000001_Node000002"><a xlink:title=" ">
<path fill="none" stroke="#63b8ff" d="M599.09,-42.35C591.05,-43.35 582.83,-44.38 574.72,-45.39"/>
<polygon fill="#63b8ff" stroke="#63b8ff" points="599.33,-45.85 608.82,-41.13 598.46,-38.9 599.33,-45.85"/>
</a>
</g>
</g>
<!-- Node3 -->
<g id="Node000003" class="node">
<title>Node3</title>
<g id="a_Node000003"><a xlink:href="../../d8/d9c/classBinNodejs.html#ae267b2e0458d42532bb0d0cafaf7ac96" target="_top" xlink:title=" ">
<polygon fill="white" stroke="#666666" points="571.5,-24.5 418.25,-24.5 418.25,0 571.5,0 571.5,-24.5"/>
<text text-anchor="middle" x="494.88" y="-7.2" font-family="Helvetica,sans-Serif" font-size="14.00">BinNodejs\setVersion</text>
</a>
</g>
</g>
<!-- Node1&#45;&gt;Node3 -->
<g id="edge2_Node000001_Node000003" class="edge">
<title>Node1&#45;&gt;Node3</title>
<g id="a_edge2_Node000001_Node000003"><a xlink:title=" ">
<path fill="none" stroke="#63b8ff" d="M599.11,-24.57C590.14,-23.5 580.96,-22.4 571.95,-21.33"/>
<polygon fill="#63b8ff" stroke="#63b8ff" points="598.47,-28.02 608.82,-25.73 599.3,-21.07 598.47,-28.02"/>
</a>
</g>
</g>
<!-- Node4 -->
<g id="Node000004" class="node">
<title>Node4</title>
<g id="a_Node000004"><a xlink:href="../../d8/d9c/classBinNodejs.html#a7e05048d9ec4cee6fa7b07fcf8461474" target="_top" xlink:title=" ">
<polygon fill="white" stroke="#666666" points="379.25,-24.5 208.75,-24.5 208.75,0 379.25,0 379.25,-24.5"/>
<text text-anchor="middle" x="294" y="-7.2" font-family="Helvetica,sans-Serif" font-size="14.00">BinNodejs\updateConfig</text>
</a>
</g>
</g>
<!-- Node3&#45;&gt;Node4 -->
<g id="edge3_Node000003_Node000004" class="edge">
<title>Node3&#45;&gt;Node4</title>
<g id="a_edge3_Node000003_Node000004"><a xlink:title=" ">
<path fill="none" stroke="#63b8ff" d="M406.59,-12.25C397.63,-12.25 388.54,-12.25 379.62,-12.25"/>
<polygon fill="#63b8ff" stroke="#63b8ff" points="406.32,-15.75 416.32,-12.25 406.32,-8.75 406.32,-15.75"/>
</a>
</g>
</g>
<!-- Node5 -->
<g id="Node000005" class="node">
<title>Node5</title>
<g id="a_Node000005"><a xlink:href="../../d8/d9c/classBinNodejs.html#a13a10227cebce8b72fa3408bf946a988" target="_top" xlink:title=" ">
<polygon fill="white" stroke="#666666" points="172.75,-24.5 0,-24.5 0,0 172.75,0 172.75,-24.5"/>
<text text-anchor="middle" x="86.38" y="-7.2" font-family="Helvetica,sans-Serif" font-size="14.00">BinNodejs\switchVersion</text>
</a>
</g>
</g>
<!-- Node4&#45;&gt;Node5 -->
<g id="edge4_Node000004_Node000005" class="edge">
<title>Node4&#45;&gt;Node5</title>
<g id="a_edge4_Node000004_Node000005"><a xlink:title=" ">
<path fill="none" stroke="#63b8ff" d="M197.22,-12.25C189.22,-12.25 181.16,-12.25 173.24,-12.25"/>
<polygon fill="#63b8ff" stroke="#63b8ff" points="196.96,-15.75 206.96,-12.25 196.96,-8.75 196.96,-15.75"/>
</a>
</g>
</g>
</g>
</svg>
