<?xml version="1.0" encoding="UTF-8" standalone="no"?>
<!--
  - Copyright (c) 2021-2024 Bearsampp
  - License:  GNU General Public License version 3 or later; see LICENSE.txt
  - Author: Bear
  - Website: https://bearsampp.com
  - Github: https://github.com/Bearsampp
  -->

<!DOCTYPE svg PUBLIC "-//W3C//DTD SVG 1.1//EN"
 "http://www.w3.org/Graphics/SVG/1.1/DTD/svg11.dtd">
<!-- Generated by graphviz version 11.0.0 (20240428.1522)
 -->
<!-- Title: AppWebgrind\reload Pages: 1 -->
<svg width="375pt" height="76pt"
 viewBox="0.00 0.00 374.50 75.50" xmlns="http://www.w3.org/2000/svg" xmlns:xlink="http://www.w3.org/1999/xlink">
<g id="graph0" class="graph" transform="scale(1 1) rotate(0) translate(4 71.5)">
<title>AppWebgrind\reload</title>
<!-- Node1 -->
<g id="Node000001" class="node">
<title>Node1</title>
<g id="a_Node000001"><a xlink:title=" ">
<polygon fill="#999999" stroke="#666666" points="366.5,-45.5 218.5,-45.5 218.5,-21 366.5,-21 366.5,-45.5"/>
<text text-anchor="middle" x="292.5" y="-28.2" font-family="Helvetica,sans-Serif" font-size="14.00">AppWebgrind\reload</text>
</a>
</g>
</g>
<!-- Node2 -->
<g id="Node000002" class="node">
<title>Node2</title>
<g id="a_Node000002"><a xlink:href="../../dc/df4/classAppWebgrind.html#aa05ddaec092d33bd75b24c724423783f" target="_top" xlink:title=" ">
<polygon fill="white" stroke="#666666" points="182.5,-67.5 0,-67.5 0,-43 182.5,-43 182.5,-67.5"/>
<text text-anchor="middle" x="91.25" y="-50.2" font-family="Helvetica,sans-Serif" font-size="14.00">AppWebgrind\__construct</text>
</a>
</g>
</g>
<!-- Node1&#45;&gt;Node2 -->
<g id="edge1_Node000001_Node000002" class="edge">
<title>Node1&#45;&gt;Node2</title>
<g id="a_edge1_Node000001_Node000002"><a xlink:title=" ">
<path fill="none" stroke="#63b8ff" d="M206.93,-42.59C198.92,-43.47 190.77,-44.37 182.7,-45.26"/>
<polygon fill="#63b8ff" stroke="#63b8ff" points="207.1,-46.09 216.65,-41.51 206.33,-39.13 207.1,-46.09"/>
</a>
</g>
</g>
<!-- Node3 -->
<g id="Node000003" class="node">
<title>Node3</title>
<g id="a_Node000003"><a xlink:href="../../dc/df4/classAppWebgrind.html#a8f506a9b0ef8d3b41d756bf493d60685" target="_top" xlink:title=" ">
<polygon fill="white" stroke="#666666" points="179.5,-24.5 3,-24.5 3,0 179.5,0 179.5,-24.5"/>
<text text-anchor="middle" x="91.25" y="-7.2" font-family="Helvetica,sans-Serif" font-size="14.00">AppWebgrind\setVersion</text>
</a>
</g>
</g>
<!-- Node1&#45;&gt;Node3 -->
<g id="edge2_Node000001_Node000003" class="edge">
<title>Node1&#45;&gt;Node3</title>
<g id="a_edge2_Node000001_Node000003"><a xlink:title=" ">
<path fill="none" stroke="#63b8ff" d="M206.95,-24.34C198.02,-23.4 188.93,-22.44 179.96,-21.49"/>
<polygon fill="#63b8ff" stroke="#63b8ff" points="206.34,-27.79 216.65,-25.36 207.07,-20.83 206.34,-27.79"/>
</a>
</g>
</g>
</g>
</svg>
