<?xml version="1.0" encoding="UTF-8" standalone="no"?>
<!--
  - Copyright (c) 2021-2024 Bearsampp
  - License:  GNU General Public License version 3 or later; see LICENSE.txt
  - Author: Bear
  - Website: https://bearsampp.com
  - Github: https://github.com/Bearsampp
  -->

<!DOCTYPE svg PUBLIC "-//W3C//DTD SVG 1.1//EN"
 "http://www.w3.org/Graphics/SVG/1.1/DTD/svg11.dtd">
<!-- Generated by graphviz version 11.0.0 (20240428.1522)
 -->
<!-- Title: ActionExt\setStatus Pages: 1 -->
<svg width="342pt" height="205pt"
 viewBox="0.00 0.00 342.25 204.50" xmlns="http://www.w3.org/2000/svg" xmlns:xlink="http://www.w3.org/1999/xlink">

<svg id="main" version="1.1" xmlns="http://www.w3.org/2000/svg" xmlns:xlink="http://www.w3.org/1999/xlink" xml:space="preserve" onload="init(evt)">
<style type="text/css"><![CDATA[
.node, .edge {opacity: 0.7;}
.node.selected, .edge.selected {opacity: 1;}
.edge:hover path { stroke: red; }
.edge:hover polygon { stroke: red; fill: red; }
]]></style>
<script type="application/ecmascript" xlink:href="../../svg.min.js"/>
<svg id="graph" class="graph">
<g id="graph0" class="graph" transform="scale(1 1) rotate(0) translate(4 200.5)">
<title>ActionExt\setStatus</title>
<!-- Node1 -->
<g id="Node000001" class="node">
<title>Node1</title>
<g id="a_Node000001"><a xlink:title=" ">
<polygon fill="#999999" stroke="#666666" points="334.25,-110.5 195.25,-110.5 195.25,-86 334.25,-86 334.25,-110.5"/>
<text text-anchor="middle" x="264.75" y="-93.2" font-family="Helvetica,sans-Serif" font-size="14.00">ActionExt\setStatus</text>
</a>
</g>
</g>
<!-- Node2 -->
<g id="Node000002" class="node">
<title>Node2</title>
<g id="a_Node000002"><a xlink:href="../../d1/d42/classActionExt.html#a95dbe38feca167c565707d22db5388b8" target="_top" xlink:title=" ">
<polygon fill="white" stroke="#666666" points="156.62,-196.5 2.62,-196.5 2.62,-172 156.62,-172 156.62,-196.5"/>
<text text-anchor="middle" x="79.62" y="-179.2" font-family="Helvetica,sans-Serif" font-size="14.00">ActionExt\__construct</text>
</a>
</g>
</g>
<!-- Node1&#45;&gt;Node2 -->
<g id="edge1_Node000001_Node000002" class="edge">
<title>Node1&#45;&gt;Node2</title>
<g id="a_edge1_Node000001_Node000002"><a xlink:title=" ">
<path fill="none" stroke="#63b8ff" d="M237.16,-117.39C216.69,-131.41 187.24,-150.05 159.25,-162.25 151.19,-165.76 142.43,-168.86 133.77,-171.55"/>
<polygon fill="#63b8ff" stroke="#63b8ff" points="239,-120.38 245.21,-111.79 235,-114.63 239,-120.38"/>
</a>
</g>
</g>
<!-- Node3 -->
<g id="Node000003" class="node">
<title>Node3</title>
<g id="a_Node000003"><a xlink:href="../../d1/d42/classActionExt.html#af687ce78e7efc214204064a9afb1b701" target="_top" xlink:title=" ">
<polygon fill="white" stroke="#666666" points="159.25,-153.5 0,-153.5 0,-129 159.25,-129 159.25,-153.5"/>
<text text-anchor="middle" x="79.62" y="-136.2" font-family="Helvetica,sans-Serif" font-size="14.00">ActionExt\procRefresh</text>
</a>
</g>
</g>
<!-- Node1&#45;&gt;Node3 -->
<g id="edge2_Node000001_Node000003" class="edge">
<title>Node1&#45;&gt;Node3</title>
<g id="a_edge2_Node000001_Node000003"><a xlink:title=" ">
<path fill="none" stroke="#63b8ff" d="M198.74,-113.51C177.82,-118.43 154.88,-123.81 134.83,-128.52"/>
<polygon fill="#63b8ff" stroke="#63b8ff" points="199.39,-116.96 208.32,-111.26 197.79,-110.14 199.39,-116.96"/>
</a>
</g>
</g>
<!-- Node4 -->
<g id="Node000004" class="node">
<title>Node4</title>
<g id="a_Node000004"><a xlink:href="../../d1/d42/classActionExt.html#a773acee7f7d11b500400d4c897323076" target="_top" xlink:title=" ">
<polygon fill="white" stroke="#666666" points="156.62,-110.5 2.62,-110.5 2.62,-86 156.62,-86 156.62,-110.5"/>
<text text-anchor="middle" x="79.62" y="-93.2" font-family="Helvetica,sans-Serif" font-size="14.00">ActionExt\procReload</text>
</a>
</g>
</g>
<!-- Node1&#45;&gt;Node4 -->
<g id="edge3_Node000001_Node000004" class="edge">
<title>Node1&#45;&gt;Node4</title>
<g id="a_edge3_Node000001_Node000004"><a xlink:title=" ">
<path fill="none" stroke="#63b8ff" d="M183.34,-98.25C174.55,-98.25 165.63,-98.25 156.89,-98.25"/>
<polygon fill="#63b8ff" stroke="#63b8ff" points="183.27,-101.75 193.27,-98.25 183.27,-94.75 183.27,-101.75"/>
</a>
</g>
</g>
<!-- Node5 -->
<g id="Node000005" class="node">
<title>Node5</title>
<g id="a_Node000005"><a xlink:href="../../d1/d42/classActionExt.html#a03eaf499e37fc62d4c62f800b96dd2b6" target="_top" xlink:title=" ">
<polygon fill="white" stroke="#666666" points="148.38,-67.5 10.88,-67.5 10.88,-43 148.38,-43 148.38,-67.5"/>
<text text-anchor="middle" x="79.62" y="-50.2" font-family="Helvetica,sans-Serif" font-size="14.00">ActionExt\procStart</text>
</a>
</g>
</g>
<!-- Node1&#45;&gt;Node5 -->
<g id="edge4_Node000001_Node000005" class="edge">
<title>Node1&#45;&gt;Node5</title>
<g id="a_edge4_Node000001_Node000005"><a xlink:title=" ">
<path fill="none" stroke="#63b8ff" d="M198.74,-82.99C177.82,-78.07 154.88,-72.69 134.83,-67.98"/>
<polygon fill="#63b8ff" stroke="#63b8ff" points="197.79,-86.36 208.32,-85.24 199.39,-79.54 197.79,-86.36"/>
</a>
</g>
</g>
<!-- Node6 -->
<g id="Node000006" class="node">
<title>Node6</title>
<g id="a_Node000006"><a xlink:href="../../d1/d42/classActionExt.html#ac504fe5a10590fd7bbb93aad7b32c5b9" target="_top" xlink:title=" ">
<polygon fill="white" stroke="#666666" points="148.75,-24.5 10.5,-24.5 10.5,0 148.75,0 148.75,-24.5"/>
<text text-anchor="middle" x="79.62" y="-7.2" font-family="Helvetica,sans-Serif" font-size="14.00">ActionExt\procStop</text>
</a>
</g>
</g>
<!-- Node1&#45;&gt;Node6 -->
<g id="edge5_Node000001_Node000006" class="edge">
<title>Node1&#45;&gt;Node6</title>
<g id="a_edge5_Node000001_Node000006"><a xlink:title=" ">
<path fill="none" stroke="#63b8ff" d="M237.16,-79.11C216.69,-65.09 187.24,-46.45 159.25,-34.25 151.19,-30.74 142.43,-27.64 133.77,-24.95"/>
<polygon fill="#63b8ff" stroke="#63b8ff" points="235,-81.87 245.21,-84.71 239,-76.12 235,-81.87"/>
</a>
</g>
</g>
</g>
</svg>
</svg>

<style type='text/css'>
<![CDATA[
[data-mouse-over-selected='false'] { opacity: 0.7; }
[data-mouse-over-selected='true']  { opacity: 1.0; }
]]>
</style>
<script type="application/ecmascript"><![CDATA[
document.addEventListener('DOMContentLoaded', (event) => {
  highlightEdges();
  highlightAdjacentNodes();
});
]]></script>
</svg>
