<?xml version="1.0" encoding="UTF-8" standalone="no"?>
<!--
  - Copyright (c) 2021-2024 Bearsampp
  - License:  GNU General Public License version 3 or later; see LICENSE.txt
  - Author: Bear
  - Website: https://bearsampp.com
  - Github: https://github.com/Bearsampp
  -->

<!DOCTYPE svg PUBLIC "-//W3C//DTD SVG 1.1//EN"
 "http://www.w3.org/Graphics/SVG/1.1/DTD/svg11.dtd">
<!-- Generated by graphviz version 11.0.0 (20240428.1522)
 -->
<!-- Title: BinPhp\isExtensionExcluded Pages: 1 -->
<svg width="702pt" height="92pt"
 viewBox="0.00 0.00 701.75 91.75" xmlns="http://www.w3.org/2000/svg" xmlns:xlink="http://www.w3.org/1999/xlink">
<g id="graph0" class="graph" transform="scale(1 1) rotate(0) translate(4 87.75)">
<title>BinPhp\isExtensionExcluded</title>
<!-- Node1 -->
<g id="Node000001" class="node">
<title>Node1</title>
<g id="a_Node000001"><a xlink:title=" ">
<polygon fill="#999999" stroke="#666666" points="693.75,-49.5 496.25,-49.5 496.25,-25 693.75,-25 693.75,-49.5"/>
<text text-anchor="middle" x="595" y="-32.2" font-family="Helvetica,sans-Serif" font-size="14.00">BinPhp\isExtensionExcluded</text>
</a>
</g>
</g>
<!-- Node2 -->
<g id="Node000002" class="node">
<title>Node2</title>
<g id="a_Node000002"><a xlink:href="../../dc/db3/classBinPhp.html#a05e71ee4ab38e15869cb705c6ba44a1c" target="_top" xlink:title=" ">
<polygon fill="white" stroke="#666666" points="460.25,-24.5 240.25,-24.5 240.25,0 460.25,0 460.25,-24.5"/>
<text text-anchor="middle" x="350.25" y="-7.2" font-family="Helvetica,sans-Serif" font-size="14.00">BinPhp\getExtensionsFromConf</text>
</a>
</g>
</g>
<!-- Node1&#45;&gt;Node2 -->
<g id="edge1_Node000001_Node000002" class="edge">
<title>Node1&#45;&gt;Node2</title>
<g id="a_edge1_Node000001_Node000002"><a xlink:title=" ">
<path fill="none" stroke="#63b8ff" d="M484.63,-25.99C476.57,-25.16 468.44,-24.32 460.39,-23.49"/>
<polygon fill="#63b8ff" stroke="#63b8ff" points="484.15,-29.46 494.46,-27 484.87,-22.49 484.15,-29.46"/>
</a>
</g>
</g>
<!-- Node5 -->
<g id="Node000005" class="node">
<title>Node5</title>
<g id="a_Node000005"><a xlink:href="../../dc/db3/classBinPhp.html#a0f352ec713990b6844a9b8feb583cc40" target="_top" xlink:title=" ">
<polygon fill="white" stroke="#666666" points="444.88,-83.75 255.62,-83.75 255.62,-42.75 444.88,-42.75 444.88,-83.75"/>
<text text-anchor="start" x="263.62" y="-66.45" font-family="Helvetica,sans-Serif" font-size="14.00">BinPhp\getExtensionsFrom</text>
<text text-anchor="middle" x="350.25" y="-49.95" font-family="Helvetica,sans-Serif" font-size="14.00">Folder</text>
</a>
</g>
</g>
<!-- Node1&#45;&gt;Node5 -->
<g id="edge4_Node000001_Node000005" class="edge">
<title>Node1&#45;&gt;Node5</title>
<g id="a_edge4_Node000001_Node000005"><a xlink:title=" ">
<path fill="none" stroke="#63b8ff" d="M484.53,-48.98C471.44,-50.38 458.17,-51.8 445.32,-53.17"/>
<polygon fill="#63b8ff" stroke="#63b8ff" points="484.89,-52.46 494.46,-47.91 484.14,-45.5 484.89,-52.46"/>
</a>
</g>
</g>
<!-- Node3 -->
<g id="Node000003" class="node">
<title>Node3</title>
<g id="a_Node000003"><a xlink:href="../../dc/db3/classBinPhp.html#ad33e2bf1e933c6e0e117df325313022a" target="_top" xlink:title=" ">
<polygon fill="white" stroke="#666666" points="179.88,-71.5 24.38,-71.5 24.38,-47 179.88,-47 179.88,-71.5"/>
<text text-anchor="middle" x="102.12" y="-54.2" font-family="Helvetica,sans-Serif" font-size="14.00">BinPhp\getExtensions</text>
</a>
</g>
</g>
<!-- Node2&#45;&gt;Node3 -->
<g id="edge2_Node000002_Node000003" class="edge">
<title>Node2&#45;&gt;Node3</title>
<g id="a_edge2_Node000002_Node000003"><a xlink:title=" ">
<path fill="none" stroke="#63b8ff" d="M271.75,-27.05C239.01,-33.3 201.26,-40.51 169.78,-46.52"/>
<polygon fill="#63b8ff" stroke="#63b8ff" points="271.99,-30.57 281.16,-25.25 270.68,-23.69 271.99,-30.57"/>
</a>
</g>
</g>
<!-- Node4 -->
<g id="Node000004" class="node">
<title>Node4</title>
<g id="a_Node000004"><a xlink:href="../../dc/db3/classBinPhp.html#aad8189c62ad93da1bc1217f1cc6df065" target="_top" xlink:title=" ">
<polygon fill="white" stroke="#666666" points="204.25,-24.5 0,-24.5 0,0 204.25,0 204.25,-24.5"/>
<text text-anchor="middle" x="102.12" y="-7.2" font-family="Helvetica,sans-Serif" font-size="14.00">BinPhp\getExtensionsLoaded</text>
</a>
</g>
</g>
<!-- Node2&#45;&gt;Node4 -->
<g id="edge3_Node000002_Node000004" class="edge">
<title>Node2&#45;&gt;Node4</title>
<g id="a_edge3_Node000002_Node000004"><a xlink:title=" ">
<path fill="none" stroke="#63b8ff" d="M228.6,-12.25C220.62,-12.25 212.62,-12.25 204.74,-12.25"/>
<polygon fill="#63b8ff" stroke="#63b8ff" points="228.35,-15.75 238.35,-12.25 228.35,-8.75 228.35,-15.75"/>
</a>
</g>
</g>
<!-- Node5&#45;&gt;Node3 -->
<g id="edge5_Node000005_Node000003" class="edge">
<title>Node5&#45;&gt;Node3</title>
<g id="a_edge5_Node000005_Node000003"><a xlink:title=" ">
<path fill="none" stroke="#63b8ff" d="M243.7,-61.53C222.3,-61.19 200.18,-60.83 180,-60.5"/>
<polygon fill="#63b8ff" stroke="#63b8ff" points="243.58,-65.03 253.63,-61.7 243.69,-58.03 243.58,-65.03"/>
</a>
</g>
</g>
</g>
</svg>
