<?xml version="1.0" encoding="UTF-8" standalone="no"?>
<!--
  - Copyright (c) 2021-2024 Bearsampp
  - License:  GNU General Public License version 3 or later; see LICENSE.txt
  - Author: Bear
  - Website: https://bearsampp.com
  - Github: https://github.com/Bearsampp
  -->

<!DOCTYPE svg PUBLIC "-//W3C//DTD SVG 1.1//EN"
 "http://www.w3.org/Graphics/SVG/1.1/DTD/svg11.dtd">
<!-- Generated by graphviz version 11.0.0 (20240428.1522)
 -->
<!-- Title: BinPhp\getConf Pages: 1 -->
<!--zoomable 183 -->

<svg id="main" version="1.1" xmlns="http://www.w3.org/2000/svg" xmlns:xlink="http://www.w3.org/1999/xlink" xml:space="preserve" onload="init(evt)">
<style type="text/css"><![CDATA[
.node, .edge {opacity: 0.7;}
.node.selected, .edge.selected {opacity: 1;}
.edge:hover path { stroke: red; }
.edge:hover polygon { stroke: red; fill: red; }
]]></style>

<defs>
  <circle id="rim" cx="0" cy="0" r="7"/>
  <circle id="rim2" cx="0" cy="0" r="3.5"/>
  <g id="zoomPlus">
    <use xlink:href="#rim" fill="#404040"><set attributeName="fill" to="#808080" begin="zoomplus.mouseover" end="zoomplus.mouseout"/></use>
    <path d="M-4,0h8M0,-4v8" fill="none" stroke="white" stroke-width="1.5" pointer-events="none"/>
  </g>
  <g id="zoomMin">
    <use xlink:href="#rim" fill="#404040"><set attributeName="fill" to="#808080" begin="zoomminus.mouseover" end="zoomminus.mouseout"/></use>
    <path d="M-4,0h8" fill="none" stroke="white" stroke-width="1.5" pointer-events="none"/>
  </g>
  <g id="arrowUp" transform="translate(30 24)">
    <use xlink:href="#rim"/>
    <path pointer-events="none" fill="none" stroke="white" stroke-width="1.5" d="M0,-3.0v7 M-2.5,-0.5L0,-3.0L2.5,-0.5"/>
  </g>
  <g id="arrowRight" transform="rotate(90) translate(36 -43)">
    <use xlink:href="#rim"/>
    <path pointer-events="none" fill="none" stroke="white" stroke-width="1.5" d="M0,-3.0v7 M-2.5,-0.5L0,-3.0L2.5,-0.5"/>
  </g>
  <g id="arrowDown" transform="rotate(180) translate(-30 -48)">
    <use xlink:href="#rim"/>
    <path pointer-events="none" fill="none" stroke="white" stroke-width="1.5" d="M0,-3.0v7 M-2.5,-0.5L0,-3.0L2.5,-0.5"/>
  </g>
  <g id="arrowLeft" transform="rotate(270) translate(-36 17)">
    <use xlink:href="#rim"/>
    <path pointer-events="none" fill="none" stroke="white" stroke-width="1.5" d="M0,-3.0v7 M-2.5,-0.5L0,-3.0L2.5,-0.5"/>
  </g>
  <g id="resetDef">
    <use xlink:href="#rim2" fill="#404040"><set attributeName="fill" to="#808080" begin="reset.mouseover" end="reset.mouseout"/></use>
  </g>
</defs>
<script type="application/ecmascript">
var viewWidth = 621;
var viewHeight = 183;
var sectionId = 'dynsection-3';
</script>
<script type="application/ecmascript" xlink:href="../../svg.min.js"/>
<svg id="graph" class="graph">
<g id="viewport">
<title>BinPhp\getConf</title>
<!-- Node1 -->
<g id="Node000001" class="node">
<title>Node1</title>
<g id="a_Node000001"><a xlink:title=" ">
<polygon fill="#999999" stroke="#666666" points="612.75,-88.5 496.25,-88.5 496.25,-64 612.75,-64 612.75,-88.5"/>
<text text-anchor="middle" x="554.5" y="-71.2" font-family="Helvetica,sans-Serif" font-size="14.00">BinPhp\getConf</text>
</a>
</g>
</g>
<!-- Node2 -->
<g id="Node000002" class="node">
<title>Node2</title>
<g id="a_Node000002"><a xlink:href="../../dc/db3/classBinPhp.html#a05e71ee4ab38e15869cb705c6ba44a1c" target="_top" xlink:title=" ">
<polygon fill="white" stroke="#666666" points="460.25,-153.5 240.25,-153.5 240.25,-129 460.25,-129 460.25,-153.5"/>
<text text-anchor="middle" x="350.25" y="-136.2" font-family="Helvetica,sans-Serif" font-size="14.00">BinPhp\getExtensionsFromConf</text>
</a>
</g>
</g>
<!-- Node1&#45;&gt;Node2 -->
<g id="edge1_Node000001_Node000002" class="edge">
<title>Node1&#45;&gt;Node2</title>
<g id="a_edge1_Node000001_Node000002"><a xlink:title=" ">
<path fill="none" stroke="#63b8ff" d="M519.76,-94.12C502.38,-102.73 480.6,-112.61 460.25,-119.25 449.33,-122.82 437.6,-125.91 426.02,-128.56"/>
<polygon fill="#63b8ff" stroke="#63b8ff" points="521.27,-97.28 528.62,-89.65 518.11,-91.04 521.27,-97.28"/>
</a>
</g>
</g>
<!-- Node5 -->
<g id="Node000005" class="node">
<title>Node5</title>
<g id="a_Node000005"><a xlink:href="../../dc/db3/classBinPhp.html#ac95e34fa1817ab3de80febabaa0c9c8d" target="_top" xlink:title=" ">
<polygon fill="white" stroke="#666666" points="429.88,-110.5 270.62,-110.5 270.62,-86 429.88,-86 429.88,-110.5"/>
<text text-anchor="middle" x="350.25" y="-93.2" font-family="Helvetica,sans-Serif" font-size="14.00">BinPhp\isSettingActive</text>
</a>
</g>
</g>
<!-- Node1&#45;&gt;Node5 -->
<g id="edge4_Node000001_Node000005" class="edge">
<title>Node1&#45;&gt;Node5</title>
<g id="a_edge4_Node000001_Node000005"><a xlink:title=" ">
<path fill="none" stroke="#63b8ff" d="M484.54,-83.75C467.04,-85.66 448.09,-87.72 430.14,-89.67"/>
<polygon fill="#63b8ff" stroke="#63b8ff" points="484.75,-87.25 494.31,-82.69 483.99,-80.29 484.75,-87.25"/>
</a>
</g>
</g>
<!-- Node6 -->
<g id="Node000006" class="node">
<title>Node6</title>
<g id="a_Node000006"><a xlink:href="../../dc/db3/classBinPhp.html#afc5fdbcad55a33ec24a1097b3e5e5aa1" target="_top" xlink:title=" ">
<polygon fill="white" stroke="#666666" points="429.5,-67.5 271,-67.5 271,-43 429.5,-43 429.5,-67.5"/>
<text text-anchor="middle" x="350.25" y="-50.2" font-family="Helvetica,sans-Serif" font-size="14.00">BinPhp\isSettingExists</text>
</a>
</g>
</g>
<!-- Node1&#45;&gt;Node6 -->
<g id="edge5_Node000001_Node000006" class="edge">
<title>Node1&#45;&gt;Node6</title>
<g id="a_edge5_Node000001_Node000006"><a xlink:title=" ">
<path fill="none" stroke="#63b8ff" d="M484.48,-69.08C466.87,-67.25 447.81,-65.28 429.76,-63.4"/>
<polygon fill="#63b8ff" stroke="#63b8ff" points="484,-72.55 494.31,-70.1 484.72,-65.59 484,-72.55"/>
</a>
</g>
</g>
<!-- Node7 -->
<g id="Node000007" class="node">
<title>Node7</title>
<g id="a_Node000007"><a xlink:href="../../dc/db3/classBinPhp.html#a9b92767dc6a36f70a22985c54c9c6808" target="_top" xlink:title=" ">
<polygon fill="white" stroke="#666666" points="425.75,-24.5 274.75,-24.5 274.75,0 425.75,0 425.75,-24.5"/>
<text text-anchor="middle" x="350.25" y="-7.2" font-family="Helvetica,sans-Serif" font-size="14.00">BinPhp\updateConfig</text>
</a>
</g>
</g>
<!-- Node1&#45;&gt;Node7 -->
<g id="edge6_Node000001_Node000007" class="edge">
<title>Node1&#45;&gt;Node7</title>
<g id="a_edge6_Node000001_Node000007"><a xlink:title=" ">
<path fill="none" stroke="#63b8ff" d="M519.36,-58.65C502.02,-50.29 480.41,-40.73 460.25,-34.25 449.22,-30.7 437.38,-27.61 425.7,-24.95"/>
<polygon fill="#63b8ff" stroke="#63b8ff" points="517.67,-61.72 528.19,-62.99 520.76,-55.44 517.67,-61.72"/>
</a>
</g>
</g>
<!-- Node3 -->
<g id="Node000003" class="node">
<title>Node3</title>
<g id="a_Node000003"><a xlink:href="../../dc/db3/classBinPhp.html#ad33e2bf1e933c6e0e117df325313022a" target="_top" xlink:title=" ">
<polygon fill="white" stroke="#666666" points="179.88,-174.5 24.38,-174.5 24.38,-150 179.88,-150 179.88,-174.5"/>
<text text-anchor="middle" x="102.12" y="-157.2" font-family="Helvetica,sans-Serif" font-size="14.00">BinPhp\getExtensions</text>
</a>
</g>
</g>
<!-- Node2&#45;&gt;Node3 -->
<g id="edge2_Node000002_Node000003" class="edge">
<title>Node2&#45;&gt;Node3</title>
<g id="a_edge2_Node000002_Node000003"><a xlink:title=" ">
<path fill="none" stroke="#63b8ff" d="M228.49,-151.55C212.02,-152.96 195.5,-154.37 180.11,-155.68"/>
<polygon fill="#63b8ff" stroke="#63b8ff" points="228.69,-155.05 238.35,-150.71 228.09,-148.07 228.69,-155.05"/>
</a>
</g>
</g>
<!-- Node4 -->
<g id="Node000004" class="node">
<title>Node4</title>
<g id="a_Node000004"><a xlink:href="../../dc/db3/classBinPhp.html#aad8189c62ad93da1bc1217f1cc6df065" target="_top" xlink:title=" ">
<polygon fill="white" stroke="#666666" points="204.25,-131.5 0,-131.5 0,-107 204.25,-107 204.25,-131.5"/>
<text text-anchor="middle" x="102.12" y="-114.2" font-family="Helvetica,sans-Serif" font-size="14.00">BinPhp\getExtensionsLoaded</text>
</a>
</g>
</g>
<!-- Node2&#45;&gt;Node4 -->
<g id="edge3_Node000002_Node000004" class="edge">
<title>Node2&#45;&gt;Node4</title>
<g id="a_edge3_Node000002_Node000004"><a xlink:title=" ">
<path fill="none" stroke="#63b8ff" d="M228.6,-130.47C220.62,-129.75 212.62,-129.04 204.74,-128.33"/>
<polygon fill="#63b8ff" stroke="#63b8ff" points="228.08,-133.93 238.36,-131.34 228.71,-126.96 228.08,-133.93"/>
</a>
</g>
</g>
<!-- Node8 -->
<g id="Node000008" class="node">
<title>Node8</title>
<g id="a_Node000008"><a xlink:href="../../dc/db3/classBinPhp.html#a2d9502d15fb68361643bcd91d3d1b81a" target="_top" xlink:title=" ">
<polygon fill="white" stroke="#666666" points="178.75,-24.5 25.5,-24.5 25.5,0 178.75,0 178.75,-24.5"/>
<text text-anchor="middle" x="102.12" y="-7.2" font-family="Helvetica,sans-Serif" font-size="14.00">BinPhp\switchVersion</text>
</a>
</g>
</g>
<!-- Node7&#45;&gt;Node8 -->
<g id="edge7_Node000007_Node000008" class="edge">
<title>Node7&#45;&gt;Node8</title>
<g id="a_edge7_Node000007_Node000008"><a xlink:title=" ">
<path fill="none" stroke="#63b8ff" d="M263.22,-12.25C235.75,-12.25 205.57,-12.25 178.89,-12.25"/>
<polygon fill="#63b8ff" stroke="#63b8ff" points="262.89,-15.75 272.89,-12.25 262.89,-8.75 262.89,-15.75"/>
</a>
</g>
</g>
</g>
</svg>

<g id="navigator" transform="translate(0 0)" fill="#404254">
  <rect fill="#f2f5e9" fill-opacity="0.5" stroke="#606060" stroke-width=".5" x="0" y="0" width="60" height="60"/>
  <use id="zoomplus" xlink:href="#zoomPlus" x="17" y="9" onmousedown="handleZoom(evt,'in')"/>
  <use id="zoomminus" xlink:href="#zoomMin" x="42" y="9" onmousedown="handleZoom(evt,'out')"/>
  <use id="reset" xlink:href="#resetDef" x="30" y="36" onmousedown="handleReset()"/>
   <use id="arrowup" xlink:href="#arrowUp" x="0" y="0" onmousedown="handlePan(0,-1)"/>
  <use id="arrowright" xlink:href="#arrowRight" x="0" y="0" onmousedown="handlePan(1,0)"/>
  <use id="arrowdown" xlink:href="#arrowDown" x="0" y="0" onmousedown="handlePan(0,1)"/>
  <use id="arrowleft" xlink:href="#arrowLeft" x="0" y="0" onmousedown="handlePan(-1,0)"/>
</g>
<svg viewBox="0 0 15 15" width="100%" height="30px" preserveAspectRatio="xMaxYMin meet">
 <g id="arrow_out" transform="scale(0.3 0.3)">
  <a xlink:href="classBinPhp_a538ec294df9a59f4531651f6c4799d72_icgraph_org.svg" target="_base">
   <rect id="button" ry="5" rx="5" y="6" x="6" height="38" width="38"
        fill="#f2f5e9" fill-opacity="0.5" stroke="#606060" stroke-width="1.0"/>
   <path id="arrow"
     d="M 11.500037,31.436501 C 11.940474,20.09759 22.043105,11.32322 32.158766,21.979434 L 37.068811,17.246167 C 37.068811,17.246167 37.088388,32 37.088388,32 L 22.160133,31.978069 C 22.160133,31.978069 26.997745,27.140456 26.997745,27.140456 C 18.528582,18.264221 13.291696,25.230495 11.500037,31.436501 z"
     style="fill:#404040;"/>
  </a>
 </g>
</svg>

<style type='text/css'>
<![CDATA[
[data-mouse-over-selected='false'] { opacity: 0.7; }
[data-mouse-over-selected='true']  { opacity: 1.0; }
]]>
</style>
<script type="application/ecmascript"><![CDATA[
document.addEventListener('DOMContentLoaded', (event) => {
  highlightEdges();
  highlightAdjacentNodes();
});
]]></script>
</svg>
