<?xml version="1.0" encoding="UTF-8" standalone="no"?>
<!--
  - Copyright (c) 2021-2024 Bearsampp
  - License:  GNU General Public License version 3 or later; see LICENSE.txt
  - Author: Bear
  - Website: https://bearsampp.com
  - Github: https://github.com/Bearsampp
  -->

<!DOCTYPE svg PUBLIC "-//W3C//DTD SVG 1.1//EN"
 "http://www.w3.org/Graphics/SVG/1.1/DTD/svg11.dtd">
<!-- Generated by graphviz version 11.0.0 (20240428.1522)
 -->
<!-- Title: BinPhp\setVersion Pages: 1 -->
<svg width="518pt" height="33pt"
 viewBox="0.00 0.00 518.00 32.50" xmlns="http://www.w3.org/2000/svg" xmlns:xlink="http://www.w3.org/1999/xlink">
<g id="graph0" class="graph" transform="scale(1 1) rotate(0) translate(4 28.5)">
<title>BinPhp\setVersion</title>
<!-- Node1 -->
<g id="Node000001" class="node">
<title>Node1</title>
<g id="a_Node000001"><a xlink:title=" ">
<polygon fill="#999999" stroke="#666666" points="510,-24.5 376.25,-24.5 376.25,0 510,0 510,-24.5"/>
<text text-anchor="middle" x="443.12" y="-7.2" font-family="Helvetica,sans-Serif" font-size="14.00">BinPhp\setVersion</text>
</a>
</g>
</g>
<!-- Node2 -->
<g id="Node000002" class="node">
<title>Node2</title>
<g id="a_Node000002"><a xlink:href="../../dc/db3/classBinPhp.html#a9b92767dc6a36f70a22985c54c9c6808" target="_top" xlink:title=" ">
<polygon fill="white" stroke="#666666" points="340.25,-24.5 189.25,-24.5 189.25,0 340.25,0 340.25,-24.5"/>
<text text-anchor="middle" x="264.75" y="-7.2" font-family="Helvetica,sans-Serif" font-size="14.00">BinPhp\updateConfig</text>
</a>
</g>
</g>
<!-- Node1&#45;&gt;Node2 -->
<g id="edge1_Node000001_Node000002" class="edge">
<title>Node1&#45;&gt;Node2</title>
<g id="a_edge1_Node000001_Node000002"><a xlink:title=" ">
<path fill="none" stroke="#63b8ff" d="M364.45,-12.25C356.53,-12.25 348.49,-12.25 340.59,-12.25"/>
<polygon fill="#63b8ff" stroke="#63b8ff" points="364.43,-15.75 374.43,-12.25 364.43,-8.75 364.43,-15.75"/>
</a>
</g>
</g>
<!-- Node3 -->
<g id="Node000003" class="node">
<title>Node3</title>
<g id="a_Node000003"><a xlink:href="../../dc/db3/classBinPhp.html#a2d9502d15fb68361643bcd91d3d1b81a" target="_top" xlink:title=" ">
<polygon fill="white" stroke="#666666" points="153.25,-24.5 0,-24.5 0,0 153.25,0 153.25,-24.5"/>
<text text-anchor="middle" x="76.62" y="-7.2" font-family="Helvetica,sans-Serif" font-size="14.00">BinPhp\switchVersion</text>
</a>
</g>
</g>
<!-- Node2&#45;&gt;Node3 -->
<g id="edge2_Node000002_Node000003" class="edge">
<title>Node2&#45;&gt;Node3</title>
<g id="a_edge2_Node000002_Node000003"><a xlink:title=" ">
<path fill="none" stroke="#63b8ff" d="M177.59,-12.25C169.58,-12.25 161.5,-12.25 153.58,-12.25"/>
<polygon fill="#63b8ff" stroke="#63b8ff" points="177.34,-15.75 187.34,-12.25 177.34,-8.75 177.34,-15.75"/>
</a>
</g>
</g>
</g>
</svg>
