<?xml version="1.0" encoding="UTF-8" standalone="no"?>
<!--
  - Copyright (c) 2021-2024 Bearsampp
  - License:  GNU General Public License version 3 or later; see LICENSE.txt
  - Author: Bear
  - Website: https://bearsampp.com
  - Github: https://github.com/Bearsampp
  -->

<!DOCTYPE svg PUBLIC "-//W3C//DTD SVG 1.1//EN"
 "http://www.w3.org/Graphics/SVG/1.1/DTD/svg11.dtd">
<!-- Generated by graphviz version 11.0.0 (20240428.1522)
 -->
<!-- Title: BinPhp\reload Pages: 1 -->
<svg width="665pt" height="119pt"
 viewBox="0.00 0.00 665.25 118.50" xmlns="http://www.w3.org/2000/svg" xmlns:xlink="http://www.w3.org/1999/xlink">
<g id="graph0" class="graph" transform="scale(1 1) rotate(0) translate(4 114.5)">
<title>BinPhp\reload</title>
<!-- Node1 -->
<g id="Node000001" class="node">
<title>Node1</title>
<g id="a_Node000001"><a xlink:title=" ">
<polygon fill="#999999" stroke="#666666" points="657.25,-67.5 552,-67.5 552,-43 657.25,-43 657.25,-67.5"/>
<text text-anchor="middle" x="604.62" y="-50.2" font-family="Helvetica,sans-Serif" font-size="14.00">BinPhp\reload</text>
</a>
</g>
</g>
<!-- Node2 -->
<g id="Node000002" class="node">
<title>Node2</title>
<g id="a_Node000002"><a xlink:href="../../dc/db3/classBinPhp.html#a9cf4dc2fe94f048849732fde504031b8" target="_top" xlink:title=" ">
<polygon fill="white" stroke="#666666" points="516,-110.5 376.25,-110.5 376.25,-86 516,-86 516,-110.5"/>
<text text-anchor="middle" x="446.12" y="-93.2" font-family="Helvetica,sans-Serif" font-size="14.00">BinPhp\__construct</text>
</a>
</g>
</g>
<!-- Node1&#45;&gt;Node2 -->
<g id="edge1_Node000001_Node000002" class="edge">
<title>Node1&#45;&gt;Node2</title>
<g id="a_edge1_Node000001_Node000002"><a xlink:title=" ">
<path fill="none" stroke="#63b8ff" d="M546.83,-70.85C529.29,-75.67 510.19,-80.92 493.44,-85.52"/>
<polygon fill="#63b8ff" stroke="#63b8ff" points="547.34,-74.34 556.06,-68.32 545.49,-67.59 547.34,-74.34"/>
</a>
</g>
</g>
<!-- Node3 -->
<g id="Node000003" class="node">
<title>Node3</title>
<g id="a_Node000003"><a xlink:href="../../dc/db3/classBinPhp.html#a89be847e34d7efd92078d2aa07137422" target="_top" xlink:title=" ">
<polygon fill="white" stroke="#666666" points="510.75,-67.5 381.5,-67.5 381.5,-43 510.75,-43 510.75,-67.5"/>
<text text-anchor="middle" x="446.12" y="-50.2" font-family="Helvetica,sans-Serif" font-size="14.00">BinPhp\setEnable</text>
</a>
</g>
</g>
<!-- Node1&#45;&gt;Node3 -->
<g id="edge2_Node000001_Node000003" class="edge">
<title>Node1&#45;&gt;Node3</title>
<g id="a_edge2_Node000001_Node000003"><a xlink:title=" ">
<path fill="none" stroke="#63b8ff" d="M540.02,-55.25C530.45,-55.25 520.57,-55.25 510.99,-55.25"/>
<polygon fill="#63b8ff" stroke="#63b8ff" points="540,-58.75 550,-55.25 540,-51.75 540,-58.75"/>
</a>
</g>
</g>
<!-- Node4 -->
<g id="Node000004" class="node">
<title>Node4</title>
<g id="a_Node000004"><a xlink:href="../../dc/db3/classBinPhp.html#ac7df2260e153b3030c87ea42469502e9" target="_top" xlink:title=" ">
<polygon fill="white" stroke="#666666" points="513,-24.5 379.25,-24.5 379.25,0 513,0 513,-24.5"/>
<text text-anchor="middle" x="446.12" y="-7.2" font-family="Helvetica,sans-Serif" font-size="14.00">BinPhp\setVersion</text>
</a>
</g>
</g>
<!-- Node1&#45;&gt;Node4 -->
<g id="edge3_Node000001_Node000004" class="edge">
<title>Node1&#45;&gt;Node4</title>
<g id="a_edge3_Node000001_Node000004"><a xlink:title=" ">
<path fill="none" stroke="#63b8ff" d="M546.83,-39.65C529.29,-34.83 510.19,-29.58 493.44,-24.98"/>
<polygon fill="#63b8ff" stroke="#63b8ff" points="545.49,-42.91 556.06,-42.18 547.34,-36.16 545.49,-42.91"/>
</a>
</g>
</g>
<!-- Node5 -->
<g id="Node000005" class="node">
<title>Node5</title>
<g id="a_Node000005"><a xlink:href="../../dc/db3/classBinPhp.html#a9b92767dc6a36f70a22985c54c9c6808" target="_top" xlink:title=" ">
<polygon fill="white" stroke="#666666" points="340.25,-24.5 189.25,-24.5 189.25,0 340.25,0 340.25,-24.5"/>
<text text-anchor="middle" x="264.75" y="-7.2" font-family="Helvetica,sans-Serif" font-size="14.00">BinPhp\updateConfig</text>
</a>
</g>
</g>
<!-- Node4&#45;&gt;Node5 -->
<g id="edge4_Node000004_Node000005" class="edge">
<title>Node4&#45;&gt;Node5</title>
<g id="a_edge4_Node000004_Node000005"><a xlink:title=" ">
<path fill="none" stroke="#63b8ff" d="M367.59,-12.25C358.61,-12.25 349.47,-12.25 340.53,-12.25"/>
<polygon fill="#63b8ff" stroke="#63b8ff" points="367.33,-15.75 377.33,-12.25 367.33,-8.75 367.33,-15.75"/>
</a>
</g>
</g>
<!-- Node6 -->
<g id="Node000006" class="node">
<title>Node6</title>
<g id="a_Node000006"><a xlink:href="../../dc/db3/classBinPhp.html#a2d9502d15fb68361643bcd91d3d1b81a" target="_top" xlink:title=" ">
<polygon fill="white" stroke="#666666" points="153.25,-24.5 0,-24.5 0,0 153.25,0 153.25,-24.5"/>
<text text-anchor="middle" x="76.62" y="-7.2" font-family="Helvetica,sans-Serif" font-size="14.00">BinPhp\switchVersion</text>
</a>
</g>
</g>
<!-- Node5&#45;&gt;Node6 -->
<g id="edge5_Node000005_Node000006" class="edge">
<title>Node5&#45;&gt;Node6</title>
<g id="a_edge5_Node000005_Node000006"><a xlink:title=" ">
<path fill="none" stroke="#63b8ff" d="M177.59,-12.25C169.58,-12.25 161.5,-12.25 153.58,-12.25"/>
<polygon fill="#63b8ff" stroke="#63b8ff" points="177.34,-15.75 187.34,-12.25 177.34,-8.75 177.34,-15.75"/>
</a>
</g>
</g>
</g>
</svg>
