<?xml version="1.0" encoding="UTF-8" standalone="no"?>
<!--
  - Copyright (c) 2021-2024 Bearsampp
  - License:  GNU General Public License version 3 or later; see LICENSE.txt
  - Author: Bear
  - Website: https://bearsampp.com
  - Github: https://github.com/Bearsampp
  -->

<!DOCTYPE svg PUBLIC "-//W3C//DTD SVG 1.1//EN"
 "http://www.w3.org/Graphics/SVG/1.1/DTD/svg11.dtd">
<!-- Generated by graphviz version 11.0.0 (20240428.1522)
 -->
<!-- Title: _make_file_filter Pages: 1 -->
<svg width="297pt" height="76pt"
 viewBox="0.00 0.00 297.25 75.50" xmlns="http://www.w3.org/2000/svg" xmlns:xlink="http://www.w3.org/1999/xlink">
<g id="graph0" class="graph" transform="scale(1 1) rotate(0) translate(4 71.5)">
<title>_make_file_filter</title>
<!-- Node1 -->
<g id="Node000001" class="node">
<title>Node1</title>
<g id="a_Node000001"><a xlink:title=" ">
<polygon fill="#999999" stroke="#666666" points="289.25,-45.5 168.25,-45.5 168.25,-21 289.25,-21 289.25,-45.5"/>
<text text-anchor="middle" x="228.75" y="-28.2" font-family="Helvetica,sans-Serif" font-size="14.00">_make_file_filter</text>
</a>
</g>
</g>
<!-- Node2 -->
<g id="Node000002" class="node">
<title>Node2</title>
<g id="a_Node000002"><a xlink:href="../../de/def/wb__windows_8inc_8php.html#ad51aaa8e0f8995810329ef7de3aa7cff" target="_top" xlink:title=" ">
<polygon fill="white" stroke="#666666" points="132.25,-67.5 0,-67.5 0,-43 132.25,-43 132.25,-67.5"/>
<text text-anchor="middle" x="66.12" y="-50.2" font-family="Helvetica,sans-Serif" font-size="14.00">wb_sys_dlg_open</text>
</a>
</g>
</g>
<!-- Node1&#45;&gt;Node2 -->
<g id="edge1_Node000001_Node000002" class="edge">
<title>Node1&#45;&gt;Node2</title>
<g id="a_edge1_Node000001_Node000002"><a xlink:title=" ">
<path fill="none" stroke="#63b8ff" d="M156.73,-42.98C148.72,-44.07 140.59,-45.19 132.65,-46.28"/>
<polygon fill="#63b8ff" stroke="#63b8ff" points="157.01,-46.47 166.44,-41.65 156.06,-39.54 157.01,-46.47"/>
</a>
</g>
</g>
<!-- Node3 -->
<g id="Node000003" class="node">
<title>Node3</title>
<g id="a_Node000003"><a xlink:href="../../de/def/wb__windows_8inc_8php.html#af41dd8fd2f03d83100ad702a5357af01" target="_top" xlink:title=" ">
<polygon fill="white" stroke="#666666" points="131.12,-24.5 1.12,-24.5 1.12,0 131.12,0 131.12,-24.5"/>
<text text-anchor="middle" x="66.12" y="-7.2" font-family="Helvetica,sans-Serif" font-size="14.00">wb_sys_dlg_save</text>
</a>
</g>
</g>
<!-- Node1&#45;&gt;Node3 -->
<g id="edge2_Node000001_Node000003" class="edge">
<title>Node1&#45;&gt;Node3</title>
<g id="a_edge2_Node000001_Node000003"><a xlink:title=" ">
<path fill="none" stroke="#63b8ff" d="M156.66,-23.96C148.31,-22.86 139.82,-21.75 131.56,-20.67"/>
<polygon fill="#63b8ff" stroke="#63b8ff" points="156.07,-27.41 166.44,-25.23 156.98,-20.47 156.07,-27.41"/>
</a>
</g>
</g>
</g>
</svg>
