<?xml version="1.0" encoding="UTF-8" standalone="no"?>
<!--
  - Copyright (c) 2021-2024 Bearsampp
  - License:  GNU General Public License version 3 or later; see LICENSE.txt
  - Author: Bear
  - Website: https://bearsampp.com
  - Github: https://github.com/Bearsampp
  -->

<!DOCTYPE svg PUBLIC "-//W3C//DTD SVG 1.1//EN"
 "http://www.w3.org/Graphics/SVG/1.1/DTD/svg11.dtd">
<!-- Generated by graphviz version 11.0.0 (20240428.1522)
 -->
<!-- Title: wb_create_items Pages: 1 -->
<svg width="430pt" height="33pt"
 viewBox="0.00 0.00 430.25 32.50" xmlns="http://www.w3.org/2000/svg" xmlns:xlink="http://www.w3.org/1999/xlink">
<g id="graph0" class="graph" transform="scale(1 1) rotate(0) translate(4 28.5)">
<title>wb_create_items</title>
<!-- Node1 -->
<g id="Node000001" class="node">
<title>Node1</title>
<g id="a_Node000001"><a xlink:title=" ">
<polygon fill="#999999" stroke="#666666" points="422.25,-24.5 297.5,-24.5 297.5,0 422.25,0 422.25,-24.5"/>
<text text-anchor="middle" x="359.88" y="-7.2" font-family="Helvetica,sans-Serif" font-size="14.00">wb_create_items</text>
</a>
</g>
</g>
<!-- Node2 -->
<g id="Node000002" class="node">
<title>Node2</title>
<g id="a_Node000002"><a xlink:href="../../de/def/wb__windows_8inc_8php.html#a3f40a83a1c5481ff5b8955952a659041" target="_top" xlink:title=" ">
<polygon fill="white" stroke="#666666" points="261.5,-24.5 169,-24.5 169,0 261.5,0 261.5,-24.5"/>
<text text-anchor="middle" x="215.25" y="-7.2" font-family="Helvetica,sans-Serif" font-size="14.00">wb_set_text</text>
</a>
</g>
</g>
<!-- Node1&#45;&gt;Node2 -->
<g id="edge1_Node000001_Node000002" class="edge">
<title>Node1&#45;&gt;Node2</title>
<g id="a_edge1_Node000001_Node000002"><a xlink:title=" ">
<path fill="none" stroke="#63b8ff" d="M285.65,-12.25C277.5,-12.25 269.39,-12.25 261.73,-12.25"/>
<polygon fill="#63b8ff" stroke="#63b8ff" points="285.63,-15.75 295.63,-12.25 285.63,-8.75 285.63,-15.75"/>
</a>
</g>
</g>
<!-- Node3 -->
<g id="Node000003" class="node">
<title>Node3</title>
<g id="a_Node000003"><a xlink:href="../../de/def/wb__windows_8inc_8php.html#ac030b72a95062b6bcd738351275aff02" target="_top" xlink:title=" ">
<polygon fill="white" stroke="#666666" points="133,-24.5 0,-24.5 0,0 133,0 133,-24.5"/>
<text text-anchor="middle" x="66.5" y="-7.2" font-family="Helvetica,sans-Serif" font-size="14.00">wb_create_control</text>
</a>
</g>
</g>
<!-- Node2&#45;&gt;Node3 -->
<g id="edge2_Node000002_Node000003" class="edge">
<title>Node2&#45;&gt;Node3</title>
<g id="a_edge2_Node000002_Node000003"><a xlink:title=" ">
<path fill="none" stroke="#63b8ff" d="M157.33,-12.25C149.45,-12.25 141.32,-12.25 133.3,-12.25"/>
<polygon fill="#63b8ff" stroke="#63b8ff" points="157.11,-15.75 167.11,-12.25 157.11,-8.75 157.11,-15.75"/>
</a>
</g>
</g>
</g>
</svg>
