<?xml version="1.0" encoding="UTF-8" standalone="no"?>
<!--
  - Copyright (c) 2021-2024 Bearsampp
  - License:  GNU General Public License version 3 or later; see LICENSE.txt
  - Author: Bear
  - Website: https://bearsampp.com
  - Github: https://github.com/Bearsampp
  -->

<!DOCTYPE svg PUBLIC "-//W3C//DTD SVG 1.1//EN"
 "http://www.w3.org/Graphics/SVG/1.1/DTD/svg11.dtd">
<!-- Generated by graphviz version 11.0.0 (20240428.1522)
 -->
<!-- Title: db_create_record Pages: 1 -->
<svg width="460pt" height="76pt"
 viewBox="0.00 0.00 460.25 75.50" xmlns="http://www.w3.org/2000/svg" xmlns:xlink="http://www.w3.org/1999/xlink">
<g id="graph0" class="graph" transform="scale(1 1) rotate(0) translate(4 71.5)">
<title>db_create_record</title>
<!-- Node1 -->
<g id="Node000001" class="node">
<title>Node1</title>
<g id="a_Node000001"><a xlink:title=" ">
<polygon fill="#999999" stroke="#666666" points="452.25,-45.5 322.25,-45.5 322.25,-21 452.25,-21 452.25,-45.5"/>
<text text-anchor="middle" x="387.25" y="-28.2" font-family="Helvetica,sans-Serif" font-size="14.00">db_create_record</text>
</a>
</g>
</g>
<!-- Node2 -->
<g id="Node000002" class="node">
<title>Node2</title>
<g id="a_Node000002"><a xlink:href="../../d9/d92/db__common_8inc_8php.html#a936f838f8c0e21031350e9354cab55d5" target="_top" xlink:title=" ">
<polygon fill="white" stroke="#666666" points="286.25,-67.5 166.75,-67.5 166.75,-43 286.25,-43 286.25,-67.5"/>
<text text-anchor="middle" x="226.5" y="-50.2" font-family="Helvetica,sans-Serif" font-size="14.00">db_create_table</text>
</a>
</g>
</g>
<!-- Node1&#45;&gt;Node2 -->
<g id="edge1_Node000001_Node000002" class="edge">
<title>Node1&#45;&gt;Node2</title>
<g id="a_edge1_Node000001_Node000002"><a xlink:title=" ">
<path fill="none" stroke="#63b8ff" d="M310.79,-43.71C302.71,-44.83 294.57,-45.96 286.72,-47.04"/>
<polygon fill="#63b8ff" stroke="#63b8ff" points="311.21,-47.18 320.64,-42.34 310.25,-40.25 311.21,-47.18"/>
</a>
</g>
</g>
<!-- Node3 -->
<g id="Node000003" class="node">
<title>Node3</title>
<g id="a_Node000003"><a xlink:href="../../d9/d92/db__common_8inc_8php.html#a3fceaf1354f4886f8e6d9ce79b9f0ce1" target="_top" xlink:title=" ">
<polygon fill="white" stroke="#666666" points="283.25,-24.5 169.75,-24.5 169.75,0 283.25,0 283.25,-24.5"/>
<text text-anchor="middle" x="226.5" y="-7.2" font-family="Helvetica,sans-Serif" font-size="14.00">db_edit_record</text>
</a>
</g>
</g>
<!-- Node1&#45;&gt;Node3 -->
<g id="edge2_Node000001_Node000003" class="edge">
<title>Node1&#45;&gt;Node3</title>
<g id="a_edge2_Node000001_Node000003"><a xlink:title=" ">
<path fill="none" stroke="#63b8ff" d="M310.99,-23.29C301.79,-22.08 292.52,-20.85 283.68,-19.68"/>
<polygon fill="#63b8ff" stroke="#63b8ff" points="310.26,-26.73 320.64,-24.57 311.18,-19.79 310.26,-26.73"/>
</a>
</g>
</g>
<!-- Node4 -->
<g id="Node000004" class="node">
<title>Node4</title>
<g id="a_Node000004"><a xlink:href="../../d9/d92/db__common_8inc_8php.html#a111b2e22e83336d81be9c2fae45a8adb" target="_top" xlink:title=" ">
<polygon fill="white" stroke="#666666" points="130.75,-24.5 0,-24.5 0,0 130.75,0 130.75,-24.5"/>
<text text-anchor="middle" x="65.38" y="-7.2" font-family="Helvetica,sans-Serif" font-size="14.00">db_swap_records</text>
</a>
</g>
</g>
<!-- Node3&#45;&gt;Node4 -->
<g id="edge3_Node000003_Node000004" class="edge">
<title>Node3&#45;&gt;Node4</title>
<g id="a_edge3_Node000003_Node000004"><a xlink:title=" ">
<path fill="none" stroke="#63b8ff" d="M157.92,-12.25C149.07,-12.25 140.02,-12.25 131.21,-12.25"/>
<polygon fill="#63b8ff" stroke="#63b8ff" points="157.88,-15.75 167.88,-12.25 157.88,-8.75 157.88,-15.75"/>
</a>
</g>
</g>
</g>
</svg>
