<?xml version="1.0" encoding="UTF-8" standalone="no"?>
<!--
  - Copyright (c) 2021-2024 Bearsampp
  - License:  GNU General Public License version 3 or later; see LICENSE.txt
  - Author: Bear
  - Website: https://bearsampp.com
  - Github: https://github.com/Bearsampp
  -->

<!DOCTYPE svg PUBLIC "-//W3C//DTD SVG 1.1//EN"
 "http://www.w3.org/Graphics/SVG/1.1/DTD/svg11.dtd">
<!-- Generated by graphviz version 11.0.0 (20240428.1522)
 -->
<!-- Title: WinBinder\callWinBinder Pages: 1 -->
<svg width="911pt" height="1530pt"
 viewBox="0.00 0.00 910.50 1529.50" xmlns="http://www.w3.org/2000/svg" xmlns:xlink="http://www.w3.org/1999/xlink">
<g id="graph0" class="graph" transform="scale(1 1) rotate(0) translate(4 1525.5)">
<title>WinBinder\callWinBinder</title>
<!-- Node1 -->
<g id="Node000001" class="node">
<title>Node1</title>
<g id="a_Node000001"><a xlink:title=" ">
<polygon fill="#999999" stroke="#666666" points="902.5,-733.5 729.75,-733.5 729.75,-709 902.5,-709 902.5,-733.5"/>
<text text-anchor="middle" x="816.12" y="-716.2" font-family="Helvetica,sans-Serif" font-size="14.00">WinBinder\callWinBinder</text>
</a>
</g>
</g>
<!-- Node2 -->
<g id="Node000002" class="node">
<title>Node2</title>
<g id="a_Node000002"><a xlink:href="../../db/da5/classWinBinder.html#a56c361fe48e0b8c6e62e4e72e0035946" target="_top" xlink:title=" ">
<polygon fill="white" stroke="#666666" points="687.38,-1387.5 516.12,-1387.5 516.12,-1363 687.38,-1363 687.38,-1387.5"/>
<text text-anchor="middle" x="601.75" y="-1370.2" font-family="Helvetica,sans-Serif" font-size="14.00">WinBinder\createControl</text>
</a>
</g>
</g>
<!-- Node1&#45;&gt;Node2 -->
<g id="edge1_Node000001_Node000002" class="edge">
<title>Node1&#45;&gt;Node2</title>
<g id="a_edge1_Node000001_Node000002"><a xlink:title=" ">
<path fill="none" stroke="#63b8ff" d="M813.59,-745.03C806.52,-847.52 773.95,-1250.45 693.75,-1343.25 686.41,-1351.74 676.68,-1357.98 666.32,-1362.56"/>
<polygon fill="#63b8ff" stroke="#63b8ff" points="817.06,-745.54 814.24,-735.33 810.08,-745.07 817.06,-745.54"/>
</a>
</g>
</g>
<!-- Node10 -->
<g id="Node000010" class="node">
<title>Node10</title>
<g id="a_Node000010"><a xlink:href="../../db/da5/classWinBinder.html#a739199633a3c16b4422622dd08b19fe3" target="_top" xlink:title=" ">
<polygon fill="white" stroke="#666666" points="678.75,-1248.5 524.75,-1248.5 524.75,-1224 678.75,-1224 678.75,-1248.5"/>
<text text-anchor="middle" x="601.75" y="-1231.2" font-family="Helvetica,sans-Serif" font-size="14.00">WinBinder\createFont</text>
</a>
</g>
</g>
<!-- Node1&#45;&gt;Node10 -->
<g id="edge9_Node000001_Node000010" class="edge">
<title>Node1&#45;&gt;Node10</title>
<g id="a_edge9_Node000001_Node000010"><a xlink:title=" ">
<path fill="none" stroke="#63b8ff" d="M812.38,-744.94C801.71,-833.2 760.2,-1141.43 693.75,-1210.25 688.39,-1215.81 681.92,-1220.2 674.95,-1223.67"/>
<polygon fill="#63b8ff" stroke="#63b8ff" points="815.85,-745.41 813.56,-735.07 808.9,-744.58 815.85,-745.41"/>
</a>
</g>
</g>
<!-- Node11 -->
<g id="Node000011" class="node">
<title>Node11</title>
<g id="a_Node000011"><a xlink:href="../../db/da5/classWinBinder.html#a61fa7e7f68b92adc86c4f3a6d52c9239" target="_top" xlink:title=" ">
<polygon fill="white" stroke="#666666" points="682.88,-1168.5 520.62,-1168.5 520.62,-1144 682.88,-1144 682.88,-1168.5"/>
<text text-anchor="middle" x="601.75" y="-1151.2" font-family="Helvetica,sans-Serif" font-size="14.00">WinBinder\createTimer</text>
</a>
</g>
</g>
<!-- Node1&#45;&gt;Node11 -->
<g id="edge10_Node000001_Node000011" class="edge">
<title>Node1&#45;&gt;Node11</title>
<g id="a_edge10_Node000001_Node000011"><a xlink:title=" ">
<path fill="none" stroke="#63b8ff" d="M815.49,-745.12C815.19,-814.91 804.51,-1020.62 693.75,-1130.25 688.14,-1135.8 681.44,-1140.18 674.25,-1143.64"/>
<polygon fill="#63b8ff" stroke="#63b8ff" points="818.99,-745.22 815.45,-735.23 811.99,-745.25 818.99,-745.22"/>
</a>
</g>
</g>
<!-- Node12 -->
<g id="Node000012" class="node">
<title>Node12</title>
<g id="a_Node000012"><a xlink:href="../../db/da5/classWinBinder.html#a0c4fed714176b5d889a7951ef9271e0c" target="_top" xlink:title=" ">
<polygon fill="white" stroke="#666666" points="447.88,-1203.5 293.88,-1203.5 293.88,-1179 447.88,-1179 447.88,-1203.5"/>
<text text-anchor="middle" x="370.88" y="-1186.2" font-family="Helvetica,sans-Serif" font-size="14.00">WinBinder\setHandler</text>
</a>
</g>
</g>
<!-- Node1&#45;&gt;Node12 -->
<g id="edge43_Node000001_Node000012" class="edge">
<title>Node1&#45;&gt;Node12</title>
<g id="a_edge43_Node000001_Node000012"><a xlink:title=" ">
<path fill="none" stroke="#63b8ff" d="M812.44,-745.22C802.27,-831.13 763.21,-1121.42 693.75,-1177.25 657.35,-1206.51 531.46,-1203.55 448.34,-1197.96"/>
<polygon fill="#63b8ff" stroke="#63b8ff" points="815.9,-745.72 813.58,-735.38 808.95,-744.91 815.9,-745.72"/>
</a>
</g>
</g>
<!-- Node13 -->
<g id="Node000013" class="node">
<title>Node13</title>
<g id="a_Node000013"><a xlink:href="../../db/da5/classWinBinder.html#ad4015e4849d84451ad5875327c9927d8" target="_top" xlink:title=" ">
<polygon fill="white" stroke="#666666" points="459.12,-1128.5 282.62,-1128.5 282.62,-1104 459.12,-1104 459.12,-1128.5"/>
<text text-anchor="middle" x="370.88" y="-1111.2" font-family="Helvetica,sans-Serif" font-size="14.00">WinBinder\createWindow</text>
</a>
</g>
</g>
<!-- Node1&#45;&gt;Node13 -->
<g id="edge12_Node000001_Node000013" class="edge">
<title>Node1&#45;&gt;Node13</title>
<g id="a_edge12_Node000001_Node000013"><a xlink:title=" ">
<path fill="none" stroke="#63b8ff" d="M815.81,-744.83C816.35,-812.67 807.62,-1009.1 693.75,-1097.25 658.45,-1124.58 542.19,-1125.23 459.55,-1121.84"/>
<polygon fill="#63b8ff" stroke="#63b8ff" points="819.32,-745.17 815.65,-735.23 812.32,-745.29 819.32,-745.17"/>
</a>
</g>
</g>
<!-- Node16 -->
<g id="Node000016" class="node">
<title>Node16</title>
<g id="a_Node000016"><a xlink:href="../../db/da5/classWinBinder.html#ad71098267c38fa7be257f50f3ffc98f2" target="_top" xlink:title=" ">
<polygon fill="white" stroke="#666666" points="686.62,-970.5 516.88,-970.5 516.88,-946 686.62,-946 686.62,-970.5"/>
<text text-anchor="middle" x="601.75" y="-953.2" font-family="Helvetica,sans-Serif" font-size="14.00">WinBinder\destroyTimer</text>
</a>
</g>
</g>
<!-- Node1&#45;&gt;Node16 -->
<g id="edge15_Node000001_Node000016" class="edge">
<title>Node1&#45;&gt;Node16</title>
<g id="a_edge15_Node000001_Node000016"><a xlink:title=" ">
<path fill="none" stroke="#63b8ff" d="M808.74,-744.65C795.33,-789.22 759.85,-886.31 693.75,-936.25 688.82,-939.97 683.35,-943.08 677.61,-945.66"/>
<polygon fill="#63b8ff" stroke="#63b8ff" points="812.05,-745.82 811.46,-735.24 805.32,-743.88 812.05,-745.82"/>
</a>
</g>
</g>
<!-- Node17 -->
<g id="Node000017" class="node">
<title>Node17</title>
<g id="a_Node000017"><a xlink:href="../../db/da5/classWinBinder.html#af24ba642de15d2cac4a6eb3a7d84ef0e" target="_top" xlink:title=" ">
<polygon fill="white" stroke="#666666" points="693.75,-927.5 509.75,-927.5 509.75,-903 693.75,-903 693.75,-927.5"/>
<text text-anchor="middle" x="601.75" y="-910.2" font-family="Helvetica,sans-Serif" font-size="14.00">WinBinder\destroyWindow</text>
</a>
</g>
</g>
<!-- Node1&#45;&gt;Node17 -->
<g id="edge16_Node000001_Node000017" class="edge">
<title>Node1&#45;&gt;Node17</title>
<g id="a_edge16_Node000001_Node000017"><a xlink:title=" ">
<path fill="none" stroke="#63b8ff" d="M805.42,-744.36C788.48,-781.73 749.91,-855.09 693.75,-893.25 688.24,-896.99 682.16,-900.1 675.83,-902.69"/>
<polygon fill="#63b8ff" stroke="#63b8ff" points="808.54,-745.94 809.36,-735.38 802.13,-743.13 808.54,-745.94"/>
</a>
</g>
</g>
<!-- Node18 -->
<g id="Node000018" class="node">
<title>Node18</title>
<g id="a_Node000018"><a xlink:href="../../db/da5/classWinBinder.html#a8437c7c1b8ccc1c2fa1bd3d76ead9f07" target="_top" xlink:title=" ">
<polygon fill="white" stroke="#666666" points="679.88,-884.5 523.62,-884.5 523.62,-860 679.88,-860 679.88,-884.5"/>
<text text-anchor="middle" x="601.75" y="-867.2" font-family="Helvetica,sans-Serif" font-size="14.00">WinBinder\drawImage</text>
</a>
</g>
</g>
<!-- Node1&#45;&gt;Node18 -->
<g id="edge17_Node000001_Node000018" class="edge">
<title>Node1&#45;&gt;Node18</title>
<g id="a_edge17_Node000001_Node000018"><a xlink:title=" ">
<path fill="none" stroke="#63b8ff" d="M800.76,-743.09C780.46,-772.15 740.6,-823.02 693.75,-850.25 687.43,-853.93 680.51,-856.99 673.42,-859.54"/>
<polygon fill="#63b8ff" stroke="#63b8ff" points="803.5,-745.28 806.25,-735.05 797.72,-741.33 803.5,-745.28"/>
</a>
</g>
</g>
<!-- Node19 -->
<g id="Node000019" class="node">
<title>Node19</title>
<g id="a_Node000019"><a xlink:href="../../db/da5/classWinBinder.html#a340e4bd7ee188bcbe6a4cf55ba7f3a90" target="_top" xlink:title=" ">
<polygon fill="white" stroke="#666666" points="673.12,-841.5 530.38,-841.5 530.38,-817 673.12,-817 673.12,-841.5"/>
<text text-anchor="middle" x="601.75" y="-824.2" font-family="Helvetica,sans-Serif" font-size="14.00">WinBinder\drawLine</text>
</a>
</g>
</g>
<!-- Node1&#45;&gt;Node19 -->
<g id="edge18_Node000001_Node000019" class="edge">
<title>Node1&#45;&gt;Node19</title>
<g id="a_edge18_Node000001_Node000019"><a xlink:title=" ">
<path fill="none" stroke="#63b8ff" d="M792.57,-741.26C769.35,-760.84 731.35,-790.15 693.75,-807.25 685.76,-810.88 677.09,-813.96 668.39,-816.56"/>
<polygon fill="#63b8ff" stroke="#63b8ff" points="794.83,-743.93 800.14,-734.76 790.27,-738.62 794.83,-743.93"/>
</a>
</g>
</g>
<!-- Node20 -->
<g id="Node000020" class="node">
<title>Node20</title>
<g id="a_Node000020"><a xlink:href="../../db/da5/classWinBinder.html#ae1b209ce8e3b245df1cdf86f867e2c28" target="_top" xlink:title=" ">
<polygon fill="white" stroke="#666666" points="674.62,-798.5 528.88,-798.5 528.88,-774 674.62,-774 674.62,-798.5"/>
<text text-anchor="middle" x="601.75" y="-781.2" font-family="Helvetica,sans-Serif" font-size="14.00">WinBinder\drawRect</text>
</a>
</g>
</g>
<!-- Node1&#45;&gt;Node20 -->
<g id="edge19_Node000001_Node000020" class="edge">
<title>Node1&#45;&gt;Node20</title>
<g id="a_edge19_Node000001_Node000020"><a xlink:title=" ">
<path fill="none" stroke="#63b8ff" d="M771.44,-737.96C748.5,-746.42 719.81,-756.51 693.75,-764.25 682.69,-767.54 670.76,-770.69 659.3,-773.54"/>
<polygon fill="#63b8ff" stroke="#63b8ff" points="772.63,-741.25 780.78,-734.48 770.19,-734.69 772.63,-741.25"/>
</a>
</g>
</g>
<!-- Node21 -->
<g id="Node000021" class="node">
<title>Node21</title>
<g id="a_Node000021"><a xlink:href="../../db/da5/classWinBinder.html#a8da4084d282032fad8f4ebe725a11030" target="_top" xlink:title=" ">
<polygon fill="white" stroke="#666666" points="673.5,-755.5 530,-755.5 530,-731 673.5,-731 673.5,-755.5"/>
<text text-anchor="middle" x="601.75" y="-738.2" font-family="Helvetica,sans-Serif" font-size="14.00">WinBinder\drawText</text>
</a>
</g>
</g>
<!-- Node1&#45;&gt;Node21 -->
<g id="edge20_Node000001_Node000021" class="edge">
<title>Node1&#45;&gt;Node21</title>
<g id="a_edge20_Node000001_Node000021"><a xlink:title=" ">
<path fill="none" stroke="#63b8ff" d="M718.05,-731.31C703.17,-732.85 688.05,-734.41 673.87,-735.88"/>
<polygon fill="#63b8ff" stroke="#63b8ff" points="718.26,-734.8 727.85,-730.29 717.54,-727.84 718.26,-734.8"/>
</a>
</g>
</g>
<!-- Node22 -->
<g id="Node000022" class="node">
<title>Node22</title>
<g id="a_Node000022"><a xlink:href="../../db/da5/classWinBinder.html#a069a0ddd0dd20ba7eb1a3e6fc2ae15ca" target="_top" xlink:title=" ">
<polygon fill="white" stroke="#666666" points="660,-712.5 543.5,-712.5 543.5,-688 660,-688 660,-712.5"/>
<text text-anchor="middle" x="601.75" y="-695.2" font-family="Helvetica,sans-Serif" font-size="14.00">WinBinder\exec</text>
</a>
</g>
</g>
<!-- Node1&#45;&gt;Node22 -->
<g id="edge21_Node000001_Node000022" class="edge">
<title>Node1&#45;&gt;Node22</title>
<g id="a_edge21_Node000001_Node000022"><a xlink:title=" ">
<path fill="none" stroke="#63b8ff" d="M718.1,-711.66C698.3,-709.7 678.08,-707.7 660.21,-705.93"/>
<polygon fill="#63b8ff" stroke="#63b8ff" points="717.55,-715.12 727.85,-712.62 718.24,-708.15 717.55,-715.12"/>
</a>
</g>
</g>
<!-- Node23 -->
<g id="Node000023" class="node">
<title>Node23</title>
<g id="a_Node000023"><a xlink:href="../../db/da5/classWinBinder.html#a7c4d13321f88e9652b4d5a484b336460" target="_top" xlink:title=" ">
<polygon fill="white" stroke="#666666" points="667.88,-669.5 535.62,-669.5 535.62,-645 667.88,-645 667.88,-669.5"/>
<text text-anchor="middle" x="601.75" y="-652.2" font-family="Helvetica,sans-Serif" font-size="14.00">WinBinder\findFile</text>
</a>
</g>
</g>
<!-- Node1&#45;&gt;Node23 -->
<g id="edge22_Node000001_Node000023" class="edge">
<title>Node1&#45;&gt;Node23</title>
<g id="a_edge22_Node000001_Node000023"><a xlink:title=" ">
<path fill="none" stroke="#63b8ff" d="M770.43,-704.63C747.65,-696.46 719.4,-686.77 693.75,-679.25 682.52,-675.96 670.41,-672.78 658.8,-669.91"/>
<polygon fill="#63b8ff" stroke="#63b8ff" points="769.12,-707.88 779.72,-707.99 771.5,-701.3 769.12,-707.88"/>
</a>
</g>
</g>
<!-- Node24 -->
<g id="Node000024" class="node">
<title>Node24</title>
<g id="a_Node000024"><a xlink:href="../../db/da5/classWinBinder.html#a4f27d4416a17ee5bc4f39e8d04cab232" target="_top" xlink:title=" ">
<polygon fill="white" stroke="#666666" points="674.62,-626.5 528.88,-626.5 528.88,-602 674.62,-602 674.62,-626.5"/>
<text text-anchor="middle" x="601.75" y="-609.2" font-family="Helvetica,sans-Serif" font-size="14.00">WinBinder\getFocus</text>
</a>
</g>
</g>
<!-- Node1&#45;&gt;Node24 -->
<g id="edge23_Node000001_Node000024" class="edge">
<title>Node1&#45;&gt;Node24</title>
<g id="a_edge23_Node000001_Node000024"><a xlink:title=" ">
<path fill="none" stroke="#63b8ff" d="M792.15,-701.17C768.86,-681.82 731.05,-653.09 693.75,-636.25 685.75,-632.64 677.08,-629.57 668.37,-626.98"/>
<polygon fill="#63b8ff" stroke="#63b8ff" points="789.85,-703.81 799.75,-707.59 794.37,-698.46 789.85,-703.81"/>
</a>
</g>
</g>
<!-- Node25 -->
<g id="Node000025" class="node">
<title>Node25</title>
<g id="a_Node000025"><a xlink:href="../../db/da5/classWinBinder.html#af07eab6f72fb7656c80bcde5be68c4b7" target="_top" xlink:title=" ">
<polygon fill="white" stroke="#666666" points="691.12,-583.5 512.38,-583.5 512.38,-559 691.12,-559 691.12,-583.5"/>
<text text-anchor="middle" x="601.75" y="-566.2" font-family="Helvetica,sans-Serif" font-size="14.00">WinBinder\getSystemInfo</text>
</a>
</g>
</g>
<!-- Node1&#45;&gt;Node25 -->
<g id="edge24_Node000001_Node000025" class="edge">
<title>Node1&#45;&gt;Node25</title>
<g id="a_edge24_Node000001_Node000025"><a xlink:title=" ">
<path fill="none" stroke="#63b8ff" d="M800.72,-699.58C780.38,-670.75 740.46,-620.28 693.75,-593.25 687.42,-589.59 680.5,-586.53 673.4,-583.98"/>
<polygon fill="#63b8ff" stroke="#63b8ff" points="797.66,-701.31 806.22,-707.56 803.42,-697.34 797.66,-701.31"/>
</a>
</g>
</g>
<!-- Node26 -->
<g id="Node000026" class="node">
<title>Node26</title>
<g id="a_Node000026"><a xlink:href="../../db/da5/classWinBinder.html#a898ad3702e6db44f2ef43b22b6d82305" target="_top" xlink:title=" ">
<polygon fill="white" stroke="#666666" points="668.62,-540.5 534.88,-540.5 534.88,-516 668.62,-516 668.62,-540.5"/>
<text text-anchor="middle" x="601.75" y="-523.2" font-family="Helvetica,sans-Serif" font-size="14.00">WinBinder\getText</text>
</a>
</g>
</g>
<!-- Node1&#45;&gt;Node26 -->
<g id="edge25_Node000001_Node000026" class="edge">
<title>Node1&#45;&gt;Node26</title>
<g id="a_edge25_Node000001_Node000026"><a xlink:title=" ">
<path fill="none" stroke="#63b8ff" d="M805.38,-698.27C788.39,-661.12 749.75,-588.18 693.75,-550.25 686.21,-545.15 677.62,-541.22 668.79,-538.21"/>
<polygon fill="#63b8ff" stroke="#63b8ff" points="802.08,-699.47 809.34,-707.19 808.48,-696.63 802.08,-699.47"/>
</a>
</g>
</g>
<!-- Node27 -->
<g id="Node000027" class="node">
<title>Node27</title>
<g id="a_Node000027"><a xlink:href="../../db/da5/classWinBinder.html#ace56e3799462ead490559d265a56085b" target="_top" xlink:title=" ">
<polygon fill="white" stroke="#666666" points="672.75,-497.5 530.75,-497.5 530.75,-473 672.75,-473 672.75,-497.5"/>
<text text-anchor="middle" x="601.75" y="-480.2" font-family="Helvetica,sans-Serif" font-size="14.00">WinBinder\getValue</text>
</a>
</g>
</g>
<!-- Node1&#45;&gt;Node27 -->
<g id="edge26_Node000001_Node000027" class="edge">
<title>Node1&#45;&gt;Node27</title>
<g id="a_edge26_Node000001_Node000027"><a xlink:title=" ">
<path fill="none" stroke="#63b8ff" d="M808.61,-697.64C795.07,-653.13 759.51,-556.83 693.75,-507.25 687.52,-502.55 680.43,-498.84 673.01,-495.92"/>
<polygon fill="#63b8ff" stroke="#63b8ff" points="805.2,-698.43 811.36,-707.05 811.92,-696.47 805.2,-698.43"/>
</a>
</g>
</g>
<!-- Node28 -->
<g id="Node000028" class="node">
<title>Node28</title>
<g id="a_Node000028"><a xlink:href="../../db/da5/classWinBinder.html#a8698de20d4f4f913a4c67af9e9c97a17" target="_top" xlink:title=" ">
<polygon fill="white" stroke="#666666" points="676.12,-454.5 527.38,-454.5 527.38,-430 676.12,-430 676.12,-454.5"/>
<text text-anchor="middle" x="601.75" y="-437.2" font-family="Helvetica,sans-Serif" font-size="14.00">WinBinder\isEnabled</text>
</a>
</g>
</g>
<!-- Node1&#45;&gt;Node28 -->
<g id="edge27_Node000001_Node000028" class="edge">
<title>Node1&#45;&gt;Node28</title>
<g id="a_edge27_Node000001_Node000028"><a xlink:title=" ">
<path fill="none" stroke="#63b8ff" d="M811.02,-697.63C800.88,-646.7 769.75,-526.13 693.75,-464.25 688.58,-460.04 682.74,-456.62 676.56,-453.83"/>
<polygon fill="#63b8ff" stroke="#63b8ff" points="807.54,-698.07 812.83,-707.25 814.42,-696.78 807.54,-698.07"/>
</a>
</g>
</g>
<!-- Node29 -->
<g id="Node000029" class="node">
<title>Node29</title>
<g id="a_Node000029"><a xlink:href="../../db/da5/classWinBinder.html#a533fadd859911e585a99e93cdacc7835" target="_top" xlink:title=" ">
<polygon fill="white" stroke="#666666" points="676.12,-411.5 527.38,-411.5 527.38,-387 676.12,-387 676.12,-411.5"/>
<text text-anchor="middle" x="601.75" y="-394.2" font-family="Helvetica,sans-Serif" font-size="14.00">WinBinder\mainLoop</text>
</a>
</g>
</g>
<!-- Node1&#45;&gt;Node29 -->
<g id="edge28_Node000001_Node000029" class="edge">
<title>Node1&#45;&gt;Node29</title>
<g id="a_edge28_Node000001_Node000029"><a xlink:title=" ">
<path fill="none" stroke="#63b8ff" d="M812.74,-697.3C805.75,-640.27 779.97,-495.63 693.75,-421.25 688.58,-416.79 682.66,-413.2 676.37,-410.32"/>
<polygon fill="#63b8ff" stroke="#63b8ff" points="809.26,-697.62 813.86,-707.17 816.21,-696.84 809.26,-697.62"/>
</a>
</g>
</g>
<!-- Node30 -->
<g id="Node000030" class="node">
<title>Node30</title>
<g id="a_Node000030"><a xlink:href="../../db/da5/classWinBinder.html#a457b127741ebf3d68ae74360127e8e8c" target="_top" xlink:title=" ">
<polygon fill="#fff0f0" stroke="red" points="455.75,-1006.5 286,-1006.5 286,-982 455.75,-982 455.75,-1006.5"/>
<text text-anchor="middle" x="370.88" y="-989.2" font-family="Helvetica,sans-Serif" font-size="14.00">WinBinder\messageBox</text>
</a>
</g>
</g>
<!-- Node1&#45;&gt;Node30 -->
<g id="edge29_Node000001_Node000030" class="edge">
<title>Node1&#45;&gt;Node30</title>
<g id="a_edge29_Node000001_Node000030"><a xlink:title=" ">
<path fill="none" stroke="#63b8ff" d="M812.06,-745.02C803.84,-797.76 776.07,-924.28 693.75,-979.25 612.22,-1033.7 491.47,-1020.63 423.41,-1006.97"/>
<polygon fill="#63b8ff" stroke="#63b8ff" points="815.49,-745.72 813.46,-735.33 808.56,-744.72 815.49,-745.72"/>
</a>
</g>
</g>
<!-- Node39 -->
<g id="Node000039" class="node">
<title>Node39</title>
<g id="a_Node000039"><a xlink:href="../../db/da5/classWinBinder.html#a5278ee5b493c2307bd4617e64055a51b" target="_top" xlink:title=" ">
<polygon fill="white" stroke="#666666" points="667.12,-368.5 536.38,-368.5 536.38,-344 667.12,-344 667.12,-368.5"/>
<text text-anchor="middle" x="601.75" y="-351.2" font-family="Helvetica,sans-Serif" font-size="14.00">WinBinder\refresh</text>
</a>
</g>
</g>
<!-- Node1&#45;&gt;Node39 -->
<g id="edge36_Node000001_Node000039" class="edge">
<title>Node1&#45;&gt;Node39</title>
<g id="a_edge36_Node000001_Node000039"><a xlink:title=" ">
<path fill="none" stroke="#63b8ff" d="M814.12,-697.34C810.14,-634.87 790.51,-465.53 693.75,-378.25 686.27,-371.5 677.07,-366.73 667.43,-363.37"/>
<polygon fill="#63b8ff" stroke="#63b8ff" points="810.61,-697.37 814.65,-707.16 817.6,-696.99 810.61,-697.37"/>
</a>
</g>
</g>
<!-- Node40 -->
<g id="Node000040" class="node">
<title>Node40</title>
<g id="a_Node000040"><a xlink:href="../../db/da5/classWinBinder.html#a88d7e560839f903bc45fc43908b12723" target="_top" xlink:title=" ">
<polygon fill="white" stroke="#666666" points="438.5,-1052.5 303.25,-1052.5 303.25,-1028 438.5,-1028 438.5,-1052.5"/>
<text text-anchor="middle" x="370.88" y="-1035.2" font-family="Helvetica,sans-Serif" font-size="14.00">WinBinder\setArea</text>
</a>
</g>
</g>
<!-- Node1&#45;&gt;Node40 -->
<g id="edge37_Node000001_Node000040" class="edge">
<title>Node1&#45;&gt;Node40</title>
<g id="a_edge37_Node000001_Node000040"><a xlink:title=" ">
<path fill="none" stroke="#63b8ff" d="M813.18,-745.35C807.14,-802.58 783.31,-946.78 693.75,-1012.25 654.52,-1040.92 520.97,-1043.61 438.73,-1042.35"/>
<polygon fill="#63b8ff" stroke="#63b8ff" points="816.66,-745.72 814.12,-735.43 809.69,-745.06 816.66,-745.72"/>
</a>
</g>
</g>
<!-- Node41 -->
<g id="Node000041" class="node">
<title>Node41</title>
<g id="a_Node000041"><a xlink:href="../../db/da5/classWinBinder.html#acc52bcd66e4952f251b54cb9d0039dea" target="_top" xlink:title=" ">
<polygon fill="white" stroke="#666666" points="675.75,-1476.5 527.75,-1476.5 527.75,-1452 675.75,-1452 675.75,-1476.5"/>
<text text-anchor="middle" x="601.75" y="-1459.2" font-family="Helvetica,sans-Serif" font-size="14.00">WinBinder\setCursor</text>
</a>
</g>
</g>
<!-- Node1&#45;&gt;Node41 -->
<g id="edge39_Node000001_Node000041" class="edge">
<title>Node1&#45;&gt;Node41</title>
<g id="a_edge39_Node000001_Node000041"><a xlink:title=" ">
<path fill="none" stroke="#63b8ff" d="M813.18,-745.08C804.17,-851.48 763.82,-1282.86 693.75,-1396.25 678.3,-1421.25 650.01,-1440.18 629.06,-1451.64"/>
<polygon fill="#63b8ff" stroke="#63b8ff" points="816.66,-745.52 814,-735.27 809.68,-744.94 816.66,-745.52"/>
</a>
</g>
</g>
<!-- Node42 -->
<g id="Node000042" class="node">
<title>Node42</title>
<g id="a_Node000042"><a xlink:href="../../db/da5/classWinBinder.html#a74bd20385c1c0b962a95e475367c8458" target="_top" xlink:title=" ">
<polygon fill="#fff0f0" stroke="red" points="680.62,-325.5 522.88,-325.5 522.88,-301 680.62,-301 680.62,-325.5"/>
<text text-anchor="middle" x="601.75" y="-308.2" font-family="Helvetica,sans-Serif" font-size="14.00">WinBinder\setEnabled</text>
</a>
</g>
</g>
<!-- Node1&#45;&gt;Node42 -->
<g id="edge41_Node000001_Node000042" class="edge">
<title>Node1&#45;&gt;Node42</title>
<g id="a_edge41_Node000001_Node000042"><a xlink:title=" ">
<path fill="none" stroke="#63b8ff" d="M815.2,-697.16C814.04,-629.39 801.02,-435.52 693.75,-335.25 689.83,-331.59 685.41,-328.5 680.68,-325.91"/>
<polygon fill="#63b8ff" stroke="#63b8ff" points="811.7,-697.15 815.29,-707.12 818.7,-697.09 811.7,-697.15"/>
</a>
</g>
</g>
<!-- Node44 -->
<g id="Node000044" class="node">
<title>Node44</title>
<g id="a_Node000044"><a xlink:href="../../db/da5/classWinBinder.html#a77fe8f4f976ed0649cf81c64485890c7" target="_top" xlink:title=" ">
<polygon fill="white" stroke="#666666" points="674.25,-282.5 529.25,-282.5 529.25,-258 674.25,-258 674.25,-282.5"/>
<text text-anchor="middle" x="601.75" y="-265.2" font-family="Helvetica,sans-Serif" font-size="14.00">WinBinder\setFocus</text>
</a>
</g>
</g>
<!-- Node1&#45;&gt;Node44 -->
<g id="edge42_Node000001_Node000044" class="edge">
<title>Node1&#45;&gt;Node44</title>
<g id="a_edge42_Node000001_Node000044"><a xlink:title=" ">
<path fill="none" stroke="#63b8ff" d="M811.6,-697.54C799.05,-616.19 754.04,-350.26 693.75,-292.25 688.25,-286.95 681.69,-282.86 674.67,-279.71"/>
<polygon fill="#63b8ff" stroke="#63b8ff" points="808.12,-697.9 813.08,-707.26 815.04,-696.84 808.12,-697.9"/>
</a>
</g>
</g>
<!-- Node45 -->
<g id="Node000045" class="node">
<title>Node45</title>
<g id="a_Node000045"><a xlink:href="../../db/da5/classWinBinder.html#a90198323c5e90d53198a3e19b98378b5" target="_top" xlink:title=" ">
<polygon fill="white" stroke="#666666" points="674.62,-1088.5 528.88,-1088.5 528.88,-1064 674.62,-1064 674.62,-1088.5"/>
<text text-anchor="middle" x="601.75" y="-1071.2" font-family="Helvetica,sans-Serif" font-size="14.00">WinBinder\setImage</text>
</a>
</g>
</g>
<!-- Node1&#45;&gt;Node45 -->
<g id="edge44_Node000001_Node000045" class="edge">
<title>Node1&#45;&gt;Node45</title>
<g id="a_edge44_Node000001_Node000045"><a xlink:title=" ">
<path fill="none" stroke="#63b8ff" d="M813.48,-745.18C808.02,-805.58 785.22,-965.41 693.75,-1050.25 687.73,-1055.84 680.58,-1060.23 672.99,-1063.69"/>
<polygon fill="#63b8ff" stroke="#63b8ff" points="816.96,-745.62 814.28,-735.37 809.98,-745.06 816.96,-745.62"/>
</a>
</g>
</g>
<!-- Node46 -->
<g id="Node000046" class="node">
<title>Node46</title>
<g id="a_Node000046"><a xlink:href="../../db/da5/classWinBinder.html#a45a72e95f1bd8b41bc756085654b462b" target="_top" xlink:title=" ">
<polygon fill="white" stroke="#666666" points="688.88,-1334.5 514.62,-1334.5 514.62,-1310 688.88,-1310 688.88,-1334.5"/>
<text text-anchor="middle" x="601.75" y="-1317.2" font-family="Helvetica,sans-Serif" font-size="14.00">WinBinder\setMaxLength</text>
</a>
</g>
</g>
<!-- Node1&#45;&gt;Node46 -->
<g id="edge47_Node000001_Node000046" class="edge">
<title>Node1&#45;&gt;Node46</title>
<g id="a_edge47_Node000001_Node000046"><a xlink:title=" ">
<path fill="none" stroke="#63b8ff" d="M813.45,-745.14C806.04,-843.84 773.04,-1218.5 693.75,-1300.25 690.24,-1303.87 686.25,-1306.93 681.94,-1309.52"/>
<polygon fill="#63b8ff" stroke="#63b8ff" points="816.93,-745.54 814.17,-735.31 809.95,-745.03 816.93,-745.54"/>
</a>
</g>
</g>
<!-- Node47 -->
<g id="Node000047" class="node">
<title>Node47</title>
<g id="a_Node000047"><a xlink:href="../../db/da5/classWinBinder.html#ab7561480eefa3163dc9a50284fe6614b" target="_top" xlink:title=" ">
<polygon fill="#fff0f0" stroke="red" points="675.38,-1291.5 528.12,-1291.5 528.12,-1267 675.38,-1267 675.38,-1291.5"/>
<text text-anchor="middle" x="601.75" y="-1274.2" font-family="Helvetica,sans-Serif" font-size="14.00">WinBinder\setRange</text>
</a>
</g>
</g>
<!-- Node1&#45;&gt;Node47 -->
<g id="edge49_Node000001_Node000047" class="edge">
<title>Node1&#45;&gt;Node47</title>
<g id="a_edge49_Node000001_Node000047"><a xlink:title=" ">
<path fill="none" stroke="#63b8ff" d="M813.01,-745.16C804.23,-839.22 767.55,-1182.37 693.75,-1257.25 688.62,-1262.46 682.47,-1266.52 675.84,-1269.67"/>
<polygon fill="#63b8ff" stroke="#63b8ff" points="816.49,-745.6 813.91,-735.32 809.52,-744.96 816.49,-745.6"/>
</a>
</g>
</g>
<!-- Node49 -->
<g id="Node000049" class="node">
<title>Node49</title>
<g id="a_Node000049"><a xlink:href="../../db/da5/classWinBinder.html#a3803c1475506e115e66403812832ccbe" target="_top" xlink:title=" ">
<polygon fill="white" stroke="#666666" points="670.12,-239.5 533.38,-239.5 533.38,-215 670.12,-215 670.12,-239.5"/>
<text text-anchor="middle" x="601.75" y="-222.2" font-family="Helvetica,sans-Serif" font-size="14.00">WinBinder\setStyle</text>
</a>
</g>
</g>
<!-- Node1&#45;&gt;Node49 -->
<g id="edge51_Node000001_Node000049" class="edge">
<title>Node1&#45;&gt;Node49</title>
<g id="a_edge51_Node000001_Node000049"><a xlink:title=" ">
<path fill="none" stroke="#63b8ff" d="M812.24,-697.47C801.28,-610.86 759.45,-314 693.75,-249.25 687.15,-242.75 678.98,-238.05 670.26,-234.67"/>
<polygon fill="#63b8ff" stroke="#63b8ff" points="808.77,-697.88 813.48,-707.37 815.72,-697.02 808.77,-697.88"/>
</a>
</g>
</g>
<!-- Node50 -->
<g id="Node000050" class="node">
<title>Node50</title>
<g id="a_Node000050"><a xlink:href="../../db/da5/classWinBinder.html#a5d011859328a13a6557400e46ca5d125" target="_top" xlink:title=" ">
<polygon fill="white" stroke="#666666" points="668.25,-196.5 535.25,-196.5 535.25,-172 668.25,-172 668.25,-196.5"/>
<text text-anchor="middle" x="601.75" y="-179.2" font-family="Helvetica,sans-Serif" font-size="14.00">WinBinder\setText</text>
</a>
</g>
</g>
<!-- Node1&#45;&gt;Node50 -->
<g id="edge52_Node000001_Node000050" class="edge">
<title>Node1&#45;&gt;Node50</title>
<g id="a_edge52_Node000001_Node000050"><a xlink:title=" ">
<path fill="none" stroke="#63b8ff" d="M812.78,-697.4C803.31,-605.75 764.89,-277.8 693.75,-206.25 686.76,-199.22 677.93,-194.29 668.54,-190.86"/>
<polygon fill="#63b8ff" stroke="#63b8ff" points="809.29,-697.61 813.78,-707.2 816.25,-696.9 809.29,-697.61"/>
</a>
</g>
</g>
<!-- Node51 -->
<g id="Node000051" class="node">
<title>Node51</title>
<g id="a_Node000051"><a xlink:href="../../db/da5/classWinBinder.html#ab2bef8cdec9001c5f63ced430c340925" target="_top" xlink:title=" ">
<polygon fill="#fff0f0" stroke="red" points="672.38,-153.5 531.12,-153.5 531.12,-129 672.38,-129 672.38,-153.5"/>
<text text-anchor="middle" x="601.75" y="-136.2" font-family="Helvetica,sans-Serif" font-size="14.00">WinBinder\setValue</text>
</a>
</g>
</g>
<!-- Node1&#45;&gt;Node51 -->
<g id="edge53_Node000001_Node000051" class="edge">
<title>Node1&#45;&gt;Node51</title>
<g id="a_edge53_Node000001_Node000051"><a xlink:title=" ">
<path fill="none" stroke="#63b8ff" d="M813.24,-697.3C805.16,-600.77 770.34,-241.63 693.75,-163.25 687.84,-157.21 680.58,-152.71 672.76,-149.38"/>
<polygon fill="#63b8ff" stroke="#63b8ff" points="809.74,-697.48 814.05,-707.16 816.72,-696.91 809.74,-697.48"/>
</a>
</g>
</g>
<!-- Node55 -->
<g id="Node000055" class="node">
<title>Node55</title>
<g id="a_Node000055"><a xlink:href="../../db/da5/classWinBinder.html#a0c4bee6a8b3669a1a96d850e7d9cf6bc" target="_top" xlink:title=" ">
<polygon fill="white" stroke="#666666" points="684,-110.5 519.5,-110.5 519.5,-86 684,-86 684,-110.5"/>
<text text-anchor="middle" x="601.75" y="-93.2" font-family="Helvetica,sans-Serif" font-size="14.00">WinBinder\sysDlgOpen</text>
</a>
</g>
</g>
<!-- Node1&#45;&gt;Node55 -->
<g id="edge54_Node000001_Node000055" class="edge">
<title>Node1&#45;&gt;Node55</title>
<g id="a_edge54_Node000001_Node000055"><a xlink:title=" ">
<path fill="none" stroke="#63b8ff" d="M813.65,-697.43C806.93,-596.52 775.88,-205.55 693.75,-120.25 690.26,-116.62 686.27,-113.55 681.97,-110.95"/>
<polygon fill="#63b8ff" stroke="#63b8ff" points="810.15,-697.48 814.29,-707.23 817.13,-697.02 810.15,-697.48"/>
</a>
</g>
</g>
<!-- Node56 -->
<g id="Node000056" class="node">
<title>Node56</title>
<g id="a_Node000056"><a xlink:href="../../db/da5/classWinBinder.html#a413e8cf52fab9101916136ea012895de" target="_top" xlink:title=" ">
<polygon fill="white" stroke="#666666" points="680.62,-67.5 522.88,-67.5 522.88,-43 680.62,-43 680.62,-67.5"/>
<text text-anchor="middle" x="601.75" y="-50.2" font-family="Helvetica,sans-Serif" font-size="14.00">WinBinder\sysDlgPath</text>
</a>
</g>
</g>
<!-- Node1&#45;&gt;Node56 -->
<g id="edge55_Node000001_Node000056" class="edge">
<title>Node1&#45;&gt;Node56</title>
<g id="a_edge55_Node000001_Node000056"><a xlink:title=" ">
<path fill="none" stroke="#63b8ff" d="M814,-697.43C808.54,-592.11 781.4,-169.48 693.75,-77.25 689.94,-73.24 685.54,-69.91 680.77,-67.15"/>
<polygon fill="#63b8ff" stroke="#63b8ff" points="810.49,-697.33 814.48,-707.14 817.48,-696.98 810.49,-697.33"/>
</a>
</g>
</g>
<!-- Node57 -->
<g id="Node000057" class="node">
<title>Node57</title>
<g id="a_Node000057"><a xlink:href="../../db/da5/classWinBinder.html#ae4c86a935a885fb9458a68e5c4d50e65" target="_top" xlink:title=" ">
<polygon fill="white" stroke="#666666" points="656.62,-24.5 546.88,-24.5 546.88,0 656.62,0 656.62,-24.5"/>
<text text-anchor="middle" x="601.75" y="-7.2" font-family="Helvetica,sans-Serif" font-size="14.00">WinBinder\wait</text>
</a>
</g>
</g>
<!-- Node1&#45;&gt;Node57 -->
<g id="edge56_Node000001_Node000057" class="edge">
<title>Node1&#45;&gt;Node57</title>
<g id="a_edge56_Node000001_Node000057"><a xlink:title=" ">
<path fill="none" stroke="#63b8ff" d="M814.3,-697.26C810.02,-587.4 786.89,-133.38 693.75,-34.25 684.07,-23.94 670.46,-18.1 656.7,-14.88"/>
<polygon fill="#63b8ff" stroke="#63b8ff" points="810.8,-697.27 814.66,-707.14 817.79,-697.02 810.8,-697.27"/>
</a>
</g>
</g>
<!-- Node3 -->
<g id="Node000003" class="node">
<title>Node3</title>
<g id="a_Node000003"><a xlink:href="../../db/da5/classWinBinder.html#a571d6e8676eecd4fe6c6b2e467d52043" target="_top" xlink:title=" ">
<polygon fill="white" stroke="#666666" points="453.88,-1435.5 287.88,-1435.5 287.88,-1411 453.88,-1411 453.88,-1435.5"/>
<text text-anchor="middle" x="370.88" y="-1418.2" font-family="Helvetica,sans-Serif" font-size="14.00">WinBinder\createButton</text>
</a>
</g>
</g>
<!-- Node2&#45;&gt;Node3 -->
<g id="edge2_Node000002_Node000003" class="edge">
<title>Node2&#45;&gt;Node3</title>
<g id="a_edge2_Node000002_Node000003"><a xlink:title=" ">
<path fill="none" stroke="#63b8ff" d="M528.85,-1390.33C497.89,-1396.82 462.08,-1404.33 432.49,-1410.54"/>
<polygon fill="#63b8ff" stroke="#63b8ff" points="529.47,-1393.78 538.54,-1388.3 528.03,-1386.92 529.47,-1393.78"/>
</a>
</g>
</g>
<!-- Node4 -->
<g id="Node000004" class="node">
<title>Node4</title>
<g id="a_Node000004"><a xlink:href="../../db/da5/classWinBinder.html#a1ef7de783fa4d14a33c324627f9ce8ca" target="_top" xlink:title=" ">
<polygon fill="white" stroke="#666666" points="458.38,-1392.5 283.38,-1392.5 283.38,-1368 458.38,-1368 458.38,-1392.5"/>
<text text-anchor="middle" x="370.88" y="-1375.2" font-family="Helvetica,sans-Serif" font-size="14.00">WinBinder\createEditBox</text>
</a>
</g>
</g>
<!-- Node2&#45;&gt;Node4 -->
<g id="edge3_Node000002_Node000004" class="edge">
<title>Node2&#45;&gt;Node4</title>
<g id="a_edge3_Node000002_Node000004"><a xlink:title=" ">
<path fill="none" stroke="#63b8ff" d="M504.78,-1377.35C489.44,-1377.68 473.65,-1378.03 458.55,-1378.36"/>
<polygon fill="#63b8ff" stroke="#63b8ff" points="504.42,-1380.86 514.34,-1377.14 504.26,-1373.86 504.42,-1380.86"/>
</a>
</g>
</g>
<!-- Node5 -->
<g id="Node000005" class="node">
<title>Node5</title>
<g id="a_Node000005"><a xlink:href="../../db/da5/classWinBinder.html#a66a2a0df6f5a2a2307240880eb577b86" target="_top" xlink:title=" ">
<polygon fill="white" stroke="#666666" points="465.12,-1521.5 276.62,-1521.5 276.62,-1497 465.12,-1497 465.12,-1521.5"/>
<text text-anchor="middle" x="370.88" y="-1504.2" font-family="Helvetica,sans-Serif" font-size="14.00">WinBinder\createHyperLink</text>
</a>
</g>
</g>
<!-- Node2&#45;&gt;Node5 -->
<g id="edge4_Node000002_Node000005" class="edge">
<title>Node2&#45;&gt;Node5</title>
<g id="a_edge4_Node000002_Node000005"><a xlink:title=" ">
<path fill="none" stroke="#63b8ff" d="M571.78,-1394.19C553.16,-1407 528.95,-1424.87 509.75,-1443.25 491.49,-1460.72 495.31,-1474.07 473.75,-1487.25 467.73,-1490.93 461.18,-1494 454.4,-1496.56"/>
<polygon fill="#63b8ff" stroke="#63b8ff" points="573.64,-1397.15 579.96,-1388.65 569.72,-1391.36 573.64,-1397.15"/>
</a>
</g>
</g>
<!-- Node6 -->
<g id="Node000006" class="node">
<title>Node6</title>
<g id="a_Node000006"><a xlink:href="../../db/da5/classWinBinder.html#afe270b9bd22132cbdc3fe28107ed3e06" target="_top" xlink:title=" ">
<polygon fill="white" stroke="#666666" points="463.25,-1306.5 278.5,-1306.5 278.5,-1282 463.25,-1282 463.25,-1306.5"/>
<text text-anchor="middle" x="370.88" y="-1289.2" font-family="Helvetica,sans-Serif" font-size="14.00">WinBinder\createInputText</text>
</a>
</g>
</g>
<!-- Node2&#45;&gt;Node6 -->
<g id="edge5_Node000002_Node000006" class="edge">
<title>Node2&#45;&gt;Node6</title>
<g id="a_edge5_Node000002_Node000006"><a xlink:title=" ">
<path fill="none" stroke="#63b8ff" d="M545.23,-1358.76C533.24,-1354.37 520.83,-1349.17 509.75,-1343.25 492.11,-1333.82 491.95,-1324.55 473.75,-1316.25 465.77,-1312.61 457.15,-1309.55 448.43,-1307"/>
<polygon fill="#63b8ff" stroke="#63b8ff" points="544.06,-1362.06 554.66,-1362.07 546.38,-1355.46 544.06,-1362.06"/>
</a>
</g>
</g>
<!-- Node7 -->
<g id="Node000007" class="node">
<title>Node7</title>
<g id="a_Node000007"><a xlink:href="../../db/da5/classWinBinder.html#a5365ee23e0fa55a45d68988818d47ae9" target="_top" xlink:title=" ">
<polygon fill="white" stroke="#666666" points="451.25,-1349.5 290.5,-1349.5 290.5,-1325 451.25,-1325 451.25,-1349.5"/>
<text text-anchor="middle" x="370.88" y="-1332.2" font-family="Helvetica,sans-Serif" font-size="14.00">WinBinder\createLabel</text>
</a>
</g>
</g>
<!-- Node2&#45;&gt;Node7 -->
<g id="edge6_Node000002_Node000007" class="edge">
<title>Node2&#45;&gt;Node7</title>
<g id="a_edge6_Node000002_Node000007"><a xlink:title=" ">
<path fill="none" stroke="#63b8ff" d="M512.89,-1360.66C491.61,-1357.13 469.04,-1353.38 448.33,-1349.94"/>
<polygon fill="#63b8ff" stroke="#63b8ff" points="512.29,-1364.11 522.73,-1362.3 513.43,-1357.21 512.29,-1364.11"/>
</a>
</g>
</g>
<!-- Node8 -->
<g id="Node000008" class="node">
<title>Node8</title>
<g id="a_Node000008"><a xlink:href="../../db/da5/classWinBinder.html#aad508dc43f5356ce85e666a511713568" target="_top" xlink:title=" ">
<polygon fill="white" stroke="#666666" points="473.75,-1263.5 268,-1263.5 268,-1239 473.75,-1239 473.75,-1263.5"/>
<text text-anchor="middle" x="370.88" y="-1246.2" font-family="Helvetica,sans-Serif" font-size="14.00">WinBinder\createProgressBar</text>
</a>
</g>
</g>
<!-- Node2&#45;&gt;Node8 -->
<g id="edge7_Node000002_Node000008" class="edge">
<title>Node2&#45;&gt;Node8</title>
<g id="a_edge7_Node000002_Node000008"><a xlink:title=" ">
<path fill="none" stroke="#63b8ff" d="M533.27,-1358.18C524.78,-1354.19 516.66,-1349.27 509.75,-1343.25 483.38,-1320.26 501.51,-1294.54 473.75,-1273.25 469.01,-1269.62 463.8,-1266.55 458.32,-1263.98"/>
<polygon fill="#63b8ff" stroke="#63b8ff" points="531.79,-1361.36 542.36,-1362.03 534.51,-1354.91 531.79,-1361.36"/>
</a>
</g>
</g>
<!-- Node9 -->
<g id="Node000009" class="node">
<title>Node9</title>
<g id="a_Node000009"><a xlink:href="../../db/da5/classWinBinder.html#a2f05c2db08f3eab5e4e09a1e31afe71c" target="_top" xlink:title=" ">
<polygon fill="white" stroke="#666666" points="472.62,-1478.5 269.12,-1478.5 269.12,-1454 472.62,-1454 472.62,-1478.5"/>
<text text-anchor="middle" x="370.88" y="-1461.2" font-family="Helvetica,sans-Serif" font-size="14.00">WinBinder\createRadioButton</text>
</a>
</g>
</g>
<!-- Node2&#45;&gt;Node9 -->
<g id="edge8_Node000002_Node000009" class="edge">
<title>Node2&#45;&gt;Node9</title>
<g id="a_edge8_Node000002_Node000009"><a xlink:title=" ">
<path fill="none" stroke="#63b8ff" d="M572.2,-1393.85C547.16,-1409.39 509.32,-1431.06 473.75,-1444.25 464.08,-1447.84 453.67,-1450.92 443.32,-1453.54"/>
<polygon fill="#63b8ff" stroke="#63b8ff" points="573.9,-1396.91 580.49,-1388.62 570.17,-1390.99 573.9,-1396.91"/>
</a>
</g>
</g>
<!-- Node11&#45;&gt;Node12 -->
<g id="edge11_Node000011_Node000012" class="edge">
<title>Node11&#45;&gt;Node12</title>
<g id="a_edge11_Node000011_Node000012"><a xlink:title=" ">
<path fill="none" stroke="#63b8ff" d="M509.25,-1170.24C489.01,-1173.34 467.77,-1176.59 448.21,-1179.58"/>
<polygon fill="#63b8ff" stroke="#63b8ff" points="509.53,-1173.74 518.88,-1168.77 508.47,-1166.82 509.53,-1173.74"/>
</a>
</g>
</g>
<!-- Node14 -->
<g id="Node000014" class="node">
<title>Node14</title>
<g id="a_Node000014"><a xlink:href="../../db/da5/classWinBinder.html#a1a124e548b39f093600cc29903eaa9a5" target="_top" xlink:title=" ">
<polygon fill="white" stroke="#666666" points="217.38,-1171.5 14.62,-1171.5 14.62,-1147 217.38,-1147 217.38,-1171.5"/>
<text text-anchor="middle" x="116" y="-1154.2" font-family="Helvetica,sans-Serif" font-size="14.00">WinBinder\createAppWindow</text>
</a>
</g>
</g>
<!-- Node13&#45;&gt;Node14 -->
<g id="edge13_Node000013_Node000014" class="edge">
<title>Node13&#45;&gt;Node14</title>
<g id="a_edge13_Node000013_Node000014"><a xlink:title=" ">
<path fill="none" stroke="#63b8ff" d="M283.75,-1130.9C253.83,-1135.98 220.56,-1141.64 191.65,-1146.56"/>
<polygon fill="#63b8ff" stroke="#63b8ff" points="284.27,-1134.36 293.54,-1129.23 283.09,-1127.46 284.27,-1134.36"/>
</a>
</g>
</g>
<!-- Node15 -->
<g id="Node000015" class="node">
<title>Node15</title>
<g id="a_Node000015"><a xlink:href="../../db/da5/classWinBinder.html#a11faef2968615dc547cd364e628dd869" target="_top" xlink:title=" ">
<polygon fill="white" stroke="#666666" points="224.5,-1128.5 7.5,-1128.5 7.5,-1104 224.5,-1104 224.5,-1128.5"/>
<text text-anchor="middle" x="116" y="-1111.2" font-family="Helvetica,sans-Serif" font-size="14.00">WinBinder\createNakedWindow</text>
</a>
</g>
</g>
<!-- Node13&#45;&gt;Node15 -->
<g id="edge14_Node000013_Node000015" class="edge">
<title>Node13&#45;&gt;Node15</title>
<g id="a_edge14_Node000013_Node000015"><a xlink:title=" ">
<path fill="none" stroke="#63b8ff" d="M270.7,-1116.25C255.59,-1116.25 239.93,-1116.25 224.64,-1116.25"/>
<polygon fill="#63b8ff" stroke="#63b8ff" points="270.63,-1119.75 280.63,-1116.25 270.63,-1112.75 270.63,-1119.75"/>
</a>
</g>
</g>
<!-- Node31 -->
<g id="Node000031" class="node">
<title>Node31</title>
<g id="a_Node000031"><a xlink:href="../../db/da5/classWinBinder.html#ad7eaa71f6cec1d9292c3774ac103d0f9" target="_top" xlink:title=" ">
<polygon fill="white" stroke="#666666" points="216.62,-956.5 15.38,-956.5 15.38,-932 216.62,-932 216.62,-956.5"/>
<text text-anchor="middle" x="116" y="-939.2" font-family="Helvetica,sans-Serif" font-size="14.00">WinBinder\messageBoxError</text>
</a>
</g>
</g>
<!-- Node30&#45;&gt;Node31 -->
<g id="edge30_Node000030_Node000031" class="edge">
<title>Node30&#45;&gt;Node31</title>
<g id="a_edge30_Node000030_Node000031"><a xlink:title=" ">
<path fill="none" stroke="#63b8ff" d="M297.03,-979.3C276.05,-975.03 253.13,-970.42 232,-966.25 216.54,-963.2 199.91,-959.98 184.22,-956.98"/>
<polygon fill="#63b8ff" stroke="#63b8ff" points="296.15,-982.69 306.65,-981.25 297.55,-975.83 296.15,-982.69"/>
</a>
</g>
</g>
<!-- Node32 -->
<g id="Node000032" class="node">
<title>Node32</title>
<g id="a_Node000032"><a xlink:href="../../db/da5/classWinBinder.html#a62efbbbb7f906cd92cbc4ea4db46ccad" target="_top" xlink:title=" ">
<polygon fill="white" stroke="#666666" points="213.25,-913.5 18.75,-913.5 18.75,-889 213.25,-889 213.25,-913.5"/>
<text text-anchor="middle" x="116" y="-896.2" font-family="Helvetica,sans-Serif" font-size="14.00">WinBinder\messageBoxInfo</text>
</a>
</g>
</g>
<!-- Node30&#45;&gt;Node32 -->
<g id="edge31_Node000030_Node000032" class="edge">
<title>Node30&#45;&gt;Node32</title>
<g id="a_edge31_Node000030_Node000032"><a xlink:title=" ">
<path fill="none" stroke="#63b8ff" d="M340.47,-975.95C313.28,-959.81 271.27,-936.8 232,-923.25 221.53,-919.64 210.3,-916.56 199.12,-913.97"/>
<polygon fill="#63b8ff" stroke="#63b8ff" points="338.46,-978.82 348.83,-980.99 342.07,-972.83 338.46,-978.82"/>
</a>
</g>
</g>
<!-- Node33 -->
<g id="Node000033" class="node">
<title>Node33</title>
<g id="a_Node000033"><a xlink:href="../../db/da5/classWinBinder.html#ab7c3f0c462c6a4c2c6884fea02c82b9a" target="_top" xlink:title=" ">
<polygon fill="white" stroke="#666666" points="209.88,-870.5 22.12,-870.5 22.12,-846 209.88,-846 209.88,-870.5"/>
<text text-anchor="middle" x="116" y="-853.2" font-family="Helvetica,sans-Serif" font-size="14.00">WinBinder\messageBoxOk</text>
</a>
</g>
</g>
<!-- Node30&#45;&gt;Node33 -->
<g id="edge32_Node000030_Node000033" class="edge">
<title>Node30&#45;&gt;Node33</title>
<g id="a_edge32_Node000030_Node000033"><a xlink:title=" ">
<path fill="none" stroke="#63b8ff" d="M350.97,-973.13C326.3,-946.97 280.52,-903.09 232,-880.25 224.18,-876.57 215.79,-873.51 207.23,-870.95"/>
<polygon fill="#63b8ff" stroke="#63b8ff" points="348.4,-975.5 357.76,-980.46 353.54,-970.75 348.4,-975.5"/>
</a>
</g>
</g>
<!-- Node34 -->
<g id="Node000034" class="node">
<title>Node34</title>
<g id="a_Node000034"><a xlink:href="../../db/da5/classWinBinder.html#a6fd45739b2d8042f5b2f7fdff4fd4f57" target="_top" xlink:title=" ">
<polygon fill="white" stroke="#666666" points="232,-1085.5 0,-1085.5 0,-1061 232,-1061 232,-1085.5"/>
<text text-anchor="middle" x="116" y="-1068.2" font-family="Helvetica,sans-Serif" font-size="14.00">WinBinder\messageBoxOkCancel</text>
</a>
</g>
</g>
<!-- Node30&#45;&gt;Node34 -->
<g id="edge33_Node000030_Node000034" class="edge">
<title>Node30&#45;&gt;Node34</title>
<g id="a_edge33_Node000030_Node000034"><a xlink:title=" ">
<path fill="none" stroke="#63b8ff" d="M288.45,-1010.38C281.36,-1012.93 274.45,-1015.86 268,-1019.25 249.05,-1029.2 251.2,-1041.79 232,-1051.25 224.52,-1054.93 216.49,-1058 208.28,-1060.56"/>
<polygon fill="#63b8ff" stroke="#63b8ff" points="289.07,-1013.86 297.47,-1007.4 286.88,-1007.21 289.07,-1013.86"/>
</a>
</g>
</g>
<!-- Node35 -->
<g id="Node000035" class="node">
<title>Node35</title>
<g id="a_Node000035"><a xlink:href="../../db/da5/classWinBinder.html#a24be280f7dde532b84e113ca492885c8" target="_top" xlink:title=" ">
<polygon fill="white" stroke="#666666" points="229.38,-1042.5 2.62,-1042.5 2.62,-1018 229.38,-1018 229.38,-1042.5"/>
<text text-anchor="middle" x="116" y="-1025.2" font-family="Helvetica,sans-Serif" font-size="14.00">WinBinder\messageBoxQuestion</text>
</a>
</g>
</g>
<!-- Node30&#45;&gt;Node35 -->
<g id="edge34_Node000030_Node000035" class="edge">
<title>Node30&#45;&gt;Node35</title>
<g id="a_edge34_Node000030_Node000035"><a xlink:title=" ">
<path fill="none" stroke="#63b8ff" d="M274.5,-1007.83C252.19,-1011 228.51,-1014.37 206.47,-1017.51"/>
<polygon fill="#63b8ff" stroke="#63b8ff" points="274.77,-1011.33 284.17,-1006.45 273.78,-1004.4 274.77,-1011.33"/>
</a>
</g>
</g>
<!-- Node36 -->
<g id="Node000036" class="node">
<title>Node36</title>
<g id="a_Node000036"><a xlink:href="../../db/da5/classWinBinder.html#ae364277c64502e7edfc14ef265acfaa1" target="_top" xlink:title=" ">
<polygon fill="white" stroke="#666666" points="227.12,-999.5 4.88,-999.5 4.88,-975 227.12,-975 227.12,-999.5"/>
<text text-anchor="middle" x="116" y="-982.2" font-family="Helvetica,sans-Serif" font-size="14.00">WinBinder\messageBoxWarning</text>
</a>
</g>
</g>
<!-- Node30&#45;&gt;Node36 -->
<g id="edge35_Node000030_Node000036" class="edge">
<title>Node30&#45;&gt;Node36</title>
<g id="a_edge35_Node000030_Node000036"><a xlink:title=" ">
<path fill="none" stroke="#63b8ff" d="M274.58,-991.61C259.17,-991.19 243.11,-990.74 227.38,-990.31"/>
<polygon fill="#63b8ff" stroke="#63b8ff" points="274.07,-995.1 284.16,-991.88 274.26,-988.1 274.07,-995.1"/>
</a>
</g>
</g>
<!-- Node40&#45;&gt;Node15 -->
<g id="edge38_Node000040_Node000015" class="edge">
<title>Node40&#45;&gt;Node15</title>
<g id="a_edge38_Node000040_Node000015"><a xlink:title=" ">
<path fill="none" stroke="#63b8ff" d="M331.6,-1057.44C304.29,-1069.16 266.45,-1084.3 232,-1094.25 219.89,-1097.75 206.9,-1100.84 194.17,-1103.52"/>
<polygon fill="#63b8ff" stroke="#63b8ff" points="332.72,-1060.77 340.5,-1053.58 329.93,-1054.35 332.72,-1060.77"/>
</a>
</g>
</g>
<!-- Node41&#45;&gt;Node5 -->
<g id="edge40_Node000041_Node000005" class="edge">
<title>Node41&#45;&gt;Node5</title>
<g id="a_edge40_Node000041_Node000005"><a xlink:title=" ">
<path fill="none" stroke="#63b8ff" d="M524.88,-1479.17C496.22,-1484.8 463.91,-1491.16 436.38,-1496.57"/>
<polygon fill="#63b8ff" stroke="#63b8ff" points="525.46,-1482.62 534.6,-1477.26 524.11,-1475.75 525.46,-1482.62"/>
</a>
</g>
</g>
<!-- Node45&#45;&gt;Node13 -->
<g id="edge45_Node000045_Node000013" class="edge">
<title>Node45&#45;&gt;Node13</title>
<g id="a_edge45_Node000045_Node000013"><a xlink:title=" ">
<path fill="none" stroke="#63b8ff" d="M517.5,-1090.8C493.69,-1094.96 467.93,-1099.46 444.8,-1103.51"/>
<polygon fill="#63b8ff" stroke="#63b8ff" points="517.91,-1094.28 527.16,-1089.11 516.7,-1087.39 517.91,-1094.28"/>
</a>
</g>
</g>
<!-- Node45&#45;&gt;Node30 -->
<g id="edge46_Node000045_Node000030" class="edge">
<title>Node45&#45;&gt;Node30</title>
<g id="a_edge46_Node000045_Node000030"><a xlink:title=" ">
<path fill="none" stroke="#63b8ff" d="M565.86,-1058.52C540.73,-1046.27 505.75,-1030.25 473.75,-1019.25 460.23,-1014.6 445.42,-1010.45 431.39,-1006.93"/>
<polygon fill="#63b8ff" stroke="#63b8ff" points="564.12,-1061.57 574.64,-1062.85 567.21,-1055.29 564.12,-1061.57"/>
</a>
</g>
</g>
<!-- Node46&#45;&gt;Node6 -->
<g id="edge48_Node000046_Node000006" class="edge">
<title>Node46&#45;&gt;Node6</title>
<g id="a_edge48_Node000046_Node000006"><a xlink:title=" ">
<path fill="none" stroke="#63b8ff" d="M502.84,-1310.27C489.78,-1308.67 476.43,-1307.04 463.49,-1305.46"/>
<polygon fill="#63b8ff" stroke="#63b8ff" points="502.37,-1313.74 512.72,-1311.48 503.22,-1306.79 502.37,-1313.74"/>
</a>
</g>
</g>
<!-- Node47&#45;&gt;Node8 -->
<g id="edge50_Node000047_Node000008" class="edge">
<title>Node47&#45;&gt;Node8</title>
<g id="a_edge50_Node000047_Node000008"><a xlink:title=" ">
<path fill="none" stroke="#63b8ff" d="M516.68,-1268.97C502.75,-1267.26 488.17,-1265.48 473.85,-1263.73"/>
<polygon fill="#63b8ff" stroke="#63b8ff" points="515.85,-1272.39 526.2,-1270.13 516.7,-1265.44 515.85,-1272.39"/>
</a>
</g>
</g>
</g>
</svg>
