<?xml version="1.0" encoding="UTF-8" standalone="no"?>
<!--
  - Copyright (c) 2021-2024 Bearsampp
  - License:  GNU General Public License version 3 or later; see LICENSE.txt
  - Author: Bear
  - Website: https://bearsampp.com
  - Github: https://github.com/Bearsampp
  -->

<!DOCTYPE svg PUBLIC "-//W3C//DTD SVG 1.1//EN"
 "http://www.w3.org/Graphics/SVG/1.1/DTD/svg11.dtd">
<!-- Generated by graphviz version 11.0.0 (20240428.1522)
 -->
<!-- Title: WinBinder\setValue Pages: 1 -->
<svg width="605pt" height="76pt"
 viewBox="0.00 0.00 605.00 75.50" xmlns="http://www.w3.org/2000/svg" xmlns:xlink="http://www.w3.org/1999/xlink">
<g id="graph0" class="graph" transform="scale(1 1) rotate(0) translate(4 71.5)">
<title>WinBinder\setValue</title>
<!-- Node1 -->
<g id="Node000001" class="node">
<title>Node1</title>
<g id="a_Node000001"><a xlink:title=" ">
<polygon fill="#999999" stroke="#666666" points="597,-45.5 455.75,-45.5 455.75,-21 597,-21 597,-45.5"/>
<text text-anchor="middle" x="526.38" y="-28.2" font-family="Helvetica,sans-Serif" font-size="14.00">WinBinder\setValue</text>
</a>
</g>
</g>
<!-- Node2 -->
<g id="Node000002" class="node">
<title>Node2</title>
<g id="a_Node000002"><a xlink:href="../../db/da5/classWinBinder.html#a83195647cb0fedacaceaa2b6a6bcb069" target="_top" xlink:title=" ">
<polygon fill="white" stroke="#666666" points="419.75,-53.75 234.25,-53.75 234.25,-12.75 419.75,-12.75 419.75,-53.75"/>
<text text-anchor="start" x="242.25" y="-36.45" font-family="Helvetica,sans-Serif" font-size="14.00">WinBinder\setProgressBar</text>
<text text-anchor="middle" x="327" y="-19.95" font-family="Helvetica,sans-Serif" font-size="14.00">Value</text>
</a>
</g>
</g>
<!-- Node1&#45;&gt;Node2 -->
<g id="edge1_Node000001_Node000002" class="edge">
<title>Node1&#45;&gt;Node2</title>
<g id="a_edge1_Node000001_Node000002"><a xlink:title=" ">
<path fill="none" stroke="#63b8ff" d="M444.11,-33.25C436.23,-33.25 428.21,-33.25 420.24,-33.25"/>
<polygon fill="#63b8ff" stroke="#63b8ff" points="444,-36.75 454,-33.25 444,-29.75 444,-36.75"/>
</a>
</g>
</g>
<!-- Node3 -->
<g id="Node000003" class="node">
<title>Node3</title>
<g id="a_Node000003"><a xlink:href="../../db/da5/classWinBinder.html#a21c70926c6049870f6ad044f53e949f6" target="_top" xlink:title=" ">
<polygon fill="white" stroke="#666666" points="193.38,-67.5 4.88,-67.5 4.88,-43 193.38,-43 193.38,-67.5"/>
<text text-anchor="middle" x="99.12" y="-50.2" font-family="Helvetica,sans-Serif" font-size="14.00">WinBinder\incrProgressBar</text>
</a>
</g>
</g>
<!-- Node2&#45;&gt;Node3 -->
<g id="edge2_Node000002_Node000003" class="edge">
<title>Node2&#45;&gt;Node3</title>
<g id="a_edge2_Node000002_Node000003"><a xlink:title=" ">
<path fill="none" stroke="#63b8ff" d="M222.61,-43.32C213.03,-44.25 203.35,-45.2 193.86,-46.12"/>
<polygon fill="#63b8ff" stroke="#63b8ff" points="222.68,-46.83 232.3,-42.38 222,-39.86 222.68,-46.83"/>
</a>
</g>
</g>
<!-- Node4 -->
<g id="Node000004" class="node">
<title>Node4</title>
<g id="a_Node000004"><a xlink:href="../../db/da5/classWinBinder.html#a7aec5042fd54f372687abff6b554d794" target="_top" xlink:title=" ">
<polygon fill="white" stroke="#666666" points="198.25,-24.5 0,-24.5 0,0 198.25,0 198.25,-24.5"/>
<text text-anchor="middle" x="99.12" y="-7.2" font-family="Helvetica,sans-Serif" font-size="14.00">WinBinder\resetProgressBar</text>
</a>
</g>
</g>
<!-- Node2&#45;&gt;Node4 -->
<g id="edge3_Node000002_Node000004" class="edge">
<title>Node2&#45;&gt;Node4</title>
<g id="a_edge3_Node000002_Node000004"><a xlink:title=" ">
<path fill="none" stroke="#63b8ff" d="M222.59,-23.64C214.62,-22.89 206.58,-22.15 198.64,-21.41"/>
<polygon fill="#63b8ff" stroke="#63b8ff" points="222.01,-27.1 232.3,-24.54 222.66,-20.13 222.01,-27.1"/>
</a>
</g>
</g>
</g>
</svg>
