<?xml version="1.0" encoding="UTF-8" standalone="no"?>
<!--
  - Copyright (c) 2021-2024 Bearsampp
  - License:  GNU General Public License version 3 or later; see LICENSE.txt
  - Author: Bear
  - Website: https://bearsampp.com
  - Github: https://github.com/Bearsampp
  -->

<!DOCTYPE svg PUBLIC "-//W3C//DTD SVG 1.1//EN"
 "http://www.w3.org/Graphics/SVG/1.1/DTD/svg11.dtd">
<!-- Generated by graphviz version 11.0.0 (20240428.1522)
 -->
<!-- Title: WinBinder\messageBox Pages: 1 -->
<svg width="446pt" height="350pt"
 viewBox="0.00 0.00 445.75 349.75" xmlns="http://www.w3.org/2000/svg" xmlns:xlink="http://www.w3.org/1999/xlink">

<svg id="main" version="1.1" xmlns="http://www.w3.org/2000/svg" xmlns:xlink="http://www.w3.org/1999/xlink" xml:space="preserve" onload="init(evt)">
<style type="text/css"><![CDATA[
.node, .edge {opacity: 0.7;}
.node.selected, .edge.selected {opacity: 1;}
.edge:hover path { stroke: red; }
.edge:hover polygon { stroke: red; fill: red; }
]]></style>
<script type="application/ecmascript" xlink:href="../../svg.min.js"/>
<svg id="graph" class="graph">
<g id="graph0" class="graph" transform="scale(1 1) rotate(0) translate(4 345.75)">
<title>WinBinder\messageBox</title>
<!-- Node1 -->
<g id="Node000001" class="node">
<title>Node1</title>
<g id="a_Node000001"><a xlink:title=" ">
<polygon fill="#999999" stroke="#666666" points="437.75,-190.75 268,-190.75 268,-166.25 437.75,-166.25 437.75,-190.75"/>
<text text-anchor="middle" x="352.88" y="-173.45" font-family="Helvetica,sans-Serif" font-size="14.00">WinBinder\messageBox</text>
</a>
</g>
</g>
<!-- Node2 -->
<g id="Node000002" class="node">
<title>Node2</title>
<g id="a_Node000002"><a xlink:href="../../db/da5/classWinBinder.html#ad7eaa71f6cec1d9292c3774ac103d0f9" target="_top" xlink:title=" ">
<polygon fill="white" stroke="#666666" points="216.62,-341.75 15.38,-341.75 15.38,-317.25 216.62,-317.25 216.62,-341.75"/>
<text text-anchor="middle" x="116" y="-324.45" font-family="Helvetica,sans-Serif" font-size="14.00">WinBinder\messageBoxError</text>
</a>
</g>
</g>
<!-- Node1&#45;&gt;Node2 -->
<g id="edge1_Node000001_Node000002" class="edge">
<title>Node1&#45;&gt;Node2</title>
<g id="a_edge1_Node000001_Node000002"><a xlink:title=" ">
<path fill="none" stroke="#63b8ff" d="M337.94,-200.67C318.18,-230.11 279.14,-281.41 232,-307.5 225.33,-311.19 218.15,-314.27 210.74,-316.85"/>
<polygon fill="#63b8ff" stroke="#63b8ff" points="340.73,-202.8 343.28,-192.52 334.87,-198.97 340.73,-202.8"/>
</a>
</g>
</g>
<!-- Node3 -->
<g id="Node000003" class="node">
<title>Node3</title>
<g id="a_Node000003"><a xlink:href="../../db/da5/classWinBinder.html#a62efbbbb7f906cd92cbc4ea4db46ccad" target="_top" xlink:title=" ">
<polygon fill="white" stroke="#666666" points="213.25,-298.75 18.75,-298.75 18.75,-274.25 213.25,-274.25 213.25,-298.75"/>
<text text-anchor="middle" x="116" y="-281.45" font-family="Helvetica,sans-Serif" font-size="14.00">WinBinder\messageBoxInfo</text>
</a>
</g>
</g>
<!-- Node1&#45;&gt;Node3 -->
<g id="edge2_Node000001_Node000003" class="edge">
<title>Node1&#45;&gt;Node3</title>
<g id="a_edge2_Node000001_Node000003"><a xlink:title=" ">
<path fill="none" stroke="#63b8ff" d="M330.19,-198.58C307.46,-218.47 269.85,-248.24 232,-264.5 223.41,-268.19 214.19,-271.26 204.85,-273.82"/>
<polygon fill="#63b8ff" stroke="#63b8ff" points="332.44,-201.26 337.57,-191.99 327.78,-196.04 332.44,-201.26"/>
</a>
</g>
</g>
<!-- Node4 -->
<g id="Node000004" class="node">
<title>Node4</title>
<g id="a_Node000004"><a xlink:href="../../db/da5/classWinBinder.html#ab7c3f0c462c6a4c2c6884fea02c82b9a" target="_top" xlink:title=" ">
<polygon fill="white" stroke="#666666" points="209.88,-255.75 22.12,-255.75 22.12,-231.25 209.88,-231.25 209.88,-255.75"/>
<text text-anchor="middle" x="116" y="-238.45" font-family="Helvetica,sans-Serif" font-size="14.00">WinBinder\messageBoxOk</text>
</a>
</g>
</g>
<!-- Node1&#45;&gt;Node4 -->
<g id="edge3_Node000001_Node000004" class="edge">
<title>Node1&#45;&gt;Node4</title>
<g id="a_edge3_Node000001_Node000004"><a xlink:title=" ">
<path fill="none" stroke="#63b8ff" d="M310.09,-195.3C287.28,-204 258.39,-214.29 232,-221.5 219.35,-224.96 205.78,-228.07 192.55,-230.79"/>
<polygon fill="#63b8ff" stroke="#63b8ff" points="311.28,-198.59 319.34,-191.72 308.75,-192.06 311.28,-198.59"/>
</a>
</g>
</g>
<!-- Node5 -->
<g id="Node000005" class="node">
<title>Node5</title>
<g id="a_Node000005"><a xlink:href="../../db/da5/classWinBinder.html#a6fd45739b2d8042f5b2f7fdff4fd4f57" target="_top" xlink:title=" ">
<polygon fill="white" stroke="#666666" points="232,-212.75 0,-212.75 0,-188.25 232,-188.25 232,-212.75"/>
<text text-anchor="middle" x="116" y="-195.45" font-family="Helvetica,sans-Serif" font-size="14.00">WinBinder\messageBoxOkCancel</text>
</a>
</g>
</g>
<!-- Node1&#45;&gt;Node5 -->
<g id="edge4_Node000001_Node000005" class="edge">
<title>Node1&#45;&gt;Node5</title>
<g id="a_edge4_Node000001_Node000005"><a xlink:title=" ">
<path fill="none" stroke="#63b8ff" d="M256.34,-187.45C248.48,-188.19 240.48,-188.93 232.49,-189.68"/>
<polygon fill="#63b8ff" stroke="#63b8ff" points="256.61,-190.94 266.24,-186.52 255.95,-183.97 256.61,-190.94"/>
</a>
</g>
</g>
<!-- Node6 -->
<g id="Node000006" class="node">
<title>Node6</title>
<g id="a_Node000006"><a xlink:href="../../db/da5/classWinBinder.html#a24be280f7dde532b84e113ca492885c8" target="_top" xlink:title=" ">
<polygon fill="white" stroke="#666666" points="229.38,-169.75 2.62,-169.75 2.62,-145.25 229.38,-145.25 229.38,-169.75"/>
<text text-anchor="middle" x="116" y="-152.45" font-family="Helvetica,sans-Serif" font-size="14.00">WinBinder\messageBoxQuestion</text>
</a>
</g>
</g>
<!-- Node1&#45;&gt;Node6 -->
<g id="edge5_Node000001_Node000006" class="edge">
<title>Node1&#45;&gt;Node6</title>
<g id="a_edge5_Node000001_Node000006"><a xlink:title=" ">
<path fill="none" stroke="#63b8ff" d="M256.3,-169.95C247.51,-169.17 238.55,-168.37 229.62,-167.57"/>
<polygon fill="#63b8ff" stroke="#63b8ff" points="255.96,-173.44 266.24,-170.84 256.59,-166.47 255.96,-173.44"/>
</a>
</g>
</g>
<!-- Node7 -->
<g id="Node000007" class="node">
<title>Node7</title>
<g id="a_Node000007"><a xlink:href="../../db/da5/classWinBinder.html#ae364277c64502e7edfc14ef265acfaa1" target="_top" xlink:title=" ">
<polygon fill="white" stroke="#666666" points="227.12,-126.75 4.88,-126.75 4.88,-102.25 227.12,-102.25 227.12,-126.75"/>
<text text-anchor="middle" x="116" y="-109.45" font-family="Helvetica,sans-Serif" font-size="14.00">WinBinder\messageBoxWarning</text>
</a>
</g>
</g>
<!-- Node1&#45;&gt;Node7 -->
<g id="edge6_Node000001_Node000007" class="edge">
<title>Node1&#45;&gt;Node7</title>
<g id="a_edge6_Node000001_Node000007"><a xlink:title=" ">
<path fill="none" stroke="#63b8ff" d="M309.1,-161.78C286.44,-153.37 257.98,-143.5 232,-136.5 219.24,-133.06 205.55,-129.96 192.22,-127.23"/>
<polygon fill="#63b8ff" stroke="#63b8ff" points="307.71,-165 318.3,-165.24 310.18,-158.45 307.71,-165"/>
</a>
</g>
</g>
<!-- Node8 -->
<g id="Node000008" class="node">
<title>Node8</title>
<g id="a_Node000008"><a xlink:href="../../db/da5/classWinBinder.html#ad5a42e2dcb220a4ef540c4a4b8a27839" target="_top" xlink:title=" ">
<polygon fill="white" stroke="#666666" points="222.25,-83.75 9.75,-83.75 9.75,-59.25 222.25,-59.25 222.25,-83.75"/>
<text text-anchor="middle" x="116" y="-66.45" font-family="Helvetica,sans-Serif" font-size="14.00">WinBinder\messageBoxYesNo</text>
</a>
</g>
</g>
<!-- Node1&#45;&gt;Node8 -->
<g id="edge7_Node000001_Node000008" class="edge">
<title>Node1&#45;&gt;Node8</title>
<g id="a_edge7_Node000001_Node000008"><a xlink:title=" ">
<path fill="none" stroke="#63b8ff" d="M329.77,-158.34C306.97,-138.69 269.54,-109.5 232,-93.5 223.4,-89.83 214.17,-86.77 204.83,-84.22"/>
<polygon fill="#63b8ff" stroke="#63b8ff" points="327.37,-160.89 337.19,-164.86 331.99,-155.63 327.37,-160.89"/>
</a>
</g>
</g>
<!-- Node9 -->
<g id="Node000009" class="node">
<title>Node9</title>
<g id="a_Node000009"><a xlink:href="../../db/da5/classWinBinder.html#a179ca682198a1ca11793de21e503bd0c" target="_top" xlink:title=" ">
<polygon fill="white" stroke="#666666" points="222.25,-41 9.75,-41 9.75,0 222.25,0 222.25,-41"/>
<text text-anchor="start" x="17.75" y="-23.7" font-family="Helvetica,sans-Serif" font-size="14.00">WinBinder\messageBoxYesNo</text>
<text text-anchor="middle" x="116" y="-7.2" font-family="Helvetica,sans-Serif" font-size="14.00">Cancel</text>
</a>
</g>
</g>
<!-- Node1&#45;&gt;Node9 -->
<g id="edge8_Node000001_Node000009" class="edge">
<title>Node1&#45;&gt;Node9</title>
<g id="a_edge8_Node000001_Node000009"><a xlink:title=" ">
<path fill="none" stroke="#63b8ff" d="M337.64,-156.95C317.54,-128.25 278.11,-77.93 232,-50.5 226.33,-47.12 220.27,-44.12 214.03,-41.46"/>
<polygon fill="#63b8ff" stroke="#63b8ff" points="334.53,-158.6 343.07,-164.87 340.31,-154.65 334.53,-158.6"/>
</a>
</g>
</g>
</g>
</svg>
</svg>

<style type='text/css'>
<![CDATA[
[data-mouse-over-selected='false'] { opacity: 0.7; }
[data-mouse-over-selected='true']  { opacity: 1.0; }
]]>
</style>
<script type="application/ecmascript"><![CDATA[
document.addEventListener('DOMContentLoaded', (event) => {
  highlightEdges();
  highlightAdjacentNodes();
});
]]></script>
</svg>
