<?xml version="1.0" encoding="UTF-8" standalone="no"?>
<!--
  - Copyright (c) 2021-2024 Bearsampp
  - License:  GNU General Public License version 3 or later; see LICENSE.txt
  - Author: Bear
  - Website: https://bearsampp.com
  - Github: https://github.com/Bearsampp
  -->

<!DOCTYPE svg PUBLIC "-//W3C//DTD SVG 1.1//EN"
 "http://www.w3.org/Graphics/SVG/1.1/DTD/svg11.dtd">
<!-- Generated by graphviz version 11.0.0 (20240428.1522)
 -->
<!-- Title: WinBinder\createControl Pages: 1 -->
<svg width="421pt" height="291pt"
 viewBox="0.00 0.00 421.00 290.50" xmlns="http://www.w3.org/2000/svg" xmlns:xlink="http://www.w3.org/1999/xlink">
<g id="graph0" class="graph" transform="scale(1 1) rotate(0) translate(4 286.5)">
<title>WinBinder\createControl</title>
<!-- Node1 -->
<g id="Node000001" class="node">
<title>Node1</title>
<g id="a_Node000001"><a xlink:title=" ">
<polygon fill="#999999" stroke="#666666" points="413,-153.5 241.75,-153.5 241.75,-129 413,-129 413,-153.5"/>
<text text-anchor="middle" x="327.38" y="-136.2" font-family="Helvetica,sans-Serif" font-size="14.00">WinBinder\createControl</text>
</a>
</g>
</g>
<!-- Node2 -->
<g id="Node000002" class="node">
<title>Node2</title>
<g id="a_Node000002"><a xlink:href="../../db/da5/classWinBinder.html#a571d6e8676eecd4fe6c6b2e467d52043" target="_top" xlink:title=" ">
<polygon fill="white" stroke="#666666" points="185.88,-282.5 19.88,-282.5 19.88,-258 185.88,-258 185.88,-282.5"/>
<text text-anchor="middle" x="102.88" y="-265.2" font-family="Helvetica,sans-Serif" font-size="14.00">WinBinder\createButton</text>
</a>
</g>
</g>
<!-- Node1&#45;&gt;Node2 -->
<g id="edge1_Node000001_Node000002" class="edge">
<title>Node1&#45;&gt;Node2</title>
<g id="a_edge1_Node000001_Node000002"><a xlink:title=" ">
<path fill="none" stroke="#63b8ff" d="M308.81,-162.35C287.17,-186.91 248.04,-226.81 205.75,-248.25 198.49,-251.93 190.63,-255 182.61,-257.55"/>
<polygon fill="#63b8ff" stroke="#63b8ff" points="311.35,-164.77 315.23,-154.91 306.05,-160.2 311.35,-164.77"/>
</a>
</g>
</g>
<!-- Node3 -->
<g id="Node000003" class="node">
<title>Node3</title>
<g id="a_Node000003"><a xlink:href="../../db/da5/classWinBinder.html#a1ef7de783fa4d14a33c324627f9ce8ca" target="_top" xlink:title=" ">
<polygon fill="white" stroke="#666666" points="190.38,-239.5 15.38,-239.5 15.38,-215 190.38,-215 190.38,-239.5"/>
<text text-anchor="middle" x="102.88" y="-222.2" font-family="Helvetica,sans-Serif" font-size="14.00">WinBinder\createEditBox</text>
</a>
</g>
</g>
<!-- Node1&#45;&gt;Node3 -->
<g id="edge2_Node000001_Node000003" class="edge">
<title>Node1&#45;&gt;Node3</title>
<g id="a_edge2_Node000001_Node000003"><a xlink:title=" ">
<path fill="none" stroke="#63b8ff" d="M296.88,-159.87C273.09,-174.14 238.34,-193.35 205.75,-205.25 195.98,-208.82 185.46,-211.9 175.01,-214.52"/>
<polygon fill="#63b8ff" stroke="#63b8ff" points="298.66,-162.87 305.38,-154.68 295.02,-156.9 298.66,-162.87"/>
</a>
</g>
</g>
<!-- Node4 -->
<g id="Node000004" class="node">
<title>Node4</title>
<g id="a_Node000004"><a xlink:href="../../db/da5/classWinBinder.html#a66a2a0df6f5a2a2307240880eb577b86" target="_top" xlink:title=" ">
<polygon fill="white" stroke="#666666" points="197.12,-196.5 8.62,-196.5 8.62,-172 197.12,-172 197.12,-196.5"/>
<text text-anchor="middle" x="102.88" y="-179.2" font-family="Helvetica,sans-Serif" font-size="14.00">WinBinder\createHyperLink</text>
</a>
</g>
</g>
<!-- Node1&#45;&gt;Node4 -->
<g id="edge3_Node000001_Node000004" class="edge">
<title>Node1&#45;&gt;Node4</title>
<g id="a_edge3_Node000001_Node000004"><a xlink:title=" ">
<path fill="none" stroke="#63b8ff" d="M249.55,-156.1C223.5,-161.13 194.66,-166.71 169.56,-171.56"/>
<polygon fill="#63b8ff" stroke="#63b8ff" points="249.88,-159.6 259.03,-154.26 248.55,-152.73 249.88,-159.6"/>
</a>
</g>
</g>
<!-- Node5 -->
<g id="Node000005" class="node">
<title>Node5</title>
<g id="a_Node000005"><a xlink:href="../../db/da5/classWinBinder.html#afe270b9bd22132cbdc3fe28107ed3e06" target="_top" xlink:title=" ">
<polygon fill="white" stroke="#666666" points="195.25,-153.5 10.5,-153.5 10.5,-129 195.25,-129 195.25,-153.5"/>
<text text-anchor="middle" x="102.88" y="-136.2" font-family="Helvetica,sans-Serif" font-size="14.00">WinBinder\createInputText</text>
</a>
</g>
</g>
<!-- Node1&#45;&gt;Node5 -->
<g id="edge4_Node000001_Node000005" class="edge">
<title>Node1&#45;&gt;Node5</title>
<g id="a_edge4_Node000001_Node000005"><a xlink:title=" ">
<path fill="none" stroke="#63b8ff" d="M229.97,-141.25C218.55,-141.25 206.92,-141.25 195.56,-141.25"/>
<polygon fill="#63b8ff" stroke="#63b8ff" points="229.79,-144.75 239.79,-141.25 229.79,-137.75 229.79,-144.75"/>
</a>
</g>
</g>
<!-- Node6 -->
<g id="Node000006" class="node">
<title>Node6</title>
<g id="a_Node000006"><a xlink:href="../../db/da5/classWinBinder.html#a5365ee23e0fa55a45d68988818d47ae9" target="_top" xlink:title=" ">
<polygon fill="white" stroke="#666666" points="183.25,-110.5 22.5,-110.5 22.5,-86 183.25,-86 183.25,-110.5"/>
<text text-anchor="middle" x="102.88" y="-93.2" font-family="Helvetica,sans-Serif" font-size="14.00">WinBinder\createLabel</text>
</a>
</g>
</g>
<!-- Node1&#45;&gt;Node6 -->
<g id="edge5_Node000001_Node000006" class="edge">
<title>Node1&#45;&gt;Node6</title>
<g id="a_edge5_Node000001_Node000006"><a xlink:title=" ">
<path fill="none" stroke="#63b8ff" d="M249.55,-126.4C223.5,-121.37 194.66,-115.79 169.56,-110.94"/>
<polygon fill="#63b8ff" stroke="#63b8ff" points="248.55,-129.77 259.03,-128.24 249.88,-122.9 248.55,-129.77"/>
</a>
</g>
</g>
<!-- Node7 -->
<g id="Node000007" class="node">
<title>Node7</title>
<g id="a_Node000007"><a xlink:href="../../db/da5/classWinBinder.html#aad508dc43f5356ce85e666a511713568" target="_top" xlink:title=" ">
<polygon fill="white" stroke="#666666" points="205.75,-67.5 0,-67.5 0,-43 205.75,-43 205.75,-67.5"/>
<text text-anchor="middle" x="102.88" y="-50.2" font-family="Helvetica,sans-Serif" font-size="14.00">WinBinder\createProgressBar</text>
</a>
</g>
</g>
<!-- Node1&#45;&gt;Node7 -->
<g id="edge6_Node000001_Node000007" class="edge">
<title>Node1&#45;&gt;Node7</title>
<g id="a_edge6_Node000001_Node000007"><a xlink:title=" ">
<path fill="none" stroke="#63b8ff" d="M296.88,-122.63C273.09,-108.36 238.34,-89.15 205.75,-77.25 195.98,-73.68 185.46,-70.6 175.01,-67.98"/>
<polygon fill="#63b8ff" stroke="#63b8ff" points="295.02,-125.6 305.38,-127.82 298.66,-119.63 295.02,-125.6"/>
</a>
</g>
</g>
<!-- Node8 -->
<g id="Node000008" class="node">
<title>Node8</title>
<g id="a_Node000008"><a xlink:href="../../db/da5/classWinBinder.html#a2f05c2db08f3eab5e4e09a1e31afe71c" target="_top" xlink:title=" ">
<polygon fill="white" stroke="#666666" points="204.62,-24.5 1.13,-24.5 1.13,0 204.62,0 204.62,-24.5"/>
<text text-anchor="middle" x="102.88" y="-7.2" font-family="Helvetica,sans-Serif" font-size="14.00">WinBinder\createRadioButton</text>
</a>
</g>
</g>
<!-- Node1&#45;&gt;Node8 -->
<g id="edge7_Node000001_Node000008" class="edge">
<title>Node1&#45;&gt;Node8</title>
<g id="a_edge7_Node000001_Node000008"><a xlink:title=" ">
<path fill="none" stroke="#63b8ff" d="M308.81,-120.15C287.17,-95.59 248.04,-55.69 205.75,-34.25 198.49,-30.57 190.63,-27.5 182.61,-24.95"/>
<polygon fill="#63b8ff" stroke="#63b8ff" points="306.05,-122.3 315.23,-127.59 311.35,-117.73 306.05,-122.3"/>
</a>
</g>
</g>
</g>
</svg>
