<?xml version="1.0" encoding="UTF-8" standalone="no"?>
<!--
  - Copyright (c) 2021-2024 Bearsampp
  - License:  GNU General Public License version 3 or later; see LICENSE.txt
  - Author: Bear
  - Website: https://bearsampp.com
  - Github: https://github.com/Bearsampp
  -->

<!DOCTYPE svg PUBLIC "-//W3C//DTD SVG 1.1//EN"
 "http://www.w3.org/Graphics/SVG/1.1/DTD/svg11.dtd">
<!-- Generated by graphviz version 11.0.0 (20240428.1522)
 -->
<!-- Title: TplService\getActionRestart Pages: 1 -->
<svg width="462pt" height="253pt"
 viewBox="0.00 0.00 461.50 252.50" xmlns="http://www.w3.org/2000/svg" xmlns:xlink="http://www.w3.org/1999/xlink">

<svg id="main" version="1.1" xmlns="http://www.w3.org/2000/svg" xmlns:xlink="http://www.w3.org/1999/xlink" xml:space="preserve" onload="init(evt)">
<style type="text/css"><![CDATA[
.node, .edge {opacity: 0.7;}
.node.selected, .edge.selected {opacity: 1;}
.edge:hover path { stroke: red; }
.edge:hover polygon { stroke: red; fill: red; }
]]></style>
<script type="application/ecmascript" xlink:href="../../svg.min.js"/>
<svg id="graph" class="graph">
<g id="graph0" class="graph" transform="scale(1 1) rotate(0) translate(4 248.5)">
<title>TplService\getActionRestart</title>
<!-- Node1 -->
<g id="Node000001" class="node">
<title>Node1</title>
<g id="a_Node000001"><a xlink:title=" ">
<polygon fill="#999999" stroke="#666666" points="453.5,-134.5 259.75,-134.5 259.75,-110 453.5,-110 453.5,-134.5"/>
<text text-anchor="middle" x="356.62" y="-117.2" font-family="Helvetica,sans-Serif" font-size="14.00">TplService\getActionRestart</text>
</a>
</g>
</g>
<!-- Node2 -->
<g id="Node000002" class="node">
<title>Node2</title>
<g id="a_Node000002"><a xlink:href="../../d7/dbb/classTplAppOnline.html#a7e030a94b4ba6d77e3134bb41a915da3" target="_top" xlink:title=" ">
<polygon fill="white" stroke="#666666" points="215.12,-244.5 8.62,-244.5 8.62,-220 215.12,-220 215.12,-244.5"/>
<text text-anchor="middle" x="111.88" y="-227.2" font-family="Helvetica,sans-Serif" font-size="14.00">TplAppOnline\getActionStatus</text>
</a>
</g>
</g>
<!-- Node1&#45;&gt;Node2 -->
<g id="edge1_Node000001_Node000002" class="edge">
<title>Node1&#45;&gt;Node2</title>
<g id="a_edge1_Node000001_Node000002"><a xlink:title=" ">
<path fill="none" stroke="#63b8ff" d="M332.61,-142.11C307.54,-162.66 265.42,-194.1 223.75,-211.25 215.87,-214.49 207.47,-217.24 198.94,-219.57"/>
<polygon fill="#63b8ff" stroke="#63b8ff" points="334.75,-144.88 340.19,-135.79 330.27,-139.51 334.75,-144.88"/>
</a>
</g>
</g>
<!-- Node3 -->
<g id="Node000003" class="node">
<title>Node3</title>
<g id="a_Node000003"><a xlink:href="../../d9/d51/classTplAppApache.html#a1f7ca01e0c35a7dd7d2455caebb9cfb6" target="_top" xlink:title=" ">
<polygon fill="white" stroke="#666666" points="220,-201.75 3.75,-201.75 3.75,-160.75 220,-160.75 220,-201.75"/>
<text text-anchor="start" x="11.75" y="-184.45" font-family="Helvetica,sans-Serif" font-size="14.00">TplAppApache\getActionSwitch</text>
<text text-anchor="middle" x="111.88" y="-167.95" font-family="Helvetica,sans-Serif" font-size="14.00">ApacheModule</text>
</a>
</g>
</g>
<!-- Node1&#45;&gt;Node3 -->
<g id="edge2_Node000001_Node000003" class="edge">
<title>Node1&#45;&gt;Node3</title>
<g id="a_edge2_Node000001_Node000003"><a xlink:title=" ">
<path fill="none" stroke="#63b8ff" d="M292.23,-137.66C263.78,-144.57 229.77,-152.84 199.05,-160.31"/>
<polygon fill="#63b8ff" stroke="#63b8ff" points="292.89,-141.1 301.78,-135.34 291.24,-134.3 292.89,-141.1"/>
</a>
</g>
</g>
<!-- Node4 -->
<g id="Node000004" class="node">
<title>Node4</title>
<g id="a_Node000004"><a xlink:href="../../d0/d1a/classTplAppPhp.html#af516fab727ffe58d4aed4dfc677ebd24" target="_top" xlink:title=" ">
<polygon fill="white" stroke="#666666" points="208.38,-142.75 15.38,-142.75 15.38,-101.75 208.38,-101.75 208.38,-142.75"/>
<text text-anchor="start" x="23.38" y="-125.45" font-family="Helvetica,sans-Serif" font-size="14.00">TplAppPhp\getActionSwitch</text>
<text text-anchor="middle" x="111.88" y="-108.95" font-family="Helvetica,sans-Serif" font-size="14.00">PhpExtension</text>
</a>
</g>
</g>
<!-- Node1&#45;&gt;Node4 -->
<g id="edge3_Node000001_Node000004" class="edge">
<title>Node1&#45;&gt;Node4</title>
<g id="a_edge3_Node000001_Node000004"><a xlink:title=" ">
<path fill="none" stroke="#63b8ff" d="M247.91,-122.25C234.83,-122.25 221.54,-122.25 208.65,-122.25"/>
<polygon fill="#63b8ff" stroke="#63b8ff" points="247.82,-125.75 257.82,-122.25 247.82,-118.75 247.82,-125.75"/>
</a>
</g>
</g>
<!-- Node5 -->
<g id="Node000005" class="node">
<title>Node5</title>
<g id="a_Node000005"><a xlink:href="../../d0/d1a/classTplAppPhp.html#a3d476f0bd0b39d74c72c1374431cf34a" target="_top" xlink:title=" ">
<polygon fill="white" stroke="#666666" points="208.38,-83.75 15.38,-83.75 15.38,-42.75 208.38,-42.75 208.38,-83.75"/>
<text text-anchor="start" x="23.38" y="-66.45" font-family="Helvetica,sans-Serif" font-size="14.00">TplAppPhp\getActionSwitch</text>
<text text-anchor="middle" x="111.88" y="-49.95" font-family="Helvetica,sans-Serif" font-size="14.00">PhpSetting</text>
</a>
</g>
</g>
<!-- Node1&#45;&gt;Node5 -->
<g id="edge4_Node000001_Node000005" class="edge">
<title>Node1&#45;&gt;Node5</title>
<g id="a_edge4_Node000001_Node000005"><a xlink:title=" ">
<path fill="none" stroke="#63b8ff" d="M292.23,-106.84C263.78,-99.93 229.77,-91.66 199.05,-84.19"/>
<polygon fill="#63b8ff" stroke="#63b8ff" points="291.24,-110.2 301.78,-109.16 292.89,-103.4 291.24,-110.2"/>
</a>
</g>
</g>
<!-- Node6 -->
<g id="Node000006" class="node">
<title>Node6</title>
<g id="a_Node000006"><a xlink:href="../../da/d7d/classActionEditVhost.html#a36262023eef854f2e5d7e57fe198f5ee" target="_top" xlink:title=" ">
<polygon fill="white" stroke="#666666" points="223.75,-24.5 0,-24.5 0,0 223.75,0 223.75,-24.5"/>
<text text-anchor="middle" x="111.88" y="-7.2" font-family="Helvetica,sans-Serif" font-size="14.00">ActionEditVhost\processWindow</text>
</a>
</g>
</g>
<!-- Node1&#45;&gt;Node6 -->
<g id="edge5_Node000001_Node000006" class="edge">
<title>Node1&#45;&gt;Node6</title>
<g id="a_edge5_Node000001_Node000006"><a xlink:title=" ">
<path fill="none" stroke="#63b8ff" d="M332.13,-102.36C306.96,-82.11 265.02,-51.32 223.75,-34.25 214.86,-30.57 205.32,-27.5 195.69,-24.93"/>
<polygon fill="#63b8ff" stroke="#63b8ff" points="329.8,-104.98 339.75,-108.6 334.23,-99.56 329.8,-104.98"/>
</a>
</g>
</g>
</g>
</svg>
</svg>

<style type='text/css'>
<![CDATA[
[data-mouse-over-selected='false'] { opacity: 0.7; }
[data-mouse-over-selected='true']  { opacity: 1.0; }
]]>
</style>
<script type="application/ecmascript"><![CDATA[
document.addEventListener('DOMContentLoaded', (event) => {
  highlightEdges();
  highlightAdjacentNodes();
});
]]></script>
</svg>
