<?xml version="1.0" encoding="UTF-8" standalone="no"?>
<!--
  - Copyright (c) 2021-2024 Bearsampp
  - License:  GNU General Public License version 3 or later; see LICENSE.txt
  - Author: Bear
  - Website: https://bearsampp.com
  - Github: https://github.com/Bearsampp
  -->

<!DOCTYPE svg PUBLIC "-//W3C//DTD SVG 1.1//EN"
 "http://www.w3.org/Graphics/SVG/1.1/DTD/svg11.dtd">
<!-- Generated by graphviz version 11.0.0 (20240428.1522)
 -->
<!-- Title: TplService\getActionStop Pages: 1 -->
<svg width="622pt" height="49pt"
 viewBox="0.00 0.00 621.50 49.00" xmlns="http://www.w3.org/2000/svg" xmlns:xlink="http://www.w3.org/1999/xlink">
<g id="graph0" class="graph" transform="scale(1 1) rotate(0) translate(4 45)">
<title>TplService\getActionStop</title>
<!-- Node1 -->
<g id="Node000001" class="node">
<title>Node1</title>
<g id="a_Node000001"><a xlink:title=" ">
<polygon fill="#999999" stroke="#666666" points="613.5,-32.75 435.5,-32.75 435.5,-8.25 613.5,-8.25 613.5,-32.75"/>
<text text-anchor="middle" x="524.5" y="-15.45" font-family="Helvetica,sans-Serif" font-size="14.00">TplService\getActionStop</text>
</a>
</g>
</g>
<!-- Node2 -->
<g id="Node000002" class="node">
<title>Node2</title>
<g id="a_Node000002"><a xlink:href="../../d3/d3e/classTplAppServices.html#aad181c8e3dad942198c4a59e6ae0be41" target="_top" xlink:title=" ">
<polygon fill="white" stroke="#666666" points="399.5,-41 217.75,-41 217.75,0 399.5,0 399.5,-41"/>
<text text-anchor="start" x="225.75" y="-23.7" font-family="Helvetica,sans-Serif" font-size="14.00">TplAppServices\getAction</text>
<text text-anchor="middle" x="308.62" y="-7.2" font-family="Helvetica,sans-Serif" font-size="14.00">StopServices</text>
</a>
</g>
</g>
<!-- Node1&#45;&gt;Node2 -->
<g id="edge1_Node000001_Node000002" class="edge">
<title>Node1&#45;&gt;Node2</title>
<g id="a_edge1_Node000001_Node000002"><a xlink:title=" ">
<path fill="none" stroke="#63b8ff" d="M423.92,-20.5C415.85,-20.5 407.72,-20.5 399.72,-20.5"/>
<polygon fill="#63b8ff" stroke="#63b8ff" points="423.76,-24 433.76,-20.5 423.76,-17 423.76,-24"/>
</a>
</g>
</g>
<!-- Node3 -->
<g id="Node000003" class="node">
<title>Node3</title>
<g id="a_Node000003"><a xlink:href="../../d3/d3e/classTplAppServices.html#a47ef245180c0d44d8d4df85b709caba7" target="_top" xlink:title=" ">
<polygon fill="white" stroke="#666666" points="181.75,-41 0,-41 0,0 181.75,0 181.75,-41"/>
<text text-anchor="start" x="8" y="-23.7" font-family="Helvetica,sans-Serif" font-size="14.00">TplAppServices\getAction</text>
<text text-anchor="middle" x="90.88" y="-7.2" font-family="Helvetica,sans-Serif" font-size="14.00">RestartServices</text>
</a>
</g>
</g>
<!-- Node2&#45;&gt;Node3 -->
<g id="edge2_Node000002_Node000003" class="edge">
<title>Node2&#45;&gt;Node3</title>
<g id="a_edge2_Node000002_Node000003"><a xlink:title=" ">
<path fill="none" stroke="#63b8ff" d="M206.1,-20.5C198.09,-20.5 190.03,-20.5 182.11,-20.5"/>
<polygon fill="#63b8ff" stroke="#63b8ff" points="205.86,-24 215.86,-20.5 205.86,-17 205.86,-24"/>
</a>
</g>
</g>
</g>
</svg>
