<?xml version="1.0" encoding="UTF-8" standalone="no"?>
<!--
  - Copyright (c) 2021-2024 Bearsampp
  - License:  GNU General Public License version 3 or later; see LICENSE.txt
  - Author: Bear
  - Website: https://bearsampp.com
  - Github: https://github.com/Bearsampp
  -->

<!DOCTYPE svg PUBLIC "-//W3C//DTD SVG 1.1//EN"
 "http://www.w3.org/Graphics/SVG/1.1/DTD/svg11.dtd">
<!-- Generated by graphviz version 11.0.0 (20240428.1522)
 -->
<!-- Title: Bins\getApache Pages: 1 -->
<svg width="411pt" height="97pt"
 viewBox="0.00 0.00 410.75 96.50" xmlns="http://www.w3.org/2000/svg" xmlns:xlink="http://www.w3.org/1999/xlink">
<g id="graph0" class="graph" transform="scale(1 1) rotate(0) translate(4 92.5)">
<title>Bins\getApache</title>
<!-- Node1 -->
<g id="Node000001" class="node">
<title>Node1</title>
<g id="a_Node000001"><a xlink:title=" ">
<polygon fill="#999999" stroke="#666666" points="402.75,-45.5 286.25,-45.5 286.25,-21 402.75,-21 402.75,-45.5"/>
<text text-anchor="middle" x="344.5" y="-28.2" font-family="Helvetica,sans-Serif" font-size="14.00">Bins\getApache</text>
</a>
</g>
</g>
<!-- Node2 -->
<g id="Node000002" class="node">
<title>Node2</title>
<g id="a_Node000002"><a xlink:href="../../de/d54/classBins.html#a7ea4035267f2dac5fbdddd8f19dfa2a0" target="_top" xlink:title=" ">
<polygon fill="white" stroke="#666666" points="230.38,-67.5 146.88,-67.5 146.88,-43 230.38,-43 230.38,-67.5"/>
<text text-anchor="middle" x="188.62" y="-50.2" font-family="Helvetica,sans-Serif" font-size="14.00">Bins\getAll</text>
</a>
</g>
</g>
<!-- Node1&#45;&gt;Node2 -->
<g id="edge1_Node000001_Node000002" class="edge">
<title>Node1&#45;&gt;Node2</title>
<g id="a_edge1_Node000001_Node000002"><a xlink:title=" ">
<path fill="none" stroke="#63b8ff" d="M274.49,-43.12C259.6,-45.25 244.3,-47.43 230.87,-49.35"/>
<polygon fill="#63b8ff" stroke="#63b8ff" points="274.86,-46.6 284.27,-41.72 273.87,-39.67 274.86,-46.6"/>
</a>
</g>
</g>
<!-- Node5 -->
<g id="Node000005" class="node">
<title>Node5</title>
<g id="a_Node000005"><a xlink:href="../../de/d54/classBins.html#a68ab99140e18eaf1f27ceab8d4f66d88" target="_top" xlink:title=" ">
<polygon fill="white" stroke="#666666" points="250.25,-24.5 127,-24.5 127,0 250.25,0 250.25,-24.5"/>
<text text-anchor="middle" x="188.62" y="-7.2" font-family="Helvetica,sans-Serif" font-size="14.00">Bins\getServices</text>
</a>
</g>
</g>
<!-- Node1&#45;&gt;Node5 -->
<g id="edge4_Node000001_Node000005" class="edge">
<title>Node1&#45;&gt;Node5</title>
<g id="a_edge4_Node000001_Node000005"><a xlink:title=" ">
<path fill="none" stroke="#63b8ff" d="M274.55,-23.84C266.54,-22.75 258.41,-21.64 250.51,-20.56"/>
<polygon fill="#63b8ff" stroke="#63b8ff" points="273.88,-27.28 284.27,-25.17 274.83,-20.35 273.88,-27.28"/>
</a>
</g>
</g>
<!-- Node3 -->
<g id="Node000003" class="node">
<title>Node3</title>
<g id="a_Node000003"><a xlink:href="../../de/d54/classBins.html#a7c50bf487ae95e3dc284f064bc1ca260" target="_top" xlink:title=" ">
<polygon fill="white" stroke="#666666" points="89.12,-88.5 1.88,-88.5 1.88,-64 89.12,-64 89.12,-88.5"/>
<text text-anchor="middle" x="45.5" y="-71.2" font-family="Helvetica,sans-Serif" font-size="14.00">Bins\reload</text>
</a>
</g>
</g>
<!-- Node2&#45;&gt;Node3 -->
<g id="edge2_Node000002_Node000003" class="edge">
<title>Node2&#45;&gt;Node3</title>
<g id="a_edge2_Node000002_Node000003"><a xlink:title=" ">
<path fill="none" stroke="#63b8ff" d="M135.19,-63.05C120.13,-65.29 103.89,-67.71 89.47,-69.86"/>
<polygon fill="#63b8ff" stroke="#63b8ff" points="135.55,-66.54 144.93,-61.6 134.52,-59.61 135.55,-66.54"/>
</a>
</g>
</g>
<!-- Node4 -->
<g id="Node000004" class="node">
<title>Node4</title>
<g id="a_Node000004"><a xlink:href="../../de/d54/classBins.html#aae91a19ced3436e43eb5a05c84079076" target="_top" xlink:title=" ">
<polygon fill="white" stroke="#666666" points="91,-45.5 0,-45.5 0,-21 91,-21 91,-45.5"/>
<text text-anchor="middle" x="45.5" y="-28.2" font-family="Helvetica,sans-Serif" font-size="14.00">Bins\update</text>
</a>
</g>
</g>
<!-- Node2&#45;&gt;Node4 -->
<g id="edge3_Node000002_Node000004" class="edge">
<title>Node2&#45;&gt;Node4</title>
<g id="a_edge3_Node000002_Node000004"><a xlink:title=" ">
<path fill="none" stroke="#63b8ff" d="M135.18,-47.07C120.81,-44.83 105.36,-42.43 91.45,-40.26"/>
<polygon fill="#63b8ff" stroke="#63b8ff" points="134.51,-50.51 144.93,-48.59 135.59,-43.6 134.51,-50.51"/>
</a>
</g>
</g>
</g>
</svg>
