<?xml version="1.0" encoding="UTF-8" standalone="no"?>
<!--
  - Copyright (c) 2021-2024 Bearsampp
  - License:  GNU General Public License version 3 or later; see LICENSE.txt
  - Author: Bear
  - Website: https://bearsampp.com
  - Github: https://github.com/Bearsampp
  -->

<!DOCTYPE svg PUBLIC "-//W3C//DTD SVG 1.1//EN"
 "http://www.w3.org/Graphics/SVG/1.1/DTD/svg11.dtd">
<!-- Generated by graphviz version 11.0.0 (20240428.1522)
 -->
<!-- Title: Bins\getNodejs Pages: 1 -->
<svg width="367pt" height="76pt"
 viewBox="0.00 0.00 367.25 75.50" xmlns="http://www.w3.org/2000/svg" xmlns:xlink="http://www.w3.org/1999/xlink">
<g id="graph0" class="graph" transform="scale(1 1) rotate(0) translate(4 71.5)">
<title>Bins\getNodejs</title>
<!-- Node1 -->
<g id="Node000001" class="node">
<title>Node1</title>
<g id="a_Node000001"><a xlink:title=" ">
<polygon fill="#999999" stroke="#666666" points="359.25,-45.5 246.5,-45.5 246.5,-21 359.25,-21 359.25,-45.5"/>
<text text-anchor="middle" x="302.88" y="-28.2" font-family="Helvetica,sans-Serif" font-size="14.00">Bins\getNodejs</text>
</a>
</g>
</g>
<!-- Node2 -->
<g id="Node000002" class="node">
<title>Node2</title>
<g id="a_Node000002"><a xlink:href="../../de/d54/classBins.html#a7ea4035267f2dac5fbdddd8f19dfa2a0" target="_top" xlink:title=" ">
<polygon fill="white" stroke="#666666" points="210.5,-45.5 127,-45.5 127,-21 210.5,-21 210.5,-45.5"/>
<text text-anchor="middle" x="168.75" y="-28.2" font-family="Helvetica,sans-Serif" font-size="14.00">Bins\getAll</text>
</a>
</g>
</g>
<!-- Node1&#45;&gt;Node2 -->
<g id="edge1_Node000001_Node000002" class="edge">
<title>Node1&#45;&gt;Node2</title>
<g id="a_edge1_Node000001_Node000002"><a xlink:title=" ">
<path fill="none" stroke="#63b8ff" d="M234.75,-33.25C226.61,-33.25 218.49,-33.25 210.88,-33.25"/>
<polygon fill="#63b8ff" stroke="#63b8ff" points="234.71,-36.75 244.71,-33.25 234.71,-29.75 234.71,-36.75"/>
</a>
</g>
</g>
<!-- Node3 -->
<g id="Node000003" class="node">
<title>Node3</title>
<g id="a_Node000003"><a xlink:href="../../de/d54/classBins.html#a7c50bf487ae95e3dc284f064bc1ca260" target="_top" xlink:title=" ">
<polygon fill="white" stroke="#666666" points="89.12,-67.5 1.88,-67.5 1.88,-43 89.12,-43 89.12,-67.5"/>
<text text-anchor="middle" x="45.5" y="-50.2" font-family="Helvetica,sans-Serif" font-size="14.00">Bins\reload</text>
</a>
</g>
</g>
<!-- Node2&#45;&gt;Node3 -->
<g id="edge2_Node000002_Node000003" class="edge">
<title>Node2&#45;&gt;Node3</title>
<g id="a_edge2_Node000002_Node000003"><a xlink:title=" ">
<path fill="none" stroke="#63b8ff" d="M115.52,-42.73C106.86,-44.3 97.98,-45.91 89.58,-47.43"/>
<polygon fill="#63b8ff" stroke="#63b8ff" points="116,-46.2 125.21,-40.97 114.75,-39.31 116,-46.2"/>
</a>
</g>
</g>
<!-- Node4 -->
<g id="Node000004" class="node">
<title>Node4</title>
<g id="a_Node000004"><a xlink:href="../../de/d54/classBins.html#aae91a19ced3436e43eb5a05c84079076" target="_top" xlink:title=" ">
<polygon fill="white" stroke="#666666" points="91,-24.5 0,-24.5 0,0 91,0 91,-24.5"/>
<text text-anchor="middle" x="45.5" y="-7.2" font-family="Helvetica,sans-Serif" font-size="14.00">Bins\update</text>
</a>
</g>
</g>
<!-- Node2&#45;&gt;Node4 -->
<g id="edge3_Node000002_Node000004" class="edge">
<title>Node2&#45;&gt;Node4</title>
<g id="a_edge3_Node000002_Node000004"><a xlink:title=" ">
<path fill="none" stroke="#63b8ff" d="M115.48,-24.2C107.41,-22.8 99.14,-21.37 91.25,-20"/>
<polygon fill="#63b8ff" stroke="#63b8ff" points="114.76,-27.62 125.21,-25.88 115.95,-20.73 114.76,-27.62"/>
</a>
</g>
</g>
</g>
</svg>
