<?xml version="1.0" encoding="UTF-8" standalone="no"?>
<!--
  - Copyright (c) 2021-2024 Bearsampp
  - License:  GNU General Public License version 3 or later; see LICENSE.txt
  - Author: Bear
  - Website: https://bearsampp.com
  - Github: https://github.com/Bearsampp
  -->

<!DOCTYPE svg PUBLIC "-//W3C//DTD SVG 1.1//EN"
 "http://www.w3.org/Graphics/SVG/1.1/DTD/svg11.dtd">
<!-- Generated by graphviz version 11.0.0 (20240428.1522)
 -->
<!-- Title: Bins\getFilezilla Pages: 1 -->
<svg width="414pt" height="158pt"
 viewBox="0.00 0.00 413.75 157.50" xmlns="http://www.w3.org/2000/svg" xmlns:xlink="http://www.w3.org/1999/xlink">
<g id="graph0" class="graph" transform="scale(1 1) rotate(0) translate(4 153.5)">
<title>Bins\getFilezilla</title>
<!-- Node1 -->
<g id="Node000001" class="node">
<title>Node1</title>
<g id="a_Node000001"><a xlink:title=" ">
<polygon fill="#999999" stroke="#666666" points="405.75,-67.5 291.5,-67.5 291.5,-43 405.75,-43 405.75,-67.5"/>
<text text-anchor="middle" x="348.62" y="-50.2" font-family="Helvetica,sans-Serif" font-size="14.00">Bins\getFilezilla</text>
</a>
</g>
</g>
<!-- Node2 -->
<g id="Node000002" class="node">
<title>Node2</title>
<g id="a_Node000002"><a xlink:href="../../de/d54/classBins.html#a7ea4035267f2dac5fbdddd8f19dfa2a0" target="_top" xlink:title=" ">
<polygon fill="white" stroke="#666666" points="233,-128.5 149.5,-128.5 149.5,-104 233,-104 233,-128.5"/>
<text text-anchor="middle" x="191.25" y="-111.2" font-family="Helvetica,sans-Serif" font-size="14.00">Bins\getAll</text>
</a>
</g>
</g>
<!-- Node1&#45;&gt;Node2 -->
<g id="edge1_Node000001_Node000002" class="edge">
<title>Node1&#45;&gt;Node2</title>
<g id="a_edge1_Node000001_Node000002"><a xlink:title=" ">
<path fill="none" stroke="#63b8ff" d="M308.9,-72.31C292.53,-79.35 273.18,-87.44 255.5,-94.25 247.36,-97.38 238.56,-100.57 230.19,-103.51"/>
<polygon fill="#63b8ff" stroke="#63b8ff" points="310.01,-75.64 317.8,-68.46 307.23,-69.22 310.01,-75.64"/>
</a>
</g>
</g>
<!-- Node5 -->
<g id="Node000005" class="node">
<title>Node5</title>
<g id="a_Node000005"><a xlink:href="../../de/d54/classBins.html#a2e183439ce403a18d659b4a16aa943f4" target="_top" xlink:title=" ">
<polygon fill="white" stroke="#666666" points="255.5,-67.5 127,-67.5 127,-43 255.5,-43 255.5,-67.5"/>
<text text-anchor="middle" x="191.25" y="-50.2" font-family="Helvetica,sans-Serif" font-size="14.00">Bins\getLogsPath</text>
</a>
</g>
</g>
<!-- Node1&#45;&gt;Node5 -->
<g id="edge4_Node000001_Node000005" class="edge">
<title>Node1&#45;&gt;Node5</title>
<g id="a_edge4_Node000001_Node000005"><a xlink:title=" ">
<path fill="none" stroke="#63b8ff" d="M279.64,-55.25C271.73,-55.25 263.69,-55.25 255.84,-55.25"/>
<polygon fill="#63b8ff" stroke="#63b8ff" points="279.58,-58.75 289.58,-55.25 279.58,-51.75 279.58,-58.75"/>
</a>
</g>
</g>
<!-- Node6 -->
<g id="Node000006" class="node">
<title>Node6</title>
<g id="a_Node000006"><a xlink:href="../../de/d54/classBins.html#a68ab99140e18eaf1f27ceab8d4f66d88" target="_top" xlink:title=" ">
<polygon fill="white" stroke="#666666" points="252.88,-24.5 129.62,-24.5 129.62,0 252.88,0 252.88,-24.5"/>
<text text-anchor="middle" x="191.25" y="-7.2" font-family="Helvetica,sans-Serif" font-size="14.00">Bins\getServices</text>
</a>
</g>
</g>
<!-- Node1&#45;&gt;Node6 -->
<g id="edge6_Node000001_Node000006" class="edge">
<title>Node1&#45;&gt;Node6</title>
<g id="a_edge6_Node000001_Node000006"><a xlink:title=" ">
<path fill="none" stroke="#63b8ff" d="M291.24,-39.65C273.82,-34.83 254.86,-29.58 238.24,-24.98"/>
<polygon fill="#63b8ff" stroke="#63b8ff" points="289.82,-42.88 300.39,-42.18 291.68,-36.14 289.82,-42.88"/>
</a>
</g>
</g>
<!-- Node3 -->
<g id="Node000003" class="node">
<title>Node3</title>
<g id="a_Node000003"><a xlink:href="../../de/d54/classBins.html#a7c50bf487ae95e3dc284f064bc1ca260" target="_top" xlink:title=" ">
<polygon fill="white" stroke="#666666" points="89.12,-149.5 1.88,-149.5 1.88,-125 89.12,-125 89.12,-149.5"/>
<text text-anchor="middle" x="45.5" y="-132.2" font-family="Helvetica,sans-Serif" font-size="14.00">Bins\reload</text>
</a>
</g>
</g>
<!-- Node2&#45;&gt;Node3 -->
<g id="edge2_Node000002_Node000003" class="edge">
<title>Node2&#45;&gt;Node3</title>
<g id="a_edge2_Node000002_Node000003"><a xlink:title=" ">
<path fill="none" stroke="#63b8ff" d="M137.78,-123.92C121.89,-126.24 104.64,-128.76 89.45,-130.98"/>
<polygon fill="#63b8ff" stroke="#63b8ff" points="138.17,-127.4 147.56,-122.49 137.16,-120.47 138.17,-127.4"/>
</a>
</g>
</g>
<!-- Node4 -->
<g id="Node000004" class="node">
<title>Node4</title>
<g id="a_Node000004"><a xlink:href="../../de/d54/classBins.html#aae91a19ced3436e43eb5a05c84079076" target="_top" xlink:title=" ">
<polygon fill="white" stroke="#666666" points="91,-106.5 0,-106.5 0,-82 91,-82 91,-106.5"/>
<text text-anchor="middle" x="45.5" y="-89.2" font-family="Helvetica,sans-Serif" font-size="14.00">Bins\update</text>
</a>
</g>
</g>
<!-- Node2&#45;&gt;Node4 -->
<g id="edge3_Node000002_Node000004" class="edge">
<title>Node2&#45;&gt;Node4</title>
<g id="a_edge3_Node000002_Node000004"><a xlink:title=" ">
<path fill="none" stroke="#63b8ff" d="M137.74,-108.21C122.57,-105.89 106.15,-103.38 91.48,-101.13"/>
<polygon fill="#63b8ff" stroke="#63b8ff" points="137.15,-111.66 147.56,-109.72 138.21,-104.74 137.15,-111.66"/>
</a>
</g>
</g>
<!-- Node5&#45;&gt;Node5 -->
<g id="edge5_Node000005_Node000005" class="edge">
<title>Node5&#45;&gt;Node5</title>
<g id="a_edge5_Node000005_Node000005"><a xlink:title=" ">
<path fill="none" stroke="#63b8ff" d="M216.07,-79.43C212.23,-83.05 203.95,-85.5 191.25,-85.5 167.34,-85.5 159.12,-76.81 166.59,-67.99"/>
<polygon fill="#63b8ff" stroke="#63b8ff" points="219.57,-79.46 215.93,-69.51 212.58,-79.56 219.57,-79.46"/>
</a>
</g>
</g>
</g>
</svg>
