<?xml version="1.0" encoding="UTF-8" standalone="no"?>
<!--
  - Copyright (c) 2021-2024 Bearsampp
  - License:  GNU General Public License version 3 or later; see LICENSE.txt
  - Author: Bear
  - Website: https://bearsampp.com
  - Github: https://github.com/Bearsampp
  -->

<!DOCTYPE svg PUBLIC "-//W3C//DTD SVG 1.1//EN"
 "http://www.w3.org/Graphics/SVG/1.1/DTD/svg11.dtd">
<!-- Generated by graphviz version 11.0.0 (20240428.1522)
 -->
<!-- Title: Win32Ps\getStatProc Pages: 1 -->
<svg width="613pt" height="76pt"
 viewBox="0.00 0.00 612.50 75.50" xmlns="http://www.w3.org/2000/svg" xmlns:xlink="http://www.w3.org/1999/xlink">
<g id="graph0" class="graph" transform="scale(1 1) rotate(0) translate(4 71.5)">
<title>Win32Ps\getStatProc</title>
<!-- Node1 -->
<g id="Node000001" class="node">
<title>Node1</title>
<g id="a_Node000001"><a xlink:title=" ">
<polygon fill="#999999" stroke="#666666" points="604.5,-45.5 451.25,-45.5 451.25,-21 604.5,-21 604.5,-45.5"/>
<text text-anchor="middle" x="527.88" y="-28.2" font-family="Helvetica,sans-Serif" font-size="14.00">Win32Ps\getStatProc</text>
</a>
</g>
</g>
<!-- Node2 -->
<g id="Node000002" class="node">
<title>Node2</title>
<g id="a_Node000002"><a xlink:href="../../dc/ddb/classWin32Ps.html#a45c6b3a9ac19c6abe3a005fda55a20dd" target="_top" xlink:title=" ">
<polygon fill="white" stroke="#666666" points="415.25,-45.5 249.25,-45.5 249.25,-21 415.25,-21 415.25,-45.5"/>
<text text-anchor="middle" x="332.25" y="-28.2" font-family="Helvetica,sans-Serif" font-size="14.00">Win32Ps\getCurrentPid</text>
</a>
</g>
</g>
<!-- Node1&#45;&gt;Node2 -->
<g id="edge1_Node000001_Node000002" class="edge">
<title>Node1&#45;&gt;Node2</title>
<g id="a_edge1_Node000001_Node000002"><a xlink:title=" ">
<path fill="none" stroke="#63b8ff" d="M439.43,-33.25C431.54,-33.25 423.56,-33.25 415.71,-33.25"/>
<polygon fill="#63b8ff" stroke="#63b8ff" points="439.39,-36.75 449.39,-33.25 439.39,-29.75 439.39,-36.75"/>
</a>
</g>
</g>
<!-- Node3 -->
<g id="Node000003" class="node">
<title>Node3</title>
<g id="a_Node000003"><a xlink:href="../../df/d6b/classActionLoading.html#af434607e7cff5f88bd90ab31d5d82fbb" target="_top" xlink:title=" ">
<polygon fill="white" stroke="#666666" points="199,-67.5 14.25,-67.5 14.25,-43 199,-43 199,-67.5"/>
<text text-anchor="middle" x="106.63" y="-50.2" font-family="Helvetica,sans-Serif" font-size="14.00">ActionLoading\__construct</text>
</a>
</g>
</g>
<!-- Node2&#45;&gt;Node3 -->
<g id="edge2_Node000002_Node000003" class="edge">
<title>Node2&#45;&gt;Node3</title>
<g id="a_edge2_Node000002_Node000003"><a xlink:title=" ">
<path fill="none" stroke="#63b8ff" d="M237.81,-42.44C225.04,-43.7 211.93,-44.99 199.19,-46.24"/>
<polygon fill="#63b8ff" stroke="#63b8ff" points="237.82,-45.96 247.43,-41.5 237.13,-38.99 237.82,-45.96"/>
</a>
</g>
</g>
<!-- Node4 -->
<g id="Node000004" class="node">
<title>Node4</title>
<g id="a_Node000004"><a xlink:href="../../df/d6b/classActionLoading.html#a8c4708dceac210a2a1b740937261a3e4" target="_top" xlink:title=" ">
<polygon fill="white" stroke="#666666" points="213.25,-24.5 0,-24.5 0,0 213.25,0 213.25,-24.5"/>
<text text-anchor="middle" x="106.63" y="-7.2" font-family="Helvetica,sans-Serif" font-size="14.00">ActionLoading\processLoading</text>
</a>
</g>
</g>
<!-- Node2&#45;&gt;Node4 -->
<g id="edge3_Node000002_Node000004" class="edge">
<title>Node2&#45;&gt;Node4</title>
<g id="a_edge3_Node000002_Node000004"><a xlink:title=" ">
<path fill="none" stroke="#63b8ff" d="M237.68,-24.46C229.65,-23.71 221.49,-22.94 213.37,-22.18"/>
<polygon fill="#63b8ff" stroke="#63b8ff" points="237.14,-27.93 247.43,-25.38 237.8,-20.96 237.14,-27.93"/>
</a>
</g>
</g>
</g>
</svg>
