<?xml version="1.0" encoding="UTF-8" standalone="no"?>
<!--
  - Copyright (c) 2021-2024 Bearsampp
  - License:  GNU General Public License version 3 or later; see LICENSE.txt
  - Author: Bear
  - Website: https://bearsampp.com
  - Github: https://github.com/Bearsampp
  -->

<!DOCTYPE svg PUBLIC "-//W3C//DTD SVG 1.1//EN"
 "http://www.w3.org/Graphics/SVG/1.1/DTD/svg11.dtd">
<!-- Generated by graphviz version 11.0.0 (20240428.1522)
 -->
<!-- Title: Win32Ps\killBins Pages: 1 -->
<svg width="815pt" height="221pt"
 viewBox="0.00 0.00 815.25 220.75" xmlns="http://www.w3.org/2000/svg" xmlns:xlink="http://www.w3.org/1999/xlink">
<g id="graph0" class="graph" transform="scale(1 1) rotate(0) translate(4 216.75)">
<title>Win32Ps\killBins</title>
<!-- Node1 -->
<g id="Node000001" class="node">
<title>Node1</title>
<g id="a_Node000001"><a xlink:title=" ">
<polygon fill="#999999" stroke="#666666" points="807.25,-110.5 685.5,-110.5 685.5,-86 807.25,-86 807.25,-110.5"/>
<text text-anchor="middle" x="746.38" y="-93.2" font-family="Helvetica,sans-Serif" font-size="14.00">Win32Ps\killBins</text>
</a>
</g>
</g>
<!-- Node2 -->
<g id="Node000002" class="node">
<title>Node2</title>
<g id="a_Node000002"><a xlink:href="../../d0/d9f/classActionManualRestart.html#a229630778cbd92fef95f4e99e872fdca" target="_top" xlink:title=" ">
<polygon fill="white" stroke="#666666" points="620.25,-212.75 474.5,-212.75 474.5,-171.75 620.25,-171.75 620.25,-212.75"/>
<text text-anchor="start" x="482.5" y="-195.45" font-family="Helvetica,sans-Serif" font-size="14.00">ActionManualRestart</text>
<text text-anchor="middle" x="547.38" y="-178.95" font-family="Helvetica,sans-Serif" font-size="14.00">\__construct</text>
</a>
</g>
</g>
<!-- Node1&#45;&gt;Node2 -->
<g id="edge1_Node000001_Node000002" class="edge">
<title>Node1&#45;&gt;Node2</title>
<g id="a_edge1_Node000001_Node000002"><a xlink:title=" ">
<path fill="none" stroke="#63b8ff" d="M720.66,-117.78C701.99,-131.76 675.27,-150.17 649.5,-162.25 640.38,-166.53 630.51,-170.35 620.64,-173.72"/>
<polygon fill="#63b8ff" stroke="#63b8ff" points="722.61,-120.7 728.44,-111.85 718.36,-115.13 722.61,-120.7"/>
</a>
</g>
</g>
<!-- Node3 -->
<g id="Node000003" class="node">
<title>Node3</title>
<g id="a_Node000003"><a xlink:href="../../da/dbb/classBatch.html#a60ded4c18eb060829639a955ec294ffc" target="_top" xlink:title=" ">
<polygon fill="white" stroke="#666666" points="599.25,-153.5 495.5,-153.5 495.5,-129 599.25,-129 599.25,-153.5"/>
<text text-anchor="middle" x="547.38" y="-136.2" font-family="Helvetica,sans-Serif" font-size="14.00">Batch\exitApp</text>
</a>
</g>
</g>
<!-- Node1&#45;&gt;Node3 -->
<g id="edge2_Node000001_Node000003" class="edge">
<title>Node1&#45;&gt;Node3</title>
<g id="a_edge2_Node000001_Node000003"><a xlink:title=" ">
<path fill="none" stroke="#63b8ff" d="M676.09,-113.44C667.14,-115.4 658.1,-117.37 649.5,-119.25 633.26,-122.79 615.56,-126.65 599.56,-130.13"/>
<polygon fill="#63b8ff" stroke="#63b8ff" points="676.83,-116.86 685.85,-111.3 675.33,-110.02 676.83,-116.86"/>
</a>
</g>
</g>
<!-- Node6 -->
<g id="Node000006" class="node">
<title>Node6</title>
<g id="a_Node000006"><a xlink:href="../../d1/db8/classActionStartup.html#a7a49b348e0daf7c1afc440479e15335a" target="_top" xlink:title=" ">
<polygon fill="white" stroke="#666666" points="649.5,-110.5 445.25,-110.5 445.25,-86 649.5,-86 649.5,-110.5"/>
<text text-anchor="middle" x="547.38" y="-93.2" font-family="Helvetica,sans-Serif" font-size="14.00">ActionStartup\killOldInstances</text>
</a>
</g>
</g>
<!-- Node1&#45;&gt;Node6 -->
<g id="edge6_Node000001_Node000006" class="edge">
<title>Node1&#45;&gt;Node6</title>
<g id="a_edge6_Node000001_Node000006"><a xlink:title=" ">
<path fill="none" stroke="#63b8ff" d="M673.94,-98.25C666.12,-98.25 658.06,-98.25 649.96,-98.25"/>
<polygon fill="#63b8ff" stroke="#63b8ff" points="673.68,-101.75 683.68,-98.25 673.68,-94.75 673.68,-101.75"/>
</a>
</g>
</g>
<!-- Node8 -->
<g id="Node000008" class="node">
<title>Node8</title>
<g id="a_Node000008"><a xlink:href="../../de/d86/classActionQuit.html#a2331cc6725be5a9283c65d462bfb5f5b" target="_top" xlink:title=" ">
<polygon fill="white" stroke="#666666" points="641.25,-67.5 453.5,-67.5 453.5,-43 641.25,-43 641.25,-67.5"/>
<text text-anchor="middle" x="547.38" y="-50.2" font-family="Helvetica,sans-Serif" font-size="14.00">ActionQuit\processWindow</text>
</a>
</g>
</g>
<!-- Node1&#45;&gt;Node8 -->
<g id="edge8_Node000001_Node000008" class="edge">
<title>Node1&#45;&gt;Node8</title>
<g id="a_edge8_Node000001_Node000008"><a xlink:title=" ">
<path fill="none" stroke="#63b8ff" d="M676.09,-83.06C667.14,-81.1 658.1,-79.13 649.5,-77.25 635.72,-74.24 620.88,-71.01 606.93,-67.97"/>
<polygon fill="#63b8ff" stroke="#63b8ff" points="675.33,-86.48 685.85,-85.2 676.83,-79.64 675.33,-86.48"/>
</a>
</g>
</g>
<!-- Node9 -->
<g id="Node000009" class="node">
<title>Node9</title>
<g id="a_Node000009"><a xlink:href="../../d1/d42/classActionExt.html#a773acee7f7d11b500400d4c897323076" target="_top" xlink:title=" ">
<polygon fill="white" stroke="#666666" points="624.38,-24.5 470.38,-24.5 470.38,0 624.38,0 624.38,-24.5"/>
<text text-anchor="middle" x="547.38" y="-7.2" font-family="Helvetica,sans-Serif" font-size="14.00">ActionExt\procReload</text>
</a>
</g>
</g>
<!-- Node1&#45;&gt;Node9 -->
<g id="edge9_Node000001_Node000009" class="edge">
<title>Node1&#45;&gt;Node9</title>
<g id="a_edge9_Node000001_Node000009"><a xlink:title=" ">
<path fill="none" stroke="#63b8ff" d="M721.58,-78.66C703.01,-64.33 676.01,-45.5 649.5,-34.25 640.9,-30.6 631.62,-27.52 622.29,-24.94"/>
<polygon fill="#63b8ff" stroke="#63b8ff" points="719.26,-81.29 729.28,-84.74 723.6,-75.8 719.26,-81.29"/>
</a>
</g>
</g>
<!-- Node4 -->
<g id="Node000004" class="node">
<title>Node4</title>
<g id="a_Node000004"><a xlink:href="../../db/d8f/classActionExec.html#a8228382d8a7768239c559563a8d58994" target="_top" xlink:title=" ">
<polygon fill="white" stroke="#666666" points="166,-173.5 0,-173.5 0,-149 166,-149 166,-173.5"/>
<text text-anchor="middle" x="83" y="-156.2" font-family="Helvetica,sans-Serif" font-size="14.00">ActionExec\__construct</text>
</a>
</g>
</g>
<!-- Node3&#45;&gt;Node4 -->
<g id="edge3_Node000003_Node000004" class="edge">
<title>Node3&#45;&gt;Node4</title>
<g id="a_edge3_Node000003_Node000004"><a xlink:title=" ">
<path fill="none" stroke="#63b8ff" d="M483.98,-152.85C460.63,-156.65 433.81,-160.38 409.25,-162.25 317.4,-169.24 294.11,-162.64 202,-162.25 190.43,-162.2 178.21,-162.12 166.21,-162.04"/>
<polygon fill="#63b8ff" stroke="#63b8ff" points="484.37,-156.34 493.65,-151.24 483.21,-149.43 484.37,-156.34"/>
</a>
</g>
</g>
<!-- Node5 -->
<g id="Node000005" class="node">
<title>Node5</title>
<g id="a_Node000005"><a xlink:href="../../da/dbb/classBatch.html#ac5c8b3c31fa2a76d1cb2b1a10ff6d4d5" target="_top" xlink:title=" ">
<polygon fill="white" stroke="#666666" points="366.5,-153.5 244.75,-153.5 244.75,-129 366.5,-129 366.5,-153.5"/>
<text text-anchor="middle" x="305.62" y="-136.2" font-family="Helvetica,sans-Serif" font-size="14.00">Batch\restartApp</text>
</a>
</g>
</g>
<!-- Node3&#45;&gt;Node5 -->
<g id="edge4_Node000003_Node000005" class="edge">
<title>Node3&#45;&gt;Node5</title>
<g id="a_edge4_Node000003_Node000005"><a xlink:title=" ">
<path fill="none" stroke="#63b8ff" d="M483.83,-141.25C447.63,-141.25 402.32,-141.25 366.57,-141.25"/>
<polygon fill="#63b8ff" stroke="#63b8ff" points="483.72,-144.75 493.72,-141.25 483.72,-137.75 483.72,-144.75"/>
</a>
</g>
</g>
<!-- Node5&#45;&gt;Node4 -->
<g id="edge5_Node000005_Node000004" class="edge">
<title>Node5&#45;&gt;Node4</title>
<g id="a_edge5_Node000005_Node000004"><a xlink:title=" ">
<path fill="none" stroke="#63b8ff" d="M233.06,-147.74C211.7,-149.67 188.11,-151.81 166.13,-153.8"/>
<polygon fill="#63b8ff" stroke="#63b8ff" points="233.19,-151.24 242.83,-146.85 232.56,-144.27 233.19,-151.24"/>
</a>
</g>
</g>
<!-- Node7 -->
<g id="Node000007" class="node">
<title>Node7</title>
<g id="a_Node000007"><a xlink:href="../../d1/db8/classActionStartup.html#a1234a0f2093a95140d6f86983514d28f" target="_top" xlink:title=" ">
<polygon fill="white" stroke="#666666" points="409.25,-110.5 202,-110.5 202,-86 409.25,-86 409.25,-110.5"/>
<text text-anchor="middle" x="305.62" y="-93.2" font-family="Helvetica,sans-Serif" font-size="14.00">ActionStartup\processWindow</text>
</a>
</g>
</g>
<!-- Node6&#45;&gt;Node7 -->
<g id="edge7_Node000006_Node000007" class="edge">
<title>Node6&#45;&gt;Node7</title>
<g id="a_edge7_Node000006_Node000007"><a xlink:title=" ">
<path fill="none" stroke="#63b8ff" d="M433.69,-98.25C425.62,-98.25 417.52,-98.25 409.51,-98.25"/>
<polygon fill="#63b8ff" stroke="#63b8ff" points="433.53,-101.75 443.53,-98.25 433.53,-94.75 433.53,-101.75"/>
</a>
</g>
</g>
</g>
</svg>
