<?xml version="1.0" encoding="UTF-8" standalone="no"?>
<!--
  - Copyright (c) 2021-2024 Bearsampp
  - License:  GNU General Public License version 3 or later; see LICENSE.txt
  - Author: Bear
  - Website: https://bearsampp.com
  - Github: https://github.com/Bearsampp
  -->

<!DOCTYPE svg PUBLIC "-//W3C//DTD SVG 1.1//EN"
 "http://www.w3.org/Graphics/SVG/1.1/DTD/svg11.dtd">
<!-- Generated by graphviz version 11.0.0 (20240428.1522)
 -->
<!-- Title: Win32Ps\killBins Pages: 1 -->
<!--zoomable 221 -->

<svg id="main" version="1.1" xmlns="http://www.w3.org/2000/svg" xmlns:xlink="http://www.w3.org/1999/xlink" xml:space="preserve" onload="init(evt)">
<style type="text/css"><![CDATA[
.node, .edge {opacity: 0.7;}
.node.selected, .edge.selected {opacity: 1;}
.edge:hover path { stroke: red; }
.edge:hover polygon { stroke: red; fill: red; }
]]></style>

<defs>
  <circle id="rim" cx="0" cy="0" r="7"/>
  <circle id="rim2" cx="0" cy="0" r="3.5"/>
  <g id="zoomPlus">
    <use xlink:href="#rim" fill="#404040"><set attributeName="fill" to="#808080" begin="zoomplus.mouseover" end="zoomplus.mouseout"/></use>
    <path d="M-4,0h8M0,-4v8" fill="none" stroke="white" stroke-width="1.5" pointer-events="none"/>
  </g>
  <g id="zoomMin">
    <use xlink:href="#rim" fill="#404040"><set attributeName="fill" to="#808080" begin="zoomminus.mouseover" end="zoomminus.mouseout"/></use>
    <path d="M-4,0h8" fill="none" stroke="white" stroke-width="1.5" pointer-events="none"/>
  </g>
  <g id="arrowUp" transform="translate(30 24)">
    <use xlink:href="#rim"/>
    <path pointer-events="none" fill="none" stroke="white" stroke-width="1.5" d="M0,-3.0v7 M-2.5,-0.5L0,-3.0L2.5,-0.5"/>
  </g>
  <g id="arrowRight" transform="rotate(90) translate(36 -43)">
    <use xlink:href="#rim"/>
    <path pointer-events="none" fill="none" stroke="white" stroke-width="1.5" d="M0,-3.0v7 M-2.5,-0.5L0,-3.0L2.5,-0.5"/>
  </g>
  <g id="arrowDown" transform="rotate(180) translate(-30 -48)">
    <use xlink:href="#rim"/>
    <path pointer-events="none" fill="none" stroke="white" stroke-width="1.5" d="M0,-3.0v7 M-2.5,-0.5L0,-3.0L2.5,-0.5"/>
  </g>
  <g id="arrowLeft" transform="rotate(270) translate(-36 17)">
    <use xlink:href="#rim"/>
    <path pointer-events="none" fill="none" stroke="white" stroke-width="1.5" d="M0,-3.0v7 M-2.5,-0.5L0,-3.0L2.5,-0.5"/>
  </g>
  <g id="resetDef">
    <use xlink:href="#rim2" fill="#404040"><set attributeName="fill" to="#808080" begin="reset.mouseover" end="reset.mouseout"/></use>
  </g>
</defs>
<script type="application/ecmascript">
var viewWidth = 815;
var viewHeight = 221;
var sectionId = 'dynsection-6';
</script>
<script type="application/ecmascript" xlink:href="../../svg.min.js"/>
<svg id="graph" class="graph">
<g id="viewport">
<title>Win32Ps\killBins</title>
<!-- Node1 -->
<g id="Node000001" class="node">
<title>Node1</title>
<g id="a_Node000001"><a xlink:title=" ">
<polygon fill="#999999" stroke="#666666" points="807.25,-110.5 685.5,-110.5 685.5,-86 807.25,-86 807.25,-110.5"/>
<text text-anchor="middle" x="746.38" y="-93.2" font-family="Helvetica,sans-Serif" font-size="14.00">Win32Ps\killBins</text>
</a>
</g>
</g>
<!-- Node2 -->
<g id="Node000002" class="node">
<title>Node2</title>
<g id="a_Node000002"><a xlink:href="../../d0/d9f/classActionManualRestart.html#a229630778cbd92fef95f4e99e872fdca" target="_top" xlink:title=" ">
<polygon fill="white" stroke="#666666" points="620.25,-212.75 474.5,-212.75 474.5,-171.75 620.25,-171.75 620.25,-212.75"/>
<text text-anchor="start" x="482.5" y="-195.45" font-family="Helvetica,sans-Serif" font-size="14.00">ActionManualRestart</text>
<text text-anchor="middle" x="547.38" y="-178.95" font-family="Helvetica,sans-Serif" font-size="14.00">\__construct</text>
</a>
</g>
</g>
<!-- Node1&#45;&gt;Node2 -->
<g id="edge1_Node000001_Node000002" class="edge">
<title>Node1&#45;&gt;Node2</title>
<g id="a_edge1_Node000001_Node000002"><a xlink:title=" ">
<path fill="none" stroke="#63b8ff" d="M720.66,-117.78C701.99,-131.76 675.27,-150.17 649.5,-162.25 640.38,-166.53 630.51,-170.35 620.64,-173.72"/>
<polygon fill="#63b8ff" stroke="#63b8ff" points="722.61,-120.7 728.44,-111.85 718.36,-115.13 722.61,-120.7"/>
</a>
</g>
</g>
<!-- Node3 -->
<g id="Node000003" class="node">
<title>Node3</title>
<g id="a_Node000003"><a xlink:href="../../da/dbb/classBatch.html#a60ded4c18eb060829639a955ec294ffc" target="_top" xlink:title=" ">
<polygon fill="white" stroke="#666666" points="599.25,-153.5 495.5,-153.5 495.5,-129 599.25,-129 599.25,-153.5"/>
<text text-anchor="middle" x="547.38" y="-136.2" font-family="Helvetica,sans-Serif" font-size="14.00">Batch\exitApp</text>
</a>
</g>
</g>
<!-- Node1&#45;&gt;Node3 -->
<g id="edge2_Node000001_Node000003" class="edge">
<title>Node1&#45;&gt;Node3</title>
<g id="a_edge2_Node000001_Node000003"><a xlink:title=" ">
<path fill="none" stroke="#63b8ff" d="M676.09,-113.44C667.14,-115.4 658.1,-117.37 649.5,-119.25 633.26,-122.79 615.56,-126.65 599.56,-130.13"/>
<polygon fill="#63b8ff" stroke="#63b8ff" points="676.83,-116.86 685.85,-111.3 675.33,-110.02 676.83,-116.86"/>
</a>
</g>
</g>
<!-- Node6 -->
<g id="Node000006" class="node">
<title>Node6</title>
<g id="a_Node000006"><a xlink:href="../../d1/db8/classActionStartup.html#a7a49b348e0daf7c1afc440479e15335a" target="_top" xlink:title=" ">
<polygon fill="white" stroke="#666666" points="649.5,-110.5 445.25,-110.5 445.25,-86 649.5,-86 649.5,-110.5"/>
<text text-anchor="middle" x="547.38" y="-93.2" font-family="Helvetica,sans-Serif" font-size="14.00">ActionStartup\killOldInstances</text>
</a>
</g>
</g>
<!-- Node1&#45;&gt;Node6 -->
<g id="edge6_Node000001_Node000006" class="edge">
<title>Node1&#45;&gt;Node6</title>
<g id="a_edge6_Node000001_Node000006"><a xlink:title=" ">
<path fill="none" stroke="#63b8ff" d="M673.94,-98.25C666.12,-98.25 658.06,-98.25 649.96,-98.25"/>
<polygon fill="#63b8ff" stroke="#63b8ff" points="673.68,-101.75 683.68,-98.25 673.68,-94.75 673.68,-101.75"/>
</a>
</g>
</g>
<!-- Node8 -->
<g id="Node000008" class="node">
<title>Node8</title>
<g id="a_Node000008"><a xlink:href="../../de/d86/classActionQuit.html#a2331cc6725be5a9283c65d462bfb5f5b" target="_top" xlink:title=" ">
<polygon fill="white" stroke="#666666" points="641.25,-67.5 453.5,-67.5 453.5,-43 641.25,-43 641.25,-67.5"/>
<text text-anchor="middle" x="547.38" y="-50.2" font-family="Helvetica,sans-Serif" font-size="14.00">ActionQuit\processWindow</text>
</a>
</g>
</g>
<!-- Node1&#45;&gt;Node8 -->
<g id="edge8_Node000001_Node000008" class="edge">
<title>Node1&#45;&gt;Node8</title>
<g id="a_edge8_Node000001_Node000008"><a xlink:title=" ">
<path fill="none" stroke="#63b8ff" d="M676.09,-83.06C667.14,-81.1 658.1,-79.13 649.5,-77.25 635.72,-74.24 620.88,-71.01 606.93,-67.97"/>
<polygon fill="#63b8ff" stroke="#63b8ff" points="675.33,-86.48 685.85,-85.2 676.83,-79.64 675.33,-86.48"/>
</a>
</g>
</g>
<!-- Node9 -->
<g id="Node000009" class="node">
<title>Node9</title>
<g id="a_Node000009"><a xlink:href="../../d1/d42/classActionExt.html#a773acee7f7d11b500400d4c897323076" target="_top" xlink:title=" ">
<polygon fill="white" stroke="#666666" points="624.38,-24.5 470.38,-24.5 470.38,0 624.38,0 624.38,-24.5"/>
<text text-anchor="middle" x="547.38" y="-7.2" font-family="Helvetica,sans-Serif" font-size="14.00">ActionExt\procReload</text>
</a>
</g>
</g>
<!-- Node1&#45;&gt;Node9 -->
<g id="edge9_Node000001_Node000009" class="edge">
<title>Node1&#45;&gt;Node9</title>
<g id="a_edge9_Node000001_Node000009"><a xlink:title=" ">
<path fill="none" stroke="#63b8ff" d="M721.58,-78.66C703.01,-64.33 676.01,-45.5 649.5,-34.25 640.9,-30.6 631.62,-27.52 622.29,-24.94"/>
<polygon fill="#63b8ff" stroke="#63b8ff" points="719.26,-81.29 729.28,-84.74 723.6,-75.8 719.26,-81.29"/>
</a>
</g>
</g>
<!-- Node4 -->
<g id="Node000004" class="node">
<title>Node4</title>
<g id="a_Node000004"><a xlink:href="../../db/d8f/classActionExec.html#a8228382d8a7768239c559563a8d58994" target="_top" xlink:title=" ">
<polygon fill="white" stroke="#666666" points="166,-173.5 0,-173.5 0,-149 166,-149 166,-173.5"/>
<text text-anchor="middle" x="83" y="-156.2" font-family="Helvetica,sans-Serif" font-size="14.00">ActionExec\__construct</text>
</a>
</g>
</g>
<!-- Node3&#45;&gt;Node4 -->
<g id="edge3_Node000003_Node000004" class="edge">
<title>Node3&#45;&gt;Node4</title>
<g id="a_edge3_Node000003_Node000004"><a xlink:title=" ">
<path fill="none" stroke="#63b8ff" d="M483.98,-152.85C460.63,-156.65 433.81,-160.38 409.25,-162.25 317.4,-169.24 294.11,-162.64 202,-162.25 190.43,-162.2 178.21,-162.12 166.21,-162.04"/>
<polygon fill="#63b8ff" stroke="#63b8ff" points="484.37,-156.34 493.65,-151.24 483.21,-149.43 484.37,-156.34"/>
</a>
</g>
</g>
<!-- Node5 -->
<g id="Node000005" class="node">
<title>Node5</title>
<g id="a_Node000005"><a xlink:href="../../da/dbb/classBatch.html#ac5c8b3c31fa2a76d1cb2b1a10ff6d4d5" target="_top" xlink:title=" ">
<polygon fill="white" stroke="#666666" points="366.5,-153.5 244.75,-153.5 244.75,-129 366.5,-129 366.5,-153.5"/>
<text text-anchor="middle" x="305.62" y="-136.2" font-family="Helvetica,sans-Serif" font-size="14.00">Batch\restartApp</text>
</a>
</g>
</g>
<!-- Node3&#45;&gt;Node5 -->
<g id="edge4_Node000003_Node000005" class="edge">
<title>Node3&#45;&gt;Node5</title>
<g id="a_edge4_Node000003_Node000005"><a xlink:title=" ">
<path fill="none" stroke="#63b8ff" d="M483.83,-141.25C447.63,-141.25 402.32,-141.25 366.57,-141.25"/>
<polygon fill="#63b8ff" stroke="#63b8ff" points="483.72,-144.75 493.72,-141.25 483.72,-137.75 483.72,-144.75"/>
</a>
</g>
</g>
<!-- Node5&#45;&gt;Node4 -->
<g id="edge5_Node000005_Node000004" class="edge">
<title>Node5&#45;&gt;Node4</title>
<g id="a_edge5_Node000005_Node000004"><a xlink:title=" ">
<path fill="none" stroke="#63b8ff" d="M233.06,-147.74C211.7,-149.67 188.11,-151.81 166.13,-153.8"/>
<polygon fill="#63b8ff" stroke="#63b8ff" points="233.19,-151.24 242.83,-146.85 232.56,-144.27 233.19,-151.24"/>
</a>
</g>
</g>
<!-- Node7 -->
<g id="Node000007" class="node">
<title>Node7</title>
<g id="a_Node000007"><a xlink:href="../../d1/db8/classActionStartup.html#a1234a0f2093a95140d6f86983514d28f" target="_top" xlink:title=" ">
<polygon fill="white" stroke="#666666" points="409.25,-110.5 202,-110.5 202,-86 409.25,-86 409.25,-110.5"/>
<text text-anchor="middle" x="305.62" y="-93.2" font-family="Helvetica,sans-Serif" font-size="14.00">ActionStartup\processWindow</text>
</a>
</g>
</g>
<!-- Node6&#45;&gt;Node7 -->
<g id="edge7_Node000006_Node000007" class="edge">
<title>Node6&#45;&gt;Node7</title>
<g id="a_edge7_Node000006_Node000007"><a xlink:title=" ">
<path fill="none" stroke="#63b8ff" d="M433.69,-98.25C425.62,-98.25 417.52,-98.25 409.51,-98.25"/>
<polygon fill="#63b8ff" stroke="#63b8ff" points="433.53,-101.75 443.53,-98.25 433.53,-94.75 433.53,-101.75"/>
</a>
</g>
</g>
</g>
</svg>

<g id="navigator" transform="translate(0 0)" fill="#404254">
  <rect fill="#f2f5e9" fill-opacity="0.5" stroke="#606060" stroke-width=".5" x="0" y="0" width="60" height="60"/>
  <use id="zoomplus" xlink:href="#zoomPlus" x="17" y="9" onmousedown="handleZoom(evt,'in')"/>
  <use id="zoomminus" xlink:href="#zoomMin" x="42" y="9" onmousedown="handleZoom(evt,'out')"/>
  <use id="reset" xlink:href="#resetDef" x="30" y="36" onmousedown="handleReset()"/>
   <use id="arrowup" xlink:href="#arrowUp" x="0" y="0" onmousedown="handlePan(0,-1)"/>
  <use id="arrowright" xlink:href="#arrowRight" x="0" y="0" onmousedown="handlePan(1,0)"/>
  <use id="arrowdown" xlink:href="#arrowDown" x="0" y="0" onmousedown="handlePan(0,1)"/>
  <use id="arrowleft" xlink:href="#arrowLeft" x="0" y="0" onmousedown="handlePan(-1,0)"/>
</g>
<svg viewBox="0 0 15 15" width="100%" height="30px" preserveAspectRatio="xMaxYMin meet">
 <g id="arrow_out" transform="scale(0.3 0.3)">
  <a xlink:href="classWin32Ps_aa522ce4696d00af3e499932fff26a2da_icgraph_org.svg" target="_base">
   <rect id="button" ry="5" rx="5" y="6" x="6" height="38" width="38"
        fill="#f2f5e9" fill-opacity="0.5" stroke="#606060" stroke-width="1.0"/>
   <path id="arrow"
     d="M 11.500037,31.436501 C 11.940474,20.09759 22.043105,11.32322 32.158766,21.979434 L 37.068811,17.246167 C 37.068811,17.246167 37.088388,32 37.088388,32 L 22.160133,31.978069 C 22.160133,31.978069 26.997745,27.140456 26.997745,27.140456 C 18.528582,18.264221 13.291696,25.230495 11.500037,31.436501 z"
     style="fill:#404040;"/>
  </a>
 </g>
</svg>

<style type='text/css'>
<![CDATA[
[data-mouse-over-selected='false'] { opacity: 0.7; }
[data-mouse-over-selected='true']  { opacity: 1.0; }
]]>
</style>
<script type="application/ecmascript"><![CDATA[
document.addEventListener('DOMContentLoaded', (event) => {
  highlightEdges();
  highlightAdjacentNodes();
});
]]></script>
</svg>
