<?xml version="1.0" encoding="UTF-8" standalone="no"?>
<!--
  - Copyright (c) 2021-2024 Bearsampp
  - License:  GNU General Public License version 3 or later; see LICENSE.txt
  - Author: Bear
  - Website: https://bearsampp.com
  - Github: https://github.com/Bearsampp
  -->

<!DOCTYPE svg PUBLIC "-//W3C//DTD SVG 1.1//EN"
 "http://www.w3.org/Graphics/SVG/1.1/DTD/svg11.dtd">
<!-- Generated by graphviz version 11.0.0 (20240428.1522)
 -->
<!-- Title: Win32Ps\getListProcs Pages: 1 -->
<!--zoomable 264 -->

<svg id="main" version="1.1" xmlns="http://www.w3.org/2000/svg" xmlns:xlink="http://www.w3.org/1999/xlink" xml:space="preserve" onload="init(evt)">
<style type="text/css"><![CDATA[
.node, .edge {opacity: 0.7;}
.node.selected, .edge.selected {opacity: 1;}
.edge:hover path { stroke: red; }
.edge:hover polygon { stroke: red; fill: red; }
]]></style>

<defs>
  <circle id="rim" cx="0" cy="0" r="7"/>
  <circle id="rim2" cx="0" cy="0" r="3.5"/>
  <g id="zoomPlus">
    <use xlink:href="#rim" fill="#404040"><set attributeName="fill" to="#808080" begin="zoomplus.mouseover" end="zoomplus.mouseout"/></use>
    <path d="M-4,0h8M0,-4v8" fill="none" stroke="white" stroke-width="1.5" pointer-events="none"/>
  </g>
  <g id="zoomMin">
    <use xlink:href="#rim" fill="#404040"><set attributeName="fill" to="#808080" begin="zoomminus.mouseover" end="zoomminus.mouseout"/></use>
    <path d="M-4,0h8" fill="none" stroke="white" stroke-width="1.5" pointer-events="none"/>
  </g>
  <g id="arrowUp" transform="translate(30 24)">
    <use xlink:href="#rim"/>
    <path pointer-events="none" fill="none" stroke="white" stroke-width="1.5" d="M0,-3.0v7 M-2.5,-0.5L0,-3.0L2.5,-0.5"/>
  </g>
  <g id="arrowRight" transform="rotate(90) translate(36 -43)">
    <use xlink:href="#rim"/>
    <path pointer-events="none" fill="none" stroke="white" stroke-width="1.5" d="M0,-3.0v7 M-2.5,-0.5L0,-3.0L2.5,-0.5"/>
  </g>
  <g id="arrowDown" transform="rotate(180) translate(-30 -48)">
    <use xlink:href="#rim"/>
    <path pointer-events="none" fill="none" stroke="white" stroke-width="1.5" d="M0,-3.0v7 M-2.5,-0.5L0,-3.0L2.5,-0.5"/>
  </g>
  <g id="arrowLeft" transform="rotate(270) translate(-36 17)">
    <use xlink:href="#rim"/>
    <path pointer-events="none" fill="none" stroke="white" stroke-width="1.5" d="M0,-3.0v7 M-2.5,-0.5L0,-3.0L2.5,-0.5"/>
  </g>
  <g id="resetDef">
    <use xlink:href="#rim2" fill="#404040"><set attributeName="fill" to="#808080" begin="reset.mouseover" end="reset.mouseout"/></use>
  </g>
</defs>
<script type="application/ecmascript">
var viewWidth = 1035;
var viewHeight = 264;
var sectionId = 'dynsection-3';
</script>
<script type="application/ecmascript" xlink:href="../../svg.min.js"/>
<svg id="graph" class="graph">
<g id="viewport">
<title>Win32Ps\getListProcs</title>
<!-- Node1 -->
<g id="Node000001" class="node">
<title>Node1</title>
<g id="a_Node000001"><a xlink:title=" ">
<polygon fill="#999999" stroke="#666666" points="1026.5,-152.5 868,-152.5 868,-128 1026.5,-128 1026.5,-152.5"/>
<text text-anchor="middle" x="947.25" y="-135.2" font-family="Helvetica,sans-Serif" font-size="14.00">Win32Ps\getListProcs</text>
</a>
</g>
</g>
<!-- Node2 -->
<g id="Node000002" class="node">
<title>Node2</title>
<g id="a_Node000002"><a xlink:href="../../dc/ddb/classWin32Ps.html#ac0804222f21d96f2404bd798c5805576" target="_top" xlink:title=" ">
<polygon fill="white" stroke="#666666" points="832,-217.5 685.5,-217.5 685.5,-193 832,-193 832,-217.5"/>
<text text-anchor="middle" x="758.75" y="-200.2" font-family="Helvetica,sans-Serif" font-size="14.00">Win32Ps\findByPath</text>
</a>
</g>
</g>
<!-- Node1&#45;&gt;Node2 -->
<g id="edge1_Node000001_Node000002" class="edge">
<title>Node1&#45;&gt;Node2</title>
<g id="a_edge1_Node000001_Node000002"><a xlink:title=" ">
<path fill="none" stroke="#63b8ff" d="M903.74,-156.99C882.34,-165.23 855.92,-175.12 832,-183.25 822.69,-186.42 812.63,-189.62 803.07,-192.56"/>
<polygon fill="#63b8ff" stroke="#63b8ff" points="904.96,-160.27 913.03,-153.4 902.44,-153.74 904.96,-160.27"/>
</a>
</g>
</g>
<!-- Node3 -->
<g id="Node000003" class="node">
<title>Node3</title>
<g id="a_Node000003"><a xlink:href="../../dc/ddb/classWin32Ps.html#a055648012f53f02dc744387e07e25f0a" target="_top" xlink:title=" ">
<polygon fill="white" stroke="#666666" points="828.25,-174.5 689.25,-174.5 689.25,-150 828.25,-150 828.25,-174.5"/>
<text text-anchor="middle" x="758.75" y="-157.2" font-family="Helvetica,sans-Serif" font-size="14.00">Win32Ps\findByPid</text>
</a>
</g>
</g>
<!-- Node1&#45;&gt;Node3 -->
<g id="edge2_Node000001_Node000003" class="edge">
<title>Node1&#45;&gt;Node3</title>
<g id="a_edge2_Node000001_Node000003"><a xlink:title=" ">
<path fill="none" stroke="#63b8ff" d="M856.4,-150.85C847.1,-151.95 837.76,-153.05 828.74,-154.11"/>
<polygon fill="#63b8ff" stroke="#63b8ff" points="856.67,-154.34 866.19,-149.69 855.85,-147.39 856.67,-154.34"/>
</a>
</g>
</g>
<!-- Node5 -->
<g id="Node000005" class="node">
<title>Node5</title>
<g id="a_Node000005"><a xlink:href="../../dc/ddb/classWin32Ps.html#aa522ce4696d00af3e499932fff26a2da" target="_top" xlink:title=" ">
<polygon fill="white" stroke="#666666" points="819.62,-131.5 697.88,-131.5 697.88,-107 819.62,-107 819.62,-131.5"/>
<text text-anchor="middle" x="758.75" y="-114.2" font-family="Helvetica,sans-Serif" font-size="14.00">Win32Ps\killBins</text>
</a>
</g>
</g>
<!-- Node1&#45;&gt;Node5 -->
<g id="edge4_Node000001_Node000005" class="edge">
<title>Node1&#45;&gt;Node5</title>
<g id="a_edge4_Node000001_Node000005"><a xlink:title=" ">
<path fill="none" stroke="#63b8ff" d="M856.43,-130.14C844.1,-128.75 831.7,-127.35 820.08,-126.04"/>
<polygon fill="#63b8ff" stroke="#63b8ff" points="855.86,-133.59 866.19,-131.24 856.65,-126.64 855.86,-133.59"/>
</a>
</g>
</g>
<!-- Node14 -->
<g id="Node000014" class="node">
<title>Node14</title>
<g id="a_Node000014"><a xlink:href="../../d8/d73/classRoot.html#a5822729d482ed44e43363b12af6c4695" target="_top" xlink:title=" ">
<polygon fill="white" stroke="#666666" points="808,-88.5 709.5,-88.5 709.5,-64 808,-64 808,-88.5"/>
<text text-anchor="middle" x="758.75" y="-71.2" font-family="Helvetica,sans-Serif" font-size="14.00">Root\register</text>
</a>
</g>
</g>
<!-- Node1&#45;&gt;Node14 -->
<g id="edge14_Node000001_Node000014" class="edge">
<title>Node1&#45;&gt;Node14</title>
<g id="a_edge14_Node000001_Node000014"><a xlink:title=" ">
<path fill="none" stroke="#63b8ff" d="M902.79,-123.62C881.55,-115.65 855.54,-106.15 832,-98.25 822.68,-95.12 812.62,-91.94 803.05,-89"/>
<polygon fill="#63b8ff" stroke="#63b8ff" points="901.42,-126.84 912.01,-127.09 903.89,-120.29 901.42,-126.84"/>
</a>
</g>
</g>
<!-- Node4 -->
<g id="Node000004" class="node">
<title>Node4</title>
<g id="a_Node000004"><a xlink:href="../../dc/ddb/classWin32Ps.html#a9cb77db1e38839997bdd92489c47245a" target="_top" xlink:title=" ">
<polygon fill="white" stroke="#666666" points="604.88,-255.5 489.88,-255.5 489.88,-231 604.88,-231 604.88,-255.5"/>
<text text-anchor="middle" x="547.38" y="-238.2" font-family="Helvetica,sans-Serif" font-size="14.00">Win32Ps\exists</text>
</a>
</g>
</g>
<!-- Node3&#45;&gt;Node4 -->
<g id="edge3_Node000003_Node000004" class="edge">
<title>Node3&#45;&gt;Node4</title>
<g id="a_edge3_Node000003_Node000004"><a xlink:title=" ">
<path fill="none" stroke="#63b8ff" d="M694.19,-179.48C691.18,-180.95 688.27,-182.54 685.5,-184.25 665.72,-196.49 669.82,-210.92 649.5,-222.25 636.03,-229.76 620.2,-234.59 605.11,-237.7"/>
<polygon fill="#63b8ff" stroke="#63b8ff" points="695.5,-182.72 703.27,-175.52 692.7,-176.3 695.5,-182.72"/>
</a>
</g>
</g>
<!-- Node6 -->
<g id="Node000006" class="node">
<title>Node6</title>
<g id="a_Node000006"><a xlink:href="../../d0/d9f/classActionManualRestart.html#a229630778cbd92fef95f4e99e872fdca" target="_top" xlink:title=" ">
<polygon fill="white" stroke="#666666" points="620.25,-212.75 474.5,-212.75 474.5,-171.75 620.25,-171.75 620.25,-212.75"/>
<text text-anchor="start" x="482.5" y="-195.45" font-family="Helvetica,sans-Serif" font-size="14.00">ActionManualRestart</text>
<text text-anchor="middle" x="547.38" y="-178.95" font-family="Helvetica,sans-Serif" font-size="14.00">\__construct</text>
</a>
</g>
</g>
<!-- Node5&#45;&gt;Node6 -->
<g id="edge5_Node000005_Node000006" class="edge">
<title>Node5&#45;&gt;Node6</title>
<g id="a_edge5_Node000005_Node000006"><a xlink:title=" ">
<path fill="none" stroke="#63b8ff" d="M699.8,-135.58C694.91,-137.35 690.08,-139.25 685.5,-141.25 668.53,-148.66 666.5,-154.9 649.5,-162.25 640.34,-166.21 630.5,-169.85 620.68,-173.11"/>
<polygon fill="#63b8ff" stroke="#63b8ff" points="700.78,-138.94 709.1,-132.38 698.51,-132.32 700.78,-138.94"/>
</a>
</g>
</g>
<!-- Node7 -->
<g id="Node000007" class="node">
<title>Node7</title>
<g id="a_Node000007"><a xlink:href="../../da/dbb/classBatch.html#a60ded4c18eb060829639a955ec294ffc" target="_top" xlink:title=" ">
<polygon fill="white" stroke="#666666" points="599.25,-153.5 495.5,-153.5 495.5,-129 599.25,-129 599.25,-153.5"/>
<text text-anchor="middle" x="547.38" y="-136.2" font-family="Helvetica,sans-Serif" font-size="14.00">Batch\exitApp</text>
</a>
</g>
</g>
<!-- Node5&#45;&gt;Node7 -->
<g id="edge6_Node000005_Node000007" class="edge">
<title>Node5&#45;&gt;Node7</title>
<g id="a_edge6_Node000005_Node000007"><a xlink:title=" ">
<path fill="none" stroke="#63b8ff" d="M686.36,-126.75C657.91,-129.74 625.81,-133.11 599.73,-135.85"/>
<polygon fill="#63b8ff" stroke="#63b8ff" points="686.39,-130.27 695.97,-125.74 685.65,-123.31 686.39,-130.27"/>
</a>
</g>
</g>
<!-- Node10 -->
<g id="Node000010" class="node">
<title>Node10</title>
<g id="a_Node000010"><a xlink:href="../../d1/db8/classActionStartup.html#a7a49b348e0daf7c1afc440479e15335a" target="_top" xlink:title=" ">
<polygon fill="white" stroke="#666666" points="649.5,-110.5 445.25,-110.5 445.25,-86 649.5,-86 649.5,-110.5"/>
<text text-anchor="middle" x="547.38" y="-93.2" font-family="Helvetica,sans-Serif" font-size="14.00">ActionStartup\killOldInstances</text>
</a>
</g>
</g>
<!-- Node5&#45;&gt;Node10 -->
<g id="edge10_Node000005_Node000010" class="edge">
<title>Node5&#45;&gt;Node10</title>
<g id="a_edge10_Node000005_Node000010"><a xlink:title=" ">
<path fill="none" stroke="#63b8ff" d="M686.35,-112.09C674.52,-110.9 662.06,-109.65 649.66,-108.41"/>
<polygon fill="#63b8ff" stroke="#63b8ff" points="685.67,-115.54 695.96,-113.05 686.36,-108.57 685.67,-115.54"/>
</a>
</g>
</g>
<!-- Node12 -->
<g id="Node000012" class="node">
<title>Node12</title>
<g id="a_Node000012"><a xlink:href="../../de/d86/classActionQuit.html#a2331cc6725be5a9283c65d462bfb5f5b" target="_top" xlink:title=" ">
<polygon fill="white" stroke="#666666" points="641.25,-67.5 453.5,-67.5 453.5,-43 641.25,-43 641.25,-67.5"/>
<text text-anchor="middle" x="547.38" y="-50.2" font-family="Helvetica,sans-Serif" font-size="14.00">ActionQuit\processWindow</text>
</a>
</g>
</g>
<!-- Node5&#45;&gt;Node12 -->
<g id="edge12_Node000005_Node000012" class="edge">
<title>Node5&#45;&gt;Node12</title>
<g id="a_edge12_Node000005_Node000012"><a xlink:title=" ">
<path fill="none" stroke="#63b8ff" d="M700.47,-103.04C695.36,-101.22 690.3,-99.29 685.5,-97.25 668.65,-90.1 666.63,-83.71 649.5,-77.25 640,-73.67 629.77,-70.6 619.59,-67.98"/>
<polygon fill="#63b8ff" stroke="#63b8ff" points="698.95,-106.22 709.55,-106.11 701.19,-99.59 698.95,-106.22"/>
</a>
</g>
</g>
<!-- Node13 -->
<g id="Node000013" class="node">
<title>Node13</title>
<g id="a_Node000013"><a xlink:href="../../d1/d42/classActionExt.html#a773acee7f7d11b500400d4c897323076" target="_top" xlink:title=" ">
<polygon fill="white" stroke="#666666" points="624.38,-24.5 470.38,-24.5 470.38,0 624.38,0 624.38,-24.5"/>
<text text-anchor="middle" x="547.38" y="-7.2" font-family="Helvetica,sans-Serif" font-size="14.00">ActionExt\procReload</text>
</a>
</g>
</g>
<!-- Node5&#45;&gt;Node13 -->
<g id="edge13_Node000005_Node000013" class="edge">
<title>Node5&#45;&gt;Node13</title>
<g id="a_edge13_Node000005_Node000013"><a xlink:title=" ">
<path fill="none" stroke="#63b8ff" d="M690.93,-101.14C689.04,-99.92 687.23,-98.63 685.5,-97.25 660.3,-77.13 675.5,-53.33 649.5,-34.25 642.11,-28.83 633.65,-24.7 624.85,-21.55"/>
<polygon fill="#63b8ff" stroke="#63b8ff" points="689.03,-104.09 699.48,-105.82 692.39,-97.95 689.03,-104.09"/>
</a>
</g>
</g>
<!-- Node8 -->
<g id="Node000008" class="node">
<title>Node8</title>
<g id="a_Node000008"><a xlink:href="../../db/d8f/classActionExec.html#a8228382d8a7768239c559563a8d58994" target="_top" xlink:title=" ">
<polygon fill="white" stroke="#666666" points="166,-173.5 0,-173.5 0,-149 166,-149 166,-173.5"/>
<text text-anchor="middle" x="83" y="-156.2" font-family="Helvetica,sans-Serif" font-size="14.00">ActionExec\__construct</text>
</a>
</g>
</g>
<!-- Node7&#45;&gt;Node8 -->
<g id="edge7_Node000007_Node000008" class="edge">
<title>Node7&#45;&gt;Node8</title>
<g id="a_edge7_Node000007_Node000008"><a xlink:title=" ">
<path fill="none" stroke="#63b8ff" d="M483.98,-152.85C460.63,-156.65 433.81,-160.38 409.25,-162.25 317.4,-169.24 294.11,-162.64 202,-162.25 190.43,-162.2 178.21,-162.12 166.21,-162.04"/>
<polygon fill="#63b8ff" stroke="#63b8ff" points="484.37,-156.34 493.65,-151.24 483.21,-149.43 484.37,-156.34"/>
</a>
</g>
</g>
<!-- Node9 -->
<g id="Node000009" class="node">
<title>Node9</title>
<g id="a_Node000009"><a xlink:href="../../da/dbb/classBatch.html#ac5c8b3c31fa2a76d1cb2b1a10ff6d4d5" target="_top" xlink:title=" ">
<polygon fill="white" stroke="#666666" points="366.5,-153.5 244.75,-153.5 244.75,-129 366.5,-129 366.5,-153.5"/>
<text text-anchor="middle" x="305.62" y="-136.2" font-family="Helvetica,sans-Serif" font-size="14.00">Batch\restartApp</text>
</a>
</g>
</g>
<!-- Node7&#45;&gt;Node9 -->
<g id="edge8_Node000007_Node000009" class="edge">
<title>Node7&#45;&gt;Node9</title>
<g id="a_edge8_Node000007_Node000009"><a xlink:title=" ">
<path fill="none" stroke="#63b8ff" d="M483.83,-141.25C447.63,-141.25 402.32,-141.25 366.57,-141.25"/>
<polygon fill="#63b8ff" stroke="#63b8ff" points="483.72,-144.75 493.72,-141.25 483.72,-137.75 483.72,-144.75"/>
</a>
</g>
</g>
<!-- Node9&#45;&gt;Node8 -->
<g id="edge9_Node000009_Node000008" class="edge">
<title>Node9&#45;&gt;Node8</title>
<g id="a_edge9_Node000009_Node000008"><a xlink:title=" ">
<path fill="none" stroke="#63b8ff" d="M233.06,-147.74C211.7,-149.67 188.11,-151.81 166.13,-153.8"/>
<polygon fill="#63b8ff" stroke="#63b8ff" points="233.19,-151.24 242.83,-146.85 232.56,-144.27 233.19,-151.24"/>
</a>
</g>
</g>
<!-- Node11 -->
<g id="Node000011" class="node">
<title>Node11</title>
<g id="a_Node000011"><a xlink:href="../../d1/db8/classActionStartup.html#a1234a0f2093a95140d6f86983514d28f" target="_top" xlink:title=" ">
<polygon fill="white" stroke="#666666" points="409.25,-110.5 202,-110.5 202,-86 409.25,-86 409.25,-110.5"/>
<text text-anchor="middle" x="305.62" y="-93.2" font-family="Helvetica,sans-Serif" font-size="14.00">ActionStartup\processWindow</text>
</a>
</g>
</g>
<!-- Node10&#45;&gt;Node11 -->
<g id="edge11_Node000010_Node000011" class="edge">
<title>Node10&#45;&gt;Node11</title>
<g id="a_edge11_Node000010_Node000011"><a xlink:title=" ">
<path fill="none" stroke="#63b8ff" d="M433.69,-98.25C425.62,-98.25 417.52,-98.25 409.51,-98.25"/>
<polygon fill="#63b8ff" stroke="#63b8ff" points="433.53,-101.75 443.53,-98.25 433.53,-94.75 433.53,-101.75"/>
</a>
</g>
</g>
</g>
</svg>

<g id="navigator" transform="translate(0 0)" fill="#404254">
  <rect fill="#f2f5e9" fill-opacity="0.5" stroke="#606060" stroke-width=".5" x="0" y="0" width="60" height="60"/>
  <use id="zoomplus" xlink:href="#zoomPlus" x="17" y="9" onmousedown="handleZoom(evt,'in')"/>
  <use id="zoomminus" xlink:href="#zoomMin" x="42" y="9" onmousedown="handleZoom(evt,'out')"/>
  <use id="reset" xlink:href="#resetDef" x="30" y="36" onmousedown="handleReset()"/>
   <use id="arrowup" xlink:href="#arrowUp" x="0" y="0" onmousedown="handlePan(0,-1)"/>
  <use id="arrowright" xlink:href="#arrowRight" x="0" y="0" onmousedown="handlePan(1,0)"/>
  <use id="arrowdown" xlink:href="#arrowDown" x="0" y="0" onmousedown="handlePan(0,1)"/>
  <use id="arrowleft" xlink:href="#arrowLeft" x="0" y="0" onmousedown="handlePan(-1,0)"/>
</g>
<svg viewBox="0 0 15 15" width="100%" height="30px" preserveAspectRatio="xMaxYMin meet">
 <g id="arrow_out" transform="scale(0.3 0.3)">
  <a xlink:href="classWin32Ps_afea33a59c09d4c9e2fe1bdf0d5b1d406_icgraph_org.svg" target="_base">
   <rect id="button" ry="5" rx="5" y="6" x="6" height="38" width="38"
        fill="#f2f5e9" fill-opacity="0.5" stroke="#606060" stroke-width="1.0"/>
   <path id="arrow"
     d="M 11.500037,31.436501 C 11.940474,20.09759 22.043105,11.32322 32.158766,21.979434 L 37.068811,17.246167 C 37.068811,17.246167 37.088388,32 37.088388,32 L 22.160133,31.978069 C 22.160133,31.978069 26.997745,27.140456 26.997745,27.140456 C 18.528582,18.264221 13.291696,25.230495 11.500037,31.436501 z"
     style="fill:#404040;"/>
  </a>
 </g>
</svg>

<style type='text/css'>
<![CDATA[
[data-mouse-over-selected='false'] { opacity: 0.7; }
[data-mouse-over-selected='true']  { opacity: 1.0; }
]]>
</style>
<script type="application/ecmascript"><![CDATA[
document.addEventListener('DOMContentLoaded', (event) => {
  highlightEdges();
  highlightAdjacentNodes();
});
]]></script>
</svg>
