<?xml version="1.0" encoding="UTF-8" standalone="no"?>
<!--
  - Copyright (c) 2021-2024 Bearsampp
  - License:  GNU General Public License version 3 or later; see LICENSE.txt
  - Author: Bear
  - Website: https://bearsampp.com
  - Github: https://github.com/Bearsampp
  -->

<!DOCTYPE svg PUBLIC "-//W3C//DTD SVG 1.1//EN"
 "http://www.w3.org/Graphics/SVG/1.1/DTD/svg11.dtd">
<!-- Generated by graphviz version 11.0.0 (20240428.1522)
 -->
<!-- Title: BinMemcached\reload Pages: 1 -->
<svg width="875pt" height="119pt"
 viewBox="0.00 0.00 875.25 118.50" xmlns="http://www.w3.org/2000/svg" xmlns:xlink="http://www.w3.org/1999/xlink">
<g id="graph0" class="graph" transform="scale(1 1) rotate(0) translate(4 114.5)">
<title>BinMemcached\reload</title>
<!-- Node1 -->
<g id="Node000001" class="node">
<title>Node1</title>
<g id="a_Node000001"><a xlink:title=" ">
<polygon fill="#999999" stroke="#666666" points="867.25,-67.5 709.5,-67.5 709.5,-43 867.25,-43 867.25,-67.5"/>
<text text-anchor="middle" x="788.38" y="-50.2" font-family="Helvetica,sans-Serif" font-size="14.00">BinMemcached\reload</text>
</a>
</g>
</g>
<!-- Node2 -->
<g id="Node000002" class="node">
<title>Node2</title>
<g id="a_Node000002"><a xlink:href="../../da/d10/classBinMemcached.html#ae499cddf960db523f908daf1f519f4ae" target="_top" xlink:title=" ">
<polygon fill="white" stroke="#666666" points="673.5,-110.5 481.25,-110.5 481.25,-86 673.5,-86 673.5,-110.5"/>
<text text-anchor="middle" x="577.38" y="-93.2" font-family="Helvetica,sans-Serif" font-size="14.00">BinMemcached\__construct</text>
</a>
</g>
</g>
<!-- Node1&#45;&gt;Node2 -->
<g id="edge1_Node000001_Node000002" class="edge">
<title>Node1&#45;&gt;Node2</title>
<g id="a_edge1_Node000001_Node000002"><a xlink:title=" ">
<path fill="none" stroke="#63b8ff" d="M714.55,-70.23C690.26,-75.23 663.44,-80.75 640.07,-85.56"/>
<polygon fill="#63b8ff" stroke="#63b8ff" points="714.94,-73.73 724.03,-68.28 713.53,-66.87 714.94,-73.73"/>
</a>
</g>
</g>
<!-- Node3 -->
<g id="Node000003" class="node">
<title>Node3</title>
<g id="a_Node000003"><a xlink:href="../../da/d10/classBinMemcached.html#a6e34e322bae67fd3cb41528c12e62a4c" target="_top" xlink:title=" ">
<polygon fill="white" stroke="#666666" points="668.25,-67.5 486.5,-67.5 486.5,-43 668.25,-43 668.25,-67.5"/>
<text text-anchor="middle" x="577.38" y="-50.2" font-family="Helvetica,sans-Serif" font-size="14.00">BinMemcached\setEnable</text>
</a>
</g>
</g>
<!-- Node1&#45;&gt;Node3 -->
<g id="edge2_Node000001_Node000003" class="edge">
<title>Node1&#45;&gt;Node3</title>
<g id="a_edge2_Node000001_Node000003"><a xlink:title=" ">
<path fill="none" stroke="#63b8ff" d="M697.98,-55.25C688.29,-55.25 678.42,-55.25 668.72,-55.25"/>
<polygon fill="#63b8ff" stroke="#63b8ff" points="697.74,-58.75 707.74,-55.25 697.74,-51.75 697.74,-58.75"/>
</a>
</g>
</g>
<!-- Node4 -->
<g id="Node000004" class="node">
<title>Node4</title>
<g id="a_Node000004"><a xlink:href="../../da/d10/classBinMemcached.html#a2f74fe4d3628d986c2c6ab4d3ff6f746" target="_top" xlink:title=" ">
<polygon fill="white" stroke="#666666" points="670.5,-24.5 484.25,-24.5 484.25,0 670.5,0 670.5,-24.5"/>
<text text-anchor="middle" x="577.38" y="-7.2" font-family="Helvetica,sans-Serif" font-size="14.00">BinMemcached\setVersion</text>
</a>
</g>
</g>
<!-- Node1&#45;&gt;Node4 -->
<g id="edge3_Node000001_Node000004" class="edge">
<title>Node1&#45;&gt;Node4</title>
<g id="a_edge3_Node000001_Node000004"><a xlink:title=" ">
<path fill="none" stroke="#63b8ff" d="M714.55,-40.27C690.26,-35.27 663.44,-29.75 640.07,-24.94"/>
<polygon fill="#63b8ff" stroke="#63b8ff" points="713.53,-43.63 724.03,-42.22 714.94,-36.77 713.53,-43.63"/>
</a>
</g>
</g>
<!-- Node5 -->
<g id="Node000005" class="node">
<title>Node5</title>
<g id="a_Node000005"><a xlink:href="../../da/d10/classBinMemcached.html#a9f3d2973395fca97e1bd29b48019cbb3" target="_top" xlink:title=" ">
<polygon fill="white" stroke="#666666" points="445.25,-24.5 241.75,-24.5 241.75,0 445.25,0 445.25,-24.5"/>
<text text-anchor="middle" x="343.5" y="-7.2" font-family="Helvetica,sans-Serif" font-size="14.00">BinMemcached\updateConfig</text>
</a>
</g>
</g>
<!-- Node4&#45;&gt;Node5 -->
<g id="edge4_Node000004_Node000005" class="edge">
<title>Node4&#45;&gt;Node5</title>
<g id="a_edge4_Node000004_Node000005"><a xlink:title=" ">
<path fill="none" stroke="#63b8ff" d="M472.73,-12.25C463.73,-12.25 454.62,-12.25 445.64,-12.25"/>
<polygon fill="#63b8ff" stroke="#63b8ff" points="472.55,-15.75 482.55,-12.25 472.55,-8.75 472.55,-15.75"/>
</a>
</g>
</g>
<!-- Node6 -->
<g id="Node000006" class="node">
<title>Node6</title>
<g id="a_Node000006"><a xlink:href="../../da/d10/classBinMemcached.html#a3ba44288eaf9296f593d37b514213991" target="_top" xlink:title=" ">
<polygon fill="white" stroke="#666666" points="205.75,-24.5 0,-24.5 0,0 205.75,0 205.75,-24.5"/>
<text text-anchor="middle" x="102.88" y="-7.2" font-family="Helvetica,sans-Serif" font-size="14.00">BinMemcached\switchVersion</text>
</a>
</g>
</g>
<!-- Node5&#45;&gt;Node6 -->
<g id="edge5_Node000005_Node000006" class="edge">
<title>Node5&#45;&gt;Node6</title>
<g id="a_edge5_Node000005_Node000006"><a xlink:title=" ">
<path fill="none" stroke="#63b8ff" d="M230.01,-12.25C222,-12.25 213.94,-12.25 205.99,-12.25"/>
<polygon fill="#63b8ff" stroke="#63b8ff" points="229.79,-15.75 239.79,-12.25 229.79,-8.75 229.79,-15.75"/>
</a>
</g>
</g>
</g>
</svg>
