<?xml version="1.0" encoding="UTF-8" standalone="no"?>
<!--
  - Copyright (c) 2021-2024 Bearsampp
  - License:  GNU General Public License version 3 or later; see LICENSE.txt
  - Author: Bear
  - Website: https://bearsampp.com
  - Github: https://github.com/Bearsampp
  -->

<!DOCTYPE svg PUBLIC "-//W3C//DTD SVG 1.1//EN"
 "http://www.w3.org/Graphics/SVG/1.1/DTD/svg11.dtd">
<!-- Generated by graphviz version 11.0.0 (20240428.1522)
 -->
<!-- Title: Win32Service\callWin32Service Pages: 1 -->
<svg width="990pt" height="419pt"
 viewBox="0.00 0.00 989.50 419.40" xmlns="http://www.w3.org/2000/svg" xmlns:xlink="http://www.w3.org/1999/xlink">
<g id="graph0" class="graph" transform="scale(1 1) rotate(0) translate(4 415.4)">
<title>Win32Service\callWin32Service</title>
<!-- Node1 -->
<g id="Node000001" class="node">
<title>Node1</title>
<g id="a_Node000001"><a xlink:title=" ">
<polygon fill="#999999" stroke="#666666" points="981.5,-224.71 762.25,-224.71 762.25,-200.21 981.5,-200.21 981.5,-224.71"/>
<text text-anchor="middle" x="871.88" y="-207.41" font-family="Helvetica,sans-Serif" font-size="14.00">Win32Service\callWin32Service</text>
</a>
</g>
</g>
<!-- Node2 -->
<g id="Node000002" class="node">
<title>Node2</title>
<g id="a_Node000002"><a xlink:href="../../df/d28/classWin32Service.html#a0d671863c8ed9869297400110daef2c1" target="_top" xlink:title=" ">
<polygon fill="white" stroke="#666666" points="333.5,-364.71 184.75,-364.71 184.75,-340.21 333.5,-340.21 333.5,-364.71"/>
<text text-anchor="middle" x="259.12" y="-347.41" font-family="Helvetica,sans-Serif" font-size="14.00">Win32Service\create</text>
</a>
</g>
</g>
<!-- Node1&#45;&gt;Node2 -->
<g id="edge1_Node000001_Node000002" class="edge">
<title>Node1&#45;&gt;Node2</title>
<g id="a_edge1_Node000001_Node000002"><a xlink:title=" ">
<path fill="none" stroke="#63b8ff" d="M841.78,-231.07C786.42,-265.26 660.98,-336.87 543.75,-362.46 473.71,-377.75 391.67,-372.43 333.89,-364.99"/>
<polygon fill="#63b8ff" stroke="#63b8ff" points="843.36,-234.21 850,-225.95 839.66,-228.27 843.36,-234.21"/>
</a>
</g>
</g>
<!-- Node4 -->
<g id="Node000004" class="node">
<title>Node4</title>
<g id="a_Node000004"><a xlink:href="../../df/d28/classWin32Service.html#a6a5213abbf17063a848a62a86feadee3" target="_top" xlink:title=" ">
<polygon fill="white" stroke="#666666" points="148.75,-302.71 0,-302.71 0,-278.21 148.75,-278.21 148.75,-302.71"/>
<text text-anchor="middle" x="74.38" y="-285.41" font-family="Helvetica,sans-Serif" font-size="14.00">Win32Service\delete</text>
</a>
</g>
</g>
<!-- Node1&#45;&gt;Node4 -->
<g id="edge3_Node000001_Node000004" class="edge">
<title>Node1&#45;&gt;Node4</title>
<g id="a_edge3_Node000001_Node000004"><a xlink:title=" ">
<path fill="none" stroke="#63b8ff" d="M853,-233.47C827.72,-261.78 778.72,-311.71 726.25,-338.46 652.1,-376.26 626.45,-371.07 543.75,-380.46 385.18,-398.47 328.45,-442.88 184.75,-373.46 162.61,-362.77 167.78,-347.03 148.75,-331.46 134.97,-320.19 117.66,-310.35 103.32,-303.13"/>
<polygon fill="#63b8ff" stroke="#63b8ff" points="855.39,-236.06 859.35,-226.23 850.12,-231.44 855.39,-236.06"/>
</a>
</g>
</g>
<!-- Node5 -->
<g id="Node000005" class="node">
<title>Node5</title>
<g id="a_Node000005"><a xlink:href="../../df/d28/classWin32Service.html#af0b7053399d4c44b3fff8a4d598a2d48" target="_top" xlink:title=" ">
<polygon fill="white" stroke="#666666" points="327.12,-66.71 191.12,-66.71 191.12,-42.21 327.12,-42.21 327.12,-66.71"/>
<text text-anchor="middle" x="259.12" y="-49.41" font-family="Helvetica,sans-Serif" font-size="14.00">Win32Service\start</text>
</a>
</g>
</g>
<!-- Node1&#45;&gt;Node5 -->
<g id="edge4_Node000001_Node000005" class="edge">
<title>Node1&#45;&gt;Node5</title>
<g id="a_edge4_Node000001_Node000005"><a xlink:title=" ">
<path fill="none" stroke="#63b8ff" d="M848.47,-192.64C798.28,-149.72 671.2,-49.18 543.75,-13.46 469.18,7.44 445.7,0.35 369.5,-13.46 339.77,-18.85 307.59,-31.85 285.89,-41.78"/>
<polygon fill="#63b8ff" stroke="#63b8ff" points="845.93,-195.07 855.79,-198.96 850.51,-189.77 845.93,-195.07"/>
</a>
</g>
</g>
<!-- Node7 -->
<g id="Node000007" class="node">
<title>Node7</title>
<g id="a_Node000007"><a xlink:href="../../df/d28/classWin32Service.html#affc558c7246c1bdb371ecbf4a4b1d20f" target="_top" xlink:title=" ">
<polygon fill="white" stroke="#666666" points="726.25,-224.71 579.75,-224.71 579.75,-200.21 726.25,-200.21 726.25,-224.71"/>
<text text-anchor="middle" x="653" y="-207.41" font-family="Helvetica,sans-Serif" font-size="14.00">Win32Service\status</text>
</a>
</g>
</g>
<!-- Node1&#45;&gt;Node7 -->
<g id="edge6_Node000001_Node000007" class="edge">
<title>Node1&#45;&gt;Node7</title>
<g id="a_edge6_Node000001_Node000007"><a xlink:title=" ">
<path fill="none" stroke="#63b8ff" d="M750.37,-212.46C742.31,-212.46 734.35,-212.46 726.65,-212.46"/>
<polygon fill="#63b8ff" stroke="#63b8ff" points="750.29,-215.96 760.29,-212.46 750.29,-208.96 750.29,-215.96"/>
</a>
</g>
</g>
<!-- Node12 -->
<g id="Node000012" class="node">
<title>Node12</title>
<g id="a_Node000012"><a xlink:href="../../df/d28/classWin32Service.html#a09c364e5eaa7abf4b288b3f1a771a046" target="_top" xlink:title=" ">
<polygon fill="white" stroke="#666666" points="327.5,-164.71 190.75,-164.71 190.75,-140.21 327.5,-140.21 327.5,-164.71"/>
<text text-anchor="middle" x="259.12" y="-147.41" font-family="Helvetica,sans-Serif" font-size="14.00">Win32Service\stop</text>
</a>
</g>
</g>
<!-- Node1&#45;&gt;Node12 -->
<g id="edge21_Node000001_Node000012" class="edge">
<title>Node1&#45;&gt;Node12</title>
<g id="a_edge21_Node000001_Node000012"><a xlink:title=" ">
<path fill="none" stroke="#63b8ff" d="M821.81,-196.34C758.43,-176.44 644.29,-143.72 543.75,-131.46 466.88,-122.08 446.6,-124.13 369.5,-131.46 351.79,-133.15 332.68,-136.33 315.47,-139.72"/>
<polygon fill="#63b8ff" stroke="#63b8ff" points="820.63,-199.64 831.23,-199.32 822.75,-192.96 820.63,-199.64"/>
</a>
</g>
</g>
<!-- Node3 -->
<g id="Node000003" class="node">
<title>Node3</title>
<g id="a_Node000003"><a xlink:href="../../df/d28/classWin32Service.html#ab2bdb25f7405e3bb9e5230fca1980747" target="_top" xlink:title=" ">
<polygon fill="white" stroke="#666666" points="145,-364.71 3.75,-364.71 3.75,-340.21 145,-340.21 145,-364.71"/>
<text text-anchor="middle" x="74.38" y="-347.41" font-family="Helvetica,sans-Serif" font-size="14.00">Win32Service\reset</text>
</a>
</g>
</g>
<!-- Node2&#45;&gt;Node3 -->
<g id="edge2_Node000002_Node000003" class="edge">
<title>Node2&#45;&gt;Node3</title>
<g id="a_edge2_Node000002_Node000003"><a xlink:title=" ">
<path fill="none" stroke="#63b8ff" d="M173.06,-352.46C163.77,-352.46 154.39,-352.46 145.31,-352.46"/>
<polygon fill="#63b8ff" stroke="#63b8ff" points="172.81,-355.96 182.81,-352.46 172.81,-348.96 172.81,-355.96"/>
</a>
</g>
</g>
<!-- Node6 -->
<g id="Node000006" class="node">
<title>Node6</title>
<g id="a_Node000006"><a xlink:href="../../df/d28/classWin32Service.html#a9bff7f1bfac7b2d0784d437c954b9eb5" target="_top" xlink:title=" ">
<polygon fill="white" stroke="#666666" points="148.75,-125.71 0,-125.71 0,-101.21 148.75,-101.21 148.75,-125.71"/>
<text text-anchor="middle" x="74.38" y="-108.41" font-family="Helvetica,sans-Serif" font-size="14.00">Win32Service\restart</text>
</a>
</g>
</g>
<!-- Node5&#45;&gt;Node6 -->
<g id="edge5_Node000005_Node000006" class="edge">
<title>Node5&#45;&gt;Node6</title>
<g id="a_edge5_Node000005_Node000006"><a xlink:title=" ">
<path fill="none" stroke="#63b8ff" d="M208.06,-70.63C178.7,-80.1 142.13,-91.91 114.83,-100.72"/>
<polygon fill="#63b8ff" stroke="#63b8ff" points="209.04,-73.99 217.48,-67.58 206.89,-67.32 209.04,-73.99"/>
</a>
</g>
</g>
<!-- Node7&#45;&gt;Node2 -->
<g id="edge7_Node000007_Node000002" class="edge">
<title>Node7&#45;&gt;Node2</title>
<g id="a_edge7_Node000007_Node000002"><a xlink:title=" ">
<path fill="none" stroke="#63b8ff" d="M639.57,-234.79C622.26,-263.41 588,-311.87 543.75,-333.46 478.11,-365.49 393.57,-366.83 333.92,-362.27"/>
<polygon fill="#63b8ff" stroke="#63b8ff" points="642.56,-236.61 644.59,-226.21 636.52,-233.07 642.56,-236.61"/>
</a>
</g>
</g>
<!-- Node7&#45;&gt;Node4 -->
<g id="edge8_Node000007_Node000004" class="edge">
<title>Node7&#45;&gt;Node4</title>
<g id="a_edge8_Node000007_Node000004"><a xlink:title=" ">
<path fill="none" stroke="#63b8ff" d="M614.61,-229.63C594.12,-238.26 568.02,-248.02 543.75,-253.46 406.65,-284.18 242,-290.31 148.94,-291.04"/>
<polygon fill="#63b8ff" stroke="#63b8ff" points="615.89,-232.89 623.69,-225.71 613.12,-226.46 615.89,-232.89"/>
</a>
</g>
</g>
<!-- Node7&#45;&gt;Node5 -->
<g id="edge19_Node000007_Node000005" class="edge">
<title>Node7&#45;&gt;Node5</title>
<g id="a_edge19_Node000007_Node000005"><a xlink:title=" ">
<path fill="none" stroke="#63b8ff" d="M630.39,-192.36C609.63,-174.05 576.65,-147.5 543.75,-131.46 473.81,-97.35 386.55,-76.56 327.42,-65.32"/>
<polygon fill="#63b8ff" stroke="#63b8ff" points="627.86,-194.79 637.64,-198.87 632.54,-189.58 627.86,-194.79"/>
</a>
</g>
</g>
<!-- Node8 -->
<g id="Node000008" class="node">
<title>Node8</title>
<g id="a_Node000008"><a xlink:href="../../df/d28/classWin32Service.html#a7650ae910abba1f4f3a53be0b05ba081" target="_top" xlink:title=" ">
<polygon fill="white" stroke="#666666" points="543,-324.71 370.25,-324.71 370.25,-300.21 543,-300.21 543,-324.71"/>
<text text-anchor="middle" x="456.62" y="-307.41" font-family="Helvetica,sans-Serif" font-size="14.00">Win32Service\isInstalled</text>
</a>
</g>
</g>
<!-- Node7&#45;&gt;Node8 -->
<g id="edge9_Node000007_Node000008" class="edge">
<title>Node7&#45;&gt;Node8</title>
<g id="a_edge9_Node000007_Node000008"><a xlink:title=" ">
<path fill="none" stroke="#63b8ff" d="M627.91,-232.14C606.8,-248.57 574.73,-271.63 543.75,-286.46 532.9,-291.65 520.79,-296.07 509.15,-299.72"/>
<polygon fill="#63b8ff" stroke="#63b8ff" points="629.94,-235 635.61,-226.05 625.59,-229.51 629.94,-235"/>
</a>
</g>
</g>
<!-- Node9 -->
<g id="Node000009" class="node">
<title>Node9</title>
<g id="a_Node000009"><a xlink:href="../../df/d28/classWin32Service.html#a48519a2f6fa88f4af9dd6bb9b6a58d9e" target="_top" xlink:title=" ">
<polygon fill="white" stroke="#666666" points="540.75,-244.71 372.5,-244.71 372.5,-220.21 540.75,-220.21 540.75,-244.71"/>
<text text-anchor="middle" x="456.62" y="-227.41" font-family="Helvetica,sans-Serif" font-size="14.00">Win32Service\isPaused</text>
</a>
</g>
</g>
<!-- Node7&#45;&gt;Node9 -->
<g id="edge12_Node000007_Node000009" class="edge">
<title>Node7&#45;&gt;Node9</title>
<g id="a_edge12_Node000007_Node000009"><a xlink:title=" ">
<path fill="none" stroke="#63b8ff" d="M568.08,-221.1C559.09,-222.02 549.96,-222.96 540.98,-223.88"/>
<polygon fill="#63b8ff" stroke="#63b8ff" points="568.25,-224.6 577.84,-220.09 567.53,-217.63 568.25,-224.6"/>
</a>
</g>
</g>
<!-- Node10 -->
<g id="Node000010" class="node">
<title>Node10</title>
<g id="a_Node000010"><a xlink:href="../../df/d28/classWin32Service.html#aa60257e9128e72448d91805cec359087" target="_top" xlink:title=" ">
<polygon fill="white" stroke="#666666" points="542.25,-46.71 371,-46.71 371,-22.21 542.25,-22.21 542.25,-46.71"/>
<text text-anchor="middle" x="456.62" y="-29.41" font-family="Helvetica,sans-Serif" font-size="14.00">Win32Service\isRunning</text>
</a>
</g>
</g>
<!-- Node7&#45;&gt;Node10 -->
<g id="edge13_Node000007_Node000010" class="edge">
<title>Node7&#45;&gt;Node10</title>
<g id="a_edge13_Node000007_Node000010"><a xlink:title=" ">
<path fill="none" stroke="#63b8ff" d="M641.97,-190.04C625.96,-156.81 591.51,-94.75 543.75,-60.46 536.01,-54.9 527.07,-50.52 517.94,-47.06"/>
<polygon fill="#63b8ff" stroke="#63b8ff" points="638.63,-191.17 646.04,-198.75 644.97,-188.21 638.63,-191.17"/>
</a>
</g>
</g>
<!-- Node11 -->
<g id="Node000011" class="node">
<title>Node11</title>
<g id="a_Node000011"><a xlink:href="../../df/d28/classWin32Service.html#ac734cf6d80fe657f62981941da65b963" target="_top" xlink:title=" ">
<polygon fill="white" stroke="#666666" points="543.75,-164.71 369.5,-164.71 369.5,-140.21 543.75,-140.21 543.75,-164.71"/>
<text text-anchor="middle" x="456.62" y="-147.41" font-family="Helvetica,sans-Serif" font-size="14.00">Win32Service\isStopped</text>
</a>
</g>
</g>
<!-- Node7&#45;&gt;Node11 -->
<g id="edge15_Node000007_Node000011" class="edge">
<title>Node7&#45;&gt;Node11</title>
<g id="a_edge15_Node000007_Node000011"><a xlink:title=" ">
<path fill="none" stroke="#63b8ff" d="M601.03,-196.32C582.95,-190.63 562.46,-184.22 543.75,-178.46 529.57,-174.09 514.05,-169.39 500.15,-165.19"/>
<polygon fill="#63b8ff" stroke="#63b8ff" points="599.9,-199.64 610.49,-199.3 602.01,-192.96 599.9,-199.64"/>
</a>
</g>
</g>
<!-- Node7&#45;&gt;Node12 -->
<g id="edge20_Node000007_Node000012" class="edge">
<title>Node7&#45;&gt;Node12</title>
<g id="a_edge20_Node000007_Node000012"><a xlink:title=" ">
<path fill="none" stroke="#63b8ff" d="M567.92,-202.03C511.65,-194.76 436,-184.43 369.5,-173.46 354.52,-170.99 338.45,-168.06 323.35,-165.19"/>
<polygon fill="#63b8ff" stroke="#63b8ff" points="567.4,-205.49 577.76,-203.29 568.29,-198.55 567.4,-205.49"/>
</a>
</g>
</g>
<!-- Node8&#45;&gt;Node2 -->
<g id="edge10_Node000008_Node000002" class="edge">
<title>Node8&#45;&gt;Node2</title>
<g id="a_edge10_Node000008_Node000002"><a xlink:title=" ">
<path fill="none" stroke="#63b8ff" d="M382.39,-327.44C362.66,-331.48 341.5,-335.81 322.42,-339.71"/>
<polygon fill="#63b8ff" stroke="#63b8ff" points="382.92,-330.91 392.02,-325.48 381.52,-324.05 382.92,-330.91"/>
</a>
</g>
</g>
<!-- Node8&#45;&gt;Node4 -->
<g id="edge11_Node000008_Node000004" class="edge">
<title>Node8&#45;&gt;Node4</title>
<g id="a_edge11_Node000008_Node000004"><a xlink:title=" ">
<path fill="none" stroke="#63b8ff" d="M358.7,-306.85C293.45,-303.08 208.75,-298.18 149.02,-294.72"/>
<polygon fill="#63b8ff" stroke="#63b8ff" points="358.12,-310.32 368.3,-307.41 358.52,-303.34 358.12,-310.32"/>
</a>
</g>
</g>
<!-- Node10&#45;&gt;Node5 -->
<g id="edge14_Node000010_Node000005" class="edge">
<title>Node10&#45;&gt;Node5</title>
<g id="a_edge14_Node000010_Node000005"><a xlink:title=" ">
<path fill="none" stroke="#63b8ff" d="M359.52,-44.29C348.73,-45.4 337.91,-46.5 327.6,-47.56"/>
<polygon fill="#63b8ff" stroke="#63b8ff" points="359.63,-47.8 369.22,-43.3 358.92,-40.84 359.63,-47.8"/>
</a>
</g>
</g>
<!-- Node11&#45;&gt;Node12 -->
<g id="edge16_Node000011_Node000012" class="edge">
<title>Node11&#45;&gt;Node12</title>
<g id="a_edge16_Node000011_Node000012"><a xlink:title=" ">
<path fill="none" stroke="#63b8ff" d="M357.67,-152.46C347.59,-152.46 337.52,-152.46 327.88,-152.46"/>
<polygon fill="#63b8ff" stroke="#63b8ff" points="357.51,-155.96 367.51,-152.46 357.51,-148.96 357.51,-155.96"/>
</a>
</g>
</g>
<!-- Node12&#45;&gt;Node4 -->
<g id="edge17_Node000012_Node000004" class="edge">
<title>Node12&#45;&gt;Node4</title>
<g id="a_edge17_Node000012_Node000004"><a xlink:title=" ">
<path fill="none" stroke="#63b8ff" d="M232.33,-171.94C194.3,-200.66 124.26,-253.54 92.2,-277.76"/>
<polygon fill="#63b8ff" stroke="#63b8ff" points="234.18,-174.93 240.05,-166.11 229.96,-169.34 234.18,-174.93"/>
</a>
</g>
</g>
<!-- Node12&#45;&gt;Node6 -->
<g id="edge18_Node000012_Node000006" class="edge">
<title>Node12&#45;&gt;Node6</title>
<g id="a_edge18_Node000012_Node000006"><a xlink:title=" ">
<path fill="none" stroke="#63b8ff" d="M187.33,-137.35C170,-133.65 151.62,-129.73 134.88,-126.16"/>
<polygon fill="#63b8ff" stroke="#63b8ff" points="186.55,-140.76 197.06,-139.43 188.01,-133.92 186.55,-140.76"/>
</a>
</g>
</g>
</g>
</svg>
