<?xml version="1.0" encoding="UTF-8" standalone="no"?>
<!--
  - Copyright (c) 2021-2024 Bearsampp
  - License:  GNU General Public License version 3 or later; see LICENSE.txt
  - Author: Bear
  - Website: https://bearsampp.com
  - Github: https://github.com/Bearsampp
  -->

<!DOCTYPE svg PUBLIC "-//W3C//DTD SVG 1.1//EN"
 "http://www.w3.org/Graphics/SVG/1.1/DTD/svg11.dtd">
<!-- Generated by graphviz version 11.0.0 (20240428.1522)
 -->
<!-- Title: Win32Service\status Pages: 1 -->
<svg width="734pt" height="302pt"
 viewBox="0.00 0.00 734.25 302.24" xmlns="http://www.w3.org/2000/svg" xmlns:xlink="http://www.w3.org/1999/xlink">
<g id="graph0" class="graph" transform="scale(1 1) rotate(0) translate(4 298.24)">
<title>Win32Service\status</title>
<!-- Node1 -->
<g id="Node000001" class="node">
<title>Node1</title>
<g id="a_Node000001"><a xlink:title=" ">
<polygon fill="#999999" stroke="#666666" points="726.25,-152.96 579.75,-152.96 579.75,-128.46 726.25,-128.46 726.25,-152.96"/>
<text text-anchor="middle" x="653" y="-135.66" font-family="Helvetica,sans-Serif" font-size="14.00">Win32Service\status</text>
</a>
</g>
</g>
<!-- Node2 -->
<g id="Node000002" class="node">
<title>Node2</title>
<g id="a_Node000002"><a xlink:href="../../df/d28/classWin32Service.html#a0d671863c8ed9869297400110daef2c1" target="_top" xlink:title=" ">
<polygon fill="white" stroke="#666666" points="333.5,-293.96 184.75,-293.96 184.75,-269.46 333.5,-269.46 333.5,-293.96"/>
<text text-anchor="middle" x="259.12" y="-276.66" font-family="Helvetica,sans-Serif" font-size="14.00">Win32Service\create</text>
</a>
</g>
</g>
<!-- Node1&#45;&gt;Node2 -->
<g id="edge1_Node000001_Node000002" class="edge">
<title>Node1&#45;&gt;Node2</title>
<g id="a_edge1_Node000001_Node000002"><a xlink:title=" ">
<path fill="none" stroke="#63b8ff" d="M639.9,-163.04C622.79,-192.09 588.55,-241.72 543.75,-263.71 478.2,-295.88 393.64,-296.87 333.97,-291.98"/>
<polygon fill="#63b8ff" stroke="#63b8ff" points="642.76,-165.1 644.67,-154.68 636.68,-161.63 642.76,-165.1"/>
</a>
</g>
</g>
<!-- Node4 -->
<g id="Node000004" class="node">
<title>Node4</title>
<g id="a_Node000004"><a xlink:href="../../df/d28/classWin32Service.html#a6a5213abbf17063a848a62a86feadee3" target="_top" xlink:title=" ">
<polygon fill="white" stroke="#666666" points="148.75,-214.96 0,-214.96 0,-190.46 148.75,-190.46 148.75,-214.96"/>
<text text-anchor="middle" x="74.38" y="-197.66" font-family="Helvetica,sans-Serif" font-size="14.00">Win32Service\delete</text>
</a>
</g>
</g>
<!-- Node1&#45;&gt;Node4 -->
<g id="edge3_Node000001_Node000004" class="edge">
<title>Node1&#45;&gt;Node4</title>
<g id="a_edge3_Node000001_Node000004"><a xlink:title=" ">
<path fill="none" stroke="#63b8ff" d="M617.15,-158.04C596.38,-167.48 569.18,-178.3 543.75,-183.71 406.63,-212.84 241.99,-211.37 148.93,-207.29"/>
<polygon fill="#63b8ff" stroke="#63b8ff" points="618.43,-161.31 626.01,-153.91 615.47,-154.97 618.43,-161.31"/>
</a>
</g>
</g>
<!-- Node5 -->
<g id="Node000005" class="node">
<title>Node5</title>
<g id="a_Node000005"><a xlink:href="../../df/d28/classWin32Service.html#a7650ae910abba1f4f3a53be0b05ba081" target="_top" xlink:title=" ">
<polygon fill="white" stroke="#666666" points="543,-254.96 370.25,-254.96 370.25,-230.46 543,-230.46 543,-254.96"/>
<text text-anchor="middle" x="456.62" y="-237.66" font-family="Helvetica,sans-Serif" font-size="14.00">Win32Service\isInstalled</text>
</a>
</g>
</g>
<!-- Node1&#45;&gt;Node5 -->
<g id="edge4_Node000001_Node000005" class="edge">
<title>Node1&#45;&gt;Node5</title>
<g id="a_edge4_Node000001_Node000005"><a xlink:title=" ">
<path fill="none" stroke="#63b8ff" d="M628.36,-160.67C607.31,-177.59 575.09,-201.47 543.75,-216.71 532.93,-221.97 520.83,-226.42 509.2,-230.06"/>
<polygon fill="#63b8ff" stroke="#63b8ff" points="630.5,-163.44 636.03,-154.4 626.07,-158.02 630.5,-163.44"/>
</a>
</g>
</g>
<!-- Node6 -->
<g id="Node000006" class="node">
<title>Node6</title>
<g id="a_Node000006"><a xlink:href="../../df/d28/classWin32Service.html#a48519a2f6fa88f4af9dd6bb9b6a58d9e" target="_top" xlink:title=" ">
<polygon fill="white" stroke="#666666" points="540.75,-174.96 372.5,-174.96 372.5,-150.46 540.75,-150.46 540.75,-174.96"/>
<text text-anchor="middle" x="456.62" y="-157.66" font-family="Helvetica,sans-Serif" font-size="14.00">Win32Service\isPaused</text>
</a>
</g>
</g>
<!-- Node1&#45;&gt;Node6 -->
<g id="edge7_Node000001_Node000006" class="edge">
<title>Node1&#45;&gt;Node6</title>
<g id="a_edge7_Node000001_Node000006"><a xlink:title=" ">
<path fill="none" stroke="#63b8ff" d="M568.08,-150.21C559.09,-151.22 549.96,-152.26 540.98,-153.27"/>
<polygon fill="#63b8ff" stroke="#63b8ff" points="568.3,-153.7 577.84,-149.1 567.51,-146.75 568.3,-153.7"/>
</a>
</g>
</g>
<!-- Node7 -->
<g id="Node000007" class="node">
<title>Node7</title>
<g id="a_Node000007"><a xlink:href="../../df/d28/classWin32Service.html#aa60257e9128e72448d91805cec359087" target="_top" xlink:title=" ">
<polygon fill="white" stroke="#666666" points="542.25,-51.96 371,-51.96 371,-27.46 542.25,-27.46 542.25,-51.96"/>
<text text-anchor="middle" x="456.62" y="-34.66" font-family="Helvetica,sans-Serif" font-size="14.00">Win32Service\isRunning</text>
</a>
</g>
</g>
<!-- Node1&#45;&gt;Node7 -->
<g id="edge8_Node000001_Node000007" class="edge">
<title>Node1&#45;&gt;Node7</title>
<g id="a_edge8_Node000001_Node000007"><a xlink:title=" ">
<path fill="none" stroke="#63b8ff" d="M628.32,-121.03C607.24,-104.34 575,-80.79 543.75,-65.71 532.92,-60.48 520.81,-56.05 509.18,-52.4"/>
<polygon fill="#63b8ff" stroke="#63b8ff" points="626.01,-123.66 635.99,-127.21 630.4,-118.21 626.01,-123.66"/>
</a>
</g>
</g>
<!-- Node8 -->
<g id="Node000008" class="node">
<title>Node8</title>
<g id="a_Node000008"><a xlink:href="../../df/d28/classWin32Service.html#af0b7053399d4c44b3fff8a4d598a2d48" target="_top" xlink:title=" ">
<polygon fill="white" stroke="#666666" points="327.12,-51.96 191.12,-51.96 191.12,-27.46 327.12,-27.46 327.12,-51.96"/>
<text text-anchor="middle" x="259.12" y="-34.66" font-family="Helvetica,sans-Serif" font-size="14.00">Win32Service\start</text>
</a>
</g>
</g>
<!-- Node1&#45;&gt;Node8 -->
<g id="edge15_Node000001_Node000008" class="edge">
<title>Node1&#45;&gt;Node8</title>
<g id="a_edge15_Node000001_Node000008"><a xlink:title=" ">
<path fill="none" stroke="#63b8ff" d="M640.31,-118.57C623.46,-89.34 589.29,-39.18 543.75,-18.71 460.66,18.65 350.02,-8.75 294.7,-26.97"/>
<polygon fill="#63b8ff" stroke="#63b8ff" points="637.07,-119.94 644.99,-126.98 643.18,-116.54 637.07,-119.94"/>
</a>
</g>
</g>
<!-- Node10 -->
<g id="Node000010" class="node">
<title>Node10</title>
<g id="a_Node000010"><a xlink:href="../../df/d28/classWin32Service.html#ac734cf6d80fe657f62981941da65b963" target="_top" xlink:title=" ">
<polygon fill="white" stroke="#666666" points="543.75,-131.96 369.5,-131.96 369.5,-107.46 543.75,-107.46 543.75,-131.96"/>
<text text-anchor="middle" x="456.62" y="-114.66" font-family="Helvetica,sans-Serif" font-size="14.00">Win32Service\isStopped</text>
</a>
</g>
</g>
<!-- Node1&#45;&gt;Node10 -->
<g id="edge11_Node000001_Node000010" class="edge">
<title>Node1&#45;&gt;Node10</title>
<g id="a_edge11_Node000001_Node000010"><a xlink:title=" ">
<path fill="none" stroke="#63b8ff" d="M568.13,-131.65C560.12,-130.78 551.99,-129.9 543.96,-129.04"/>
<polygon fill="#63b8ff" stroke="#63b8ff" points="567.52,-135.1 577.84,-132.7 568.27,-128.14 567.52,-135.1"/>
</a>
</g>
</g>
<!-- Node11 -->
<g id="Node000011" class="node">
<title>Node11</title>
<g id="a_Node000011"><a xlink:href="../../df/d28/classWin32Service.html#a09c364e5eaa7abf4b288b3f1a771a046" target="_top" xlink:title=" ">
<polygon fill="white" stroke="#666666" points="327.5,-112.96 190.75,-112.96 190.75,-88.46 327.5,-88.46 327.5,-112.96"/>
<text text-anchor="middle" x="259.12" y="-95.66" font-family="Helvetica,sans-Serif" font-size="14.00">Win32Service\stop</text>
</a>
</g>
</g>
<!-- Node1&#45;&gt;Node11 -->
<g id="edge16_Node000001_Node000011" class="edge">
<title>Node1&#45;&gt;Node11</title>
<g id="a_edge16_Node000001_Node000011"><a xlink:title=" ">
<path fill="none" stroke="#63b8ff" d="M617.18,-123.4C596.42,-114.05 569.23,-103.48 543.75,-98.71 470.91,-85.07 385.69,-88.16 327.82,-93.02"/>
<polygon fill="#63b8ff" stroke="#63b8ff" points="615.49,-126.47 626.03,-127.5 618.43,-120.12 615.49,-126.47"/>
</a>
</g>
</g>
<!-- Node3 -->
<g id="Node000003" class="node">
<title>Node3</title>
<g id="a_Node000003"><a xlink:href="../../df/d28/classWin32Service.html#ab2bdb25f7405e3bb9e5230fca1980747" target="_top" xlink:title=" ">
<polygon fill="white" stroke="#666666" points="145,-293.96 3.75,-293.96 3.75,-269.46 145,-269.46 145,-293.96"/>
<text text-anchor="middle" x="74.38" y="-276.66" font-family="Helvetica,sans-Serif" font-size="14.00">Win32Service\reset</text>
</a>
</g>
</g>
<!-- Node2&#45;&gt;Node3 -->
<g id="edge2_Node000002_Node000003" class="edge">
<title>Node2&#45;&gt;Node3</title>
<g id="a_edge2_Node000002_Node000003"><a xlink:title=" ">
<path fill="none" stroke="#63b8ff" d="M173.06,-281.71C163.77,-281.71 154.39,-281.71 145.31,-281.71"/>
<polygon fill="#63b8ff" stroke="#63b8ff" points="172.81,-285.21 182.81,-281.71 172.81,-278.21 172.81,-285.21"/>
</a>
</g>
</g>
<!-- Node5&#45;&gt;Node2 -->
<g id="edge5_Node000005_Node000002" class="edge">
<title>Node5&#45;&gt;Node2</title>
<g id="a_edge5_Node000005_Node000002"><a xlink:title=" ">
<path fill="none" stroke="#63b8ff" d="M380.68,-257.66C361.91,-261.4 341.95,-265.39 323.78,-269.01"/>
<polygon fill="#63b8ff" stroke="#63b8ff" points="381.28,-261.11 390.4,-255.72 379.91,-254.24 381.28,-261.11"/>
</a>
</g>
</g>
<!-- Node5&#45;&gt;Node4 -->
<g id="edge6_Node000005_Node000004" class="edge">
<title>Node5&#45;&gt;Node4</title>
<g id="a_edge6_Node000005_Node000004"><a xlink:title=" ">
<path fill="none" stroke="#63b8ff" d="M358.69,-234.15C307.02,-229.4 242.38,-223.16 184.75,-216.71 173.24,-215.42 161.06,-213.96 149.17,-212.48"/>
<polygon fill="#63b8ff" stroke="#63b8ff" points="358.07,-237.61 368.34,-235.04 358.7,-230.64 358.07,-237.61"/>
</a>
</g>
</g>
<!-- Node7&#45;&gt;Node8 -->
<g id="edge9_Node000007_Node000008" class="edge">
<title>Node7&#45;&gt;Node8</title>
<g id="a_edge9_Node000007_Node000008"><a xlink:title=" ">
<path fill="none" stroke="#63b8ff" d="M359.52,-39.71C348.73,-39.71 337.91,-39.71 327.6,-39.71"/>
<polygon fill="#63b8ff" stroke="#63b8ff" points="359.22,-43.21 369.22,-39.71 359.22,-36.21 359.22,-43.21"/>
</a>
</g>
</g>
<!-- Node9 -->
<g id="Node000009" class="node">
<title>Node9</title>
<g id="a_Node000009"><a xlink:href="../../df/d28/classWin32Service.html#a9bff7f1bfac7b2d0784d437c954b9eb5" target="_top" xlink:title=" ">
<polygon fill="white" stroke="#666666" points="148.75,-91.96 0,-91.96 0,-67.46 148.75,-67.46 148.75,-91.96"/>
<text text-anchor="middle" x="74.38" y="-74.66" font-family="Helvetica,sans-Serif" font-size="14.00">Win32Service\restart</text>
</a>
</g>
</g>
<!-- Node8&#45;&gt;Node9 -->
<g id="edge10_Node000008_Node000009" class="edge">
<title>Node8&#45;&gt;Node9</title>
<g id="a_edge10_Node000008_Node000009"><a xlink:title=" ">
<path fill="none" stroke="#63b8ff" d="M188.89,-54.86C170.67,-58.85 151.19,-63.11 133.61,-66.96"/>
<polygon fill="#63b8ff" stroke="#63b8ff" points="189.55,-58.3 198.57,-52.74 188.05,-51.46 189.55,-58.3"/>
</a>
</g>
</g>
<!-- Node10&#45;&gt;Node11 -->
<g id="edge12_Node000010_Node000011" class="edge">
<title>Node10&#45;&gt;Node11</title>
<g id="a_edge12_Node000010_Node000011"><a xlink:title=" ">
<path fill="none" stroke="#63b8ff" d="M357.67,-110.19C347.59,-109.21 337.52,-108.23 327.88,-107.29"/>
<polygon fill="#63b8ff" stroke="#63b8ff" points="357.22,-113.66 367.52,-111.14 357.9,-106.69 357.22,-113.66"/>
</a>
</g>
</g>
<!-- Node11&#45;&gt;Node4 -->
<g id="edge13_Node000011_Node000004" class="edge">
<title>Node11&#45;&gt;Node4</title>
<g id="a_edge13_Node000011_Node000004"><a xlink:title=" ">
<path fill="none" stroke="#63b8ff" d="M225.63,-118.84C188.96,-139.31 130.25,-172.08 98.15,-190"/>
<polygon fill="#63b8ff" stroke="#63b8ff" points="227,-122.09 234.03,-114.16 223.59,-115.98 227,-122.09"/>
</a>
</g>
</g>
<!-- Node11&#45;&gt;Node9 -->
<g id="edge14_Node000011_Node000009" class="edge">
<title>Node11&#45;&gt;Node9</title>
<g id="a_edge14_Node000011_Node000009"><a xlink:title=" ">
<path fill="none" stroke="#63b8ff" d="M179.2,-91.64C169.24,-90.49 159.07,-89.33 149.19,-88.19"/>
<polygon fill="#63b8ff" stroke="#63b8ff" points="178.5,-95.08 188.83,-92.75 179.3,-88.13 178.5,-95.08"/>
</a>
</g>
</g>
</g>
</svg>
