<?xml version="1.0" encoding="UTF-8" standalone="no"?>
<!--
  - Copyright (c) 2021-2024 Bearsampp
  - License:  GNU General Public License version 3 or later; see LICENSE.txt
  - Author: Bear
  - Website: https://bearsampp.com
  - Github: https://github.com/Bearsampp
  -->

<!DOCTYPE svg PUBLIC "-//W3C//DTD SVG 1.1//EN"
 "http://www.w3.org/Graphics/SVG/1.1/DTD/svg11.dtd">
<!-- Generated by graphviz version 11.0.0 (20240428.1522)
 -->
<!-- Title: Win32Service\isRunning Pages: 1 -->
<svg width="536pt" height="33pt"
 viewBox="0.00 0.00 536.00 32.50" xmlns="http://www.w3.org/2000/svg" xmlns:xlink="http://www.w3.org/1999/xlink">
<g id="graph0" class="graph" transform="scale(1 1) rotate(0) translate(4 28.5)">
<title>Win32Service\isRunning</title>
<!-- Node1 -->
<g id="Node000001" class="node">
<title>Node1</title>
<g id="a_Node000001"><a xlink:title=" ">
<polygon fill="#999999" stroke="#666666" points="528,-24.5 356.75,-24.5 356.75,0 528,0 528,-24.5"/>
<text text-anchor="middle" x="442.38" y="-7.2" font-family="Helvetica,sans-Serif" font-size="14.00">Win32Service\isRunning</text>
</a>
</g>
</g>
<!-- Node2 -->
<g id="Node000002" class="node">
<title>Node2</title>
<g id="a_Node000002"><a xlink:href="../../df/d28/classWin32Service.html#af0b7053399d4c44b3fff8a4d598a2d48" target="_top" xlink:title=" ">
<polygon fill="white" stroke="#666666" points="320.75,-24.5 184.75,-24.5 184.75,0 320.75,0 320.75,-24.5"/>
<text text-anchor="middle" x="252.75" y="-7.2" font-family="Helvetica,sans-Serif" font-size="14.00">Win32Service\start</text>
</a>
</g>
</g>
<!-- Node1&#45;&gt;Node2 -->
<g id="edge1_Node000001_Node000002" class="edge">
<title>Node1&#45;&gt;Node2</title>
<g id="a_edge1_Node000001_Node000002"><a xlink:title=" ">
<path fill="none" stroke="#63b8ff" d="M344.95,-12.25C336.88,-12.25 328.83,-12.25 321.06,-12.25"/>
<polygon fill="#63b8ff" stroke="#63b8ff" points="344.83,-15.75 354.83,-12.25 344.83,-8.75 344.83,-15.75"/>
</a>
</g>
</g>
<!-- Node3 -->
<g id="Node000003" class="node">
<title>Node3</title>
<g id="a_Node000003"><a xlink:href="../../df/d28/classWin32Service.html#a9bff7f1bfac7b2d0784d437c954b9eb5" target="_top" xlink:title=" ">
<polygon fill="white" stroke="#666666" points="148.75,-24.5 0,-24.5 0,0 148.75,0 148.75,-24.5"/>
<text text-anchor="middle" x="74.38" y="-7.2" font-family="Helvetica,sans-Serif" font-size="14.00">Win32Service\restart</text>
</a>
</g>
</g>
<!-- Node2&#45;&gt;Node3 -->
<g id="edge2_Node000002_Node000003" class="edge">
<title>Node2&#45;&gt;Node3</title>
<g id="a_edge2_Node000002_Node000003"><a xlink:title=" ">
<path fill="none" stroke="#63b8ff" d="M172.89,-12.25C165.02,-12.25 157.05,-12.25 149.24,-12.25"/>
<polygon fill="#63b8ff" stroke="#63b8ff" points="172.8,-15.75 182.8,-12.25 172.8,-8.75 172.8,-15.75"/>
</a>
</g>
</g>
</g>
</svg>
