<?xml version="1.0" encoding="UTF-8" standalone="no"?>
<!--
  - Copyright (c) 2021-2024 Bearsampp
  - License:  GNU General Public License version 3 or later; see LICENSE.txt
  - Author: Bear
  - Website: https://bearsampp.com
  - Github: https://github.com/Bearsampp
  -->

<!DOCTYPE svg PUBLIC "-//W3C//DTD SVG 1.1//EN"
 "http://www.w3.org/Graphics/SVG/1.1/DTD/svg11.dtd">
<!-- Generated by graphviz version 11.0.0 (20240428.1522)
 -->
<!-- Title: Win32Service\getVbsKeys Pages: 1 -->
<svg width="553pt" height="76pt"
 viewBox="0.00 0.00 552.50 75.50" xmlns="http://www.w3.org/2000/svg" xmlns:xlink="http://www.w3.org/1999/xlink">
<g id="graph0" class="graph" transform="scale(1 1) rotate(0) translate(4 71.5)">
<title>Win32Service\getVbsKeys</title>
<!-- Node1 -->
<g id="Node000001" class="node">
<title>Node1</title>
<g id="a_Node000001"><a xlink:title=" ">
<polygon fill="#999999" stroke="#666666" points="544.5,-45.5 357.5,-45.5 357.5,-21 544.5,-21 544.5,-45.5"/>
<text text-anchor="middle" x="451" y="-28.2" font-family="Helvetica,sans-Serif" font-size="14.00">Win32Service\getVbsKeys</text>
</a>
</g>
</g>
<!-- Node2 -->
<g id="Node000002" class="node">
<title>Node2</title>
<g id="a_Node000002"><a xlink:href="../../dd/de9/classVbs.html#a0caaf59e2ff4129acd1dfe1ab03aa67d" target="_top" xlink:title=" ">
<polygon fill="white" stroke="#666666" points="321.5,-45.5 175.75,-45.5 175.75,-21 321.5,-21 321.5,-45.5"/>
<text text-anchor="middle" x="248.62" y="-28.2" font-family="Helvetica,sans-Serif" font-size="14.00">Vbs\getServiceInfos</text>
</a>
</g>
</g>
<!-- Node1&#45;&gt;Node2 -->
<g id="edge1_Node000001_Node000002" class="edge">
<title>Node1&#45;&gt;Node2</title>
<g id="a_edge1_Node000001_Node000002"><a xlink:title=" ">
<path fill="none" stroke="#63b8ff" d="M345.71,-33.25C337.63,-33.25 329.58,-33.25 321.78,-33.25"/>
<polygon fill="#63b8ff" stroke="#63b8ff" points="345.63,-36.75 355.63,-33.25 345.63,-29.75 345.63,-36.75"/>
</a>
</g>
</g>
<!-- Node3 -->
<g id="Node000003" class="node">
<title>Node3</title>
<g id="a_Node000003"><a xlink:href="../../d3/d93/classNssm.html#a185739880ce0854f69b2d53a1e25b4ec" target="_top" xlink:title=" ">
<polygon fill="white" stroke="#666666" points="113.5,-67.5 26.25,-67.5 26.25,-43 113.5,-43 113.5,-67.5"/>
<text text-anchor="middle" x="69.88" y="-50.2" font-family="Helvetica,sans-Serif" font-size="14.00">Nssm\infos</text>
</a>
</g>
</g>
<!-- Node2&#45;&gt;Node3 -->
<g id="edge2_Node000002_Node000003" class="edge">
<title>Node2&#45;&gt;Node3</title>
<g id="a_edge2_Node000002_Node000003"><a xlink:title=" ">
<path fill="none" stroke="#63b8ff" d="M164.12,-43.64C146.73,-45.81 129.09,-48 113.9,-49.89"/>
<polygon fill="#63b8ff" stroke="#63b8ff" points="164.49,-47.13 173.98,-42.42 163.62,-40.18 164.49,-47.13"/>
</a>
</g>
</g>
<!-- Node4 -->
<g id="Node000004" class="node">
<title>Node4</title>
<g id="a_Node000004"><a xlink:href="../../df/d28/classWin32Service.html#ab26c776c199da5736886440b68a9953c" target="_top" xlink:title=" ">
<polygon fill="white" stroke="#666666" points="139.75,-24.5 0,-24.5 0,0 139.75,0 139.75,-24.5"/>
<text text-anchor="middle" x="69.88" y="-7.2" font-family="Helvetica,sans-Serif" font-size="14.00">Win32Service\infos</text>
</a>
</g>
</g>
<!-- Node2&#45;&gt;Node4 -->
<g id="edge3_Node000002_Node000004" class="edge">
<title>Node2&#45;&gt;Node4</title>
<g id="a_edge3_Node000002_Node000004"><a xlink:title=" ">
<path fill="none" stroke="#63b8ff" d="M164.2,-23.34C156.17,-22.38 148.09,-21.42 140.22,-20.49"/>
<polygon fill="#63b8ff" stroke="#63b8ff" points="163.63,-26.8 173.98,-24.5 164.46,-19.84 163.63,-26.8"/>
</a>
</g>
</g>
</g>
</svg>
