<?xml version="1.0" encoding="UTF-8" standalone="no"?>
<!--
  - Copyright (c) 2021-2024 Bearsampp
  - License:  GNU General Public License version 3 or later; see LICENSE.txt
  - Author: Bear
  - Website: https://bearsampp.com
  - Github: https://github.com/Bearsampp
  -->

<!DOCTYPE svg PUBLIC "-//W3C//DTD SVG 1.1//EN"
 "http://www.w3.org/Graphics/SVG/1.1/DTD/svg11.dtd">
<!-- Generated by graphviz version 11.0.0 (20240428.1522)
 -->
<!-- Title: Win32Service\getName Pages: 1 -->
<!--zoomable 494 -->

<svg id="main" version="1.1" xmlns="http://www.w3.org/2000/svg" xmlns:xlink="http://www.w3.org/1999/xlink" xml:space="preserve" onload="init(evt)">
<style type="text/css"><![CDATA[
.node, .edge {opacity: 0.7;}
.node.selected, .edge.selected {opacity: 1;}
.edge:hover path { stroke: red; }
.edge:hover polygon { stroke: red; fill: red; }
]]></style>

<defs>
  <circle id="rim" cx="0" cy="0" r="7"/>
  <circle id="rim2" cx="0" cy="0" r="3.5"/>
  <g id="zoomPlus">
    <use xlink:href="#rim" fill="#404040"><set attributeName="fill" to="#808080" begin="zoomplus.mouseover" end="zoomplus.mouseout"/></use>
    <path d="M-4,0h8M0,-4v8" fill="none" stroke="white" stroke-width="1.5" pointer-events="none"/>
  </g>
  <g id="zoomMin">
    <use xlink:href="#rim" fill="#404040"><set attributeName="fill" to="#808080" begin="zoomminus.mouseover" end="zoomminus.mouseout"/></use>
    <path d="M-4,0h8" fill="none" stroke="white" stroke-width="1.5" pointer-events="none"/>
  </g>
  <g id="arrowUp" transform="translate(30 24)">
    <use xlink:href="#rim"/>
    <path pointer-events="none" fill="none" stroke="white" stroke-width="1.5" d="M0,-3.0v7 M-2.5,-0.5L0,-3.0L2.5,-0.5"/>
  </g>
  <g id="arrowRight" transform="rotate(90) translate(36 -43)">
    <use xlink:href="#rim"/>
    <path pointer-events="none" fill="none" stroke="white" stroke-width="1.5" d="M0,-3.0v7 M-2.5,-0.5L0,-3.0L2.5,-0.5"/>
  </g>
  <g id="arrowDown" transform="rotate(180) translate(-30 -48)">
    <use xlink:href="#rim"/>
    <path pointer-events="none" fill="none" stroke="white" stroke-width="1.5" d="M0,-3.0v7 M-2.5,-0.5L0,-3.0L2.5,-0.5"/>
  </g>
  <g id="arrowLeft" transform="rotate(270) translate(-36 17)">
    <use xlink:href="#rim"/>
    <path pointer-events="none" fill="none" stroke="white" stroke-width="1.5" d="M0,-3.0v7 M-2.5,-0.5L0,-3.0L2.5,-0.5"/>
  </g>
  <g id="resetDef">
    <use xlink:href="#rim2" fill="#404040"><set attributeName="fill" to="#808080" begin="reset.mouseover" end="reset.mouseout"/></use>
  </g>
</defs>
<script type="application/ecmascript">
var viewWidth = 937;
var viewHeight = 494;
var sectionId = 'dynsection-5';
</script>
<script type="application/ecmascript" xlink:href="../../svg.min.js"/>
<svg id="graph" class="graph">
<g id="viewport">
<title>Win32Service\getName</title>
<!-- Node1 -->
<g id="Node000001" class="node">
<title>Node1</title>
<g id="a_Node000001"><a xlink:title=" ">
<polygon fill="#999999" stroke="#666666" points="929,-299.54 762.25,-299.54 762.25,-275.04 929,-275.04 929,-299.54"/>
<text text-anchor="middle" x="845.62" y="-282.24" font-family="Helvetica,sans-Serif" font-size="14.00">Win32Service\getName</text>
</a>
</g>
</g>
<!-- Node2 -->
<g id="Node000002" class="node">
<title>Node2</title>
<g id="a_Node000002"><a xlink:href="../../df/d28/classWin32Service.html#a0d671863c8ed9869297400110daef2c1" target="_top" xlink:title=" ">
<polygon fill="white" stroke="#666666" points="333.5,-475.54 184.75,-475.54 184.75,-451.04 333.5,-451.04 333.5,-475.54"/>
<text text-anchor="middle" x="259.12" y="-458.24" font-family="Helvetica,sans-Serif" font-size="14.00">Win32Service\create</text>
</a>
</g>
</g>
<!-- Node1&#45;&gt;Node2 -->
<g id="edge1_Node000001_Node000002" class="edge">
<title>Node1&#45;&gt;Node2</title>
<g id="a_edge1_Node000001_Node000002"><a xlink:title=" ">
<path fill="none" stroke="#63b8ff" d="M834.04,-309.93C816.83,-343.83 779.28,-406.73 726.25,-434.29 600.16,-499.81 428.26,-489.22 332.36,-476.01"/>
<polygon fill="#63b8ff" stroke="#63b8ff" points="837.16,-311.52 838.43,-301 830.88,-308.43 837.16,-311.52"/>
</a>
</g>
</g>
<!-- Node4 -->
<g id="Node000004" class="node">
<title>Node4</title>
<g id="a_Node000004"><a xlink:href="../../df/d28/classWin32Service.html#a6a5213abbf17063a848a62a86feadee3" target="_top" xlink:title=" ">
<polygon fill="white" stroke="#666666" points="148.75,-338.54 0,-338.54 0,-314.04 148.75,-314.04 148.75,-338.54"/>
<text text-anchor="middle" x="74.38" y="-321.24" font-family="Helvetica,sans-Serif" font-size="14.00">Win32Service\delete</text>
</a>
</g>
</g>
<!-- Node1&#45;&gt;Node4 -->
<g id="edge3_Node000001_Node000004" class="edge">
<title>Node1&#45;&gt;Node4</title>
<g id="a_edge3_Node000001_Node000004"><a xlink:title=" ">
<path fill="none" stroke="#63b8ff" d="M803.36,-304.05C780.84,-312.74 752.32,-323.03 726.25,-330.29 572.73,-373.04 528.5,-377.05 369.5,-366.29 293.79,-361.17 207.87,-348.7 148.52,-339.04"/>
<polygon fill="#63b8ff" stroke="#63b8ff" points="804.45,-307.38 812.48,-300.48 801.9,-300.86 804.45,-307.38"/>
</a>
</g>
</g>
<!-- Node5 -->
<g id="Node000005" class="node">
<title>Node5</title>
<g id="a_Node000005"><a xlink:href="../../df/d28/classWin32Service.html#ab26c776c199da5736886440b68a9953c" target="_top" xlink:title=" ">
<polygon fill="white" stroke="#666666" points="722.88,-398.54 583.12,-398.54 583.12,-374.04 722.88,-374.04 722.88,-398.54"/>
<text text-anchor="middle" x="653" y="-381.24" font-family="Helvetica,sans-Serif" font-size="14.00">Win32Service\infos</text>
</a>
</g>
</g>
<!-- Node1&#45;&gt;Node5 -->
<g id="edge4_Node000001_Node000005" class="edge">
<title>Node1&#45;&gt;Node5</title>
<g id="a_edge4_Node000001_Node000005"><a xlink:title=" ">
<path fill="none" stroke="#63b8ff" d="M817.56,-306.23C794.14,-322.06 758.99,-344.52 726.25,-360.29 716.04,-365.21 704.65,-369.73 693.98,-373.57"/>
<polygon fill="#63b8ff" stroke="#63b8ff" points="819.31,-309.27 825.59,-300.74 815.36,-303.5 819.31,-309.27"/>
</a>
</g>
</g>
<!-- Node6 -->
<g id="Node000006" class="node">
<title>Node6</title>
<g id="a_Node000006"><a xlink:href="../../df/d28/classWin32Service.html#a7650ae910abba1f4f3a53be0b05ba081" target="_top" xlink:title=" ">
<polygon fill="white" stroke="#666666" points="543,-437.54 370.25,-437.54 370.25,-413.04 543,-413.04 543,-437.54"/>
<text text-anchor="middle" x="456.62" y="-420.24" font-family="Helvetica,sans-Serif" font-size="14.00">Win32Service\isInstalled</text>
</a>
</g>
</g>
<!-- Node1&#45;&gt;Node6 -->
<g id="edge5_Node000001_Node000006" class="edge">
<title>Node1&#45;&gt;Node6</title>
<g id="a_edge5_Node000001_Node000006"><a xlink:title=" ">
<path fill="none" stroke="#63b8ff" d="M830.41,-309.54C810.84,-337.96 772.69,-386.01 726.25,-407.29 669.2,-433.42 598.11,-437.1 543.4,-434.68"/>
<polygon fill="#63b8ff" stroke="#63b8ff" points="833.27,-311.56 835.92,-301.3 827.45,-307.66 833.27,-311.56"/>
</a>
</g>
</g>
<!-- Node7 -->
<g id="Node000007" class="node">
<title>Node7</title>
<g id="a_Node000007"><a xlink:href="../../df/d28/classWin32Service.html#a48519a2f6fa88f4af9dd6bb9b6a58d9e" target="_top" xlink:title=" ">
<polygon fill="white" stroke="#666666" points="540.75,-357.54 372.5,-357.54 372.5,-333.04 540.75,-333.04 540.75,-357.54"/>
<text text-anchor="middle" x="456.62" y="-340.24" font-family="Helvetica,sans-Serif" font-size="14.00">Win32Service\isPaused</text>
</a>
</g>
</g>
<!-- Node1&#45;&gt;Node7 -->
<g id="edge8_Node000001_Node000007" class="edge">
<title>Node1&#45;&gt;Node7</title>
<g id="a_edge8_Node000001_Node000007"><a xlink:title=" ">
<path fill="none" stroke="#63b8ff" d="M750.77,-301.36C686.75,-310.95 602.72,-323.54 541.05,-332.79"/>
<polygon fill="#63b8ff" stroke="#63b8ff" points="751.21,-304.83 760.58,-299.89 750.17,-297.91 751.21,-304.83"/>
</a>
</g>
</g>
<!-- Node8 -->
<g id="Node000008" class="node">
<title>Node8</title>
<g id="a_Node000008"><a xlink:href="../../df/d28/classWin32Service.html#aa60257e9128e72448d91805cec359087" target="_top" xlink:title=" ">
<polygon fill="white" stroke="#666666" points="542.25,-120.54 371,-120.54 371,-96.04 542.25,-96.04 542.25,-120.54"/>
<text text-anchor="middle" x="456.62" y="-103.24" font-family="Helvetica,sans-Serif" font-size="14.00">Win32Service\isRunning</text>
</a>
</g>
</g>
<!-- Node1&#45;&gt;Node8 -->
<g id="edge9_Node000001_Node000008" class="edge">
<title>Node1&#45;&gt;Node8</title>
<g id="a_edge9_Node000001_Node000008"><a xlink:title=" ">
<path fill="none" stroke="#63b8ff" d="M825.17,-266.5C803.13,-244.06 765.18,-208.66 726.25,-187.29 664.78,-153.54 587.3,-132.74 531.36,-121.02"/>
<polygon fill="#63b8ff" stroke="#63b8ff" points="822.56,-268.83 832.02,-273.6 827.6,-263.97 822.56,-268.83"/>
</a>
</g>
</g>
<!-- Node9 -->
<g id="Node000009" class="node">
<title>Node9</title>
<g id="a_Node000009"><a xlink:href="../../df/d28/classWin32Service.html#af0b7053399d4c44b3fff8a4d598a2d48" target="_top" xlink:title=" ">
<polygon fill="white" stroke="#666666" points="327.12,-120.54 191.12,-120.54 191.12,-96.04 327.12,-96.04 327.12,-120.54"/>
<text text-anchor="middle" x="259.12" y="-103.24" font-family="Helvetica,sans-Serif" font-size="14.00">Win32Service\start</text>
</a>
</g>
</g>
<!-- Node1&#45;&gt;Node9 -->
<g id="edge16_Node000001_Node000009" class="edge">
<title>Node1&#45;&gt;Node9</title>
<g id="a_edge16_Node000001_Node000009"><a xlink:title=" ">
<path fill="none" stroke="#63b8ff" d="M840.69,-263.72C831.11,-214.69 801.58,-102.2 726.25,-53.29 593.22,33.08 522.58,-2.79 369.5,-44.29 332.76,-54.25 295.73,-79.97 275.58,-95.61"/>
<polygon fill="#63b8ff" stroke="#63b8ff" points="837.19,-264.05 842.44,-273.26 844.08,-262.79 837.19,-264.05"/>
</a>
</g>
</g>
<!-- Node11 -->
<g id="Node000011" class="node">
<title>Node11</title>
<g id="a_Node000011"><a xlink:href="../../df/d28/classWin32Service.html#ac734cf6d80fe657f62981941da65b963" target="_top" xlink:title=" ">
<polygon fill="white" stroke="#666666" points="543.75,-163.54 369.5,-163.54 369.5,-139.04 543.75,-139.04 543.75,-163.54"/>
<text text-anchor="middle" x="456.62" y="-146.24" font-family="Helvetica,sans-Serif" font-size="14.00">Win32Service\isStopped</text>
</a>
</g>
</g>
<!-- Node1&#45;&gt;Node11 -->
<g id="edge12_Node000001_Node000011" class="edge">
<title>Node1&#45;&gt;Node11</title>
<g id="a_edge12_Node000001_Node000011"><a xlink:title=" ">
<path fill="none" stroke="#63b8ff" d="M801.26,-270.55C743.03,-248.27 636.19,-208.11 543.75,-177.29 530.12,-172.74 515.16,-168.11 501.59,-164.03"/>
<polygon fill="#63b8ff" stroke="#63b8ff" points="799.89,-273.77 810.48,-274.08 802.4,-267.24 799.89,-273.77"/>
</a>
</g>
</g>
<!-- Node12 -->
<g id="Node000012" class="node">
<title>Node12</title>
<g id="a_Node000012"><a xlink:href="../../df/d28/classWin32Service.html#a09c364e5eaa7abf4b288b3f1a771a046" target="_top" xlink:title=" ">
<polygon fill="white" stroke="#666666" points="327.5,-163.54 190.75,-163.54 190.75,-139.04 327.5,-139.04 327.5,-163.54"/>
<text text-anchor="middle" x="259.12" y="-146.24" font-family="Helvetica,sans-Serif" font-size="14.00">Win32Service\stop</text>
</a>
</g>
</g>
<!-- Node1&#45;&gt;Node12 -->
<g id="edge26_Node000001_Node000012" class="edge">
<title>Node1&#45;&gt;Node12</title>
<g id="a_edge26_Node000001_Node000012"><a xlink:title=" ">
<path fill="none" stroke="#63b8ff" d="M834.11,-264.52C816.79,-229.67 778.87,-163.54 726.25,-129.29 592.45,-42.2 514.54,-20.58 369.5,-87.29 347.16,-97.56 354.11,-115.88 333.5,-129.29 327.81,-132.99 321.48,-136.09 314.99,-138.68"/>
<polygon fill="#63b8ff" stroke="#63b8ff" points="830.85,-265.81 838.35,-273.3 837.15,-262.77 830.85,-265.81"/>
</a>
</g>
</g>
<!-- Node13 -->
<g id="Node000013" class="node">
<title>Node13</title>
<g id="a_Node000013"><a xlink:href="../../df/d28/classWin32Service.html#affc558c7246c1bdb371ecbf4a4b1d20f" target="_top" xlink:title=" ">
<polygon fill="white" stroke="#666666" points="726.25,-279.54 579.75,-279.54 579.75,-255.04 726.25,-255.04 726.25,-279.54"/>
<text text-anchor="middle" x="653" y="-262.24" font-family="Helvetica,sans-Serif" font-size="14.00">Win32Service\status</text>
</a>
</g>
</g>
<!-- Node1&#45;&gt;Node13 -->
<g id="edge17_Node000001_Node000013" class="edge">
<title>Node1&#45;&gt;Node13</title>
<g id="a_edge17_Node000001_Node000013"><a xlink:title=" ">
<path fill="none" stroke="#63b8ff" d="M750.49,-277.41C742.44,-276.57 734.38,-275.72 726.53,-274.9"/>
<polygon fill="#63b8ff" stroke="#63b8ff" points="750.03,-280.88 760.34,-278.45 750.76,-273.92 750.03,-280.88"/>
</a>
</g>
</g>
<!-- Node3 -->
<g id="Node000003" class="node">
<title>Node3</title>
<g id="a_Node000003"><a xlink:href="../../df/d28/classWin32Service.html#ab2bdb25f7405e3bb9e5230fca1980747" target="_top" xlink:title=" ">
<polygon fill="white" stroke="#666666" points="145,-475.54 3.75,-475.54 3.75,-451.04 145,-451.04 145,-475.54"/>
<text text-anchor="middle" x="74.38" y="-458.24" font-family="Helvetica,sans-Serif" font-size="14.00">Win32Service\reset</text>
</a>
</g>
</g>
<!-- Node2&#45;&gt;Node3 -->
<g id="edge2_Node000002_Node000003" class="edge">
<title>Node2&#45;&gt;Node3</title>
<g id="a_edge2_Node000002_Node000003"><a xlink:title=" ">
<path fill="none" stroke="#63b8ff" d="M173.06,-463.29C163.77,-463.29 154.39,-463.29 145.31,-463.29"/>
<polygon fill="#63b8ff" stroke="#63b8ff" points="172.81,-466.79 182.81,-463.29 172.81,-459.79 172.81,-466.79"/>
</a>
</g>
</g>
<!-- Node6&#45;&gt;Node2 -->
<g id="edge6_Node000006_Node000002" class="edge">
<title>Node6&#45;&gt;Node2</title>
<g id="a_edge6_Node000006_Node000002"><a xlink:title=" ">
<path fill="none" stroke="#63b8ff" d="M379.07,-440.17C361.34,-443.62 342.63,-447.25 325.43,-450.6"/>
<polygon fill="#63b8ff" stroke="#63b8ff" points="379.62,-443.63 388.77,-438.29 378.28,-436.76 379.62,-443.63"/>
</a>
</g>
</g>
<!-- Node6&#45;&gt;Node4 -->
<g id="edge7_Node000006_Node000004" class="edge">
<title>Node6&#45;&gt;Node4</title>
<g id="a_edge7_Node000006_Node000004"><a xlink:title=" ">
<path fill="none" stroke="#63b8ff" d="M358.63,-427.38C305.85,-425.72 240.21,-419.04 184.75,-399.29 146.68,-385.73 108.97,-356.03 89.32,-338.98"/>
<polygon fill="#63b8ff" stroke="#63b8ff" points="358.43,-430.88 368.52,-427.63 358.61,-423.88 358.43,-430.88"/>
</a>
</g>
</g>
<!-- Node8&#45;&gt;Node9 -->
<g id="edge10_Node000008_Node000009" class="edge">
<title>Node8&#45;&gt;Node9</title>
<g id="a_edge10_Node000008_Node000009"><a xlink:title=" ">
<path fill="none" stroke="#63b8ff" d="M359.52,-108.29C348.73,-108.29 337.91,-108.29 327.6,-108.29"/>
<polygon fill="#63b8ff" stroke="#63b8ff" points="359.22,-111.79 369.22,-108.29 359.22,-104.79 359.22,-111.79"/>
</a>
</g>
</g>
<!-- Node10 -->
<g id="Node000010" class="node">
<title>Node10</title>
<g id="a_Node000010"><a xlink:href="../../df/d28/classWin32Service.html#a9bff7f1bfac7b2d0784d437c954b9eb5" target="_top" xlink:title=" ">
<polygon fill="white" stroke="#666666" points="148.75,-142.54 0,-142.54 0,-118.04 148.75,-118.04 148.75,-142.54"/>
<text text-anchor="middle" x="74.38" y="-125.24" font-family="Helvetica,sans-Serif" font-size="14.00">Win32Service\restart</text>
</a>
</g>
</g>
<!-- Node9&#45;&gt;Node10 -->
<g id="edge11_Node000009_Node000010" class="edge">
<title>Node9&#45;&gt;Node10</title>
<g id="a_edge11_Node000009_Node000010"><a xlink:title=" ">
<path fill="none" stroke="#63b8ff" d="M179.52,-117.75C169.38,-118.97 159.02,-120.22 148.96,-121.43"/>
<polygon fill="#63b8ff" stroke="#63b8ff" points="179.84,-121.24 189.35,-116.57 179,-114.29 179.84,-121.24"/>
</a>
</g>
</g>
<!-- Node11&#45;&gt;Node12 -->
<g id="edge13_Node000011_Node000012" class="edge">
<title>Node11&#45;&gt;Node12</title>
<g id="a_edge13_Node000011_Node000012"><a xlink:title=" ">
<path fill="none" stroke="#63b8ff" d="M357.67,-151.29C347.59,-151.29 337.52,-151.29 327.88,-151.29"/>
<polygon fill="#63b8ff" stroke="#63b8ff" points="357.51,-154.79 367.51,-151.29 357.51,-147.79 357.51,-154.79"/>
</a>
</g>
</g>
<!-- Node12&#45;&gt;Node4 -->
<g id="edge14_Node000012_Node000004" class="edge">
<title>Node12&#45;&gt;Node4</title>
<g id="a_edge14_Node000012_Node000004"><a xlink:title=" ">
<path fill="none" stroke="#63b8ff" d="M237.08,-171.44C198.98,-207.92 119.62,-283.92 88.4,-313.82"/>
<polygon fill="#63b8ff" stroke="#63b8ff" points="239.09,-174.37 243.89,-164.92 234.25,-169.31 239.09,-174.37"/>
</a>
</g>
</g>
<!-- Node12&#45;&gt;Node10 -->
<g id="edge15_Node000012_Node000010" class="edge">
<title>Node12&#45;&gt;Node10</title>
<g id="a_edge15_Node000012_Node000010"><a xlink:title=" ">
<path fill="none" stroke="#63b8ff" d="M179.2,-142.22C169.24,-141.08 159.07,-139.91 149.19,-138.77"/>
<polygon fill="#63b8ff" stroke="#63b8ff" points="178.5,-145.66 188.83,-143.33 179.3,-138.71 178.5,-145.66"/>
</a>
</g>
</g>
<!-- Node13&#45;&gt;Node2 -->
<g id="edge18_Node000013_Node000002" class="edge">
<title>Node13&#45;&gt;Node2</title>
<g id="a_edge18_Node000013_Node000002"><a xlink:title=" ">
<path fill="none" stroke="#63b8ff" d="M568.26,-281.17C491.23,-294.42 386.43,-313.87 369.5,-324.29 317.19,-356.47 279.86,-423.21 266.03,-450.87"/>
<polygon fill="#63b8ff" stroke="#63b8ff" points="568.65,-284.65 577.92,-279.51 567.47,-277.75 568.65,-284.65"/>
</a>
</g>
</g>
<!-- Node13&#45;&gt;Node4 -->
<g id="edge19_Node000013_Node000004" class="edge">
<title>Node13&#45;&gt;Node4</title>
<g id="a_edge19_Node000013_Node000004"><a xlink:title=" ">
<path fill="none" stroke="#63b8ff" d="M567.93,-269.65C511.67,-271.75 436.02,-275.56 369.5,-282.29 293.34,-289.99 206.76,-303.53 147.36,-313.56"/>
<polygon fill="#63b8ff" stroke="#63b8ff" points="567.9,-273.16 577.76,-269.3 567.64,-266.16 567.9,-273.16"/>
</a>
</g>
</g>
<!-- Node13&#45;&gt;Node6 -->
<g id="edge20_Node000013_Node000006" class="edge">
<title>Node13&#45;&gt;Node6</title>
<g id="a_edge20_Node000013_Node000006"><a xlink:title=" ">
<path fill="none" stroke="#63b8ff" d="M631.55,-287.6C610.34,-308.28 575.84,-340.83 543.75,-366.29 522.03,-383.53 495.51,-401.23 477.68,-412.69"/>
<polygon fill="#63b8ff" stroke="#63b8ff" points="633.75,-290.35 638.44,-280.84 628.85,-285.35 633.75,-290.35"/>
</a>
</g>
</g>
<!-- Node13&#45;&gt;Node7 -->
<g id="edge21_Node000013_Node000007" class="edge">
<title>Node13&#45;&gt;Node7</title>
<g id="a_edge21_Node000013_Node000007"><a xlink:title=" ">
<path fill="none" stroke="#63b8ff" d="M600.35,-283.86C593.29,-286.71 586.25,-289.86 579.75,-293.29 562.29,-302.5 561.44,-310.54 543.75,-319.29 533.11,-324.55 521.2,-328.98 509.7,-332.61"/>
<polygon fill="#63b8ff" stroke="#63b8ff" points="601.14,-287.31 609.23,-280.47 598.64,-280.77 601.14,-287.31"/>
</a>
</g>
</g>
<!-- Node13&#45;&gt;Node8 -->
<g id="edge22_Node000013_Node000008" class="edge">
<title>Node13&#45;&gt;Node8</title>
<g id="a_edge22_Node000013_Node000008"><a xlink:title=" ">
<path fill="none" stroke="#63b8ff" d="M640.58,-245.08C623.66,-214.44 589,-159.69 543.75,-130.29 538.06,-126.59 531.77,-123.51 525.28,-120.95"/>
<polygon fill="#63b8ff" stroke="#63b8ff" points="637.28,-246.34 645.1,-253.49 643.45,-243.03 637.28,-246.34"/>
</a>
</g>
</g>
<!-- Node13&#45;&gt;Node9 -->
<g id="edge24_Node000013_Node000009" class="edge">
<title>Node13&#45;&gt;Node9</title>
<g id="a_edge24_Node000013_Node000009"><a xlink:title=" ">
<path fill="none" stroke="#63b8ff" d="M616.28,-249.44C604.51,-243.31 591.44,-236.23 579.75,-229.29 563.22,-219.47 561.55,-212.56 543.75,-205.29 470.78,-175.5 437.72,-211.77 369.5,-172.29 348.22,-159.97 354.11,-143.7 333.5,-130.29 327.81,-126.59 321.48,-123.49 314.99,-120.9"/>
<polygon fill="#63b8ff" stroke="#63b8ff" points="614.39,-252.4 624.89,-253.87 617.6,-246.18 614.39,-252.4"/>
</a>
</g>
</g>
<!-- Node13&#45;&gt;Node11 -->
<g id="edge23_Node000013_Node000011" class="edge">
<title>Node13&#45;&gt;Node11</title>
<g id="a_edge23_Node000013_Node000011"><a xlink:title=" ">
<path fill="none" stroke="#63b8ff" d="M629.74,-246.96C603.76,-223.57 562.04,-187.13 543.75,-177.29 533.85,-171.96 522.7,-167.58 511.79,-164.02"/>
<polygon fill="#63b8ff" stroke="#63b8ff" points="627.32,-249.49 637.08,-253.61 632.01,-244.3 627.32,-249.49"/>
</a>
</g>
</g>
<!-- Node13&#45;&gt;Node12 -->
<g id="edge25_Node000013_Node000012" class="edge">
<title>Node13&#45;&gt;Node12</title>
<g id="a_edge25_Node000013_Node000012"><a xlink:title=" ">
<path fill="none" stroke="#63b8ff" d="M568.13,-254.39C511.14,-244.29 434.58,-228.11 369.5,-205.29 337.73,-194.15 303.23,-176.01 281.65,-163.87"/>
<polygon fill="#63b8ff" stroke="#63b8ff" points="567.32,-257.8 577.77,-256.07 568.52,-250.9 567.32,-257.8"/>
</a>
</g>
</g>
</g>
</svg>

<g id="navigator" transform="translate(0 0)" fill="#404254">
  <rect fill="#f2f5e9" fill-opacity="0.5" stroke="#606060" stroke-width=".5" x="0" y="0" width="60" height="60"/>
  <use id="zoomplus" xlink:href="#zoomPlus" x="17" y="9" onmousedown="handleZoom(evt,'in')"/>
  <use id="zoomminus" xlink:href="#zoomMin" x="42" y="9" onmousedown="handleZoom(evt,'out')"/>
  <use id="reset" xlink:href="#resetDef" x="30" y="36" onmousedown="handleReset()"/>
   <use id="arrowup" xlink:href="#arrowUp" x="0" y="0" onmousedown="handlePan(0,-1)"/>
  <use id="arrowright" xlink:href="#arrowRight" x="0" y="0" onmousedown="handlePan(1,0)"/>
  <use id="arrowdown" xlink:href="#arrowDown" x="0" y="0" onmousedown="handlePan(0,1)"/>
  <use id="arrowleft" xlink:href="#arrowLeft" x="0" y="0" onmousedown="handlePan(-1,0)"/>
</g>
<svg viewBox="0 0 15 15" width="100%" height="30px" preserveAspectRatio="xMaxYMin meet">
 <g id="arrow_out" transform="scale(0.3 0.3)">
  <a xlink:href="classWin32Service_a90b57824edafffaa0b1219b0ef7cc017_icgraph_org.svg" target="_base">
   <rect id="button" ry="5" rx="5" y="6" x="6" height="38" width="38"
        fill="#f2f5e9" fill-opacity="0.5" stroke="#606060" stroke-width="1.0"/>
   <path id="arrow"
     d="M 11.500037,31.436501 C 11.940474,20.09759 22.043105,11.32322 32.158766,21.979434 L 37.068811,17.246167 C 37.068811,17.246167 37.088388,32 37.088388,32 L 22.160133,31.978069 C 22.160133,31.978069 26.997745,27.140456 26.997745,27.140456 C 18.528582,18.264221 13.291696,25.230495 11.500037,31.436501 z"
     style="fill:#404040;"/>
  </a>
 </g>
</svg>

<style type='text/css'>
<![CDATA[
[data-mouse-over-selected='false'] { opacity: 0.7; }
[data-mouse-over-selected='true']  { opacity: 1.0; }
]]>
</style>
<script type="application/ecmascript"><![CDATA[
document.addEventListener('DOMContentLoaded', (event) => {
  highlightEdges();
  highlightAdjacentNodes();
});
]]></script>
</svg>
