<?xml version="1.0" encoding="UTF-8" standalone="no"?>
<!--
  - Copyright (c) 2021-2024 Bearsampp
  - License:  GNU General Public License version 3 or later; see LICENSE.txt
  - Author: Bear
  - Website: https://bearsampp.com
  - Github: https://github.com/Bearsampp
  -->

<!DOCTYPE svg PUBLIC "-//W3C//DTD SVG 1.1//EN"
 "http://www.w3.org/Graphics/SVG/1.1/DTD/svg11.dtd">
<!-- Generated by graphviz version 11.0.0 (20240428.1522)
 -->
<!-- Title: Win32Service\getErrorControl Pages: 1 -->
<svg width="577pt" height="33pt"
 viewBox="0.00 0.00 576.50 32.50" xmlns="http://www.w3.org/2000/svg" xmlns:xlink="http://www.w3.org/1999/xlink">
<g id="graph0" class="graph" transform="scale(1 1) rotate(0) translate(4 28.5)">
<title>Win32Service\getErrorControl</title>
<!-- Node1 -->
<g id="Node000001" class="node">
<title>Node1</title>
<g id="a_Node000001"><a xlink:title=" ">
<polygon fill="#999999" stroke="#666666" points="568.5,-24.5 362,-24.5 362,0 568.5,0 568.5,-24.5"/>
<text text-anchor="middle" x="465.25" y="-7.2" font-family="Helvetica,sans-Serif" font-size="14.00">Win32Service\getErrorControl</text>
</a>
</g>
</g>
<!-- Node2 -->
<g id="Node000002" class="node">
<title>Node2</title>
<g id="a_Node000002"><a xlink:href="../../df/d28/classWin32Service.html#a0d671863c8ed9869297400110daef2c1" target="_top" xlink:title=" ">
<polygon fill="white" stroke="#666666" points="326,-24.5 177.25,-24.5 177.25,0 326,0 326,-24.5"/>
<text text-anchor="middle" x="251.62" y="-7.2" font-family="Helvetica,sans-Serif" font-size="14.00">Win32Service\create</text>
</a>
</g>
</g>
<!-- Node1&#45;&gt;Node2 -->
<g id="edge1_Node000001_Node000002" class="edge">
<title>Node1&#45;&gt;Node2</title>
<g id="a_edge1_Node000001_Node000002"><a xlink:title=" ">
<path fill="none" stroke="#63b8ff" d="M350.11,-12.25C342.04,-12.25 334.03,-12.25 326.28,-12.25"/>
<polygon fill="#63b8ff" stroke="#63b8ff" points="350.02,-15.75 360.02,-12.25 350.02,-8.75 350.02,-15.75"/>
</a>
</g>
</g>
<!-- Node3 -->
<g id="Node000003" class="node">
<title>Node3</title>
<g id="a_Node000003"><a xlink:href="../../df/d28/classWin32Service.html#ab2bdb25f7405e3bb9e5230fca1980747" target="_top" xlink:title=" ">
<polygon fill="white" stroke="#666666" points="141.25,-24.5 0,-24.5 0,0 141.25,0 141.25,-24.5"/>
<text text-anchor="middle" x="70.62" y="-7.2" font-family="Helvetica,sans-Serif" font-size="14.00">Win32Service\reset</text>
</a>
</g>
</g>
<!-- Node2&#45;&gt;Node3 -->
<g id="edge2_Node000002_Node000003" class="edge">
<title>Node2&#45;&gt;Node3</title>
<g id="a_edge2_Node000002_Node000003"><a xlink:title=" ">
<path fill="none" stroke="#63b8ff" d="M165.5,-12.25C157.48,-12.25 149.41,-12.25 141.55,-12.25"/>
<polygon fill="#63b8ff" stroke="#63b8ff" points="165.27,-15.75 175.27,-12.25 165.27,-8.75 165.27,-15.75"/>
</a>
</g>
</g>
</g>
</svg>
