<?xml version="1.0" encoding="UTF-8" standalone="no"?>
<!--
  - Copyright (c) 2021-2024 Bearsampp
  - License:  GNU General Public License version 3 or later; see LICENSE.txt
  - Author: Bear
  - Website: https://bearsampp.com
  - Github: https://github.com/Bearsampp
  -->

<!DOCTYPE svg PUBLIC "-//W3C//DTD SVG 1.1//EN"
 "http://www.w3.org/Graphics/SVG/1.1/DTD/svg11.dtd">
<!-- Generated by graphviz version 11.0.0 (20240428.1522)
 -->
<!-- Title: Win32Service\writeLog Pages: 1 -->
<svg width="751pt" height="275pt"
 viewBox="0.00 0.00 750.75 274.50" xmlns="http://www.w3.org/2000/svg" xmlns:xlink="http://www.w3.org/1999/xlink">
<g id="graph0" class="graph" transform="scale(1 1) rotate(0) translate(4 270.5)">
<title>Win32Service\writeLog</title>
<!-- Node1 -->
<g id="Node000001" class="node">
<title>Node1</title>
<g id="a_Node000001"><a xlink:title=" ">
<polygon fill="#999999" stroke="#666666" points="742.75,-147.5 579.75,-147.5 579.75,-123 742.75,-123 742.75,-147.5"/>
<text text-anchor="middle" x="661.25" y="-130.2" font-family="Helvetica,sans-Serif" font-size="14.00">Win32Service\writeLog</text>
</a>
</g>
</g>
<!-- Node2 -->
<g id="Node000002" class="node">
<title>Node2</title>
<g id="a_Node000002"><a xlink:href="../../df/d28/classWin32Service.html#a0d671863c8ed9869297400110daef2c1" target="_top" xlink:title=" ">
<polygon fill="white" stroke="#666666" points="333.5,-266.5 184.75,-266.5 184.75,-242 333.5,-242 333.5,-266.5"/>
<text text-anchor="middle" x="259.12" y="-249.2" font-family="Helvetica,sans-Serif" font-size="14.00">Win32Service\create</text>
</a>
</g>
</g>
<!-- Node1&#45;&gt;Node2 -->
<g id="edge1_Node000001_Node000002" class="edge">
<title>Node1&#45;&gt;Node2</title>
<g id="a_edge1_Node000001_Node000002"><a xlink:title=" ">
<path fill="none" stroke="#63b8ff" d="M643.39,-156.54C622.81,-180.75 585.52,-219.14 543.75,-236.25 476.52,-263.79 392.79,-265.61 333.79,-262.18"/>
<polygon fill="#63b8ff" stroke="#63b8ff" points="646.04,-158.83 649.72,-148.9 640.65,-154.37 646.04,-158.83"/>
</a>
</g>
</g>
<!-- Node4 -->
<g id="Node000004" class="node">
<title>Node4</title>
<g id="a_Node000004"><a xlink:href="../../df/d28/classWin32Service.html#a6a5213abbf17063a848a62a86feadee3" target="_top" xlink:title=" ">
<polygon fill="white" stroke="#666666" points="148.75,-187.5 0,-187.5 0,-163 148.75,-163 148.75,-187.5"/>
<text text-anchor="middle" x="74.38" y="-170.2" font-family="Helvetica,sans-Serif" font-size="14.00">Win32Service\delete</text>
</a>
</g>
</g>
<!-- Node1&#45;&gt;Node4 -->
<g id="edge3_Node000001_Node000004" class="edge">
<title>Node1&#45;&gt;Node4</title>
<g id="a_edge3_Node000001_Node000004"><a xlink:title=" ">
<path fill="none" stroke="#63b8ff" d="M587.84,-149.9C573.29,-152.39 558.08,-154.68 543.75,-156.25 404.81,-171.52 241.48,-174.85 149.03,-175.39"/>
<polygon fill="#63b8ff" stroke="#63b8ff" points="588.08,-153.41 597.32,-148.22 586.86,-146.52 588.08,-153.41"/>
</a>
</g>
</g>
<!-- Node5 -->
<g id="Node000005" class="node">
<title>Node5</title>
<g id="a_Node000005"><a xlink:href="../../df/d28/classWin32Service.html#a7650ae910abba1f4f3a53be0b05ba081" target="_top" xlink:title=" ">
<polygon fill="white" stroke="#666666" points="543,-227.5 370.25,-227.5 370.25,-203 543,-203 543,-227.5"/>
<text text-anchor="middle" x="456.62" y="-210.2" font-family="Helvetica,sans-Serif" font-size="14.00">Win32Service\isInstalled</text>
</a>
</g>
</g>
<!-- Node1&#45;&gt;Node5 -->
<g id="edge4_Node000001_Node000005" class="edge">
<title>Node1&#45;&gt;Node5</title>
<g id="a_edge4_Node000001_Node000005"><a xlink:title=" ">
<path fill="none" stroke="#63b8ff" d="M625.46,-152.95C602.59,-164.19 571.81,-178.57 543.75,-189.25 531.05,-194.08 517.04,-198.63 504.07,-202.54"/>
<polygon fill="#63b8ff" stroke="#63b8ff" points="626.93,-156.12 634.33,-148.54 623.82,-149.85 626.93,-156.12"/>
</a>
</g>
</g>
<!-- Node6 -->
<g id="Node000006" class="node">
<title>Node6</title>
<g id="a_Node000006"><a xlink:href="../../df/d28/classWin32Service.html#a48519a2f6fa88f4af9dd6bb9b6a58d9e" target="_top" xlink:title=" ">
<polygon fill="white" stroke="#666666" points="540.75,-147.5 372.5,-147.5 372.5,-123 540.75,-123 540.75,-147.5"/>
<text text-anchor="middle" x="456.62" y="-130.2" font-family="Helvetica,sans-Serif" font-size="14.00">Win32Service\isPaused</text>
</a>
</g>
</g>
<!-- Node1&#45;&gt;Node6 -->
<g id="edge7_Node000001_Node000006" class="edge">
<title>Node1&#45;&gt;Node6</title>
<g id="a_edge7_Node000001_Node000006"><a xlink:title=" ">
<path fill="none" stroke="#63b8ff" d="M568.01,-135.25C559.04,-135.25 549.98,-135.25 541.1,-135.25"/>
<polygon fill="#63b8ff" stroke="#63b8ff" points="567.78,-138.75 577.78,-135.25 567.78,-131.75 567.78,-138.75"/>
</a>
</g>
</g>
<!-- Node7 -->
<g id="Node000007" class="node">
<title>Node7</title>
<g id="a_Node000007"><a xlink:href="../../df/d28/classWin32Service.html#aa60257e9128e72448d91805cec359087" target="_top" xlink:title=" ">
<polygon fill="white" stroke="#666666" points="542.25,-24.5 371,-24.5 371,0 542.25,0 542.25,-24.5"/>
<text text-anchor="middle" x="456.62" y="-7.2" font-family="Helvetica,sans-Serif" font-size="14.00">Win32Service\isRunning</text>
</a>
</g>
</g>
<!-- Node1&#45;&gt;Node7 -->
<g id="edge8_Node000001_Node000007" class="edge">
<title>Node1&#45;&gt;Node7</title>
<g id="a_edge8_Node000001_Node000007"><a xlink:title=" ">
<path fill="none" stroke="#63b8ff" d="M641.76,-114.2C620.4,-91.19 583.11,-54.85 543.75,-34.25 536.78,-30.6 529.16,-27.53 521.44,-24.96"/>
<polygon fill="#63b8ff" stroke="#63b8ff" points="639.06,-116.43 648.38,-121.48 644.24,-111.72 639.06,-116.43"/>
</a>
</g>
</g>
<!-- Node10 -->
<g id="Node000010" class="node">
<title>Node10</title>
<g id="a_Node000010"><a xlink:href="../../df/d28/classWin32Service.html#ac734cf6d80fe657f62981941da65b963" target="_top" xlink:title=" ">
<polygon fill="white" stroke="#666666" points="543.75,-67.5 369.5,-67.5 369.5,-43 543.75,-43 543.75,-67.5"/>
<text text-anchor="middle" x="456.62" y="-50.2" font-family="Helvetica,sans-Serif" font-size="14.00">Win32Service\isStopped</text>
</a>
</g>
</g>
<!-- Node1&#45;&gt;Node10 -->
<g id="edge11_Node000001_Node000010" class="edge">
<title>Node1&#45;&gt;Node10</title>
<g id="a_edge11_Node000001_Node000010"><a xlink:title=" ">
<path fill="none" stroke="#63b8ff" d="M625.46,-117.55C602.59,-106.31 571.81,-91.93 543.75,-81.25 531.05,-76.42 517.04,-71.87 504.07,-67.96"/>
<polygon fill="#63b8ff" stroke="#63b8ff" points="623.82,-120.65 634.33,-121.96 626.93,-114.38 623.82,-120.65"/>
</a>
</g>
</g>
<!-- Node11 -->
<g id="Node000011" class="node">
<title>Node11</title>
<g id="a_Node000011"><a xlink:href="../../df/d28/classWin32Service.html#a09c364e5eaa7abf4b288b3f1a771a046" target="_top" xlink:title=" ">
<polygon fill="white" stroke="#666666" points="327.5,-87.5 190.75,-87.5 190.75,-63 327.5,-63 327.5,-87.5"/>
<text text-anchor="middle" x="259.12" y="-70.2" font-family="Helvetica,sans-Serif" font-size="14.00">Win32Service\stop</text>
</a>
</g>
</g>
<!-- Node1&#45;&gt;Node11 -->
<g id="edge15_Node000001_Node000011" class="edge">
<title>Node1&#45;&gt;Node11</title>
<g id="a_edge15_Node000001_Node000011"><a xlink:title=" ">
<path fill="none" stroke="#63b8ff" d="M580.95,-120.5C568.51,-118.32 555.79,-116.16 543.75,-114.25 470.12,-102.56 385.4,-91.18 327.86,-83.76"/>
<polygon fill="#63b8ff" stroke="#63b8ff" points="580.31,-123.94 590.77,-122.24 581.53,-117.05 580.31,-123.94"/>
</a>
</g>
</g>
<!-- Node3 -->
<g id="Node000003" class="node">
<title>Node3</title>
<g id="a_Node000003"><a xlink:href="../../df/d28/classWin32Service.html#ab2bdb25f7405e3bb9e5230fca1980747" target="_top" xlink:title=" ">
<polygon fill="white" stroke="#666666" points="145,-266.5 3.75,-266.5 3.75,-242 145,-242 145,-266.5"/>
<text text-anchor="middle" x="74.38" y="-249.2" font-family="Helvetica,sans-Serif" font-size="14.00">Win32Service\reset</text>
</a>
</g>
</g>
<!-- Node2&#45;&gt;Node3 -->
<g id="edge2_Node000002_Node000003" class="edge">
<title>Node2&#45;&gt;Node3</title>
<g id="a_edge2_Node000002_Node000003"><a xlink:title=" ">
<path fill="none" stroke="#63b8ff" d="M173.06,-254.25C163.77,-254.25 154.39,-254.25 145.31,-254.25"/>
<polygon fill="#63b8ff" stroke="#63b8ff" points="172.81,-257.75 182.81,-254.25 172.81,-250.75 172.81,-257.75"/>
</a>
</g>
</g>
<!-- Node5&#45;&gt;Node2 -->
<g id="edge5_Node000005_Node000002" class="edge">
<title>Node5&#45;&gt;Node2</title>
<g id="a_edge5_Node000005_Node000002"><a xlink:title=" ">
<path fill="none" stroke="#63b8ff" d="M380.68,-230.2C361.91,-233.95 341.95,-237.93 323.78,-241.55"/>
<polygon fill="#63b8ff" stroke="#63b8ff" points="381.28,-233.65 390.4,-228.26 379.91,-226.79 381.28,-233.65"/>
</a>
</g>
</g>
<!-- Node5&#45;&gt;Node4 -->
<g id="edge6_Node000005_Node000004" class="edge">
<title>Node5&#45;&gt;Node4</title>
<g id="a_edge6_Node000005_Node000004"><a xlink:title=" ">
<path fill="none" stroke="#63b8ff" d="M358.69,-206.69C307.02,-201.94 242.38,-195.7 184.75,-189.25 173.24,-187.96 161.06,-186.5 149.17,-185.02"/>
<polygon fill="#63b8ff" stroke="#63b8ff" points="358.07,-210.15 368.34,-207.58 358.7,-203.18 358.07,-210.15"/>
</a>
</g>
</g>
<!-- Node8 -->
<g id="Node000008" class="node">
<title>Node8</title>
<g id="a_Node000008"><a xlink:href="../../df/d28/classWin32Service.html#af0b7053399d4c44b3fff8a4d598a2d48" target="_top" xlink:title=" ">
<polygon fill="white" stroke="#666666" points="327.12,-34.5 191.12,-34.5 191.12,-10 327.12,-10 327.12,-34.5"/>
<text text-anchor="middle" x="259.12" y="-17.2" font-family="Helvetica,sans-Serif" font-size="14.00">Win32Service\start</text>
</a>
</g>
</g>
<!-- Node7&#45;&gt;Node8 -->
<g id="edge9_Node000007_Node000008" class="edge">
<title>Node7&#45;&gt;Node8</title>
<g id="a_edge9_Node000007_Node000008"><a xlink:title=" ">
<path fill="none" stroke="#63b8ff" d="M359.52,-17.17C348.73,-17.72 337.91,-18.27 327.6,-18.8"/>
<polygon fill="#63b8ff" stroke="#63b8ff" points="359.41,-20.68 369.22,-16.67 359.05,-13.69 359.41,-20.68"/>
</a>
</g>
</g>
<!-- Node9 -->
<g id="Node000009" class="node">
<title>Node9</title>
<g id="a_Node000009"><a xlink:href="../../df/d28/classWin32Service.html#a9bff7f1bfac7b2d0784d437c954b9eb5" target="_top" xlink:title=" ">
<polygon fill="white" stroke="#666666" points="148.75,-61.5 0,-61.5 0,-37 148.75,-37 148.75,-61.5"/>
<text text-anchor="middle" x="74.38" y="-44.2" font-family="Helvetica,sans-Serif" font-size="14.00">Win32Service\restart</text>
</a>
</g>
</g>
<!-- Node8&#45;&gt;Node9 -->
<g id="edge10_Node000008_Node000009" class="edge">
<title>Node8&#45;&gt;Node9</title>
<g id="a_edge10_Node000008_Node000009"><a xlink:title=" ">
<path fill="none" stroke="#63b8ff" d="M179.52,-33.86C169.38,-35.36 159.02,-36.89 148.96,-38.38"/>
<polygon fill="#63b8ff" stroke="#63b8ff" points="179.98,-37.33 189.36,-32.41 178.95,-30.41 179.98,-37.33"/>
</a>
</g>
</g>
<!-- Node10&#45;&gt;Node11 -->
<g id="edge12_Node000010_Node000011" class="edge">
<title>Node10&#45;&gt;Node11</title>
<g id="a_edge12_Node000010_Node000011"><a xlink:title=" ">
<path fill="none" stroke="#63b8ff" d="M357.67,-65.27C347.59,-66.3 337.52,-67.33 327.88,-68.32"/>
<polygon fill="#63b8ff" stroke="#63b8ff" points="357.92,-68.76 367.52,-64.26 357.21,-61.8 357.92,-68.76"/>
</a>
</g>
</g>
<!-- Node11&#45;&gt;Node4 -->
<g id="edge13_Node000011_Node000004" class="edge">
<title>Node11&#45;&gt;Node4</title>
<g id="a_edge13_Node000011_Node000004"><a xlink:title=" ">
<path fill="none" stroke="#63b8ff" d="M225.29,-93.22C188.78,-113.2 130.72,-144.97 98.62,-162.53"/>
<polygon fill="#63b8ff" stroke="#63b8ff" points="226.56,-96.51 233.65,-88.64 223.2,-90.37 226.56,-96.51"/>
</a>
</g>
</g>
<!-- Node11&#45;&gt;Node9 -->
<g id="edge14_Node000011_Node000009" class="edge">
<title>Node11&#45;&gt;Node9</title>
<g id="a_edge14_Node000011_Node000009"><a xlink:title=" ">
<path fill="none" stroke="#63b8ff" d="M179.2,-64.02C169.24,-62.6 159.07,-61.16 149.19,-59.75"/>
<polygon fill="#63b8ff" stroke="#63b8ff" points="178.44,-67.45 188.84,-65.39 179.43,-60.52 178.44,-67.45"/>
</a>
</g>
</g>
</g>
</svg>
