<?xml version="1.0" encoding="UTF-8" standalone="no"?>
<!--
  - Copyright (c) 2021-2024 Bearsampp
  - License:  GNU General Public License version 3 or later; see LICENSE.txt
  - Author: Bear
  - Website: https://bearsampp.com
  - Github: https://github.com/Bearsampp
  -->

<!DOCTYPE svg PUBLIC "-//W3C//DTD SVG 1.1//EN"
 "http://www.w3.org/Graphics/SVG/1.1/DTD/svg11.dtd">
<!-- Generated by graphviz version 11.0.0 (20240428.1522)
 -->
<!-- Title: TplAestan\getActionService Pages: 1 -->
<!--zoomable 564 -->

<svg id="main" version="1.1" xmlns="http://www.w3.org/2000/svg" xmlns:xlink="http://www.w3.org/1999/xlink" xml:space="preserve" onload="init(evt)">
<style type="text/css"><![CDATA[
.node, .edge {opacity: 0.7;}
.node.selected, .edge.selected {opacity: 1;}
.edge:hover path { stroke: red; }
.edge:hover polygon { stroke: red; fill: red; }
]]></style>

<defs>
  <circle id="rim" cx="0" cy="0" r="7"/>
  <circle id="rim2" cx="0" cy="0" r="3.5"/>
  <g id="zoomPlus">
    <use xlink:href="#rim" fill="#404040"><set attributeName="fill" to="#808080" begin="zoomplus.mouseover" end="zoomplus.mouseout"/></use>
    <path d="M-4,0h8M0,-4v8" fill="none" stroke="white" stroke-width="1.5" pointer-events="none"/>
  </g>
  <g id="zoomMin">
    <use xlink:href="#rim" fill="#404040"><set attributeName="fill" to="#808080" begin="zoomminus.mouseover" end="zoomminus.mouseout"/></use>
    <path d="M-4,0h8" fill="none" stroke="white" stroke-width="1.5" pointer-events="none"/>
  </g>
  <g id="arrowUp" transform="translate(30 24)">
    <use xlink:href="#rim"/>
    <path pointer-events="none" fill="none" stroke="white" stroke-width="1.5" d="M0,-3.0v7 M-2.5,-0.5L0,-3.0L2.5,-0.5"/>
  </g>
  <g id="arrowRight" transform="rotate(90) translate(36 -43)">
    <use xlink:href="#rim"/>
    <path pointer-events="none" fill="none" stroke="white" stroke-width="1.5" d="M0,-3.0v7 M-2.5,-0.5L0,-3.0L2.5,-0.5"/>
  </g>
  <g id="arrowDown" transform="rotate(180) translate(-30 -48)">
    <use xlink:href="#rim"/>
    <path pointer-events="none" fill="none" stroke="white" stroke-width="1.5" d="M0,-3.0v7 M-2.5,-0.5L0,-3.0L2.5,-0.5"/>
  </g>
  <g id="arrowLeft" transform="rotate(270) translate(-36 17)">
    <use xlink:href="#rim"/>
    <path pointer-events="none" fill="none" stroke="white" stroke-width="1.5" d="M0,-3.0v7 M-2.5,-0.5L0,-3.0L2.5,-0.5"/>
  </g>
  <g id="resetDef">
    <use xlink:href="#rim2" fill="#404040"><set attributeName="fill" to="#808080" begin="reset.mouseover" end="reset.mouseout"/></use>
  </g>
</defs>
<script type="application/ecmascript">
var viewWidth = 800;
var viewHeight = 564;
var sectionId = 'dynsection-0';
</script>
<script type="application/ecmascript" xlink:href="../../svg.min.js"/>
<svg id="graph" class="graph">
<g id="viewport">
<title>TplAestan\getActionService</title>
<!-- Node1 -->
<g id="Node000001" class="node">
<title>Node1</title>
<g id="a_Node000001"><a xlink:title=" ">
<polygon fill="#999999" stroke="#666666" points="792,-352.75 599.75,-352.75 599.75,-328.25 792,-328.25 792,-352.75"/>
<text text-anchor="middle" x="695.88" y="-335.45" font-family="Helvetica,sans-Serif" font-size="14.00">TplAestan\getActionService</text>
</a>
</g>
</g>
<!-- Node2 -->
<g id="Node000002" class="node">
<title>Node2</title>
<g id="a_Node000002"><a xlink:href="../../d1/d79/classTplAestan.html#a674d91d1f686bc441728bc9a3e7c083f" target="_top" xlink:title=" ">
<polygon fill="white" stroke="#666666" points="534.5,-556 342.25,-556 342.25,-515 534.5,-515 534.5,-556"/>
<text text-anchor="start" x="350.25" y="-538.7" font-family="Helvetica,sans-Serif" font-size="14.00">TplAestan\getActionService</text>
<text text-anchor="middle" x="438.38" y="-522.2" font-family="Helvetica,sans-Serif" font-size="14.00">Restart</text>
</a>
</g>
</g>
<!-- Node1&#45;&gt;Node2 -->
<g id="edge1_Node000001_Node000002" class="edge">
<title>Node1&#45;&gt;Node2</title>
<g id="a_edge1_Node000001_Node000002"><a xlink:title=" ">
<path fill="none" stroke="#63b8ff" d="M683.69,-362.86C664.41,-399.01 621.35,-469.93 563.75,-506.5 554.86,-512.14 544.98,-516.69 534.8,-520.36"/>
<polygon fill="#63b8ff" stroke="#63b8ff" points="686.7,-364.67 688.21,-354.18 680.49,-361.44 686.7,-364.67"/>
</a>
</g>
</g>
<!-- Node3 -->
<g id="Node000003" class="node">
<title>Node3</title>
<g id="a_Node000003"><a xlink:href="../../d1/d79/classTplAestan.html#ac80e3e830e11bcfeb3b78565e502721d" target="_top" xlink:title=" ">
<polygon fill="white" stroke="#666666" points="538.25,-497 338.5,-497 338.5,-456 538.25,-456 538.25,-497"/>
<text text-anchor="start" x="346.5" y="-479.7" font-family="Helvetica,sans-Serif" font-size="14.00">TplAestan\getActionServices</text>
<text text-anchor="middle" x="438.38" y="-463.2" font-family="Helvetica,sans-Serif" font-size="14.00">Close</text>
</a>
</g>
</g>
<!-- Node1&#45;&gt;Node3 -->
<g id="edge2_Node000001_Node000003" class="edge">
<title>Node1&#45;&gt;Node3</title>
<g id="a_edge2_Node000001_Node000003"><a xlink:title=" ">
<path fill="none" stroke="#63b8ff" d="M675.65,-361.11C651.75,-385.46 608.61,-425.46 563.75,-447.5 555.79,-451.41 547.28,-454.81 538.59,-457.76"/>
<polygon fill="#63b8ff" stroke="#63b8ff" points="678.08,-363.62 682.5,-353.99 673.04,-358.77 678.08,-363.62"/>
</a>
</g>
</g>
<!-- Node4 -->
<g id="Node000004" class="node">
<title>Node4</title>
<g id="a_Node000004"><a xlink:href="../../d1/d79/classTplAestan.html#a97a5c0465ebc3fe742fbe2afaf336a97" target="_top" xlink:title=" ">
<polygon fill="white" stroke="#666666" points="534.5,-438 342.25,-438 342.25,-397 534.5,-397 534.5,-438"/>
<text text-anchor="start" x="350.25" y="-420.7" font-family="Helvetica,sans-Serif" font-size="14.00">TplAestan\getActionService</text>
<text text-anchor="middle" x="438.38" y="-404.2" font-family="Helvetica,sans-Serif" font-size="14.00">Start</text>
</a>
</g>
</g>
<!-- Node1&#45;&gt;Node4 -->
<g id="edge3_Node000001_Node000004" class="edge">
<title>Node1&#45;&gt;Node4</title>
<g id="a_edge3_Node000001_Node000004"><a xlink:title=" ">
<path fill="none" stroke="#63b8ff" d="M651.84,-357.24C626.44,-366.8 593.52,-378.6 563.75,-387.5 553.22,-390.65 542.1,-393.7 531.03,-396.58"/>
<polygon fill="#63b8ff" stroke="#63b8ff" points="653.07,-360.52 661.18,-353.7 650.59,-353.98 653.07,-360.52"/>
</a>
</g>
</g>
<!-- Node5 -->
<g id="Node000005" class="node">
<title>Node5</title>
<g id="a_Node000005"><a xlink:href="../../d1/d79/classTplAestan.html#ab7bc94575c1025225b059f22bd957358" target="_top" xlink:title=" ">
<polygon fill="white" stroke="#666666" points="549.5,-378.75 327.25,-378.75 327.25,-354.25 549.5,-354.25 549.5,-378.75"/>
<text text-anchor="middle" x="438.38" y="-361.45" font-family="Helvetica,sans-Serif" font-size="14.00">TplAestan\getActionServiceStop</text>
</a>
</g>
</g>
<!-- Node1&#45;&gt;Node5 -->
<g id="edge4_Node000001_Node000005" class="edge">
<title>Node1&#45;&gt;Node5</title>
<g id="a_edge4_Node000001_Node000005"><a xlink:title=" ">
<path fill="none" stroke="#63b8ff" d="M588.29,-351.35C575.58,-352.64 562.58,-353.96 549.82,-355.26"/>
<polygon fill="#63b8ff" stroke="#63b8ff" points="588.27,-354.87 597.87,-350.37 587.56,-347.9 588.27,-354.87"/>
</a>
</g>
</g>
<!-- Node6 -->
<g id="Node000006" class="node">
<title>Node6</title>
<g id="a_Node000006"><a xlink:href="../../d1/d79/classTplAestan.html#a7fe42a36ffa5572ec59bba1e1761107a" target="_top" xlink:title=" ">
<polygon fill="white" stroke="#666666" points="548.75,-336 328,-336 328,-295 548.75,-295 548.75,-336"/>
<text text-anchor="start" x="336" y="-318.7" font-family="Helvetica,sans-Serif" font-size="14.00">TplAestan\getItemActionService</text>
<text text-anchor="middle" x="438.38" y="-302.2" font-family="Helvetica,sans-Serif" font-size="14.00">Restart</text>
</a>
</g>
</g>
<!-- Node1&#45;&gt;Node6 -->
<g id="edge5_Node000001_Node000006" class="edge">
<title>Node1&#45;&gt;Node6</title>
<g id="a_edge5_Node000001_Node000006"><a xlink:title=" ">
<path fill="none" stroke="#63b8ff" d="M588.09,-330.05C575.16,-328.79 561.93,-327.49 548.95,-326.22"/>
<polygon fill="#63b8ff" stroke="#63b8ff" points="587.57,-333.52 597.87,-331.01 588.25,-326.55 587.57,-333.52"/>
</a>
</g>
</g>
<!-- Node16 -->
<g id="Node000016" class="node">
<title>Node16</title>
<g id="a_Node000016"><a xlink:href="../../d1/d79/classTplAestan.html#a0059e27b5a619072b8c0dedab41d7f92" target="_top" xlink:title=" ">
<polygon fill="white" stroke="#666666" points="552.5,-175 324.25,-175 324.25,-134 552.5,-134 552.5,-175"/>
<text text-anchor="start" x="332.25" y="-157.7" font-family="Helvetica,sans-Serif" font-size="14.00">TplAestan\getItemActionServices</text>
<text text-anchor="middle" x="438.38" y="-141.2" font-family="Helvetica,sans-Serif" font-size="14.00">Close</text>
</a>
</g>
</g>
<!-- Node1&#45;&gt;Node16 -->
<g id="edge15_Node000001_Node000016" class="edge">
<title>Node1&#45;&gt;Node16</title>
<g id="a_edge15_Node000001_Node000016"><a xlink:title=" ">
<path fill="none" stroke="#63b8ff" d="M682.46,-318.09C662.24,-283.78 618.86,-218.61 563.75,-184.5 558.27,-181.11 552.44,-178.1 546.4,-175.44"/>
<polygon fill="#63b8ff" stroke="#63b8ff" points="679.42,-319.83 687.44,-326.76 685.49,-316.34 679.42,-319.83"/>
</a>
</g>
</g>
<!-- Node17 -->
<g id="Node000017" class="node">
<title>Node17</title>
<g id="a_Node000017"><a xlink:href="../../d1/d79/classTplAestan.html#a597f4a0847695327316f983218fb399a" target="_top" xlink:title=" ">
<polygon fill="white" stroke="#666666" points="548.75,-277 328,-277 328,-236 548.75,-236 548.75,-277"/>
<text text-anchor="start" x="336" y="-259.7" font-family="Helvetica,sans-Serif" font-size="14.00">TplAestan\getItemActionService</text>
<text text-anchor="middle" x="438.38" y="-243.2" font-family="Helvetica,sans-Serif" font-size="14.00">Start</text>
</a>
</g>
</g>
<!-- Node1&#45;&gt;Node17 -->
<g id="edge16_Node000001_Node000017" class="edge">
<title>Node1&#45;&gt;Node17</title>
<g id="a_edge16_Node000001_Node000017"><a xlink:title=" ">
<path fill="none" stroke="#63b8ff" d="M657.23,-323.18C631.32,-311.72 595.92,-296.94 563.75,-286.5 553.93,-283.31 543.57,-280.29 533.19,-277.49"/>
<polygon fill="#63b8ff" stroke="#63b8ff" points="655.77,-326.37 666.33,-327.25 658.63,-319.98 655.77,-326.37"/>
</a>
</g>
</g>
<!-- Node18 -->
<g id="Node000018" class="node">
<title>Node18</title>
<g id="a_Node000018"><a xlink:href="../../d1/d79/classTplAestan.html#a3a420a3b5ffbda57e6d2e297127d4a86" target="_top" xlink:title=" ">
<polygon fill="white" stroke="#666666" points="563.75,-217.75 313,-217.75 313,-193.25 563.75,-193.25 563.75,-217.75"/>
<text text-anchor="middle" x="438.38" y="-200.45" font-family="Helvetica,sans-Serif" font-size="14.00">TplAestan\getItemActionServiceStop</text>
</a>
</g>
</g>
<!-- Node1&#45;&gt;Node18 -->
<g id="edge26_Node000001_Node000018" class="edge">
<title>Node1&#45;&gt;Node18</title>
<g id="a_edge26_Node000001_Node000018"><a xlink:title=" ">
<path fill="none" stroke="#63b8ff" d="M677.13,-319.44C653.91,-293.38 610.62,-249.75 563.75,-227.5 556.02,-223.83 547.77,-220.77 539.32,-218.22"/>
<polygon fill="#63b8ff" stroke="#63b8ff" points="674.27,-321.48 683.48,-326.72 679.54,-316.88 674.27,-321.48"/>
</a>
</g>
</g>
<!-- Node7 -->
<g id="Node000007" class="node">
<title>Node7</title>
<g id="a_Node000007"><a xlink:href="../../d9/d51/classTplAppApache.html#a2f3f97f1fc8f704526200be781758eec" target="_top" xlink:title=" ">
<polygon fill="white" stroke="#666666" points="247.75,-159 29.25,-159 29.25,-118 247.75,-118 247.75,-159"/>
<text text-anchor="start" x="37.25" y="-141.7" font-family="Helvetica,sans-Serif" font-size="14.00">TplAppApache\getMenuApache</text>
<text text-anchor="middle" x="138.5" y="-125.2" font-family="Helvetica,sans-Serif" font-size="14.00">Service</text>
</a>
</g>
</g>
<!-- Node6&#45;&gt;Node7 -->
<g id="edge6_Node000006_Node000007" class="edge">
<title>Node6&#45;&gt;Node7</title>
<g id="a_edge6_Node000006_Node000007"><a xlink:title=" ">
<path fill="none" stroke="#63b8ff" d="M318.2,-290.95C316.41,-289.54 314.67,-288.06 313,-286.5 272.95,-249.05 317.31,-205.66 277,-168.5 268.56,-160.72 258.58,-154.78 247.91,-150.27"/>
<polygon fill="#63b8ff" stroke="#63b8ff" points="316.16,-293.79 326.39,-296.53 320.1,-288.01 316.16,-293.79"/>
</a>
</g>
</g>
<!-- Node8 -->
<g id="Node000008" class="node">
<title>Node8</title>
<g id="a_Node000008"><a xlink:href="../../d0/d23/classTplAppFilezilla.html#a89f9b4439470e541b663fd23c641a352" target="_top" xlink:title=" ">
<polygon fill="white" stroke="#666666" points="245.5,-100 31.5,-100 31.5,-59 245.5,-59 245.5,-100"/>
<text text-anchor="start" x="39.5" y="-82.7" font-family="Helvetica,sans-Serif" font-size="14.00">TplAppFilezilla\getMenuFilezilla</text>
<text text-anchor="middle" x="138.5" y="-66.2" font-family="Helvetica,sans-Serif" font-size="14.00">Service</text>
</a>
</g>
</g>
<!-- Node6&#45;&gt;Node8 -->
<g id="edge7_Node000006_Node000008" class="edge">
<title>Node6&#45;&gt;Node8</title>
<g id="a_edge7_Node000006_Node000008"><a xlink:title=" ">
<path fill="none" stroke="#63b8ff" d="M318.63,-291.71C316.67,-290.08 314.79,-288.34 313,-286.5 256.78,-228.59 333.84,-165.81 277,-108.5 268.24,-99.67 257.51,-93.2 245.95,-88.51"/>
<polygon fill="#63b8ff" stroke="#63b8ff" points="316.32,-294.36 326.48,-297.36 320.41,-288.68 316.32,-294.36"/>
</a>
</g>
</g>
<!-- Node9 -->
<g id="Node000009" class="node">
<title>Node9</title>
<g id="a_Node000009"><a xlink:href="../../d4/d8a/classTplAppMailhog.html#a5ba72143a30f15dad27bcc703da4d97e" target="_top" xlink:title=" ">
<polygon fill="white" stroke="#666666" points="247.75,-41 29.25,-41 29.25,0 247.75,0 247.75,-41"/>
<text text-anchor="start" x="37.25" y="-23.7" font-family="Helvetica,sans-Serif" font-size="14.00">TplAppMailhog\getMenuMailhog</text>
<text text-anchor="middle" x="138.5" y="-7.2" font-family="Helvetica,sans-Serif" font-size="14.00">Service</text>
</a>
</g>
</g>
<!-- Node6&#45;&gt;Node9 -->
<g id="edge8_Node000006_Node000009" class="edge">
<title>Node6&#45;&gt;Node9</title>
<g id="a_edge8_Node000006_Node000009"><a xlink:title=" ">
<path fill="none" stroke="#63b8ff" d="M318.61,-291.92C316.65,-290.22 314.77,-288.42 313,-286.5 240.67,-208.27 350.15,-126.96 277,-49.5 268.88,-40.9 258.89,-34.51 248.05,-29.82"/>
<polygon fill="#63b8ff" stroke="#63b8ff" points="316.39,-294.63 326.51,-297.77 320.56,-289 316.39,-294.63"/>
</a>
</g>
</g>
<!-- Node10 -->
<g id="Node000010" class="node">
<title>Node10</title>
<g id="a_Node000010"><a xlink:href="../../d8/dd3/classTplAppMailpit.html#a6ac3b9462d198c5ab2b215ec1fbb7ebe" target="_top" xlink:title=" ">
<polygon fill="white" stroke="#666666" points="238.75,-513 38.25,-513 38.25,-472 238.75,-472 238.75,-513"/>
<text text-anchor="start" x="46.25" y="-495.7" font-family="Helvetica,sans-Serif" font-size="14.00">TplAppMailpit\getMenuMailpit</text>
<text text-anchor="middle" x="138.5" y="-479.2" font-family="Helvetica,sans-Serif" font-size="14.00">Service</text>
</a>
</g>
</g>
<!-- Node6&#45;&gt;Node10 -->
<g id="edge9_Node000006_Node000010" class="edge">
<title>Node6&#45;&gt;Node10</title>
<g id="a_edge9_Node000006_Node000010"><a xlink:title=" ">
<path fill="none" stroke="#63b8ff" d="M318.2,-341.02C316.4,-342.44 314.67,-343.93 313,-345.5 273.09,-383.1 317.44,-426.48 277,-463.5 266.29,-473.3 253.14,-480.11 239.24,-484.8"/>
<polygon fill="#63b8ff" stroke="#63b8ff" points="320.13,-343.94 326.38,-335.38 316.16,-338.17 320.13,-343.94"/>
</a>
</g>
</g>
<!-- Node11 -->
<g id="Node000011" class="node">
<title>Node11</title>
<g id="a_Node000011"><a xlink:href="../../d4/de1/classTplAppMariadb.html#a2c6a44257c87226af4b314640f693215" target="_top" xlink:title=" ">
<polygon fill="white" stroke="#666666" points="249.25,-454 27.75,-454 27.75,-413 249.25,-413 249.25,-454"/>
<text text-anchor="start" x="35.75" y="-436.7" font-family="Helvetica,sans-Serif" font-size="14.00">TplAppMariadb\getMenuMariadb</text>
<text text-anchor="middle" x="138.5" y="-420.2" font-family="Helvetica,sans-Serif" font-size="14.00">Service</text>
</a>
</g>
</g>
<!-- Node6&#45;&gt;Node11 -->
<g id="edge10_Node000006_Node000011" class="edge">
<title>Node6&#45;&gt;Node11</title>
<g id="a_edge10_Node000006_Node000011"><a xlink:title=" ">
<path fill="none" stroke="#63b8ff" d="M317.93,-342.13C316.25,-343.21 314.6,-344.33 313,-345.5 288.18,-363.59 302.08,-386.77 277,-404.5 268.63,-410.42 259.31,-415.17 249.57,-418.99"/>
<polygon fill="#63b8ff" stroke="#63b8ff" points="319.65,-345.17 326.58,-337.15 316.16,-339.1 319.65,-345.17"/>
</a>
</g>
</g>
<!-- Node12 -->
<g id="Node000012" class="node">
<title>Node12</title>
<g id="a_Node000012"><a xlink:href="../../d8/dff/classTplAppMemcached.html#abf57b9dc7416e6dea3d0639f71dc0b73" target="_top" xlink:title=" ">
<polygon fill="white" stroke="#666666" points="277,-395 0,-395 0,-354 277,-354 277,-395"/>
<text text-anchor="start" x="8" y="-377.7" font-family="Helvetica,sans-Serif" font-size="14.00">TplAppMemcached\getMenuMemcached</text>
<text text-anchor="middle" x="138.5" y="-361.2" font-family="Helvetica,sans-Serif" font-size="14.00">Service</text>
</a>
</g>
</g>
<!-- Node6&#45;&gt;Node12 -->
<g id="edge11_Node000006_Node000012" class="edge">
<title>Node6&#45;&gt;Node12</title>
<g id="a_edge11_Node000006_Node000012"><a xlink:title=" ">
<path fill="none" stroke="#63b8ff" d="M320.28,-338.69C295.62,-343.58 269.74,-348.7 245.52,-353.5"/>
<polygon fill="#63b8ff" stroke="#63b8ff" points="320.9,-342.14 330.03,-336.76 319.54,-335.27 320.9,-342.14"/>
</a>
</g>
</g>
<!-- Node13 -->
<g id="Node000013" class="node">
<title>Node13</title>
<g id="a_Node000013"><a xlink:href="../../d6/d19/classTplAppMysql.html#a1514c87f9ff4a5a4e042c8b6aafc957c" target="_top" xlink:title=" ">
<polygon fill="white" stroke="#666666" points="235.75,-336 41.25,-336 41.25,-295 235.75,-295 235.75,-336"/>
<text text-anchor="start" x="49.25" y="-318.7" font-family="Helvetica,sans-Serif" font-size="14.00">TplAppMysql\getMenuMysql</text>
<text text-anchor="middle" x="138.5" y="-302.2" font-family="Helvetica,sans-Serif" font-size="14.00">Service</text>
</a>
</g>
</g>
<!-- Node6&#45;&gt;Node13 -->
<g id="edge12_Node000006_Node000013" class="edge">
<title>Node6&#45;&gt;Node13</title>
<g id="a_edge12_Node000006_Node000013"><a xlink:title=" ">
<path fill="none" stroke="#63b8ff" d="M316.37,-315.5C289.67,-315.5 261.73,-315.5 236.14,-315.5"/>
<polygon fill="#63b8ff" stroke="#63b8ff" points="316.21,-319 326.21,-315.5 316.21,-312 316.21,-319"/>
</a>
</g>
</g>
<!-- Node14 -->
<g id="Node000014" class="node">
<title>Node14</title>
<g id="a_Node000014"><a xlink:href="../../d3/d1b/classTplAppPostgresql.html#aa8d1826905ca5f8d880a9cebe58ca223" target="_top" xlink:title=" ">
<polygon fill="white" stroke="#666666" points="233.5,-277 43.5,-277 43.5,-236 233.5,-236 233.5,-277"/>
<text text-anchor="start" x="51.5" y="-259.7" font-family="Helvetica,sans-Serif" font-size="14.00">TplAppPostgresql\getMenu</text>
<text text-anchor="middle" x="138.5" y="-243.2" font-family="Helvetica,sans-Serif" font-size="14.00">PostgresqlService</text>
</a>
</g>
</g>
<!-- Node6&#45;&gt;Node14 -->
<g id="edge13_Node000006_Node000014" class="edge">
<title>Node6&#45;&gt;Node14</title>
<g id="a_edge13_Node000006_Node000014"><a xlink:title=" ">
<path fill="none" stroke="#63b8ff" d="M320.56,-292.36C291.73,-286.65 261.22,-280.61 233.62,-275.14"/>
<polygon fill="#63b8ff" stroke="#63b8ff" points="319.54,-295.73 330.03,-294.24 320.9,-288.86 319.54,-295.73"/>
</a>
</g>
</g>
<!-- Node15 -->
<g id="Node000015" class="node">
<title>Node15</title>
<g id="a_Node000015"><a xlink:href="../../dc/d83/classTplAppXlight.html#ae864a091d96295893e91db73a0dd3188" target="_top" xlink:title=" ">
<polygon fill="white" stroke="#666666" points="234.25,-218 42.75,-218 42.75,-177 234.25,-177 234.25,-218"/>
<text text-anchor="start" x="50.75" y="-200.7" font-family="Helvetica,sans-Serif" font-size="14.00">TplAppXlight\getMenuXlight</text>
<text text-anchor="middle" x="138.5" y="-184.2" font-family="Helvetica,sans-Serif" font-size="14.00">Service</text>
</a>
</g>
</g>
<!-- Node6&#45;&gt;Node15 -->
<g id="edge14_Node000006_Node000015" class="edge">
<title>Node6&#45;&gt;Node15</title>
<g id="a_edge14_Node000006_Node000015"><a xlink:title=" ">
<path fill="none" stroke="#63b8ff" d="M317.83,-289.79C316.19,-288.73 314.57,-287.64 313,-286.5 288.11,-268.5 302.02,-245.32 277,-227.5 264.46,-218.57 249.77,-212.22 234.74,-207.72"/>
<polygon fill="#63b8ff" stroke="#63b8ff" points="315.87,-292.69 326.29,-294.61 319.34,-286.61 315.87,-292.69"/>
</a>
</g>
</g>
<!-- Node17&#45;&gt;Node7 -->
<g id="edge17_Node000017_Node000007" class="edge">
<title>Node17&#45;&gt;Node7</title>
<g id="a_edge17_Node000017_Node000007"><a xlink:title=" ">
<path fill="none" stroke="#63b8ff" d="M317.94,-229.86C316.26,-228.78 314.61,-227.66 313,-226.5 288.41,-208.72 301.78,-186.01 277,-168.5 268.22,-162.3 258.4,-157.34 248.15,-153.38"/>
<polygon fill="#63b8ff" stroke="#63b8ff" points="316.19,-232.89 326.61,-234.81 319.66,-226.81 316.19,-232.89"/>
</a>
</g>
</g>
<!-- Node17&#45;&gt;Node8 -->
<g id="edge18_Node000017_Node000008" class="edge">
<title>Node17&#45;&gt;Node8</title>
<g id="a_edge18_Node000017_Node000008"><a xlink:title=" ">
<path fill="none" stroke="#63b8ff" d="M318.2,-230.98C316.4,-229.56 314.67,-228.07 313,-226.5 273.09,-188.9 317.44,-145.52 277,-108.5 268,-100.26 257.27,-94.14 245.83,-89.61"/>
<polygon fill="#63b8ff" stroke="#63b8ff" points="316.16,-233.83 326.38,-236.62 320.13,-228.06 316.16,-233.83"/>
</a>
</g>
</g>
<!-- Node17&#45;&gt;Node9 -->
<g id="edge19_Node000017_Node000009" class="edge">
<title>Node17&#45;&gt;Node9</title>
<g id="a_edge19_Node000017_Node000009"><a xlink:title=" ">
<path fill="none" stroke="#63b8ff" d="M318.62,-231.74C316.66,-230.1 314.79,-228.35 313,-226.5 257.27,-168.72 333.56,-106.47 277,-49.5 268.75,-41.19 258.76,-34.98 247.97,-30.37"/>
<polygon fill="#63b8ff" stroke="#63b8ff" points="316.32,-234.39 326.47,-237.44 320.43,-228.73 316.32,-234.39"/>
</a>
</g>
</g>
<!-- Node17&#45;&gt;Node10 -->
<g id="edge20_Node000017_Node000010" class="edge">
<title>Node17&#45;&gt;Node10</title>
<g id="a_edge20_Node000017_Node000010"><a xlink:title=" ">
<path fill="none" stroke="#63b8ff" d="M318.62,-281.26C316.66,-282.9 314.79,-284.65 313,-286.5 257.27,-344.28 333.56,-406.53 277,-463.5 266.51,-474.06 253.22,-481.24 239.05,-486.04"/>
<polygon fill="#63b8ff" stroke="#63b8ff" points="320.43,-284.27 326.47,-275.56 316.32,-278.61 320.43,-284.27"/>
</a>
</g>
</g>
<!-- Node17&#45;&gt;Node11 -->
<g id="edge21_Node000017_Node000011" class="edge">
<title>Node17&#45;&gt;Node11</title>
<g id="a_edge21_Node000017_Node000011"><a xlink:title=" ">
<path fill="none" stroke="#63b8ff" d="M318.2,-282.02C316.4,-283.44 314.67,-284.93 313,-286.5 273.09,-324.1 317.44,-367.48 277,-404.5 268.99,-411.83 259.61,-417.49 249.58,-421.83"/>
<polygon fill="#63b8ff" stroke="#63b8ff" points="320.13,-284.94 326.38,-276.38 316.16,-279.17 320.13,-284.94"/>
</a>
</g>
</g>
<!-- Node17&#45;&gt;Node12 -->
<g id="edge22_Node000017_Node000012" class="edge">
<title>Node17&#45;&gt;Node12</title>
<g id="a_edge22_Node000017_Node000012"><a xlink:title=" ">
<path fill="none" stroke="#63b8ff" d="M317.93,-283.13C316.25,-284.21 314.6,-285.33 313,-286.5 288.18,-304.59 302.08,-327.77 277,-345.5 272.82,-348.46 268.39,-351.13 263.8,-353.53"/>
<polygon fill="#63b8ff" stroke="#63b8ff" points="319.65,-286.17 326.58,-278.15 316.16,-280.1 319.65,-286.17"/>
</a>
</g>
</g>
<!-- Node17&#45;&gt;Node13 -->
<g id="edge23_Node000017_Node000013" class="edge">
<title>Node17&#45;&gt;Node13</title>
<g id="a_edge23_Node000017_Node000013"><a xlink:title=" ">
<path fill="none" stroke="#63b8ff" d="M320.48,-279.65C292.53,-285.19 262.99,-291.04 236.08,-296.37"/>
<polygon fill="#63b8ff" stroke="#63b8ff" points="320.9,-283.14 330.03,-277.76 319.54,-276.27 320.9,-283.14"/>
</a>
</g>
</g>
<!-- Node17&#45;&gt;Node14 -->
<g id="edge24_Node000017_Node000014" class="edge">
<title>Node17&#45;&gt;Node14</title>
<g id="a_edge24_Node000017_Node000014"><a xlink:title=" ">
<path fill="none" stroke="#63b8ff" d="M316.42,-256.5C288.86,-256.5 259.98,-256.5 233.73,-256.5"/>
<polygon fill="#63b8ff" stroke="#63b8ff" points="316.21,-260 326.21,-256.5 316.21,-253 316.21,-260"/>
</a>
</g>
</g>
<!-- Node17&#45;&gt;Node15 -->
<g id="edge25_Node000017_Node000015" class="edge">
<title>Node17&#45;&gt;Node15</title>
<g id="a_edge25_Node000017_Node000015"><a xlink:title=" ">
<path fill="none" stroke="#63b8ff" d="M320.3,-233.31C291.89,-227.68 261.86,-221.74 234.6,-216.34"/>
<polygon fill="#63b8ff" stroke="#63b8ff" points="319.54,-236.73 330.03,-235.24 320.9,-229.86 319.54,-236.73"/>
</a>
</g>
</g>
<!-- Node18&#45;&gt;Node7 -->
<g id="edge27_Node000018_Node000007" class="edge">
<title>Node18&#45;&gt;Node7</title>
<g id="a_edge27_Node000018_Node000007"><a xlink:title=" ">
<path fill="none" stroke="#63b8ff" d="M335.03,-190.35C327.53,-188.59 320.11,-186.64 313,-184.5 296.24,-179.45 293.64,-173.95 277,-168.5 267.02,-165.23 256.51,-162.21 245.93,-159.45"/>
<polygon fill="#63b8ff" stroke="#63b8ff" points="334.08,-193.72 344.6,-192.47 335.6,-186.89 334.08,-193.72"/>
</a>
</g>
</g>
<!-- Node18&#45;&gt;Node8 -->
<g id="edge28_Node000018_Node000008" class="edge">
<title>Node18&#45;&gt;Node8</title>
<g id="a_edge28_Node000018_Node000008"><a xlink:title=" ">
<path fill="none" stroke="#63b8ff" d="M316.61,-187.08C315.38,-186.25 314.18,-185.39 313,-184.5 283.2,-161.94 306.34,-131.66 277,-108.5 267.71,-101.17 257.01,-95.58 245.76,-91.32"/>
<polygon fill="#63b8ff" stroke="#63b8ff" points="314.7,-190.02 325.09,-192.07 318.25,-183.98 314.7,-190.02"/>
</a>
</g>
</g>
<!-- Node18&#45;&gt;Node9 -->
<g id="edge29_Node000018_Node000009" class="edge">
<title>Node18&#45;&gt;Node9</title>
<g id="a_edge29_Node000018_Node000009"><a xlink:title=" ">
<path fill="none" stroke="#63b8ff" d="M314.99,-186.24C314.32,-185.68 313.65,-185.09 313,-184.5 267.09,-142.69 322.05,-92.24 277,-49.5 268.68,-41.61 258.78,-35.64 248.16,-31.15"/>
<polygon fill="#63b8ff" stroke="#63b8ff" points="312.86,-189.02 323.02,-192.02 316.94,-183.34 312.86,-189.02"/>
</a>
</g>
</g>
<!-- Node18&#45;&gt;Node10 -->
<g id="edge30_Node000018_Node000010" class="edge">
<title>Node18&#45;&gt;Node10</title>
<g id="a_edge30_Node000018_Node000010"><a xlink:title=" ">
<path fill="none" stroke="#63b8ff" d="M315.31,-225.25C314.53,-225.98 313.75,-226.73 313,-227.5 238.87,-303.41 349.88,-386.39 277,-463.5 266.69,-474.4 253.4,-481.74 239.16,-486.6"/>
<polygon fill="#63b8ff" stroke="#63b8ff" points="317.4,-228.06 323.12,-219.14 313.09,-222.54 317.4,-228.06"/>
</a>
</g>
</g>
<!-- Node18&#45;&gt;Node11 -->
<g id="edge31_Node000018_Node000011" class="edge">
<title>Node18&#45;&gt;Node11</title>
<g id="a_edge31_Node000018_Node000011"><a xlink:title=" ">
<path fill="none" stroke="#63b8ff" d="M315.84,-224.89C314.87,-225.73 313.92,-226.6 313,-227.5 255.51,-283.53 333.56,-347.53 277,-404.5 269.18,-412.38 259.79,-418.37 249.65,-422.9"/>
<polygon fill="#63b8ff" stroke="#63b8ff" points="317.89,-227.72 323.86,-218.98 313.74,-222.09 317.89,-227.72"/>
</a>
</g>
</g>
<!-- Node18&#45;&gt;Node12 -->
<g id="edge32_Node000018_Node000012" class="edge">
<title>Node18&#45;&gt;Node12</title>
<g id="a_edge32_Node000018_Node000012"><a xlink:title=" ">
<path fill="none" stroke="#63b8ff" d="M316.88,-224.3C315.55,-225.32 314.26,-226.39 313,-227.5 271.95,-263.86 317.44,-308.48 277,-345.5 273.76,-348.47 270.3,-351.16 266.66,-353.6"/>
<polygon fill="#63b8ff" stroke="#63b8ff" points="318.41,-227.48 324.8,-219.03 314.54,-221.65 318.41,-227.48"/>
</a>
</g>
</g>
<!-- Node18&#45;&gt;Node13 -->
<g id="edge33_Node000018_Node000013" class="edge">
<title>Node18&#45;&gt;Node13</title>
<g id="a_edge33_Node000018_Node000013"><a xlink:title=" ">
<path fill="none" stroke="#63b8ff" d="M319.97,-223.17C317.58,-224.52 315.25,-225.96 313,-227.5 287.63,-244.82 302.08,-268.77 277,-286.5 264.85,-295.09 250.68,-301.23 236.15,-305.61"/>
<polygon fill="#63b8ff" stroke="#63b8ff" points="321.37,-226.39 328.77,-218.8 318.25,-220.12 321.37,-226.39"/>
</a>
</g>
</g>
<!-- Node18&#45;&gt;Node14 -->
<g id="edge34_Node000018_Node000014" class="edge">
<title>Node18&#45;&gt;Node14</title>
<g id="a_edge34_Node000018_Node000014"><a xlink:title=" ">
<path fill="none" stroke="#63b8ff" d="M351.74,-220.16C314.85,-226.48 271.59,-233.88 233.78,-240.36"/>
<polygon fill="#63b8ff" stroke="#63b8ff" points="352.22,-223.63 361.49,-218.49 351.04,-216.73 352.22,-223.63"/>
</a>
</g>
</g>
<!-- Node18&#45;&gt;Node15 -->
<g id="edge35_Node000018_Node000015" class="edge">
<title>Node18&#45;&gt;Node15</title>
<g id="a_edge35_Node000018_Node000015"><a xlink:title=" ">
<path fill="none" stroke="#63b8ff" d="M301.38,-201.85C278.82,-201.24 255.86,-200.63 234.59,-200.05"/>
<polygon fill="#63b8ff" stroke="#63b8ff" points="301.17,-205.34 311.26,-202.11 301.36,-198.35 301.17,-205.34"/>
</a>
</g>
</g>
</g>
</svg>

<g id="navigator" transform="translate(0 0)" fill="#404254">
  <rect fill="#f2f5e9" fill-opacity="0.5" stroke="#606060" stroke-width=".5" x="0" y="0" width="60" height="60"/>
  <use id="zoomplus" xlink:href="#zoomPlus" x="17" y="9" onmousedown="handleZoom(evt,'in')"/>
  <use id="zoomminus" xlink:href="#zoomMin" x="42" y="9" onmousedown="handleZoom(evt,'out')"/>
  <use id="reset" xlink:href="#resetDef" x="30" y="36" onmousedown="handleReset()"/>
   <use id="arrowup" xlink:href="#arrowUp" x="0" y="0" onmousedown="handlePan(0,-1)"/>
  <use id="arrowright" xlink:href="#arrowRight" x="0" y="0" onmousedown="handlePan(1,0)"/>
  <use id="arrowdown" xlink:href="#arrowDown" x="0" y="0" onmousedown="handlePan(0,1)"/>
  <use id="arrowleft" xlink:href="#arrowLeft" x="0" y="0" onmousedown="handlePan(-1,0)"/>
</g>
<svg viewBox="0 0 15 15" width="100%" height="30px" preserveAspectRatio="xMaxYMin meet">
 <g id="arrow_out" transform="scale(0.3 0.3)">
  <a xlink:href="classTplAestan_a55a87e9605a0794c95fb1052f962b1bd_icgraph_org.svg" target="_base">
   <rect id="button" ry="5" rx="5" y="6" x="6" height="38" width="38"
        fill="#f2f5e9" fill-opacity="0.5" stroke="#606060" stroke-width="1.0"/>
   <path id="arrow"
     d="M 11.500037,31.436501 C 11.940474,20.09759 22.043105,11.32322 32.158766,21.979434 L 37.068811,17.246167 C 37.068811,17.246167 37.088388,32 37.088388,32 L 22.160133,31.978069 C 22.160133,31.978069 26.997745,27.140456 26.997745,27.140456 C 18.528582,18.264221 13.291696,25.230495 11.500037,31.436501 z"
     style="fill:#404040;"/>
  </a>
 </g>
</svg>

<style type='text/css'>
<![CDATA[
[data-mouse-over-selected='false'] { opacity: 0.7; }
[data-mouse-over-selected='true']  { opacity: 1.0; }
]]>
</style>
<script type="application/ecmascript"><![CDATA[
document.addEventListener('DOMContentLoaded', (event) => {
  highlightEdges();
  highlightAdjacentNodes();
});
]]></script>
</svg>
