<?xml version="1.0" encoding="UTF-8" standalone="no"?>
<!--
  - Copyright (c) 2021-2024 Bearsampp
  - License:  GNU General Public License version 3 or later; see LICENSE.txt
  - Author: Bear
  - Website: https://bearsampp.com
  - Github: https://github.com/Bearsampp
  -->

<!DOCTYPE svg PUBLIC "-//W3C//DTD SVG 1.1//EN"
 "http://www.w3.org/Graphics/SVG/1.1/DTD/svg11.dtd">
<!-- Generated by graphviz version 11.0.0 (20240428.1522)
 -->
<!-- Title: TplAestan\getItemActionServiceStart Pages: 1 -->
<svg width="542pt" height="521pt"
 viewBox="0.00 0.00 541.75 521.00" xmlns="http://www.w3.org/2000/svg" xmlns:xlink="http://www.w3.org/1999/xlink">
<g id="graph0" class="graph" transform="scale(1 1) rotate(0) translate(4 517)">
<title>TplAestan\getItemActionServiceStart</title>
<!-- Node1 -->
<g id="Node000001" class="node">
<title>Node1</title>
<g id="a_Node000001"><a xlink:title=" ">
<polygon fill="#999999" stroke="#666666" points="533.75,-277 313,-277 313,-236 533.75,-236 533.75,-277"/>
<text text-anchor="start" x="321" y="-259.7" font-family="Helvetica,sans-Serif" font-size="14.00">TplAestan\getItemActionService</text>
<text text-anchor="middle" x="423.38" y="-243.2" font-family="Helvetica,sans-Serif" font-size="14.00">Start</text>
</a>
</g>
</g>
<!-- Node2 -->
<g id="Node000002" class="node">
<title>Node2</title>
<g id="a_Node000002"><a xlink:href="../../d9/d51/classTplAppApache.html#a2f3f97f1fc8f704526200be781758eec" target="_top" xlink:title=" ">
<polygon fill="white" stroke="#666666" points="247.75,-513 29.25,-513 29.25,-472 247.75,-472 247.75,-513"/>
<text text-anchor="start" x="37.25" y="-495.7" font-family="Helvetica,sans-Serif" font-size="14.00">TplAppApache\getMenuApache</text>
<text text-anchor="middle" x="138.5" y="-479.2" font-family="Helvetica,sans-Serif" font-size="14.00">Service</text>
</a>
</g>
</g>
<!-- Node1&#45;&gt;Node2 -->
<g id="edge1_Node000001_Node000002" class="edge">
<title>Node1&#45;&gt;Node2</title>
<g id="a_edge1_Node000001_Node000002"><a xlink:title=" ">
<path fill="none" stroke="#63b8ff" d="M409.49,-287.77C388.77,-333.95 343.51,-419.62 277,-463.5 268.14,-469.34 258.32,-474.04 248.13,-477.81"/>
<polygon fill="#63b8ff" stroke="#63b8ff" points="412.59,-289.42 413.39,-278.86 406.18,-286.62 412.59,-289.42"/>
</a>
</g>
</g>
<!-- Node3 -->
<g id="Node000003" class="node">
<title>Node3</title>
<g id="a_Node000003"><a xlink:href="../../d0/d23/classTplAppFilezilla.html#a89f9b4439470e541b663fd23c641a352" target="_top" xlink:title=" ">
<polygon fill="white" stroke="#666666" points="245.5,-454 31.5,-454 31.5,-413 245.5,-413 245.5,-454"/>
<text text-anchor="start" x="39.5" y="-436.7" font-family="Helvetica,sans-Serif" font-size="14.00">TplAppFilezilla\getMenuFilezilla</text>
<text text-anchor="middle" x="138.5" y="-420.2" font-family="Helvetica,sans-Serif" font-size="14.00">Service</text>
</a>
</g>
</g>
<!-- Node1&#45;&gt;Node3 -->
<g id="edge2_Node000001_Node000003" class="edge">
<title>Node1&#45;&gt;Node3</title>
<g id="a_edge2_Node000001_Node000003"><a xlink:title=" ">
<path fill="none" stroke="#63b8ff" d="M401.55,-286.52C376.2,-320.66 330.13,-375.4 277,-404.5 267.26,-409.83 256.65,-414.19 245.77,-417.74"/>
<polygon fill="#63b8ff" stroke="#63b8ff" points="404.19,-288.85 407.25,-278.7 398.53,-284.72 404.19,-288.85"/>
</a>
</g>
</g>
<!-- Node4 -->
<g id="Node000004" class="node">
<title>Node4</title>
<g id="a_Node000004"><a xlink:href="../../d4/d8a/classTplAppMailhog.html#a5ba72143a30f15dad27bcc703da4d97e" target="_top" xlink:title=" ">
<polygon fill="white" stroke="#666666" points="247.75,-395 29.25,-395 29.25,-354 247.75,-354 247.75,-395"/>
<text text-anchor="start" x="37.25" y="-377.7" font-family="Helvetica,sans-Serif" font-size="14.00">TplAppMailhog\getMenuMailhog</text>
<text text-anchor="middle" x="138.5" y="-361.2" font-family="Helvetica,sans-Serif" font-size="14.00">Service</text>
</a>
</g>
</g>
<!-- Node1&#45;&gt;Node4 -->
<g id="edge3_Node000001_Node000004" class="edge">
<title>Node1&#45;&gt;Node4</title>
<g id="a_edge3_Node000001_Node000004"><a xlink:title=" ">
<path fill="none" stroke="#63b8ff" d="M385.57,-283.95C357.25,-303.81 316.4,-329.83 277,-345.5 267.82,-349.15 258.1,-352.37 248.25,-355.21"/>
<polygon fill="#63b8ff" stroke="#63b8ff" points="387.32,-286.99 393.44,-278.35 383.26,-281.29 387.32,-286.99"/>
</a>
</g>
</g>
<!-- Node5 -->
<g id="Node000005" class="node">
<title>Node5</title>
<g id="a_Node000005"><a xlink:href="../../d8/dd3/classTplAppMailpit.html#a6ac3b9462d198c5ab2b215ec1fbb7ebe" target="_top" xlink:title=" ">
<polygon fill="white" stroke="#666666" points="238.75,-336 38.25,-336 38.25,-295 238.75,-295 238.75,-336"/>
<text text-anchor="start" x="46.25" y="-318.7" font-family="Helvetica,sans-Serif" font-size="14.00">TplAppMailpit\getMenuMailpit</text>
<text text-anchor="middle" x="138.5" y="-302.2" font-family="Helvetica,sans-Serif" font-size="14.00">Service</text>
</a>
</g>
</g>
<!-- Node1&#45;&gt;Node5 -->
<g id="edge4_Node000001_Node000005" class="edge">
<title>Node1&#45;&gt;Node5</title>
<g id="a_edge4_Node000001_Node000005"><a xlink:title=" ">
<path fill="none" stroke="#63b8ff" d="M310.73,-279.79C287.12,-284.71 262.36,-289.87 239.23,-294.7"/>
<polygon fill="#63b8ff" stroke="#63b8ff" points="311.29,-283.24 320.37,-277.78 309.86,-276.39 311.29,-283.24"/>
</a>
</g>
</g>
<!-- Node6 -->
<g id="Node000006" class="node">
<title>Node6</title>
<g id="a_Node000006"><a xlink:href="../../d4/de1/classTplAppMariadb.html#a2c6a44257c87226af4b314640f693215" target="_top" xlink:title=" ">
<polygon fill="white" stroke="#666666" points="249.25,-277 27.75,-277 27.75,-236 249.25,-236 249.25,-277"/>
<text text-anchor="start" x="35.75" y="-259.7" font-family="Helvetica,sans-Serif" font-size="14.00">TplAppMariadb\getMenuMariadb</text>
<text text-anchor="middle" x="138.5" y="-243.2" font-family="Helvetica,sans-Serif" font-size="14.00">Service</text>
</a>
</g>
</g>
<!-- Node1&#45;&gt;Node6 -->
<g id="edge5_Node000001_Node000006" class="edge">
<title>Node1&#45;&gt;Node6</title>
<g id="a_edge5_Node000001_Node000006"><a xlink:title=" ">
<path fill="none" stroke="#63b8ff" d="M301.39,-256.5C284.21,-256.5 266.63,-256.5 249.68,-256.5"/>
<polygon fill="#63b8ff" stroke="#63b8ff" points="301.09,-260 311.09,-256.5 301.09,-253 301.09,-260"/>
</a>
</g>
</g>
<!-- Node7 -->
<g id="Node000007" class="node">
<title>Node7</title>
<g id="a_Node000007"><a xlink:href="../../d8/dff/classTplAppMemcached.html#abf57b9dc7416e6dea3d0639f71dc0b73" target="_top" xlink:title=" ">
<polygon fill="white" stroke="#666666" points="277,-218 0,-218 0,-177 277,-177 277,-218"/>
<text text-anchor="start" x="8" y="-200.7" font-family="Helvetica,sans-Serif" font-size="14.00">TplAppMemcached\getMenuMemcached</text>
<text text-anchor="middle" x="138.5" y="-184.2" font-family="Helvetica,sans-Serif" font-size="14.00">Service</text>
</a>
</g>
</g>
<!-- Node1&#45;&gt;Node7 -->
<g id="edge6_Node000001_Node000007" class="edge">
<title>Node1&#45;&gt;Node7</title>
<g id="a_edge6_Node000001_Node000007"><a xlink:title=" ">
<path fill="none" stroke="#63b8ff" d="M310.86,-233.24C287.54,-228.38 263.08,-223.28 240.18,-218.5"/>
<polygon fill="#63b8ff" stroke="#63b8ff" points="309.86,-236.61 320.37,-235.22 311.29,-229.76 309.86,-236.61"/>
</a>
</g>
</g>
<!-- Node8 -->
<g id="Node000008" class="node">
<title>Node8</title>
<g id="a_Node000008"><a xlink:href="../../d6/d19/classTplAppMysql.html#a1514c87f9ff4a5a4e042c8b6aafc957c" target="_top" xlink:title=" ">
<polygon fill="white" stroke="#666666" points="235.75,-159 41.25,-159 41.25,-118 235.75,-118 235.75,-159"/>
<text text-anchor="start" x="49.25" y="-141.7" font-family="Helvetica,sans-Serif" font-size="14.00">TplAppMysql\getMenuMysql</text>
<text text-anchor="middle" x="138.5" y="-125.2" font-family="Helvetica,sans-Serif" font-size="14.00">Service</text>
</a>
</g>
</g>
<!-- Node1&#45;&gt;Node8 -->
<g id="edge7_Node000001_Node000008" class="edge">
<title>Node1&#45;&gt;Node8</title>
<g id="a_edge7_Node000001_Node000008"><a xlink:title=" ">
<path fill="none" stroke="#63b8ff" d="M385.22,-229.28C356.87,-209.71 316.15,-184.12 277,-168.5 264.06,-163.34 250.07,-158.99 236.14,-155.35"/>
<polygon fill="#63b8ff" stroke="#63b8ff" points="382.9,-231.92 393.1,-234.79 386.92,-226.19 382.9,-231.92"/>
</a>
</g>
</g>
<!-- Node9 -->
<g id="Node000009" class="node">
<title>Node9</title>
<g id="a_Node000009"><a xlink:href="../../d3/d1b/classTplAppPostgresql.html#aa8d1826905ca5f8d880a9cebe58ca223" target="_top" xlink:title=" ">
<polygon fill="white" stroke="#666666" points="233.5,-100 43.5,-100 43.5,-59 233.5,-59 233.5,-100"/>
<text text-anchor="start" x="51.5" y="-82.7" font-family="Helvetica,sans-Serif" font-size="14.00">TplAppPostgresql\getMenu</text>
<text text-anchor="middle" x="138.5" y="-66.2" font-family="Helvetica,sans-Serif" font-size="14.00">PostgresqlService</text>
</a>
</g>
</g>
<!-- Node1&#45;&gt;Node9 -->
<g id="edge8_Node000001_Node000009" class="edge">
<title>Node1&#45;&gt;Node9</title>
<g id="a_edge8_Node000001_Node000009"><a xlink:title=" ">
<path fill="none" stroke="#63b8ff" d="M401.47,-226.75C376.03,-192.91 329.89,-138.59 277,-109.5 263.73,-102.2 248.82,-96.67 233.84,-92.5"/>
<polygon fill="#63b8ff" stroke="#63b8ff" points="398.43,-228.52 407.18,-234.49 404.06,-224.37 398.43,-228.52"/>
</a>
</g>
</g>
<!-- Node10 -->
<g id="Node000010" class="node">
<title>Node10</title>
<g id="a_Node000010"><a xlink:href="../../dc/d83/classTplAppXlight.html#ae864a091d96295893e91db73a0dd3188" target="_top" xlink:title=" ">
<polygon fill="white" stroke="#666666" points="234.25,-41 42.75,-41 42.75,0 234.25,0 234.25,-41"/>
<text text-anchor="start" x="50.75" y="-23.7" font-family="Helvetica,sans-Serif" font-size="14.00">TplAppXlight\getMenuXlight</text>
<text text-anchor="middle" x="138.5" y="-7.2" font-family="Helvetica,sans-Serif" font-size="14.00">Service</text>
</a>
</g>
</g>
<!-- Node1&#45;&gt;Node10 -->
<g id="edge9_Node000001_Node000010" class="edge">
<title>Node1&#45;&gt;Node10</title>
<g id="a_edge9_Node000001_Node000010"><a xlink:title=" ">
<path fill="none" stroke="#63b8ff" d="M409.28,-225.14C388.4,-179.2 343.06,-94.3 277,-50.5 264.27,-42.06 249.56,-35.95 234.6,-31.54"/>
<polygon fill="#63b8ff" stroke="#63b8ff" points="406.08,-226.56 413.33,-234.29 412.48,-223.73 406.08,-226.56"/>
</a>
</g>
</g>
</g>
</svg>
