<?xml version="1.0" encoding="UTF-8" standalone="no"?>
<!--
  - Copyright (c) 2021-2024 Bearsampp
  - License:  GNU General Public License version 3 or later; see LICENSE.txt
  - Author: Bear
  - Website: https://bearsampp.com
  - Github: https://github.com/Bearsampp
  -->

<!DOCTYPE svg PUBLIC "-//W3C//DTD SVG 1.1//EN"
 "http://www.w3.org/Graphics/SVG/1.1/DTD/svg11.dtd">
<!-- Generated by graphviz version 11.0.0 (20240428.1522)
 -->
<!-- Title: TplAestan\getSectionMenuLeftSettings Pages: 1 -->
<svg width="565pt" height="49pt"
 viewBox="0.00 0.00 564.50 49.00" xmlns="http://www.w3.org/2000/svg" xmlns:xlink="http://www.w3.org/1999/xlink">
<g id="graph0" class="graph" transform="scale(1 1) rotate(0) translate(4 45)">
<title>TplAestan\getSectionMenuLeftSettings</title>
<!-- Node1 -->
<g id="Node000001" class="node">
<title>Node1</title>
<g id="a_Node000001"><a xlink:title=" ">
<polygon fill="#999999" stroke="#666666" points="556.5,-41 369.5,-41 369.5,0 556.5,0 556.5,-41"/>
<text text-anchor="start" x="377.5" y="-23.7" font-family="Helvetica,sans-Serif" font-size="14.00">TplAestan\getSectionMenu</text>
<text text-anchor="middle" x="463" y="-7.2" font-family="Helvetica,sans-Serif" font-size="14.00">LeftSettings</text>
</a>
</g>
</g>
<!-- Node2 -->
<g id="Node000002" class="node">
<title>Node2</title>
<g id="a_Node000002"><a xlink:href="../../d1/d65/classTplApp.html#a57b270c79fbb8b220ad02af08368e367" target="_top" xlink:title=" ">
<polygon fill="white" stroke="#666666" points="333.5,-32.75 215.5,-32.75 215.5,-8.25 333.5,-8.25 333.5,-32.75"/>
<text text-anchor="middle" x="274.5" y="-15.45" font-family="Helvetica,sans-Serif" font-size="14.00">TplApp\process</text>
</a>
</g>
</g>
<!-- Node1&#45;&gt;Node2 -->
<g id="edge1_Node000001_Node000002" class="edge">
<title>Node1&#45;&gt;Node2</title>
<g id="a_edge1_Node000001_Node000002"><a xlink:title=" ">
<path fill="none" stroke="#63b8ff" d="M357.56,-20.5C349.49,-20.5 341.53,-20.5 333.93,-20.5"/>
<polygon fill="#63b8ff" stroke="#63b8ff" points="357.51,-24 367.51,-20.5 357.51,-17 357.51,-24"/>
</a>
</g>
</g>
<!-- Node3 -->
<g id="Node000003" class="node">
<title>Node3</title>
<g id="a_Node000003"><a xlink:href="../../dd/dea/classActionReload.html#a9caf3b20c05475876e5dc72cdcdf6024" target="_top" xlink:title=" ">
<polygon fill="white" stroke="#666666" points="179.5,-32.75 0,-32.75 0,-8.25 179.5,-8.25 179.5,-32.75"/>
<text text-anchor="middle" x="89.75" y="-15.45" font-family="Helvetica,sans-Serif" font-size="14.00">ActionReload\__construct</text>
</a>
</g>
</g>
<!-- Node2&#45;&gt;Node3 -->
<g id="edge2_Node000002_Node000003" class="edge">
<title>Node2&#45;&gt;Node3</title>
<g id="a_edge2_Node000002_Node000003"><a xlink:title=" ">
<path fill="none" stroke="#63b8ff" d="M203.85,-20.5C195.99,-20.5 187.9,-20.5 179.83,-20.5"/>
<polygon fill="#63b8ff" stroke="#63b8ff" points="203.66,-24 213.66,-20.5 203.66,-17 203.66,-24"/>
</a>
</g>
</g>
</g>
</svg>
