<?xml version="1.0" encoding="UTF-8" standalone="no"?>
<!--
  - Copyright (c) 2021-2024 Bearsampp
  - License:  GNU General Public License version 3 or later; see LICENSE.txt
  - Author: Bear
  - Website: https://bearsampp.com
  - Github: https://github.com/Bearsampp
  -->

<!DOCTYPE svg PUBLIC "-//W3C//DTD SVG 1.1//EN"
 "http://www.w3.org/Graphics/SVG/1.1/DTD/svg11.dtd">
<!-- Generated by graphviz version 11.0.0 (20240428.1522)
 -->
<!-- Title: TplAestan\getItemActionServiceStop Pages: 1 -->
<!--zoomable 521 -->

<svg id="main" version="1.1" xmlns="http://www.w3.org/2000/svg" xmlns:xlink="http://www.w3.org/1999/xlink" xml:space="preserve" onload="init(evt)">
<style type="text/css"><![CDATA[
.node, .edge {opacity: 0.7;}
.node.selected, .edge.selected {opacity: 1;}
.edge:hover path { stroke: red; }
.edge:hover polygon { stroke: red; fill: red; }
]]></style>

<defs>
  <circle id="rim" cx="0" cy="0" r="7"/>
  <circle id="rim2" cx="0" cy="0" r="3.5"/>
  <g id="zoomPlus">
    <use xlink:href="#rim" fill="#404040"><set attributeName="fill" to="#808080" begin="zoomplus.mouseover" end="zoomplus.mouseout"/></use>
    <path d="M-4,0h8M0,-4v8" fill="none" stroke="white" stroke-width="1.5" pointer-events="none"/>
  </g>
  <g id="zoomMin">
    <use xlink:href="#rim" fill="#404040"><set attributeName="fill" to="#808080" begin="zoomminus.mouseover" end="zoomminus.mouseout"/></use>
    <path d="M-4,0h8" fill="none" stroke="white" stroke-width="1.5" pointer-events="none"/>
  </g>
  <g id="arrowUp" transform="translate(30 24)">
    <use xlink:href="#rim"/>
    <path pointer-events="none" fill="none" stroke="white" stroke-width="1.5" d="M0,-3.0v7 M-2.5,-0.5L0,-3.0L2.5,-0.5"/>
  </g>
  <g id="arrowRight" transform="rotate(90) translate(36 -43)">
    <use xlink:href="#rim"/>
    <path pointer-events="none" fill="none" stroke="white" stroke-width="1.5" d="M0,-3.0v7 M-2.5,-0.5L0,-3.0L2.5,-0.5"/>
  </g>
  <g id="arrowDown" transform="rotate(180) translate(-30 -48)">
    <use xlink:href="#rim"/>
    <path pointer-events="none" fill="none" stroke="white" stroke-width="1.5" d="M0,-3.0v7 M-2.5,-0.5L0,-3.0L2.5,-0.5"/>
  </g>
  <g id="arrowLeft" transform="rotate(270) translate(-36 17)">
    <use xlink:href="#rim"/>
    <path pointer-events="none" fill="none" stroke="white" stroke-width="1.5" d="M0,-3.0v7 M-2.5,-0.5L0,-3.0L2.5,-0.5"/>
  </g>
  <g id="resetDef">
    <use xlink:href="#rim2" fill="#404040"><set attributeName="fill" to="#808080" begin="reset.mouseover" end="reset.mouseout"/></use>
  </g>
</defs>
<script type="application/ecmascript">
var viewWidth = 572;
var viewHeight = 521;
var sectionId = 'dynsection-3';
</script>
<script type="application/ecmascript" xlink:href="../../svg.min.js"/>
<svg id="graph" class="graph">
<g id="viewport">
<title>TplAestan\getItemActionServiceStop</title>
<!-- Node1 -->
<g id="Node000001" class="node">
<title>Node1</title>
<g id="a_Node000001"><a xlink:title=" ">
<polygon fill="#999999" stroke="#666666" points="563.75,-268.75 313,-268.75 313,-244.25 563.75,-244.25 563.75,-268.75"/>
<text text-anchor="middle" x="438.38" y="-251.45" font-family="Helvetica,sans-Serif" font-size="14.00">TplAestan\getItemActionServiceStop</text>
</a>
</g>
</g>
<!-- Node2 -->
<g id="Node000002" class="node">
<title>Node2</title>
<g id="a_Node000002"><a xlink:href="../../d9/d51/classTplAppApache.html#a2f3f97f1fc8f704526200be781758eec" target="_top" xlink:title=" ">
<polygon fill="white" stroke="#666666" points="247.75,-513 29.25,-513 29.25,-472 247.75,-472 247.75,-513"/>
<text text-anchor="start" x="37.25" y="-495.7" font-family="Helvetica,sans-Serif" font-size="14.00">TplAppApache\getMenuApache</text>
<text text-anchor="middle" x="138.5" y="-479.2" font-family="Helvetica,sans-Serif" font-size="14.00">Service</text>
</a>
</g>
</g>
<!-- Node1&#45;&gt;Node2 -->
<g id="edge1_Node000001_Node000002" class="edge">
<title>Node1&#45;&gt;Node2</title>
<g id="a_edge1_Node000001_Node000002"><a xlink:title=" ">
<path fill="none" stroke="#63b8ff" d="M426.59,-279.35C404.85,-322.74 351.42,-416.87 277,-463.5 268.11,-469.07 258.33,-473.59 248.2,-477.25"/>
<polygon fill="#63b8ff" stroke="#63b8ff" points="429.62,-281.12 430.87,-270.6 423.33,-278.04 429.62,-281.12"/>
</a>
</g>
</g>
<!-- Node3 -->
<g id="Node000003" class="node">
<title>Node3</title>
<g id="a_Node000003"><a xlink:href="../../d0/d23/classTplAppFilezilla.html#a89f9b4439470e541b663fd23c641a352" target="_top" xlink:title=" ">
<polygon fill="white" stroke="#666666" points="245.5,-454 31.5,-454 31.5,-413 245.5,-413 245.5,-454"/>
<text text-anchor="start" x="39.5" y="-436.7" font-family="Helvetica,sans-Serif" font-size="14.00">TplAppFilezilla\getMenuFilezilla</text>
<text text-anchor="middle" x="138.5" y="-420.2" font-family="Helvetica,sans-Serif" font-size="14.00">Service</text>
</a>
</g>
</g>
<!-- Node1&#45;&gt;Node3 -->
<g id="edge2_Node000001_Node000003" class="edge">
<title>Node1&#45;&gt;Node3</title>
<g id="a_edge2_Node000001_Node000003"><a xlink:title=" ">
<path fill="none" stroke="#63b8ff" d="M420.69,-278.01C394.05,-310.77 338.59,-372.7 277,-404.5 267.24,-409.54 256.67,-413.7 245.87,-417.14"/>
<polygon fill="#63b8ff" stroke="#63b8ff" points="423.27,-280.4 426.77,-270.4 417.8,-276.03 423.27,-280.4"/>
</a>
</g>
</g>
<!-- Node4 -->
<g id="Node000004" class="node">
<title>Node4</title>
<g id="a_Node000004"><a xlink:href="../../d4/d8a/classTplAppMailhog.html#a5ba72143a30f15dad27bcc703da4d97e" target="_top" xlink:title=" ">
<polygon fill="white" stroke="#666666" points="247.75,-395 29.25,-395 29.25,-354 247.75,-354 247.75,-395"/>
<text text-anchor="start" x="37.25" y="-377.7" font-family="Helvetica,sans-Serif" font-size="14.00">TplAppMailhog\getMenuMailhog</text>
<text text-anchor="middle" x="138.5" y="-361.2" font-family="Helvetica,sans-Serif" font-size="14.00">Service</text>
</a>
</g>
</g>
<!-- Node1&#45;&gt;Node4 -->
<g id="edge3_Node000001_Node000004" class="edge">
<title>Node1&#45;&gt;Node4</title>
<g id="a_edge3_Node000001_Node000004"><a xlink:title=" ">
<path fill="none" stroke="#63b8ff" d="M409.72,-275.23C378.7,-295.42 326.26,-327.11 277,-345.5 267.74,-348.96 257.97,-352.04 248.09,-354.79"/>
<polygon fill="#63b8ff" stroke="#63b8ff" points="411.32,-278.37 417.74,-269.95 407.47,-272.52 411.32,-278.37"/>
</a>
</g>
</g>
<!-- Node5 -->
<g id="Node000005" class="node">
<title>Node5</title>
<g id="a_Node000005"><a xlink:href="../../d8/dd3/classTplAppMailpit.html#a6ac3b9462d198c5ab2b215ec1fbb7ebe" target="_top" xlink:title=" ">
<polygon fill="white" stroke="#666666" points="238.75,-336 38.25,-336 38.25,-295 238.75,-295 238.75,-336"/>
<text text-anchor="start" x="46.25" y="-318.7" font-family="Helvetica,sans-Serif" font-size="14.00">TplAppMailpit\getMenuMailpit</text>
<text text-anchor="middle" x="138.5" y="-302.2" font-family="Helvetica,sans-Serif" font-size="14.00">Service</text>
</a>
</g>
</g>
<!-- Node1&#45;&gt;Node5 -->
<g id="edge4_Node000001_Node000005" class="edge">
<title>Node1&#45;&gt;Node5</title>
<g id="a_edge4_Node000001_Node000005"><a xlink:title=" ">
<path fill="none" stroke="#63b8ff" d="M361.82,-271.46C324.57,-278.84 279.16,-287.84 239.11,-295.77"/>
<polygon fill="#63b8ff" stroke="#63b8ff" points="362.49,-274.9 371.62,-269.52 361.13,-268.03 362.49,-274.9"/>
</a>
</g>
</g>
<!-- Node6 -->
<g id="Node000006" class="node">
<title>Node6</title>
<g id="a_Node000006"><a xlink:href="../../d4/de1/classTplAppMariadb.html#a2c6a44257c87226af4b314640f693215" target="_top" xlink:title=" ">
<polygon fill="white" stroke="#666666" points="249.25,-277 27.75,-277 27.75,-236 249.25,-236 249.25,-277"/>
<text text-anchor="start" x="35.75" y="-259.7" font-family="Helvetica,sans-Serif" font-size="14.00">TplAppMariadb\getMenuMariadb</text>
<text text-anchor="middle" x="138.5" y="-243.2" font-family="Helvetica,sans-Serif" font-size="14.00">Service</text>
</a>
</g>
</g>
<!-- Node1&#45;&gt;Node6 -->
<g id="edge5_Node000001_Node000006" class="edge">
<title>Node1&#45;&gt;Node6</title>
<g id="a_edge5_Node000001_Node000006"><a xlink:title=" ">
<path fill="none" stroke="#63b8ff" d="M301.38,-256.5C283.96,-256.5 266.31,-256.5 249.39,-256.5"/>
<polygon fill="#63b8ff" stroke="#63b8ff" points="301.26,-260 311.26,-256.5 301.26,-253 301.26,-260"/>
</a>
</g>
</g>
<!-- Node7 -->
<g id="Node000007" class="node">
<title>Node7</title>
<g id="a_Node000007"><a xlink:href="../../d8/dff/classTplAppMemcached.html#abf57b9dc7416e6dea3d0639f71dc0b73" target="_top" xlink:title=" ">
<polygon fill="white" stroke="#666666" points="277,-218 0,-218 0,-177 277,-177 277,-218"/>
<text text-anchor="start" x="8" y="-200.7" font-family="Helvetica,sans-Serif" font-size="14.00">TplAppMemcached\getMenuMemcached</text>
<text text-anchor="middle" x="138.5" y="-184.2" font-family="Helvetica,sans-Serif" font-size="14.00">Service</text>
</a>
</g>
</g>
<!-- Node1&#45;&gt;Node7 -->
<g id="edge6_Node000001_Node000007" class="edge">
<title>Node1&#45;&gt;Node7</title>
<g id="a_edge6_Node000001_Node000007"><a xlink:title=" ">
<path fill="none" stroke="#63b8ff" d="M361.9,-241.55C326.52,-234.54 283.77,-226.08 245.24,-218.44"/>
<polygon fill="#63b8ff" stroke="#63b8ff" points="361.13,-244.97 371.62,-243.48 362.49,-238.1 361.13,-244.97"/>
</a>
</g>
</g>
<!-- Node8 -->
<g id="Node000008" class="node">
<title>Node8</title>
<g id="a_Node000008"><a xlink:href="../../d6/d19/classTplAppMysql.html#a1514c87f9ff4a5a4e042c8b6aafc957c" target="_top" xlink:title=" ">
<polygon fill="white" stroke="#666666" points="235.75,-159 41.25,-159 41.25,-118 235.75,-118 235.75,-159"/>
<text text-anchor="start" x="49.25" y="-141.7" font-family="Helvetica,sans-Serif" font-size="14.00">TplAppMysql\getMenuMysql</text>
<text text-anchor="middle" x="138.5" y="-125.2" font-family="Helvetica,sans-Serif" font-size="14.00">Service</text>
</a>
</g>
</g>
<!-- Node1&#45;&gt;Node8 -->
<g id="edge7_Node000001_Node000008" class="edge">
<title>Node1&#45;&gt;Node8</title>
<g id="a_edge7_Node000001_Node000008"><a xlink:title=" ">
<path fill="none" stroke="#63b8ff" d="M409.15,-237.73C378.02,-217.83 325.84,-186.79 277,-168.5 263.96,-163.62 249.91,-159.42 235.94,-155.85"/>
<polygon fill="#63b8ff" stroke="#63b8ff" points="406.92,-240.46 417.22,-242.95 410.72,-234.58 406.92,-240.46"/>
</a>
</g>
</g>
<!-- Node9 -->
<g id="Node000009" class="node">
<title>Node9</title>
<g id="a_Node000009"><a xlink:href="../../d3/d1b/classTplAppPostgresql.html#aa8d1826905ca5f8d880a9cebe58ca223" target="_top" xlink:title=" ">
<polygon fill="white" stroke="#666666" points="233.5,-100 43.5,-100 43.5,-59 233.5,-59 233.5,-100"/>
<text text-anchor="start" x="51.5" y="-82.7" font-family="Helvetica,sans-Serif" font-size="14.00">TplAppPostgresql\getMenu</text>
<text text-anchor="middle" x="138.5" y="-66.2" font-family="Helvetica,sans-Serif" font-size="14.00">PostgresqlService</text>
</a>
</g>
</g>
<!-- Node1&#45;&gt;Node9 -->
<g id="edge8_Node000001_Node000009" class="edge">
<title>Node1&#45;&gt;Node9</title>
<g id="a_edge8_Node000001_Node000009"><a xlink:title=" ">
<path fill="none" stroke="#63b8ff" d="M420.63,-235.19C393.91,-202.72 338.34,-141.31 277,-109.5 263.66,-102.58 248.79,-97.26 233.91,-93.16"/>
<polygon fill="#63b8ff" stroke="#63b8ff" points="417.72,-237.15 426.73,-242.72 423.16,-232.75 417.72,-237.15"/>
</a>
</g>
</g>
<!-- Node10 -->
<g id="Node000010" class="node">
<title>Node10</title>
<g id="a_Node000010"><a xlink:href="../../dc/d83/classTplAppXlight.html#ae864a091d96295893e91db73a0dd3188" target="_top" xlink:title=" ">
<polygon fill="white" stroke="#666666" points="234.25,-41 42.75,-41 42.75,0 234.25,0 234.25,-41"/>
<text text-anchor="start" x="50.75" y="-23.7" font-family="Helvetica,sans-Serif" font-size="14.00">TplAppXlight\getMenuXlight</text>
<text text-anchor="middle" x="138.5" y="-7.2" font-family="Helvetica,sans-Serif" font-size="14.00">Service</text>
</a>
</g>
</g>
<!-- Node1&#45;&gt;Node10 -->
<g id="edge9_Node000001_Node000010" class="edge">
<title>Node1&#45;&gt;Node10</title>
<g id="a_edge9_Node000001_Node000010"><a xlink:title=" ">
<path fill="none" stroke="#63b8ff" d="M426.53,-233.81C404.69,-190.71 351.09,-97.16 277,-50.5 264.18,-42.43 249.51,-36.5 234.63,-32.16"/>
<polygon fill="#63b8ff" stroke="#63b8ff" points="423.26,-235.09 430.83,-242.49 429.53,-231.98 423.26,-235.09"/>
</a>
</g>
</g>
</g>
</svg>

<g id="navigator" transform="translate(0 0)" fill="#404254">
  <rect fill="#f2f5e9" fill-opacity="0.5" stroke="#606060" stroke-width=".5" x="0" y="0" width="60" height="60"/>
  <use id="zoomplus" xlink:href="#zoomPlus" x="17" y="9" onmousedown="handleZoom(evt,'in')"/>
  <use id="zoomminus" xlink:href="#zoomMin" x="42" y="9" onmousedown="handleZoom(evt,'out')"/>
  <use id="reset" xlink:href="#resetDef" x="30" y="36" onmousedown="handleReset()"/>
   <use id="arrowup" xlink:href="#arrowUp" x="0" y="0" onmousedown="handlePan(0,-1)"/>
  <use id="arrowright" xlink:href="#arrowRight" x="0" y="0" onmousedown="handlePan(1,0)"/>
  <use id="arrowdown" xlink:href="#arrowDown" x="0" y="0" onmousedown="handlePan(0,1)"/>
  <use id="arrowleft" xlink:href="#arrowLeft" x="0" y="0" onmousedown="handlePan(-1,0)"/>
</g>
<svg viewBox="0 0 15 15" width="100%" height="30px" preserveAspectRatio="xMaxYMin meet">
 <g id="arrow_out" transform="scale(0.3 0.3)">
  <a xlink:href="classTplAestan_a3a420a3b5ffbda57e6d2e297127d4a86_icgraph_org.svg" target="_base">
   <rect id="button" ry="5" rx="5" y="6" x="6" height="38" width="38"
        fill="#f2f5e9" fill-opacity="0.5" stroke="#606060" stroke-width="1.0"/>
   <path id="arrow"
     d="M 11.500037,31.436501 C 11.940474,20.09759 22.043105,11.32322 32.158766,21.979434 L 37.068811,17.246167 C 37.068811,17.246167 37.088388,32 37.088388,32 L 22.160133,31.978069 C 22.160133,31.978069 26.997745,27.140456 26.997745,27.140456 C 18.528582,18.264221 13.291696,25.230495 11.500037,31.436501 z"
     style="fill:#404040;"/>
  </a>
 </g>
</svg>

<style type='text/css'>
<![CDATA[
[data-mouse-over-selected='false'] { opacity: 0.7; }
[data-mouse-over-selected='true']  { opacity: 1.0; }
]]>
</style>
<script type="application/ecmascript"><![CDATA[
document.addEventListener('DOMContentLoaded', (event) => {
  highlightEdges();
  highlightAdjacentNodes();
});
]]></script>
</svg>
