<?xml version="1.0" encoding="UTF-8" standalone="no"?>
<!--
  - Copyright (c) 2021-2024 Bearsampp
  - License:  GNU General Public License version 3 or later; see LICENSE.txt
  - Author: Bear
  - Website: https://bearsampp.com
  - Github: https://github.com/Bearsampp
  -->

<!DOCTYPE svg PUBLIC "-//W3C//DTD SVG 1.1//EN"
 "http://www.w3.org/Graphics/SVG/1.1/DTD/svg11.dtd">
<!-- Generated by graphviz version 11.0.0 (20240428.1522)
 -->
<!-- Title: TplAestan\getItemSeparator Pages: 1 -->
<svg width="886pt" height="1300pt"
 viewBox="0.00 0.00 885.75 1299.50" xmlns="http://www.w3.org/2000/svg" xmlns:xlink="http://www.w3.org/1999/xlink">
<g id="graph0" class="graph" transform="scale(1 1) rotate(0) translate(4 1295.5)">
<title>TplAestan\getItemSeparator</title>
<!-- Node1 -->
<g id="Node000001" class="node">
<title>Node1</title>
<g id="a_Node000001"><a xlink:title=" ">
<polygon fill="#999999" stroke="#666666" points="877.75,-645.5 682.5,-645.5 682.5,-621 877.75,-621 877.75,-645.5"/>
<text text-anchor="middle" x="780.12" y="-628.2" font-family="Helvetica,sans-Serif" font-size="14.00">TplAestan\getItemSeparator</text>
</a>
</g>
</g>
<!-- Node2 -->
<g id="Node000002" class="node">
<title>Node2</title>
<g id="a_Node000002"><a xlink:href="../../d9/d51/classTplAppApache.html#a41883e060efdff6f2d33a272b7c3faae" target="_top" xlink:title=" ">
<polygon fill="white" stroke="#666666" points="617.25,-1291.5 398.75,-1291.5 398.75,-1267 617.25,-1267 617.25,-1291.5"/>
<text text-anchor="middle" x="508" y="-1274.2" font-family="Helvetica,sans-Serif" font-size="14.00">TplAppApache\getMenuApache</text>
</a>
</g>
</g>
<!-- Node1&#45;&gt;Node2 -->
<g id="edge1_Node000001_Node000002" class="edge">
<title>Node1&#45;&gt;Node2</title>
<g id="a_edge1_Node000001_Node000002"><a xlink:title=" ">
<path fill="none" stroke="#63b8ff" d="M777.58,-657.23C770.38,-761.4 736.51,-1173.27 646.5,-1258.25 638.16,-1266.12 628.18,-1271.8 617.46,-1275.82"/>
<polygon fill="#63b8ff" stroke="#63b8ff" points="781.07,-657.57 778.25,-647.36 774.08,-657.1 781.07,-657.57"/>
</a>
</g>
</g>
<!-- Node3 -->
<g id="Node000003" class="node">
<title>Node3</title>
<g id="a_Node000003"><a xlink:href="../../d9/d51/classTplAppApache.html#a0aacb41cc15ef756d09a613d78f6e672" target="_top" xlink:title=" ">
<polygon fill="white" stroke="#666666" points="617.25,-1248.75 398.75,-1248.75 398.75,-1207.75 617.25,-1207.75 617.25,-1248.75"/>
<text text-anchor="start" x="406.75" y="-1231.45" font-family="Helvetica,sans-Serif" font-size="14.00">TplAppApache\getMenuApache</text>
<text text-anchor="middle" x="508" y="-1214.95" font-family="Helvetica,sans-Serif" font-size="14.00">Alias</text>
</a>
</g>
</g>
<!-- Node1&#45;&gt;Node3 -->
<g id="edge2_Node000001_Node000003" class="edge">
<title>Node1&#45;&gt;Node3</title>
<g id="a_edge2_Node000001_Node000003"><a xlink:title=" ">
<path fill="none" stroke="#63b8ff" d="M776.91,-656.99C767.35,-754.29 726.43,-1121.08 646.5,-1199.25 638.21,-1207.35 628.27,-1213.45 617.57,-1218"/>
<polygon fill="#63b8ff" stroke="#63b8ff" points="780.39,-657.36 777.86,-647.07 773.42,-656.69 780.39,-657.36"/>
</a>
</g>
</g>
<!-- Node4 -->
<g id="Node000004" class="node">
<title>Node4</title>
<g id="a_Node000004"><a xlink:href="../../d9/d51/classTplAppApache.html#a2f3f97f1fc8f704526200be781758eec" target="_top" xlink:title=" ">
<polygon fill="white" stroke="#666666" points="617.25,-1189.75 398.75,-1189.75 398.75,-1148.75 617.25,-1148.75 617.25,-1189.75"/>
<text text-anchor="start" x="406.75" y="-1172.45" font-family="Helvetica,sans-Serif" font-size="14.00">TplAppApache\getMenuApache</text>
<text text-anchor="middle" x="508" y="-1155.95" font-family="Helvetica,sans-Serif" font-size="14.00">Service</text>
</a>
</g>
</g>
<!-- Node1&#45;&gt;Node4 -->
<g id="edge3_Node000001_Node000004" class="edge">
<title>Node1&#45;&gt;Node4</title>
<g id="a_edge3_Node000001_Node000004"><a xlink:title=" ">
<path fill="none" stroke="#63b8ff" d="M776.24,-656.82C764.68,-747.38 718.84,-1071.3 646.5,-1140.25 638.2,-1148.16 628.31,-1154.14 617.7,-1158.64"/>
<polygon fill="#63b8ff" stroke="#63b8ff" points="779.68,-657.5 777.45,-647.14 772.74,-656.63 779.68,-657.5"/>
</a>
</g>
</g>
<!-- Node5 -->
<g id="Node000005" class="node">
<title>Node5</title>
<g id="a_Node000005"><a xlink:href="../../d9/d51/classTplAppApache.html#a27fffea6a9217a1aad344e4cdc3ccaef" target="_top" xlink:title=" ">
<polygon fill="white" stroke="#666666" points="617.25,-1130.75 398.75,-1130.75 398.75,-1089.75 617.25,-1089.75 617.25,-1130.75"/>
<text text-anchor="start" x="406.75" y="-1113.45" font-family="Helvetica,sans-Serif" font-size="14.00">TplAppApache\getMenuApache</text>
<text text-anchor="middle" x="508" y="-1096.95" font-family="Helvetica,sans-Serif" font-size="14.00">Vhosts</text>
</a>
</g>
</g>
<!-- Node1&#45;&gt;Node5 -->
<g id="edge4_Node000001_Node000005" class="edge">
<title>Node1&#45;&gt;Node5</title>
<g id="a_edge4_Node000001_Node000005"><a xlink:title=" ">
<path fill="none" stroke="#63b8ff" d="M779.85,-657.24C780.73,-732.04 772.64,-963.07 646.5,-1080.25 638.09,-1088.07 628.13,-1094.02 617.47,-1098.54"/>
<polygon fill="#63b8ff" stroke="#63b8ff" points="783.35,-657.32 779.66,-647.39 776.36,-657.45 783.35,-657.32"/>
</a>
</g>
</g>
<!-- Node6 -->
<g id="Node000006" class="node">
<title>Node6</title>
<g id="a_Node000006"><a xlink:href="../../d0/d23/classTplAppFilezilla.html#ac79291983a2d52baddaff20066557be6" target="_top" xlink:title=" ">
<polygon fill="white" stroke="#666666" points="615,-1071.5 401,-1071.5 401,-1047 615,-1047 615,-1071.5"/>
<text text-anchor="middle" x="508" y="-1054.2" font-family="Helvetica,sans-Serif" font-size="14.00">TplAppFilezilla\getMenuFilezilla</text>
</a>
</g>
</g>
<!-- Node1&#45;&gt;Node6 -->
<g id="edge5_Node000001_Node000006" class="edge">
<title>Node1&#45;&gt;Node6</title>
<g id="a_edge5_Node000001_Node000006"><a xlink:title=" ">
<path fill="none" stroke="#63b8ff" d="M779.32,-656.72C778.51,-727.02 765.78,-937.18 646.5,-1038.25 637.38,-1045.98 626.65,-1051.5 615.26,-1055.39"/>
<polygon fill="#63b8ff" stroke="#63b8ff" points="782.81,-657.16 779.35,-647.14 775.81,-657.13 782.81,-657.16"/>
</a>
</g>
</g>
<!-- Node7 -->
<g id="Node000007" class="node">
<title>Node7</title>
<g id="a_Node000007"><a xlink:href="../../d0/d23/classTplAppFilezilla.html#a89f9b4439470e541b663fd23c641a352" target="_top" xlink:title=" ">
<polygon fill="white" stroke="#666666" points="615,-1028.75 401,-1028.75 401,-987.75 615,-987.75 615,-1028.75"/>
<text text-anchor="start" x="409" y="-1011.45" font-family="Helvetica,sans-Serif" font-size="14.00">TplAppFilezilla\getMenuFilezilla</text>
<text text-anchor="middle" x="508" y="-994.95" font-family="Helvetica,sans-Serif" font-size="14.00">Service</text>
</a>
</g>
</g>
<!-- Node1&#45;&gt;Node7 -->
<g id="edge6_Node000001_Node000007" class="edge">
<title>Node1&#45;&gt;Node7</title>
<g id="a_edge6_Node000001_Node000007"><a xlink:title=" ">
<path fill="none" stroke="#63b8ff" d="M777.46,-657.08C771.73,-720.03 747.16,-891.85 646.5,-978.25 637.42,-986.05 626.77,-991.96 615.5,-996.42"/>
<polygon fill="#63b8ff" stroke="#63b8ff" points="780.92,-657.76 778.25,-647.5 773.94,-657.18 780.92,-657.76"/>
</a>
</g>
</g>
<!-- Node8 -->
<g id="Node000008" class="node">
<title>Node8</title>
<g id="a_Node000008"><a xlink:href="../../d0/dbb/classTplAppGit.html#aaec8cdb1aac71d62ba8ca42c626a82a5" target="_top" xlink:title=" ">
<polygon fill="white" stroke="#666666" points="586.5,-969.5 429.5,-969.5 429.5,-945 586.5,-945 586.5,-969.5"/>
<text text-anchor="middle" x="508" y="-952.2" font-family="Helvetica,sans-Serif" font-size="14.00">TplAppGit\getMenuGit</text>
</a>
</g>
</g>
<!-- Node1&#45;&gt;Node8 -->
<g id="edge7_Node000001_Node000008" class="edge">
<title>Node1&#45;&gt;Node8</title>
<g id="a_edge7_Node000001_Node000008"><a xlink:title=" ">
<path fill="none" stroke="#63b8ff" d="M776.32,-657.1C768.15,-715.1 738.74,-863.98 646.5,-935.25 629.57,-948.33 607.91,-955 586.82,-958.12"/>
<polygon fill="#63b8ff" stroke="#63b8ff" points="779.77,-657.74 777.6,-647.37 772.83,-656.83 779.77,-657.74"/>
</a>
</g>
</g>
<!-- Node9 -->
<g id="Node000009" class="node">
<title>Node9</title>
<g id="a_Node000009"><a xlink:href="../../d4/d8a/classTplAppMailhog.html#a67c2c3057bcdaac6cf91614662582c6d" target="_top" xlink:title=" ">
<polygon fill="white" stroke="#666666" points="617.25,-926.5 398.75,-926.5 398.75,-902 617.25,-902 617.25,-926.5"/>
<text text-anchor="middle" x="508" y="-909.2" font-family="Helvetica,sans-Serif" font-size="14.00">TplAppMailhog\getMenuMailhog</text>
</a>
</g>
</g>
<!-- Node1&#45;&gt;Node9 -->
<g id="edge8_Node000001_Node000009" class="edge">
<title>Node1&#45;&gt;Node9</title>
<g id="a_edge8_Node000001_Node000009"><a xlink:title=" ">
<path fill="none" stroke="#63b8ff" d="M774.57,-657C763.22,-709.22 728.46,-834.07 646.5,-893.25 637.79,-899.54 627.95,-904.28 617.64,-907.81"/>
<polygon fill="#63b8ff" stroke="#63b8ff" points="777.96,-657.9 776.56,-647.4 771.11,-656.48 777.96,-657.9"/>
</a>
</g>
</g>
<!-- Node10 -->
<g id="Node000010" class="node">
<title>Node10</title>
<g id="a_Node000010"><a xlink:href="../../d4/d8a/classTplAppMailhog.html#a5ba72143a30f15dad27bcc703da4d97e" target="_top" xlink:title=" ">
<polygon fill="white" stroke="#666666" points="617.25,-883.75 398.75,-883.75 398.75,-842.75 617.25,-842.75 617.25,-883.75"/>
<text text-anchor="start" x="406.75" y="-866.45" font-family="Helvetica,sans-Serif" font-size="14.00">TplAppMailhog\getMenuMailhog</text>
<text text-anchor="middle" x="508" y="-849.95" font-family="Helvetica,sans-Serif" font-size="14.00">Service</text>
</a>
</g>
</g>
<!-- Node1&#45;&gt;Node10 -->
<g id="edge9_Node000001_Node000010" class="edge">
<title>Node1&#45;&gt;Node10</title>
<g id="a_edge9_Node000001_Node000010"><a xlink:title=" ">
<path fill="none" stroke="#63b8ff" d="M770.65,-656.36C753.89,-698.64 712.35,-788.2 646.5,-833.25 637.63,-839.32 627.74,-844.19 617.46,-848.09"/>
<polygon fill="#63b8ff" stroke="#63b8ff" points="773.86,-657.77 774.17,-647.18 767.32,-655.26 773.86,-657.77"/>
</a>
</g>
</g>
<!-- Node11 -->
<g id="Node000011" class="node">
<title>Node11</title>
<g id="a_Node000011"><a xlink:href="../../d8/dd3/classTplAppMailpit.html#a6b11486b7c0c3abff5bd9a69107e739f" target="_top" xlink:title=" ">
<polygon fill="white" stroke="#666666" points="608.25,-824.5 407.75,-824.5 407.75,-800 608.25,-800 608.25,-824.5"/>
<text text-anchor="middle" x="508" y="-807.2" font-family="Helvetica,sans-Serif" font-size="14.00">TplAppMailpit\getMenuMailpit</text>
</a>
</g>
</g>
<!-- Node1&#45;&gt;Node11 -->
<g id="edge10_Node000001_Node000011" class="edge">
<title>Node1&#45;&gt;Node11</title>
<g id="a_edge10_Node000001_Node000011"><a xlink:title=" ">
<path fill="none" stroke="#63b8ff" d="M767.47,-655.55C747.74,-690.82 704.22,-758.81 646.5,-791.25 634.82,-797.82 621.74,-802.52 608.41,-805.87"/>
<polygon fill="#63b8ff" stroke="#63b8ff" points="770.38,-657.51 772.09,-647.06 764.24,-654.17 770.38,-657.51"/>
</a>
</g>
</g>
<!-- Node12 -->
<g id="Node000012" class="node">
<title>Node12</title>
<g id="a_Node000012"><a xlink:href="../../d8/dd3/classTplAppMailpit.html#a6ac3b9462d198c5ab2b215ec1fbb7ebe" target="_top" xlink:title=" ">
<polygon fill="white" stroke="#666666" points="608.25,-781.75 407.75,-781.75 407.75,-740.75 608.25,-740.75 608.25,-781.75"/>
<text text-anchor="start" x="415.75" y="-764.45" font-family="Helvetica,sans-Serif" font-size="14.00">TplAppMailpit\getMenuMailpit</text>
<text text-anchor="middle" x="508" y="-747.95" font-family="Helvetica,sans-Serif" font-size="14.00">Service</text>
</a>
</g>
</g>
<!-- Node1&#45;&gt;Node12 -->
<g id="edge11_Node000001_Node000012" class="edge">
<title>Node1&#45;&gt;Node12</title>
<g id="a_edge11_Node000001_Node000012"><a xlink:title=" ">
<path fill="none" stroke="#63b8ff" d="M757.77,-653.57C732.98,-676.01 689.93,-711.56 646.5,-731.25 634.59,-736.65 621.66,-741.1 608.65,-744.76"/>
<polygon fill="#63b8ff" stroke="#63b8ff" points="759.94,-656.33 764.93,-646.98 755.2,-651.18 759.94,-656.33"/>
</a>
</g>
</g>
<!-- Node13 -->
<g id="Node000013" class="node">
<title>Node13</title>
<g id="a_Node000013"><a xlink:href="../../d4/de1/classTplAppMariadb.html#a46c8afea1780be6bdd5989bccb0c67e2" target="_top" xlink:title=" ">
<polygon fill="white" stroke="#666666" points="618.75,-722.5 397.25,-722.5 397.25,-698 618.75,-698 618.75,-722.5"/>
<text text-anchor="middle" x="508" y="-705.2" font-family="Helvetica,sans-Serif" font-size="14.00">TplAppMariadb\getMenuMariadb</text>
</a>
</g>
</g>
<!-- Node1&#45;&gt;Node13 -->
<g id="edge12_Node000001_Node000013" class="edge">
<title>Node1&#45;&gt;Node13</title>
<g id="a_edge12_Node000001_Node000013"><a xlink:title=" ">
<path fill="none" stroke="#63b8ff" d="M744.18,-650.83C717.92,-663.33 680.74,-679.57 646.5,-689.25 635.23,-692.44 623.29,-695.17 611.35,-697.51"/>
<polygon fill="#63b8ff" stroke="#63b8ff" points="745.53,-654.06 753.01,-646.56 742.48,-647.76 745.53,-654.06"/>
</a>
</g>
</g>
<!-- Node14 -->
<g id="Node000014" class="node">
<title>Node14</title>
<g id="a_Node000014"><a xlink:href="../../d4/de1/classTplAppMariadb.html#a2c6a44257c87226af4b314640f693215" target="_top" xlink:title=" ">
<polygon fill="white" stroke="#666666" points="618.75,-679.75 397.25,-679.75 397.25,-638.75 618.75,-638.75 618.75,-679.75"/>
<text text-anchor="start" x="405.25" y="-662.45" font-family="Helvetica,sans-Serif" font-size="14.00">TplAppMariadb\getMenuMariadb</text>
<text text-anchor="middle" x="508" y="-645.95" font-family="Helvetica,sans-Serif" font-size="14.00">Service</text>
</a>
</g>
</g>
<!-- Node1&#45;&gt;Node14 -->
<g id="edge13_Node000001_Node000014" class="edge">
<title>Node1&#45;&gt;Node14</title>
<g id="a_edge13_Node000001_Node000014"><a xlink:title=" ">
<path fill="none" stroke="#63b8ff" d="M671.16,-643.64C653.94,-645.3 636.12,-647.01 618.86,-648.68"/>
<polygon fill="#63b8ff" stroke="#63b8ff" points="671.24,-647.15 680.86,-642.71 670.57,-640.18 671.24,-647.15"/>
</a>
</g>
</g>
<!-- Node15 -->
<g id="Node000015" class="node">
<title>Node15</title>
<g id="a_Node000015"><a xlink:href="../../d8/dff/classTplAppMemcached.html#aefb8013320c0321bd6f3727349ea1045" target="_top" xlink:title=" ">
<polygon fill="white" stroke="#666666" points="646.5,-620.5 369.5,-620.5 369.5,-596 646.5,-596 646.5,-620.5"/>
<text text-anchor="middle" x="508" y="-603.2" font-family="Helvetica,sans-Serif" font-size="14.00">TplAppMemcached\getMenuMemcached</text>
</a>
</g>
</g>
<!-- Node1&#45;&gt;Node15 -->
<g id="edge14_Node000001_Node000015" class="edge">
<title>Node1&#45;&gt;Node15</title>
<g id="a_edge14_Node000001_Node000015"><a xlink:title=" ">
<path fill="none" stroke="#63b8ff" d="M671.05,-623.25C662.97,-622.5 654.76,-621.74 646.54,-620.98"/>
<polygon fill="#63b8ff" stroke="#63b8ff" points="670.58,-626.72 680.86,-624.16 671.22,-619.75 670.58,-626.72"/>
</a>
</g>
</g>
<!-- Node16 -->
<g id="Node000016" class="node">
<title>Node16</title>
<g id="a_Node000016"><a xlink:href="../../d8/dff/classTplAppMemcached.html#abf57b9dc7416e6dea3d0639f71dc0b73" target="_top" xlink:title=" ">
<polygon fill="white" stroke="#666666" points="646.5,-577.75 369.5,-577.75 369.5,-536.75 646.5,-536.75 646.5,-577.75"/>
<text text-anchor="start" x="377.5" y="-560.45" font-family="Helvetica,sans-Serif" font-size="14.00">TplAppMemcached\getMenuMemcached</text>
<text text-anchor="middle" x="508" y="-543.95" font-family="Helvetica,sans-Serif" font-size="14.00">Service</text>
</a>
</g>
</g>
<!-- Node1&#45;&gt;Node16 -->
<g id="edge15_Node000001_Node000016" class="edge">
<title>Node1&#45;&gt;Node16</title>
<g id="a_edge15_Node000001_Node000016"><a xlink:title=" ">
<path fill="none" stroke="#63b8ff" d="M735.45,-616.63C709.78,-607.23 676.57,-595.71 646.5,-587.25 635.21,-584.07 623.32,-581.03 611.45,-578.19"/>
<polygon fill="#63b8ff" stroke="#63b8ff" points="733.94,-619.8 744.53,-619.99 736.37,-613.24 733.94,-619.8"/>
</a>
</g>
</g>
<!-- Node17 -->
<g id="Node000017" class="node">
<title>Node17</title>
<g id="a_Node000017"><a xlink:href="../../d6/d19/classTplAppMysql.html#ab73238f0e33b03f8ce20144b582e5609" target="_top" xlink:title=" ">
<polygon fill="white" stroke="#666666" points="605.25,-518.5 410.75,-518.5 410.75,-494 605.25,-494 605.25,-518.5"/>
<text text-anchor="middle" x="508" y="-501.2" font-family="Helvetica,sans-Serif" font-size="14.00">TplAppMysql\getMenuMysql</text>
</a>
</g>
</g>
<!-- Node1&#45;&gt;Node17 -->
<g id="edge16_Node000001_Node000017" class="edge">
<title>Node1&#45;&gt;Node17</title>
<g id="a_edge16_Node000001_Node000017"><a xlink:title=" ">
<path fill="none" stroke="#63b8ff" d="M759.8,-612.51C735.75,-588.1 692.23,-548.35 646.5,-528.25 633.66,-522.61 619.59,-518.39 605.49,-515.25"/>
<polygon fill="#63b8ff" stroke="#63b8ff" points="757.23,-614.89 766.7,-619.66 762.27,-610.03 757.23,-614.89"/>
</a>
</g>
</g>
<!-- Node18 -->
<g id="Node000018" class="node">
<title>Node18</title>
<g id="a_Node000018"><a xlink:href="../../d6/d19/classTplAppMysql.html#a1514c87f9ff4a5a4e042c8b6aafc957c" target="_top" xlink:title=" ">
<polygon fill="white" stroke="#666666" points="605.25,-475.75 410.75,-475.75 410.75,-434.75 605.25,-434.75 605.25,-475.75"/>
<text text-anchor="start" x="418.75" y="-458.45" font-family="Helvetica,sans-Serif" font-size="14.00">TplAppMysql\getMenuMysql</text>
<text text-anchor="middle" x="508" y="-441.95" font-family="Helvetica,sans-Serif" font-size="14.00">Service</text>
</a>
</g>
</g>
<!-- Node1&#45;&gt;Node18 -->
<g id="edge17_Node000001_Node000018" class="edge">
<title>Node1&#45;&gt;Node18</title>
<g id="a_edge17_Node000001_Node000018"><a xlink:title=" ">
<path fill="none" stroke="#63b8ff" d="M765.67,-610.88C744.6,-577.9 700.57,-516.75 646.5,-485.25 633.94,-477.93 619.79,-472.4 605.47,-468.21"/>
<polygon fill="#63b8ff" stroke="#63b8ff" points="762.62,-612.61 770.89,-619.24 768.56,-608.9 762.62,-612.61"/>
</a>
</g>
</g>
<!-- Node19 -->
<g id="Node000019" class="node">
<title>Node19</title>
<g id="a_Node000019"><a xlink:href="../../dc/d32/classTplAppNodejs.html#ae6136fcf0895063f90caa2b191d0d11b" target="_top" xlink:title=" ">
<polygon fill="white" stroke="#666666" points="613.5,-416.5 402.5,-416.5 402.5,-392 613.5,-392 613.5,-416.5"/>
<text text-anchor="middle" x="508" y="-399.2" font-family="Helvetica,sans-Serif" font-size="14.00">TplAppNodejs\getMenuNodejs</text>
</a>
</g>
</g>
<!-- Node1&#45;&gt;Node19 -->
<g id="edge18_Node000001_Node000019" class="edge">
<title>Node1&#45;&gt;Node19</title>
<g id="a_edge18_Node000001_Node000019"><a xlink:title=" ">
<path fill="none" stroke="#63b8ff" d="M771.46,-609.89C755.72,-565.94 715.35,-471.34 646.5,-426.25 636.59,-419.76 625.44,-414.95 613.88,-411.41"/>
<polygon fill="#63b8ff" stroke="#63b8ff" points="768.1,-610.88 774.67,-619.19 774.72,-608.6 768.1,-610.88"/>
</a>
</g>
</g>
<!-- Node20 -->
<g id="Node000020" class="node">
<title>Node20</title>
<g id="a_Node000020"><a xlink:href="../../d0/d1a/classTplAppPhp.html#a1f03b6b08aba4677031cc2f46550690c" target="_top" xlink:title=" ">
<polygon fill="white" stroke="#666666" points="594,-373.5 422,-373.5 422,-349 594,-349 594,-373.5"/>
<text text-anchor="middle" x="508" y="-356.2" font-family="Helvetica,sans-Serif" font-size="14.00">TplAppPhp\getMenuPhp</text>
</a>
</g>
</g>
<!-- Node1&#45;&gt;Node20 -->
<g id="edge19_Node000001_Node000020" class="edge">
<title>Node1&#45;&gt;Node20</title>
<g id="a_edge19_Node000001_Node000020"><a xlink:title=" ">
<path fill="none" stroke="#63b8ff" d="M774,-609.41C761.75,-558.64 725.69,-439.89 646.5,-383.25 631.36,-372.42 612.89,-366.12 594.46,-362.59"/>
<polygon fill="#63b8ff" stroke="#63b8ff" points="770.56,-610.07 776.22,-619.03 777.38,-608.5 770.56,-610.07"/>
</a>
</g>
</g>
<!-- Node21 -->
<g id="Node000021" class="node">
<title>Node21</title>
<g id="a_Node000021"><a xlink:href="../../d3/d1b/classTplAppPostgresql.html#ae7611346aa23c70ab2d933dcf5b75e44" target="_top" xlink:title=" ">
<polygon fill="white" stroke="#666666" points="603,-330.75 413,-330.75 413,-289.75 603,-289.75 603,-330.75"/>
<text text-anchor="start" x="421" y="-313.45" font-family="Helvetica,sans-Serif" font-size="14.00">TplAppPostgresql\getMenu</text>
<text text-anchor="middle" x="508" y="-296.95" font-family="Helvetica,sans-Serif" font-size="14.00">Postgresql</text>
</a>
</g>
</g>
<!-- Node1&#45;&gt;Node21 -->
<g id="edge20_Node000001_Node000021" class="edge">
<title>Node1&#45;&gt;Node21</title>
<g id="a_edge20_Node000001_Node000021"><a xlink:title=" ">
<path fill="none" stroke="#63b8ff" d="M775.64,-609.28C766.13,-552.9 734.27,-411.27 646.5,-340.25 634.06,-330.18 618.98,-323.3 603.43,-318.64"/>
<polygon fill="#63b8ff" stroke="#63b8ff" points="772.17,-609.72 777.2,-619.05 779.08,-608.63 772.17,-609.72"/>
</a>
</g>
</g>
<!-- Node22 -->
<g id="Node000022" class="node">
<title>Node22</title>
<g id="a_Node000022"><a xlink:href="../../d3/d1b/classTplAppPostgresql.html#aa8d1826905ca5f8d880a9cebe58ca223" target="_top" xlink:title=" ">
<polygon fill="white" stroke="#666666" points="603,-271.75 413,-271.75 413,-230.75 603,-230.75 603,-271.75"/>
<text text-anchor="start" x="421" y="-254.45" font-family="Helvetica,sans-Serif" font-size="14.00">TplAppPostgresql\getMenu</text>
<text text-anchor="middle" x="508" y="-237.95" font-family="Helvetica,sans-Serif" font-size="14.00">PostgresqlService</text>
</a>
</g>
</g>
<!-- Node1&#45;&gt;Node22 -->
<g id="edge21_Node000001_Node000022" class="edge">
<title>Node1&#45;&gt;Node22</title>
<g id="a_edge21_Node000001_Node000022"><a xlink:title=" ">
<path fill="none" stroke="#63b8ff" d="M777.66,-609.39C772.41,-545.55 748.88,-369.72 646.5,-281.25 634.21,-270.63 619.02,-263.5 603.28,-258.77"/>
<polygon fill="#63b8ff" stroke="#63b8ff" points="774.15,-609.38 778.38,-619.09 781.14,-608.86 774.15,-609.38"/>
</a>
</g>
</g>
<!-- Node23 -->
<g id="Node000023" class="node">
<title>Node23</title>
<g id="a_Node000023"><a xlink:href="../../dc/dd8/classTplAppTools.html#a97812c609b88d8652034a1bf78725687" target="_top" xlink:title=" ">
<polygon fill="white" stroke="#666666" points="604.5,-212.5 411.5,-212.5 411.5,-188 604.5,-188 604.5,-212.5"/>
<text text-anchor="middle" x="508" y="-195.2" font-family="Helvetica,sans-Serif" font-size="14.00">TplAppTools\getMenuTools</text>
</a>
</g>
</g>
<!-- Node1&#45;&gt;Node23 -->
<g id="edge22_Node000001_Node000023" class="edge">
<title>Node1&#45;&gt;Node23</title>
<g id="a_edge22_Node000001_Node000023"><a xlink:title=" ">
<path fill="none" stroke="#63b8ff" d="M779.41,-609.48C778.86,-538.28 766.79,-325.36 646.5,-222.25 634.66,-212.1 620.06,-205.67 604.84,-201.73"/>
<polygon fill="#63b8ff" stroke="#63b8ff" points="775.91,-609.2 779.4,-619.2 782.91,-609.2 775.91,-609.2"/>
</a>
</g>
</g>
<!-- Node24 -->
<g id="Node000024" class="node">
<title>Node24</title>
<g id="a_Node000024"><a xlink:href="../../dc/d83/classTplAppXlight.html#af5d3e9e4275051253786be7055330a6c" target="_top" xlink:title=" ">
<polygon fill="white" stroke="#666666" points="603.75,-169.5 412.25,-169.5 412.25,-145 603.75,-145 603.75,-169.5"/>
<text text-anchor="middle" x="508" y="-152.2" font-family="Helvetica,sans-Serif" font-size="14.00">TplAppXlight\getMenuXlight</text>
</a>
</g>
</g>
<!-- Node1&#45;&gt;Node24 -->
<g id="edge23_Node000001_Node000024" class="edge">
<title>Node1&#45;&gt;Node24</title>
<g id="a_edge23_Node000001_Node000024"><a xlink:title=" ">
<path fill="none" stroke="#63b8ff" d="M775.59,-609.62C762.41,-524.9 713.5,-238.33 646.5,-179.25 634.53,-168.7 619.6,-162.12 604.02,-158.18"/>
<polygon fill="#63b8ff" stroke="#63b8ff" points="772.1,-609.96 777.07,-619.31 779.02,-608.9 772.1,-609.96"/>
</a>
</g>
</g>
<!-- Node25 -->
<g id="Node000025" class="node">
<title>Node25</title>
<g id="a_Node000025"><a xlink:href="../../dc/d83/classTplAppXlight.html#ae864a091d96295893e91db73a0dd3188" target="_top" xlink:title=" ">
<polygon fill="white" stroke="#666666" points="603.75,-126.75 412.25,-126.75 412.25,-85.75 603.75,-85.75 603.75,-126.75"/>
<text text-anchor="start" x="420.25" y="-109.45" font-family="Helvetica,sans-Serif" font-size="14.00">TplAppXlight\getMenuXlight</text>
<text text-anchor="middle" x="508" y="-92.95" font-family="Helvetica,sans-Serif" font-size="14.00">Service</text>
</a>
</g>
</g>
<!-- Node1&#45;&gt;Node25 -->
<g id="edge24_Node000001_Node000025" class="edge">
<title>Node1&#45;&gt;Node25</title>
<g id="a_edge24_Node000001_Node000025"><a xlink:title=" ">
<path fill="none" stroke="#63b8ff" d="M776.04,-609.3C763.99,-519.39 717.21,-203.78 646.5,-136.25 634.75,-125.03 619.83,-117.61 604.17,-112.78"/>
<polygon fill="#63b8ff" stroke="#63b8ff" points="772.56,-609.69 777.34,-619.15 779.5,-608.78 772.56,-609.69"/>
</a>
</g>
</g>
<!-- Node26 -->
<g id="Node000026" class="node">
<title>Node26</title>
<g id="a_Node000026"><a xlink:href="../../d1/d65/classTplApp.html#a7548fa52341ab60cfa061827d44cf43c" target="_top" xlink:title=" ">
<polygon fill="white" stroke="#666666" points="604.88,-67.5 411.12,-67.5 411.12,-43 604.88,-43 604.88,-67.5"/>
<text text-anchor="middle" x="508" y="-50.2" font-family="Helvetica,sans-Serif" font-size="14.00">TplApp\getSectionMenuLeft</text>
</a>
</g>
</g>
<!-- Node1&#45;&gt;Node26 -->
<g id="edge25_Node000001_Node000026" class="edge">
<title>Node1&#45;&gt;Node26</title>
<g id="a_edge25_Node000001_Node000026"><a xlink:title=" ">
<path fill="none" stroke="#63b8ff" d="M776.88,-609.19C767.35,-512.24 726.94,-151.83 646.5,-77.25 634.98,-66.57 620.44,-59.89 605.17,-55.87"/>
<polygon fill="#63b8ff" stroke="#63b8ff" points="773.4,-609.48 777.84,-619.1 780.36,-608.81 773.4,-609.48"/>
</a>
</g>
</g>
<!-- Node29 -->
<g id="Node000029" class="node">
<title>Node29</title>
<g id="a_Node000029"><a xlink:href="../../d1/d65/classTplApp.html#a9db61fdb53ab5d42766b0634f77dd458" target="_top" xlink:title=" ">
<polygon fill="white" stroke="#666666" points="609,-24.5 407,-24.5 407,0 609,0 609,-24.5"/>
<text text-anchor="middle" x="508" y="-7.2" font-family="Helvetica,sans-Serif" font-size="14.00">TplApp\getSectionMenuRight</text>
</a>
</g>
</g>
<!-- Node1&#45;&gt;Node29 -->
<g id="edge28_Node000001_Node000029" class="edge">
<title>Node1&#45;&gt;Node29</title>
<g id="a_edge28_Node000001_Node000029"><a xlink:title=" ">
<path fill="none" stroke="#63b8ff" d="M777.33,-609.32C769.25,-507.95 732.73,-115.51 646.5,-34.25 636.03,-24.38 623,-17.92 609.17,-13.8"/>
<polygon fill="#63b8ff" stroke="#63b8ff" points="773.84,-609.47 778.1,-619.17 780.81,-608.93 773.84,-609.47"/>
</a>
</g>
</g>
<!-- Node27 -->
<g id="Node000027" class="node">
<title>Node27</title>
<g id="a_Node000027"><a xlink:href="../../d1/d65/classTplApp.html#a57b270c79fbb8b220ad02af08368e367" target="_top" xlink:title=" ">
<polygon fill="white" stroke="#666666" points="333.5,-45.5 215.5,-45.5 215.5,-21 333.5,-21 333.5,-45.5"/>
<text text-anchor="middle" x="274.5" y="-28.2" font-family="Helvetica,sans-Serif" font-size="14.00">TplApp\process</text>
</a>
</g>
</g>
<!-- Node26&#45;&gt;Node27 -->
<g id="edge26_Node000026_Node000027" class="edge">
<title>Node26&#45;&gt;Node27</title>
<g id="a_edge26_Node000026_Node000027"><a xlink:title=" ">
<path fill="none" stroke="#63b8ff" d="M399.45,-45.03C376.9,-42.89 353.92,-40.7 333.98,-38.81"/>
<polygon fill="#63b8ff" stroke="#63b8ff" points="399.04,-48.51 409.33,-45.97 399.7,-41.54 399.04,-48.51"/>
</a>
</g>
</g>
<!-- Node28 -->
<g id="Node000028" class="node">
<title>Node28</title>
<g id="a_Node000028"><a xlink:href="../../dd/dea/classActionReload.html#a9caf3b20c05475876e5dc72cdcdf6024" target="_top" xlink:title=" ">
<polygon fill="white" stroke="#666666" points="179.5,-45.5 0,-45.5 0,-21 179.5,-21 179.5,-45.5"/>
<text text-anchor="middle" x="89.75" y="-28.2" font-family="Helvetica,sans-Serif" font-size="14.00">ActionReload\__construct</text>
</a>
</g>
</g>
<!-- Node27&#45;&gt;Node28 -->
<g id="edge27_Node000027_Node000028" class="edge">
<title>Node27&#45;&gt;Node28</title>
<g id="a_edge27_Node000027_Node000028"><a xlink:title=" ">
<path fill="none" stroke="#63b8ff" d="M203.85,-33.25C195.99,-33.25 187.9,-33.25 179.83,-33.25"/>
<polygon fill="#63b8ff" stroke="#63b8ff" points="203.66,-36.75 213.66,-33.25 203.66,-29.75 203.66,-36.75"/>
</a>
</g>
</g>
<!-- Node29&#45;&gt;Node27 -->
<g id="edge29_Node000029_Node000027" class="edge">
<title>Node29&#45;&gt;Node27</title>
<g id="a_edge29_Node000029_Node000027"><a xlink:title=" ">
<path fill="none" stroke="#63b8ff" d="M395.36,-22.38C374.07,-24.31 352.6,-26.26 333.82,-27.96"/>
<polygon fill="#63b8ff" stroke="#63b8ff" points="395.66,-25.86 405.3,-21.48 395.02,-18.89 395.66,-25.86"/>
</a>
</g>
</g>
</g>
</svg>
