<?xml version="1.0" encoding="UTF-8" standalone="no"?>
<!--
  - Copyright (c) 2021-2024 Bearsampp
  - License:  GNU General Public License version 3 or later; see LICENSE.txt
  - Author: Bear
  - Website: https://bearsampp.com
  - Github: https://github.com/Bearsampp
  -->

<!DOCTYPE svg PUBLIC "-//W3C//DTD SVG 1.1//EN"
 "http://www.w3.org/Graphics/SVG/1.1/DTD/svg11.dtd">
<!-- Generated by graphviz version 11.0.0 (20240428.1522)
 -->
<!-- Title: TplAestan\getItemActionServiceStop Pages: 1 -->
<svg width="572pt" height="521pt"
 viewBox="0.00 0.00 571.75 521.00" xmlns="http://www.w3.org/2000/svg" xmlns:xlink="http://www.w3.org/1999/xlink">
<g id="graph0" class="graph" transform="scale(1 1) rotate(0) translate(4 517)">
<title>TplAestan\getItemActionServiceStop</title>
<!-- Node1 -->
<g id="Node000001" class="node">
<title>Node1</title>
<g id="a_Node000001"><a xlink:title=" ">
<polygon fill="#999999" stroke="#666666" points="563.75,-268.75 313,-268.75 313,-244.25 563.75,-244.25 563.75,-268.75"/>
<text text-anchor="middle" x="438.38" y="-251.45" font-family="Helvetica,sans-Serif" font-size="14.00">TplAestan\getItemActionServiceStop</text>
</a>
</g>
</g>
<!-- Node2 -->
<g id="Node000002" class="node">
<title>Node2</title>
<g id="a_Node000002"><a xlink:href="../../d9/d51/classTplAppApache.html#a2f3f97f1fc8f704526200be781758eec" target="_top" xlink:title=" ">
<polygon fill="white" stroke="#666666" points="247.75,-513 29.25,-513 29.25,-472 247.75,-472 247.75,-513"/>
<text text-anchor="start" x="37.25" y="-495.7" font-family="Helvetica,sans-Serif" font-size="14.00">TplAppApache\getMenuApache</text>
<text text-anchor="middle" x="138.5" y="-479.2" font-family="Helvetica,sans-Serif" font-size="14.00">Service</text>
</a>
</g>
</g>
<!-- Node1&#45;&gt;Node2 -->
<g id="edge1_Node000001_Node000002" class="edge">
<title>Node1&#45;&gt;Node2</title>
<g id="a_edge1_Node000001_Node000002"><a xlink:title=" ">
<path fill="none" stroke="#63b8ff" d="M426.59,-279.35C404.85,-322.74 351.42,-416.87 277,-463.5 268.11,-469.07 258.33,-473.59 248.2,-477.25"/>
<polygon fill="#63b8ff" stroke="#63b8ff" points="429.62,-281.12 430.87,-270.6 423.33,-278.04 429.62,-281.12"/>
</a>
</g>
</g>
<!-- Node3 -->
<g id="Node000003" class="node">
<title>Node3</title>
<g id="a_Node000003"><a xlink:href="../../d0/d23/classTplAppFilezilla.html#a89f9b4439470e541b663fd23c641a352" target="_top" xlink:title=" ">
<polygon fill="white" stroke="#666666" points="245.5,-454 31.5,-454 31.5,-413 245.5,-413 245.5,-454"/>
<text text-anchor="start" x="39.5" y="-436.7" font-family="Helvetica,sans-Serif" font-size="14.00">TplAppFilezilla\getMenuFilezilla</text>
<text text-anchor="middle" x="138.5" y="-420.2" font-family="Helvetica,sans-Serif" font-size="14.00">Service</text>
</a>
</g>
</g>
<!-- Node1&#45;&gt;Node3 -->
<g id="edge2_Node000001_Node000003" class="edge">
<title>Node1&#45;&gt;Node3</title>
<g id="a_edge2_Node000001_Node000003"><a xlink:title=" ">
<path fill="none" stroke="#63b8ff" d="M420.69,-278.01C394.05,-310.77 338.59,-372.7 277,-404.5 267.24,-409.54 256.67,-413.7 245.87,-417.14"/>
<polygon fill="#63b8ff" stroke="#63b8ff" points="423.27,-280.4 426.77,-270.4 417.8,-276.03 423.27,-280.4"/>
</a>
</g>
</g>
<!-- Node4 -->
<g id="Node000004" class="node">
<title>Node4</title>
<g id="a_Node000004"><a xlink:href="../../d4/d8a/classTplAppMailhog.html#a5ba72143a30f15dad27bcc703da4d97e" target="_top" xlink:title=" ">
<polygon fill="white" stroke="#666666" points="247.75,-395 29.25,-395 29.25,-354 247.75,-354 247.75,-395"/>
<text text-anchor="start" x="37.25" y="-377.7" font-family="Helvetica,sans-Serif" font-size="14.00">TplAppMailhog\getMenuMailhog</text>
<text text-anchor="middle" x="138.5" y="-361.2" font-family="Helvetica,sans-Serif" font-size="14.00">Service</text>
</a>
</g>
</g>
<!-- Node1&#45;&gt;Node4 -->
<g id="edge3_Node000001_Node000004" class="edge">
<title>Node1&#45;&gt;Node4</title>
<g id="a_edge3_Node000001_Node000004"><a xlink:title=" ">
<path fill="none" stroke="#63b8ff" d="M409.72,-275.23C378.7,-295.42 326.26,-327.11 277,-345.5 267.74,-348.96 257.97,-352.04 248.09,-354.79"/>
<polygon fill="#63b8ff" stroke="#63b8ff" points="411.32,-278.37 417.74,-269.95 407.47,-272.52 411.32,-278.37"/>
</a>
</g>
</g>
<!-- Node5 -->
<g id="Node000005" class="node">
<title>Node5</title>
<g id="a_Node000005"><a xlink:href="../../d8/dd3/classTplAppMailpit.html#a6ac3b9462d198c5ab2b215ec1fbb7ebe" target="_top" xlink:title=" ">
<polygon fill="white" stroke="#666666" points="238.75,-336 38.25,-336 38.25,-295 238.75,-295 238.75,-336"/>
<text text-anchor="start" x="46.25" y="-318.7" font-family="Helvetica,sans-Serif" font-size="14.00">TplAppMailpit\getMenuMailpit</text>
<text text-anchor="middle" x="138.5" y="-302.2" font-family="Helvetica,sans-Serif" font-size="14.00">Service</text>
</a>
</g>
</g>
<!-- Node1&#45;&gt;Node5 -->
<g id="edge4_Node000001_Node000005" class="edge">
<title>Node1&#45;&gt;Node5</title>
<g id="a_edge4_Node000001_Node000005"><a xlink:title=" ">
<path fill="none" stroke="#63b8ff" d="M361.82,-271.46C324.57,-278.84 279.16,-287.84 239.11,-295.77"/>
<polygon fill="#63b8ff" stroke="#63b8ff" points="362.49,-274.9 371.62,-269.52 361.13,-268.03 362.49,-274.9"/>
</a>
</g>
</g>
<!-- Node6 -->
<g id="Node000006" class="node">
<title>Node6</title>
<g id="a_Node000006"><a xlink:href="../../d4/de1/classTplAppMariadb.html#a2c6a44257c87226af4b314640f693215" target="_top" xlink:title=" ">
<polygon fill="white" stroke="#666666" points="249.25,-277 27.75,-277 27.75,-236 249.25,-236 249.25,-277"/>
<text text-anchor="start" x="35.75" y="-259.7" font-family="Helvetica,sans-Serif" font-size="14.00">TplAppMariadb\getMenuMariadb</text>
<text text-anchor="middle" x="138.5" y="-243.2" font-family="Helvetica,sans-Serif" font-size="14.00">Service</text>
</a>
</g>
</g>
<!-- Node1&#45;&gt;Node6 -->
<g id="edge5_Node000001_Node000006" class="edge">
<title>Node1&#45;&gt;Node6</title>
<g id="a_edge5_Node000001_Node000006"><a xlink:title=" ">
<path fill="none" stroke="#63b8ff" d="M301.38,-256.5C283.96,-256.5 266.31,-256.5 249.39,-256.5"/>
<polygon fill="#63b8ff" stroke="#63b8ff" points="301.26,-260 311.26,-256.5 301.26,-253 301.26,-260"/>
</a>
</g>
</g>
<!-- Node7 -->
<g id="Node000007" class="node">
<title>Node7</title>
<g id="a_Node000007"><a xlink:href="../../d8/dff/classTplAppMemcached.html#abf57b9dc7416e6dea3d0639f71dc0b73" target="_top" xlink:title=" ">
<polygon fill="white" stroke="#666666" points="277,-218 0,-218 0,-177 277,-177 277,-218"/>
<text text-anchor="start" x="8" y="-200.7" font-family="Helvetica,sans-Serif" font-size="14.00">TplAppMemcached\getMenuMemcached</text>
<text text-anchor="middle" x="138.5" y="-184.2" font-family="Helvetica,sans-Serif" font-size="14.00">Service</text>
</a>
</g>
</g>
<!-- Node1&#45;&gt;Node7 -->
<g id="edge6_Node000001_Node000007" class="edge">
<title>Node1&#45;&gt;Node7</title>
<g id="a_edge6_Node000001_Node000007"><a xlink:title=" ">
<path fill="none" stroke="#63b8ff" d="M361.9,-241.55C326.52,-234.54 283.77,-226.08 245.24,-218.44"/>
<polygon fill="#63b8ff" stroke="#63b8ff" points="361.13,-244.97 371.62,-243.48 362.49,-238.1 361.13,-244.97"/>
</a>
</g>
</g>
<!-- Node8 -->
<g id="Node000008" class="node">
<title>Node8</title>
<g id="a_Node000008"><a xlink:href="../../d6/d19/classTplAppMysql.html#a1514c87f9ff4a5a4e042c8b6aafc957c" target="_top" xlink:title=" ">
<polygon fill="white" stroke="#666666" points="235.75,-159 41.25,-159 41.25,-118 235.75,-118 235.75,-159"/>
<text text-anchor="start" x="49.25" y="-141.7" font-family="Helvetica,sans-Serif" font-size="14.00">TplAppMysql\getMenuMysql</text>
<text text-anchor="middle" x="138.5" y="-125.2" font-family="Helvetica,sans-Serif" font-size="14.00">Service</text>
</a>
</g>
</g>
<!-- Node1&#45;&gt;Node8 -->
<g id="edge7_Node000001_Node000008" class="edge">
<title>Node1&#45;&gt;Node8</title>
<g id="a_edge7_Node000001_Node000008"><a xlink:title=" ">
<path fill="none" stroke="#63b8ff" d="M409.15,-237.73C378.02,-217.83 325.84,-186.79 277,-168.5 263.96,-163.62 249.91,-159.42 235.94,-155.85"/>
<polygon fill="#63b8ff" stroke="#63b8ff" points="406.92,-240.46 417.22,-242.95 410.72,-234.58 406.92,-240.46"/>
</a>
</g>
</g>
<!-- Node9 -->
<g id="Node000009" class="node">
<title>Node9</title>
<g id="a_Node000009"><a xlink:href="../../d3/d1b/classTplAppPostgresql.html#aa8d1826905ca5f8d880a9cebe58ca223" target="_top" xlink:title=" ">
<polygon fill="white" stroke="#666666" points="233.5,-100 43.5,-100 43.5,-59 233.5,-59 233.5,-100"/>
<text text-anchor="start" x="51.5" y="-82.7" font-family="Helvetica,sans-Serif" font-size="14.00">TplAppPostgresql\getMenu</text>
<text text-anchor="middle" x="138.5" y="-66.2" font-family="Helvetica,sans-Serif" font-size="14.00">PostgresqlService</text>
</a>
</g>
</g>
<!-- Node1&#45;&gt;Node9 -->
<g id="edge8_Node000001_Node000009" class="edge">
<title>Node1&#45;&gt;Node9</title>
<g id="a_edge8_Node000001_Node000009"><a xlink:title=" ">
<path fill="none" stroke="#63b8ff" d="M420.63,-235.19C393.91,-202.72 338.34,-141.31 277,-109.5 263.66,-102.58 248.79,-97.26 233.91,-93.16"/>
<polygon fill="#63b8ff" stroke="#63b8ff" points="417.72,-237.15 426.73,-242.72 423.16,-232.75 417.72,-237.15"/>
</a>
</g>
</g>
<!-- Node10 -->
<g id="Node000010" class="node">
<title>Node10</title>
<g id="a_Node000010"><a xlink:href="../../dc/d83/classTplAppXlight.html#ae864a091d96295893e91db73a0dd3188" target="_top" xlink:title=" ">
<polygon fill="white" stroke="#666666" points="234.25,-41 42.75,-41 42.75,0 234.25,0 234.25,-41"/>
<text text-anchor="start" x="50.75" y="-23.7" font-family="Helvetica,sans-Serif" font-size="14.00">TplAppXlight\getMenuXlight</text>
<text text-anchor="middle" x="138.5" y="-7.2" font-family="Helvetica,sans-Serif" font-size="14.00">Service</text>
</a>
</g>
</g>
<!-- Node1&#45;&gt;Node10 -->
<g id="edge9_Node000001_Node000010" class="edge">
<title>Node1&#45;&gt;Node10</title>
<g id="a_edge9_Node000001_Node000010"><a xlink:title=" ">
<path fill="none" stroke="#63b8ff" d="M426.53,-233.81C404.69,-190.71 351.09,-97.16 277,-50.5 264.18,-42.43 249.51,-36.5 234.63,-32.16"/>
<polygon fill="#63b8ff" stroke="#63b8ff" points="423.26,-235.09 430.83,-242.49 429.53,-231.98 423.26,-235.09"/>
</a>
</g>
</g>
</g>
</svg>
