<?xml version="1.0" encoding="UTF-8" standalone="no"?>
<!--
  - Copyright (c) 2021-2024 Bearsampp
  - License:  GNU General Public License version 3 or later; see LICENSE.txt
  - Author: Bear
  - Website: https://bearsampp.com
  - Github: https://github.com/Bearsampp
  -->

<!DOCTYPE svg PUBLIC "-//W3C//DTD SVG 1.1//EN"
 "http://www.w3.org/Graphics/SVG/1.1/DTD/svg11.dtd">
<!-- Generated by graphviz version 11.0.0 (20240428.1522)
 -->
<!-- Title: TplAestan\getItemConsoleZ Pages: 1 -->
<svg width="461pt" height="350pt"
 viewBox="0.00 0.00 460.75 349.50" xmlns="http://www.w3.org/2000/svg" xmlns:xlink="http://www.w3.org/1999/xlink">

<svg id="main" version="1.1" xmlns="http://www.w3.org/2000/svg" xmlns:xlink="http://www.w3.org/1999/xlink" xml:space="preserve" onload="init(evt)">
<style type="text/css"><![CDATA[
.node, .edge {opacity: 0.7;}
.node.selected, .edge.selected {opacity: 1;}
.edge:hover path { stroke: red; }
.edge:hover polygon { stroke: red; fill: red; }
]]></style>
<script type="application/ecmascript" xlink:href="../../svg.min.js"/>
<svg id="graph" class="graph">
<g id="graph0" class="graph" transform="scale(1 1) rotate(0) translate(4 345.5)">
<title>TplAestan\getItemConsoleZ</title>
<!-- Node1 -->
<g id="Node000001" class="node">
<title>Node1</title>
<g id="a_Node000001"><a xlink:title=" ">
<polygon fill="#999999" stroke="#666666" points="452.75,-190.5 257.5,-190.5 257.5,-166 452.75,-166 452.75,-190.5"/>
<text text-anchor="middle" x="355.12" y="-173.2" font-family="Helvetica,sans-Serif" font-size="14.00">TplAestan\getItemConsoleZ</text>
</a>
</g>
</g>
<!-- Node2 -->
<g id="Node000002" class="node">
<title>Node2</title>
<g id="a_Node000002"><a xlink:href="../../d0/dbb/classTplAppGit.html#aaec8cdb1aac71d62ba8ca42c626a82a5" target="_top" xlink:title=" ">
<polygon fill="white" stroke="#666666" points="189.25,-341.5 32.25,-341.5 32.25,-317 189.25,-317 189.25,-341.5"/>
<text text-anchor="middle" x="110.75" y="-324.2" font-family="Helvetica,sans-Serif" font-size="14.00">TplAppGit\getMenuGit</text>
</a>
</g>
</g>
<!-- Node1&#45;&gt;Node2 -->
<g id="edge1_Node000001_Node000002" class="edge">
<title>Node1&#45;&gt;Node2</title>
<g id="a_edge1_Node000001_Node000002"><a xlink:title=" ">
<path fill="none" stroke="#63b8ff" d="M338.4,-199.96C315.94,-229.24 271.8,-280.76 221.5,-307.25 211.61,-312.46 200.63,-316.43 189.54,-319.47"/>
<polygon fill="#63b8ff" stroke="#63b8ff" points="341.05,-202.26 344.25,-192.16 335.45,-198.06 341.05,-202.26"/>
</a>
</g>
</g>
<!-- Node3 -->
<g id="Node000003" class="node">
<title>Node3</title>
<g id="a_Node000003"><a xlink:href="../../d0/dbb/classTplAppGit.html#a548d8a4a197e49fcfa482154c22bc5b0" target="_top" xlink:title=" ">
<polygon fill="white" stroke="#666666" points="210.62,-298.5 10.88,-298.5 10.88,-274 210.62,-274 210.62,-298.5"/>
<text text-anchor="middle" x="110.75" y="-281.2" font-family="Helvetica,sans-Serif" font-size="14.00">TplAppGit\getMenuGitRepos</text>
</a>
</g>
</g>
<!-- Node1&#45;&gt;Node3 -->
<g id="edge2_Node000001_Node000003" class="edge">
<title>Node1&#45;&gt;Node3</title>
<g id="a_edge2_Node000001_Node000003"><a xlink:title=" ">
<path fill="none" stroke="#63b8ff" d="M329.98,-197.97C304.53,-217.73 262.52,-247.55 221.5,-264.25 212.5,-267.91 202.83,-270.98 193.09,-273.56"/>
<polygon fill="#63b8ff" stroke="#63b8ff" points="332.02,-200.82 337.69,-191.87 327.68,-195.32 332.02,-200.82"/>
</a>
</g>
</g>
<!-- Node4 -->
<g id="Node000004" class="node">
<title>Node4</title>
<g id="a_Node000004"><a xlink:href="../../d4/de1/classTplAppMariadb.html#a46c8afea1780be6bdd5989bccb0c67e2" target="_top" xlink:title=" ">
<polygon fill="white" stroke="#666666" points="221.5,-255.5 0,-255.5 0,-231 221.5,-231 221.5,-255.5"/>
<text text-anchor="middle" x="110.75" y="-238.2" font-family="Helvetica,sans-Serif" font-size="14.00">TplAppMariadb\getMenuMariadb</text>
</a>
</g>
</g>
<!-- Node1&#45;&gt;Node4 -->
<g id="edge3_Node000001_Node000004" class="edge">
<title>Node1&#45;&gt;Node4</title>
<g id="a_edge3_Node000001_Node000004"><a xlink:title=" ">
<path fill="none" stroke="#63b8ff" d="M307.95,-194.68C282.63,-203.31 250.57,-213.65 221.5,-221.25 208.62,-224.62 194.78,-227.76 181.41,-230.55"/>
<polygon fill="#63b8ff" stroke="#63b8ff" points="308.97,-198.03 317.28,-191.46 306.69,-191.41 308.97,-198.03"/>
</a>
</g>
</g>
<!-- Node5 -->
<g id="Node000005" class="node">
<title>Node5</title>
<g id="a_Node000005"><a xlink:href="../../d6/d19/classTplAppMysql.html#ab73238f0e33b03f8ce20144b582e5609" target="_top" xlink:title=" ">
<polygon fill="white" stroke="#666666" points="208,-212.5 13.5,-212.5 13.5,-188 208,-188 208,-212.5"/>
<text text-anchor="middle" x="110.75" y="-195.2" font-family="Helvetica,sans-Serif" font-size="14.00">TplAppMysql\getMenuMysql</text>
</a>
</g>
</g>
<!-- Node1&#45;&gt;Node5 -->
<g id="edge4_Node000001_Node000005" class="edge">
<title>Node1&#45;&gt;Node5</title>
<g id="a_edge4_Node000001_Node000005"><a xlink:title=" ">
<path fill="none" stroke="#63b8ff" d="M245.89,-188.07C233.41,-189.21 220.75,-190.36 208.43,-191.47"/>
<polygon fill="#63b8ff" stroke="#63b8ff" points="246.14,-191.57 255.78,-187.18 245.5,-184.6 246.14,-191.57"/>
</a>
</g>
</g>
<!-- Node6 -->
<g id="Node000006" class="node">
<title>Node6</title>
<g id="a_Node000006"><a xlink:href="../../dc/d32/classTplAppNodejs.html#ae6136fcf0895063f90caa2b191d0d11b" target="_top" xlink:title=" ">
<polygon fill="white" stroke="#666666" points="216.25,-169.5 5.25,-169.5 5.25,-145 216.25,-145 216.25,-169.5"/>
<text text-anchor="middle" x="110.75" y="-152.2" font-family="Helvetica,sans-Serif" font-size="14.00">TplAppNodejs\getMenuNodejs</text>
</a>
</g>
</g>
<!-- Node1&#45;&gt;Node6 -->
<g id="edge5_Node000001_Node000006" class="edge">
<title>Node1&#45;&gt;Node6</title>
<g id="a_edge5_Node000001_Node000006"><a xlink:title=" ">
<path fill="none" stroke="#63b8ff" d="M245.86,-168.87C236.06,-168.02 226.15,-167.16 216.39,-166.32"/>
<polygon fill="#63b8ff" stroke="#63b8ff" points="245.51,-172.35 255.78,-169.73 246.12,-165.38 245.51,-172.35"/>
</a>
</g>
</g>
<!-- Node7 -->
<g id="Node000007" class="node">
<title>Node7</title>
<g id="a_Node000007"><a xlink:href="../../d3/d1b/classTplAppPostgresql.html#ae7611346aa23c70ab2d933dcf5b75e44" target="_top" xlink:title=" ">
<polygon fill="white" stroke="#666666" points="205.75,-126.75 15.75,-126.75 15.75,-85.75 205.75,-85.75 205.75,-126.75"/>
<text text-anchor="start" x="23.75" y="-109.45" font-family="Helvetica,sans-Serif" font-size="14.00">TplAppPostgresql\getMenu</text>
<text text-anchor="middle" x="110.75" y="-92.95" font-family="Helvetica,sans-Serif" font-size="14.00">Postgresql</text>
</a>
</g>
</g>
<!-- Node1&#45;&gt;Node7 -->
<g id="edge6_Node000001_Node000007" class="edge">
<title>Node1&#45;&gt;Node7</title>
<g id="a_edge6_Node000001_Node000007"><a xlink:title=" ">
<path fill="none" stroke="#63b8ff" d="M304.73,-162.09C279.84,-154.08 249.15,-144.4 221.5,-136.25 211.27,-133.23 200.47,-130.15 189.8,-127.17"/>
<polygon fill="#63b8ff" stroke="#63b8ff" points="303.34,-165.32 313.93,-165.06 305.49,-158.66 303.34,-165.32"/>
</a>
</g>
</g>
<!-- Node8 -->
<g id="Node000008" class="node">
<title>Node8</title>
<g id="a_Node000008"><a xlink:href="../../de/d1b/classTplAppPython.html#a07983dd6698aad23d7418a0e7986ab2f" target="_top" xlink:title=" ">
<polygon fill="white" stroke="#666666" points="214.75,-67.5 6.75,-67.5 6.75,-43 214.75,-43 214.75,-67.5"/>
<text text-anchor="middle" x="110.75" y="-50.2" font-family="Helvetica,sans-Serif" font-size="14.00">TplAppPython\getMenuPython</text>
</a>
</g>
</g>
<!-- Node1&#45;&gt;Node8 -->
<g id="edge7_Node000001_Node000008" class="edge">
<title>Node1&#45;&gt;Node8</title>
<g id="a_edge7_Node000001_Node000008"><a xlink:title=" ">
<path fill="none" stroke="#63b8ff" d="M333.74,-157.88C309.25,-134.66 265.9,-97.31 221.5,-77.25 213.35,-73.57 204.59,-70.5 195.7,-67.94"/>
<polygon fill="#63b8ff" stroke="#63b8ff" points="331.16,-160.26 340.78,-164.69 336.02,-155.23 331.16,-160.26"/>
</a>
</g>
</g>
<!-- Node9 -->
<g id="Node000009" class="node">
<title>Node9</title>
<g id="a_Node000009"><a xlink:href="../../dc/dd8/classTplAppTools.html#a97812c609b88d8652034a1bf78725687" target="_top" xlink:title=" ">
<polygon fill="white" stroke="#666666" points="207.25,-24.5 14.25,-24.5 14.25,0 207.25,0 207.25,-24.5"/>
<text text-anchor="middle" x="110.75" y="-7.2" font-family="Helvetica,sans-Serif" font-size="14.00">TplAppTools\getMenuTools</text>
</a>
</g>
</g>
<!-- Node1&#45;&gt;Node9 -->
<g id="edge8_Node000001_Node000009" class="edge">
<title>Node1&#45;&gt;Node9</title>
<g id="a_edge8_Node000001_Node000009"><a xlink:title=" ">
<path fill="none" stroke="#63b8ff" d="M340.58,-156.37C319.4,-124.14 275.23,-64.46 221.5,-34.25 214.98,-30.58 207.94,-27.52 200.68,-24.97"/>
<polygon fill="#63b8ff" stroke="#63b8ff" points="337.47,-158 345.82,-164.53 343.36,-154.22 337.47,-158"/>
</a>
</g>
</g>
</g>
</svg>
</svg>

<style type='text/css'>
<![CDATA[
[data-mouse-over-selected='false'] { opacity: 0.7; }
[data-mouse-over-selected='true']  { opacity: 1.0; }
]]>
</style>
<script type="application/ecmascript"><![CDATA[
document.addEventListener('DOMContentLoaded', (event) => {
  highlightEdges();
  highlightAdjacentNodes();
});
]]></script>
</svg>
