<?xml version="1.0" encoding="UTF-8" standalone="no"?>
<!--
  - Copyright (c) 2021-2024 Bearsampp
  - License:  GNU General Public License version 3 or later; see LICENSE.txt
  - Author: Bear
  - Website: https://bearsampp.com
  - Github: https://github.com/Bearsampp
  -->

<!DOCTYPE svg PUBLIC "-//W3C//DTD SVG 1.1//EN"
 "http://www.w3.org/Graphics/SVG/1.1/DTD/svg11.dtd">
<!-- Generated by graphviz version 11.0.0 (20240428.1522)
 -->
<!-- Title: TplAestan\getItemLink Pages: 1 -->
<svg width="849pt" height="608pt"
 viewBox="0.00 0.00 849.00 607.50" xmlns="http://www.w3.org/2000/svg" xmlns:xlink="http://www.w3.org/1999/xlink">
<g id="graph0" class="graph" transform="scale(1 1) rotate(0) translate(4 603.5)">
<title>TplAestan\getItemLink</title>
<!-- Node1 -->
<g id="Node000001" class="node">
<title>Node1</title>
<g id="a_Node000001"><a xlink:title=" ">
<polygon fill="#999999" stroke="#666666" points="841,-319.5 682.5,-319.5 682.5,-295 841,-295 841,-319.5"/>
<text text-anchor="middle" x="761.75" y="-302.2" font-family="Helvetica,sans-Serif" font-size="14.00">TplAestan\getItemLink</text>
</a>
</g>
</g>
<!-- Node2 -->
<g id="Node000002" class="node">
<title>Node2</title>
<g id="a_Node000002"><a xlink:href="../../d9/d51/classTplAppApache.html#a41883e060efdff6f2d33a272b7c3faae" target="_top" xlink:title=" ">
<polygon fill="white" stroke="#666666" points="617.25,-599.5 398.75,-599.5 398.75,-575 617.25,-575 617.25,-599.5"/>
<text text-anchor="middle" x="508" y="-582.2" font-family="Helvetica,sans-Serif" font-size="14.00">TplAppApache\getMenuApache</text>
</a>
</g>
</g>
<!-- Node1&#45;&gt;Node2 -->
<g id="edge1_Node000001_Node000002" class="edge">
<title>Node1&#45;&gt;Node2</title>
<g id="a_edge1_Node000001_Node000002"><a xlink:title=" ">
<path fill="none" stroke="#63b8ff" d="M757.78,-331.01C749.95,-382.76 723.77,-505.74 646.5,-565.25 637.88,-571.89 628.04,-576.87 617.68,-580.58"/>
<polygon fill="#63b8ff" stroke="#63b8ff" points="761.22,-331.63 759.15,-321.24 754.29,-330.66 761.22,-331.63"/>
</a>
</g>
</g>
<!-- Node3 -->
<g id="Node000003" class="node">
<title>Node3</title>
<g id="a_Node000003"><a xlink:href="../../d9/d19/classTplAppApps.html#af725443ecf95bab66dd2ec59462b37bf" target="_top" xlink:title=" ">
<polygon fill="white" stroke="#666666" points="602.25,-556.5 413.75,-556.5 413.75,-532 602.25,-532 602.25,-556.5"/>
<text text-anchor="middle" x="508" y="-539.2" font-family="Helvetica,sans-Serif" font-size="14.00">TplAppApps\getMenuApps</text>
</a>
</g>
</g>
<!-- Node1&#45;&gt;Node3 -->
<g id="edge2_Node000001_Node000003" class="edge">
<title>Node1&#45;&gt;Node3</title>
<g id="a_edge2_Node000001_Node000003"><a xlink:title=" ">
<path fill="none" stroke="#63b8ff" d="M755.59,-330.77C744.34,-375.95 713.13,-474.63 646.5,-522.25 633.62,-531.46 618.33,-537.39 602.7,-541.13"/>
<polygon fill="#63b8ff" stroke="#63b8ff" points="758.94,-331.78 757.84,-321.24 752.13,-330.17 758.94,-331.78"/>
</a>
</g>
</g>
<!-- Node4 -->
<g id="Node000004" class="node">
<title>Node4</title>
<g id="a_Node000004"><a xlink:href="../../d0/d23/classTplAppFilezilla.html#ac79291983a2d52baddaff20066557be6" target="_top" xlink:title=" ">
<polygon fill="white" stroke="#666666" points="615,-513.5 401,-513.5 401,-489 615,-489 615,-513.5"/>
<text text-anchor="middle" x="508" y="-496.2" font-family="Helvetica,sans-Serif" font-size="14.00">TplAppFilezilla\getMenuFilezilla</text>
</a>
</g>
</g>
<!-- Node1&#45;&gt;Node4 -->
<g id="edge3_Node000001_Node000004" class="edge">
<title>Node1&#45;&gt;Node4</title>
<g id="a_edge3_Node000001_Node000004"><a xlink:title=" ">
<path fill="none" stroke="#63b8ff" d="M752.54,-330.29C737.74,-368.18 702.79,-443.05 646.5,-479.25 636.94,-485.4 626.26,-490.03 615.19,-493.49"/>
<polygon fill="#63b8ff" stroke="#63b8ff" points="755.71,-331.81 755.95,-321.22 749.15,-329.34 755.71,-331.81"/>
</a>
</g>
</g>
<!-- Node5 -->
<g id="Node000005" class="node">
<title>Node5</title>
<g id="a_Node000005"><a xlink:href="../../d4/d8a/classTplAppMailhog.html#a67c2c3057bcdaac6cf91614662582c6d" target="_top" xlink:title=" ">
<polygon fill="white" stroke="#666666" points="617.25,-470.5 398.75,-470.5 398.75,-446 617.25,-446 617.25,-470.5"/>
<text text-anchor="middle" x="508" y="-453.2" font-family="Helvetica,sans-Serif" font-size="14.00">TplAppMailhog\getMenuMailhog</text>
</a>
</g>
</g>
<!-- Node1&#45;&gt;Node5 -->
<g id="edge4_Node000001_Node000005" class="edge">
<title>Node1&#45;&gt;Node5</title>
<g id="a_edge4_Node000001_Node000005"><a xlink:title=" ">
<path fill="none" stroke="#63b8ff" d="M747.88,-329.57C729.49,-359.23 692.74,-410.85 646.5,-436.25 637.49,-441.2 627.69,-445.11 617.6,-448.19"/>
<polygon fill="#63b8ff" stroke="#63b8ff" points="750.87,-331.39 753.03,-321.02 744.87,-327.78 750.87,-331.39"/>
</a>
</g>
</g>
<!-- Node6 -->
<g id="Node000006" class="node">
<title>Node6</title>
<g id="a_Node000006"><a xlink:href="../../d8/dd3/classTplAppMailpit.html#a6b11486b7c0c3abff5bd9a69107e739f" target="_top" xlink:title=" ">
<polygon fill="white" stroke="#666666" points="608.25,-427.5 407.75,-427.5 407.75,-403 608.25,-403 608.25,-427.5"/>
<text text-anchor="middle" x="508" y="-410.2" font-family="Helvetica,sans-Serif" font-size="14.00">TplAppMailpit\getMenuMailpit</text>
</a>
</g>
</g>
<!-- Node1&#45;&gt;Node6 -->
<g id="edge5_Node000001_Node000006" class="edge">
<title>Node1&#45;&gt;Node6</title>
<g id="a_edge5_Node000001_Node000006"><a xlink:title=" ">
<path fill="none" stroke="#63b8ff" d="M740.07,-327.86C718.6,-347.95 683.08,-377.7 646.5,-393.25 634.6,-398.31 621.66,-402.22 608.65,-405.23"/>
<polygon fill="#63b8ff" stroke="#63b8ff" points="742.48,-330.4 747.28,-320.95 737.64,-325.34 742.48,-330.4"/>
</a>
</g>
</g>
<!-- Node7 -->
<g id="Node000007" class="node">
<title>Node7</title>
<g id="a_Node000007"><a xlink:href="../../d4/de1/classTplAppMariadb.html#a46c8afea1780be6bdd5989bccb0c67e2" target="_top" xlink:title=" ">
<polygon fill="white" stroke="#666666" points="618.75,-384.5 397.25,-384.5 397.25,-360 618.75,-360 618.75,-384.5"/>
<text text-anchor="middle" x="508" y="-367.2" font-family="Helvetica,sans-Serif" font-size="14.00">TplAppMariadb\getMenuMariadb</text>
</a>
</g>
</g>
<!-- Node1&#45;&gt;Node7 -->
<g id="edge6_Node000001_Node000007" class="edge">
<title>Node1&#45;&gt;Node7</title>
<g id="a_edge6_Node000001_Node000007"><a xlink:title=" ">
<path fill="none" stroke="#63b8ff" d="M721.68,-324.19C699.9,-333.06 672.09,-343.46 646.5,-350.25 633.06,-353.81 618.73,-356.89 604.57,-359.51"/>
<polygon fill="#63b8ff" stroke="#63b8ff" points="722.86,-327.49 730.76,-320.43 720.18,-321.02 722.86,-327.49"/>
</a>
</g>
</g>
<!-- Node8 -->
<g id="Node000008" class="node">
<title>Node8</title>
<g id="a_Node000008"><a xlink:href="../../d8/dff/classTplAppMemcached.html#aefb8013320c0321bd6f3727349ea1045" target="_top" xlink:title=" ">
<polygon fill="white" stroke="#666666" points="646.5,-341.5 369.5,-341.5 369.5,-317 646.5,-317 646.5,-341.5"/>
<text text-anchor="middle" x="508" y="-324.2" font-family="Helvetica,sans-Serif" font-size="14.00">TplAppMemcached\getMenuMemcached</text>
</a>
</g>
</g>
<!-- Node1&#45;&gt;Node8 -->
<g id="edge7_Node000001_Node000008" class="edge">
<title>Node1&#45;&gt;Node8</title>
<g id="a_edge7_Node000001_Node000008"><a xlink:title=" ">
<path fill="none" stroke="#63b8ff" d="M670.73,-315.12C662.84,-315.81 654.74,-316.51 646.58,-317.23"/>
<polygon fill="#63b8ff" stroke="#63b8ff" points="670.97,-318.61 680.62,-314.25 670.36,-311.64 670.97,-318.61"/>
</a>
</g>
</g>
<!-- Node9 -->
<g id="Node000009" class="node">
<title>Node9</title>
<g id="a_Node000009"><a xlink:href="../../d6/d19/classTplAppMysql.html#ab73238f0e33b03f8ce20144b582e5609" target="_top" xlink:title=" ">
<polygon fill="white" stroke="#666666" points="605.25,-298.5 410.75,-298.5 410.75,-274 605.25,-274 605.25,-298.5"/>
<text text-anchor="middle" x="508" y="-281.2" font-family="Helvetica,sans-Serif" font-size="14.00">TplAppMysql\getMenuMysql</text>
</a>
</g>
</g>
<!-- Node1&#45;&gt;Node9 -->
<g id="edge8_Node000001_Node000009" class="edge">
<title>Node1&#45;&gt;Node9</title>
<g id="a_edge8_Node000001_Node000009"><a xlink:title=" ">
<path fill="none" stroke="#63b8ff" d="M670.88,-299.75C649.71,-297.99 627.07,-296.1 605.62,-294.31"/>
<polygon fill="#63b8ff" stroke="#63b8ff" points="670.37,-303.22 680.62,-300.57 670.95,-296.25 670.37,-303.22"/>
</a>
</g>
</g>
<!-- Node10 -->
<g id="Node000010" class="node">
<title>Node10</title>
<g id="a_Node000010"><a xlink:href="../../dc/d32/classTplAppNodejs.html#ae6136fcf0895063f90caa2b191d0d11b" target="_top" xlink:title=" ">
<polygon fill="white" stroke="#666666" points="613.5,-255.5 402.5,-255.5 402.5,-231 613.5,-231 613.5,-255.5"/>
<text text-anchor="middle" x="508" y="-238.2" font-family="Helvetica,sans-Serif" font-size="14.00">TplAppNodejs\getMenuNodejs</text>
</a>
</g>
</g>
<!-- Node1&#45;&gt;Node10 -->
<g id="edge9_Node000001_Node000010" class="edge">
<title>Node1&#45;&gt;Node10</title>
<g id="a_edge9_Node000001_Node000010"><a xlink:title=" ">
<path fill="none" stroke="#63b8ff" d="M720.74,-290.38C699.09,-281.8 671.69,-271.83 646.5,-265.25 632.82,-261.68 618.21,-258.59 603.81,-255.95"/>
<polygon fill="#63b8ff" stroke="#63b8ff" points="719.2,-293.53 729.78,-294.02 721.81,-287.04 719.2,-293.53"/>
</a>
</g>
</g>
<!-- Node11 -->
<g id="Node000011" class="node">
<title>Node11</title>
<g id="a_Node000011"><a xlink:href="../../d0/d1a/classTplAppPhp.html#a1f03b6b08aba4677031cc2f46550690c" target="_top" xlink:title=" ">
<polygon fill="white" stroke="#666666" points="594,-212.5 422,-212.5 422,-188 594,-188 594,-212.5"/>
<text text-anchor="middle" x="508" y="-195.2" font-family="Helvetica,sans-Serif" font-size="14.00">TplAppPhp\getMenuPhp</text>
</a>
</g>
</g>
<!-- Node1&#45;&gt;Node11 -->
<g id="edge10_Node000001_Node000011" class="edge">
<title>Node1&#45;&gt;Node11</title>
<g id="a_edge10_Node000001_Node000011"><a xlink:title=" ">
<path fill="none" stroke="#63b8ff" d="M740.03,-286.89C718.52,-267.03 682.97,-237.63 646.5,-222.25 630.24,-215.39 612.07,-210.66 594.41,-207.39"/>
<polygon fill="#63b8ff" stroke="#63b8ff" points="737.57,-289.38 747.25,-293.71 742.38,-284.3 737.57,-289.38"/>
</a>
</g>
</g>
<!-- Node12 -->
<g id="Node000012" class="node">
<title>Node12</title>
<g id="a_Node000012"><a xlink:href="../../d3/d1b/classTplAppPostgresql.html#ae7611346aa23c70ab2d933dcf5b75e44" target="_top" xlink:title=" ">
<polygon fill="white" stroke="#666666" points="603,-169.75 413,-169.75 413,-128.75 603,-128.75 603,-169.75"/>
<text text-anchor="start" x="421" y="-152.45" font-family="Helvetica,sans-Serif" font-size="14.00">TplAppPostgresql\getMenu</text>
<text text-anchor="middle" x="508" y="-135.95" font-family="Helvetica,sans-Serif" font-size="14.00">Postgresql</text>
</a>
</g>
</g>
<!-- Node1&#45;&gt;Node12 -->
<g id="edge11_Node000001_Node000012" class="edge">
<title>Node1&#45;&gt;Node12</title>
<g id="a_edge11_Node000001_Node000012"><a xlink:title=" ">
<path fill="none" stroke="#63b8ff" d="M747.34,-285.04C728.57,-255.96 691.63,-205.6 646.5,-179.25 633.31,-171.55 618.37,-165.82 603.31,-161.56"/>
<polygon fill="#63b8ff" stroke="#63b8ff" points="744.33,-286.82 752.61,-293.42 750.25,-283.09 744.33,-286.82"/>
</a>
</g>
</g>
<!-- Node13 -->
<g id="Node000013" class="node">
<title>Node13</title>
<g id="a_Node000013"><a xlink:href="../../dc/d83/classTplAppXlight.html#af5d3e9e4275051253786be7055330a6c" target="_top" xlink:title=" ">
<polygon fill="white" stroke="#666666" points="603.75,-110.5 412.25,-110.5 412.25,-86 603.75,-86 603.75,-110.5"/>
<text text-anchor="middle" x="508" y="-93.2" font-family="Helvetica,sans-Serif" font-size="14.00">TplAppXlight\getMenuXlight</text>
</a>
</g>
</g>
<!-- Node1&#45;&gt;Node13 -->
<g id="edge12_Node000001_Node000013" class="edge">
<title>Node1&#45;&gt;Node13</title>
<g id="a_edge12_Node000001_Node000013"><a xlink:title=" ">
<path fill="none" stroke="#63b8ff" d="M753.62,-283.69C740,-243.05 706.2,-160.27 646.5,-120.25 633.85,-111.77 619.1,-106.13 604.04,-102.45"/>
<polygon fill="#63b8ff" stroke="#63b8ff" points="750.28,-284.75 756.68,-293.2 756.95,-282.61 750.28,-284.75"/>
</a>
</g>
</g>
<!-- Node14 -->
<g id="Node000014" class="node">
<title>Node14</title>
<g id="a_Node000014"><a xlink:href="../../d1/d65/classTplApp.html#a7548fa52341ab60cfa061827d44cf43c" target="_top" xlink:title=" ">
<polygon fill="white" stroke="#666666" points="604.88,-67.5 411.12,-67.5 411.12,-43 604.88,-43 604.88,-67.5"/>
<text text-anchor="middle" x="508" y="-50.2" font-family="Helvetica,sans-Serif" font-size="14.00">TplApp\getSectionMenuLeft</text>
</a>
</g>
</g>
<!-- Node1&#45;&gt;Node14 -->
<g id="edge13_Node000001_Node000014" class="edge">
<title>Node1&#45;&gt;Node14</title>
<g id="a_edge13_Node000001_Node000014"><a xlink:title=" ">
<path fill="none" stroke="#63b8ff" d="M756.39,-283.46C746.33,-235.83 716.72,-128.91 646.5,-77.25 634.33,-68.3 619.9,-62.4 605.05,-58.61"/>
<polygon fill="#63b8ff" stroke="#63b8ff" points="752.95,-284.12 758.34,-293.24 759.82,-282.75 752.95,-284.12"/>
</a>
</g>
</g>
<!-- Node17 -->
<g id="Node000017" class="node">
<title>Node17</title>
<g id="a_Node000017"><a xlink:href="../../d1/d65/classTplApp.html#a9db61fdb53ab5d42766b0634f77dd458" target="_top" xlink:title=" ">
<polygon fill="white" stroke="#666666" points="609,-24.5 407,-24.5 407,0 609,0 609,-24.5"/>
<text text-anchor="middle" x="508" y="-7.2" font-family="Helvetica,sans-Serif" font-size="14.00">TplApp\getSectionMenuRight</text>
</a>
</g>
</g>
<!-- Node1&#45;&gt;Node17 -->
<g id="edge16_Node000001_Node000017" class="edge">
<title>Node1&#45;&gt;Node17</title>
<g id="a_edge16_Node000001_Node000017"><a xlink:title=" ">
<path fill="none" stroke="#63b8ff" d="M758.38,-283.25C751.67,-229.24 727.44,-97.92 646.5,-34.25 635.67,-25.73 622.85,-19.91 609.45,-16.02"/>
<polygon fill="#63b8ff" stroke="#63b8ff" points="754.9,-283.62 759.5,-293.17 761.85,-282.83 754.9,-283.62"/>
</a>
</g>
</g>
<!-- Node15 -->
<g id="Node000015" class="node">
<title>Node15</title>
<g id="a_Node000015"><a xlink:href="../../d1/d65/classTplApp.html#a57b270c79fbb8b220ad02af08368e367" target="_top" xlink:title=" ">
<polygon fill="white" stroke="#666666" points="333.5,-45.5 215.5,-45.5 215.5,-21 333.5,-21 333.5,-45.5"/>
<text text-anchor="middle" x="274.5" y="-28.2" font-family="Helvetica,sans-Serif" font-size="14.00">TplApp\process</text>
</a>
</g>
</g>
<!-- Node14&#45;&gt;Node15 -->
<g id="edge14_Node000014_Node000015" class="edge">
<title>Node14&#45;&gt;Node15</title>
<g id="a_edge14_Node000014_Node000015"><a xlink:title=" ">
<path fill="none" stroke="#63b8ff" d="M399.45,-45.03C376.9,-42.89 353.92,-40.7 333.98,-38.81"/>
<polygon fill="#63b8ff" stroke="#63b8ff" points="399.04,-48.51 409.33,-45.97 399.7,-41.54 399.04,-48.51"/>
</a>
</g>
</g>
<!-- Node16 -->
<g id="Node000016" class="node">
<title>Node16</title>
<g id="a_Node000016"><a xlink:href="../../dd/dea/classActionReload.html#a9caf3b20c05475876e5dc72cdcdf6024" target="_top" xlink:title=" ">
<polygon fill="white" stroke="#666666" points="179.5,-45.5 0,-45.5 0,-21 179.5,-21 179.5,-45.5"/>
<text text-anchor="middle" x="89.75" y="-28.2" font-family="Helvetica,sans-Serif" font-size="14.00">ActionReload\__construct</text>
</a>
</g>
</g>
<!-- Node15&#45;&gt;Node16 -->
<g id="edge15_Node000015_Node000016" class="edge">
<title>Node15&#45;&gt;Node16</title>
<g id="a_edge15_Node000015_Node000016"><a xlink:title=" ">
<path fill="none" stroke="#63b8ff" d="M203.85,-33.25C195.99,-33.25 187.9,-33.25 179.83,-33.25"/>
<polygon fill="#63b8ff" stroke="#63b8ff" points="203.66,-36.75 213.66,-33.25 203.66,-29.75 203.66,-36.75"/>
</a>
</g>
</g>
<!-- Node17&#45;&gt;Node15 -->
<g id="edge17_Node000017_Node000015" class="edge">
<title>Node17&#45;&gt;Node15</title>
<g id="a_edge17_Node000017_Node000015"><a xlink:title=" ">
<path fill="none" stroke="#63b8ff" d="M395.36,-22.38C374.07,-24.31 352.6,-26.26 333.82,-27.96"/>
<polygon fill="#63b8ff" stroke="#63b8ff" points="395.66,-25.86 405.3,-21.48 395.02,-18.89 395.66,-25.86"/>
</a>
</g>
</g>
</g>
</svg>
