<?xml version="1.0" encoding="UTF-8" standalone="no"?>
<!--
  - Copyright (c) 2021-2024 Bearsampp
  - License:  GNU General Public License version 3 or later; see LICENSE.txt
  - Author: Bear
  - Website: https://bearsampp.com
  - Github: https://github.com/Bearsampp
  -->

<!DOCTYPE svg PUBLIC "-//W3C//DTD SVG 1.1//EN"
 "http://www.w3.org/Graphics/SVG/1.1/DTD/svg11.dtd">
<!-- Generated by graphviz version 11.0.0 (20240428.1522)
 -->
<!-- Title: TplAestan\getItemNotepad Pages: 1 -->
<svg width="1116pt" height="801pt"
 viewBox="0.00 0.00 1115.50 800.50" xmlns="http://www.w3.org/2000/svg" xmlns:xlink="http://www.w3.org/1999/xlink">
<g id="graph0" class="graph" transform="scale(1 1) rotate(0) translate(4 796.5)">
<title>TplAestan\getItemNotepad</title>
<!-- Node1 -->
<g id="Node000001" class="node">
<title>Node1</title>
<g id="a_Node000001"><a xlink:title=" ">
<polygon fill="#999999" stroke="#666666" points="1107.5,-400.5 920.5,-400.5 920.5,-376 1107.5,-376 1107.5,-400.5"/>
<text text-anchor="middle" x="1014" y="-383.2" font-family="Helvetica,sans-Serif" font-size="14.00">TplAestan\getItemNotepad</text>
</a>
</g>
</g>
<!-- Node2 -->
<g id="Node000002" class="node">
<title>Node2</title>
<g id="a_Node000002"><a xlink:href="../../d9/d51/classTplAppApache.html#a41883e060efdff6f2d33a272b7c3faae" target="_top" xlink:title=" ">
<polygon fill="white" stroke="#666666" points="855.25,-792.5 636.75,-792.5 636.75,-768 855.25,-768 855.25,-792.5"/>
<text text-anchor="middle" x="746" y="-775.2" font-family="Helvetica,sans-Serif" font-size="14.00">TplAppApache\getMenuApache</text>
</a>
</g>
</g>
<!-- Node1&#45;&gt;Node2 -->
<g id="edge1_Node000001_Node000002" class="edge">
<title>Node1&#45;&gt;Node2</title>
<g id="a_edge1_Node000001_Node000002"><a xlink:title=" ">
<path fill="none" stroke="#63b8ff" d="M1012.67,-411.93C1010.35,-478.44 993.98,-668.07 884.5,-759.25 875.96,-766.36 866.06,-771.59 855.55,-775.39"/>
<polygon fill="#63b8ff" stroke="#63b8ff" points="1016.16,-412.26 1012.92,-402.17 1009.16,-412.08 1016.16,-412.26"/>
</a>
</g>
</g>
<!-- Node3 -->
<g id="Node000003" class="node">
<title>Node3</title>
<g id="a_Node000003"><a xlink:href="../../d9/d51/classTplAppApache.html#a2f3f97f1fc8f704526200be781758eec" target="_top" xlink:title=" ">
<polygon fill="white" stroke="#666666" points="855.25,-749.75 636.75,-749.75 636.75,-708.75 855.25,-708.75 855.25,-749.75"/>
<text text-anchor="start" x="644.75" y="-732.45" font-family="Helvetica,sans-Serif" font-size="14.00">TplAppApache\getMenuApache</text>
<text text-anchor="middle" x="746" y="-715.95" font-family="Helvetica,sans-Serif" font-size="14.00">Service</text>
</a>
</g>
</g>
<!-- Node1&#45;&gt;Node3 -->
<g id="edge2_Node000001_Node000003" class="edge">
<title>Node1&#45;&gt;Node3</title>
<g id="a_edge2_Node000001_Node000003"><a xlink:title=" ">
<path fill="none" stroke="#63b8ff" d="M1010.56,-412.04C1003.23,-470.64 975.9,-622.75 884.5,-699.25 875.98,-706.39 866.14,-711.93 855.72,-716.23"/>
<polygon fill="#63b8ff" stroke="#63b8ff" points="1014.03,-412.55 1011.7,-402.22 1007.07,-411.75 1014.03,-412.55"/>
</a>
</g>
</g>
<!-- Node4 -->
<g id="Node000004" class="node">
<title>Node4</title>
<g id="a_Node000004"><a xlink:href="../../d0/d23/classTplAppFilezilla.html#ac79291983a2d52baddaff20066557be6" target="_top" xlink:title=" ">
<polygon fill="white" stroke="#666666" points="853,-690.5 639,-690.5 639,-666 853,-666 853,-690.5"/>
<text text-anchor="middle" x="746" y="-673.2" font-family="Helvetica,sans-Serif" font-size="14.00">TplAppFilezilla\getMenuFilezilla</text>
</a>
</g>
</g>
<!-- Node1&#45;&gt;Node4 -->
<g id="edge3_Node000001_Node000004" class="edge">
<title>Node1&#45;&gt;Node4</title>
<g id="a_edge3_Node000001_Node000004"><a xlink:title=" ">
<path fill="none" stroke="#63b8ff" d="M1009.11,-412.28C999.1,-465.71 967.19,-594.53 884.5,-656.25 875.2,-663.19 864.55,-668.3 853.39,-672.03"/>
<polygon fill="#63b8ff" stroke="#63b8ff" points="1012.56,-412.9 1010.85,-402.44 1005.66,-411.68 1012.56,-412.9"/>
</a>
</g>
</g>
<!-- Node5 -->
<g id="Node000005" class="node">
<title>Node5</title>
<g id="a_Node000005"><a xlink:href="../../d2/d2a/classTplAppLogs.html#ad550f3529a4860bcf91ab334bac9ae80" target="_top" xlink:title=" ">
<polygon fill="white" stroke="#666666" points="838.75,-647.5 653.25,-647.5 653.25,-623 838.75,-623 838.75,-647.5"/>
<text text-anchor="middle" x="746" y="-630.2" font-family="Helvetica,sans-Serif" font-size="14.00">TplAppLogs\getMenuLogs</text>
</a>
</g>
</g>
<!-- Node1&#45;&gt;Node5 -->
<g id="edge4_Node000001_Node000005" class="edge">
<title>Node1&#45;&gt;Node5</title>
<g id="a_edge4_Node000001_Node000005"><a xlink:title=" ">
<path fill="none" stroke="#63b8ff" d="M1006.98,-411.64C993.62,-458.4 956.81,-563.22 884.5,-613.25 871.08,-622.53 855.18,-628.45 839.04,-632.13"/>
<polygon fill="#63b8ff" stroke="#63b8ff" points="1010.27,-412.85 1009.54,-402.28 1003.52,-411 1010.27,-412.85"/>
</a>
</g>
</g>
<!-- Node6 -->
<g id="Node000006" class="node">
<title>Node6</title>
<g id="a_Node000006"><a xlink:href="../../d4/d8a/classTplAppMailhog.html#a67c2c3057bcdaac6cf91614662582c6d" target="_top" xlink:title=" ">
<polygon fill="white" stroke="#666666" points="855.25,-604.5 636.75,-604.5 636.75,-580 855.25,-580 855.25,-604.5"/>
<text text-anchor="middle" x="746" y="-587.2" font-family="Helvetica,sans-Serif" font-size="14.00">TplAppMailhog\getMenuMailhog</text>
</a>
</g>
</g>
<!-- Node1&#45;&gt;Node6 -->
<g id="edge5_Node000001_Node000006" class="edge">
<title>Node1&#45;&gt;Node6</title>
<g id="a_edge5_Node000001_Node000006"><a xlink:title=" ">
<path fill="none" stroke="#63b8ff" d="M1003.98,-411.44C987.12,-451.39 946.81,-532.61 884.5,-571.25 875.57,-576.79 865.71,-581.05 855.49,-584.31"/>
<polygon fill="#63b8ff" stroke="#63b8ff" points="1007.17,-412.88 1007.71,-402.3 1000.69,-410.23 1007.17,-412.88"/>
</a>
</g>
</g>
<!-- Node7 -->
<g id="Node000007" class="node">
<title>Node7</title>
<g id="a_Node000007"><a xlink:href="../../d4/d8a/classTplAppMailhog.html#a5ba72143a30f15dad27bcc703da4d97e" target="_top" xlink:title=" ">
<polygon fill="white" stroke="#666666" points="855.25,-561.75 636.75,-561.75 636.75,-520.75 855.25,-520.75 855.25,-561.75"/>
<text text-anchor="start" x="644.75" y="-544.45" font-family="Helvetica,sans-Serif" font-size="14.00">TplAppMailhog\getMenuMailhog</text>
<text text-anchor="middle" x="746" y="-527.95" font-family="Helvetica,sans-Serif" font-size="14.00">Service</text>
</a>
</g>
</g>
<!-- Node1&#45;&gt;Node7 -->
<g id="edge6_Node000001_Node000007" class="edge">
<title>Node1&#45;&gt;Node7</title>
<g id="a_edge6_Node000001_Node000007"><a xlink:title=" ">
<path fill="none" stroke="#63b8ff" d="M997,-409.62C974.9,-437.52 932.29,-485.81 884.5,-511.25 875.44,-516.07 865.65,-520.12 855.62,-523.52"/>
<polygon fill="#63b8ff" stroke="#63b8ff" points="999.65,-411.91 1003.01,-401.86 994.12,-407.62 999.65,-411.91"/>
</a>
</g>
</g>
<!-- Node8 -->
<g id="Node000008" class="node">
<title>Node8</title>
<g id="a_Node000008"><a xlink:href="../../d8/dd3/classTplAppMailpit.html#a6b11486b7c0c3abff5bd9a69107e739f" target="_top" xlink:title=" ">
<polygon fill="white" stroke="#666666" points="846.25,-502.5 645.75,-502.5 645.75,-478 846.25,-478 846.25,-502.5"/>
<text text-anchor="middle" x="746" y="-485.2" font-family="Helvetica,sans-Serif" font-size="14.00">TplAppMailpit\getMenuMailpit</text>
</a>
</g>
</g>
<!-- Node1&#45;&gt;Node8 -->
<g id="edge7_Node000001_Node000008" class="edge">
<title>Node1&#45;&gt;Node8</title>
<g id="a_edge7_Node000001_Node000008"><a xlink:title=" ">
<path fill="none" stroke="#63b8ff" d="M988.92,-407.73C964.24,-426.62 923.98,-454.52 884.5,-469.25 872.51,-473.72 859.59,-477.24 846.64,-480.01"/>
<polygon fill="#63b8ff" stroke="#63b8ff" points="990.96,-410.58 996.7,-401.67 986.66,-405.06 990.96,-410.58"/>
</a>
</g>
</g>
<!-- Node9 -->
<g id="Node000009" class="node">
<title>Node9</title>
<g id="a_Node000009"><a xlink:href="../../d8/dd3/classTplAppMailpit.html#a6ac3b9462d198c5ab2b215ec1fbb7ebe" target="_top" xlink:title=" ">
<polygon fill="white" stroke="#666666" points="846.25,-459.75 645.75,-459.75 645.75,-418.75 846.25,-418.75 846.25,-459.75"/>
<text text-anchor="start" x="653.75" y="-442.45" font-family="Helvetica,sans-Serif" font-size="14.00">TplAppMailpit\getMenuMailpit</text>
<text text-anchor="middle" x="746" y="-425.95" font-family="Helvetica,sans-Serif" font-size="14.00">Service</text>
</a>
</g>
</g>
<!-- Node1&#45;&gt;Node9 -->
<g id="edge8_Node000001_Node000009" class="edge">
<title>Node1&#45;&gt;Node9</title>
<g id="a_edge8_Node000001_Node000009"><a xlink:title=" ">
<path fill="none" stroke="#63b8ff" d="M935.32,-403.14C907.55,-408.47 875.86,-414.54 846.5,-420.17"/>
<polygon fill="#63b8ff" stroke="#63b8ff" points="935.91,-406.59 945.08,-401.27 934.6,-399.72 935.91,-406.59"/>
</a>
</g>
</g>
<!-- Node10 -->
<g id="Node000010" class="node">
<title>Node10</title>
<g id="a_Node000010"><a xlink:href="../../d4/de1/classTplAppMariadb.html#a46c8afea1780be6bdd5989bccb0c67e2" target="_top" xlink:title=" ">
<polygon fill="white" stroke="#666666" points="856.75,-400.5 635.25,-400.5 635.25,-376 856.75,-376 856.75,-400.5"/>
<text text-anchor="middle" x="746" y="-383.2" font-family="Helvetica,sans-Serif" font-size="14.00">TplAppMariadb\getMenuMariadb</text>
</a>
</g>
</g>
<!-- Node1&#45;&gt;Node10 -->
<g id="edge9_Node000001_Node000010" class="edge">
<title>Node1&#45;&gt;Node10</title>
<g id="a_edge9_Node000001_Node000010"><a xlink:title=" ">
<path fill="none" stroke="#63b8ff" d="M909.22,-388.25C892.14,-388.25 874.39,-388.25 857.15,-388.25"/>
<polygon fill="#63b8ff" stroke="#63b8ff" points="908.83,-391.75 918.83,-388.25 908.83,-384.75 908.83,-391.75"/>
</a>
</g>
</g>
<!-- Node11 -->
<g id="Node000011" class="node">
<title>Node11</title>
<g id="a_Node000011"><a xlink:href="../../d8/dff/classTplAppMemcached.html#aefb8013320c0321bd6f3727349ea1045" target="_top" xlink:title=" ">
<polygon fill="white" stroke="#666666" points="884.5,-357.5 607.5,-357.5 607.5,-333 884.5,-333 884.5,-357.5"/>
<text text-anchor="middle" x="746" y="-340.2" font-family="Helvetica,sans-Serif" font-size="14.00">TplAppMemcached\getMenuMemcached</text>
</a>
</g>
</g>
<!-- Node1&#45;&gt;Node11 -->
<g id="edge10_Node000001_Node000011" class="edge">
<title>Node1&#45;&gt;Node11</title>
<g id="a_edge10_Node000001_Node000011"><a xlink:title=" ">
<path fill="none" stroke="#63b8ff" d="M924.4,-373.73C911.03,-371.55 897.4,-369.34 884.5,-367.25 865.77,-364.22 845.59,-360.98 826.62,-357.94"/>
<polygon fill="#63b8ff" stroke="#63b8ff" points="923.62,-377.15 934.05,-375.31 924.74,-370.24 923.62,-377.15"/>
</a>
</g>
</g>
<!-- Node12 -->
<g id="Node000012" class="node">
<title>Node12</title>
<g id="a_Node000012"><a xlink:href="../../d6/d19/classTplAppMysql.html#ab73238f0e33b03f8ce20144b582e5609" target="_top" xlink:title=" ">
<polygon fill="white" stroke="#666666" points="843.25,-314.5 648.75,-314.5 648.75,-290 843.25,-290 843.25,-314.5"/>
<text text-anchor="middle" x="746" y="-297.2" font-family="Helvetica,sans-Serif" font-size="14.00">TplAppMysql\getMenuMysql</text>
</a>
</g>
</g>
<!-- Node1&#45;&gt;Node12 -->
<g id="edge11_Node000001_Node000012" class="edge">
<title>Node1&#45;&gt;Node12</title>
<g id="a_edge11_Node000001_Node000012"><a xlink:title=" ">
<path fill="none" stroke="#63b8ff" d="M982.71,-369.86C957.35,-355.29 919.75,-335.56 884.5,-324.25 871.49,-320.08 857.53,-316.68 843.67,-313.91"/>
<polygon fill="#63b8ff" stroke="#63b8ff" points="980.75,-372.77 991.15,-374.79 984.29,-366.73 980.75,-372.77"/>
</a>
</g>
</g>
<!-- Node13 -->
<g id="Node000013" class="node">
<title>Node13</title>
<g id="a_Node000013"><a xlink:href="../../dc/d32/classTplAppNodejs.html#ae6136fcf0895063f90caa2b191d0d11b" target="_top" xlink:title=" ">
<polygon fill="white" stroke="#666666" points="851.5,-271.5 640.5,-271.5 640.5,-247 851.5,-247 851.5,-271.5"/>
<text text-anchor="middle" x="746" y="-254.2" font-family="Helvetica,sans-Serif" font-size="14.00">TplAppNodejs\getMenuNodejs</text>
</a>
</g>
</g>
<!-- Node1&#45;&gt;Node13 -->
<g id="edge12_Node000001_Node000013" class="edge">
<title>Node1&#45;&gt;Node13</title>
<g id="a_edge12_Node000001_Node000013"><a xlink:title=" ">
<path fill="none" stroke="#63b8ff" d="M994.86,-367.49C971.85,-342.63 929.7,-301.79 884.5,-281.25 874.27,-276.6 863.21,-272.91 851.98,-269.99"/>
<polygon fill="#63b8ff" stroke="#63b8ff" points="992.11,-369.67 1001.42,-374.73 997.3,-364.97 992.11,-369.67"/>
</a>
</g>
</g>
<!-- Node14 -->
<g id="Node000014" class="node">
<title>Node14</title>
<g id="a_Node000014"><a xlink:href="../../d0/d1a/classTplAppPhp.html#a1f03b6b08aba4677031cc2f46550690c" target="_top" xlink:title=" ">
<polygon fill="white" stroke="#666666" points="832,-228.5 660,-228.5 660,-204 832,-204 832,-228.5"/>
<text text-anchor="middle" x="746" y="-211.2" font-family="Helvetica,sans-Serif" font-size="14.00">TplAppPhp\getMenuPhp</text>
</a>
</g>
</g>
<!-- Node1&#45;&gt;Node14 -->
<g id="edge13_Node000001_Node000014" class="edge">
<title>Node1&#45;&gt;Node14</title>
<g id="a_edge13_Node000001_Node000014"><a xlink:title=" ">
<path fill="none" stroke="#63b8ff" d="M1000.73,-365.69C981.05,-331.88 939.03,-268.79 884.5,-238.25 868.68,-229.39 850.33,-223.83 832.29,-220.4"/>
<polygon fill="#63b8ff" stroke="#63b8ff" points="997.6,-367.27 1005.58,-374.24 1003.7,-363.82 997.6,-367.27"/>
</a>
</g>
</g>
<!-- Node15 -->
<g id="Node000015" class="node">
<title>Node15</title>
<g id="a_Node000015"><a xlink:href="../../d3/d1b/classTplAppPostgresql.html#ae7611346aa23c70ab2d933dcf5b75e44" target="_top" xlink:title=" ">
<polygon fill="white" stroke="#666666" points="841,-185.75 651,-185.75 651,-144.75 841,-144.75 841,-185.75"/>
<text text-anchor="start" x="659" y="-168.45" font-family="Helvetica,sans-Serif" font-size="14.00">TplAppPostgresql\getMenu</text>
<text text-anchor="middle" x="746" y="-151.95" font-family="Helvetica,sans-Serif" font-size="14.00">Postgresql</text>
</a>
</g>
</g>
<!-- Node1&#45;&gt;Node15 -->
<g id="edge14_Node000001_Node000015" class="edge">
<title>Node1&#45;&gt;Node15</title>
<g id="a_edge14_Node000001_Node000015"><a xlink:title=" ">
<path fill="none" stroke="#63b8ff" d="M1004.54,-365.39C988.12,-324.37 947.87,-238.52 884.5,-195.25 871.59,-186.43 856.54,-180.15 841.22,-175.68"/>
<polygon fill="#63b8ff" stroke="#63b8ff" points="1001.2,-366.45 1008.08,-374.51 1007.72,-363.92 1001.2,-366.45"/>
</a>
</g>
</g>
<!-- Node16 -->
<g id="Node000016" class="node">
<title>Node16</title>
<g id="a_Node000016"><a xlink:href="../../dc/d83/classTplAppXlight.html#af5d3e9e4275051253786be7055330a6c" target="_top" xlink:title=" ">
<polygon fill="white" stroke="#666666" points="841.75,-126.5 650.25,-126.5 650.25,-102 841.75,-102 841.75,-126.5"/>
<text text-anchor="middle" x="746" y="-109.2" font-family="Helvetica,sans-Serif" font-size="14.00">TplAppXlight\getMenuXlight</text>
</a>
</g>
</g>
<!-- Node1&#45;&gt;Node16 -->
<g id="edge15_Node000001_Node000016" class="edge">
<title>Node1&#45;&gt;Node16</title>
<g id="a_edge15_Node000001_Node000016"><a xlink:title=" ">
<path fill="none" stroke="#63b8ff" d="M1008.42,-364.6C997.21,-313.67 963.38,-193.63 884.5,-136.25 871.99,-127.15 857.14,-121.22 841.9,-117.45"/>
<polygon fill="#63b8ff" stroke="#63b8ff" points="1004.96,-365.15 1010.43,-374.23 1011.81,-363.72 1004.96,-365.15"/>
</a>
</g>
</g>
<!-- Node17 -->
<g id="Node000017" class="node">
<title>Node17</title>
<g id="a_Node000017"><a xlink:href="../../dc/d83/classTplAppXlight.html#ae864a091d96295893e91db73a0dd3188" target="_top" xlink:title=" ">
<polygon fill="white" stroke="#666666" points="841.75,-83.75 650.25,-83.75 650.25,-42.75 841.75,-42.75 841.75,-83.75"/>
<text text-anchor="start" x="658.25" y="-66.45" font-family="Helvetica,sans-Serif" font-size="14.00">TplAppXlight\getMenuXlight</text>
<text text-anchor="middle" x="746" y="-49.95" font-family="Helvetica,sans-Serif" font-size="14.00">Service</text>
</a>
</g>
</g>
<!-- Node1&#45;&gt;Node17 -->
<g id="edge16_Node000001_Node000017" class="edge">
<title>Node1&#45;&gt;Node17</title>
<g id="a_edge16_Node000001_Node000017"><a xlink:title=" ">
<path fill="none" stroke="#63b8ff" d="M1009.99,-364.53C1001.5,-308.08 972.01,-165.09 884.5,-93.25 872.23,-83.17 857.32,-76.28 841.91,-71.6"/>
<polygon fill="#63b8ff" stroke="#63b8ff" points="1006.5,-364.87 1011.36,-374.29 1013.43,-363.9 1006.5,-364.87"/>
</a>
</g>
</g>
<!-- Node18 -->
<g id="Node000018" class="node">
<title>Node18</title>
<g id="a_Node000018"><a xlink:href="../../dd/d85/classTplAppEditConf.html#a768a2dd9f3aa25167ebe56a01660a859" target="_top" xlink:title=" ">
<polygon fill="white" stroke="#666666" points="832.75,-24.5 659.25,-24.5 659.25,0 832.75,0 832.75,-24.5"/>
<text text-anchor="middle" x="746" y="-7.2" font-family="Helvetica,sans-Serif" font-size="14.00">TplAppEditConf\process</text>
</a>
</g>
</g>
<!-- Node1&#45;&gt;Node18 -->
<g id="edge17_Node000001_Node000018" class="edge">
<title>Node1&#45;&gt;Node18</title>
<g id="a_edge17_Node000001_Node000018"><a xlink:title=" ">
<path fill="none" stroke="#63b8ff" d="M1012.18,-364.4C1008.58,-299.84 989.16,-120.74 884.5,-34.25 869.96,-22.24 851.52,-15.5 832.9,-11.95"/>
<polygon fill="#63b8ff" stroke="#63b8ff" points="1008.68,-364.38 1012.64,-374.21 1015.67,-364.06 1008.68,-364.38"/>
</a>
</g>
</g>
<!-- Node19 -->
<g id="Node000019" class="node">
<title>Node19</title>
<g id="a_Node000019"><a xlink:href="../../d1/d65/classTplApp.html#a9db61fdb53ab5d42766b0634f77dd458" target="_top" xlink:title=" ">
<polygon fill="white" stroke="#666666" points="571.5,-24.5 369.5,-24.5 369.5,0 571.5,0 571.5,-24.5"/>
<text text-anchor="middle" x="470.5" y="-7.2" font-family="Helvetica,sans-Serif" font-size="14.00">TplApp\getSectionMenuRight</text>
</a>
</g>
</g>
<!-- Node18&#45;&gt;Node19 -->
<g id="edge18_Node000018_Node000019" class="edge">
<title>Node18&#45;&gt;Node19</title>
<g id="a_edge18_Node000018_Node000019"><a xlink:title=" ">
<path fill="none" stroke="#63b8ff" d="M647.64,-12.25C622.95,-12.25 596.38,-12.25 571.56,-12.25"/>
<polygon fill="#63b8ff" stroke="#63b8ff" points="647.32,-15.75 657.32,-12.25 647.32,-8.75 647.32,-15.75"/>
</a>
</g>
</g>
<!-- Node20 -->
<g id="Node000020" class="node">
<title>Node20</title>
<g id="a_Node000020"><a xlink:href="../../d1/d65/classTplApp.html#a57b270c79fbb8b220ad02af08368e367" target="_top" xlink:title=" ">
<polygon fill="white" stroke="#666666" points="333.5,-24.5 215.5,-24.5 215.5,0 333.5,0 333.5,-24.5"/>
<text text-anchor="middle" x="274.5" y="-7.2" font-family="Helvetica,sans-Serif" font-size="14.00">TplApp\process</text>
</a>
</g>
</g>
<!-- Node19&#45;&gt;Node20 -->
<g id="edge19_Node000019_Node000020" class="edge">
<title>Node19&#45;&gt;Node20</title>
<g id="a_edge19_Node000019_Node000020"><a xlink:title=" ">
<path fill="none" stroke="#63b8ff" d="M357.59,-12.25C349.5,-12.25 341.55,-12.25 333.98,-12.25"/>
<polygon fill="#63b8ff" stroke="#63b8ff" points="357.58,-15.75 367.58,-12.25 357.58,-8.75 357.58,-15.75"/>
</a>
</g>
</g>
<!-- Node21 -->
<g id="Node000021" class="node">
<title>Node21</title>
<g id="a_Node000021"><a xlink:href="../../dd/dea/classActionReload.html#a9caf3b20c05475876e5dc72cdcdf6024" target="_top" xlink:title=" ">
<polygon fill="white" stroke="#666666" points="179.5,-24.5 0,-24.5 0,0 179.5,0 179.5,-24.5"/>
<text text-anchor="middle" x="89.75" y="-7.2" font-family="Helvetica,sans-Serif" font-size="14.00">ActionReload\__construct</text>
</a>
</g>
</g>
<!-- Node20&#45;&gt;Node21 -->
<g id="edge20_Node000020_Node000021" class="edge">
<title>Node20&#45;&gt;Node21</title>
<g id="a_edge20_Node000020_Node000021"><a xlink:title=" ">
<path fill="none" stroke="#63b8ff" d="M203.85,-12.25C195.99,-12.25 187.9,-12.25 179.83,-12.25"/>
<polygon fill="#63b8ff" stroke="#63b8ff" points="203.66,-15.75 213.66,-12.25 203.66,-8.75 203.66,-15.75"/>
</a>
</g>
</g>
</g>
</svg>
