<?xml version="1.0" encoding="UTF-8" standalone="no"?>
<!--
  - Copyright (c) 2021-2024 Bearsampp
  - License:  GNU General Public License version 3 or later; see LICENSE.txt
  - Author: Bear
  - Website: https://bearsampp.com
  - Github: https://github.com/Bearsampp
  -->

<!DOCTYPE svg PUBLIC "-//W3C//DTD SVG 1.1//EN"
 "http://www.w3.org/Graphics/SVG/1.1/DTD/svg11.dtd">
<!-- Generated by graphviz version 11.0.0 (20240428.1522)
 -->
<!-- Title: TplAestan\getItemExe Pages: 1 -->
<!--zoomable 1090 -->

<svg id="main" version="1.1" xmlns="http://www.w3.org/2000/svg" xmlns:xlink="http://www.w3.org/1999/xlink" xml:space="preserve" onload="init(evt)">
<style type="text/css"><![CDATA[
.node, .edge {opacity: 0.7;}
.node.selected, .edge.selected {opacity: 1;}
.edge:hover path { stroke: red; }
.edge:hover polygon { stroke: red; fill: red; }
]]></style>

<defs>
  <circle id="rim" cx="0" cy="0" r="7"/>
  <circle id="rim2" cx="0" cy="0" r="3.5"/>
  <g id="zoomPlus">
    <use xlink:href="#rim" fill="#404040"><set attributeName="fill" to="#808080" begin="zoomplus.mouseover" end="zoomplus.mouseout"/></use>
    <path d="M-4,0h8M0,-4v8" fill="none" stroke="white" stroke-width="1.5" pointer-events="none"/>
  </g>
  <g id="zoomMin">
    <use xlink:href="#rim" fill="#404040"><set attributeName="fill" to="#808080" begin="zoomminus.mouseover" end="zoomminus.mouseout"/></use>
    <path d="M-4,0h8" fill="none" stroke="white" stroke-width="1.5" pointer-events="none"/>
  </g>
  <g id="arrowUp" transform="translate(30 24)">
    <use xlink:href="#rim"/>
    <path pointer-events="none" fill="none" stroke="white" stroke-width="1.5" d="M0,-3.0v7 M-2.5,-0.5L0,-3.0L2.5,-0.5"/>
  </g>
  <g id="arrowRight" transform="rotate(90) translate(36 -43)">
    <use xlink:href="#rim"/>
    <path pointer-events="none" fill="none" stroke="white" stroke-width="1.5" d="M0,-3.0v7 M-2.5,-0.5L0,-3.0L2.5,-0.5"/>
  </g>
  <g id="arrowDown" transform="rotate(180) translate(-30 -48)">
    <use xlink:href="#rim"/>
    <path pointer-events="none" fill="none" stroke="white" stroke-width="1.5" d="M0,-3.0v7 M-2.5,-0.5L0,-3.0L2.5,-0.5"/>
  </g>
  <g id="arrowLeft" transform="rotate(270) translate(-36 17)">
    <use xlink:href="#rim"/>
    <path pointer-events="none" fill="none" stroke="white" stroke-width="1.5" d="M0,-3.0v7 M-2.5,-0.5L0,-3.0L2.5,-0.5"/>
  </g>
  <g id="resetDef">
    <use xlink:href="#rim2" fill="#404040"><set attributeName="fill" to="#808080" begin="reset.mouseover" end="reset.mouseout"/></use>
  </g>
</defs>
<script type="application/ecmascript">
var viewWidth = 1318;
var viewHeight = 1090;
var sectionId = 'dynsection-5';
</script>
<script type="application/ecmascript" xlink:href="../../svg.min.js"/>
<svg id="graph" class="graph">
<g id="viewport">
<title>TplAestan\getItemExe</title>
<!-- Node1 -->
<g id="Node000001" class="node">
<title>Node1</title>
<g id="a_Node000001"><a xlink:title=" ">
<polygon fill="#999999" stroke="#666666" points="1309.5,-624.5 1151.75,-624.5 1151.75,-600 1309.5,-600 1309.5,-624.5"/>
<text text-anchor="middle" x="1230.62" y="-607.2" font-family="Helvetica,sans-Serif" font-size="14.00">TplAestan\getItemExe</text>
</a>
</g>
</g>
<!-- Node2 -->
<g id="Node000002" class="node">
<title>Node2</title>
<g id="a_Node000002"><a xlink:href="../../d1/d79/classTplAestan.html#a5dd1a29f53809214c5fc8a371b3f12dc" target="_top" xlink:title=" ">
<polygon fill="white" stroke="#666666" points="1115.75,-872.5 920.5,-872.5 920.5,-848 1115.75,-848 1115.75,-872.5"/>
<text text-anchor="middle" x="1018.12" y="-855.2" font-family="Helvetica,sans-Serif" font-size="14.00">TplAestan\getItemConsoleZ</text>
</a>
</g>
</g>
<!-- Node1&#45;&gt;Node2 -->
<g id="edge1_Node000001_Node000002" class="edge">
<title>Node1&#45;&gt;Node2</title>
<g id="a_edge1_Node000001_Node000002"><a xlink:title=" ">
<path fill="none" stroke="#63b8ff" d="M1211.49,-633.62C1168.93,-683.76 1063.72,-807.71 1029.83,-847.64"/>
<polygon fill="#63b8ff" stroke="#63b8ff" points="1214.11,-635.93 1217.92,-626.04 1208.78,-631.4 1214.11,-635.93"/>
</a>
</g>
</g>
<!-- Node3 -->
<g id="Node000003" class="node">
<title>Node3</title>
<g id="a_Node000003"><a xlink:href="../../d0/dbb/classTplAppGit.html#aaec8cdb1aac71d62ba8ca42c626a82a5" target="_top" xlink:title=" ">
<polygon fill="white" stroke="#666666" points="824.5,-1081.5 667.5,-1081.5 667.5,-1057 824.5,-1057 824.5,-1081.5"/>
<text text-anchor="middle" x="746" y="-1064.2" font-family="Helvetica,sans-Serif" font-size="14.00">TplAppGit\getMenuGit</text>
</a>
</g>
</g>
<!-- Node1&#45;&gt;Node3 -->
<g id="edge48_Node000001_Node000003" class="edge">
<title>Node1&#45;&gt;Node3</title>
<g id="a_edge48_Node000001_Node000003"><a xlink:title=" ">
<path fill="none" stroke="#63b8ff" d="M1230.19,-636.12C1230.4,-703.26 1221.28,-895.31 1115.75,-994.25 1037.47,-1067.64 907.84,-1077.73 824.98,-1075.54"/>
<polygon fill="#63b8ff" stroke="#63b8ff" points="1233.69,-636.22 1230.07,-626.27 1226.69,-636.31 1233.69,-636.22"/>
</a>
</g>
</g>
<!-- Node9 -->
<g id="Node000009" class="node">
<title>Node9</title>
<g id="a_Node000009"><a xlink:href="../../de/d1b/classTplAppPython.html#a07983dd6698aad23d7418a0e7986ab2f" target="_top" xlink:title=" ">
<polygon fill="white" stroke="#666666" points="850,-1038.5 642,-1038.5 642,-1014 850,-1014 850,-1038.5"/>
<text text-anchor="middle" x="746" y="-1021.2" font-family="Helvetica,sans-Serif" font-size="14.00">TplAppPython\getMenuPython</text>
</a>
</g>
</g>
<!-- Node1&#45;&gt;Node9 -->
<g id="edge51_Node000001_Node000009" class="edge">
<title>Node1&#45;&gt;Node9</title>
<g id="a_edge51_Node000001_Node000009"><a xlink:title=" ">
<path fill="none" stroke="#63b8ff" d="M1228.55,-636.03C1224.52,-696.04 1205.48,-854.84 1115.75,-939.25 1044.72,-1006.06 932.3,-1024.67 850.24,-1028.5"/>
<polygon fill="#63b8ff" stroke="#63b8ff" points="1232.03,-636.48 1229.11,-626.29 1225.04,-636.07 1232.03,-636.48"/>
</a>
</g>
</g>
<!-- Node10 -->
<g id="Node000010" class="node">
<title>Node10</title>
<g id="a_Node000010"><a xlink:href="../../dc/dd8/classTplAppTools.html#a97812c609b88d8652034a1bf78725687" target="_top" xlink:title=" ">
<polygon fill="white" stroke="#666666" points="842.5,-995.5 649.5,-995.5 649.5,-971 842.5,-971 842.5,-995.5"/>
<text text-anchor="middle" x="746" y="-978.2" font-family="Helvetica,sans-Serif" font-size="14.00">TplAppTools\getMenuTools</text>
</a>
</g>
</g>
<!-- Node1&#45;&gt;Node10 -->
<g id="edge52_Node000001_Node000010" class="edge">
<title>Node1&#45;&gt;Node10</title>
<g id="a_edge52_Node000001_Node000010"><a xlink:title=" ">
<path fill="none" stroke="#63b8ff" d="M1226.18,-636C1217.41,-687.91 1189.51,-812.3 1115.75,-881.25 1041.75,-950.42 925.06,-973.38 842.8,-980.63"/>
<polygon fill="#63b8ff" stroke="#63b8ff" points="1229.62,-636.63 1227.73,-626.21 1222.71,-635.54 1229.62,-636.63"/>
</a>
</g>
</g>
<!-- Node11 -->
<g id="Node000011" class="node">
<title>Node11</title>
<g id="a_Node000011"><a xlink:href="../../d1/d79/classTplAestan.html#aafc3ef65cbaa8ad0e7d64f0a37bb614c" target="_top" xlink:title=" ">
<polygon fill="white" stroke="#666666" points="1097.38,-624.5 938.88,-624.5 938.88,-600 1097.38,-600 1097.38,-624.5"/>
<text text-anchor="middle" x="1018.12" y="-607.2" font-family="Helvetica,sans-Serif" font-size="14.00">TplAestan\getItemLink</text>
</a>
</g>
</g>
<!-- Node1&#45;&gt;Node11 -->
<g id="edge10_Node000001_Node000011" class="edge">
<title>Node1&#45;&gt;Node11</title>
<g id="a_edge10_Node000001_Node000011"><a xlink:title=" ">
<path fill="none" stroke="#63b8ff" d="M1140.31,-612.25C1126.18,-612.25 1111.65,-612.25 1097.78,-612.25"/>
<polygon fill="#63b8ff" stroke="#63b8ff" points="1140.03,-615.75 1150.03,-612.25 1140.03,-608.75 1140.03,-615.75"/>
</a>
</g>
</g>
<!-- Node14 -->
<g id="Node000014" class="node">
<title>Node14</title>
<g id="a_Node000014"><a xlink:href="../../d0/d23/classTplAppFilezilla.html#ac79291983a2d52baddaff20066557be6" target="_top" xlink:title=" ">
<polygon fill="white" stroke="#666666" points="853,-432.5 639,-432.5 639,-408 853,-408 853,-432.5"/>
<text text-anchor="middle" x="746" y="-415.2" font-family="Helvetica,sans-Serif" font-size="14.00">TplAppFilezilla\getMenuFilezilla</text>
</a>
</g>
</g>
<!-- Node1&#45;&gt;Node14 -->
<g id="edge47_Node000001_Node000014" class="edge">
<title>Node1&#45;&gt;Node14</title>
<g id="a_edge47_Node000001_Node000014"><a xlink:title=" ">
<path fill="none" stroke="#63b8ff" d="M1181.95,-595.73C1119.32,-572.95 1007.14,-528.38 920.5,-473.25 902.69,-461.91 903.65,-451.14 884.5,-442.25 874.63,-437.67 863.99,-434.02 853.14,-431.11"/>
<polygon fill="#63b8ff" stroke="#63b8ff" points="1180.66,-598.98 1191.25,-599.08 1183.03,-592.4 1180.66,-598.98"/>
</a>
</g>
</g>
<!-- Node15 -->
<g id="Node000015" class="node">
<title>Node15</title>
<g id="a_Node000015"><a xlink:href="../../d4/d8a/classTplAppMailhog.html#a67c2c3057bcdaac6cf91614662582c6d" target="_top" xlink:title=" ">
<polygon fill="white" stroke="#666666" points="855.25,-389.5 636.75,-389.5 636.75,-365 855.25,-365 855.25,-389.5"/>
<text text-anchor="middle" x="746" y="-372.2" font-family="Helvetica,sans-Serif" font-size="14.00">TplAppMailhog\getMenuMailhog</text>
</a>
</g>
</g>
<!-- Node1&#45;&gt;Node15 -->
<g id="edge49_Node000001_Node000015" class="edge">
<title>Node1&#45;&gt;Node15</title>
<g id="a_edge49_Node000001_Node000015"><a xlink:title=" ">
<path fill="none" stroke="#63b8ff" d="M1222.17,-588.78C1208.23,-549.1 1174.23,-469.34 1115.75,-431.25 1038.76,-381.11 933.73,-369.98 855.45,-370.01"/>
<polygon fill="#63b8ff" stroke="#63b8ff" points="1218.79,-589.71 1225.3,-598.07 1225.42,-587.48 1218.79,-589.71"/>
</a>
</g>
</g>
<!-- Node16 -->
<g id="Node000016" class="node">
<title>Node16</title>
<g id="a_Node000016"><a xlink:href="../../d8/dd3/classTplAppMailpit.html#a6b11486b7c0c3abff5bd9a69107e739f" target="_top" xlink:title=" ">
<polygon fill="white" stroke="#666666" points="846.25,-24.5 645.75,-24.5 645.75,0 846.25,0 846.25,-24.5"/>
<text text-anchor="middle" x="746" y="-7.2" font-family="Helvetica,sans-Serif" font-size="14.00">TplAppMailpit\getMenuMailpit</text>
</a>
</g>
</g>
<!-- Node1&#45;&gt;Node16 -->
<g id="edge50_Node000001_Node000016" class="edge">
<title>Node1&#45;&gt;Node16</title>
<g id="a_edge50_Node000001_Node000016"><a xlink:title=" ">
<path fill="none" stroke="#63b8ff" d="M1223.82,-588.51C1200.22,-497.55 1102.08,-169.59 884.5,-33.25 873.04,-26.07 860.02,-21.03 846.66,-17.53"/>
<polygon fill="#63b8ff" stroke="#63b8ff" points="1220.39,-589.21 1226.24,-598.04 1227.18,-587.49 1220.39,-589.21"/>
</a>
</g>
</g>
<!-- Node24 -->
<g id="Node000024" class="node">
<title>Node24</title>
<g id="a_Node000024"><a xlink:href="../../d1/d79/classTplAestan.html#affec5b76ff0e80453b0723c1c5ef6ac0" target="_top" xlink:title=" ">
<polygon fill="white" stroke="#666666" points="1111.62,-464.5 924.62,-464.5 924.62,-440 1111.62,-440 1111.62,-464.5"/>
<text text-anchor="middle" x="1018.12" y="-447.2" font-family="Helvetica,sans-Serif" font-size="14.00">TplAestan\getItemNotepad</text>
</a>
</g>
</g>
<!-- Node1&#45;&gt;Node24 -->
<g id="edge28_Node000001_Node000024" class="edge">
<title>Node1&#45;&gt;Node24</title>
<g id="a_edge28_Node000001_Node000024"><a xlink:title=" ">
<path fill="none" stroke="#63b8ff" d="M1211.37,-591.25C1190.07,-567.61 1153,-529 1115.75,-502.25 1094.73,-487.16 1068.54,-473.9 1048.73,-464.83"/>
<polygon fill="#63b8ff" stroke="#63b8ff" points="1208.71,-593.54 1217.97,-598.69 1213.94,-588.89 1208.71,-593.54"/>
</a>
</g>
</g>
<!-- Node2&#45;&gt;Node3 -->
<g id="edge2_Node000002_Node000003" class="edge">
<title>Node2&#45;&gt;Node3</title>
<g id="a_edge2_Node000002_Node000003"><a xlink:title=" ">
<path fill="none" stroke="#63b8ff" d="M1007.95,-883.35C990.55,-923.9 948.63,-1007.38 884.5,-1047.25 866.74,-1058.29 845.29,-1064.38 824.66,-1067.61"/>
<polygon fill="#63b8ff" stroke="#63b8ff" points="1011.11,-884.87 1011.72,-874.29 1004.65,-882.18 1011.11,-884.87"/>
</a>
</g>
</g>
<!-- Node4 -->
<g id="Node000004" class="node">
<title>Node4</title>
<g id="a_Node000004"><a xlink:href="../../d0/dbb/classTplAppGit.html#a548d8a4a197e49fcfa482154c22bc5b0" target="_top" xlink:title=" ">
<polygon fill="white" stroke="#666666" points="845.88,-952.5 646.12,-952.5 646.12,-928 845.88,-928 845.88,-952.5"/>
<text text-anchor="middle" x="746" y="-935.2" font-family="Helvetica,sans-Serif" font-size="14.00">TplAppGit\getMenuGitRepos</text>
</a>
</g>
</g>
<!-- Node2&#45;&gt;Node4 -->
<g id="edge3_Node000002_Node000004" class="edge">
<title>Node2&#45;&gt;Node4</title>
<g id="a_edge3_Node000002_Node000004"><a xlink:title=" ">
<path fill="none" stroke="#63b8ff" d="M980.53,-877.46C954.29,-889.23 917.82,-904.42 884.5,-914.25 866.79,-919.47 847.48,-923.89 829.07,-927.51"/>
<polygon fill="#63b8ff" stroke="#63b8ff" points="981.73,-880.77 989.38,-873.44 978.83,-874.39 981.73,-880.77"/>
</a>
</g>
</g>
<!-- Node5 -->
<g id="Node000005" class="node">
<title>Node5</title>
<g id="a_Node000005"><a xlink:href="../../d4/de1/classTplAppMariadb.html#a46c8afea1780be6bdd5989bccb0c67e2" target="_top" xlink:title=" ">
<polygon fill="white" stroke="#666666" points="856.75,-872.5 635.25,-872.5 635.25,-848 856.75,-848 856.75,-872.5"/>
<text text-anchor="middle" x="746" y="-855.2" font-family="Helvetica,sans-Serif" font-size="14.00">TplAppMariadb\getMenuMariadb</text>
</a>
</g>
</g>
<!-- Node2&#45;&gt;Node5 -->
<g id="edge4_Node000002_Node000005" class="edge">
<title>Node2&#45;&gt;Node5</title>
<g id="a_edge4_Node000002_Node000005"><a xlink:title=" ">
<path fill="none" stroke="#63b8ff" d="M909.16,-860.25C891.94,-860.25 874.12,-860.25 856.86,-860.25"/>
<polygon fill="#63b8ff" stroke="#63b8ff" points="908.85,-863.75 918.85,-860.25 908.85,-856.75 908.85,-863.75"/>
</a>
</g>
</g>
<!-- Node6 -->
<g id="Node000006" class="node">
<title>Node6</title>
<g id="a_Node000006"><a xlink:href="../../d6/d19/classTplAppMysql.html#ab73238f0e33b03f8ce20144b582e5609" target="_top" xlink:title=" ">
<polygon fill="white" stroke="#666666" points="843.25,-829.5 648.75,-829.5 648.75,-805 843.25,-805 843.25,-829.5"/>
<text text-anchor="middle" x="746" y="-812.2" font-family="Helvetica,sans-Serif" font-size="14.00">TplAppMysql\getMenuMysql</text>
</a>
</g>
</g>
<!-- Node2&#45;&gt;Node6 -->
<g id="edge5_Node000002_Node000006" class="edge">
<title>Node2&#45;&gt;Node6</title>
<g id="a_edge5_Node000002_Node000006"><a xlink:title=" ">
<path fill="none" stroke="#63b8ff" d="M925.97,-845.74C893.8,-840.62 857.9,-834.9 826.74,-829.94"/>
<polygon fill="#63b8ff" stroke="#63b8ff" points="925.25,-849.17 935.68,-847.29 926.35,-842.26 925.25,-849.17"/>
</a>
</g>
</g>
<!-- Node7 -->
<g id="Node000007" class="node">
<title>Node7</title>
<g id="a_Node000007"><a xlink:href="../../dc/d32/classTplAppNodejs.html#ae6136fcf0895063f90caa2b191d0d11b" target="_top" xlink:title=" ">
<polygon fill="white" stroke="#666666" points="851.5,-786.5 640.5,-786.5 640.5,-762 851.5,-762 851.5,-786.5"/>
<text text-anchor="middle" x="746" y="-769.2" font-family="Helvetica,sans-Serif" font-size="14.00">TplAppNodejs\getMenuNodejs</text>
</a>
</g>
</g>
<!-- Node2&#45;&gt;Node7 -->
<g id="edge6_Node000002_Node000007" class="edge">
<title>Node2&#45;&gt;Node7</title>
<g id="a_edge6_Node000002_Node000007"><a xlink:title=" ">
<path fill="none" stroke="#63b8ff" d="M986.14,-842.09C959.91,-827.52 920.89,-807.67 884.5,-796.25 872.85,-792.59 860.45,-789.52 848.04,-786.95"/>
<polygon fill="#63b8ff" stroke="#63b8ff" points="984.12,-844.97 994.55,-846.84 987.56,-838.87 984.12,-844.97"/>
</a>
</g>
</g>
<!-- Node8 -->
<g id="Node000008" class="node">
<title>Node8</title>
<g id="a_Node000008"><a xlink:href="../../d3/d1b/classTplAppPostgresql.html#ae7611346aa23c70ab2d933dcf5b75e44" target="_top" xlink:title=" ">
<polygon fill="white" stroke="#666666" points="841,-743.75 651,-743.75 651,-702.75 841,-702.75 841,-743.75"/>
<text text-anchor="start" x="659" y="-726.45" font-family="Helvetica,sans-Serif" font-size="14.00">TplAppPostgresql\getMenu</text>
<text text-anchor="middle" x="746" y="-709.95" font-family="Helvetica,sans-Serif" font-size="14.00">Postgresql</text>
</a>
</g>
</g>
<!-- Node2&#45;&gt;Node8 -->
<g id="edge7_Node000002_Node000008" class="edge">
<title>Node2&#45;&gt;Node8</title>
<g id="a_edge7_Node000002_Node000008"><a xlink:title=" ">
<path fill="none" stroke="#63b8ff" d="M997.68,-839.54C973.51,-815.09 929.88,-775 884.5,-753.25 871.06,-746.81 856.22,-741.74 841.4,-737.74"/>
<polygon fill="#63b8ff" stroke="#63b8ff" points="995.14,-841.95 1004.62,-846.69 1000.17,-837.08 995.14,-841.95"/>
</a>
</g>
</g>
<!-- Node2&#45;&gt;Node9 -->
<g id="edge8_Node000002_Node000009" class="edge">
<title>Node2&#45;&gt;Node9</title>
<g id="a_edge8_Node000002_Node000009"><a xlink:title=" ">
<path fill="none" stroke="#63b8ff" d="M1003.73,-882.4C982.74,-914.97 938.82,-975.1 884.5,-1004.25 873.96,-1009.91 862.35,-1014.2 850.48,-1017.45"/>
<polygon fill="#63b8ff" stroke="#63b8ff" points="1006.56,-884.47 1008.92,-874.14 1000.63,-880.75 1006.56,-884.47"/>
</a>
</g>
</g>
<!-- Node2&#45;&gt;Node10 -->
<g id="edge9_Node000002_Node000010" class="edge">
<title>Node2&#45;&gt;Node10</title>
<g id="a_edge9_Node000002_Node000010"><a xlink:title=" ">
<path fill="none" stroke="#63b8ff" d="M987.66,-879.01C968.08,-891.88 942.1,-909.73 920.5,-927.25 903.41,-941.12 904.24,-951.52 884.5,-961.25 871.6,-967.61 857.26,-972.2 842.86,-975.5"/>
<polygon fill="#63b8ff" stroke="#63b8ff" points="989.51,-881.98 995.98,-873.59 985.69,-876.11 989.51,-881.98"/>
</a>
</g>
</g>
<!-- Node11&#45;&gt;Node5 -->
<g id="edge16_Node000011_Node000005" class="edge">
<title>Node11&#45;&gt;Node5</title>
<g id="a_edge16_Node000011_Node000005"><a xlink:title=" ">
<path fill="none" stroke="#63b8ff" d="M1010.71,-635.76C996.55,-682.75 957.93,-788.08 884.5,-838.25 876.12,-843.98 866.78,-848.42 857.04,-851.84"/>
<polygon fill="#63b8ff" stroke="#63b8ff" points="1014.01,-636.92 1013.43,-626.34 1007.29,-634.97 1014.01,-636.92"/>
</a>
</g>
</g>
<!-- Node11&#45;&gt;Node6 -->
<g id="edge18_Node000011_Node000006" class="edge">
<title>Node11&#45;&gt;Node6</title>
<g id="a_edge18_Node000011_Node000006"><a xlink:title=" ">
<path fill="none" stroke="#63b8ff" d="M1007.7,-635.12C990,-674.91 947.78,-756.35 884.5,-795.25 872.14,-802.85 858.03,-808.09 843.65,-811.67"/>
<polygon fill="#63b8ff" stroke="#63b8ff" points="1010.87,-636.59 1011.62,-626.02 1004.45,-633.82 1010.87,-636.59"/>
</a>
</g>
</g>
<!-- Node11&#45;&gt;Node7 -->
<g id="edge19_Node000011_Node000007" class="edge">
<title>Node11&#45;&gt;Node7</title>
<g id="a_edge19_Node000011_Node000007"><a xlink:title=" ">
<path fill="none" stroke="#63b8ff" d="M1003.64,-633.98C982.53,-665.95 938.46,-724.9 884.5,-753.25 874.35,-758.59 863.23,-762.66 851.85,-765.77"/>
<polygon fill="#63b8ff" stroke="#63b8ff" points="1006.37,-636.2 1008.85,-625.9 1000.49,-632.41 1006.37,-636.2"/>
</a>
</g>
</g>
<!-- Node11&#45;&gt;Node8 -->
<g id="edge21_Node000011_Node000008" class="edge">
<title>Node11&#45;&gt;Node8</title>
<g id="a_edge21_Node000011_Node000008"><a xlink:title=" ">
<path fill="none" stroke="#63b8ff" d="M991.44,-631.54C965.69,-649.99 924.24,-677.3 884.5,-693.25 870.89,-698.71 856.11,-703.26 841.46,-707.02"/>
<polygon fill="#63b8ff" stroke="#63b8ff" points="993.26,-634.55 999.29,-625.84 989.14,-628.89 993.26,-634.55"/>
</a>
</g>
</g>
<!-- Node12 -->
<g id="Node000012" class="node">
<title>Node12</title>
<g id="a_Node000012"><a xlink:href="../../d9/d51/classTplAppApache.html#a41883e060efdff6f2d33a272b7c3faae" target="_top" xlink:title=" ">
<polygon fill="white" stroke="#666666" points="855.25,-604.5 636.75,-604.5 636.75,-580 855.25,-580 855.25,-604.5"/>
<text text-anchor="middle" x="746" y="-587.2" font-family="Helvetica,sans-Serif" font-size="14.00">TplAppApache\getMenuApache</text>
</a>
</g>
</g>
<!-- Node11&#45;&gt;Node12 -->
<g id="edge11_Node000011_Node000012" class="edge">
<title>Node11&#45;&gt;Node12</title>
<g id="a_edge11_Node000011_Node000012"><a xlink:title=" ">
<path fill="none" stroke="#63b8ff" d="M927.19,-605.59C904.25,-603.89 879.35,-602.05 855.58,-600.29"/>
<polygon fill="#63b8ff" stroke="#63b8ff" points="926.89,-609.08 937.12,-606.33 927.41,-602.1 926.89,-609.08"/>
</a>
</g>
</g>
<!-- Node13 -->
<g id="Node000013" class="node">
<title>Node13</title>
<g id="a_Node000013"><a xlink:href="../../d9/d19/classTplAppApps.html#af725443ecf95bab66dd2ec59462b37bf" target="_top" xlink:title=" ">
<polygon fill="white" stroke="#666666" points="840.25,-684.5 651.75,-684.5 651.75,-660 840.25,-660 840.25,-684.5"/>
<text text-anchor="middle" x="746" y="-667.2" font-family="Helvetica,sans-Serif" font-size="14.00">TplAppApps\getMenuApps</text>
</a>
</g>
</g>
<!-- Node11&#45;&gt;Node13 -->
<g id="edge12_Node000011_Node000013" class="edge">
<title>Node11&#45;&gt;Node13</title>
<g id="a_edge12_Node000011_Node000013"><a xlink:title=" ">
<path fill="none" stroke="#63b8ff" d="M959.58,-627.86C936.35,-633.94 909.23,-640.75 884.5,-646.25 863.28,-650.97 840.09,-655.57 818.9,-659.55"/>
<polygon fill="#63b8ff" stroke="#63b8ff" points="960.41,-631.26 969.19,-625.33 958.63,-624.49 960.41,-631.26"/>
</a>
</g>
</g>
<!-- Node11&#45;&gt;Node14 -->
<g id="edge13_Node000011_Node000014" class="edge">
<title>Node11&#45;&gt;Node14</title>
<g id="a_edge13_Node000011_Node000014"><a xlink:title=" ">
<path fill="none" stroke="#63b8ff" d="M987.82,-593.13C966.74,-578.14 938.91,-555.62 920.5,-530.25 895.68,-496.05 917.61,-468.51 884.5,-442.25 875.31,-434.96 864.67,-429.65 853.46,-425.82"/>
<polygon fill="#63b8ff" stroke="#63b8ff" points="985.8,-595.99 996.01,-598.81 989.79,-590.24 985.8,-595.99"/>
</a>
</g>
</g>
<!-- Node11&#45;&gt;Node15 -->
<g id="edge14_Node000011_Node000015" class="edge">
<title>Node11&#45;&gt;Node15</title>
<g id="a_edge14_Node000011_Node000015"><a xlink:title=" ">
<path fill="none" stroke="#63b8ff" d="M1000.65,-590.79C980.49,-564.06 945.91,-516.61 920.5,-473.25 902.01,-441.7 913.87,-421.04 884.5,-399.25 875.76,-392.77 865.85,-387.88 855.44,-384.24"/>
<polygon fill="#63b8ff" stroke="#63b8ff" points="997.63,-592.61 1006.46,-598.45 1003.2,-588.37 997.63,-592.61"/>
</a>
</g>
</g>
<!-- Node11&#45;&gt;Node16 -->
<g id="edge15_Node000011_Node000016" class="edge">
<title>Node11&#45;&gt;Node16</title>
<g id="a_edge15_Node000011_Node000016"><a xlink:title=" ">
<path fill="none" stroke="#63b8ff" d="M997.44,-591.63C974.43,-566.12 937.37,-520.27 920.5,-473.25 887.36,-380.91 951.4,-105 884.5,-33.25 874.29,-22.3 860.96,-15.42 846.62,-11.29"/>
<polygon fill="#63b8ff" stroke="#63b8ff" points="994.56,-593.68 1003.91,-598.66 999.71,-588.94 994.56,-593.68"/>
</a>
</g>
</g>
<!-- Node17 -->
<g id="Node000017" class="node">
<title>Node17</title>
<g id="a_Node000017"><a xlink:href="../../d8/dff/classTplAppMemcached.html#aefb8013320c0321bd6f3727349ea1045" target="_top" xlink:title=" ">
<polygon fill="white" stroke="#666666" points="884.5,-561.5 607.5,-561.5 607.5,-537 884.5,-537 884.5,-561.5"/>
<text text-anchor="middle" x="746" y="-544.2" font-family="Helvetica,sans-Serif" font-size="14.00">TplAppMemcached\getMenuMemcached</text>
</a>
</g>
</g>
<!-- Node11&#45;&gt;Node17 -->
<g id="edge17_Node000011_Node000017" class="edge">
<title>Node11&#45;&gt;Node17</title>
<g id="a_edge17_Node000011_Node000017"><a xlink:title=" ">
<path fill="none" stroke="#63b8ff" d="M970.2,-595.97C945.02,-587.69 913.33,-577.98 884.5,-571.25 869.55,-567.76 853.56,-564.65 837.96,-561.94"/>
<polygon fill="#63b8ff" stroke="#63b8ff" points="968.88,-599.22 979.48,-599.06 971.1,-592.58 968.88,-599.22"/>
</a>
</g>
</g>
<!-- Node18 -->
<g id="Node000018" class="node">
<title>Node18</title>
<g id="a_Node000018"><a xlink:href="../../d0/d1a/classTplAppPhp.html#a1f03b6b08aba4677031cc2f46550690c" target="_top" xlink:title=" ">
<polygon fill="white" stroke="#666666" points="832,-518.5 660,-518.5 660,-494 832,-494 832,-518.5"/>
<text text-anchor="middle" x="746" y="-501.2" font-family="Helvetica,sans-Serif" font-size="14.00">TplAppPhp\getMenuPhp</text>
</a>
</g>
</g>
<!-- Node11&#45;&gt;Node18 -->
<g id="edge20_Node000011_Node000018" class="edge">
<title>Node11&#45;&gt;Node18</title>
<g id="a_edge20_Node000011_Node000018"><a xlink:title=" ">
<path fill="none" stroke="#63b8ff" d="M993.03,-592.69C967.62,-573.14 925.64,-543.81 884.5,-528.25 868.11,-522.05 849.97,-517.6 832.39,-514.4"/>
<polygon fill="#63b8ff" stroke="#63b8ff" points="990.69,-595.31 1000.72,-598.72 995.01,-589.79 990.69,-595.31"/>
</a>
</g>
</g>
<!-- Node19 -->
<g id="Node000019" class="node">
<title>Node19</title>
<g id="a_Node000019"><a xlink:href="../../dc/d83/classTplAppXlight.html#af5d3e9e4275051253786be7055330a6c" target="_top" xlink:title=" ">
<polygon fill="white" stroke="#666666" points="841.75,-475.5 650.25,-475.5 650.25,-451 841.75,-451 841.75,-475.5"/>
<text text-anchor="middle" x="746" y="-458.2" font-family="Helvetica,sans-Serif" font-size="14.00">TplAppXlight\getMenuXlight</text>
</a>
</g>
</g>
<!-- Node11&#45;&gt;Node19 -->
<g id="edge22_Node000011_Node000019" class="edge">
<title>Node11&#45;&gt;Node19</title>
<g id="a_edge22_Node000011_Node000019"><a xlink:title=" ">
<path fill="none" stroke="#63b8ff" d="M991.29,-592.57C971.12,-576.69 942.87,-553.27 920.5,-530.25 902.65,-511.88 906.63,-498.14 884.5,-485.25 871.55,-477.71 856.8,-472.53 841.9,-469.01"/>
<polygon fill="#63b8ff" stroke="#63b8ff" points="988.97,-595.2 999.01,-598.59 993.28,-589.68 988.97,-595.2"/>
</a>
</g>
</g>
<!-- Node20 -->
<g id="Node000020" class="node">
<title>Node20</title>
<g id="a_Node000020"><a xlink:href="../../d1/d65/classTplApp.html#a7548fa52341ab60cfa061827d44cf43c" target="_top" xlink:title=" ">
<polygon fill="white" stroke="#666666" points="567.38,-799.5 373.62,-799.5 373.62,-775 567.38,-775 567.38,-799.5"/>
<text text-anchor="middle" x="470.5" y="-782.2" font-family="Helvetica,sans-Serif" font-size="14.00">TplApp\getSectionMenuLeft</text>
</a>
</g>
</g>
<!-- Node11&#45;&gt;Node20 -->
<g id="edge23_Node000011_Node000020" class="edge">
<title>Node11&#45;&gt;Node20</title>
<g id="a_edge23_Node000011_Node000020"><a xlink:title=" ">
<path fill="none" stroke="#63b8ff" d="M1009.21,-635.57C988.31,-695.62 930.1,-852.89 884.5,-881.25 832.23,-913.76 666.26,-899.58 607.5,-881.25 555.71,-865.1 506.27,-821.56 483.93,-799.88"/>
<polygon fill="#63b8ff" stroke="#63b8ff" points="1012.44,-636.94 1012.39,-626.35 1005.82,-634.66 1012.44,-636.94"/>
</a>
</g>
</g>
<!-- Node23 -->
<g id="Node000023" class="node">
<title>Node23</title>
<g id="a_Node000023"><a xlink:href="../../d1/d65/classTplApp.html#a9db61fdb53ab5d42766b0634f77dd458" target="_top" xlink:title=" ">
<polygon fill="white" stroke="#666666" points="571.5,-644.5 369.5,-644.5 369.5,-620 571.5,-620 571.5,-644.5"/>
<text text-anchor="middle" x="470.5" y="-627.2" font-family="Helvetica,sans-Serif" font-size="14.00">TplApp\getSectionMenuRight</text>
</a>
</g>
</g>
<!-- Node11&#45;&gt;Node23 -->
<g id="edge26_Node000011_Node000023" class="edge">
<title>Node11&#45;&gt;Node23</title>
<g id="a_edge26_Node000011_Node000023"><a xlink:title=" ">
<path fill="none" stroke="#63b8ff" d="M927.32,-615.54C829.49,-619.13 673.39,-624.85 571.66,-628.58"/>
<polygon fill="#63b8ff" stroke="#63b8ff" points="927.28,-619.05 937.15,-615.18 927.03,-612.05 927.28,-619.05"/>
</a>
</g>
</g>
<!-- Node21 -->
<g id="Node000021" class="node">
<title>Node21</title>
<g id="a_Node000021"><a xlink:href="../../d1/d65/classTplApp.html#a57b270c79fbb8b220ad02af08368e367" target="_top" xlink:title=" ">
<polygon fill="white" stroke="#666666" points="333.5,-665.5 215.5,-665.5 215.5,-641 333.5,-641 333.5,-665.5"/>
<text text-anchor="middle" x="274.5" y="-648.2" font-family="Helvetica,sans-Serif" font-size="14.00">TplApp\process</text>
</a>
</g>
</g>
<!-- Node20&#45;&gt;Node21 -->
<g id="edge24_Node000020_Node000021" class="edge">
<title>Node20&#45;&gt;Node21</title>
<g id="a_edge24_Node000020_Node000021"><a xlink:title=" ">
<path fill="none" stroke="#63b8ff" d="M441.78,-768.1C401.53,-740.3 328,-689.51 293.84,-665.92"/>
<polygon fill="#63b8ff" stroke="#63b8ff" points="439.79,-770.98 450,-773.78 443.76,-765.22 439.79,-770.98"/>
</a>
</g>
</g>
<!-- Node22 -->
<g id="Node000022" class="node">
<title>Node22</title>
<g id="a_Node000022"><a xlink:href="../../dd/dea/classActionReload.html#a9caf3b20c05475876e5dc72cdcdf6024" target="_top" xlink:title=" ">
<polygon fill="white" stroke="#666666" points="179.5,-665.5 0,-665.5 0,-641 179.5,-641 179.5,-665.5"/>
<text text-anchor="middle" x="89.75" y="-648.2" font-family="Helvetica,sans-Serif" font-size="14.00">ActionReload\__construct</text>
</a>
</g>
</g>
<!-- Node21&#45;&gt;Node22 -->
<g id="edge25_Node000021_Node000022" class="edge">
<title>Node21&#45;&gt;Node22</title>
<g id="a_edge25_Node000021_Node000022"><a xlink:title=" ">
<path fill="none" stroke="#63b8ff" d="M203.85,-653.25C195.99,-653.25 187.9,-653.25 179.83,-653.25"/>
<polygon fill="#63b8ff" stroke="#63b8ff" points="203.66,-656.75 213.66,-653.25 203.66,-649.75 203.66,-656.75"/>
</a>
</g>
</g>
<!-- Node23&#45;&gt;Node21 -->
<g id="edge27_Node000023_Node000021" class="edge">
<title>Node23&#45;&gt;Node21</title>
<g id="a_edge27_Node000023_Node000021"><a xlink:title=" ">
<path fill="none" stroke="#63b8ff" d="M357.87,-644.33C349.68,-645.22 341.64,-646.09 333.98,-646.92"/>
<polygon fill="#63b8ff" stroke="#63b8ff" points="358.02,-647.84 367.59,-643.28 357.27,-640.88 358.02,-647.84"/>
</a>
</g>
</g>
<!-- Node24&#45;&gt;Node5 -->
<g id="edge37_Node000024_Node000005" class="edge">
<title>Node24&#45;&gt;Node5</title>
<g id="a_edge37_Node000024_Node000005"><a xlink:title=" ">
<path fill="none" stroke="#63b8ff" d="M997.64,-473.39C975.1,-499.15 938.77,-544.99 920.5,-591.25 879.75,-694.43 962.4,-759.26 884.5,-838.25 876.69,-846.17 867.25,-851.95 857.01,-856.11"/>
<polygon fill="#63b8ff" stroke="#63b8ff" points="1000.21,-475.77 1004.25,-465.98 994.98,-471.11 1000.21,-475.77"/>
</a>
</g>
</g>
<!-- Node24&#45;&gt;Node6 -->
<g id="edge39_Node000024_Node000006" class="edge">
<title>Node24&#45;&gt;Node6</title>
<g id="a_edge39_Node000024_Node000006"><a xlink:title=" ">
<path fill="none" stroke="#63b8ff" d="M997.88,-473.49C975.57,-499.34 939.46,-545.27 920.5,-591.25 885.41,-676.37 950.12,-730.67 884.5,-795.25 873.3,-806.27 858.92,-813.12 843.7,-817.19"/>
<polygon fill="#63b8ff" stroke="#63b8ff" points="1000.45,-475.87 1004.41,-466.05 995.19,-471.25 1000.45,-475.87"/>
</a>
</g>
</g>
<!-- Node24&#45;&gt;Node7 -->
<g id="edge40_Node000024_Node000007" class="edge">
<title>Node24&#45;&gt;Node7</title>
<g id="a_edge40_Node000024_Node000007"><a xlink:title=" ">
<path fill="none" stroke="#63b8ff" d="M998.57,-473.23C976.63,-499.15 940.57,-545.46 920.5,-591.25 890.89,-658.8 938.37,-702.88 884.5,-753.25 875.24,-761.91 863.99,-767.9 851.97,-771.95"/>
<polygon fill="#63b8ff" stroke="#63b8ff" points="1001.1,-475.65 1004.97,-465.79 995.8,-471.09 1001.1,-475.65"/>
</a>
</g>
</g>
<!-- Node24&#45;&gt;Node8 -->
<g id="edge42_Node000024_Node000008" class="edge">
<title>Node24&#45;&gt;Node8</title>
<g id="a_edge42_Node000024_Node000008"><a xlink:title=" ">
<path fill="none" stroke="#63b8ff" d="M999.49,-473.66C978.46,-500.02 943.29,-546.75 920.5,-591.25 898.58,-634.04 920.54,-661.44 884.5,-693.25 872.32,-704 857.19,-711.19 841.46,-715.95"/>
<polygon fill="#63b8ff" stroke="#63b8ff" points="1002.04,-476.08 1005.6,-466.1 996.59,-471.68 1002.04,-476.08"/>
</a>
</g>
</g>
<!-- Node24&#45;&gt;Node12 -->
<g id="edge29_Node000024_Node000012" class="edge">
<title>Node24&#45;&gt;Node12</title>
<g id="a_edge29_Node000024_Node000012"><a xlink:title=" ">
<path fill="none" stroke="#63b8ff" d="M1000.11,-473.54C977.03,-500.78 933.07,-547.21 884.5,-570.25 875.44,-574.55 865.7,-578.03 855.74,-580.85"/>
<polygon fill="#63b8ff" stroke="#63b8ff" points="1002.72,-475.87 1006.41,-465.94 997.33,-471.4 1002.72,-475.87"/>
</a>
</g>
</g>
<!-- Node24&#45;&gt;Node14 -->
<g id="edge31_Node000024_Node000014" class="edge">
<title>Node24&#45;&gt;Node14</title>
<g id="a_edge31_Node000024_Node000014"><a xlink:title=" ">
<path fill="none" stroke="#63b8ff" d="M912.76,-439.89C893.2,-437.57 872.74,-435.15 853.12,-432.82"/>
<polygon fill="#63b8ff" stroke="#63b8ff" points="912.32,-443.36 922.66,-441.06 913.14,-436.41 912.32,-443.36"/>
</a>
</g>
</g>
<!-- Node24&#45;&gt;Node15 -->
<g id="edge33_Node000024_Node000015" class="edge">
<title>Node24&#45;&gt;Node15</title>
<g id="a_edge33_Node000024_Node000015"><a xlink:title=" ">
<path fill="none" stroke="#63b8ff" d="M980.58,-435.09C954.36,-423.42 917.9,-408.47 884.5,-399.25 871.45,-395.65 857.53,-392.57 843.75,-389.95"/>
<polygon fill="#63b8ff" stroke="#63b8ff" points="978.87,-438.16 989.42,-439.09 981.75,-431.78 978.87,-438.16"/>
</a>
</g>
</g>
<!-- Node24&#45;&gt;Node16 -->
<g id="edge35_Node000024_Node000016" class="edge">
<title>Node24&#45;&gt;Node16</title>
<g id="a_edge35_Node000024_Node000016"><a xlink:title=" ">
<path fill="none" stroke="#63b8ff" d="M1008.07,-429.12C989.96,-382.38 948.62,-273.16 920.5,-179.25 901.33,-115.23 933.84,-78.33 884.5,-33.25 873.8,-23.48 860.57,-17.13 846.57,-13.14"/>
<polygon fill="#63b8ff" stroke="#63b8ff" points="1004.71,-430.14 1011.6,-438.19 1011.23,-427.61 1004.71,-430.14"/>
</a>
</g>
</g>
<!-- Node24&#45;&gt;Node17 -->
<g id="edge38_Node000024_Node000017" class="edge">
<title>Node24&#45;&gt;Node17</title>
<g id="a_edge38_Node000024_Node000017"><a xlink:title=" ">
<path fill="none" stroke="#63b8ff" d="M990.18,-471.32C964.31,-488.67 923.51,-513.6 884.5,-527.25 874,-530.92 862.84,-533.99 851.59,-536.54"/>
<polygon fill="#63b8ff" stroke="#63b8ff" points="992.12,-474.23 998.41,-465.7 988.17,-468.45 992.12,-474.23"/>
</a>
</g>
</g>
<!-- Node24&#45;&gt;Node18 -->
<g id="edge41_Node000024_Node000018" class="edge">
<title>Node24&#45;&gt;Node18</title>
<g id="a_edge41_Node000024_Node000018"><a xlink:title=" ">
<path fill="none" stroke="#63b8ff" d="M957.63,-467.65C934.84,-473.28 908.55,-479.43 884.5,-484.25 867.67,-487.62 849.6,-490.82 832.27,-493.67"/>
<polygon fill="#63b8ff" stroke="#63b8ff" points="958.19,-471.12 967.04,-465.31 956.49,-464.33 958.19,-471.12"/>
</a>
</g>
</g>
<!-- Node24&#45;&gt;Node19 -->
<g id="edge43_Node000024_Node000019" class="edge">
<title>Node24&#45;&gt;Node19</title>
<g id="a_edge43_Node000024_Node000019"><a xlink:title=" ">
<path fill="none" stroke="#63b8ff" d="M912.83,-456.5C889.51,-457.45 864.89,-458.45 841.97,-459.38"/>
<polygon fill="#63b8ff" stroke="#63b8ff" points="912.8,-460 922.65,-456.1 912.52,-453.01 912.8,-460"/>
</a>
</g>
</g>
<!-- Node25 -->
<g id="Node000025" class="node">
<title>Node25</title>
<g id="a_Node000025"><a xlink:href="../../d9/d51/classTplAppApache.html#a2f3f97f1fc8f704526200be781758eec" target="_top" xlink:title=" ">
<polygon fill="white" stroke="#666666" points="855.25,-303.75 636.75,-303.75 636.75,-262.75 855.25,-262.75 855.25,-303.75"/>
<text text-anchor="start" x="644.75" y="-286.45" font-family="Helvetica,sans-Serif" font-size="14.00">TplAppApache\getMenuApache</text>
<text text-anchor="middle" x="746" y="-269.95" font-family="Helvetica,sans-Serif" font-size="14.00">Service</text>
</a>
</g>
</g>
<!-- Node24&#45;&gt;Node25 -->
<g id="edge30_Node000024_Node000025" class="edge">
<title>Node24&#45;&gt;Node25</title>
<g id="a_edge30_Node000024_Node000025"><a xlink:title=" ">
<path fill="none" stroke="#63b8ff" d="M1002.73,-430.38C980.99,-399.23 936.75,-342.6 884.5,-313.25 875.45,-308.16 865.61,-303.94 855.5,-300.43"/>
<polygon fill="#63b8ff" stroke="#63b8ff" points="999.83,-432.36 1008.36,-438.65 1005.62,-428.41 999.83,-432.36"/>
</a>
</g>
</g>
<!-- Node26 -->
<g id="Node000026" class="node">
<title>Node26</title>
<g id="a_Node000026"><a xlink:href="../../d2/d2a/classTplAppLogs.html#ad550f3529a4860bcf91ab334bac9ae80" target="_top" xlink:title=" ">
<polygon fill="white" stroke="#666666" points="838.75,-244.5 653.25,-244.5 653.25,-220 838.75,-220 838.75,-244.5"/>
<text text-anchor="middle" x="746" y="-227.2" font-family="Helvetica,sans-Serif" font-size="14.00">TplAppLogs\getMenuLogs</text>
</a>
</g>
</g>
<!-- Node24&#45;&gt;Node26 -->
<g id="edge32_Node000024_Node000026" class="edge">
<title>Node24&#45;&gt;Node26</title>
<g id="a_edge32_Node000024_Node000026"><a xlink:title=" ">
<path fill="none" stroke="#63b8ff" d="M1008.88,-428.85C992.5,-386.13 951.55,-295.97 884.5,-253.25 870.96,-244.62 855.17,-239.06 839.22,-235.55"/>
<polygon fill="#63b8ff" stroke="#63b8ff" points="1005.57,-429.98 1012.32,-438.14 1012.13,-427.55 1005.57,-429.98"/>
</a>
</g>
</g>
<!-- Node27 -->
<g id="Node000027" class="node">
<title>Node27</title>
<g id="a_Node000027"><a xlink:href="../../d4/d8a/classTplAppMailhog.html#a5ba72143a30f15dad27bcc703da4d97e" target="_top" xlink:title=" ">
<polygon fill="white" stroke="#666666" points="855.25,-201.75 636.75,-201.75 636.75,-160.75 855.25,-160.75 855.25,-201.75"/>
<text text-anchor="start" x="644.75" y="-184.45" font-family="Helvetica,sans-Serif" font-size="14.00">TplAppMailhog\getMenuMailhog</text>
<text text-anchor="middle" x="746" y="-167.95" font-family="Helvetica,sans-Serif" font-size="14.00">Service</text>
</a>
</g>
</g>
<!-- Node24&#45;&gt;Node27 -->
<g id="edge34_Node000024_Node000027" class="edge">
<title>Node24&#45;&gt;Node27</title>
<g id="a_edge34_Node000024_Node000027"><a xlink:title=" ">
<path fill="none" stroke="#63b8ff" d="M1011.22,-428.58C997.72,-379.7 959.82,-267.48 884.5,-211.25 875.79,-204.75 865.95,-199.6 855.64,-195.53"/>
<polygon fill="#63b8ff" stroke="#63b8ff" points="1007.8,-429.34 1013.74,-438.11 1014.56,-427.55 1007.8,-429.34"/>
</a>
</g>
</g>
<!-- Node28 -->
<g id="Node000028" class="node">
<title>Node28</title>
<g id="a_Node000028"><a xlink:href="../../d8/dd3/classTplAppMailpit.html#a6ac3b9462d198c5ab2b215ec1fbb7ebe" target="_top" xlink:title=" ">
<polygon fill="white" stroke="#666666" points="846.25,-142.75 645.75,-142.75 645.75,-101.75 846.25,-101.75 846.25,-142.75"/>
<text text-anchor="start" x="653.75" y="-125.45" font-family="Helvetica,sans-Serif" font-size="14.00">TplAppMailpit\getMenuMailpit</text>
<text text-anchor="middle" x="746" y="-108.95" font-family="Helvetica,sans-Serif" font-size="14.00">Service</text>
</a>
</g>
</g>
<!-- Node24&#45;&gt;Node28 -->
<g id="edge36_Node000024_Node000028" class="edge">
<title>Node24&#45;&gt;Node28</title>
<g id="a_edge36_Node000024_Node000028"><a xlink:title=" ">
<path fill="none" stroke="#63b8ff" d="M1014.01,-428.36C1005.19,-370.91 974.55,-224.34 884.5,-151.25 873.42,-142.26 860.22,-135.86 846.45,-131.34"/>
<polygon fill="#63b8ff" stroke="#63b8ff" points="1010.51,-428.61 1015.4,-438.01 1017.44,-427.61 1010.51,-428.61"/>
</a>
</g>
</g>
<!-- Node29 -->
<g id="Node000029" class="node">
<title>Node29</title>
<g id="a_Node000029"><a xlink:href="../../dc/d83/classTplAppXlight.html#ae864a091d96295893e91db73a0dd3188" target="_top" xlink:title=" ">
<polygon fill="white" stroke="#666666" points="841.75,-83.75 650.25,-83.75 650.25,-42.75 841.75,-42.75 841.75,-83.75"/>
<text text-anchor="start" x="658.25" y="-66.45" font-family="Helvetica,sans-Serif" font-size="14.00">TplAppXlight\getMenuXlight</text>
<text text-anchor="middle" x="746" y="-49.95" font-family="Helvetica,sans-Serif" font-size="14.00">Service</text>
</a>
</g>
</g>
<!-- Node24&#45;&gt;Node29 -->
<g id="edge44_Node000024_Node000029" class="edge">
<title>Node24&#45;&gt;Node29</title>
<g id="a_edge44_Node000024_Node000029"><a xlink:title=" ">
<path fill="none" stroke="#63b8ff" d="M1008.89,-428.97C980.97,-350.18 891.3,-98.13 884.5,-92.25 872.41,-81.8 857.51,-74.8 842.02,-70.17"/>
<polygon fill="#63b8ff" stroke="#63b8ff" points="1005.54,-429.99 1012.17,-438.25 1012.14,-427.65 1005.54,-429.99"/>
</a>
</g>
</g>
<!-- Node30 -->
<g id="Node000030" class="node">
<title>Node30</title>
<g id="a_Node000030"><a xlink:href="../../dd/d85/classTplAppEditConf.html#a768a2dd9f3aa25167ebe56a01660a859" target="_top" xlink:title=" ">
<polygon fill="white" stroke="#666666" points="832.75,-346.5 659.25,-346.5 659.25,-322 832.75,-322 832.75,-346.5"/>
<text text-anchor="middle" x="746" y="-329.2" font-family="Helvetica,sans-Serif" font-size="14.00">TplAppEditConf\process</text>
</a>
</g>
</g>
<!-- Node24&#45;&gt;Node30 -->
<g id="edge45_Node000024_Node000030" class="edge">
<title>Node24&#45;&gt;Node30</title>
<g id="a_edge45_Node000024_Node000030"><a xlink:title=" ">
<path fill="none" stroke="#63b8ff" d="M995.88,-431.91C971.2,-409.54 928.24,-374.36 884.5,-356.25 868.42,-349.59 850.51,-344.94 833.06,-341.69"/>
<polygon fill="#63b8ff" stroke="#63b8ff" points="993.29,-434.28 1003.01,-438.49 998.04,-429.14 993.29,-434.28"/>
</a>
</g>
</g>
<!-- Node30&#45;&gt;Node23 -->
<g id="edge46_Node000030_Node000023" class="edge">
<title>Node30&#45;&gt;Node23</title>
<g id="a_edge46_Node000030_Node000023"><a xlink:title=" ">
<path fill="none" stroke="#63b8ff" d="M647.83,-337.86C633.36,-341.67 619.36,-347.5 607.5,-356.25 514.23,-425.08 481.36,-575.53 473.51,-619.78"/>
<polygon fill="#63b8ff" stroke="#63b8ff" points="648.49,-341.3 657.47,-335.67 646.94,-334.47 648.49,-341.3"/>
</a>
</g>
</g>
</g>
</svg>

<g id="navigator" transform="translate(0 0)" fill="#404254">
  <rect fill="#f2f5e9" fill-opacity="0.5" stroke="#606060" stroke-width=".5" x="0" y="0" width="60" height="60"/>
  <use id="zoomplus" xlink:href="#zoomPlus" x="17" y="9" onmousedown="handleZoom(evt,'in')"/>
  <use id="zoomminus" xlink:href="#zoomMin" x="42" y="9" onmousedown="handleZoom(evt,'out')"/>
  <use id="reset" xlink:href="#resetDef" x="30" y="36" onmousedown="handleReset()"/>
   <use id="arrowup" xlink:href="#arrowUp" x="0" y="0" onmousedown="handlePan(0,-1)"/>
  <use id="arrowright" xlink:href="#arrowRight" x="0" y="0" onmousedown="handlePan(1,0)"/>
  <use id="arrowdown" xlink:href="#arrowDown" x="0" y="0" onmousedown="handlePan(0,1)"/>
  <use id="arrowleft" xlink:href="#arrowLeft" x="0" y="0" onmousedown="handlePan(-1,0)"/>
</g>
<svg viewBox="0 0 15 15" width="100%" height="30px" preserveAspectRatio="xMaxYMin meet">
 <g id="arrow_out" transform="scale(0.3 0.3)">
  <a xlink:href="classTplAestan_aee0220718148d4a3c95a6add190df33d_icgraph_org.svg" target="_base">
   <rect id="button" ry="5" rx="5" y="6" x="6" height="38" width="38"
        fill="#f2f5e9" fill-opacity="0.5" stroke="#606060" stroke-width="1.0"/>
   <path id="arrow"
     d="M 11.500037,31.436501 C 11.940474,20.09759 22.043105,11.32322 32.158766,21.979434 L 37.068811,17.246167 C 37.068811,17.246167 37.088388,32 37.088388,32 L 22.160133,31.978069 C 22.160133,31.978069 26.997745,27.140456 26.997745,27.140456 C 18.528582,18.264221 13.291696,25.230495 11.500037,31.436501 z"
     style="fill:#404040;"/>
  </a>
 </g>
</svg>

<style type='text/css'>
<![CDATA[
[data-mouse-over-selected='false'] { opacity: 0.7; }
[data-mouse-over-selected='true']  { opacity: 1.0; }
]]>
</style>
<script type="application/ecmascript"><![CDATA[
document.addEventListener('DOMContentLoaded', (event) => {
  highlightEdges();
  highlightAdjacentNodes();
});
]]></script>
</svg>
