<?xml version="1.0" encoding="UTF-8" standalone="no"?>
<!--
  - Copyright (c) 2021-2024 Bearsampp
  - License:  GNU General Public License version 3 or later; see LICENSE.txt
  - Author: Bear
  - Website: https://bearsampp.com
  - Github: https://github.com/Bearsampp
  -->

<!DOCTYPE svg PUBLIC "-//W3C//DTD SVG 1.1//EN"
 "http://www.w3.org/Graphics/SVG/1.1/DTD/svg11.dtd">
<!-- Generated by graphviz version 11.0.0 (20240428.1522)
 -->
<!-- Title: QuickPick\rebuildQuickpickJson Pages: 1 -->
<svg width="682pt" height="33pt"
 viewBox="0.00 0.00 681.50 32.50" xmlns="http://www.w3.org/2000/svg" xmlns:xlink="http://www.w3.org/1999/xlink">
<g id="graph0" class="graph" transform="scale(1 1) rotate(0) translate(4 28.5)">
<title>QuickPick\rebuildQuickpickJson</title>
<!-- Node1 -->
<g id="Node000001" class="node">
<title>Node1</title>
<g id="a_Node000001"><a xlink:title=" ">
<polygon fill="#999999" stroke="#666666" points="673.5,-24.5 455.75,-24.5 455.75,0 673.5,0 673.5,-24.5"/>
<text text-anchor="middle" x="564.62" y="-7.2" font-family="Helvetica,sans-Serif" font-size="14.00">QuickPick\rebuildQuickpickJson</text>
</a>
</g>
</g>
<!-- Node2 -->
<g id="Node000002" class="node">
<title>Node2</title>
<g id="a_Node000002"><a xlink:href="../../d7/dcf/classQuickPick.html#aa5243ce9c1e5a2fd02f4c60ecbcd3a55" target="_top" xlink:title=" ">
<polygon fill="white" stroke="#666666" points="419.75,-24.5 207.25,-24.5 207.25,0 419.75,0 419.75,-24.5"/>
<text text-anchor="middle" x="313.5" y="-7.2" font-family="Helvetica,sans-Serif" font-size="14.00">QuickPick\checkQuickpickJson</text>
</a>
</g>
</g>
<!-- Node1&#45;&gt;Node2 -->
<g id="edge1_Node000001_Node000002" class="edge">
<title>Node1&#45;&gt;Node2</title>
<g id="a_edge1_Node000001_Node000002"><a xlink:title=" ">
<path fill="none" stroke="#63b8ff" d="M444.17,-12.25C436.17,-12.25 428.14,-12.25 420.22,-12.25"/>
<polygon fill="#63b8ff" stroke="#63b8ff" points="443.93,-15.75 453.93,-12.25 443.93,-8.75 443.93,-15.75"/>
</a>
</g>
</g>
<!-- Node3 -->
<g id="Node000003" class="node">
<title>Node3</title>
<g id="a_Node000003"><a xlink:href="../../d7/dcf/classQuickPick.html#ad084d8cf90355606b57515aee3b1a8ec" target="_top" xlink:title=" ">
<polygon fill="white" stroke="#666666" points="171.25,-24.5 0,-24.5 0,0 171.25,0 171.25,-24.5"/>
<text text-anchor="middle" x="85.62" y="-7.2" font-family="Helvetica,sans-Serif" font-size="14.00">QuickPick\loadQuickpick</text>
</a>
</g>
</g>
<!-- Node2&#45;&gt;Node3 -->
<g id="edge2_Node000002_Node000003" class="edge">
<title>Node2&#45;&gt;Node3</title>
<g id="a_edge2_Node000002_Node000003"><a xlink:title=" ">
<path fill="none" stroke="#63b8ff" d="M195.46,-12.25C187.41,-12.25 179.39,-12.25 171.56,-12.25"/>
<polygon fill="#63b8ff" stroke="#63b8ff" points="195.32,-15.75 205.32,-12.25 195.32,-8.75 195.32,-15.75"/>
</a>
</g>
</g>
</g>
</svg>
