<?xml version="1.0" encoding="UTF-8" standalone="no"?>
<!--
  - Copyright (c) 2021-2024 Bearsampp
  - License:  GNU General Public License version 3 or later; see LICENSE.txt
  - Author: Bear
  - Website: https://bearsampp.com
  - Github: https://github.com/Bearsampp
  -->

<!DOCTYPE svg PUBLIC "-//W3C//DTD SVG 1.1//EN"
 "http://www.w3.org/Graphics/SVG/1.1/DTD/svg11.dtd">
<!-- Generated by graphviz version 11.0.0 (20240428.1522)
 -->
<!-- Title: QuickPick\getVersions Pages: 1 -->
<svg width="575pt" height="76pt"
 viewBox="0.00 0.00 575.00 75.50" xmlns="http://www.w3.org/2000/svg" xmlns:xlink="http://www.w3.org/1999/xlink">
<g id="graph0" class="graph" transform="scale(1 1) rotate(0) translate(4 71.5)">
<title>QuickPick\getVersions</title>
<!-- Node1 -->
<g id="Node000001" class="node">
<title>Node1</title>
<g id="a_Node000001"><a xlink:title=" ">
<polygon fill="#999999" stroke="#666666" points="567,-45.5 407.75,-45.5 407.75,-21 567,-21 567,-45.5"/>
<text text-anchor="middle" x="487.38" y="-28.2" font-family="Helvetica,sans-Serif" font-size="14.00">QuickPick\getVersions</text>
</a>
</g>
</g>
<!-- Node2 -->
<g id="Node000002" class="node">
<title>Node2</title>
<g id="a_Node000002"><a xlink:href="../../d7/dcf/classQuickPick.html#ad61c517a41e99989d50e354fa29bdf8e" target="_top" xlink:title=" ">
<polygon fill="white" stroke="#666666" points="369.5,-67.5 202.75,-67.5 202.75,-43 369.5,-43 369.5,-67.5"/>
<text text-anchor="middle" x="286.12" y="-50.2" font-family="Helvetica,sans-Serif" font-size="14.00">QuickPick\getModuleUrl</text>
</a>
</g>
</g>
<!-- Node1&#45;&gt;Node2 -->
<g id="edge1_Node000001_Node000002" class="edge">
<title>Node1&#45;&gt;Node2</title>
<g id="a_edge1_Node000001_Node000002"><a xlink:title=" ">
<path fill="none" stroke="#63b8ff" d="M396.02,-43.23C387.35,-44.18 378.58,-45.15 369.99,-46.1"/>
<polygon fill="#63b8ff" stroke="#63b8ff" points="396.28,-46.72 405.84,-42.14 395.51,-39.76 396.28,-46.72"/>
</a>
</g>
</g>
<!-- Node4 -->
<g id="Node000004" class="node">
<title>Node4</title>
<g id="a_Node000004"><a xlink:href="../../d7/dcf/classQuickPick.html#ad084d8cf90355606b57515aee3b1a8ec" target="_top" xlink:title=" ">
<polygon fill="white" stroke="#666666" points="371.75,-24.5 200.5,-24.5 200.5,0 371.75,0 371.75,-24.5"/>
<text text-anchor="middle" x="286.12" y="-7.2" font-family="Helvetica,sans-Serif" font-size="14.00">QuickPick\loadQuickpick</text>
</a>
</g>
</g>
<!-- Node1&#45;&gt;Node4 -->
<g id="edge3_Node000001_Node000004" class="edge">
<title>Node1&#45;&gt;Node4</title>
<g id="a_edge3_Node000001_Node000004"><a xlink:title=" ">
<path fill="none" stroke="#63b8ff" d="M396.07,-23.73C388.04,-22.89 379.94,-22.03 371.96,-21.19"/>
<polygon fill="#63b8ff" stroke="#63b8ff" points="395.52,-27.19 405.83,-24.76 396.26,-20.23 395.52,-27.19"/>
</a>
</g>
</g>
<!-- Node3 -->
<g id="Node000003" class="node">
<title>Node3</title>
<g id="a_Node000003"><a xlink:href="../../d7/dcf/classQuickPick.html#aaefd30a9def8c06626fa59f72a87ae51" target="_top" xlink:title=" ">
<polygon fill="white" stroke="#666666" points="164.5,-67.5 0,-67.5 0,-43 164.5,-43 164.5,-67.5"/>
<text text-anchor="middle" x="82.25" y="-50.2" font-family="Helvetica,sans-Serif" font-size="14.00">QuickPick\installModule</text>
</a>
</g>
</g>
<!-- Node2&#45;&gt;Node3 -->
<g id="edge2_Node000002_Node000003" class="edge">
<title>Node2&#45;&gt;Node3</title>
<g id="a_edge2_Node000002_Node000003"><a xlink:title=" ">
<path fill="none" stroke="#63b8ff" d="M191,-55.25C182.26,-55.25 173.45,-55.25 164.84,-55.25"/>
<polygon fill="#63b8ff" stroke="#63b8ff" points="190.92,-58.75 200.92,-55.25 190.92,-51.75 190.92,-58.75"/>
</a>
</g>
</g>
</g>
</svg>
