<?xml version="1.0" encoding="UTF-8" standalone="no"?>
<!DOCTYPE svg PUBLIC "-//W3C//DTD SVG 1.1//EN"
 "http://www.w3.org/Graphics/SVG/1.1/DTD/svg11.dtd">
<!-- Generated by graphviz version 11.0.0 (20240428.1522)
 -->
<!-- Title: QuickPick\getModuleDestinationPath Pages: 1 -->
<svg width="715pt" height="33pt"
 viewBox="0.00 0.00 714.50 32.50" xmlns="http://www.w3.org/2000/svg" xmlns:xlink="http://www.w3.org/1999/xlink">
<g id="graph0" class="graph" transform="scale(1 1) rotate(0) translate(4 28.5)">
<title>QuickPick\getModuleDestinationPath</title>
<!-- Node1 -->
<g id="Node000001" class="node">
<title>Node1</title>
<g id="a_Node000001"><a xlink:title=" ">
<polygon fill="#999999" stroke="#666666" points="706.5,-24.5 458,-24.5 458,0 706.5,0 706.5,-24.5"/>
<text text-anchor="middle" x="582.25" y="-7.2" font-family="Helvetica,sans-Serif" font-size="14.00">QuickPick\getModuleDestinationPath</text>
</a>
</g>
</g>
<!-- Node2 -->
<g id="Node000002" class="node">
<title>Node2</title>
<g id="a_Node000002"><a xlink:href="../../d7/dcf/classQuickPick.html#a68eaa4bdcecea6ed2906b40fdcfc797e" target="_top" xlink:title=" ">
<polygon fill="white" stroke="#666666" points="422,-24.5 200.5,-24.5 200.5,0 422,0 422,-24.5"/>
<text text-anchor="middle" x="311.25" y="-7.2" font-family="Helvetica,sans-Serif" font-size="14.00">QuickPick\fetchAndUnzipModule</text>
</a>
</g>
</g>
<!-- Node1&#45;&gt;Node2 -->
<g id="edge1_Node000001_Node000002" class="edge">
<title>Node1&#45;&gt;Node2</title>
<g id="a_edge1_Node000001_Node000002"><a xlink:title=" ">
<path fill="none" stroke="#63b8ff" d="M446.33,-12.25C438.24,-12.25 430.14,-12.25 422.17,-12.25"/>
<polygon fill="#63b8ff" stroke="#63b8ff" points="446.26,-15.75 456.26,-12.25 446.26,-8.75 446.26,-15.75"/>
</a>
</g>
</g>
<!-- Node3 -->
<g id="Node000003" class="node">
<title>Node3</title>
<g id="a_Node000003"><a xlink:href="../../d7/dcf/classQuickPick.html#aaefd30a9def8c06626fa59f72a87ae51" target="_top" xlink:title=" ">
<polygon fill="white" stroke="#666666" points="164.5,-24.5 0,-24.5 0,0 164.5,0 164.5,-24.5"/>
<text text-anchor="middle" x="82.25" y="-7.2" font-family="Helvetica,sans-Serif" font-size="14.00">QuickPick\installModule</text>
</a>
</g>
</g>
<!-- Node2&#45;&gt;Node3 -->
<g id="edge2_Node000002_Node000003" class="edge">
<title>Node2&#45;&gt;Node3</title>
<g id="a_edge2_Node000002_Node000003"><a xlink:title=" ">
<path fill="none" stroke="#63b8ff" d="M188.68,-12.25C180.63,-12.25 172.64,-12.25 164.87,-12.25"/>
<polygon fill="#63b8ff" stroke="#63b8ff" points="188.56,-15.75 198.56,-12.25 188.56,-8.75 188.56,-15.75"/>
</a>
</g>
</g>
</g>
</svg>
