<?xml version="1.0" encoding="UTF-8" standalone="no"?>
<!--
  - Copyright (c) 2021-2024 Bearsampp
  - License:  GNU General Public License version 3 or later; see LICENSE.txt
  - Author: Bear
  - Website: https://bearsampp.com
  - Github: https://github.com/Bearsampp
  -->

<!DOCTYPE svg PUBLIC "-//W3C//DTD SVG 1.1//EN"
 "http://www.w3.org/Graphics/SVG/1.1/DTD/svg11.dtd">
<!-- Generated by graphviz version 11.0.0 (20240428.1522)
 -->
<!-- Title: QuickPick\checkDownloadId Pages: 1 -->
<svg width="646pt" height="33pt"
 viewBox="0.00 0.00 646.25 32.50" xmlns="http://www.w3.org/2000/svg" xmlns:xlink="http://www.w3.org/1999/xlink">
<g id="graph0" class="graph" transform="scale(1 1) rotate(0) translate(4 28.5)">
<title>QuickPick\checkDownloadId</title>
<!-- Node1 -->
<g id="Node000001" class="node">
<title>Node1</title>
<g id="a_Node000001"><a xlink:title=" ">
<polygon fill="#999999" stroke="#666666" points="638.25,-24.5 442.25,-24.5 442.25,0 638.25,0 638.25,-24.5"/>
<text text-anchor="middle" x="540.25" y="-7.2" font-family="Helvetica,sans-Serif" font-size="14.00">QuickPick\checkDownloadId</text>
</a>
</g>
</g>
<!-- Node2 -->
<g id="Node000002" class="node">
<title>Node2</title>
<g id="a_Node000002"><a xlink:href="../../d7/dcf/classQuickPick.html#a1ce22bffccae06cf6e817842c9dc829f" target="_top" xlink:title=" ">
<polygon fill="white" stroke="#666666" points="406.25,-24.5 207.25,-24.5 207.25,0 406.25,0 406.25,-24.5"/>
<text text-anchor="middle" x="306.75" y="-7.2" font-family="Helvetica,sans-Serif" font-size="14.00">QuickPick\getQuickpickMenu</text>
</a>
</g>
</g>
<!-- Node1&#45;&gt;Node2 -->
<g id="edge1_Node000001_Node000002" class="edge">
<title>Node1&#45;&gt;Node2</title>
<g id="a_edge1_Node000001_Node000002"><a xlink:title=" ">
<path fill="none" stroke="#63b8ff" d="M430.72,-12.25C422.65,-12.25 414.53,-12.25 406.53,-12.25"/>
<polygon fill="#63b8ff" stroke="#63b8ff" points="430.57,-15.75 440.57,-12.25 430.57,-8.75 430.57,-15.75"/>
</a>
</g>
</g>
<!-- Node3 -->
<g id="Node000003" class="node">
<title>Node3</title>
<g id="a_Node000003"><a xlink:href="../../d7/dcf/classQuickPick.html#ad084d8cf90355606b57515aee3b1a8ec" target="_top" xlink:title=" ">
<polygon fill="white" stroke="#666666" points="171.25,-24.5 0,-24.5 0,0 171.25,0 171.25,-24.5"/>
<text text-anchor="middle" x="85.62" y="-7.2" font-family="Helvetica,sans-Serif" font-size="14.00">QuickPick\loadQuickpick</text>
</a>
</g>
</g>
<!-- Node2&#45;&gt;Node3 -->
<g id="edge2_Node000002_Node000003" class="edge">
<title>Node2&#45;&gt;Node3</title>
<g id="a_edge2_Node000002_Node000003"><a xlink:title=" ">
<path fill="none" stroke="#63b8ff" d="M195.4,-12.25C187.35,-12.25 179.3,-12.25 171.44,-12.25"/>
<polygon fill="#63b8ff" stroke="#63b8ff" points="195.25,-15.75 205.25,-12.25 195.25,-8.75 195.25,-15.75"/>
</a>
</g>
</g>
</g>
</svg>
