<?xml version="1.0" encoding="UTF-8" standalone="no"?>
<!--
  - Copyright (c) 2021-2024 Bearsampp
  - License:  GNU General Public License version 3 or later; see LICENSE.txt
  - Author: Bear
  - Website: https://bearsampp.com
  - Github: https://github.com/Bearsampp
  -->

<!DOCTYPE svg PUBLIC "-//W3C//DTD SVG 1.1//EN"
 "http://www.w3.org/Graphics/SVG/1.1/DTD/svg11.dtd">
<!-- Generated by graphviz version 11.0.0 (20240428.1522)
 -->
<!-- Title: Root\getErrorLogFilePath Pages: 1 -->
<svg width="511pt" height="76pt"
 viewBox="0.00 0.00 511.25 75.50" xmlns="http://www.w3.org/2000/svg" xmlns:xlink="http://www.w3.org/1999/xlink">
<g id="graph0" class="graph" transform="scale(1 1) rotate(0) translate(4 71.5)">
<title>Root\getErrorLogFilePath</title>
<!-- Node1 -->
<g id="Node000001" class="node">
<title>Node1</title>
<g id="a_Node000001"><a xlink:title=" ">
<polygon fill="#999999" stroke="#666666" points="503.25,-45.5 324.5,-45.5 324.5,-21 503.25,-21 503.25,-45.5"/>
<text text-anchor="middle" x="413.88" y="-28.2" font-family="Helvetica,sans-Serif" font-size="14.00">Root\getErrorLogFilePath</text>
</a>
</g>
</g>
<!-- Node2 -->
<g id="Node000002" class="node">
<title>Node2</title>
<g id="a_Node000002"><a xlink:href="../../d8/d73/classRoot.html#aad8c713b34a3599f46d4281f534a7b04" target="_top" xlink:title=" ">
<polygon fill="white" stroke="#666666" points="276.12,-67.5 146.88,-67.5 146.88,-43 276.12,-43 276.12,-67.5"/>
<text text-anchor="middle" x="211.5" y="-50.2" font-family="Helvetica,sans-Serif" font-size="14.00">Root\errorHandler</text>
</a>
</g>
</g>
<!-- Node1&#45;&gt;Node2 -->
<g id="edge1_Node000001_Node000002" class="edge">
<title>Node1&#45;&gt;Node2</title>
<g id="a_edge1_Node000001_Node000002"><a xlink:title=" ">
<path fill="none" stroke="#63b8ff" d="M312.81,-44.24C300.47,-45.59 288.14,-46.95 276.55,-48.22"/>
<polygon fill="#63b8ff" stroke="#63b8ff" points="313.05,-47.73 322.61,-43.16 312.29,-40.77 313.05,-47.73"/>
</a>
</g>
</g>
<!-- Node3 -->
<g id="Node000003" class="node">
<title>Node3</title>
<g id="a_Node000003"><a xlink:href="../../d8/d73/classRoot.html#a3ab3bb71b33fd517d5a60bd8568849f4" target="_top" xlink:title=" ">
<polygon fill="white" stroke="#666666" points="288.5,-24.5 134.5,-24.5 134.5,0 288.5,0 288.5,-24.5"/>
<text text-anchor="middle" x="211.5" y="-7.2" font-family="Helvetica,sans-Serif" font-size="14.00">Root\initErrorHandling</text>
</a>
</g>
</g>
<!-- Node1&#45;&gt;Node3 -->
<g id="edge2_Node000001_Node000003" class="edge">
<title>Node1&#45;&gt;Node3</title>
<g id="a_edge2_Node000001_Node000003"><a xlink:title=" ">
<path fill="none" stroke="#63b8ff" d="M312.8,-22.76C304.79,-21.92 296.77,-21.08 288.96,-20.26"/>
<polygon fill="#63b8ff" stroke="#63b8ff" points="312.3,-26.23 322.61,-23.79 313.03,-19.27 312.3,-26.23"/>
</a>
</g>
</g>
<!-- Node4 -->
<g id="Node000004" class="node">
<title>Node4</title>
<g id="a_Node000004"><a xlink:href="../../d8/d73/classRoot.html#a5822729d482ed44e43363b12af6c4695" target="_top" xlink:title=" ">
<polygon fill="white" stroke="#666666" points="98.5,-24.5 0,-24.5 0,0 98.5,0 98.5,-24.5"/>
<text text-anchor="middle" x="49.25" y="-7.2" font-family="Helvetica,sans-Serif" font-size="14.00">Root\register</text>
</a>
</g>
</g>
<!-- Node3&#45;&gt;Node4 -->
<g id="edge3_Node000003_Node000004" class="edge">
<title>Node3&#45;&gt;Node4</title>
<g id="a_edge3_Node000003_Node000004"><a xlink:title=" ">
<path fill="none" stroke="#63b8ff" d="M122.79,-12.25C114.51,-12.25 106.33,-12.25 98.62,-12.25"/>
<polygon fill="#63b8ff" stroke="#63b8ff" points="122.62,-15.75 132.62,-12.25 122.62,-8.75 122.62,-15.75"/>
</a>
</g>
</g>
</g>
</svg>
