<?xml version="1.0" encoding="UTF-8" standalone="no"?>
<!--
  - Copyright (c) 2021-2024 Bearsampp
  - License:  GNU General Public License version 3 or later; see LICENSE.txt
  - Author: Bear
  - Website: https://bearsampp.com
  - Github: https://github.com/Bearsampp
  -->

<!DOCTYPE svg PUBLIC "-//W3C//DTD SVG 1.1//EN"
 "http://www.w3.org/Graphics/SVG/1.1/DTD/svg11.dtd">
<!-- Generated by graphviz version 11.0.0 (20240428.1522)
 -->
<!-- Title: Root\getRootPath Pages: 1 -->
<!--zoomable 586 -->

<svg id="main" version="1.1" xmlns="http://www.w3.org/2000/svg" xmlns:xlink="http://www.w3.org/1999/xlink" xml:space="preserve" onload="init(evt)">
<style type="text/css"><![CDATA[
.node, .edge {opacity: 0.7;}
.node.selected, .edge.selected {opacity: 1;}
.edge:hover path { stroke: red; }
.edge:hover polygon { stroke: red; fill: red; }
]]></style>

<defs>
  <circle id="rim" cx="0" cy="0" r="7"/>
  <circle id="rim2" cx="0" cy="0" r="3.5"/>
  <g id="zoomPlus">
    <use xlink:href="#rim" fill="#404040"><set attributeName="fill" to="#808080" begin="zoomplus.mouseover" end="zoomplus.mouseout"/></use>
    <path d="M-4,0h8M0,-4v8" fill="none" stroke="white" stroke-width="1.5" pointer-events="none"/>
  </g>
  <g id="zoomMin">
    <use xlink:href="#rim" fill="#404040"><set attributeName="fill" to="#808080" begin="zoomminus.mouseover" end="zoomminus.mouseout"/></use>
    <path d="M-4,0h8" fill="none" stroke="white" stroke-width="1.5" pointer-events="none"/>
  </g>
  <g id="arrowUp" transform="translate(30 24)">
    <use xlink:href="#rim"/>
    <path pointer-events="none" fill="none" stroke="white" stroke-width="1.5" d="M0,-3.0v7 M-2.5,-0.5L0,-3.0L2.5,-0.5"/>
  </g>
  <g id="arrowRight" transform="rotate(90) translate(36 -43)">
    <use xlink:href="#rim"/>
    <path pointer-events="none" fill="none" stroke="white" stroke-width="1.5" d="M0,-3.0v7 M-2.5,-0.5L0,-3.0L2.5,-0.5"/>
  </g>
  <g id="arrowDown" transform="rotate(180) translate(-30 -48)">
    <use xlink:href="#rim"/>
    <path pointer-events="none" fill="none" stroke="white" stroke-width="1.5" d="M0,-3.0v7 M-2.5,-0.5L0,-3.0L2.5,-0.5"/>
  </g>
  <g id="arrowLeft" transform="rotate(270) translate(-36 17)">
    <use xlink:href="#rim"/>
    <path pointer-events="none" fill="none" stroke="white" stroke-width="1.5" d="M0,-3.0v7 M-2.5,-0.5L0,-3.0L2.5,-0.5"/>
  </g>
  <g id="resetDef">
    <use xlink:href="#rim2" fill="#404040"><set attributeName="fill" to="#808080" begin="reset.mouseover" end="reset.mouseout"/></use>
  </g>
</defs>
<script type="application/ecmascript">
var viewWidth = 917;
var viewHeight = 586;
var sectionId = 'dynsection-5';
</script>
<script type="application/ecmascript" xlink:href="../../svg.min.js"/>
<svg id="graph" class="graph">
<g id="viewport">
<title>Root\getRootPath</title>
<!-- Node1 -->
<g id="Node000001" class="node">
<title>Node1</title>
<g id="a_Node000001"><a xlink:title=" ">
<polygon fill="#999999" stroke="#666666" points="908.75,-325.5 778.75,-325.5 778.75,-301 908.75,-301 908.75,-325.5"/>
<text text-anchor="middle" x="843.75" y="-308.2" font-family="Helvetica,sans-Serif" font-size="14.00">Root\getRootPath</text>
</a>
</g>
</g>
<!-- Node2 -->
<g id="Node000002" class="node">
<title>Node2</title>
<g id="a_Node000002"><a xlink:href="../../d8/d73/classRoot.html#ac294db39924512d49a7a4b5b2870883e" target="_top" xlink:title=" ">
<polygon fill="white" stroke="#666666" points="719.12,-577.5 601.88,-577.5 601.88,-553 719.12,-553 719.12,-577.5"/>
<text text-anchor="middle" x="660.5" y="-560.2" font-family="Helvetica,sans-Serif" font-size="14.00">Root\aetrayPath</text>
</a>
</g>
</g>
<!-- Node1&#45;&gt;Node2 -->
<g id="edge1_Node000001_Node000002" class="edge">
<title>Node1&#45;&gt;Node2</title>
<g id="a_edge1_Node000001_Node000002"><a xlink:title=" ">
<path fill="none" stroke="#63b8ff" d="M837.8,-336.85C828.13,-381.3 802.26,-476.78 742.75,-530.25 729.97,-541.73 712.09,-548.15 696.35,-552.57"/>
<polygon fill="#63b8ff" stroke="#63b8ff" points="841.19,-337.73 839.8,-327.23 834.34,-336.31 841.19,-337.73"/>
</a>
</g>
</g>
<!-- Node5 -->
<g id="Node000005" class="node">
<title>Node5</title>
<g id="a_Node000005"><a xlink:href="../../d8/d73/classRoot.html#aad8c713b34a3599f46d4281f534a7b04" target="_top" xlink:title=" ">
<polygon fill="white" stroke="#666666" points="276.12,-524.5 146.88,-524.5 146.88,-500 276.12,-500 276.12,-524.5"/>
<text text-anchor="middle" x="211.5" y="-507.2" font-family="Helvetica,sans-Serif" font-size="14.00">Root\errorHandler</text>
</a>
</g>
</g>
<!-- Node1&#45;&gt;Node5 -->
<g id="edge5_Node000001_Node000005" class="edge">
<title>Node1&#45;&gt;Node5</title>
<g id="a_edge5_Node000001_Node000005"><a xlink:title=" ">
<path fill="none" stroke="#63b8ff" d="M838.51,-337.16C829.5,-379.92 804.02,-468.51 742.75,-506.25 666.52,-553.2 400.04,-532.27 276.4,-519.51"/>
<polygon fill="#63b8ff" stroke="#63b8ff" points="841.93,-337.91 840.42,-327.42 835.06,-336.56 841.93,-337.91"/>
</a>
</g>
</g>
<!-- Node6 -->
<g id="Node000006" class="node">
<title>Node6</title>
<g id="a_Node000006"><a xlink:href="../../d8/d73/classRoot.html#a90dacabcbf34c507d5e709dc542f3ee4" target="_top" xlink:title=" ">
<polygon fill="white" stroke="#666666" points="725.5,-497.5 595.5,-497.5 595.5,-473 725.5,-473 725.5,-497.5"/>
<text text-anchor="middle" x="660.5" y="-480.2" font-family="Helvetica,sans-Serif" font-size="14.00">Root\getAliasPath</text>
</a>
</g>
</g>
<!-- Node1&#45;&gt;Node6 -->
<g id="edge6_Node000001_Node000006" class="edge">
<title>Node1&#45;&gt;Node6</title>
<g id="a_edge6_Node000001_Node000006"><a xlink:title=" ">
<path fill="none" stroke="#63b8ff" d="M833.59,-336.47C819.27,-369.69 788.43,-430.39 742.75,-463.25 737.53,-467 731.7,-470.12 725.64,-472.7"/>
<polygon fill="#63b8ff" stroke="#63b8ff" points="836.77,-337.93 837.38,-327.36 830.31,-335.25 836.77,-337.93"/>
</a>
</g>
</g>
<!-- Node7 -->
<g id="Node000007" class="node">
<title>Node7</title>
<g id="a_Node000007"><a xlink:href="../../d8/d73/classRoot.html#acfe071638227c0d948c55752eb099858" target="_top" xlink:title=" ">
<polygon fill="white" stroke="#666666" points="727,-454.5 594,-454.5 594,-430 727,-430 727,-454.5"/>
<text text-anchor="middle" x="660.5" y="-437.2" font-family="Helvetica,sans-Serif" font-size="14.00">Root\getAppsPath</text>
</a>
</g>
</g>
<!-- Node1&#45;&gt;Node7 -->
<g id="edge7_Node000001_Node000007" class="edge">
<title>Node1&#45;&gt;Node7</title>
<g id="a_edge7_Node000001_Node000007"><a xlink:title=" ">
<path fill="none" stroke="#63b8ff" d="M828.08,-335.12C810.6,-359.49 779.13,-398.35 742.75,-420.25 736.61,-423.94 729.85,-427.03 722.93,-429.6"/>
<polygon fill="#63b8ff" stroke="#63b8ff" points="830.76,-337.39 833.62,-327.19 825.03,-333.38 830.76,-337.39"/>
</a>
</g>
</g>
<!-- Node8 -->
<g id="Node000008" class="node">
<title>Node8</title>
<g id="a_Node000008"><a xlink:href="../../d8/d73/classRoot.html#a5ebb5806800458115a9ab3a1cbbef2a7" target="_top" xlink:title=" ">
<polygon fill="white" stroke="#666666" points="720.25,-411.5 600.75,-411.5 600.75,-387 720.25,-387 720.25,-411.5"/>
<text text-anchor="middle" x="660.5" y="-394.2" font-family="Helvetica,sans-Serif" font-size="14.00">Root\getBinPath</text>
</a>
</g>
</g>
<!-- Node1&#45;&gt;Node8 -->
<g id="edge8_Node000001_Node000008" class="edge">
<title>Node1&#45;&gt;Node8</title>
<g id="a_edge8_Node000001_Node000008"><a xlink:title=" ">
<path fill="none" stroke="#63b8ff" d="M817.55,-332.46C798.03,-346.56 769.84,-365.26 742.75,-377.25 734.73,-380.8 726.01,-383.89 717.35,-386.55"/>
<polygon fill="#63b8ff" stroke="#63b8ff" points="819.45,-335.41 825.43,-326.66 815.3,-329.77 819.45,-335.41"/>
</a>
</g>
</g>
<!-- Node9 -->
<g id="Node000009" class="node">
<title>Node9</title>
<g id="a_Node000009"><a xlink:href="../../d8/d73/classRoot.html#add51b541a57883b74210f6c134ca77d0" target="_top" xlink:title=" ">
<polygon fill="white" stroke="#666666" points="742.75,-368.5 578.25,-368.5 578.25,-344 742.75,-344 742.75,-368.5"/>
<text text-anchor="middle" x="660.5" y="-351.2" font-family="Helvetica,sans-Serif" font-size="14.00">Root\getConfigFilePath</text>
</a>
</g>
</g>
<!-- Node1&#45;&gt;Node9 -->
<g id="edge9_Node000001_Node000009" class="edge">
<title>Node1&#45;&gt;Node9</title>
<g id="a_edge9_Node000001_Node000009"><a xlink:title=" ">
<path fill="none" stroke="#63b8ff" d="M778.41,-328.51C757.7,-333.43 735,-338.81 715.15,-343.52"/>
<polygon fill="#63b8ff" stroke="#63b8ff" points="778.95,-331.98 787.88,-326.27 777.34,-325.17 778.95,-331.98"/>
</a>
</g>
</g>
<!-- Node10 -->
<g id="Node000010" class="node">
<title>Node10</title>
<g id="a_Node000010"><a xlink:href="../../d8/d73/classRoot.html#a7bf4178ca2fc761dbf652b9d46c17636" target="_top" xlink:title=" ">
<polygon fill="white" stroke="#666666" points="734.12,-325.5 586.88,-325.5 586.88,-301 734.12,-301 734.12,-325.5"/>
<text text-anchor="middle" x="660.5" y="-308.2" font-family="Helvetica,sans-Serif" font-size="14.00">Root\getExeFilePath</text>
</a>
</g>
</g>
<!-- Node1&#45;&gt;Node10 -->
<g id="edge10_Node000001_Node000010" class="edge">
<title>Node1&#45;&gt;Node10</title>
<g id="a_edge10_Node000001_Node000010"><a xlink:title=" ">
<path fill="none" stroke="#63b8ff" d="M767.16,-313.25C756.3,-313.25 745.15,-313.25 734.35,-313.25"/>
<polygon fill="#63b8ff" stroke="#63b8ff" points="766.82,-316.75 776.82,-313.25 766.82,-309.75 766.82,-316.75"/>
</a>
</g>
</g>
<!-- Node11 -->
<g id="Node000011" class="node">
<title>Node11</title>
<g id="a_Node000011"><a xlink:href="../../d8/d73/classRoot.html#ad51064b235c02e70067309fcae81c963" target="_top" xlink:title=" ">
<polygon fill="white" stroke="#666666" points="729.25,-282.5 591.75,-282.5 591.75,-258 729.25,-258 729.25,-282.5"/>
<text text-anchor="middle" x="660.5" y="-265.2" font-family="Helvetica,sans-Serif" font-size="14.00">Root\getIniFilePath</text>
</a>
</g>
</g>
<!-- Node1&#45;&gt;Node11 -->
<g id="edge11_Node000001_Node000011" class="edge">
<title>Node1&#45;&gt;Node11</title>
<g id="a_edge11_Node000001_Node000011"><a xlink:title=" ">
<path fill="none" stroke="#63b8ff" d="M778.41,-297.99C757.7,-293.07 735,-287.69 715.15,-282.98"/>
<polygon fill="#63b8ff" stroke="#63b8ff" points="777.34,-301.33 787.88,-300.23 778.95,-294.52 777.34,-301.33"/>
</a>
</g>
</g>
<!-- Node12 -->
<g id="Node000012" class="node">
<title>Node12</title>
<g id="a_Node000012"><a xlink:href="../../d8/d73/classRoot.html#ad4495349d6188d3563649076d9cedca5" target="_top" xlink:title=" ">
<polygon fill="white" stroke="#666666" points="726.25,-239.5 594.75,-239.5 594.75,-215 726.25,-215 726.25,-239.5"/>
<text text-anchor="middle" x="660.5" y="-222.2" font-family="Helvetica,sans-Serif" font-size="14.00">Root\getLogsPath</text>
</a>
</g>
</g>
<!-- Node1&#45;&gt;Node12 -->
<g id="edge12_Node000001_Node000012" class="edge">
<title>Node1&#45;&gt;Node12</title>
<g id="a_edge12_Node000001_Node000012"><a xlink:title=" ">
<path fill="none" stroke="#63b8ff" d="M817.55,-294.04C798.03,-279.94 769.84,-261.24 742.75,-249.25 734.73,-245.7 726.01,-242.61 717.35,-239.95"/>
<polygon fill="#63b8ff" stroke="#63b8ff" points="815.3,-296.73 825.43,-299.84 819.45,-291.09 815.3,-296.73"/>
</a>
</g>
</g>
<!-- Node24 -->
<g id="Node000024" class="node">
<title>Node24</title>
<g id="a_Node000024"><a xlink:href="../../d8/d73/classRoot.html#abdf2f4c3b7f9cfea945250de064a111e" target="_top" xlink:title=" ">
<polygon fill="white" stroke="#666666" points="720.25,-196.5 600.75,-196.5 600.75,-172 720.25,-172 720.25,-196.5"/>
<text text-anchor="middle" x="660.5" y="-179.2" font-family="Helvetica,sans-Serif" font-size="14.00">Root\getSslPath</text>
</a>
</g>
</g>
<!-- Node1&#45;&gt;Node24 -->
<g id="edge26_Node000001_Node000024" class="edge">
<title>Node1&#45;&gt;Node24</title>
<g id="a_edge26_Node000001_Node000024"><a xlink:title=" ">
<path fill="none" stroke="#63b8ff" d="M828.08,-291.38C810.6,-267.01 779.13,-228.15 742.75,-206.25 735.86,-202.11 728.19,-198.73 720.37,-195.97"/>
<polygon fill="#63b8ff" stroke="#63b8ff" points="825.03,-293.12 833.62,-299.31 830.76,-289.11 825.03,-293.12"/>
</a>
</g>
</g>
<!-- Node26 -->
<g id="Node000026" class="node">
<title>Node26</title>
<g id="a_Node000026"><a xlink:href="../../d8/d73/classRoot.html#a6c0fc9fe6a84784b0582abfd27d09aef" target="_top" xlink:title=" ">
<polygon fill="white" stroke="#666666" points="724.75,-153.5 596.25,-153.5 596.25,-129 724.75,-129 724.75,-153.5"/>
<text text-anchor="middle" x="660.5" y="-136.2" font-family="Helvetica,sans-Serif" font-size="14.00">Root\getTmpPath</text>
</a>
</g>
</g>
<!-- Node1&#45;&gt;Node26 -->
<g id="edge28_Node000001_Node000026" class="edge">
<title>Node1&#45;&gt;Node26</title>
<g id="a_edge28_Node000001_Node000026"><a xlink:title=" ">
<path fill="none" stroke="#63b8ff" d="M833.59,-290.03C819.27,-256.81 788.43,-196.11 742.75,-163.25 737.41,-159.41 731.44,-156.24 725.22,-153.62"/>
<polygon fill="#63b8ff" stroke="#63b8ff" points="830.31,-291.25 837.38,-299.14 836.77,-288.57 830.31,-291.25"/>
</a>
</g>
</g>
<!-- Node27 -->
<g id="Node000027" class="node">
<title>Node27</title>
<g id="a_Node000027"><a xlink:href="../../d8/d73/classRoot.html#ac0de6e05d3485457d3a8145f71b3282b" target="_top" xlink:title=" ">
<polygon fill="white" stroke="#666666" points="728.12,-110.5 592.88,-110.5 592.88,-86 728.12,-86 728.12,-110.5"/>
<text text-anchor="middle" x="660.5" y="-93.2" font-family="Helvetica,sans-Serif" font-size="14.00">Root\getToolsPath</text>
</a>
</g>
</g>
<!-- Node1&#45;&gt;Node27 -->
<g id="edge29_Node000001_Node000027" class="edge">
<title>Node1&#45;&gt;Node27</title>
<g id="a_edge29_Node000001_Node000027"><a xlink:title=" ">
<path fill="none" stroke="#63b8ff" d="M837.18,-289.65C826.29,-248.8 798.25,-165 742.75,-120.25 738.2,-116.58 733.09,-113.52 727.7,-110.97"/>
<polygon fill="#63b8ff" stroke="#63b8ff" points="833.74,-290.34 839.59,-299.17 840.53,-288.61 833.74,-290.34"/>
</a>
</g>
</g>
<!-- Node28 -->
<g id="Node000028" class="node">
<title>Node28</title>
<g id="a_Node000028"><a xlink:href="../../d8/d73/classRoot.html#a90db659649f4fcd31e1a7c28f8048142" target="_top" xlink:title=" ">
<polygon fill="white" stroke="#666666" points="732.25,-67.5 588.75,-67.5 588.75,-43 732.25,-43 732.25,-67.5"/>
<text text-anchor="middle" x="660.5" y="-50.2" font-family="Helvetica,sans-Serif" font-size="14.00">Root\getVhostsPath</text>
</a>
</g>
</g>
<!-- Node1&#45;&gt;Node28 -->
<g id="edge30_Node000001_Node000028" class="edge">
<title>Node1&#45;&gt;Node28</title>
<g id="a_edge30_Node000001_Node000028"><a xlink:title=" ">
<path fill="none" stroke="#63b8ff" d="M839.57,-289.2C831.95,-241.44 808.17,-134.3 742.75,-77.25 738.56,-73.6 733.83,-70.55 728.81,-68"/>
<polygon fill="#63b8ff" stroke="#63b8ff" points="836.09,-289.63 841.02,-299.01 843.02,-288.61 836.09,-289.63"/>
</a>
</g>
</g>
<!-- Node29 -->
<g id="Node000029" class="node">
<title>Node29</title>
<g id="a_Node000029"><a xlink:href="../../d8/d73/classRoot.html#a7a4cacb869137dd8cbe7072a1afc3e44" target="_top" xlink:title=" ">
<polygon fill="white" stroke="#666666" points="727,-24.5 594,-24.5 594,0 727,0 727,-24.5"/>
<text text-anchor="middle" x="660.5" y="-7.2" font-family="Helvetica,sans-Serif" font-size="14.00">Root\getWwwPath</text>
</a>
</g>
</g>
<!-- Node1&#45;&gt;Node29 -->
<g id="edge31_Node000001_Node000029" class="edge">
<title>Node1&#45;&gt;Node29</title>
<g id="a_edge31_Node000001_Node000029"><a xlink:title=" ">
<path fill="none" stroke="#63b8ff" d="M841.37,-289.41C836.94,-235.65 818.52,-104.21 742.75,-34.25 738.24,-30.09 733.02,-26.7 727.45,-23.94"/>
<polygon fill="#63b8ff" stroke="#63b8ff" points="837.87,-289.54 842.08,-299.26 844.85,-289.04 837.87,-289.54"/>
</a>
</g>
</g>
<!-- Node2&#45;&gt;Node1 -->
<g id="edge4_Node000002_Node000001" class="edge">
<title>Node2&#45;&gt;Node1</title>
<g id="a_edge4_Node000002_Node000001"><a xlink:title=" ">
<path fill="none" stroke="#63b8ff" d="M729.51,-557.57C734.27,-554.93 738.76,-551.84 742.75,-548.25 812.49,-485.6 836.03,-365.26 841.43,-325.75"/>
<polygon fill="#63b8ff" stroke="#63b8ff" points="728.31,-554.26 720.78,-561.71 731.31,-560.58 728.31,-554.26"/>
</a>
</g>
</g>
<!-- Node3 -->
<g id="Node000003" class="node">
<title>Node3</title>
<g id="a_Node000003"><a xlink:href="../../d8/d73/classRoot.html#a774cac1645c02419b1991d0692ceed17" target="_top" xlink:title=" ">
<polygon fill="white" stroke="#666666" points="276.88,-571.5 146.12,-571.5 146.12,-547 276.88,-547 276.88,-571.5"/>
<text text-anchor="middle" x="211.5" y="-554.2" font-family="Helvetica,sans-Serif" font-size="14.00">Root\getCorePath</text>
</a>
</g>
</g>
<!-- Node2&#45;&gt;Node3 -->
<g id="edge2_Node000002_Node000003" class="edge">
<title>Node2&#45;&gt;Node3</title>
<g id="a_edge2_Node000002_Node000003"><a xlink:title=" ">
<path fill="none" stroke="#63b8ff" d="M590.12,-564.32C504.64,-563.17 360.55,-561.24 277.25,-560.12"/>
<polygon fill="#63b8ff" stroke="#63b8ff" points="589.96,-567.82 600.01,-564.45 590.06,-560.82 589.96,-567.82"/>
</a>
</g>
</g>
<!-- Node4 -->
<g id="Node000004" class="node">
<title>Node4</title>
<g id="a_Node000004"><a xlink:href="../../d8/d73/classRoot.html#a5822729d482ed44e43363b12af6c4695" target="_top" xlink:title=" ">
<polygon fill="white" stroke="#666666" points="98.5,-515.5 0,-515.5 0,-491 98.5,-491 98.5,-515.5"/>
<text text-anchor="middle" x="49.25" y="-498.2" font-family="Helvetica,sans-Serif" font-size="14.00">Root\register</text>
</a>
</g>
</g>
<!-- Node3&#45;&gt;Node4 -->
<g id="edge3_Node000003_Node000004" class="edge">
<title>Node3&#45;&gt;Node4</title>
<g id="a_edge3_Node000003_Node000004"><a xlink:title=" ">
<path fill="none" stroke="#63b8ff" d="M162.34,-542.87C153.09,-539.7 143.49,-536.39 134.5,-533.25 118.38,-527.62 100.55,-521.29 85.47,-515.9"/>
<polygon fill="#63b8ff" stroke="#63b8ff" points="160.95,-546.1 171.54,-546.02 163.21,-539.47 160.95,-546.1"/>
</a>
</g>
</g>
<!-- Node13 -->
<g id="Node000013" class="node">
<title>Node13</title>
<g id="a_Node000013"><a xlink:href="../../d8/d73/classRoot.html#af4c81b3cec4f2c11cc0de39065ca092c" target="_top" xlink:title=" ">
<polygon fill="white" stroke="#666666" points="525,-497.5 341.75,-497.5 341.75,-473 525,-473 525,-497.5"/>
<text text-anchor="middle" x="433.38" y="-480.2" font-family="Helvetica,sans-Serif" font-size="14.00">Root\getBatchLogFilePath</text>
</a>
</g>
</g>
<!-- Node12&#45;&gt;Node13 -->
<g id="edge13_Node000012_Node000013" class="edge">
<title>Node12&#45;&gt;Node13</title>
<g id="a_edge13_Node000012_Node000013"><a xlink:title=" ">
<path fill="none" stroke="#63b8ff" d="M584.71,-243.31C582.39,-245.1 580.23,-247.07 578.25,-249.25 513.47,-320.7 609.26,-393.88 542.25,-463.25 537.34,-468.34 531.59,-472.41 525.35,-475.66"/>
<polygon fill="#63b8ff" stroke="#63b8ff" points="586.39,-246.39 593.01,-238.12 582.68,-240.46 586.39,-246.39"/>
</a>
</g>
</g>
<!-- Node14 -->
<g id="Node000014" class="node">
<title>Node14</title>
<g id="a_Node000014"><a xlink:href="../../d8/d73/classRoot.html#a8bb760deeee837213b506e45baf184c6" target="_top" xlink:title=" ">
<polygon fill="white" stroke="#666666" points="522.75,-454.5 344,-454.5 344,-430 522.75,-430 522.75,-454.5"/>
<text text-anchor="middle" x="433.38" y="-437.2" font-family="Helvetica,sans-Serif" font-size="14.00">Root\getErrorLogFilePath</text>
</a>
</g>
</g>
<!-- Node12&#45;&gt;Node14 -->
<g id="edge14_Node000012_Node000014" class="edge">
<title>Node12&#45;&gt;Node14</title>
<g id="a_edge14_Node000012_Node000014"><a xlink:title=" ">
<path fill="none" stroke="#63b8ff" d="M584.82,-243.42C582.47,-245.17 580.27,-247.11 578.25,-249.25 524.92,-305.71 597.34,-365.51 542.25,-420.25 536.69,-425.77 530.15,-430.09 523.07,-433.45"/>
<polygon fill="#63b8ff" stroke="#63b8ff" points="586.49,-246.5 593.2,-238.3 582.85,-240.52 586.49,-246.5"/>
</a>
</g>
</g>
<!-- Node16 -->
<g id="Node000016" class="node">
<title>Node16</title>
<g id="a_Node000016"><a xlink:href="../../d8/d73/classRoot.html#afe4e3dc639e9a81bc443e0355ef1cf91" target="_top" xlink:title=" ">
<polygon fill="white" stroke="#666666" points="542.25,-411.5 324.5,-411.5 324.5,-387 542.25,-387 542.25,-411.5"/>
<text text-anchor="middle" x="433.38" y="-394.2" font-family="Helvetica,sans-Serif" font-size="14.00">Root\getHomepageLogFilePath</text>
</a>
</g>
</g>
<!-- Node12&#45;&gt;Node16 -->
<g id="edge18_Node000012_Node000016" class="edge">
<title>Node12&#45;&gt;Node16</title>
<g id="a_edge18_Node000012_Node000016"><a xlink:title=" ">
<path fill="none" stroke="#63b8ff" d="M584.84,-243.7C582.5,-245.38 580.29,-247.23 578.25,-249.25 536.26,-290.83 585.53,-337.02 542.25,-377.25 538.33,-380.89 533.98,-384 529.33,-386.65"/>
<polygon fill="#63b8ff" stroke="#63b8ff" points="586.31,-246.91 593.12,-238.79 582.73,-240.89 586.31,-246.91"/>
</a>
</g>
</g>
<!-- Node17 -->
<g id="Node000017" class="node">
<title>Node17</title>
<g id="a_Node000017"><a xlink:href="../../d8/d73/classRoot.html#a0d3e1c685fcb54d639433be084dc38a4" target="_top" xlink:title=" ">
<polygon fill="white" stroke="#666666" points="507,-368.5 359.75,-368.5 359.75,-344 507,-344 507,-368.5"/>
<text text-anchor="middle" x="433.38" y="-351.2" font-family="Helvetica,sans-Serif" font-size="14.00">Root\getLogFilePath</text>
</a>
</g>
</g>
<!-- Node12&#45;&gt;Node17 -->
<g id="edge19_Node000012_Node000017" class="edge">
<title>Node12&#45;&gt;Node17</title>
<g id="a_edge19_Node000012_Node000017"><a xlink:title=" ">
<path fill="none" stroke="#63b8ff" d="M584.75,-244.32C582.47,-245.83 580.29,-247.47 578.25,-249.25 547.33,-276.22 574,-308.27 542.25,-334.25 532.26,-342.42 520.04,-347.81 507.46,-351.32"/>
<polygon fill="#63b8ff" stroke="#63b8ff" points="586.24,-247.49 593.27,-239.56 582.83,-241.38 586.24,-247.49"/>
</a>
</g>
</g>
<!-- Node18 -->
<g id="Node000018" class="node">
<title>Node18</title>
<g id="a_Node000018"><a xlink:href="../../d8/d73/classRoot.html#ae4aaabdcb75db5c2b8be50f1bdc4612c" target="_top" xlink:title=" ">
<polygon fill="white" stroke="#666666" points="525.38,-325.5 341.38,-325.5 341.38,-301 525.38,-301 525.38,-325.5"/>
<text text-anchor="middle" x="433.38" y="-308.2" font-family="Helvetica,sans-Serif" font-size="14.00">Root\getNssmLogFilePath</text>
</a>
</g>
</g>
<!-- Node12&#45;&gt;Node18 -->
<g id="edge20_Node000012_Node000018" class="edge">
<title>Node12&#45;&gt;Node18</title>
<g id="a_edge20_Node000012_Node000018"><a xlink:title=" ">
<path fill="none" stroke="#63b8ff" d="M586.77,-244.48C583.83,-245.94 580.97,-247.53 578.25,-249.25 557.46,-262.38 563.44,-278.79 542.25,-291.25 535.99,-294.93 529.21,-298.01 522.21,-300.57"/>
<polygon fill="#63b8ff" stroke="#63b8ff" points="587.93,-247.79 595.69,-240.57 585.12,-241.38 587.93,-247.79"/>
</a>
</g>
</g>
<!-- Node19 -->
<g id="Node000019" class="node">
<title>Node19</title>
<g id="a_Node000019"><a xlink:href="../../d8/d73/classRoot.html#aae347c32c1cc1ceb92771037cef09aed" target="_top" xlink:title=" ">
<polygon fill="white" stroke="#666666" points="533.25,-282.5 333.5,-282.5 333.5,-258 533.25,-258 533.25,-282.5"/>
<text text-anchor="middle" x="433.38" y="-265.2" font-family="Helvetica,sans-Serif" font-size="14.00">Root\getRegistryLogFilePath</text>
</a>
</g>
</g>
<!-- Node12&#45;&gt;Node19 -->
<g id="edge21_Node000012_Node000019" class="edge">
<title>Node12&#45;&gt;Node19</title>
<g id="a_edge21_Node000012_Node000019"><a xlink:title=" ">
<path fill="none" stroke="#63b8ff" d="M583.15,-241.83C556.46,-246.93 526.73,-252.61 500.91,-257.54"/>
<polygon fill="#63b8ff" stroke="#63b8ff" points="583.73,-245.29 592.9,-239.97 582.42,-238.41 583.73,-245.29"/>
</a>
</g>
</g>
<!-- Node20 -->
<g id="Node000020" class="node">
<title>Node20</title>
<g id="a_Node000020"><a xlink:href="../../d8/d73/classRoot.html#a471382a697444618a0c28ed524ebeb3f" target="_top" xlink:title=" ">
<polygon fill="white" stroke="#666666" points="534.75,-239.5 332,-239.5 332,-215 534.75,-215 534.75,-239.5"/>
<text text-anchor="middle" x="433.38" y="-222.2" font-family="Helvetica,sans-Serif" font-size="14.00">Root\getServicesLogFilePath</text>
</a>
</g>
</g>
<!-- Node12&#45;&gt;Node20 -->
<g id="edge22_Node000012_Node000020" class="edge">
<title>Node12&#45;&gt;Node20</title>
<g id="a_edge22_Node000012_Node000020"><a xlink:title=" ">
<path fill="none" stroke="#63b8ff" d="M583.28,-227.25C567.76,-227.25 551.2,-227.25 534.98,-227.25"/>
<polygon fill="#63b8ff" stroke="#63b8ff" points="582.87,-230.75 592.87,-227.25 582.87,-223.75 582.87,-230.75"/>
</a>
</g>
</g>
<!-- Node21 -->
<g id="Node000021" class="node">
<title>Node21</title>
<g id="a_Node000021"><a xlink:href="../../d8/d73/classRoot.html#a16781ddf16af146aa663d9284785afa0" target="_top" xlink:title=" ">
<polygon fill="white" stroke="#666666" points="529.5,-196.5 337.25,-196.5 337.25,-172 529.5,-172 529.5,-196.5"/>
<text text-anchor="middle" x="433.38" y="-179.2" font-family="Helvetica,sans-Serif" font-size="14.00">Root\getStartupLogFilePath</text>
</a>
</g>
</g>
<!-- Node12&#45;&gt;Node21 -->
<g id="edge23_Node000012_Node000021" class="edge">
<title>Node12&#45;&gt;Node21</title>
<g id="a_edge23_Node000012_Node000021"><a xlink:title=" ">
<path fill="none" stroke="#63b8ff" d="M583.15,-212.67C556.46,-207.57 526.73,-201.89 500.91,-196.96"/>
<polygon fill="#63b8ff" stroke="#63b8ff" points="582.42,-216.09 592.9,-214.53 583.73,-209.21 582.42,-216.09"/>
</a>
</g>
</g>
<!-- Node22 -->
<g id="Node000022" class="node">
<title>Node22</title>
<g id="a_Node000022"><a xlink:href="../../d8/d73/classRoot.html#ad7e1631fb937b7856f77e8ab89e4e55d" target="_top" xlink:title=" ">
<polygon fill="white" stroke="#666666" points="519.75,-153.5 347,-153.5 347,-129 519.75,-129 519.75,-153.5"/>
<text text-anchor="middle" x="433.38" y="-136.2" font-family="Helvetica,sans-Serif" font-size="14.00">Root\getVbsLogFilePath</text>
</a>
</g>
</g>
<!-- Node12&#45;&gt;Node22 -->
<g id="edge24_Node000012_Node000022" class="edge">
<title>Node12&#45;&gt;Node22</title>
<g id="a_edge24_Node000012_Node000022"><a xlink:title=" ">
<path fill="none" stroke="#63b8ff" d="M586.77,-210.02C583.83,-208.56 580.97,-206.97 578.25,-205.25 557.46,-192.12 563.44,-175.71 542.25,-163.25 535.33,-159.18 527.78,-155.85 519.99,-153.14"/>
<polygon fill="#63b8ff" stroke="#63b8ff" points="585.12,-213.12 595.69,-213.93 587.93,-206.71 585.12,-213.12"/>
</a>
</g>
</g>
<!-- Node23 -->
<g id="Node000023" class="node">
<title>Node23</title>
<g id="a_Node000023"><a xlink:href="../../d8/d73/classRoot.html#a78641c68e89fe1c705f6981fc87efa57" target="_top" xlink:title=" ">
<polygon fill="white" stroke="#666666" points="539.25,-110.5 327.5,-110.5 327.5,-86 539.25,-86 539.25,-110.5"/>
<text text-anchor="middle" x="433.38" y="-93.2" font-family="Helvetica,sans-Serif" font-size="14.00">Root\getWinbinderLogFilePath</text>
</a>
</g>
</g>
<!-- Node12&#45;&gt;Node23 -->
<g id="edge25_Node000012_Node000023" class="edge">
<title>Node12&#45;&gt;Node23</title>
<g id="a_edge25_Node000012_Node000023"><a xlink:title=" ">
<path fill="none" stroke="#63b8ff" d="M584.75,-210.18C582.47,-208.67 580.29,-207.03 578.25,-205.25 547.33,-178.28 574,-146.23 542.25,-120.25 537.81,-116.62 532.93,-113.54 527.78,-110.93"/>
<polygon fill="#63b8ff" stroke="#63b8ff" points="582.83,-213.12 593.27,-214.94 586.24,-207.01 582.83,-213.12"/>
</a>
</g>
</g>
<!-- Node14&#45;&gt;Node5 -->
<g id="edge15_Node000014_Node000005" class="edge">
<title>Node14&#45;&gt;Node5</title>
<g id="a_edge15_Node000014_Node000005"><a xlink:title=" ">
<path fill="none" stroke="#63b8ff" d="M347.13,-457.64C339.41,-459.63 331.77,-461.83 324.5,-464.25 307.71,-469.84 304.7,-474.13 288.5,-481.25 274.28,-487.5 258.39,-494.05 244.83,-499.51"/>
<polygon fill="#63b8ff" stroke="#63b8ff" points="347.71,-461.1 356.59,-455.32 346.04,-454.3 347.71,-461.1"/>
</a>
</g>
</g>
<!-- Node15 -->
<g id="Node000015" class="node">
<title>Node15</title>
<g id="a_Node000015"><a xlink:href="../../d8/d73/classRoot.html#a3ab3bb71b33fd517d5a60bd8568849f4" target="_top" xlink:title=" ">
<polygon fill="white" stroke="#666666" points="288.5,-472.5 134.5,-472.5 134.5,-448 288.5,-448 288.5,-472.5"/>
<text text-anchor="middle" x="211.5" y="-455.2" font-family="Helvetica,sans-Serif" font-size="14.00">Root\initErrorHandling</text>
</a>
</g>
</g>
<!-- Node14&#45;&gt;Node15 -->
<g id="edge16_Node000014_Node000015" class="edge">
<title>Node14&#45;&gt;Node15</title>
<g id="a_edge16_Node000014_Node000015"><a xlink:title=" ">
<path fill="none" stroke="#63b8ff" d="M332.46,-450.43C317.83,-451.63 302.97,-452.84 288.91,-453.99"/>
<polygon fill="#63b8ff" stroke="#63b8ff" points="332.39,-453.95 342.07,-449.64 331.82,-446.97 332.39,-453.95"/>
</a>
</g>
</g>
<!-- Node15&#45;&gt;Node4 -->
<g id="edge17_Node000015_Node000004" class="edge">
<title>Node15&#45;&gt;Node4</title>
<g id="a_edge17_Node000015_Node000004"><a xlink:title=" ">
<path fill="none" stroke="#63b8ff" d="M152.35,-475.85C134.38,-480.67 114.83,-485.92 97.68,-490.52"/>
<polygon fill="#63b8ff" stroke="#63b8ff" points="153.07,-479.28 161.82,-473.31 151.26,-472.52 153.07,-479.28"/>
</a>
</g>
</g>
<!-- Node25 -->
<g id="Node000025" class="node">
<title>Node25</title>
<g id="a_Node000025"><a xlink:href="../../d8/d73/classRoot.html#a169b53072cc1c3c899618d034e3cac88" target="_top" xlink:title=" ">
<polygon fill="white" stroke="#666666" points="508.5,-67.5 358.25,-67.5 358.25,-43 508.5,-43 508.5,-67.5"/>
<text text-anchor="middle" x="433.38" y="-50.2" font-family="Helvetica,sans-Serif" font-size="14.00">Root\getSslConfPath</text>
</a>
</g>
</g>
<!-- Node24&#45;&gt;Node25 -->
<g id="edge27_Node000024_Node000025" class="edge">
<title>Node24&#45;&gt;Node25</title>
<g id="a_edge27_Node000024_Node000025"><a xlink:title=" ">
<path fill="none" stroke="#63b8ff" d="M590.08,-170.39C585.84,-168.08 581.84,-165.38 578.25,-162.25 547.33,-135.28 574,-103.23 542.25,-77.25 532.63,-69.38 520.95,-64.09 508.86,-60.58"/>
<polygon fill="#63b8ff" stroke="#63b8ff" points="588.41,-173.48 598.96,-174.49 591.35,-167.12 588.41,-173.48"/>
</a>
</g>
</g>
<!-- Node30 -->
<g id="Node000030" class="node">
<title>Node30</title>
<g id="a_Node000030"><a xlink:href="../../d8/d73/classRoot.html#ac33a6b4b6ba3fb3db4397274399ad390" target="_top" xlink:title=" ">
<polygon fill="white" stroke="#666666" points="529.88,-24.5 336.88,-24.5 336.88,0 529.88,0 529.88,-24.5"/>
<text text-anchor="middle" x="433.38" y="-7.2" font-family="Helvetica,sans-Serif" font-size="14.00">Root\getHomepageFilePath</text>
</a>
</g>
</g>
<!-- Node29&#45;&gt;Node30 -->
<g id="edge32_Node000029_Node000030" class="edge">
<title>Node29&#45;&gt;Node30</title>
<g id="a_edge32_Node000029_Node000030"><a xlink:title=" ">
<path fill="none" stroke="#63b8ff" d="M582.38,-12.25C565.62,-12.25 547.69,-12.25 530.3,-12.25"/>
<polygon fill="#63b8ff" stroke="#63b8ff" points="582.27,-15.75 592.27,-12.25 582.27,-8.75 582.27,-15.75"/>
</a>
</g>
</g>
</g>
</svg>

<g id="navigator" transform="translate(0 0)" fill="#404254">
  <rect fill="#f2f5e9" fill-opacity="0.5" stroke="#606060" stroke-width=".5" x="0" y="0" width="60" height="60"/>
  <use id="zoomplus" xlink:href="#zoomPlus" x="17" y="9" onmousedown="handleZoom(evt,'in')"/>
  <use id="zoomminus" xlink:href="#zoomMin" x="42" y="9" onmousedown="handleZoom(evt,'out')"/>
  <use id="reset" xlink:href="#resetDef" x="30" y="36" onmousedown="handleReset()"/>
   <use id="arrowup" xlink:href="#arrowUp" x="0" y="0" onmousedown="handlePan(0,-1)"/>
  <use id="arrowright" xlink:href="#arrowRight" x="0" y="0" onmousedown="handlePan(1,0)"/>
  <use id="arrowdown" xlink:href="#arrowDown" x="0" y="0" onmousedown="handlePan(0,1)"/>
  <use id="arrowleft" xlink:href="#arrowLeft" x="0" y="0" onmousedown="handlePan(-1,0)"/>
</g>
<svg viewBox="0 0 15 15" width="100%" height="30px" preserveAspectRatio="xMaxYMin meet">
 <g id="arrow_out" transform="scale(0.3 0.3)">
  <a xlink:href="classRoot_ab5d7ed743b7131977e4ccde6bd58a7de_icgraph_org.svg" target="_base">
   <rect id="button" ry="5" rx="5" y="6" x="6" height="38" width="38"
        fill="#f2f5e9" fill-opacity="0.5" stroke="#606060" stroke-width="1.0"/>
   <path id="arrow"
     d="M 11.500037,31.436501 C 11.940474,20.09759 22.043105,11.32322 32.158766,21.979434 L 37.068811,17.246167 C 37.068811,17.246167 37.088388,32 37.088388,32 L 22.160133,31.978069 C 22.160133,31.978069 26.997745,27.140456 26.997745,27.140456 C 18.528582,18.264221 13.291696,25.230495 11.500037,31.436501 z"
     style="fill:#404040;"/>
  </a>
 </g>
</svg>

<style type='text/css'>
<![CDATA[
[data-mouse-over-selected='false'] { opacity: 0.7; }
[data-mouse-over-selected='true']  { opacity: 1.0; }
]]>
</style>
<script type="application/ecmascript"><![CDATA[
document.addEventListener('DOMContentLoaded', (event) => {
  highlightEdges();
  highlightAdjacentNodes();
});
]]></script>
</svg>
