<?xml version="1.0" encoding="UTF-8" standalone="no"?>
<!--
  - Copyright (c) 2021-2024 Bearsampp
  - License:  GNU General Public License version 3 or later; see LICENSE.txt
  - Author: Bear
  - Website: https://bearsampp.com
  - Github: https://github.com/Bearsampp
  -->

<!DOCTYPE svg PUBLIC "-//W3C//DTD SVG 1.1//EN"
 "http://www.w3.org/Graphics/SVG/1.1/DTD/svg11.dtd">
<!-- Generated by graphviz version 11.0.0 (20240428.1522)
 -->
<!-- Title: Root\aetrayPath Pages: 1 -->
<svg width="1071pt" height="608pt"
 viewBox="0.00 0.00 1070.75 607.86" xmlns="http://www.w3.org/2000/svg" xmlns:xlink="http://www.w3.org/1999/xlink">
<g id="graph0" class="graph" transform="scale(1 1) rotate(0) translate(4 603.86)">
<title>Root\aetrayPath</title>
<!-- Node1 -->
<g id="Node000001" class="node">
<title>Node1</title>
<g id="a_Node000001"><a xlink:title=" ">
<polygon fill="#999999" stroke="#666666" points="1062.75,-303.5 945.5,-303.5 945.5,-279 1062.75,-279 1062.75,-303.5"/>
<text text-anchor="middle" x="1004.12" y="-286.2" font-family="Helvetica,sans-Serif" font-size="14.00">Root\aetrayPath</text>
</a>
</g>
</g>
<!-- Node2 -->
<g id="Node000002" class="node">
<title>Node2</title>
<g id="a_Node000002"><a xlink:href="../../d8/d73/classRoot.html#a774cac1645c02419b1991d0692ceed17" target="_top" xlink:title=" ">
<polygon fill="white" stroke="#666666" points="909.5,-460.5 778.75,-460.5 778.75,-436 909.5,-436 909.5,-460.5"/>
<text text-anchor="middle" x="844.12" y="-443.2" font-family="Helvetica,sans-Serif" font-size="14.00">Root\getCorePath</text>
</a>
</g>
</g>
<!-- Node1&#45;&gt;Node2 -->
<g id="edge1_Node000001_Node000002" class="edge">
<title>Node1&#45;&gt;Node2</title>
<g id="a_edge1_Node000001_Node000002"><a xlink:title=" ">
<path fill="none" stroke="#63b8ff" d="M982.35,-311.9C949.13,-344.9 885.06,-408.57 857.85,-435.61"/>
<polygon fill="#63b8ff" stroke="#63b8ff" points="984.76,-314.43 989.39,-304.9 979.83,-309.47 984.76,-314.43"/>
</a>
</g>
</g>
<!-- Node4 -->
<g id="Node000004" class="node">
<title>Node4</title>
<g id="a_Node000004"><a xlink:href="../../d8/d73/classRoot.html#ab5d7ed743b7131977e4ccde6bd58a7de" target="_top" xlink:title=" ">
<polygon fill="white" stroke="#666666" points="909.12,-303.5 779.12,-303.5 779.12,-279 909.12,-279 909.12,-303.5"/>
<text text-anchor="middle" x="844.12" y="-286.2" font-family="Helvetica,sans-Serif" font-size="14.00">Root\getRootPath</text>
</a>
</g>
</g>
<!-- Node1&#45;&gt;Node4 -->
<g id="edge3_Node000001_Node000004" class="edge">
<title>Node1&#45;&gt;Node4</title>
<g id="a_edge3_Node000001_Node000004"><a xlink:title=" ">
<path fill="none" stroke="#63b8ff" d="M933.85,-284.55C925.74,-284.47 917.49,-284.49 909.45,-284.6"/>
<polygon fill="#63b8ff" stroke="#63b8ff" points="933.62,-288.04 943.68,-284.69 933.73,-281.04 933.62,-288.04"/>
</a>
</g>
</g>
<!-- Node3 -->
<g id="Node000003" class="node">
<title>Node3</title>
<g id="a_Node000003"><a xlink:href="../../d8/d73/classRoot.html#a5822729d482ed44e43363b12af6c4695" target="_top" xlink:title=" ">
<polygon fill="white" stroke="#666666" points="98.5,-505.5 0,-505.5 0,-481 98.5,-481 98.5,-505.5"/>
<text text-anchor="middle" x="49.25" y="-488.2" font-family="Helvetica,sans-Serif" font-size="14.00">Root\register</text>
</a>
</g>
</g>
<!-- Node2&#45;&gt;Node3 -->
<g id="edge2_Node000002_Node000003" class="edge">
<title>Node2&#45;&gt;Node3</title>
<g id="a_edge2_Node000002_Node000003"><a xlink:title=" ">
<path fill="none" stroke="#63b8ff" d="M826.2,-469.52C808.08,-490.51 777.23,-521.4 742.75,-535.25 491.9,-636.02 395.92,-604.1 134.5,-535.25 110.95,-529.05 86.27,-515.84 69.76,-505.88"/>
<polygon fill="#63b8ff" stroke="#63b8ff" points="828.68,-472.02 832.41,-462.1 823.31,-467.53 828.68,-472.02"/>
</a>
</g>
</g>
<!-- Node4&#45;&gt;Node1 -->
<g id="edge4_Node000004_Node000001" class="edge">
<title>Node4&#45;&gt;Node1</title>
<g id="a_edge4_Node000004_Node000001"><a xlink:title=" ">
<path fill="none" stroke="#63b8ff" d="M920.92,-298C929.08,-298.02 937.29,-297.95 945.19,-297.78"/>
<polygon fill="#63b8ff" stroke="#63b8ff" points="921,-294.5 910.97,-297.91 920.94,-301.5 921,-294.5"/>
</a>
</g>
</g>
<!-- Node5 -->
<g id="Node000005" class="node">
<title>Node5</title>
<g id="a_Node000005"><a xlink:href="../../d8/d73/classRoot.html#aad8c713b34a3599f46d4281f534a7b04" target="_top" xlink:title=" ">
<polygon fill="white" stroke="#666666" points="276.12,-526.5 146.88,-526.5 146.88,-502 276.12,-502 276.12,-526.5"/>
<text text-anchor="middle" x="211.5" y="-509.2" font-family="Helvetica,sans-Serif" font-size="14.00">Root\errorHandler</text>
</a>
</g>
</g>
<!-- Node4&#45;&gt;Node5 -->
<g id="edge5_Node000004_Node000005" class="edge">
<title>Node4&#45;&gt;Node5</title>
<g id="a_edge5_Node000004_Node000005"><a xlink:title=" ">
<path fill="none" stroke="#63b8ff" d="M832.09,-314.3C819.18,-341.32 797.24,-387.45 778.75,-427.25 762.5,-462.24 775.04,-485.13 742.75,-506.25 667.72,-555.32 399.98,-534.36 276.15,-521.52"/>
<polygon fill="#63b8ff" stroke="#63b8ff" points="835.22,-315.87 836.38,-305.34 828.9,-312.85 835.22,-315.87"/>
</a>
</g>
</g>
<!-- Node6 -->
<g id="Node000006" class="node">
<title>Node6</title>
<g id="a_Node000006"><a xlink:href="../../d8/d73/classRoot.html#a90dacabcbf34c507d5e709dc542f3ee4" target="_top" xlink:title=" ">
<polygon fill="white" stroke="#666666" points="725.5,-497.5 595.5,-497.5 595.5,-473 725.5,-473 725.5,-497.5"/>
<text text-anchor="middle" x="660.5" y="-480.2" font-family="Helvetica,sans-Serif" font-size="14.00">Root\getAliasPath</text>
</a>
</g>
</g>
<!-- Node4&#45;&gt;Node6 -->
<g id="edge6_Node000004_Node000006" class="edge">
<title>Node4&#45;&gt;Node6</title>
<g id="a_edge6_Node000004_Node000006"><a xlink:title=" ">
<path fill="none" stroke="#63b8ff" d="M835.96,-314.64C823.33,-351.87 793.53,-424.37 742.75,-463.25 737.64,-467.16 731.89,-470.37 725.87,-473.02"/>
<polygon fill="#63b8ff" stroke="#63b8ff" points="839.23,-315.91 838.99,-305.32 832.57,-313.74 839.23,-315.91"/>
</a>
</g>
</g>
<!-- Node7 -->
<g id="Node000007" class="node">
<title>Node7</title>
<g id="a_Node000007"><a xlink:href="../../d8/d73/classRoot.html#acfe071638227c0d948c55752eb099858" target="_top" xlink:title=" ">
<polygon fill="white" stroke="#666666" points="727,-454.5 594,-454.5 594,-430 727,-430 727,-454.5"/>
<text text-anchor="middle" x="660.5" y="-437.2" font-family="Helvetica,sans-Serif" font-size="14.00">Root\getAppsPath</text>
</a>
</g>
</g>
<!-- Node4&#45;&gt;Node7 -->
<g id="edge7_Node000004_Node000007" class="edge">
<title>Node4&#45;&gt;Node7</title>
<g id="a_edge7_Node000004_Node000007"><a xlink:title=" ">
<path fill="none" stroke="#63b8ff" d="M831.67,-313.72C815.71,-342.74 784.02,-392.8 742.75,-420.25 737.15,-423.97 730.94,-427.07 724.52,-429.64"/>
<polygon fill="#63b8ff" stroke="#63b8ff" points="834.67,-315.52 836.29,-305.05 828.5,-312.23 834.67,-315.52"/>
</a>
</g>
</g>
<!-- Node8 -->
<g id="Node000008" class="node">
<title>Node8</title>
<g id="a_Node000008"><a xlink:href="../../d8/d73/classRoot.html#a5ebb5806800458115a9ab3a1cbbef2a7" target="_top" xlink:title=" ">
<polygon fill="white" stroke="#666666" points="720.25,-411.5 600.75,-411.5 600.75,-387 720.25,-387 720.25,-411.5"/>
<text text-anchor="middle" x="660.5" y="-394.2" font-family="Helvetica,sans-Serif" font-size="14.00">Root\getBinPath</text>
</a>
</g>
</g>
<!-- Node4&#45;&gt;Node8 -->
<g id="edge8_Node000004_Node000008" class="edge">
<title>Node4&#45;&gt;Node8</title>
<g id="a_edge8_Node000004_Node000008"><a xlink:title=" ">
<path fill="none" stroke="#63b8ff" d="M824.29,-312.02C805.46,-331.58 774.77,-360.32 742.75,-377.25 735.77,-380.94 728.13,-384.05 720.4,-386.66"/>
<polygon fill="#63b8ff" stroke="#63b8ff" points="826.72,-314.54 831.03,-304.86 821.63,-309.74 826.72,-314.54"/>
</a>
</g>
</g>
<!-- Node9 -->
<g id="Node000009" class="node">
<title>Node9</title>
<g id="a_Node000009"><a xlink:href="../../d8/d73/classRoot.html#add51b541a57883b74210f6c134ca77d0" target="_top" xlink:title=" ">
<polygon fill="white" stroke="#666666" points="742.75,-368.5 578.25,-368.5 578.25,-344 742.75,-344 742.75,-368.5"/>
<text text-anchor="middle" x="660.5" y="-351.2" font-family="Helvetica,sans-Serif" font-size="14.00">Root\getConfigFilePath</text>
</a>
</g>
</g>
<!-- Node4&#45;&gt;Node9 -->
<g id="edge9_Node000004_Node000009" class="edge">
<title>Node4&#45;&gt;Node9</title>
<g id="a_edge9_Node000004_Node000009"><a xlink:title=" ">
<path fill="none" stroke="#63b8ff" d="M805.82,-308.71C787.13,-317.08 764.01,-326.86 742.75,-334.25 733.09,-337.61 722.63,-340.78 712.55,-343.61"/>
<polygon fill="#63b8ff" stroke="#63b8ff" points="807.22,-311.92 814.89,-304.6 804.33,-305.54 807.22,-311.92"/>
</a>
</g>
</g>
<!-- Node10 -->
<g id="Node000010" class="node">
<title>Node10</title>
<g id="a_Node000010"><a xlink:href="../../d8/d73/classRoot.html#a7bf4178ca2fc761dbf652b9d46c17636" target="_top" xlink:title=" ">
<polygon fill="white" stroke="#666666" points="734.12,-325.5 586.88,-325.5 586.88,-301 734.12,-301 734.12,-325.5"/>
<text text-anchor="middle" x="660.5" y="-308.2" font-family="Helvetica,sans-Serif" font-size="14.00">Root\getExeFilePath</text>
</a>
</g>
</g>
<!-- Node4&#45;&gt;Node10 -->
<g id="edge10_Node000004_Node000010" class="edge">
<title>Node4&#45;&gt;Node10</title>
<g id="a_edge10_Node000004_Node000010"><a xlink:title=" ">
<path fill="none" stroke="#63b8ff" d="M767.54,-300.41C756.57,-301.73 745.29,-303.1 734.38,-304.42"/>
<polygon fill="#63b8ff" stroke="#63b8ff" points="767.83,-303.9 777.33,-299.22 766.98,-296.95 767.83,-303.9"/>
</a>
</g>
</g>
<!-- Node11 -->
<g id="Node000011" class="node">
<title>Node11</title>
<g id="a_Node000011"><a xlink:href="../../d8/d73/classRoot.html#ad51064b235c02e70067309fcae81c963" target="_top" xlink:title=" ">
<polygon fill="white" stroke="#666666" points="729.25,-282.5 591.75,-282.5 591.75,-258 729.25,-258 729.25,-282.5"/>
<text text-anchor="middle" x="660.5" y="-265.2" font-family="Helvetica,sans-Serif" font-size="14.00">Root\getIniFilePath</text>
</a>
</g>
</g>
<!-- Node4&#45;&gt;Node11 -->
<g id="edge11_Node000004_Node000011" class="edge">
<title>Node4&#45;&gt;Node11</title>
<g id="a_edge11_Node000004_Node000011"><a xlink:title=" ">
<path fill="none" stroke="#63b8ff" d="M767.47,-282.5C754.95,-281.06 742.03,-279.56 729.71,-278.14"/>
<polygon fill="#63b8ff" stroke="#63b8ff" points="767,-285.97 777.33,-283.64 767.8,-279.02 767,-285.97"/>
</a>
</g>
</g>
<!-- Node12 -->
<g id="Node000012" class="node">
<title>Node12</title>
<g id="a_Node000012"><a xlink:href="../../d8/d73/classRoot.html#ad4495349d6188d3563649076d9cedca5" target="_top" xlink:title=" ">
<polygon fill="white" stroke="#666666" points="726.25,-239.5 594.75,-239.5 594.75,-215 726.25,-215 726.25,-239.5"/>
<text text-anchor="middle" x="660.5" y="-222.2" font-family="Helvetica,sans-Serif" font-size="14.00">Root\getLogsPath</text>
</a>
</g>
</g>
<!-- Node4&#45;&gt;Node12 -->
<g id="edge12_Node000004_Node000012" class="edge">
<title>Node4&#45;&gt;Node12</title>
<g id="a_edge12_Node000004_Node000012"><a xlink:title=" ">
<path fill="none" stroke="#63b8ff" d="M805.39,-274.07C786.76,-265.95 763.81,-256.47 742.75,-249.25 733.07,-245.93 722.61,-242.78 712.52,-239.96"/>
<polygon fill="#63b8ff" stroke="#63b8ff" points="803.86,-277.22 814.43,-278.06 806.69,-270.82 803.86,-277.22"/>
</a>
</g>
</g>
<!-- Node24 -->
<g id="Node000024" class="node">
<title>Node24</title>
<g id="a_Node000024"><a xlink:href="../../d8/d73/classRoot.html#abdf2f4c3b7f9cfea945250de064a111e" target="_top" xlink:title=" ">
<polygon fill="white" stroke="#666666" points="720.25,-196.5 600.75,-196.5 600.75,-172 720.25,-172 720.25,-196.5"/>
<text text-anchor="middle" x="660.5" y="-179.2" font-family="Helvetica,sans-Serif" font-size="14.00">Root\getSslPath</text>
</a>
</g>
</g>
<!-- Node4&#45;&gt;Node24 -->
<g id="edge26_Node000004_Node000024" class="edge">
<title>Node4&#45;&gt;Node24</title>
<g id="a_edge26_Node000004_Node000024"><a xlink:title=" ">
<path fill="none" stroke="#63b8ff" d="M823.93,-270.41C805.04,-251.1 774.48,-222.91 742.75,-206.25 735.76,-202.58 728.11,-199.48 720.38,-196.87"/>
<polygon fill="#63b8ff" stroke="#63b8ff" points="821.26,-272.69 830.7,-277.49 826.32,-267.85 821.26,-272.69"/>
</a>
</g>
</g>
<!-- Node26 -->
<g id="Node000026" class="node">
<title>Node26</title>
<g id="a_Node000026"><a xlink:href="../../d8/d73/classRoot.html#a6c0fc9fe6a84784b0582abfd27d09aef" target="_top" xlink:title=" ">
<polygon fill="white" stroke="#666666" points="724.75,-153.5 596.25,-153.5 596.25,-129 724.75,-129 724.75,-153.5"/>
<text text-anchor="middle" x="660.5" y="-136.2" font-family="Helvetica,sans-Serif" font-size="14.00">Root\getTmpPath</text>
</a>
</g>
</g>
<!-- Node4&#45;&gt;Node26 -->
<g id="edge28_Node000004_Node000026" class="edge">
<title>Node4&#45;&gt;Node26</title>
<g id="a_edge28_Node000004_Node000026"><a xlink:title=" ">
<path fill="none" stroke="#63b8ff" d="M831.62,-268.96C815.61,-240.16 783.87,-190.49 742.75,-163.25 737.15,-159.54 730.93,-156.45 724.51,-153.88"/>
<polygon fill="#63b8ff" stroke="#63b8ff" points="828.43,-270.41 836.26,-277.55 834.59,-267.09 828.43,-270.41"/>
</a>
</g>
</g>
<!-- Node27 -->
<g id="Node000027" class="node">
<title>Node27</title>
<g id="a_Node000027"><a xlink:href="../../d8/d73/classRoot.html#ac0de6e05d3485457d3a8145f71b3282b" target="_top" xlink:title=" ">
<polygon fill="white" stroke="#666666" points="728.12,-110.5 592.88,-110.5 592.88,-86 728.12,-86 728.12,-110.5"/>
<text text-anchor="middle" x="660.5" y="-93.2" font-family="Helvetica,sans-Serif" font-size="14.00">Root\getToolsPath</text>
</a>
</g>
</g>
<!-- Node4&#45;&gt;Node27 -->
<g id="edge29_Node000004_Node000027" class="edge">
<title>Node4&#45;&gt;Node27</title>
<g id="a_edge29_Node000004_Node000027"><a xlink:title=" ">
<path fill="none" stroke="#63b8ff" d="M835.92,-267.99C823.24,-230.98 793.36,-158.9 742.75,-120.25 737.87,-116.52 732.41,-113.43 726.68,-110.86"/>
<polygon fill="#63b8ff" stroke="#63b8ff" points="832.52,-268.85 838.97,-277.26 839.17,-266.66 832.52,-268.85"/>
</a>
</g>
</g>
<!-- Node28 -->
<g id="Node000028" class="node">
<title>Node28</title>
<g id="a_Node000028"><a xlink:href="../../d8/d73/classRoot.html#a90db659649f4fcd31e1a7c28f8048142" target="_top" xlink:title=" ">
<polygon fill="white" stroke="#666666" points="732.25,-67.5 588.75,-67.5 588.75,-43 732.25,-43 732.25,-67.5"/>
<text text-anchor="middle" x="660.5" y="-50.2" font-family="Helvetica,sans-Serif" font-size="14.00">Root\getVhostsPath</text>
</a>
</g>
</g>
<!-- Node4&#45;&gt;Node28 -->
<g id="edge30_Node000004_Node000028" class="edge">
<title>Node4&#45;&gt;Node28</title>
<g id="a_edge30_Node000004_Node000028"><a xlink:title=" ">
<path fill="none" stroke="#63b8ff" d="M838.82,-267.59C829.5,-223.36 803.23,-128.02 742.75,-77.25 738.38,-73.59 733.46,-70.53 728.26,-67.98"/>
<polygon fill="#63b8ff" stroke="#63b8ff" points="835.33,-268.02 840.71,-277.15 842.2,-266.66 835.33,-268.02"/>
</a>
</g>
</g>
<!-- Node29 -->
<g id="Node000029" class="node">
<title>Node29</title>
<g id="a_Node000029"><a xlink:href="../../d8/d73/classRoot.html#a7a4cacb869137dd8cbe7072a1afc3e44" target="_top" xlink:title=" ">
<polygon fill="white" stroke="#666666" points="727,-24.5 594,-24.5 594,0 727,0 727,-24.5"/>
<text text-anchor="middle" x="660.5" y="-7.2" font-family="Helvetica,sans-Serif" font-size="14.00">Root\getWwwPath</text>
</a>
</g>
</g>
<!-- Node4&#45;&gt;Node29 -->
<g id="edge31_Node000004_Node000029" class="edge">
<title>Node4&#45;&gt;Node29</title>
<g id="a_edge31_Node000004_Node000029"><a xlink:title=" ">
<path fill="none" stroke="#63b8ff" d="M840.85,-267.21C834.72,-216.38 813.24,-97.52 742.75,-34.25 738.18,-30.15 732.93,-26.8 727.33,-24.07"/>
<polygon fill="#63b8ff" stroke="#63b8ff" points="837.36,-267.53 841.93,-277.08 844.32,-266.76 837.36,-267.53"/>
</a>
</g>
</g>
<!-- Node13 -->
<g id="Node000013" class="node">
<title>Node13</title>
<g id="a_Node000013"><a xlink:href="../../d8/d73/classRoot.html#af4c81b3cec4f2c11cc0de39065ca092c" target="_top" xlink:title=" ">
<polygon fill="white" stroke="#666666" points="525,-497.5 341.75,-497.5 341.75,-473 525,-473 525,-497.5"/>
<text text-anchor="middle" x="433.38" y="-480.2" font-family="Helvetica,sans-Serif" font-size="14.00">Root\getBatchLogFilePath</text>
</a>
</g>
</g>
<!-- Node12&#45;&gt;Node13 -->
<g id="edge13_Node000012_Node000013" class="edge">
<title>Node12&#45;&gt;Node13</title>
<g id="a_edge13_Node000012_Node000013"><a xlink:title=" ">
<path fill="none" stroke="#63b8ff" d="M584.71,-243.31C582.39,-245.1 580.23,-247.07 578.25,-249.25 513.47,-320.7 609.26,-393.88 542.25,-463.25 537.34,-468.34 531.59,-472.41 525.35,-475.66"/>
<polygon fill="#63b8ff" stroke="#63b8ff" points="586.39,-246.39 593.01,-238.12 582.68,-240.46 586.39,-246.39"/>
</a>
</g>
</g>
<!-- Node14 -->
<g id="Node000014" class="node">
<title>Node14</title>
<g id="a_Node000014"><a xlink:href="../../d8/d73/classRoot.html#a8bb760deeee837213b506e45baf184c6" target="_top" xlink:title=" ">
<polygon fill="white" stroke="#666666" points="522.75,-454.5 344,-454.5 344,-430 522.75,-430 522.75,-454.5"/>
<text text-anchor="middle" x="433.38" y="-437.2" font-family="Helvetica,sans-Serif" font-size="14.00">Root\getErrorLogFilePath</text>
</a>
</g>
</g>
<!-- Node12&#45;&gt;Node14 -->
<g id="edge14_Node000012_Node000014" class="edge">
<title>Node12&#45;&gt;Node14</title>
<g id="a_edge14_Node000012_Node000014"><a xlink:title=" ">
<path fill="none" stroke="#63b8ff" d="M584.82,-243.42C582.47,-245.17 580.27,-247.11 578.25,-249.25 524.92,-305.71 597.34,-365.51 542.25,-420.25 536.69,-425.77 530.15,-430.09 523.07,-433.45"/>
<polygon fill="#63b8ff" stroke="#63b8ff" points="586.49,-246.5 593.2,-238.3 582.85,-240.52 586.49,-246.5"/>
</a>
</g>
</g>
<!-- Node16 -->
<g id="Node000016" class="node">
<title>Node16</title>
<g id="a_Node000016"><a xlink:href="../../d8/d73/classRoot.html#afe4e3dc639e9a81bc443e0355ef1cf91" target="_top" xlink:title=" ">
<polygon fill="white" stroke="#666666" points="542.25,-411.5 324.5,-411.5 324.5,-387 542.25,-387 542.25,-411.5"/>
<text text-anchor="middle" x="433.38" y="-394.2" font-family="Helvetica,sans-Serif" font-size="14.00">Root\getHomepageLogFilePath</text>
</a>
</g>
</g>
<!-- Node12&#45;&gt;Node16 -->
<g id="edge18_Node000012_Node000016" class="edge">
<title>Node12&#45;&gt;Node16</title>
<g id="a_edge18_Node000012_Node000016"><a xlink:title=" ">
<path fill="none" stroke="#63b8ff" d="M584.84,-243.7C582.5,-245.38 580.29,-247.23 578.25,-249.25 536.26,-290.83 585.53,-337.02 542.25,-377.25 538.33,-380.89 533.98,-384 529.33,-386.65"/>
<polygon fill="#63b8ff" stroke="#63b8ff" points="586.31,-246.91 593.12,-238.79 582.73,-240.89 586.31,-246.91"/>
</a>
</g>
</g>
<!-- Node17 -->
<g id="Node000017" class="node">
<title>Node17</title>
<g id="a_Node000017"><a xlink:href="../../d8/d73/classRoot.html#a0d3e1c685fcb54d639433be084dc38a4" target="_top" xlink:title=" ">
<polygon fill="white" stroke="#666666" points="507,-368.5 359.75,-368.5 359.75,-344 507,-344 507,-368.5"/>
<text text-anchor="middle" x="433.38" y="-351.2" font-family="Helvetica,sans-Serif" font-size="14.00">Root\getLogFilePath</text>
</a>
</g>
</g>
<!-- Node12&#45;&gt;Node17 -->
<g id="edge19_Node000012_Node000017" class="edge">
<title>Node12&#45;&gt;Node17</title>
<g id="a_edge19_Node000012_Node000017"><a xlink:title=" ">
<path fill="none" stroke="#63b8ff" d="M584.75,-244.32C582.47,-245.83 580.29,-247.47 578.25,-249.25 547.33,-276.22 574,-308.27 542.25,-334.25 532.26,-342.42 520.04,-347.81 507.46,-351.32"/>
<polygon fill="#63b8ff" stroke="#63b8ff" points="586.24,-247.49 593.27,-239.56 582.83,-241.38 586.24,-247.49"/>
</a>
</g>
</g>
<!-- Node18 -->
<g id="Node000018" class="node">
<title>Node18</title>
<g id="a_Node000018"><a xlink:href="../../d8/d73/classRoot.html#ae4aaabdcb75db5c2b8be50f1bdc4612c" target="_top" xlink:title=" ">
<polygon fill="white" stroke="#666666" points="525.38,-325.5 341.38,-325.5 341.38,-301 525.38,-301 525.38,-325.5"/>
<text text-anchor="middle" x="433.38" y="-308.2" font-family="Helvetica,sans-Serif" font-size="14.00">Root\getNssmLogFilePath</text>
</a>
</g>
</g>
<!-- Node12&#45;&gt;Node18 -->
<g id="edge20_Node000012_Node000018" class="edge">
<title>Node12&#45;&gt;Node18</title>
<g id="a_edge20_Node000012_Node000018"><a xlink:title=" ">
<path fill="none" stroke="#63b8ff" d="M586.77,-244.48C583.83,-245.94 580.97,-247.53 578.25,-249.25 557.46,-262.38 563.44,-278.79 542.25,-291.25 535.99,-294.93 529.21,-298.01 522.21,-300.57"/>
<polygon fill="#63b8ff" stroke="#63b8ff" points="587.93,-247.79 595.69,-240.57 585.12,-241.38 587.93,-247.79"/>
</a>
</g>
</g>
<!-- Node19 -->
<g id="Node000019" class="node">
<title>Node19</title>
<g id="a_Node000019"><a xlink:href="../../d8/d73/classRoot.html#aae347c32c1cc1ceb92771037cef09aed" target="_top" xlink:title=" ">
<polygon fill="white" stroke="#666666" points="533.25,-282.5 333.5,-282.5 333.5,-258 533.25,-258 533.25,-282.5"/>
<text text-anchor="middle" x="433.38" y="-265.2" font-family="Helvetica,sans-Serif" font-size="14.00">Root\getRegistryLogFilePath</text>
</a>
</g>
</g>
<!-- Node12&#45;&gt;Node19 -->
<g id="edge21_Node000012_Node000019" class="edge">
<title>Node12&#45;&gt;Node19</title>
<g id="a_edge21_Node000012_Node000019"><a xlink:title=" ">
<path fill="none" stroke="#63b8ff" d="M583.15,-241.83C556.46,-246.93 526.73,-252.61 500.91,-257.54"/>
<polygon fill="#63b8ff" stroke="#63b8ff" points="583.73,-245.29 592.9,-239.97 582.42,-238.41 583.73,-245.29"/>
</a>
</g>
</g>
<!-- Node20 -->
<g id="Node000020" class="node">
<title>Node20</title>
<g id="a_Node000020"><a xlink:href="../../d8/d73/classRoot.html#a471382a697444618a0c28ed524ebeb3f" target="_top" xlink:title=" ">
<polygon fill="white" stroke="#666666" points="534.75,-239.5 332,-239.5 332,-215 534.75,-215 534.75,-239.5"/>
<text text-anchor="middle" x="433.38" y="-222.2" font-family="Helvetica,sans-Serif" font-size="14.00">Root\getServicesLogFilePath</text>
</a>
</g>
</g>
<!-- Node12&#45;&gt;Node20 -->
<g id="edge22_Node000012_Node000020" class="edge">
<title>Node12&#45;&gt;Node20</title>
<g id="a_edge22_Node000012_Node000020"><a xlink:title=" ">
<path fill="none" stroke="#63b8ff" d="M583.28,-227.25C567.76,-227.25 551.2,-227.25 534.98,-227.25"/>
<polygon fill="#63b8ff" stroke="#63b8ff" points="582.87,-230.75 592.87,-227.25 582.87,-223.75 582.87,-230.75"/>
</a>
</g>
</g>
<!-- Node21 -->
<g id="Node000021" class="node">
<title>Node21</title>
<g id="a_Node000021"><a xlink:href="../../d8/d73/classRoot.html#a16781ddf16af146aa663d9284785afa0" target="_top" xlink:title=" ">
<polygon fill="white" stroke="#666666" points="529.5,-196.5 337.25,-196.5 337.25,-172 529.5,-172 529.5,-196.5"/>
<text text-anchor="middle" x="433.38" y="-179.2" font-family="Helvetica,sans-Serif" font-size="14.00">Root\getStartupLogFilePath</text>
</a>
</g>
</g>
<!-- Node12&#45;&gt;Node21 -->
<g id="edge23_Node000012_Node000021" class="edge">
<title>Node12&#45;&gt;Node21</title>
<g id="a_edge23_Node000012_Node000021"><a xlink:title=" ">
<path fill="none" stroke="#63b8ff" d="M583.15,-212.67C556.46,-207.57 526.73,-201.89 500.91,-196.96"/>
<polygon fill="#63b8ff" stroke="#63b8ff" points="582.42,-216.09 592.9,-214.53 583.73,-209.21 582.42,-216.09"/>
</a>
</g>
</g>
<!-- Node22 -->
<g id="Node000022" class="node">
<title>Node22</title>
<g id="a_Node000022"><a xlink:href="../../d8/d73/classRoot.html#ad7e1631fb937b7856f77e8ab89e4e55d" target="_top" xlink:title=" ">
<polygon fill="white" stroke="#666666" points="519.75,-153.5 347,-153.5 347,-129 519.75,-129 519.75,-153.5"/>
<text text-anchor="middle" x="433.38" y="-136.2" font-family="Helvetica,sans-Serif" font-size="14.00">Root\getVbsLogFilePath</text>
</a>
</g>
</g>
<!-- Node12&#45;&gt;Node22 -->
<g id="edge24_Node000012_Node000022" class="edge">
<title>Node12&#45;&gt;Node22</title>
<g id="a_edge24_Node000012_Node000022"><a xlink:title=" ">
<path fill="none" stroke="#63b8ff" d="M586.77,-210.02C583.83,-208.56 580.97,-206.97 578.25,-205.25 557.46,-192.12 563.44,-175.71 542.25,-163.25 535.33,-159.18 527.78,-155.85 519.99,-153.14"/>
<polygon fill="#63b8ff" stroke="#63b8ff" points="585.12,-213.12 595.69,-213.93 587.93,-206.71 585.12,-213.12"/>
</a>
</g>
</g>
<!-- Node23 -->
<g id="Node000023" class="node">
<title>Node23</title>
<g id="a_Node000023"><a xlink:href="../../d8/d73/classRoot.html#a78641c68e89fe1c705f6981fc87efa57" target="_top" xlink:title=" ">
<polygon fill="white" stroke="#666666" points="539.25,-110.5 327.5,-110.5 327.5,-86 539.25,-86 539.25,-110.5"/>
<text text-anchor="middle" x="433.38" y="-93.2" font-family="Helvetica,sans-Serif" font-size="14.00">Root\getWinbinderLogFilePath</text>
</a>
</g>
</g>
<!-- Node12&#45;&gt;Node23 -->
<g id="edge25_Node000012_Node000023" class="edge">
<title>Node12&#45;&gt;Node23</title>
<g id="a_edge25_Node000012_Node000023"><a xlink:title=" ">
<path fill="none" stroke="#63b8ff" d="M584.75,-210.18C582.47,-208.67 580.29,-207.03 578.25,-205.25 547.33,-178.28 574,-146.23 542.25,-120.25 537.81,-116.62 532.93,-113.54 527.78,-110.93"/>
<polygon fill="#63b8ff" stroke="#63b8ff" points="582.83,-213.12 593.27,-214.94 586.24,-207.01 582.83,-213.12"/>
</a>
</g>
</g>
<!-- Node14&#45;&gt;Node5 -->
<g id="edge15_Node000014_Node000005" class="edge">
<title>Node14&#45;&gt;Node5</title>
<g id="a_edge15_Node000014_Node000005"><a xlink:title=" ">
<path fill="none" stroke="#63b8ff" d="M348.05,-457.58C340.03,-459.6 332.07,-461.82 324.5,-464.25 293.28,-474.27 259.09,-490.33 236.8,-501.53"/>
<polygon fill="#63b8ff" stroke="#63b8ff" points="348.61,-461.05 357.52,-455.32 346.98,-454.24 348.61,-461.05"/>
</a>
</g>
</g>
<!-- Node15 -->
<g id="Node000015" class="node">
<title>Node15</title>
<g id="a_Node000015"><a xlink:href="../../d8/d73/classRoot.html#a3ab3bb71b33fd517d5a60bd8568849f4" target="_top" xlink:title=" ">
<polygon fill="white" stroke="#666666" points="288.5,-464.5 134.5,-464.5 134.5,-440 288.5,-440 288.5,-464.5"/>
<text text-anchor="middle" x="211.5" y="-447.2" font-family="Helvetica,sans-Serif" font-size="14.00">Root\initErrorHandling</text>
</a>
</g>
</g>
<!-- Node14&#45;&gt;Node15 -->
<g id="edge16_Node000014_Node000015" class="edge">
<title>Node14&#45;&gt;Node15</title>
<g id="a_edge16_Node000014_Node000015"><a xlink:title=" ">
<path fill="none" stroke="#63b8ff" d="M332.46,-446.79C317.83,-447.46 302.97,-448.14 288.91,-448.77"/>
<polygon fill="#63b8ff" stroke="#63b8ff" points="332.23,-450.31 342.07,-446.36 331.92,-443.32 332.23,-450.31"/>
</a>
</g>
</g>
<!-- Node15&#45;&gt;Node3 -->
<g id="edge17_Node000015_Node000003" class="edge">
<title>Node15&#45;&gt;Node3</title>
<g id="a_edge17_Node000015_Node000003"><a xlink:title=" ">
<path fill="none" stroke="#63b8ff" d="M149.83,-467.77C133.02,-472.07 114.98,-476.69 98.95,-480.79"/>
<polygon fill="#63b8ff" stroke="#63b8ff" points="150.39,-471.24 159.21,-465.37 148.65,-464.46 150.39,-471.24"/>
</a>
</g>
</g>
<!-- Node25 -->
<g id="Node000025" class="node">
<title>Node25</title>
<g id="a_Node000025"><a xlink:href="../../d8/d73/classRoot.html#a169b53072cc1c3c899618d034e3cac88" target="_top" xlink:title=" ">
<polygon fill="white" stroke="#666666" points="508.5,-67.5 358.25,-67.5 358.25,-43 508.5,-43 508.5,-67.5"/>
<text text-anchor="middle" x="433.38" y="-50.2" font-family="Helvetica,sans-Serif" font-size="14.00">Root\getSslConfPath</text>
</a>
</g>
</g>
<!-- Node24&#45;&gt;Node25 -->
<g id="edge27_Node000024_Node000025" class="edge">
<title>Node24&#45;&gt;Node25</title>
<g id="a_edge27_Node000024_Node000025"><a xlink:title=" ">
<path fill="none" stroke="#63b8ff" d="M590.08,-170.39C585.84,-168.08 581.84,-165.38 578.25,-162.25 547.33,-135.28 574,-103.23 542.25,-77.25 532.63,-69.38 520.95,-64.09 508.86,-60.58"/>
<polygon fill="#63b8ff" stroke="#63b8ff" points="588.41,-173.48 598.96,-174.49 591.35,-167.12 588.41,-173.48"/>
</a>
</g>
</g>
<!-- Node30 -->
<g id="Node000030" class="node">
<title>Node30</title>
<g id="a_Node000030"><a xlink:href="../../d8/d73/classRoot.html#ac33a6b4b6ba3fb3db4397274399ad390" target="_top" xlink:title=" ">
<polygon fill="white" stroke="#666666" points="529.88,-24.5 336.88,-24.5 336.88,0 529.88,0 529.88,-24.5"/>
<text text-anchor="middle" x="433.38" y="-7.2" font-family="Helvetica,sans-Serif" font-size="14.00">Root\getHomepageFilePath</text>
</a>
</g>
</g>
<!-- Node29&#45;&gt;Node30 -->
<g id="edge32_Node000029_Node000030" class="edge">
<title>Node29&#45;&gt;Node30</title>
<g id="a_edge32_Node000029_Node000030"><a xlink:title=" ">
<path fill="none" stroke="#63b8ff" d="M582.38,-12.25C565.62,-12.25 547.69,-12.25 530.3,-12.25"/>
<polygon fill="#63b8ff" stroke="#63b8ff" points="582.27,-15.75 592.27,-12.25 582.27,-8.75 582.27,-15.75"/>
</a>
</g>
</g>
</g>
</svg>
