<?xml version="1.0" encoding="UTF-8" standalone="no"?>
<!--
  - Copyright (c) 2021-2024 Bearsampp
  - License:  GNU General Public License version 3 or later; see LICENSE.txt
  - Author: Bear
  - Website: https://bearsampp.com
  - Github: https://github.com/Bearsampp
  -->

<!DOCTYPE svg PUBLIC "-//W3C//DTD SVG 1.1//EN"
 "http://www.w3.org/Graphics/SVG/1.1/DTD/svg11.dtd">
<!-- Generated by graphviz version 11.0.0 (20240428.1522)
 -->
<!-- Title: Root\getLogsPath Pages: 1 -->
<svg width="718pt" height="420pt"
 viewBox="0.00 0.00 717.75 419.50" xmlns="http://www.w3.org/2000/svg" xmlns:xlink="http://www.w3.org/1999/xlink">
<g id="graph0" class="graph" transform="scale(1 1) rotate(0) translate(4 415.5)">
<title>Root\getLogsPath</title>
<!-- Node1 -->
<g id="Node000001" class="node">
<title>Node1</title>
<g id="a_Node000001"><a xlink:title=" ">
<polygon fill="#999999" stroke="#666666" points="709.75,-217.5 578.25,-217.5 578.25,-193 709.75,-193 709.75,-217.5"/>
<text text-anchor="middle" x="644" y="-200.2" font-family="Helvetica,sans-Serif" font-size="14.00">Root\getLogsPath</text>
</a>
</g>
</g>
<!-- Node2 -->
<g id="Node000002" class="node">
<title>Node2</title>
<g id="a_Node000002"><a xlink:href="../../d8/d73/classRoot.html#af4c81b3cec4f2c11cc0de39065ca092c" target="_top" xlink:title=" ">
<polygon fill="white" stroke="#666666" points="525,-411.5 341.75,-411.5 341.75,-387 525,-387 525,-411.5"/>
<text text-anchor="middle" x="433.38" y="-394.2" font-family="Helvetica,sans-Serif" font-size="14.00">Root\getBatchLogFilePath</text>
</a>
</g>
</g>
<!-- Node1&#45;&gt;Node2 -->
<g id="edge1_Node000001_Node000002" class="edge">
<title>Node1&#45;&gt;Node2</title>
<g id="a_edge1_Node000001_Node000002"><a xlink:title=" ">
<path fill="none" stroke="#63b8ff" d="M636.24,-228.47C624.03,-266.06 594.57,-339.82 542.25,-377.25 537.04,-380.98 531.35,-384.1 525.39,-386.73"/>
<polygon fill="#63b8ff" stroke="#63b8ff" points="639.54,-229.66 639.16,-219.07 632.85,-227.58 639.54,-229.66"/>
</a>
</g>
</g>
<!-- Node3 -->
<g id="Node000003" class="node">
<title>Node3</title>
<g id="a_Node000003"><a xlink:href="../../d8/d73/classRoot.html#a8bb760deeee837213b506e45baf184c6" target="_top" xlink:title=" ">
<polygon fill="white" stroke="#666666" points="522.75,-368.5 344,-368.5 344,-344 522.75,-344 522.75,-368.5"/>
<text text-anchor="middle" x="433.38" y="-351.2" font-family="Helvetica,sans-Serif" font-size="14.00">Root\getErrorLogFilePath</text>
</a>
</g>
</g>
<!-- Node1&#45;&gt;Node3 -->
<g id="edge2_Node000001_Node000003" class="edge">
<title>Node1&#45;&gt;Node3</title>
<g id="a_edge2_Node000001_Node000003"><a xlink:title=" ">
<path fill="none" stroke="#63b8ff" d="M631.74,-228.12C615.97,-257.58 584.45,-308.12 542.25,-334.25 536.32,-337.92 529.89,-341 523.21,-343.57"/>
<polygon fill="#63b8ff" stroke="#63b8ff" points="634.81,-229.79 636.3,-219.3 628.6,-226.57 634.81,-229.79"/>
</a>
</g>
</g>
<!-- Node7 -->
<g id="Node000007" class="node">
<title>Node7</title>
<g id="a_Node000007"><a xlink:href="../../d8/d73/classRoot.html#afe4e3dc639e9a81bc443e0355ef1cf91" target="_top" xlink:title=" ">
<polygon fill="white" stroke="#666666" points="542.25,-325.5 324.5,-325.5 324.5,-301 542.25,-301 542.25,-325.5"/>
<text text-anchor="middle" x="433.38" y="-308.2" font-family="Helvetica,sans-Serif" font-size="14.00">Root\getHomepageLogFilePath</text>
</a>
</g>
</g>
<!-- Node1&#45;&gt;Node7 -->
<g id="edge6_Node000001_Node000007" class="edge">
<title>Node1&#45;&gt;Node7</title>
<g id="a_edge6_Node000001_Node000007"><a xlink:title=" ">
<path fill="none" stroke="#63b8ff" d="M624.61,-226.14C605.9,-246.04 575.05,-275.25 542.25,-291.25 534.69,-294.94 526.54,-298.01 518.23,-300.56"/>
<polygon fill="#63b8ff" stroke="#63b8ff" points="627.12,-228.59 631.3,-218.85 621.96,-223.86 627.12,-228.59"/>
</a>
</g>
</g>
<!-- Node8 -->
<g id="Node000008" class="node">
<title>Node8</title>
<g id="a_Node000008"><a xlink:href="../../d8/d73/classRoot.html#a0d3e1c685fcb54d639433be084dc38a4" target="_top" xlink:title=" ">
<polygon fill="white" stroke="#666666" points="507,-282.5 359.75,-282.5 359.75,-258 507,-258 507,-282.5"/>
<text text-anchor="middle" x="433.38" y="-265.2" font-family="Helvetica,sans-Serif" font-size="14.00">Root\getLogFilePath</text>
</a>
</g>
</g>
<!-- Node1&#45;&gt;Node8 -->
<g id="edge7_Node000001_Node000008" class="edge">
<title>Node1&#45;&gt;Node8</title>
<g id="a_edge7_Node000001_Node000008"><a xlink:title=" ">
<path fill="none" stroke="#63b8ff" d="M607.19,-222.63C588.23,-231.29 564.36,-241.36 542.25,-248.25 531.03,-251.75 518.97,-254.84 507.13,-257.51"/>
<polygon fill="#63b8ff" stroke="#63b8ff" points="608.48,-225.89 616.08,-218.5 605.53,-219.54 608.48,-225.89"/>
</a>
</g>
</g>
<!-- Node9 -->
<g id="Node000009" class="node">
<title>Node9</title>
<g id="a_Node000009"><a xlink:href="../../d8/d73/classRoot.html#ae4aaabdcb75db5c2b8be50f1bdc4612c" target="_top" xlink:title=" ">
<polygon fill="white" stroke="#666666" points="525.38,-239.5 341.38,-239.5 341.38,-215 525.38,-215 525.38,-239.5"/>
<text text-anchor="middle" x="433.38" y="-222.2" font-family="Helvetica,sans-Serif" font-size="14.00">Root\getNssmLogFilePath</text>
</a>
</g>
</g>
<!-- Node1&#45;&gt;Node9 -->
<g id="edge8_Node000001_Node000009" class="edge">
<title>Node1&#45;&gt;Node9</title>
<g id="a_edge8_Node000001_Node000009"><a xlink:title=" ">
<path fill="none" stroke="#63b8ff" d="M566.42,-213.33C553.21,-214.72 539.35,-216.18 525.79,-217.61"/>
<polygon fill="#63b8ff" stroke="#63b8ff" points="566.76,-216.81 576.34,-212.28 566.03,-209.85 566.76,-216.81"/>
</a>
</g>
</g>
<!-- Node10 -->
<g id="Node000010" class="node">
<title>Node10</title>
<g id="a_Node000010"><a xlink:href="../../d8/d73/classRoot.html#aae347c32c1cc1ceb92771037cef09aed" target="_top" xlink:title=" ">
<polygon fill="white" stroke="#666666" points="533.25,-196.5 333.5,-196.5 333.5,-172 533.25,-172 533.25,-196.5"/>
<text text-anchor="middle" x="433.38" y="-179.2" font-family="Helvetica,sans-Serif" font-size="14.00">Root\getRegistryLogFilePath</text>
</a>
</g>
</g>
<!-- Node1&#45;&gt;Node10 -->
<g id="edge9_Node000001_Node000010" class="edge">
<title>Node1&#45;&gt;Node10</title>
<g id="a_edge9_Node000001_Node000010"><a xlink:title=" ">
<path fill="none" stroke="#63b8ff" d="M566.39,-197.54C555.66,-196.46 544.51,-195.34 533.44,-194.22"/>
<polygon fill="#63b8ff" stroke="#63b8ff" points="566.04,-201.02 576.34,-198.54 566.74,-194.06 566.04,-201.02"/>
</a>
</g>
</g>
<!-- Node11 -->
<g id="Node000011" class="node">
<title>Node11</title>
<g id="a_Node000011"><a xlink:href="../../d8/d73/classRoot.html#a471382a697444618a0c28ed524ebeb3f" target="_top" xlink:title=" ">
<polygon fill="white" stroke="#666666" points="534.75,-153.5 332,-153.5 332,-129 534.75,-129 534.75,-153.5"/>
<text text-anchor="middle" x="433.38" y="-136.2" font-family="Helvetica,sans-Serif" font-size="14.00">Root\getServicesLogFilePath</text>
</a>
</g>
</g>
<!-- Node1&#45;&gt;Node11 -->
<g id="edge10_Node000001_Node000011" class="edge">
<title>Node1&#45;&gt;Node11</title>
<g id="a_edge10_Node000001_Node000011"><a xlink:title=" ">
<path fill="none" stroke="#63b8ff" d="M606.1,-187.84C587.3,-179.5 563.9,-169.9 542.25,-163.25 530.83,-159.74 518.56,-156.64 506.53,-153.94"/>
<polygon fill="#63b8ff" stroke="#63b8ff" points="604.65,-191.03 615.2,-191.95 607.53,-184.65 604.65,-191.03"/>
</a>
</g>
</g>
<!-- Node12 -->
<g id="Node000012" class="node">
<title>Node12</title>
<g id="a_Node000012"><a xlink:href="../../d8/d73/classRoot.html#a16781ddf16af146aa663d9284785afa0" target="_top" xlink:title=" ">
<polygon fill="white" stroke="#666666" points="529.5,-110.5 337.25,-110.5 337.25,-86 529.5,-86 529.5,-110.5"/>
<text text-anchor="middle" x="433.38" y="-93.2" font-family="Helvetica,sans-Serif" font-size="14.00">Root\getStartupLogFilePath</text>
</a>
</g>
</g>
<!-- Node1&#45;&gt;Node12 -->
<g id="edge11_Node000001_Node000012" class="edge">
<title>Node1&#45;&gt;Node12</title>
<g id="a_edge11_Node000001_Node000012"><a xlink:title=" ">
<path fill="none" stroke="#63b8ff" d="M624.26,-184.28C605.48,-164.63 574.76,-135.99 542.25,-120.25 534.68,-116.58 526.53,-113.53 518.21,-110.98"/>
<polygon fill="#63b8ff" stroke="#63b8ff" points="621.6,-186.56 630.98,-191.49 626.72,-181.79 621.6,-186.56"/>
</a>
</g>
</g>
<!-- Node13 -->
<g id="Node000013" class="node">
<title>Node13</title>
<g id="a_Node000013"><a xlink:href="../../d8/d73/classRoot.html#ad7e1631fb937b7856f77e8ab89e4e55d" target="_top" xlink:title=" ">
<polygon fill="white" stroke="#666666" points="519.75,-67.5 347,-67.5 347,-43 519.75,-43 519.75,-67.5"/>
<text text-anchor="middle" x="433.38" y="-50.2" font-family="Helvetica,sans-Serif" font-size="14.00">Root\getVbsLogFilePath</text>
</a>
</g>
</g>
<!-- Node1&#45;&gt;Node13 -->
<g id="edge12_Node000001_Node000013" class="edge">
<title>Node1&#45;&gt;Node13</title>
<g id="a_edge12_Node000001_Node000013"><a xlink:title=" ">
<path fill="none" stroke="#63b8ff" d="M631.69,-182.56C615.87,-153.32 584.3,-103.18 542.25,-77.25 535.42,-73.04 527.92,-69.61 520.17,-66.83"/>
<polygon fill="#63b8ff" stroke="#63b8ff" points="628.53,-184.07 636.27,-191.31 634.73,-180.82 628.53,-184.07"/>
</a>
</g>
</g>
<!-- Node14 -->
<g id="Node000014" class="node">
<title>Node14</title>
<g id="a_Node000014"><a xlink:href="../../d8/d73/classRoot.html#a78641c68e89fe1c705f6981fc87efa57" target="_top" xlink:title=" ">
<polygon fill="white" stroke="#666666" points="539.25,-24.5 327.5,-24.5 327.5,0 539.25,0 539.25,-24.5"/>
<text text-anchor="middle" x="433.38" y="-7.2" font-family="Helvetica,sans-Serif" font-size="14.00">Root\getWinbinderLogFilePath</text>
</a>
</g>
</g>
<!-- Node1&#45;&gt;Node14 -->
<g id="edge13_Node000001_Node000014" class="edge">
<title>Node1&#45;&gt;Node14</title>
<g id="a_edge13_Node000001_Node000014"><a xlink:title=" ">
<path fill="none" stroke="#63b8ff" d="M636.2,-182.17C623.93,-144.79 594.39,-71.45 542.25,-34.25 537.12,-30.59 531.51,-27.5 525.65,-24.91"/>
<polygon fill="#63b8ff" stroke="#63b8ff" points="632.8,-183.01 639.13,-191.5 639.48,-180.91 632.8,-183.01"/>
</a>
</g>
</g>
<!-- Node4 -->
<g id="Node000004" class="node">
<title>Node4</title>
<g id="a_Node000004"><a xlink:href="../../d8/d73/classRoot.html#aad8c713b34a3599f46d4281f534a7b04" target="_top" xlink:title=" ">
<polygon fill="white" stroke="#666666" points="276.12,-389.5 146.88,-389.5 146.88,-365 276.12,-365 276.12,-389.5"/>
<text text-anchor="middle" x="211.5" y="-372.2" font-family="Helvetica,sans-Serif" font-size="14.00">Root\errorHandler</text>
</a>
</g>
</g>
<!-- Node3&#45;&gt;Node4 -->
<g id="edge3_Node000003_Node000004" class="edge">
<title>Node3&#45;&gt;Node4</title>
<g id="a_edge3_Node000003_Node000004"><a xlink:title=" ">
<path fill="none" stroke="#63b8ff" d="M332.2,-365.82C313.31,-367.62 294.03,-369.46 276.62,-371.13"/>
<polygon fill="#63b8ff" stroke="#63b8ff" points="332.45,-369.31 342.07,-364.87 331.78,-362.34 332.45,-369.31"/>
</a>
</g>
</g>
<!-- Node5 -->
<g id="Node000005" class="node">
<title>Node5</title>
<g id="a_Node000005"><a xlink:href="../../d8/d73/classRoot.html#a3ab3bb71b33fd517d5a60bd8568849f4" target="_top" xlink:title=" ">
<polygon fill="white" stroke="#666666" points="288.5,-346.5 134.5,-346.5 134.5,-322 288.5,-322 288.5,-346.5"/>
<text text-anchor="middle" x="211.5" y="-329.2" font-family="Helvetica,sans-Serif" font-size="14.00">Root\initErrorHandling</text>
</a>
</g>
</g>
<!-- Node3&#45;&gt;Node5 -->
<g id="edge4_Node000003_Node000005" class="edge">
<title>Node3&#45;&gt;Node5</title>
<g id="a_edge4_Node000003_Node000005"><a xlink:title=" ">
<path fill="none" stroke="#63b8ff" d="M332.46,-346.25C317.83,-344.79 302.97,-343.3 288.91,-341.9"/>
<polygon fill="#63b8ff" stroke="#63b8ff" points="331.77,-349.7 342.07,-347.21 332.47,-342.74 331.77,-349.7"/>
</a>
</g>
</g>
<!-- Node6 -->
<g id="Node000006" class="node">
<title>Node6</title>
<g id="a_Node000006"><a xlink:href="../../d8/d73/classRoot.html#a5822729d482ed44e43363b12af6c4695" target="_top" xlink:title=" ">
<polygon fill="white" stroke="#666666" points="98.5,-346.5 0,-346.5 0,-322 98.5,-322 98.5,-346.5"/>
<text text-anchor="middle" x="49.25" y="-329.2" font-family="Helvetica,sans-Serif" font-size="14.00">Root\register</text>
</a>
</g>
</g>
<!-- Node5&#45;&gt;Node6 -->
<g id="edge5_Node000005_Node000006" class="edge">
<title>Node5&#45;&gt;Node6</title>
<g id="a_edge5_Node000005_Node000006"><a xlink:title=" ">
<path fill="none" stroke="#63b8ff" d="M122.79,-334.25C114.51,-334.25 106.33,-334.25 98.62,-334.25"/>
<polygon fill="#63b8ff" stroke="#63b8ff" points="122.62,-337.75 132.62,-334.25 122.62,-330.75 122.62,-337.75"/>
</a>
</g>
</g>
</g>
</svg>
