<?xml version="1.0" encoding="UTF-8" standalone="no"?>
<!--
  - Copyright (c) 2021-2024 Bearsampp
  - License:  GNU General Public License version 3 or later; see LICENSE.txt
  - Author: Bear
  - Website: https://bearsampp.com
  - Github: https://github.com/Bearsampp
  -->

<!DOCTYPE svg PUBLIC "-//W3C//DTD SVG 1.1//EN"
 "http://www.w3.org/Graphics/SVG/1.1/DTD/svg11.dtd">
<!-- Generated by graphviz version 11.0.0 (20240428.1522)
 -->
<!-- Title: Homepage\getHomepagePath Pages: 1 -->
<svg width="470pt" height="92pt"
 viewBox="0.00 0.00 469.75 91.75" xmlns="http://www.w3.org/2000/svg" xmlns:xlink="http://www.w3.org/1999/xlink">
<g id="graph0" class="graph" transform="scale(1 1) rotate(0) translate(4 87.75)">
<title>Homepage\getHomepagePath</title>
<!-- Node1 -->
<g id="Node000001" class="node">
<title>Node1</title>
<g id="a_Node000001"><a xlink:title=" ">
<polygon fill="#999999" stroke="#666666" points="461.75,-57.75 252.25,-57.75 252.25,-33.25 461.75,-33.25 461.75,-57.75"/>
<text text-anchor="middle" x="357" y="-40.45" font-family="Helvetica,sans-Serif" font-size="14.00">Homepage\getHomepagePath</text>
</a>
</g>
</g>
<!-- Node2 -->
<g id="Node000002" class="node">
<title>Node2</title>
<g id="a_Node000002"><a xlink:href="../../d4/ddb/classHomepage.html#a95164d2ca5896cd22a095dd5f379acec" target="_top" xlink:title=" ">
<polygon fill="white" stroke="#666666" points="215.88,-83.75 0.38,-83.75 0.38,-59.25 215.88,-59.25 215.88,-83.75"/>
<text text-anchor="middle" x="108.12" y="-66.45" font-family="Helvetica,sans-Serif" font-size="14.00">Homepage\refreshAliasContent</text>
</a>
</g>
</g>
<!-- Node1&#45;&gt;Node2 -->
<g id="edge1_Node000001_Node000002" class="edge">
<title>Node1&#45;&gt;Node2</title>
<g id="a_edge1_Node000001_Node000002"><a xlink:title=" ">
<path fill="none" stroke="#63b8ff" d="M240.84,-57.63C232.61,-58.49 224.33,-59.37 216.15,-60.23"/>
<polygon fill="#63b8ff" stroke="#63b8ff" points="240.93,-61.14 250.51,-56.61 240.2,-54.18 240.93,-61.14"/>
</a>
</g>
</g>
<!-- Node3 -->
<g id="Node000003" class="node">
<title>Node3</title>
<g id="a_Node000003"><a xlink:href="../../d4/ddb/classHomepage.html#a70ce74a7625064352f4660397b6b3c97" target="_top" xlink:title=" ">
<polygon fill="white" stroke="#666666" points="216.25,-41 0,-41 0,0 216.25,0 216.25,-41"/>
<text text-anchor="start" x="8" y="-23.7" font-family="Helvetica,sans-Serif" font-size="14.00">Homepage\refreshCommonsJs</text>
<text text-anchor="middle" x="108.12" y="-7.2" font-family="Helvetica,sans-Serif" font-size="14.00">Content</text>
</a>
</g>
</g>
<!-- Node1&#45;&gt;Node3 -->
<g id="edge2_Node000001_Node000003" class="edge">
<title>Node1&#45;&gt;Node3</title>
<g id="a_edge2_Node000001_Node000003"><a xlink:title=" ">
<path fill="none" stroke="#63b8ff" d="M240.69,-33.82C232.64,-33.01 224.55,-32.19 216.55,-31.38"/>
<polygon fill="#63b8ff" stroke="#63b8ff" points="240.21,-37.29 250.51,-34.82 240.92,-30.33 240.21,-37.29"/>
</a>
</g>
</g>
</g>
</svg>
