<?xml version="1.0" encoding="UTF-8" standalone="no"?>
<!--
  - Copyright (c) 2021-2024 Bearsampp
  - License:  GNU General Public License version 3 or later; see LICENSE.txt
  - Author: Bear
  - Website: https://bearsampp.com
  - Github: https://github.com/Bearsampp
  -->

<!DOCTYPE svg PUBLIC "-//W3C//DTD SVG 1.1//EN"
 "http://www.w3.org/Graphics/SVG/1.1/DTD/svg11.dtd">
<!-- Generated by graphviz version 11.0.0 (20240428.1522)
 -->
<!-- Title: Homepage\getResourcesPath Pages: 1 -->
<svg width="469pt" height="221pt"
 viewBox="0.00 0.00 469.00 220.75" xmlns="http://www.w3.org/2000/svg" xmlns:xlink="http://www.w3.org/1999/xlink">
<g id="graph0" class="graph" transform="scale(1 1) rotate(0) translate(4 216.75)">
<title>Homepage\getResourcesPath</title>
<!-- Node1 -->
<g id="Node000001" class="node">
<title>Node1</title>
<g id="a_Node000001"><a xlink:title=" ">
<polygon fill="#999999" stroke="#666666" points="461,-126.75 252.25,-126.75 252.25,-102.25 461,-102.25 461,-126.75"/>
<text text-anchor="middle" x="356.62" y="-109.45" font-family="Helvetica,sans-Serif" font-size="14.00">Homepage\getResourcesPath</text>
</a>
</g>
</g>
<!-- Node2 -->
<g id="Node000002" class="node">
<title>Node2</title>
<g id="a_Node000002"><a xlink:href="../../d4/ddb/classHomepage.html#af70599d644b5de3aea9cd76324203071" target="_top" xlink:title=" ">
<polygon fill="white" stroke="#666666" points="195.25,-212.75 21,-212.75 21,-188.25 195.25,-188.25 195.25,-212.75"/>
<text text-anchor="middle" x="108.12" y="-195.45" font-family="Helvetica,sans-Serif" font-size="14.00">Homepage\getIconsPath</text>
</a>
</g>
</g>
<!-- Node1&#45;&gt;Node2 -->
<g id="edge1_Node000001_Node000002" class="edge">
<title>Node1&#45;&gt;Node2</title>
<g id="a_edge1_Node000001_Node000002"><a xlink:title=" ">
<path fill="none" stroke="#63b8ff" d="M322.68,-132.23C294.96,-146.51 253.94,-166.15 216.25,-178.5 205.42,-182.05 193.79,-185.14 182.32,-187.79"/>
<polygon fill="#63b8ff" stroke="#63b8ff" points="324.02,-135.48 331.27,-127.75 320.78,-129.27 324.02,-135.48"/>
</a>
</g>
</g>
<!-- Node3 -->
<g id="Node000003" class="node">
<title>Node3</title>
<g id="a_Node000003"><a xlink:href="../../d4/ddb/classHomepage.html#aacab6dca2558187c3e7c2c7b9e41e81c" target="_top" xlink:title=" ">
<polygon fill="white" stroke="#666666" points="201.62,-169.75 14.62,-169.75 14.62,-145.25 201.62,-145.25 201.62,-169.75"/>
<text text-anchor="middle" x="108.12" y="-152.45" font-family="Helvetica,sans-Serif" font-size="14.00">Homepage\getImagesPath</text>
</a>
</g>
</g>
<!-- Node1&#45;&gt;Node3 -->
<g id="edge2_Node000001_Node000003" class="edge">
<title>Node1&#45;&gt;Node3</title>
<g id="a_edge2_Node000001_Node000003"><a xlink:title=" ">
<path fill="none" stroke="#63b8ff" d="M271.67,-129.15C242.51,-134.23 210.07,-139.89 181.9,-144.81"/>
<polygon fill="#63b8ff" stroke="#63b8ff" points="271.93,-132.65 281.18,-127.49 270.72,-125.76 271.93,-132.65"/>
</a>
</g>
</g>
<!-- Node4 -->
<g id="Node000004" class="node">
<title>Node4</title>
<g id="a_Node000004"><a xlink:href="../../d4/ddb/classHomepage.html#aa3ef491b7b57e3009895a7328dcade0c" target="_top" xlink:title=" ">
<polygon fill="white" stroke="#666666" points="206.88,-126.75 9.38,-126.75 9.38,-102.25 206.88,-102.25 206.88,-126.75"/>
<text text-anchor="middle" x="108.12" y="-109.45" font-family="Helvetica,sans-Serif" font-size="14.00">Homepage\getResourcesUrl</text>
</a>
</g>
</g>
<!-- Node1&#45;&gt;Node4 -->
<g id="edge3_Node000001_Node000004" class="edge">
<title>Node1&#45;&gt;Node4</title>
<g id="a_edge3_Node000001_Node000004"><a xlink:title=" ">
<path fill="none" stroke="#63b8ff" d="M240.34,-114.5C229.3,-114.5 218.18,-114.5 207.32,-114.5"/>
<polygon fill="#63b8ff" stroke="#63b8ff" points="240.29,-118 250.29,-114.5 240.29,-111 240.29,-118"/>
</a>
</g>
</g>
<!-- Node5 -->
<g id="Node000005" class="node">
<title>Node5</title>
<g id="a_Node000005"><a xlink:href="../../d4/ddb/classHomepage.html#a95164d2ca5896cd22a095dd5f379acec" target="_top" xlink:title=" ">
<polygon fill="white" stroke="#666666" points="215.88,-83.75 0.38,-83.75 0.38,-59.25 215.88,-59.25 215.88,-83.75"/>
<text text-anchor="middle" x="108.12" y="-66.45" font-family="Helvetica,sans-Serif" font-size="14.00">Homepage\refreshAliasContent</text>
</a>
</g>
</g>
<!-- Node1&#45;&gt;Node5 -->
<g id="edge4_Node000001_Node000005" class="edge">
<title>Node1&#45;&gt;Node5</title>
<g id="a_edge4_Node000001_Node000005"><a xlink:title=" ">
<path fill="none" stroke="#63b8ff" d="M271.67,-99.85C242.51,-94.77 210.07,-89.11 181.9,-84.19"/>
<polygon fill="#63b8ff" stroke="#63b8ff" points="270.72,-103.24 281.18,-101.51 271.93,-96.35 270.72,-103.24"/>
</a>
</g>
</g>
<!-- Node6 -->
<g id="Node000006" class="node">
<title>Node6</title>
<g id="a_Node000006"><a xlink:href="../../d4/ddb/classHomepage.html#a70ce74a7625064352f4660397b6b3c97" target="_top" xlink:title=" ">
<polygon fill="white" stroke="#666666" points="216.25,-41 0,-41 0,0 216.25,0 216.25,-41"/>
<text text-anchor="start" x="8" y="-23.7" font-family="Helvetica,sans-Serif" font-size="14.00">Homepage\refreshCommonsJs</text>
<text text-anchor="middle" x="108.12" y="-7.2" font-family="Helvetica,sans-Serif" font-size="14.00">Content</text>
</a>
</g>
</g>
<!-- Node1&#45;&gt;Node6 -->
<g id="edge5_Node000001_Node000006" class="edge">
<title>Node1&#45;&gt;Node6</title>
<g id="a_edge5_Node000001_Node000006"><a xlink:title=" ">
<path fill="none" stroke="#63b8ff" d="M321.43,-96.96C293.6,-83.14 253.04,-64 216.25,-50.5 207.64,-47.34 198.53,-44.32 189.42,-41.49"/>
<polygon fill="#63b8ff" stroke="#63b8ff" points="319.58,-99.95 330.09,-101.3 322.72,-93.69 319.58,-99.95"/>
</a>
</g>
</g>
</g>
</svg>
