<?xml version="1.0" encoding="UTF-8" standalone="no" ?>
<!DOCTYPE svg PUBLIC "-//W3C//DTD SVG 1.1//EN" "http://www.w3.org/Graphics/SVG/1.1/DTD/svg11.dtd">
<svg xmlns="http://www.w3.org/2000/svg" xmlns:xlink="http://www.w3.org/1999/xlink" version="1.1" width="1080" height="1080" viewBox="0 0 1080 1080" xml:space="preserve">
<desc>Created with Fabric.js 5.2.4</desc>
<defs>
</defs>
<rect x="0" y="0" width="100%" height="100%" fill="transparent"></rect>
<g transform="matrix(1 0 0 1 540 540)" id="7f31c814-dc16-4fd7-b4b1-e8a9363d8fde"  >
<rect style="stroke: none; stroke-width: 1; stroke-dasharray: none; stroke-linecap: butt; stroke-dashoffset: 0; stroke-linejoin: miter; stroke-miterlimit: 4; fill: rgb(255,255,255); fill-rule: nonzero; opacity: 1; visibility: hidden;" vector-effect="non-scaling-stroke"  x="-540" y="-540" rx="0" ry="0" width="1080" height="1080" />
</g>
<g transform="matrix(1 0 0 1 540 540)" id="85749154-7666-4cb7-a059-247925f11595"  >
</g>
<g transform="matrix(1 0 0 1 540 540)"  >
<g style="" vector-effect="non-scaling-stroke"   >
		<g transform="matrix(1.33 0 0 -1.33 -140.99 -86.52)" id="path1063"  >
<path style="stroke: rgb(255,255,255); stroke-width: 1.50000004; stroke-dasharray: none; stroke-linecap: butt; stroke-dashoffset: 0; stroke-linejoin: miter; stroke-miterlimit: 4; fill: rgb(255,138,65); fill-rule: nonzero; opacity: 1;" vector-effect="non-scaling-stroke"  transform=" translate(-251.77, -334.36)" d="M 249.328 356.047 L 216.441 334.355 L 249.328 312.668 L 249.328 258.797 L 287.094 258.797 L 287.094 277.28900000000004 L 267.816 277.28900000000004 L 267.816 322.62100000000004 L 250.02299999999997 334.355 L 267.816 346.094 L 267.816 391.426 L 287.094 391.426 L 287.094 409.918 L 249.328 409.918 L 249.328 356.047" stroke-linecap="round" />
</g>
		<g transform="matrix(1.33 0 0 -1.33 131.63 -86.52)" id="path1065"  >
<path style="stroke: rgb(255,255,255); stroke-width: 1.50000004; stroke-dasharray: none; stroke-linecap: butt; stroke-dashoffset: 0; stroke-linejoin: miter; stroke-miterlimit: 4; fill: rgb(255,138,65); fill-rule: nonzero; opacity: 1;" vector-effect="non-scaling-stroke"  transform=" translate(-456.23, -334.36)" d="M 458.672 356.047 L 458.672 409.918 L 420.906 409.918 L 420.906 391.426 L 440.184 391.426 L 440.184 346.094 L 457.97700000000003 334.355 L 440.184 322.62100000000004 L 440.184 277.28900000000004 L 420.906 277.28900000000004 L 420.906 258.797 L 458.672 258.797 L 458.672 312.668 L 491.559 334.355 L 458.672 356.047" stroke-linecap="round" />
</g>
		<g transform="matrix(1.33 0 0 -1.33 0 258.46)" id="path1067"  >
<path style="stroke: rgb(255,255,255); stroke-width: 1.37126; stroke-dasharray: none; stroke-linecap: butt; stroke-dashoffset: 0; stroke-linejoin: miter; stroke-miterlimit: 4; fill: rgb(255,138,65); fill-rule: nonzero; opacity: 1;" vector-effect="non-scaling-stroke"  transform=" translate(-357.51, -75.62)" d="M 55.201615 44.53018 L 24.737169 44.53018 L 24.737169 131.35282999999998 L 53.609722000000005 131.35282999999998 C 58.468468 131.35282999999998 62.37673600000001 131.19074999999998 65.338334 130.87108999999998 C 72.51271200000001 129.92833 78.023734 127.63128999999998 81.867035 123.98358999999998 C 85.70922300000001 120.33949999999997 87.631431 115.50680999999997 87.631431 109.47832999999997 C 87.631431 100.34332999999997 82.733147 94.18158499999997 72.933981 90.99131099999997 C 84.879771 88.15950299999997 90.854105 81.23769699999997 90.854105 70.21706799999997 C 90.854105 66.40458599999997 90.18011200000001 62.96146599999997 88.83435300000001 59.89085999999997 C 87.47847800000001 56.819444999999966 85.65195800000001 54.30171199999997 83.34913300000001 52.339012999999966 C 81.05132 50.36866099999997 78.538835 48.78928099999997 75.808244 47.60429599999996 C 73.089904 46.41228799999996 70.189562 45.58919199999996 67.103598 45.138969999999965 C 64.153138 44.73097899999996 60.186212000000005 44.530179999999966 55.201615000000004 44.530179999999966 z M 38.98188 84.037178 L 38.98188 55.595741 L 56.593779 55.595741 C 59.552499 55.595741 61.597218 55.634460999999995 62.731274 55.711808 C 66.570956 56.042451 69.710564 57.424453 72.143232 59.865468 C 74.56828999999999 62.303061 75.78318399999999 65.546732 75.78318399999999 69.59486 C 75.78318399999999 77.994295 71.39239099999999 82.686511 62.608763999999994 83.67168699999999 C 60.878674 83.913727 58.62076999999999 84.037178 55.82883199999999 84.037178 z M 38.98188 120.41333 L 38.98188 94.740851 L 54.56029099999999 94.740851 C 56.96687899999999 94.740851 59.204457999999995 94.89842900000001 61.27423499999999 95.21880700000001 C 68.79739799999999 96.36867500000001 72.55986099999998 100.61058000000001 72.55986099999998 107.94848000000002 C 72.55986099999998 111.63130000000002 71.47220999999999 114.47671000000001 69.29764899999998 116.48469000000001 C 67.12206699999997 118.48998000000002 64.15313799999998 119.67857000000001 60.38965399999998 120.05135000000001 C 58.32275399999998 120.29448000000001 56.06085899999998 120.41333000000002 53.60972199999998 120.41333000000002 z M 99.22556 77.769184 C 99.22556 88.303394 102.35793 96.82628 108.62629 103.34009999999999 C 114.89464 109.85471999999999 123.01198 113.11162999999999 132.97802 113.11162999999999 C 139.44231 113.11162999999999 145.02488 111.61328999999999 149.73504 108.62029999999999 C 154.44055 105.62983999999999 157.94603 101.64536999999999 160.24495 96.67113299999998 C 162.54295 91.69095599999999 163.6966 86.00374899999998 163.6966 79.61230499999999 C 163.6966 77.52615399999999 163.6094 75.68375499999999 163.44228999999999 74.082675 L 114.04272999999998 74.082675 C 115.04982999999997 59.908058999999994 121.06852999999998 52.820570999999994 132.09353999999996 52.820570999999994 C 136.31364999999997 52.820570999999994 139.88779999999997 54.00906799999999 142.82061999999996 56.38714099999999 C 145.76087999999996 58.76530499999999 147.58831999999995 62.022302999999994 148.30295999999996 66.15876399999999 L 162.67751999999996 66.15876399999999 C 161.24173999999996 58.53659199999999 157.67779999999996 52.728725999999995 151.97920999999997 48.733363999999995 C 146.27596999999997 44.744395 139.45251999999996 42.750001 131.52088999999995 42.750001 C 121.89175999999995 42.750001 114.10036999999996 45.740466 108.14375999999996 51.715726 C 102.19800999999995 57.70269 99.22555999999996 66.38666699999999 99.22555999999996 77.769184 z M 114.16162 83.801172 L 149.06401 83.801172 C 148.55634 90.020541 146.89967 94.783082 144.09028 98.085822 C 141.28367 101.38162999999999 137.40789 103.03124 132.47034000000002 103.03124 C 127.48547000000002 103.03124 123.38137000000002 101.39847 120.15434000000002 98.138228 C 116.92451000000001 94.885012 114.93094000000002 90.108154 114.16162000000001 83.801172 z M 172.88302 62.043102999999995 C 172.88302 77.283845 185.63338 84.90628799999999 211.14247999999998 84.90628799999999 L 215.49994999999998 84.90628799999999 L 215.49994999999998 86.566527 C 215.49994999999998 89.756711 215.41645 92.190703 215.24657 93.86814 C 214.82892999999999 99.977836 210.81949 103.03124 203.22384 103.03124 C 195.11031 103.03124 190.65446 98.746748 189.8535 90.185503 L 175.60888 90.185503 C 176.03024 97.399953 178.78486 103.02035 183.87554 107.05163999999999 C 188.95416 111.09282999999999 195.49083 113.11162999999999 203.47815 113.11162999999999 C 212.00097 113.11162999999999 218.31305 111.50072999999999 222.41344 108.28614999999999 C 226.5064 105.06706 228.84895 100.47028999999999 229.43644 94.49394899999999 C 229.69353 91.70815499999999 229.82439 88.55029599999999 229.82439 85.02235399999998 L 229.82439 61.487349 C 229.82439 56.365711000000005 230.24853 50.713711 231.09312 44.53018 L 216.95708 44.53018 L 215.70319999999998 54.234179 L 212.14668999999998 47.045030999999994 C 207.83933 44.181616999999996 202.13980999999998 42.750001 195.05276999999998 42.750001 C 188.67201999999997 42.750001 183.37901 44.460124 179.18023999999997 47.875510999999996 C 174.98239999999996 51.301432 172.88301999999996 56.02525299999999 172.88301999999996 62.043102999999995 z M 187.88497999999998 63.14785799999999 C 187.88497999999998 59.70437799999999 188.97271999999998 57.121993999999994 191.14820999999998 55.402325999999995 C 193.32277999999997 53.678785 196.35769 52.820570999999994 200.24367999999998 52.820570999999994 C 204.79791999999998 52.820570999999994 208.48064999999997 54.29468899999999 211.28725999999997 57.245445 C 214.09664999999998 60.1926 215.49994999999998 64.312133 215.49994999999998 69.59486 L 215.49994999999998 75.743185 C 213.39684999999997 75.908866 211.39213999999998 75.99260699999999 209.48208 75.99260699999999 C 206.27361 75.99260699999999 203.40204 75.767496 200.87109 75.317275 C 196.82546000000002 74.617629 193.64575000000002 73.246252 191.33662 71.202333 C 189.0377 69.15553299999999 187.88498 66.46761599999999 187.88498 63.147858 z M 262.25346 44.53018 L 247.92902 44.53018 L 247.92902 111.32155 L 262.25346 111.32155 L 262.25346 100.02007 L 268.08292 109.23161 C 271.32759 111.72944 274.8739 112.98196 278.71256 112.98196 C 280.44626999999997 112.98196 282.02683 112.73524 283.46262 112.2427 L 283.46262 101.43368 C 282.70435000000003 101.47627999999999 281.98693000000003 101.49767999999999 281.30847 101.49767999999999 C 275.56627 101.45548 271.05194 99.833564 267.76086 96.63248399999999 C 264.04470999999995 93.034578 262.20613 87.241839 262.25345999999996 79.246794 z M 287.71522000000004 64.561555 L 302.08978 64.561555 C 302.89074 60.459941 304.59103000000005 57.438860999999996 307.18696 55.494080999999994 C 309.7903 53.54551899999999 312.98764 52.574749999999995 316.78732 52.574749999999995 C 320.24545 52.574749999999995 323.09568 53.302488999999994 325.33242 54.765710999999996 C 327.56917 56.217946999999995 328.68940000000003 58.339304999999996 328.68940000000003 61.12185899999999 C 328.68940000000003 63.984280999999996 327.44573 66.320213 324.95839 68.128126 C 322.46085 69.92901499999999 318.2593 71.586013 312.34631 73.098489 C 308.96707000000004 73.92158500000001 306.03424 74.86354 303.54691 75.926155 C 301.05308 76.99219099999999 298.78292000000005 78.30035699999999 296.74201000000005 79.858215 C 294.6899700000001 81.413193 293.12796000000003 83.308719 292.04764000000006 85.539029 C 290.96639000000005 87.779245 290.42994000000004 90.312465 290.42994000000004 93.12986599999999 C 290.42994000000004 99.323933 292.74371 104.20254 297.36941 107.76559999999999 C 301.99511 111.32874999999999 308.16982 113.11162999999999 315.89169000000004 113.11162999999999 C 323.57737000000003 113.11162999999999 329.66113 111.21619 334.14575 107.42792999999999 C 338.61924000000005 103.63904 341.25878 98.56773999999999 342.05975 92.20799099999999 L 327.55061 92.20799099999999 C 326.79327 95.81679199999999 325.35006 98.584578 323.2182 100.51279 C 321.07983 102.43325999999999 318.28064 103.39322 314.82251 103.39322 C 311.56671 103.39322 309.08308 102.60533 307.37165000000005 101.03307 C 305.66764000000006 99.45728899999999 304.81935000000004 97.361234 304.81935000000004 94.74085099999999 C 304.81935000000004 91.866452 305.99805000000003 89.63362 308.36195000000004 88.03254 C 310.72583000000003 86.439474 314.65174 84.94851799999999 320.14429 83.555621 C 327.99703 81.581666 333.79399 78.95777100000001 337.52778 75.680243 C 341.2625 72.40172600000001 343.13264 67.89599100000001 343.13264 62.162682000000004 C 343.13264 55.933407 340.63138 51.143133000000006 335.62887 47.787266 C 330.62915 44.428519 324.17971 42.750001000000005 316.27965 42.750001000000005 C 308.29976 42.750001000000005 301.77422 44.565297 296.70211 48.187875000000005 C 291.63741 51.811083 288.64333 57.269667000000005 287.71522 64.561555 z M 350.9825900000001 62.043103 C 350.9825900000001 77.283845 363.7329500000001 84.906288 389.24111000000005 84.906288 L 393.61343000000005 84.906288 L 393.61343000000005 86.56652700000001 C 393.61343000000005 89.75671100000001 393.52993000000004 92.19070300000001 393.36006000000003 93.86814000000001 C 392.93963 99.97783600000001 388.92927000000003 103.03124000000001 381.32341 103.03124000000001 C 373.22009 103.03124000000001 368.76888 98.74674800000001 367.96328 90.18550300000001 L 353.70844999999997 90.18550300000001 C 354.12888 97.39995300000001 356.88442999999995 103.02035000000001 361.97418999999996 107.05164 C 367.06487 111.09283 373.59783 113.11163 381.57678999999996 113.11163 C 390.11168 113.11163 396.42281999999994 111.50073 400.51300999999995 108.28615 C 404.61709999999994 105.06706000000001 406.95872999999995 100.47029 407.54992999999996 94.493949 C 407.79587999999995 91.708155 407.92303 88.550296 407.92303 85.022354 L 407.92303 61.487349 C 407.92303 56.365711000000005 408.34718 50.713711 409.19174999999996 44.53018 L 395.07057 44.53018 L 393.80185 54.234179 L 390.25646 47.045030999999994 C 385.94911 44.181616999999996 380.25052 42.750001 373.1514 42.750001 C 366.77808000000005 42.750001 361.4925 44.460124 357.29373000000004 47.875510999999996 C 353.08476 51.301432 350.98259 56.02525299999999 350.98259 62.043102999999995 z M 365.99847000000005 63.147858 C 365.99847000000005 59.704378 367.08621000000005 57.121994 369.2617000000001 55.402326 C 371.4371900000001 53.678785000000005 374.46747000000005 52.820571 378.3543900000001 52.820571 C 382.9114100000001 52.820571 386.5950700000001 54.294689 389.4007500000001 57.245445000000004 C 392.2101400000001 60.192600000000006 393.61343000000005 64.312133 393.61343000000005 69.59486000000001 L 393.61343000000005 75.74318500000001 C 391.50014000000004 75.90886600000002 389.49541000000005 75.992607 387.59557000000007 75.992607 C 384.3871000000001 75.992607 381.51553000000007 75.76749600000001 378.98458000000005 75.31727500000001 C 374.92781 74.61762900000001 371.74904000000004 73.24625200000001 369.45011000000005 71.20233300000001 C 367.14840000000004 69.155533 365.99847000000005 66.467616 365.99847000000005 63.147858000000014 z M 440.3521 44.53018 L 426.04344000000003 44.53018 L 426.04344000000003 111.32155 L 440.3521 111.32155 L 440.3521 101.43368000000001 L 444.97873 109.23161 C 448.35798 111.81769 453.25559999999996 113.11163 459.67627 113.11163 C 464.95443 113.11163 469.32304 111.96536 472.7821 109.67193 C 476.24766 107.3713 478.65518000000003 104.27638 480.00001000000003 100.38196 L 486.40675000000005 109.23161 C 489.91222000000005 111.81769 494.78851000000003 113.11163 501.0384 113.11163 C 507.16206 113.11163 512.07084 111.59258 515.761 108.55628 C 519.45209 105.52827 521.72132 101.59936 522.56682 96.763339 C 522.98726 93.93504300000001 523.19701 89.98182200000001 523.19701 84.906288 L 523.19701 44.53018 L 508.95331 44.53018 L 508.95331 79.858215 C 508.95331 84.945006 508.78625 88.978727 508.44563999999997 91.962079 C 508.02799 95.535043 506.70914 98.250783 504.48632999999995 100.11182000000001 C 502.26721999999995 101.97952000000001 499.29819 102.91130000000001 495.58203999999995 102.91130000000001 C 486.33714 102.91130000000001 481.71515999999997 94.65602900000002 481.71515999999997 78.14557 L 481.71515999999997 44.53018 L 467.59025999999994 44.53018 L 467.59025999999994 79.858215 C 467.59025999999994 84.57213300000001 467.40185999999994 88.606213 467.01760999999993 91.962079 C 466.0096899999999 99.263783 461.74965999999995 102.9113 454.23475999999994 102.9113 C 444.9787299999999 102.9113 440.35209999999995 94.65602899999999 440.35209999999995 78.14556999999999 z M 554.87617 19.891389 L 540.55544 19.891389 L 540.55544 111.32155 L 554.87617 111.32155 L 554.87617 100.94122 L 560.06431 108.06464 C 561.9641399999999 109.61881 564.5489299999999 110.85331 567.82237 111.76096 C 571.09303 112.66141 574.50383 113.11162999999999 578.0501399999999 113.11162999999999 C 584.4707999999999 113.11162999999999 590.04688 111.62409 594.78117 108.64813 C 599.5052499999999 105.67944999999999 603.07289 101.64537 605.47948 96.54173899999999 C 607.887 91.447836 609.09075 85.644562 609.09075 79.13074699999999 C 609.09075 73.18961399999999 608.19513 67.86078399999998 606.4010999999999 63.147857999999985 C 604.6024199999999 58.43394199999999 602.1484999999999 54.61443599999998 599.0486099999999 51.69150299999998 C 595.9450199999999 48.75767599999998 592.4098399999999 46.535378999999985 588.4403199999999 45.02290199999998 C 584.4745099999999 43.51015599999998 580.2321199999999 42.75000099999998 575.7112999999999 42.75000099999998 C 572.7172199999999 42.75000099999998 569.66838 43.12638599999998 566.5647799999999 43.87906799999998 C 563.4537599999999 44.64273399999998 561.0536699999999 45.65924699999998 559.36822 46.92896299999998 L 554.87617 53.558844999999984 z M 554.87617 78.638023 L 554.87617 75.250822 C 554.87617 71.360902 555.4451 67.910398 556.5876 64.899222 C 557.7189699999999 61.887955999999996 559.2271499999999 59.546080999999994 561.10843 57.86765199999999 C 562.98971 56.19021399999999 565.02783 54.923919999999995 567.22096 54.07939199999999 C 569.4215 53.23945799999999 571.7055799999999 52.820570999999994 574.06576 52.820570999999994 C 579.97875 52.820570999999994 584.77893 54.990821999999994 588.4690899999999 59.330873999999994 C 592.16761 63.682542 594.0201199999999 69.872377 594.0201199999999 77.89974899999999 C 594.0201199999999 85.35650899999999 592.3161099999999 91.40641499999998 588.91181 96.04928699999999 C 585.51492 100.70277999999999 580.776 103.03124 574.6959499999999 103.03124 C 571.91162 103.03124 569.3667399999999 102.58803999999999 567.05761 101.70488999999999 C 564.7586799999999 100.82587 562.6815799999999 99.45377699999999 560.82535 97.593369 C 558.96542 95.72494599999999 557.5045799999999 93.185784 556.45303 89.97831 C 555.40148 86.759221 554.87617 82.98194699999999 554.87617 78.63802299999999 z M 636.07462 19.891389000000004 L 621.75481 19.891389000000004 L 621.75481 111.32155 L 636.07462 111.32155 L 636.07462 100.94122 L 641.2664599999999 108.06464 C 643.1625799999999 109.61881 645.7473699999999 110.85331 649.0217399999999 111.76096 C 652.2914699999999 112.66141 655.7031999999999 113.11162999999999 659.2522899999999 113.11162999999999 C 665.66924 113.11162999999999 671.2453199999999 111.62409 675.9795999999999 108.64813 C 680.7036799999998 105.67944999999999 684.2713399999999 101.64537 686.6788499999999 96.54173899999999 C 689.08544 91.447836 690.2891999999999 85.644562 690.2891999999999 79.13074699999999 C 690.2891999999999 73.18961399999999 689.3945 67.86078399999998 687.6032499999999 63.147857999999985 C 685.80086 58.43394199999999 683.3506499999999 54.61443599999998 680.24705 51.69150299999998 C 677.1434499999999 48.75767599999998 673.6092199999999 46.535378999999985 669.6424699999999 45.02290199999998 C 665.6729499999999 43.51015599999998 661.4314999999999 42.75000099999998 656.9106699999999 42.75000099999998 C 653.9156599999999 42.75000099999998 650.8630999999999 43.12638599999998 647.7483699999999 43.87906799999998 C 644.6494099999999 44.64273399999998 642.2530299999999 45.65924699999998 640.5703799999999 46.92896299999998 L 636.0746199999999 53.558844999999984 z M 636.07462 78.638023 L 636.07462 75.250822 C 636.07462 71.360902 636.64726 67.910398 637.7860499999999 64.899222 C 638.92113 61.887955999999996 640.4255899999999 59.546080999999994 642.3068599999999 57.86765199999999 C 644.1890699999999 56.19021399999999 646.2262799999999 54.923919999999995 648.4193899999999 54.07939199999999 C 650.6125199999999 53.23945799999999 652.8928899999999 52.820570999999994 655.2642 52.820570999999994 C 661.17719 52.820570999999994 665.97737 54.990821999999994 669.66847 59.330873999999994 C 673.3697599999999 63.682542 675.2185599999999 69.872377 675.2185599999999 77.89974899999999 C 675.2185599999999 85.35650899999999 673.5145499999999 91.40641499999998 670.1102399999999 96.04928699999999 C 666.7133699999998 100.70277999999999 661.9753599999999 103.03124 655.8953199999999 103.03124 C 653.1035699999999 103.03124 650.5586899999998 102.58803999999999 648.2597599999998 101.70488999999999 C 645.9580499999998 100.82587 643.8800099999999 99.45377699999999 642.0274999999998 97.593369 C 640.1647899999998 95.72494599999999 638.7067299999998 93.185784 637.6551799999999 89.97831 C 636.6008499999998 86.759221 636.0746199999999 82.98194699999999 636.0746199999999 78.63802299999999 z" stroke-linecap="round" />
</g>
		<g transform="matrix(1.33 0 0 -1.33 0.93 -81.37)" id="path1069"  >
<path style="stroke: rgb(255,255,255); stroke-width: 1.50000004; stroke-dasharray: none; stroke-linecap: butt; stroke-dashoffset: 0; stroke-linejoin: miter; stroke-miterlimit: 4; fill: rgb(255,138,65); fill-rule: nonzero; opacity: 1;" vector-effect="non-scaling-stroke"  transform=" translate(-358.21, -330.5)" d="M 355.41 282.285 L 322.59000000000003 282.285 L 322.59000000000003 378.707 L 353.69500000000005 378.707 C 358.934 378.707 363.14500000000004 378.527 366.33200000000005 378.17199999999997 C 374.06600000000003 377.12499999999994 380.0040000000001 374.578 384.1410000000001 370.52299999999997 C 388.28100000000006 366.47999999999996 390.3520000000001 361.109 390.3520000000001 354.414 C 390.3520000000001 344.27 385.07400000000007 337.426 374.5160000000001 333.883 C 387.3910000000001 330.74199999999996 393.82400000000007 323.051 393.82400000000007 310.81199999999995 C 393.82400000000007 306.578 393.09800000000007 302.75399999999996 391.6480000000001 299.34399999999994 C 390.1880000000001 295.9339999999999 388.2190000000001 293.13699999999994 385.7420000000001 290.95699999999994 C 383.26200000000006 288.7699999999999 380.55500000000006 287.01599999999996 377.61300000000006 285.69899999999996 C 374.6840000000001 284.37499999999994 371.5590000000001 283.46099999999996 368.23400000000004 282.96099999999996 C 365.05500000000006 282.508 360.78100000000006 282.28499999999997 355.41 282.28499999999997 z M 337.934 326.16 L 337.934 294.574 L 356.91 294.574 C 360.098 294.574 362.305 294.617 363.523 294.70300000000003 C 367.66400000000004 295.07000000000005 371.043 296.605 373.668 299.31600000000003 C 376.281 302.023 377.586 305.62500000000006 377.586 310.12100000000004 C 377.586 319.449 372.855 324.66 363.39500000000004 325.754 C 361.53100000000006 326.023 359.09400000000005 326.16 356.09000000000003 326.16 z M 337.934 366.559 L 337.934 338.047 L 354.71900000000005 338.047 C 357.31200000000007 338.047 359.72300000000007 338.223 361.95300000000003 338.57800000000003 C 370.059 339.855 374.11300000000006 344.56600000000003 374.11300000000006 352.71500000000003 C 374.11300000000006 356.805 372.94100000000003 359.96500000000003 370.59800000000007 362.19500000000005 C 368.2540000000001 364.422 365.05500000000006 365.7420000000001 361.00000000000006 366.15600000000006 C 358.7730000000001 366.42600000000004 356.34000000000003 366.5590000000001 353.69500000000005 366.5590000000001 z" stroke-linecap="round" />
</g>
		<g transform="matrix(1.33 0 0 -1.33 -4.18 -87.71)" id="path1061"  >
<path style="stroke: rgb(255,255,255); stroke-width: 1.50000004; stroke-dasharray: none; stroke-linecap: butt; stroke-dashoffset: 0; stroke-linejoin: miter; stroke-miterlimit: 4; fill: rgb(255,138,65); fill-rule: nonzero; opacity: 1;" vector-effect="non-scaling-stroke"  transform=" translate(-354.38, -335.25)" d="M 431.81613 501.9394 C 425.7667 504.73159 419.55721 507.23927 413.16062999999997 509.37559 C 394.68820999999997 515.62283 374.92226999999997 519.00001 354.359 519.00001 C 333.58965 519.00001 313.63963 515.54496 295.00714 509.18890999999996 C 288.63758 507.02863999999994 282.42809 504.52094999999997 276.40267 501.67386 C 213.74848 472.34937 170.25 408.77187 170.25 335.25051 C 170.25 261.65028 213.82652000000002 198.01788000000002 276.58974 168.72034000000002 C 282.63917 165.90120000000002 288.84867 163.39352000000002 295.24624 161.23324000000002 C 313.7967 154.9281 333.69469 151.5 354.359 151.5 C 374.81721999999996 151.5 394.52815 154.85023 412.92154 161.04656 C 419.31910999999997 163.18288 425.55562 165.66361 431.60505 168.48276 C 494.6854 197.67448000000002 538.50001 261.43964 538.50001 335.25051 C 538.50001 408.98251000000005 494.76342999999997 472.69277 431.81613 501.9394 z M 354.359 500.53981 C 369.60812999999996 500.53981 384.38307 498.48435 398.3887 494.60803 L 353.99185 450.20051 L 309.75507 494.4483 C 323.94478 498.42944 338.90379 500.53981000000005 354.359 500.53981000000005 z M 354.359 169.96020999999996 C 339.00982999999997 169.96020999999996 324.12885 172.07056999999998 309.99017 176.00079999999997 L 353.99185 220.01099999999997 L 398.1506 175.84107999999998 C 384.19599 171.99170999999998 369.52909999999997 169.96021 354.359 169.96021 z M 417.62743 182.48563999999996 L 353.99185 246.14598999999995 L 290.56836 182.69627999999994 C 230.81734 207.69620999999995 188.74642999999998 266.66164999999995 188.74642999999998 335.25050999999996 C 188.74642999999998 403.7605 230.71229999999997 462.67103999999995 290.35727999999995 487.69792999999993 L 290.38427999999993 487.69792999999993 L 353.9918399999999 424.0655299999999 L 417.8104899999999 487.9365099999999 C 477.7725899999999 463.0413999999999 520.0035699999999 403.9711399999999 520.0035699999999 335.25050999999985 C 520.0035699999999 266.4510099999999 477.66654999999986 207.32983999999985 417.62741999999986 182.48563999999985" stroke-linecap="round" />
</g>
</g>
</g>
<g transform="matrix(NaN NaN NaN NaN 0 0)"  >
<g style=""   >
</g>
</g>
</svg>